<?xml version="1.0" encoding="utf-8"?>
<svg xmlns="http://www.w3.org/2000/svg" xmlns:xlink="http://www.w3.org/1999/xlink" width="600" height="400" viewBox="0 0 2400 1600">
<defs>
  <clipPath id="clip600">
    <rect x="0" y="0" width="2400" height="1600"/>
  </clipPath>
</defs>
<path clip-path="url(#clip600)" d="M0 1600 L2400 1600 L2400 0 L0 0  Z" fill="#ffffff" fill-rule="evenodd" fill-opacity="1"/>
<defs>
  <clipPath id="clip601">
    <rect x="480" y="0" width="1681" height="1600"/>
  </clipPath>
</defs>
<path clip-path="url(#clip600)" d="M147.478 623.18 L2352.76 623.18 L2352.76 123.472 L147.478 123.472  Z" fill="#ffffff" fill-rule="evenodd" fill-opacity="1"/>
<defs>
  <clipPath id="clip602">
    <rect x="147" y="123" width="2206" height="501"/>
  </clipPath>
</defs>
<polyline clip-path="url(#clip602)" style="stroke:#000000; stroke-linecap:round; stroke-linejoin:round; stroke-width:2; stroke-opacity:0.1; fill:none" points="232.296,623.18 232.296,123.472 "/>
<polyline clip-path="url(#clip602)" style="stroke:#000000; stroke-linecap:round; stroke-linejoin:round; stroke-width:2; stroke-opacity:0.1; fill:none" points="401.933,623.18 401.933,123.472 "/>
<polyline clip-path="url(#clip602)" style="stroke:#000000; stroke-linecap:round; stroke-linejoin:round; stroke-width:2; stroke-opacity:0.1; fill:none" points="571.57,623.18 571.57,123.472 "/>
<polyline clip-path="url(#clip602)" style="stroke:#000000; stroke-linecap:round; stroke-linejoin:round; stroke-width:2; stroke-opacity:0.1; fill:none" points="741.207,623.18 741.207,123.472 "/>
<polyline clip-path="url(#clip602)" style="stroke:#000000; stroke-linecap:round; stroke-linejoin:round; stroke-width:2; stroke-opacity:0.1; fill:none" points="910.843,623.18 910.843,123.472 "/>
<polyline clip-path="url(#clip602)" style="stroke:#000000; stroke-linecap:round; stroke-linejoin:round; stroke-width:2; stroke-opacity:0.1; fill:none" points="1080.48,623.18 1080.48,123.472 "/>
<polyline clip-path="url(#clip602)" style="stroke:#000000; stroke-linecap:round; stroke-linejoin:round; stroke-width:2; stroke-opacity:0.1; fill:none" points="1250.12,623.18 1250.12,123.472 "/>
<polyline clip-path="url(#clip602)" style="stroke:#000000; stroke-linecap:round; stroke-linejoin:round; stroke-width:2; stroke-opacity:0.1; fill:none" points="1419.75,623.18 1419.75,123.472 "/>
<polyline clip-path="url(#clip602)" style="stroke:#000000; stroke-linecap:round; stroke-linejoin:round; stroke-width:2; stroke-opacity:0.1; fill:none" points="1589.39,623.18 1589.39,123.472 "/>
<polyline clip-path="url(#clip602)" style="stroke:#000000; stroke-linecap:round; stroke-linejoin:round; stroke-width:2; stroke-opacity:0.1; fill:none" points="1759.03,623.18 1759.03,123.472 "/>
<polyline clip-path="url(#clip602)" style="stroke:#000000; stroke-linecap:round; stroke-linejoin:round; stroke-width:2; stroke-opacity:0.1; fill:none" points="1928.66,623.18 1928.66,123.472 "/>
<polyline clip-path="url(#clip602)" style="stroke:#000000; stroke-linecap:round; stroke-linejoin:round; stroke-width:2; stroke-opacity:0.1; fill:none" points="2098.3,623.18 2098.3,123.472 "/>
<polyline clip-path="url(#clip602)" style="stroke:#000000; stroke-linecap:round; stroke-linejoin:round; stroke-width:2; stroke-opacity:0.1; fill:none" points="2267.94,623.18 2267.94,123.472 "/>
<polyline clip-path="url(#clip600)" style="stroke:#000000; stroke-linecap:round; stroke-linejoin:round; stroke-width:4; stroke-opacity:1; fill:none" points="147.478,623.18 2352.76,623.18 "/>
<polyline clip-path="url(#clip600)" style="stroke:#000000; stroke-linecap:round; stroke-linejoin:round; stroke-width:4; stroke-opacity:1; fill:none" points="232.296,623.18 232.296,604.282 "/>
<polyline clip-path="url(#clip600)" style="stroke:#000000; stroke-linecap:round; stroke-linejoin:round; stroke-width:4; stroke-opacity:1; fill:none" points="401.933,623.18 401.933,604.282 "/>
<polyline clip-path="url(#clip600)" style="stroke:#000000; stroke-linecap:round; stroke-linejoin:round; stroke-width:4; stroke-opacity:1; fill:none" points="571.57,623.18 571.57,604.282 "/>
<polyline clip-path="url(#clip600)" style="stroke:#000000; stroke-linecap:round; stroke-linejoin:round; stroke-width:4; stroke-opacity:1; fill:none" points="741.207,623.18 741.207,604.282 "/>
<polyline clip-path="url(#clip600)" style="stroke:#000000; stroke-linecap:round; stroke-linejoin:round; stroke-width:4; stroke-opacity:1; fill:none" points="910.843,623.18 910.843,604.282 "/>
<polyline clip-path="url(#clip600)" style="stroke:#000000; stroke-linecap:round; stroke-linejoin:round; stroke-width:4; stroke-opacity:1; fill:none" points="1080.48,623.18 1080.48,604.282 "/>
<polyline clip-path="url(#clip600)" style="stroke:#000000; stroke-linecap:round; stroke-linejoin:round; stroke-width:4; stroke-opacity:1; fill:none" points="1250.12,623.18 1250.12,604.282 "/>
<polyline clip-path="url(#clip600)" style="stroke:#000000; stroke-linecap:round; stroke-linejoin:round; stroke-width:4; stroke-opacity:1; fill:none" points="1419.75,623.18 1419.75,604.282 "/>
<polyline clip-path="url(#clip600)" style="stroke:#000000; stroke-linecap:round; stroke-linejoin:round; stroke-width:4; stroke-opacity:1; fill:none" points="1589.39,623.18 1589.39,604.282 "/>
<polyline clip-path="url(#clip600)" style="stroke:#000000; stroke-linecap:round; stroke-linejoin:round; stroke-width:4; stroke-opacity:1; fill:none" points="1759.03,623.18 1759.03,604.282 "/>
<polyline clip-path="url(#clip600)" style="stroke:#000000; stroke-linecap:round; stroke-linejoin:round; stroke-width:4; stroke-opacity:1; fill:none" points="1928.66,623.18 1928.66,604.282 "/>
<polyline clip-path="url(#clip600)" style="stroke:#000000; stroke-linecap:round; stroke-linejoin:round; stroke-width:4; stroke-opacity:1; fill:none" points="2098.3,623.18 2098.3,604.282 "/>
<polyline clip-path="url(#clip600)" style="stroke:#000000; stroke-linecap:round; stroke-linejoin:round; stroke-width:4; stroke-opacity:1; fill:none" points="2267.94,623.18 2267.94,604.282 "/>
<path clip-path="url(#clip600)" d="M232.296 654.099 Q228.685 654.099 226.857 657.663 Q225.051 661.205 225.051 668.335 Q225.051 675.441 226.857 679.006 Q228.685 682.547 232.296 682.547 Q235.931 682.547 237.736 679.006 Q239.565 675.441 239.565 668.335 Q239.565 661.205 237.736 657.663 Q235.931 654.099 232.296 654.099 M232.296 650.395 Q238.106 650.395 241.162 655.001 Q244.241 659.585 244.241 668.335 Q244.241 677.061 241.162 681.668 Q238.106 686.251 232.296 686.251 Q226.486 686.251 223.407 681.668 Q220.352 677.061 220.352 668.335 Q220.352 659.585 223.407 655.001 Q226.486 650.395 232.296 650.395 Z" fill="#000000" fill-rule="nonzero" fill-opacity="1" /><path clip-path="url(#clip600)" d="M392.315 681.645 L399.954 681.645 L399.954 655.279 L391.644 656.946 L391.644 652.687 L399.908 651.02 L404.584 651.02 L404.584 681.645 L412.222 681.645 L412.222 685.58 L392.315 685.58 L392.315 681.645 Z" fill="#000000" fill-rule="nonzero" fill-opacity="1" /><path clip-path="url(#clip600)" d="M566.223 681.645 L582.542 681.645 L582.542 685.58 L560.598 685.58 L560.598 681.645 Q563.26 678.89 567.843 674.26 Q572.449 669.608 573.63 668.265 Q575.875 665.742 576.755 664.006 Q577.658 662.247 577.658 660.557 Q577.658 657.802 575.713 656.066 Q573.792 654.33 570.69 654.33 Q568.491 654.33 566.037 655.094 Q563.607 655.858 560.829 657.409 L560.829 652.687 Q563.653 651.552 566.107 650.974 Q568.561 650.395 570.598 650.395 Q575.968 650.395 579.162 653.08 Q582.357 655.765 582.357 660.256 Q582.357 662.386 581.547 664.307 Q580.76 666.205 578.653 668.798 Q578.074 669.469 574.973 672.686 Q571.871 675.881 566.223 681.645 Z" fill="#000000" fill-rule="nonzero" fill-opacity="1" /><path clip-path="url(#clip600)" d="M745.454 666.946 Q748.811 667.663 750.686 669.932 Q752.584 672.2 752.584 675.534 Q752.584 680.649 749.065 683.45 Q745.547 686.251 739.065 686.251 Q736.889 686.251 734.575 685.811 Q732.283 685.395 729.829 684.538 L729.829 680.024 Q731.774 681.159 734.089 681.737 Q736.403 682.316 738.927 682.316 Q743.325 682.316 745.616 680.58 Q747.931 678.844 747.931 675.534 Q747.931 672.478 745.778 670.765 Q743.649 669.029 739.829 669.029 L735.802 669.029 L735.802 665.186 L740.014 665.186 Q743.464 665.186 745.292 663.821 Q747.121 662.432 747.121 659.839 Q747.121 657.177 745.223 655.765 Q743.348 654.33 739.829 654.33 Q737.908 654.33 735.709 654.747 Q733.51 655.163 730.871 656.043 L730.871 651.876 Q733.533 651.136 735.848 650.765 Q738.186 650.395 740.246 650.395 Q745.57 650.395 748.672 652.825 Q751.774 655.233 751.774 659.353 Q751.774 662.223 750.13 664.214 Q748.487 666.182 745.454 666.946 Z" fill="#000000" fill-rule="nonzero" fill-opacity="1" /><path clip-path="url(#clip600)" d="M913.853 655.094 L902.047 673.543 L913.853 673.543 L913.853 655.094 M912.626 651.02 L918.505 651.02 L918.505 673.543 L923.436 673.543 L923.436 677.432 L918.505 677.432 L918.505 685.58 L913.853 685.58 L913.853 677.432 L898.251 677.432 L898.251 672.918 L912.626 651.02 Z" fill="#000000" fill-rule="nonzero" fill-opacity="1" /><path clip-path="url(#clip600)" d="M1070.76 651.02 L1089.11 651.02 L1089.11 654.955 L1075.04 654.955 L1075.04 663.427 Q1076.06 663.08 1077.08 662.918 Q1078.1 662.733 1079.11 662.733 Q1084.9 662.733 1088.28 665.904 Q1091.66 669.075 1091.66 674.492 Q1091.66 680.071 1088.19 683.172 Q1084.72 686.251 1078.4 686.251 Q1076.22 686.251 1073.95 685.881 Q1071.71 685.51 1069.3 684.77 L1069.3 680.071 Q1071.38 681.205 1073.61 681.76 Q1075.83 682.316 1078.3 682.316 Q1082.31 682.316 1084.65 680.21 Q1086.98 678.103 1086.98 674.492 Q1086.98 670.881 1084.65 668.774 Q1082.31 666.668 1078.3 666.668 Q1076.43 666.668 1074.55 667.085 Q1072.7 667.501 1070.76 668.381 L1070.76 651.02 Z" fill="#000000" fill-rule="nonzero" fill-opacity="1" /><path clip-path="url(#clip600)" d="M1250.52 666.436 Q1247.37 666.436 1245.52 668.589 Q1243.69 670.742 1243.69 674.492 Q1243.69 678.219 1245.52 680.395 Q1247.37 682.547 1250.52 682.547 Q1253.67 682.547 1255.5 680.395 Q1257.35 678.219 1257.35 674.492 Q1257.35 670.742 1255.5 668.589 Q1253.67 666.436 1250.52 666.436 M1259.8 651.784 L1259.8 656.043 Q1258.05 655.21 1256.24 654.77 Q1254.46 654.33 1252.7 654.33 Q1248.07 654.33 1245.61 657.455 Q1243.18 660.58 1242.84 666.899 Q1244.2 664.886 1246.26 663.821 Q1248.32 662.733 1250.8 662.733 Q1256.01 662.733 1259.02 665.904 Q1262.05 669.052 1262.05 674.492 Q1262.05 679.816 1258.9 683.034 Q1255.75 686.251 1250.52 686.251 Q1244.53 686.251 1241.36 681.668 Q1238.18 677.061 1238.18 668.335 Q1238.18 660.14 1242.07 655.279 Q1245.96 650.395 1252.51 650.395 Q1254.27 650.395 1256.05 650.742 Q1257.86 651.089 1259.8 651.784 Z" fill="#000000" fill-rule="nonzero" fill-opacity="1" /><path clip-path="url(#clip600)" d="M1408.64 651.02 L1430.86 651.02 L1430.86 653.011 L1418.32 685.58 L1413.43 685.58 L1425.24 654.955 L1408.64 654.955 L1408.64 651.02 Z" fill="#000000" fill-rule="nonzero" fill-opacity="1" /><path clip-path="url(#clip600)" d="M1589.39 669.168 Q1586.06 669.168 1584.14 670.95 Q1582.24 672.733 1582.24 675.858 Q1582.24 678.983 1584.14 680.765 Q1586.06 682.547 1589.39 682.547 Q1592.72 682.547 1594.65 680.765 Q1596.57 678.96 1596.57 675.858 Q1596.57 672.733 1594.65 670.95 Q1592.75 669.168 1589.39 669.168 M1584.71 667.177 Q1581.71 666.436 1580.02 664.376 Q1578.35 662.316 1578.35 659.353 Q1578.35 655.21 1581.29 652.802 Q1584.25 650.395 1589.39 650.395 Q1594.55 650.395 1597.49 652.802 Q1600.43 655.21 1600.43 659.353 Q1600.43 662.316 1598.74 664.376 Q1597.08 666.436 1594.09 667.177 Q1597.47 667.964 1599.34 670.256 Q1601.24 672.548 1601.24 675.858 Q1601.24 680.881 1598.16 683.566 Q1595.11 686.251 1589.39 686.251 Q1583.67 686.251 1580.59 683.566 Q1577.54 680.881 1577.54 675.858 Q1577.54 672.548 1579.44 670.256 Q1581.33 667.964 1584.71 667.177 M1583 659.793 Q1583 662.478 1584.67 663.983 Q1586.36 665.487 1589.39 665.487 Q1592.4 665.487 1594.09 663.983 Q1595.8 662.478 1595.8 659.793 Q1595.8 657.108 1594.09 655.603 Q1592.4 654.099 1589.39 654.099 Q1586.36 654.099 1584.67 655.603 Q1583 657.108 1583 659.793 Z" fill="#000000" fill-rule="nonzero" fill-opacity="1" /><path clip-path="url(#clip600)" d="M1749.33 684.862 L1749.33 680.603 Q1751.09 681.436 1752.89 681.876 Q1754.7 682.316 1756.43 682.316 Q1761.06 682.316 1763.49 679.214 Q1765.95 676.089 1766.3 669.747 Q1764.95 671.737 1762.89 672.802 Q1760.83 673.867 1758.33 673.867 Q1753.15 673.867 1750.12 670.742 Q1747.11 667.594 1747.11 662.154 Q1747.11 656.83 1750.25 653.612 Q1753.4 650.395 1758.63 650.395 Q1764.63 650.395 1767.78 655.001 Q1770.95 659.585 1770.95 668.335 Q1770.95 676.506 1767.06 681.39 Q1763.19 686.251 1756.64 686.251 Q1754.88 686.251 1753.08 685.904 Q1751.27 685.557 1749.33 684.862 M1758.63 670.21 Q1761.78 670.21 1763.61 668.057 Q1765.46 665.904 1765.46 662.154 Q1765.46 658.427 1763.61 656.274 Q1761.78 654.099 1758.63 654.099 Q1755.49 654.099 1753.63 656.274 Q1751.81 658.427 1751.81 662.154 Q1751.81 665.904 1753.63 668.057 Q1755.49 670.21 1758.63 670.21 Z" fill="#000000" fill-rule="nonzero" fill-opacity="1" /><path clip-path="url(#clip600)" d="M1903.35 681.645 L1910.99 681.645 L1910.99 655.279 L1902.68 656.946 L1902.68 652.687 L1910.94 651.02 L1915.62 651.02 L1915.62 681.645 L1923.26 681.645 L1923.26 685.58 L1903.35 685.58 L1903.35 681.645 Z" fill="#000000" fill-rule="nonzero" fill-opacity="1" /><path clip-path="url(#clip600)" d="M1942.7 654.099 Q1939.09 654.099 1937.26 657.663 Q1935.46 661.205 1935.46 668.335 Q1935.46 675.441 1937.26 679.006 Q1939.09 682.547 1942.7 682.547 Q1946.34 682.547 1948.14 679.006 Q1949.97 675.441 1949.97 668.335 Q1949.97 661.205 1948.14 657.663 Q1946.34 654.099 1942.7 654.099 M1942.7 650.395 Q1948.51 650.395 1951.57 655.001 Q1954.65 659.585 1954.65 668.335 Q1954.65 677.061 1951.57 681.668 Q1948.51 686.251 1942.7 686.251 Q1936.89 686.251 1933.81 681.668 Q1930.76 677.061 1930.76 668.335 Q1930.76 659.585 1933.81 655.001 Q1936.89 650.395 1942.7 650.395 Z" fill="#000000" fill-rule="nonzero" fill-opacity="1" /><path clip-path="url(#clip600)" d="M2073.6 681.645 L2081.24 681.645 L2081.24 655.279 L2072.93 656.946 L2072.93 652.687 L2081.19 651.02 L2085.87 651.02 L2085.87 681.645 L2093.51 681.645 L2093.51 685.58 L2073.6 685.58 L2073.6 681.645 Z" fill="#000000" fill-rule="nonzero" fill-opacity="1" /><path clip-path="url(#clip600)" d="M2103.76 681.645 L2111.4 681.645 L2111.4 655.279 L2103.09 656.946 L2103.09 652.687 L2111.36 651.02 L2116.03 651.02 L2116.03 681.645 L2123.67 681.645 L2123.67 685.58 L2103.76 685.58 L2103.76 681.645 Z" fill="#000000" fill-rule="nonzero" fill-opacity="1" /><path clip-path="url(#clip600)" d="M2243.42 681.645 L2251.06 681.645 L2251.06 655.279 L2242.75 656.946 L2242.75 652.687 L2251.02 651.02 L2255.69 651.02 L2255.69 681.645 L2263.33 681.645 L2263.33 685.58 L2243.42 685.58 L2243.42 681.645 Z" fill="#000000" fill-rule="nonzero" fill-opacity="1" /><path clip-path="url(#clip600)" d="M2276.8 681.645 L2293.12 681.645 L2293.12 685.58 L2271.18 685.58 L2271.18 681.645 Q2273.84 678.89 2278.42 674.26 Q2283.03 669.608 2284.21 668.265 Q2286.46 665.742 2287.34 664.006 Q2288.24 662.247 2288.24 660.557 Q2288.24 657.802 2286.29 656.066 Q2284.37 654.33 2281.27 654.33 Q2279.07 654.33 2276.62 655.094 Q2274.19 655.858 2271.41 657.409 L2271.41 652.687 Q2274.23 651.552 2276.69 650.974 Q2279.14 650.395 2281.18 650.395 Q2286.55 650.395 2289.74 653.08 Q2292.94 655.765 2292.94 660.256 Q2292.94 662.386 2292.13 664.307 Q2291.34 666.205 2289.23 668.798 Q2288.66 669.469 2285.55 672.686 Q2282.45 675.881 2276.8 681.645 Z" fill="#000000" fill-rule="nonzero" fill-opacity="1" /><path clip-path="url(#clip600)" d="M1258.59 731.913 Q1258.59 732.815 1258.17 733.04 Q1257.75 733.233 1256.59 733.233 L1250.41 733.233 L1245.51 752.686 Q1245.13 754.393 1245.13 755.842 Q1245.13 757.452 1245.61 758.161 Q1246.12 758.869 1247.19 758.869 Q1249.28 758.869 1251.53 756.969 Q1253.82 755.069 1255.75 750.431 Q1256.01 749.819 1256.14 749.691 Q1256.3 749.53 1256.72 749.53 Q1257.53 749.53 1257.53 750.174 Q1257.53 750.399 1257.07 751.43 Q1256.66 752.46 1255.72 753.974 Q1254.82 755.488 1253.63 756.905 Q1252.47 758.322 1250.7 759.352 Q1248.93 760.351 1247.03 760.351 Q1244.35 760.351 1242.65 758.644 Q1240.97 756.937 1240.97 754.264 Q1240.97 753.394 1241.65 750.625 Q1242.32 747.823 1246 733.233 L1240.17 733.233 Q1239.36 733.233 1239.04 733.201 Q1238.75 733.169 1238.52 733.008 Q1238.33 732.815 1238.33 732.428 Q1238.33 731.816 1238.59 731.559 Q1238.85 731.269 1239.17 731.237 Q1239.52 731.172 1240.33 731.172 L1246.51 731.172 L1249.09 720.705 Q1249.34 719.675 1249.99 719.095 Q1250.67 718.483 1251.05 718.419 Q1251.44 718.322 1251.73 718.322 Q1252.6 718.322 1253.11 718.805 Q1253.63 719.256 1253.63 720.093 Q1253.63 720.544 1250.92 731.172 L1256.72 731.172 Q1257.46 731.172 1257.75 731.204 Q1258.07 731.237 1258.33 731.398 Q1258.59 731.559 1258.59 731.913 Z" fill="#000000" fill-rule="nonzero" fill-opacity="1" /><polyline clip-path="url(#clip602)" style="stroke:#000000; stroke-linecap:round; stroke-linejoin:round; stroke-width:2; stroke-opacity:0.1; fill:none" points="147.478,498.253 2352.76,498.253 "/>
<polyline clip-path="url(#clip602)" style="stroke:#000000; stroke-linecap:round; stroke-linejoin:round; stroke-width:2; stroke-opacity:0.1; fill:none" points="147.478,248.399 2352.76,248.399 "/>
<polyline clip-path="url(#clip600)" style="stroke:#000000; stroke-linecap:round; stroke-linejoin:round; stroke-width:4; stroke-opacity:1; fill:none" points="147.478,623.18 147.478,123.472 "/>
<polyline clip-path="url(#clip600)" style="stroke:#000000; stroke-linecap:round; stroke-linejoin:round; stroke-width:4; stroke-opacity:1; fill:none" points="147.478,498.253 166.376,498.253 "/>
<polyline clip-path="url(#clip600)" style="stroke:#000000; stroke-linecap:round; stroke-linejoin:round; stroke-width:4; stroke-opacity:1; fill:none" points="147.478,248.399 166.376,248.399 "/>
<path clip-path="url(#clip600)" d="M99.5335 484.052 Q95.9224 484.052 94.0937 487.616 Q92.2882 491.158 92.2882 498.288 Q92.2882 505.394 94.0937 508.959 Q95.9224 512.501 99.5335 512.501 Q103.168 512.501 104.973 508.959 Q106.802 505.394 106.802 498.288 Q106.802 491.158 104.973 487.616 Q103.168 484.052 99.5335 484.052 M99.5335 480.348 Q105.344 480.348 108.399 484.954 Q111.478 489.538 111.478 498.288 Q111.478 507.014 108.399 511.621 Q105.344 516.204 99.5335 516.204 Q93.7234 516.204 90.6447 511.621 Q87.5892 507.014 87.5892 498.288 Q87.5892 489.538 90.6447 484.954 Q93.7234 480.348 99.5335 480.348 Z" fill="#000000" fill-rule="nonzero" fill-opacity="1" /><path clip-path="url(#clip600)" d="M91.5706 261.744 L99.2095 261.744 L99.2095 235.378 L90.8993 237.045 L90.8993 232.786 L99.1632 231.119 L103.839 231.119 L103.839 261.744 L111.478 261.744 L111.478 265.679 L91.5706 265.679 L91.5706 261.744 Z" fill="#000000" fill-rule="nonzero" fill-opacity="1" /><path clip-path="url(#clip600)" d="M1247.4 47.8781 Q1246.29 53.1657 1244.86 56.1989 Q1242.56 60.8307 1238.67 60.8307 Q1235.72 60.8307 1233.62 59.0272 Q1231.53 57.2236 1231.04 54.5183 Q1225.67 60.8307 1220.1 60.8307 Q1215.18 60.8307 1212.06 57.1007 Q1208.95 53.3297 1208.95 47.3862 Q1208.95 41.4018 1211.9 35.6633 Q1214.89 29.9248 1219.61 26.3587 Q1224.32 22.7926 1229.16 22.7926 Q1234.28 22.7926 1236.9 28.1622 Q1237.11 26.6866 1238.05 25.5799 Q1238.99 24.4732 1240.43 24.4732 Q1241.54 24.4732 1242.19 25.088 Q1242.85 25.6619 1242.85 26.7276 Q1242.85 27.2605 1242.27 29.5969 L1239.24 41.3198 L1237.4 48.9028 Q1236.7 51.6901 1236.49 52.7148 Q1236.33 53.7395 1236.33 55.0922 Q1236.33 58.9452 1238.83 58.9452 Q1240.06 58.9452 1241.04 58.1664 Q1242.03 57.3876 1242.81 55.748 Q1243.59 54.1084 1244.08 52.5918 Q1244.57 51.0343 1245.22 48.5749 Q1245.43 47.5912 1245.59 47.3452 Q1245.8 47.0583 1246.37 47.0583 Q1247.4 47.0583 1247.4 47.8781 M1235.88 32.0152 Q1235.88 31.6463 1235.59 30.6216 Q1235.31 29.5969 1234.65 28.1622 Q1233.99 26.7276 1232.56 25.7029 Q1231.17 24.6372 1229.28 24.6372 Q1226.74 24.6372 1224.07 26.8096 Q1221.45 28.982 1219.52 32.6711 Q1218.05 35.6223 1216.45 41.8117 Q1214.89 48.001 1214.89 51.0752 Q1214.89 52.9607 1215.3 54.6413 Q1215.75 56.2809 1217.02 57.6335 Q1218.29 58.9452 1220.26 58.9452 Q1225.06 58.9452 1229.77 53.0017 Q1230.67 51.977 1230.88 51.5671 Q1231.12 51.1162 1231.45 49.8866 L1235.63 33.4499 Q1235.88 32.2202 1235.88 32.0152 Z" fill="#000000" fill-rule="nonzero" fill-opacity="1" /><path clip-path="url(#clip600)" d="M1282.59 62.7888 Q1282.59 64.4243 1281.58 65.3998 Q1280.61 66.3754 1279.37 66.3754 Q1278.28 66.3754 1277.71 65.7441 Q1277.13 65.1129 1277.13 64.3095 Q1277.13 63.9652 1277.28 63.5348 Q1277.42 63.0757 1277.74 62.5306 Q1278.08 61.9854 1278.8 61.5837 Q1279.52 61.182 1280.49 61.1246 Q1280.29 60.9238 1280.23 60.8951 Q1279.8 60.5508 1279 60.436 Q1278.88 60.3786 1278.48 60.3786 Q1276.5 60.3786 1274.49 61.842 Q1272.51 63.2766 1270.08 66.0024 Q1267.01 69.1872 1265.03 70.3636 Q1273.72 71.5113 1273.72 76.5325 Q1273.72 77.3646 1273.49 78.3688 Q1273.03 80.2625 1273.03 81.6398 Q1273.03 84.3943 1274.9 84.3943 Q1276.7 84.3943 1277.85 82.5579 Q1279.03 80.7216 1280 77.1351 Q1280.15 76.4751 1280.29 76.2743 Q1280.43 76.0734 1280.83 76.0734 Q1281.55 76.0734 1281.55 76.6473 Q1280.89 80.0043 1279.43 82.5866 Q1277.56 85.7141 1274.78 85.7141 Q1272.46 85.7141 1270.91 84.1073 Q1269.39 82.4719 1269.39 79.8895 Q1269.39 79.2583 1269.62 77.8237 Q1269.79 77.2498 1269.79 76.5899 Q1269.79 75.2414 1269.04 74.2371 Q1268.3 73.2042 1267.09 72.6877 Q1265.89 72.1713 1264.88 71.9417 Q1263.91 71.6835 1262.96 71.5974 Q1260.09 83.7343 1259.69 84.4803 Q1259.43 84.9968 1258.86 85.3411 Q1258.28 85.7141 1257.68 85.7141 Q1257.11 85.7141 1256.53 85.3124 Q1255.99 84.9394 1255.99 84.05 Q1255.99 83.5909 1256.22 82.7588 L1264.74 48.9016 L1264.91 47.7539 Q1264.91 47.4096 1264.77 47.2375 Q1264.65 47.0366 1263.96 46.8932 Q1263.3 46.7497 1261.98 46.7497 Q1261.44 46.7497 1261.18 46.721 Q1260.95 46.6923 1260.75 46.5489 Q1260.55 46.3767 1260.55 46.0324 Q1260.55 45.5446 1260.75 45.2864 Q1260.98 44.9995 1261.15 44.9421 Q1261.32 44.8847 1261.67 44.856 Q1262.16 44.8273 1263.79 44.6838 Q1265.43 44.5117 1266.83 44.3969 Q1268.24 44.2822 1268.84 44.2822 Q1269.19 44.2822 1269.36 44.4543 Q1269.56 44.5978 1269.59 44.7699 L1269.62 44.9134 L1263.5 69.7037 Q1266.03 68.6995 1270.02 64.2521 Q1274.64 59.0875 1278.6 59.0875 Q1280.46 59.0875 1281.52 60.2352 Q1282.59 61.3542 1282.59 62.7888 Z" fill="#000000" fill-rule="nonzero" fill-opacity="1" /><polyline clip-path="url(#clip602)" style="stroke:#009af9; stroke-linecap:round; stroke-linejoin:round; stroke-width:8; stroke-opacity:1; fill:none" points="232.296,248.399 401.933,248.399 401.933,498.253 571.57,498.253 571.57,248.399 741.207,248.399 910.843,248.399 910.843,498.253 1080.48,498.253 1250.12,498.253 1250.12,248.399 1419.75,248.399 1589.39,248.399 1759.03,248.399 1759.03,498.253 1928.66,498.253 2098.3,498.253 2267.94,498.253 "/>
<path clip-path="url(#clip600)" d="M147.478 1423.18 L2352.76 1423.18 L2352.76 923.472 L147.478 923.472  Z" fill="#ffffff" fill-rule="evenodd" fill-opacity="1"/>
<defs>
  <clipPath id="clip603">
    <rect x="147" y="923" width="2206" height="501"/>
  </clipPath>
</defs>
<polyline clip-path="url(#clip603)" style="stroke:#000000; stroke-linecap:round; stroke-linejoin:round; stroke-width:2; stroke-opacity:0.1; fill:none" points="232.296,1423.18 232.296,923.472 "/>
<polyline clip-path="url(#clip603)" style="stroke:#000000; stroke-linecap:round; stroke-linejoin:round; stroke-width:2; stroke-opacity:0.1; fill:none" points="401.933,1423.18 401.933,923.472 "/>
<polyline clip-path="url(#clip603)" style="stroke:#000000; stroke-linecap:round; stroke-linejoin:round; stroke-width:2; stroke-opacity:0.1; fill:none" points="571.57,1423.18 571.57,923.472 "/>
<polyline clip-path="url(#clip603)" style="stroke:#000000; stroke-linecap:round; stroke-linejoin:round; stroke-width:2; stroke-opacity:0.1; fill:none" points="741.207,1423.18 741.207,923.472 "/>
<polyline clip-path="url(#clip603)" style="stroke:#000000; stroke-linecap:round; stroke-linejoin:round; stroke-width:2; stroke-opacity:0.1; fill:none" points="910.843,1423.18 910.843,923.472 "/>
<polyline clip-path="url(#clip603)" style="stroke:#000000; stroke-linecap:round; stroke-linejoin:round; stroke-width:2; stroke-opacity:0.1; fill:none" points="1080.48,1423.18 1080.48,923.472 "/>
<polyline clip-path="url(#clip603)" style="stroke:#000000; stroke-linecap:round; stroke-linejoin:round; stroke-width:2; stroke-opacity:0.1; fill:none" points="1250.12,1423.18 1250.12,923.472 "/>
<polyline clip-path="url(#clip603)" style="stroke:#000000; stroke-linecap:round; stroke-linejoin:round; stroke-width:2; stroke-opacity:0.1; fill:none" points="1419.75,1423.18 1419.75,923.472 "/>
<polyline clip-path="url(#clip603)" style="stroke:#000000; stroke-linecap:round; stroke-linejoin:round; stroke-width:2; stroke-opacity:0.1; fill:none" points="1589.39,1423.18 1589.39,923.472 "/>
<polyline clip-path="url(#clip603)" style="stroke:#000000; stroke-linecap:round; stroke-linejoin:round; stroke-width:2; stroke-opacity:0.1; fill:none" points="1759.03,1423.18 1759.03,923.472 "/>
<polyline clip-path="url(#clip603)" style="stroke:#000000; stroke-linecap:round; stroke-linejoin:round; stroke-width:2; stroke-opacity:0.1; fill:none" points="1928.66,1423.18 1928.66,923.472 "/>
<polyline clip-path="url(#clip603)" style="stroke:#000000; stroke-linecap:round; stroke-linejoin:round; stroke-width:2; stroke-opacity:0.1; fill:none" points="2098.3,1423.18 2098.3,923.472 "/>
<polyline clip-path="url(#clip603)" style="stroke:#000000; stroke-linecap:round; stroke-linejoin:round; stroke-width:2; stroke-opacity:0.1; fill:none" points="2267.94,1423.18 2267.94,923.472 "/>
<polyline clip-path="url(#clip600)" style="stroke:#000000; stroke-linecap:round; stroke-linejoin:round; stroke-width:4; stroke-opacity:1; fill:none" points="147.478,1423.18 2352.76,1423.18 "/>
<polyline clip-path="url(#clip600)" style="stroke:#000000; stroke-linecap:round; stroke-linejoin:round; stroke-width:4; stroke-opacity:1; fill:none" points="232.296,1423.18 232.296,1404.28 "/>
<polyline clip-path="url(#clip600)" style="stroke:#000000; stroke-linecap:round; stroke-linejoin:round; stroke-width:4; stroke-opacity:1; fill:none" points="401.933,1423.18 401.933,1404.28 "/>
<polyline clip-path="url(#clip600)" style="stroke:#000000; stroke-linecap:round; stroke-linejoin:round; stroke-width:4; stroke-opacity:1; fill:none" points="571.57,1423.18 571.57,1404.28 "/>
<polyline clip-path="url(#clip600)" style="stroke:#000000; stroke-linecap:round; stroke-linejoin:round; stroke-width:4; stroke-opacity:1; fill:none" points="741.207,1423.18 741.207,1404.28 "/>
<polyline clip-path="url(#clip600)" style="stroke:#000000; stroke-linecap:round; stroke-linejoin:round; stroke-width:4; stroke-opacity:1; fill:none" points="910.843,1423.18 910.843,1404.28 "/>
<polyline clip-path="url(#clip600)" style="stroke:#000000; stroke-linecap:round; stroke-linejoin:round; stroke-width:4; stroke-opacity:1; fill:none" points="1080.48,1423.18 1080.48,1404.28 "/>
<polyline clip-path="url(#clip600)" style="stroke:#000000; stroke-linecap:round; stroke-linejoin:round; stroke-width:4; stroke-opacity:1; fill:none" points="1250.12,1423.18 1250.12,1404.28 "/>
<polyline clip-path="url(#clip600)" style="stroke:#000000; stroke-linecap:round; stroke-linejoin:round; stroke-width:4; stroke-opacity:1; fill:none" points="1419.75,1423.18 1419.75,1404.28 "/>
<polyline clip-path="url(#clip600)" style="stroke:#000000; stroke-linecap:round; stroke-linejoin:round; stroke-width:4; stroke-opacity:1; fill:none" points="1589.39,1423.18 1589.39,1404.28 "/>
<polyline clip-path="url(#clip600)" style="stroke:#000000; stroke-linecap:round; stroke-linejoin:round; stroke-width:4; stroke-opacity:1; fill:none" points="1759.03,1423.18 1759.03,1404.28 "/>
<polyline clip-path="url(#clip600)" style="stroke:#000000; stroke-linecap:round; stroke-linejoin:round; stroke-width:4; stroke-opacity:1; fill:none" points="1928.66,1423.18 1928.66,1404.28 "/>
<polyline clip-path="url(#clip600)" style="stroke:#000000; stroke-linecap:round; stroke-linejoin:round; stroke-width:4; stroke-opacity:1; fill:none" points="2098.3,1423.18 2098.3,1404.28 "/>
<polyline clip-path="url(#clip600)" style="stroke:#000000; stroke-linecap:round; stroke-linejoin:round; stroke-width:4; stroke-opacity:1; fill:none" points="2267.94,1423.18 2267.94,1404.28 "/>
<path clip-path="url(#clip600)" d="M232.296 1454.1 Q228.685 1454.1 226.857 1457.66 Q225.051 1461.2 225.051 1468.33 Q225.051 1475.44 226.857 1479.01 Q228.685 1482.55 232.296 1482.55 Q235.931 1482.55 237.736 1479.01 Q239.565 1475.44 239.565 1468.33 Q239.565 1461.2 237.736 1457.66 Q235.931 1454.1 232.296 1454.1 M232.296 1450.39 Q238.106 1450.39 241.162 1455 Q244.241 1459.58 244.241 1468.33 Q244.241 1477.06 241.162 1481.67 Q238.106 1486.25 232.296 1486.25 Q226.486 1486.25 223.407 1481.67 Q220.352 1477.06 220.352 1468.33 Q220.352 1459.58 223.407 1455 Q226.486 1450.39 232.296 1450.39 Z" fill="#000000" fill-rule="nonzero" fill-opacity="1" /><path clip-path="url(#clip600)" d="M392.315 1481.64 L399.954 1481.64 L399.954 1455.28 L391.644 1456.95 L391.644 1452.69 L399.908 1451.02 L404.584 1451.02 L404.584 1481.64 L412.222 1481.64 L412.222 1485.58 L392.315 1485.58 L392.315 1481.64 Z" fill="#000000" fill-rule="nonzero" fill-opacity="1" /><path clip-path="url(#clip600)" d="M566.223 1481.64 L582.542 1481.64 L582.542 1485.58 L560.598 1485.58 L560.598 1481.64 Q563.26 1478.89 567.843 1474.26 Q572.449 1469.61 573.63 1468.27 Q575.875 1465.74 576.755 1464.01 Q577.658 1462.25 577.658 1460.56 Q577.658 1457.8 575.713 1456.07 Q573.792 1454.33 570.69 1454.33 Q568.491 1454.33 566.037 1455.09 Q563.607 1455.86 560.829 1457.41 L560.829 1452.69 Q563.653 1451.55 566.107 1450.97 Q568.561 1450.39 570.598 1450.39 Q575.968 1450.39 579.162 1453.08 Q582.357 1455.77 582.357 1460.26 Q582.357 1462.39 581.547 1464.31 Q580.76 1466.2 578.653 1468.8 Q578.074 1469.47 574.973 1472.69 Q571.871 1475.88 566.223 1481.64 Z" fill="#000000" fill-rule="nonzero" fill-opacity="1" /><path clip-path="url(#clip600)" d="M745.454 1466.95 Q748.811 1467.66 750.686 1469.93 Q752.584 1472.2 752.584 1475.53 Q752.584 1480.65 749.065 1483.45 Q745.547 1486.25 739.065 1486.25 Q736.889 1486.25 734.575 1485.81 Q732.283 1485.39 729.829 1484.54 L729.829 1480.02 Q731.774 1481.16 734.089 1481.74 Q736.403 1482.32 738.927 1482.32 Q743.325 1482.32 745.616 1480.58 Q747.931 1478.84 747.931 1475.53 Q747.931 1472.48 745.778 1470.77 Q743.649 1469.03 739.829 1469.03 L735.802 1469.03 L735.802 1465.19 L740.014 1465.19 Q743.464 1465.19 745.292 1463.82 Q747.121 1462.43 747.121 1459.84 Q747.121 1457.18 745.223 1455.77 Q743.348 1454.33 739.829 1454.33 Q737.908 1454.33 735.709 1454.75 Q733.51 1455.16 730.871 1456.04 L730.871 1451.88 Q733.533 1451.14 735.848 1450.77 Q738.186 1450.39 740.246 1450.39 Q745.57 1450.39 748.672 1452.83 Q751.774 1455.23 751.774 1459.35 Q751.774 1462.22 750.13 1464.21 Q748.487 1466.18 745.454 1466.95 Z" fill="#000000" fill-rule="nonzero" fill-opacity="1" /><path clip-path="url(#clip600)" d="M913.853 1455.09 L902.047 1473.54 L913.853 1473.54 L913.853 1455.09 M912.626 1451.02 L918.505 1451.02 L918.505 1473.54 L923.436 1473.54 L923.436 1477.43 L918.505 1477.43 L918.505 1485.58 L913.853 1485.58 L913.853 1477.43 L898.251 1477.43 L898.251 1472.92 L912.626 1451.02 Z" fill="#000000" fill-rule="nonzero" fill-opacity="1" /><path clip-path="url(#clip600)" d="M1070.76 1451.02 L1089.11 1451.02 L1089.11 1454.96 L1075.04 1454.96 L1075.04 1463.43 Q1076.06 1463.08 1077.08 1462.92 Q1078.1 1462.73 1079.11 1462.73 Q1084.9 1462.73 1088.28 1465.9 Q1091.66 1469.08 1091.66 1474.49 Q1091.66 1480.07 1088.19 1483.17 Q1084.72 1486.25 1078.4 1486.25 Q1076.22 1486.25 1073.95 1485.88 Q1071.71 1485.51 1069.3 1484.77 L1069.3 1480.07 Q1071.38 1481.2 1073.61 1481.76 Q1075.83 1482.32 1078.3 1482.32 Q1082.31 1482.32 1084.65 1480.21 Q1086.98 1478.1 1086.98 1474.49 Q1086.98 1470.88 1084.65 1468.77 Q1082.31 1466.67 1078.3 1466.67 Q1076.43 1466.67 1074.55 1467.08 Q1072.7 1467.5 1070.76 1468.38 L1070.76 1451.02 Z" fill="#000000" fill-rule="nonzero" fill-opacity="1" /><path clip-path="url(#clip600)" d="M1250.52 1466.44 Q1247.37 1466.44 1245.52 1468.59 Q1243.69 1470.74 1243.69 1474.49 Q1243.69 1478.22 1245.52 1480.39 Q1247.37 1482.55 1250.52 1482.55 Q1253.67 1482.55 1255.5 1480.39 Q1257.35 1478.22 1257.35 1474.49 Q1257.35 1470.74 1255.5 1468.59 Q1253.67 1466.44 1250.52 1466.44 M1259.8 1451.78 L1259.8 1456.04 Q1258.05 1455.21 1256.24 1454.77 Q1254.46 1454.33 1252.7 1454.33 Q1248.07 1454.33 1245.61 1457.45 Q1243.18 1460.58 1242.84 1466.9 Q1244.2 1464.89 1246.26 1463.82 Q1248.32 1462.73 1250.8 1462.73 Q1256.01 1462.73 1259.02 1465.9 Q1262.05 1469.05 1262.05 1474.49 Q1262.05 1479.82 1258.9 1483.03 Q1255.75 1486.25 1250.52 1486.25 Q1244.53 1486.25 1241.36 1481.67 Q1238.18 1477.06 1238.18 1468.33 Q1238.18 1460.14 1242.07 1455.28 Q1245.96 1450.39 1252.51 1450.39 Q1254.27 1450.39 1256.05 1450.74 Q1257.86 1451.09 1259.8 1451.78 Z" fill="#000000" fill-rule="nonzero" fill-opacity="1" /><path clip-path="url(#clip600)" d="M1408.64 1451.02 L1430.86 1451.02 L1430.86 1453.01 L1418.32 1485.58 L1413.43 1485.58 L1425.24 1454.96 L1408.64 1454.96 L1408.64 1451.02 Z" fill="#000000" fill-rule="nonzero" fill-opacity="1" /><path clip-path="url(#clip600)" d="M1589.39 1469.17 Q1586.06 1469.17 1584.14 1470.95 Q1582.24 1472.73 1582.24 1475.86 Q1582.24 1478.98 1584.14 1480.77 Q1586.06 1482.55 1589.39 1482.55 Q1592.72 1482.55 1594.65 1480.77 Q1596.57 1478.96 1596.57 1475.86 Q1596.57 1472.73 1594.65 1470.95 Q1592.75 1469.17 1589.39 1469.17 M1584.71 1467.18 Q1581.71 1466.44 1580.02 1464.38 Q1578.35 1462.32 1578.35 1459.35 Q1578.35 1455.21 1581.29 1452.8 Q1584.25 1450.39 1589.39 1450.39 Q1594.55 1450.39 1597.49 1452.8 Q1600.43 1455.21 1600.43 1459.35 Q1600.43 1462.32 1598.74 1464.38 Q1597.08 1466.44 1594.09 1467.18 Q1597.47 1467.96 1599.34 1470.26 Q1601.24 1472.55 1601.24 1475.86 Q1601.24 1480.88 1598.16 1483.57 Q1595.11 1486.25 1589.39 1486.25 Q1583.67 1486.25 1580.59 1483.57 Q1577.54 1480.88 1577.54 1475.86 Q1577.54 1472.55 1579.44 1470.26 Q1581.33 1467.96 1584.71 1467.18 M1583 1459.79 Q1583 1462.48 1584.67 1463.98 Q1586.36 1465.49 1589.39 1465.49 Q1592.4 1465.49 1594.09 1463.98 Q1595.8 1462.48 1595.8 1459.79 Q1595.8 1457.11 1594.09 1455.6 Q1592.4 1454.1 1589.39 1454.1 Q1586.36 1454.1 1584.67 1455.6 Q1583 1457.11 1583 1459.79 Z" fill="#000000" fill-rule="nonzero" fill-opacity="1" /><path clip-path="url(#clip600)" d="M1749.33 1484.86 L1749.33 1480.6 Q1751.09 1481.44 1752.89 1481.88 Q1754.7 1482.32 1756.43 1482.32 Q1761.06 1482.32 1763.49 1479.21 Q1765.95 1476.09 1766.3 1469.75 Q1764.95 1471.74 1762.89 1472.8 Q1760.83 1473.87 1758.33 1473.87 Q1753.15 1473.87 1750.12 1470.74 Q1747.11 1467.59 1747.11 1462.15 Q1747.11 1456.83 1750.25 1453.61 Q1753.4 1450.39 1758.63 1450.39 Q1764.63 1450.39 1767.78 1455 Q1770.95 1459.58 1770.95 1468.33 Q1770.95 1476.51 1767.06 1481.39 Q1763.19 1486.25 1756.64 1486.25 Q1754.88 1486.25 1753.08 1485.9 Q1751.27 1485.56 1749.33 1484.86 M1758.63 1470.21 Q1761.78 1470.21 1763.61 1468.06 Q1765.46 1465.9 1765.46 1462.15 Q1765.46 1458.43 1763.61 1456.27 Q1761.78 1454.1 1758.63 1454.1 Q1755.49 1454.1 1753.63 1456.27 Q1751.81 1458.43 1751.81 1462.15 Q1751.81 1465.9 1753.63 1468.06 Q1755.49 1470.21 1758.63 1470.21 Z" fill="#000000" fill-rule="nonzero" fill-opacity="1" /><path clip-path="url(#clip600)" d="M1903.35 1481.64 L1910.99 1481.64 L1910.99 1455.28 L1902.68 1456.95 L1902.68 1452.69 L1910.94 1451.02 L1915.62 1451.02 L1915.62 1481.64 L1923.26 1481.64 L1923.26 1485.58 L1903.35 1485.58 L1903.35 1481.64 Z" fill="#000000" fill-rule="nonzero" fill-opacity="1" /><path clip-path="url(#clip600)" d="M1942.7 1454.1 Q1939.09 1454.1 1937.26 1457.66 Q1935.46 1461.2 1935.46 1468.33 Q1935.46 1475.44 1937.26 1479.01 Q1939.09 1482.55 1942.7 1482.55 Q1946.34 1482.55 1948.14 1479.01 Q1949.97 1475.44 1949.97 1468.33 Q1949.97 1461.2 1948.14 1457.66 Q1946.34 1454.1 1942.7 1454.1 M1942.7 1450.39 Q1948.51 1450.39 1951.57 1455 Q1954.65 1459.58 1954.65 1468.33 Q1954.65 1477.06 1951.57 1481.67 Q1948.51 1486.25 1942.7 1486.25 Q1936.89 1486.25 1933.81 1481.67 Q1930.76 1477.06 1930.76 1468.33 Q1930.76 1459.58 1933.81 1455 Q1936.89 1450.39 1942.7 1450.39 Z" fill="#000000" fill-rule="nonzero" fill-opacity="1" /><path clip-path="url(#clip600)" d="M2073.6 1481.64 L2081.24 1481.64 L2081.24 1455.28 L2072.93 1456.95 L2072.93 1452.69 L2081.19 1451.02 L2085.87 1451.02 L2085.87 1481.64 L2093.51 1481.64 L2093.51 1485.58 L2073.6 1485.58 L2073.6 1481.64 Z" fill="#000000" fill-rule="nonzero" fill-opacity="1" /><path clip-path="url(#clip600)" d="M2103.76 1481.64 L2111.4 1481.64 L2111.4 1455.28 L2103.09 1456.95 L2103.09 1452.69 L2111.36 1451.02 L2116.03 1451.02 L2116.03 1481.64 L2123.67 1481.64 L2123.67 1485.58 L2103.76 1485.58 L2103.76 1481.64 Z" fill="#000000" fill-rule="nonzero" fill-opacity="1" /><path clip-path="url(#clip600)" d="M2243.42 1481.64 L2251.06 1481.64 L2251.06 1455.28 L2242.75 1456.95 L2242.75 1452.69 L2251.02 1451.02 L2255.69 1451.02 L2255.69 1481.64 L2263.33 1481.64 L2263.33 1485.58 L2243.42 1485.58 L2243.42 1481.64 Z" fill="#000000" fill-rule="nonzero" fill-opacity="1" /><path clip-path="url(#clip600)" d="M2276.8 1481.64 L2293.12 1481.64 L2293.12 1485.58 L2271.18 1485.58 L2271.18 1481.64 Q2273.84 1478.89 2278.42 1474.26 Q2283.03 1469.61 2284.21 1468.27 Q2286.46 1465.74 2287.34 1464.01 Q2288.24 1462.25 2288.24 1460.56 Q2288.24 1457.8 2286.29 1456.07 Q2284.37 1454.33 2281.27 1454.33 Q2279.07 1454.33 2276.62 1455.09 Q2274.19 1455.86 2271.41 1457.41 L2271.41 1452.69 Q2274.23 1451.55 2276.69 1450.97 Q2279.14 1450.39 2281.18 1450.39 Q2286.55 1450.39 2289.74 1453.08 Q2292.94 1455.77 2292.94 1460.26 Q2292.94 1462.39 2292.13 1464.31 Q2291.34 1466.2 2289.23 1468.8 Q2288.66 1469.47 2285.55 1472.69 Q2282.45 1475.88 2276.8 1481.64 Z" fill="#000000" fill-rule="nonzero" fill-opacity="1" /><path clip-path="url(#clip600)" d="M1258.59 1531.91 Q1258.59 1532.81 1258.17 1533.04 Q1257.75 1533.23 1256.59 1533.23 L1250.41 1533.23 L1245.51 1552.69 Q1245.13 1554.39 1245.13 1555.84 Q1245.13 1557.45 1245.61 1558.16 Q1246.12 1558.87 1247.19 1558.87 Q1249.28 1558.87 1251.53 1556.97 Q1253.82 1555.07 1255.75 1550.43 Q1256.01 1549.82 1256.14 1549.69 Q1256.3 1549.53 1256.72 1549.53 Q1257.53 1549.53 1257.53 1550.17 Q1257.53 1550.4 1257.07 1551.43 Q1256.66 1552.46 1255.72 1553.97 Q1254.82 1555.49 1253.63 1556.9 Q1252.47 1558.32 1250.7 1559.35 Q1248.93 1560.35 1247.03 1560.35 Q1244.35 1560.35 1242.65 1558.64 Q1240.97 1556.94 1240.97 1554.26 Q1240.97 1553.39 1241.65 1550.62 Q1242.32 1547.82 1246 1533.23 L1240.17 1533.23 Q1239.36 1533.23 1239.04 1533.2 Q1238.75 1533.17 1238.52 1533.01 Q1238.33 1532.81 1238.33 1532.43 Q1238.33 1531.82 1238.59 1531.56 Q1238.85 1531.27 1239.17 1531.24 Q1239.52 1531.17 1240.33 1531.17 L1246.51 1531.17 L1249.09 1520.71 Q1249.34 1519.67 1249.99 1519.09 Q1250.67 1518.48 1251.05 1518.42 Q1251.44 1518.32 1251.73 1518.32 Q1252.6 1518.32 1253.11 1518.81 Q1253.63 1519.26 1253.63 1520.09 Q1253.63 1520.54 1250.92 1531.17 L1256.72 1531.17 Q1257.46 1531.17 1257.75 1531.2 Q1258.07 1531.24 1258.33 1531.4 Q1258.59 1531.56 1258.59 1531.91 Z" fill="#000000" fill-rule="nonzero" fill-opacity="1" /><polyline clip-path="url(#clip603)" style="stroke:#000000; stroke-linecap:round; stroke-linejoin:round; stroke-width:2; stroke-opacity:0.1; fill:none" points="147.478,1339.9 2352.76,1339.9 "/>
<polyline clip-path="url(#clip603)" style="stroke:#000000; stroke-linecap:round; stroke-linejoin:round; stroke-width:2; stroke-opacity:0.1; fill:none" points="147.478,1173.33 2352.76,1173.33 "/>
<polyline clip-path="url(#clip603)" style="stroke:#000000; stroke-linecap:round; stroke-linejoin:round; stroke-width:2; stroke-opacity:0.1; fill:none" points="147.478,1006.76 2352.76,1006.76 "/>
<polyline clip-path="url(#clip600)" style="stroke:#000000; stroke-linecap:round; stroke-linejoin:round; stroke-width:4; stroke-opacity:1; fill:none" points="147.478,1423.18 147.478,923.472 "/>
<polyline clip-path="url(#clip600)" style="stroke:#000000; stroke-linecap:round; stroke-linejoin:round; stroke-width:4; stroke-opacity:1; fill:none" points="147.478,1339.9 166.376,1339.9 "/>
<polyline clip-path="url(#clip600)" style="stroke:#000000; stroke-linecap:round; stroke-linejoin:round; stroke-width:4; stroke-opacity:1; fill:none" points="147.478,1173.33 166.376,1173.33 "/>
<polyline clip-path="url(#clip600)" style="stroke:#000000; stroke-linecap:round; stroke-linejoin:round; stroke-width:4; stroke-opacity:1; fill:none" points="147.478,1006.76 166.376,1006.76 "/>
<path clip-path="url(#clip600)" d="M50.9921 1340.35 L80.6679 1340.35 L80.6679 1344.28 L50.9921 1344.28 L50.9921 1340.35 Z" fill="#000000" fill-rule="nonzero" fill-opacity="1" /><path clip-path="url(#clip600)" d="M91.5706 1353.24 L99.2095 1353.24 L99.2095 1326.87 L90.8993 1328.54 L90.8993 1324.28 L99.1632 1322.62 L103.839 1322.62 L103.839 1353.24 L111.478 1353.24 L111.478 1357.18 L91.5706 1357.18 L91.5706 1353.24 Z" fill="#000000" fill-rule="nonzero" fill-opacity="1" /><path clip-path="url(#clip600)" d="M99.5335 1159.12 Q95.9224 1159.12 94.0937 1162.69 Q92.2882 1166.23 92.2882 1173.36 Q92.2882 1180.47 94.0937 1184.03 Q95.9224 1187.57 99.5335 1187.57 Q103.168 1187.57 104.973 1184.03 Q106.802 1180.47 106.802 1173.36 Q106.802 1166.23 104.973 1162.69 Q103.168 1159.12 99.5335 1159.12 M99.5335 1155.42 Q105.344 1155.42 108.399 1160.03 Q111.478 1164.61 111.478 1173.36 Q111.478 1182.09 108.399 1186.69 Q105.344 1191.28 99.5335 1191.28 Q93.7234 1191.28 90.6447 1186.69 Q87.5892 1182.09 87.5892 1173.36 Q87.5892 1164.61 90.6447 1160.03 Q93.7234 1155.42 99.5335 1155.42 Z" fill="#000000" fill-rule="nonzero" fill-opacity="1" /><path clip-path="url(#clip600)" d="M91.5706 1020.1 L99.2095 1020.1 L99.2095 993.736 L90.8993 995.403 L90.8993 991.143 L99.1632 989.477 L103.839 989.477 L103.839 1020.1 L111.478 1020.1 L111.478 1024.04 L91.5706 1024.04 L91.5706 1020.1 Z" fill="#000000" fill-rule="nonzero" fill-opacity="1" /><path clip-path="url(#clip600)" d="M1253.13 812.06 L1248.58 830.423 Q1248.34 831.53 1248.13 831.817 Q1247.93 832.104 1247.35 832.104 Q1246.9 832.104 1246.62 831.899 Q1246.37 831.694 1246.37 831.489 L1246.33 831.284 Q1246.33 831.161 1246.41 830.546 Q1246.49 829.891 1246.58 828.825 Q1246.66 827.759 1246.66 826.57 Q1246.66 819.848 1243.38 816.733 Q1240.14 813.577 1234.57 813.577 Q1230.71 813.577 1227.27 815.626 Q1223.83 817.676 1221.86 820.914 Q1219.89 824.111 1219.89 827.472 Q1219.89 830.546 1221.45 832.514 Q1223.01 834.481 1225.02 835.137 L1230.63 836.654 Q1236.53 838.17 1238.21 838.826 Q1239.89 839.441 1241.29 840.835 Q1245.43 844.688 1245.43 850.672 Q1245.43 855.837 1242.52 860.837 Q1239.61 865.797 1234.61 869.035 Q1229.61 872.232 1224.07 872.232 Q1214.36 872.232 1209.89 866.207 L1205.79 870.962 Q1205.01 871.864 1204.77 872.028 Q1204.56 872.232 1204.27 872.232 Q1203.91 872.232 1203.62 871.987 Q1203.33 871.782 1203.33 871.413 Q1203.33 871.126 1205.75 861.493 Q1208.17 851.861 1208.37 851.656 Q1208.7 851.328 1209.23 851.328 Q1210.22 851.328 1210.22 852.271 Q1210.14 852.517 1210.05 852.845 Q1209.56 855.796 1209.56 857.394 Q1209.56 860.387 1210.59 862.682 Q1211.61 864.936 1213.13 866.248 Q1214.69 867.519 1216.78 868.338 Q1218.87 869.117 1220.63 869.404 Q1222.39 869.65 1224.24 869.65 Q1228.21 869.65 1231.74 867.355 Q1235.3 865.059 1237.31 861.493 Q1239.36 857.927 1239.36 854.197 Q1239.36 852.23 1238.83 850.713 Q1238.3 849.155 1237.56 848.295 Q1236.86 847.434 1235.67 846.778 Q1234.48 846.122 1233.66 845.876 Q1232.89 845.589 1231.66 845.302 L1222.68 842.925 Q1219.07 841.859 1216.49 838.785 Q1213.95 835.711 1213.95 830.997 Q1213.95 826.038 1216.86 821.447 Q1219.81 816.815 1224.61 814.028 Q1229.44 811.199 1234.65 811.199 Q1238.75 811.199 1241.9 812.798 Q1245.06 814.356 1246.66 817.266 L1250.72 812.47 Q1251.54 811.527 1251.7 811.363 Q1251.9 811.199 1252.19 811.199 Q1252.68 811.199 1252.89 811.486 Q1253.13 811.773 1253.13 812.06 Z" fill="#000000" fill-rule="nonzero" fill-opacity="1" /><path clip-path="url(#clip600)" d="M1288.2 874.179 Q1288.2 875.815 1287.2 876.79 Q1286.22 877.766 1284.99 877.766 Q1283.9 877.766 1283.32 877.135 Q1282.75 876.504 1282.75 875.7 Q1282.75 875.356 1282.89 874.925 Q1283.04 874.466 1283.35 873.921 Q1283.7 873.376 1284.41 872.974 Q1285.13 872.573 1286.11 872.515 Q1285.91 872.314 1285.85 872.286 Q1285.42 871.941 1284.62 871.827 Q1284.5 871.769 1284.1 871.769 Q1282.12 871.769 1280.11 873.233 Q1278.13 874.667 1275.69 877.393 Q1272.62 880.578 1270.64 881.754 Q1279.34 882.902 1279.34 887.923 Q1279.34 888.755 1279.11 889.759 Q1278.65 891.653 1278.65 893.03 Q1278.65 895.785 1280.51 895.785 Q1282.32 895.785 1283.47 893.949 Q1284.64 892.112 1285.62 888.526 Q1285.76 887.866 1285.91 887.665 Q1286.05 887.464 1286.45 887.464 Q1287.17 887.464 1287.17 888.038 Q1286.51 891.395 1285.05 893.977 Q1283.18 897.105 1280.4 897.105 Q1278.07 897.105 1276.52 895.498 Q1275 893.862 1275 891.28 Q1275 890.649 1275.23 889.214 Q1275.41 888.64 1275.41 887.981 Q1275.41 886.632 1274.66 885.628 Q1273.91 884.595 1272.71 884.078 Q1271.5 883.562 1270.5 883.332 Q1269.52 883.074 1268.58 882.988 Q1265.71 895.125 1265.31 895.871 Q1265.05 896.387 1264.47 896.732 Q1263.9 897.105 1263.3 897.105 Q1262.72 897.105 1262.15 896.703 Q1261.6 896.33 1261.6 895.441 Q1261.6 894.981 1261.83 894.149 L1270.36 860.292 L1270.53 859.145 Q1270.53 858.8 1270.38 858.628 Q1270.27 858.427 1269.58 858.284 Q1268.92 858.14 1267.6 858.14 Q1267.06 858.14 1266.8 858.112 Q1266.57 858.083 1266.37 857.939 Q1266.17 857.767 1266.17 857.423 Q1266.17 856.935 1266.37 856.677 Q1266.6 856.39 1266.77 856.333 Q1266.94 856.275 1267.29 856.247 Q1267.77 856.218 1269.41 856.074 Q1271.04 855.902 1272.45 855.788 Q1273.86 855.673 1274.46 855.673 Q1274.8 855.673 1274.98 855.845 Q1275.18 855.988 1275.2 856.161 L1275.23 856.304 L1269.12 881.094 Q1271.65 880.09 1275.64 875.643 Q1280.25 870.478 1284.21 870.478 Q1286.08 870.478 1287.14 871.626 Q1288.2 872.745 1288.2 874.179 Z" fill="#000000" fill-rule="nonzero" fill-opacity="1" /><polyline clip-path="url(#clip603)" style="stroke:#009af9; stroke-linecap:round; stroke-linejoin:round; stroke-width:8; stroke-opacity:1; fill:none" points="232.296,1173.33 235.695,1141.48 239.093,1110.82 242.491,1082.46 245.89,1057.45 249.288,1036.71 252.687,1021.01 256.085,1010.93 259.483,1006.84 262.882,1008.89 266.28,1017.01 269.679,1030.89 273.077,1050.02 276.475,1073.7 279.874,1101.05 283.272,1131.07 286.671,1162.65 290.069,1194.63 293.467,1225.81 296.866,1255.06 300.264,1281.3 303.663,1303.56 307.061,1321.01 310.459,1333.01 313.858,1339.13 317.256,1339.13 320.655,1333.01 324.053,1321.01 327.451,1303.56 330.85,1281.3 334.248,1255.06 337.647,1225.81 341.045,1194.63 344.443,1162.65 347.842,1131.07 351.24,1101.05 354.639,1073.7 358.037,1050.02 361.435,1030.89 364.834,1017.01 368.232,1008.89 371.631,1006.84 375.029,1010.93 378.427,1021.01 381.826,1036.71 385.224,1057.45 388.623,1082.46 392.021,1110.82 395.419,1141.48 398.818,1173.33 402.216,1173.33 405.615,1141.48 409.013,1110.82 412.411,1082.46 415.81,1057.45 419.208,1036.71 422.607,1021.01 426.005,1010.93 429.403,1006.84 432.802,1008.89 436.2,1017.01 439.599,1030.89 442.997,1050.02 446.395,1073.7 449.794,1101.05 453.192,1131.07 456.591,1162.65 459.989,1194.63 463.387,1225.81 466.786,1255.06 470.184,1281.3 473.583,1303.56 476.981,1321.01 480.379,1333.01 483.778,1339.13 487.176,1339.13 490.575,1333.01 493.973,1321.01 497.371,1303.56 500.77,1281.3 504.168,1255.06 507.567,1225.81 510.965,1194.63 514.363,1162.65 517.762,1131.07 521.16,1101.05 524.559,1073.7 527.957,1050.02 531.355,1030.89 534.754,1017.01 538.152,1008.89 541.551,1006.84 544.949,1010.93 548.347,1021.01 551.746,1036.71 555.144,1057.45 558.543,1082.46 561.941,1110.82 565.339,1141.48 568.738,1173.33 572.136,1173.33 575.535,1205.17 578.933,1235.83 582.331,1264.2 585.73,1289.21 589.128,1309.94 592.527,1325.64 595.925,1335.72 599.323,1339.81 602.722,1337.76 606.12,1329.65 609.519,1315.77 612.917,1296.63 616.315,1272.95 619.714,1245.6 623.112,1215.58 626.511,1184 629.909,1152.03 633.307,1120.84 636.706,1091.59 640.104,1065.35 643.503,1043.1 646.901,1025.65 650.299,1013.64 653.698,1007.53 657.096,1007.53 660.495,1013.64 663.893,1025.65 667.291,1043.1 670.69,1065.35 674.088,1091.59 677.487,1120.84 680.885,1152.03 684.283,1184 687.682,1215.58 691.08,1245.6 694.479,1272.95 697.877,1296.63 701.275,1315.77 704.674,1329.65 708.072,1337.76 711.471,1339.81 714.869,1335.72 718.267,1325.64 721.666,1309.94 725.064,1289.21 728.463,1264.2 731.861,1235.83 735.259,1205.17 738.658,1173.33 742.056,1173.33 745.455,1141.48 748.853,1110.82 752.251,1082.46 755.65,1057.45 759.048,1036.71 762.447,1021.01 765.845,1010.93 769.243,1006.84 772.642,1008.89 776.04,1017.01 779.439,1030.89 782.837,1050.02 786.235,1073.7 789.634,1101.05 793.032,1131.07 796.431,1162.65 799.829,1194.63 803.227,1225.81 806.626,1255.06 810.024,1281.3 813.423,1303.56 816.821,1321.01 820.219,1333.01 823.618,1339.13 827.016,1339.13 830.415,1333.01 833.813,1321.01 837.211,1303.56 840.61,1281.3 844.008,1255.06 847.407,1225.81 850.805,1194.63 854.203,1162.65 857.602,1131.07 861,1101.05 864.399,1073.7 867.797,1050.02 871.195,1030.89 874.594,1017.01 877.992,1008.89 881.391,1006.84 884.789,1010.93 888.187,1021.01 891.586,1036.71 894.984,1057.45 898.383,1082.46 901.781,1110.82 905.179,1141.48 908.578,1173.33 911.976,1173.33 915.375,1141.48 918.773,1110.82 922.171,1082.46 925.57,1057.45 928.968,1036.71 932.367,1021.01 935.765,1010.93 939.163,1006.84 942.562,1008.89 945.96,1017.01 949.359,1030.89 952.757,1050.02 956.155,1073.7 959.554,1101.05 962.952,1131.07 966.351,1162.65 969.749,1194.63 973.147,1225.81 976.546,1255.06 979.944,1281.3 983.343,1303.56 986.741,1321.01 990.139,1333.01 993.538,1339.13 996.936,1339.13 1000.33,1333.01 1003.73,1321.01 1007.13,1303.56 1010.53,1281.3 1013.93,1255.06 1017.33,1225.81 1020.72,1194.63 1024.12,1162.65 1027.52,1131.07 1030.92,1101.05 1034.32,1073.7 1037.72,1050.02 1041.12,1030.89 1044.51,1017.01 1047.91,1008.89 1051.31,1006.84 1054.71,1010.93 1058.11,1021.01 1061.51,1036.71 1064.9,1057.45 1068.3,1082.46 1071.7,1110.82 1075.1,1141.48 1078.5,1173.33 1081.9,1173.33 1085.29,1141.48 1088.69,1110.82 1092.09,1082.46 1095.49,1057.45 1098.89,1036.71 1102.29,1021.01 1105.68,1010.93 1109.08,1006.84 1112.48,1008.89 1115.88,1017.01 1119.28,1030.89 1122.68,1050.02 1126.08,1073.7 1129.47,1101.05 1132.87,1131.07 1136.27,1162.65 1139.67,1194.63 1143.07,1225.81 1146.47,1255.06 1149.86,1281.3 1153.26,1303.56 1156.66,1321.01 1160.06,1333.01 1163.46,1339.13 1166.86,1339.13 1170.25,1333.01 1173.65,1321.01 1177.05,1303.56 1180.45,1281.3 1183.85,1255.06 1187.25,1225.81 1190.64,1194.63 1194.04,1162.65 1197.44,1131.07 1200.84,1101.05 1204.24,1073.7 1207.64,1050.02 1211.04,1030.89 1214.43,1017.01 1217.83,1008.89 1221.23,1006.84 1224.63,1010.93 1228.03,1021.01 1231.43,1036.71 1234.82,1057.45 1238.22,1082.46 1241.62,1110.82 1245.02,1141.48 1248.42,1173.33 1251.82,1173.33 1255.21,1205.17 1258.61,1235.83 1262.01,1264.2 1265.41,1289.21 1268.81,1309.94 1272.21,1325.64 1275.6,1335.72 1279,1339.81 1282.4,1337.76 1285.8,1329.65 1289.2,1315.77 1292.6,1296.63 1296,1272.95 1299.39,1245.6 1302.79,1215.58 1306.19,1184 1309.59,1152.03 1312.99,1120.84 1316.39,1091.59 1319.78,1065.35 1323.18,1043.1 1326.58,1025.65 1329.98,1013.64 1333.38,1007.53 1336.78,1007.53 1340.17,1013.64 1343.57,1025.65 1346.97,1043.1 1350.37,1065.35 1353.77,1091.59 1357.17,1120.84 1360.56,1152.03 1363.96,1184 1367.36,1215.58 1370.76,1245.6 1374.16,1272.95 1377.56,1296.63 1380.96,1315.77 1384.35,1329.65 1387.75,1337.76 1391.15,1339.81 1394.55,1335.72 1397.95,1325.64 1401.35,1309.94 1404.74,1289.21 1408.14,1264.2 1411.54,1235.83 1414.94,1205.17 1418.34,1173.33 1421.74,1173.33 1425.13,1141.48 1428.53,1110.82 1431.93,1082.46 1435.33,1057.45 1438.73,1036.71 1442.13,1021.01 1445.52,1010.93 1448.92,1006.84 1452.32,1008.89 1455.72,1017.01 1459.12,1030.89 1462.52,1050.02 1465.92,1073.7 1469.31,1101.05 1472.71,1131.07 1476.11,1162.65 1479.51,1194.63 1482.91,1225.81 1486.31,1255.06 1489.7,1281.3 1493.1,1303.56 1496.5,1321.01 1499.9,1333.01 1503.3,1339.13 1506.7,1339.13 1510.09,1333.01 1513.49,1321.01 1516.89,1303.56 1520.29,1281.3 1523.69,1255.06 1527.09,1225.81 1530.48,1194.63 1533.88,1162.65 1537.28,1131.07 1540.68,1101.05 1544.08,1073.7 1547.48,1050.02 1550.88,1030.89 1554.27,1017.01 1557.67,1008.89 1561.07,1006.84 1564.47,1010.93 1567.87,1021.01 1571.27,1036.71 1574.66,1057.45 1578.06,1082.46 1581.46,1110.82 1584.86,1141.48 1588.26,1173.33 1591.66,1173.33 1595.05,1205.17 1598.45,1235.83 1601.85,1264.2 1605.25,1289.21 1608.65,1309.94 1612.05,1325.64 1615.44,1335.72 1618.84,1339.81 1622.24,1337.76 1625.64,1329.65 1629.04,1315.77 1632.44,1296.63 1635.84,1272.95 1639.23,1245.6 1642.63,1215.58 1646.03,1184 1649.43,1152.03 1652.83,1120.84 1656.23,1091.59 1659.62,1065.35 1663.02,1043.1 1666.42,1025.65 1669.82,1013.64 1673.22,1007.53 1676.62,1007.53 1680.01,1013.64 1683.41,1025.65 1686.81,1043.1 1690.21,1065.35 1693.61,1091.59 1697.01,1120.84 1700.4,1152.03 1703.8,1184 1707.2,1215.58 1710.6,1245.6 1714,1272.95 1717.4,1296.63 1720.8,1315.77 1724.19,1329.65 1727.59,1337.76 1730.99,1339.81 1734.39,1335.72 1737.79,1325.64 1741.19,1309.94 1744.58,1289.21 1747.98,1264.2 1751.38,1235.83 1754.78,1205.17 1758.18,1173.33 1761.58,1173.33 1764.97,1205.17 1768.37,1235.83 1771.77,1264.2 1775.17,1289.21 1778.57,1309.94 1781.97,1325.64 1785.36,1335.72 1788.76,1339.81 1792.16,1337.76 1795.56,1329.65 1798.96,1315.77 1802.36,1296.63 1805.76,1272.95 1809.15,1245.6 1812.55,1215.58 1815.95,1184 1819.35,1152.03 1822.75,1120.84 1826.15,1091.59 1829.54,1065.35 1832.94,1043.1 1836.34,1025.65 1839.74,1013.64 1843.14,1007.53 1846.54,1007.53 1849.93,1013.64 1853.33,1025.65 1856.73,1043.1 1860.13,1065.35 1863.53,1091.59 1866.93,1120.84 1870.32,1152.03 1873.72,1184 1877.12,1215.58 1880.52,1245.6 1883.92,1272.95 1887.32,1296.63 1890.72,1315.77 1894.11,1329.65 1897.51,1337.76 1900.91,1339.81 1904.31,1335.72 1907.71,1325.64 1911.11,1309.94 1914.5,1289.21 1917.9,1264.2 1921.3,1235.83 1924.7,1205.17 1928.1,1173.33 1931.5,1173.33 1934.89,1205.17 1938.29,1235.83 1941.69,1264.2 1945.09,1289.21 1948.49,1309.94 1951.89,1325.64 1955.28,1335.72 1958.68,1339.81 1962.08,1337.76 1965.48,1329.65 1968.88,1315.77 1972.28,1296.63 1975.68,1272.95 1979.07,1245.6 1982.47,1215.58 1985.87,1184 1989.27,1152.03 1992.67,1120.84 1996.07,1091.59 1999.46,1065.35 2002.86,1043.1 2006.26,1025.65 2009.66,1013.64 2013.06,1007.53 2016.46,1007.53 2019.85,1013.64 2023.25,1025.65 2026.65,1043.1 2030.05,1065.35 2033.45,1091.59 2036.85,1120.84 2040.24,1152.03 2043.64,1184 2047.04,1215.58 2050.44,1245.6 2053.84,1272.95 2057.24,1296.63 2060.64,1315.77 2064.03,1329.65 2067.43,1337.76 2070.83,1339.81 2074.23,1335.72 2077.63,1325.64 2081.03,1309.94 2084.42,1289.21 2087.82,1264.2 2091.22,1235.83 2094.62,1205.17 2098.02,1173.33 2101.42,1173.33 2104.81,1205.17 2108.21,1235.83 2111.61,1264.2 2115.01,1289.21 2118.41,1309.94 2121.81,1325.64 2125.2,1335.72 2128.6,1339.81 2132,1337.76 2135.4,1329.65 2138.8,1315.77 2142.2,1296.63 2145.6,1272.95 2148.99,1245.6 2152.39,1215.58 2155.79,1184 2159.19,1152.03 2162.59,1120.84 2165.99,1091.59 2169.38,1065.35 2172.78,1043.1 2176.18,1025.65 2179.58,1013.64 2182.98,1007.53 2186.38,1007.53 2189.77,1013.64 2193.17,1025.65 2196.57,1043.1 2199.97,1065.35 2203.37,1091.59 2206.77,1120.84 2210.16,1152.03 2213.56,1184 2216.96,1215.58 2220.36,1245.6 2223.76,1272.95 2227.16,1296.63 2230.56,1315.77 2233.95,1329.65 2237.35,1337.76 2240.75,1339.81 2244.15,1335.72 2247.55,1325.64 2250.95,1309.94 2254.34,1289.21 2257.74,1264.2 2261.14,1235.83 2264.54,1205.17 2267.94,1173.33 "/>
</svg>
