<?xml version="1.0" encoding="utf-8"?>
<svg xmlns="http://www.w3.org/2000/svg" xmlns:xlink="http://www.w3.org/1999/xlink" width="600" height="400" viewBox="0 0 2400 1600">
<defs>
  <clipPath id="clip730">
    <rect x="0" y="0" width="2400" height="1600"/>
  </clipPath>
</defs>
<path clip-path="url(#clip730)" d="M0 1600 L2400 1600 L2400 0 L0 0  Z" fill="#ffffff" fill-rule="evenodd" fill-opacity="1"/>
<defs>
  <clipPath id="clip731">
    <rect x="480" y="0" width="1681" height="1600"/>
  </clipPath>
</defs>
<path clip-path="url(#clip730)" d="M147.478 356.513 L2352.76 356.513 L2352.76 123.472 L147.478 123.472  Z" fill="#ffffff" fill-rule="evenodd" fill-opacity="1"/>
<defs>
  <clipPath id="clip732">
    <rect x="147" y="123" width="2206" height="234"/>
  </clipPath>
</defs>
<polyline clip-path="url(#clip732)" style="stroke:#000000; stroke-linecap:round; stroke-linejoin:round; stroke-width:2; stroke-opacity:0.1; fill:none" points="232.296,356.513 232.296,123.472 "/>
<polyline clip-path="url(#clip732)" style="stroke:#000000; stroke-linecap:round; stroke-linejoin:round; stroke-width:2; stroke-opacity:0.1; fill:none" points="401.933,356.513 401.933,123.472 "/>
<polyline clip-path="url(#clip732)" style="stroke:#000000; stroke-linecap:round; stroke-linejoin:round; stroke-width:2; stroke-opacity:0.1; fill:none" points="571.57,356.513 571.57,123.472 "/>
<polyline clip-path="url(#clip732)" style="stroke:#000000; stroke-linecap:round; stroke-linejoin:round; stroke-width:2; stroke-opacity:0.1; fill:none" points="741.207,356.513 741.207,123.472 "/>
<polyline clip-path="url(#clip732)" style="stroke:#000000; stroke-linecap:round; stroke-linejoin:round; stroke-width:2; stroke-opacity:0.1; fill:none" points="910.843,356.513 910.843,123.472 "/>
<polyline clip-path="url(#clip732)" style="stroke:#000000; stroke-linecap:round; stroke-linejoin:round; stroke-width:2; stroke-opacity:0.1; fill:none" points="1080.48,356.513 1080.48,123.472 "/>
<polyline clip-path="url(#clip732)" style="stroke:#000000; stroke-linecap:round; stroke-linejoin:round; stroke-width:2; stroke-opacity:0.1; fill:none" points="1250.12,356.513 1250.12,123.472 "/>
<polyline clip-path="url(#clip732)" style="stroke:#000000; stroke-linecap:round; stroke-linejoin:round; stroke-width:2; stroke-opacity:0.1; fill:none" points="1419.75,356.513 1419.75,123.472 "/>
<polyline clip-path="url(#clip732)" style="stroke:#000000; stroke-linecap:round; stroke-linejoin:round; stroke-width:2; stroke-opacity:0.1; fill:none" points="1589.39,356.513 1589.39,123.472 "/>
<polyline clip-path="url(#clip732)" style="stroke:#000000; stroke-linecap:round; stroke-linejoin:round; stroke-width:2; stroke-opacity:0.1; fill:none" points="1759.03,356.513 1759.03,123.472 "/>
<polyline clip-path="url(#clip732)" style="stroke:#000000; stroke-linecap:round; stroke-linejoin:round; stroke-width:2; stroke-opacity:0.1; fill:none" points="1928.66,356.513 1928.66,123.472 "/>
<polyline clip-path="url(#clip732)" style="stroke:#000000; stroke-linecap:round; stroke-linejoin:round; stroke-width:2; stroke-opacity:0.1; fill:none" points="2098.3,356.513 2098.3,123.472 "/>
<polyline clip-path="url(#clip732)" style="stroke:#000000; stroke-linecap:round; stroke-linejoin:round; stroke-width:2; stroke-opacity:0.1; fill:none" points="2267.94,356.513 2267.94,123.472 "/>
<polyline clip-path="url(#clip730)" style="stroke:#000000; stroke-linecap:round; stroke-linejoin:round; stroke-width:4; stroke-opacity:1; fill:none" points="147.478,356.513 2352.76,356.513 "/>
<polyline clip-path="url(#clip730)" style="stroke:#000000; stroke-linecap:round; stroke-linejoin:round; stroke-width:4; stroke-opacity:1; fill:none" points="232.296,356.513 232.296,337.616 "/>
<polyline clip-path="url(#clip730)" style="stroke:#000000; stroke-linecap:round; stroke-linejoin:round; stroke-width:4; stroke-opacity:1; fill:none" points="401.933,356.513 401.933,337.616 "/>
<polyline clip-path="url(#clip730)" style="stroke:#000000; stroke-linecap:round; stroke-linejoin:round; stroke-width:4; stroke-opacity:1; fill:none" points="571.57,356.513 571.57,337.616 "/>
<polyline clip-path="url(#clip730)" style="stroke:#000000; stroke-linecap:round; stroke-linejoin:round; stroke-width:4; stroke-opacity:1; fill:none" points="741.207,356.513 741.207,337.616 "/>
<polyline clip-path="url(#clip730)" style="stroke:#000000; stroke-linecap:round; stroke-linejoin:round; stroke-width:4; stroke-opacity:1; fill:none" points="910.843,356.513 910.843,337.616 "/>
<polyline clip-path="url(#clip730)" style="stroke:#000000; stroke-linecap:round; stroke-linejoin:round; stroke-width:4; stroke-opacity:1; fill:none" points="1080.48,356.513 1080.48,337.616 "/>
<polyline clip-path="url(#clip730)" style="stroke:#000000; stroke-linecap:round; stroke-linejoin:round; stroke-width:4; stroke-opacity:1; fill:none" points="1250.12,356.513 1250.12,337.616 "/>
<polyline clip-path="url(#clip730)" style="stroke:#000000; stroke-linecap:round; stroke-linejoin:round; stroke-width:4; stroke-opacity:1; fill:none" points="1419.75,356.513 1419.75,337.616 "/>
<polyline clip-path="url(#clip730)" style="stroke:#000000; stroke-linecap:round; stroke-linejoin:round; stroke-width:4; stroke-opacity:1; fill:none" points="1589.39,356.513 1589.39,337.616 "/>
<polyline clip-path="url(#clip730)" style="stroke:#000000; stroke-linecap:round; stroke-linejoin:round; stroke-width:4; stroke-opacity:1; fill:none" points="1759.03,356.513 1759.03,337.616 "/>
<polyline clip-path="url(#clip730)" style="stroke:#000000; stroke-linecap:round; stroke-linejoin:round; stroke-width:4; stroke-opacity:1; fill:none" points="1928.66,356.513 1928.66,337.616 "/>
<polyline clip-path="url(#clip730)" style="stroke:#000000; stroke-linecap:round; stroke-linejoin:round; stroke-width:4; stroke-opacity:1; fill:none" points="2098.3,356.513 2098.3,337.616 "/>
<polyline clip-path="url(#clip730)" style="stroke:#000000; stroke-linecap:round; stroke-linejoin:round; stroke-width:4; stroke-opacity:1; fill:none" points="2267.94,356.513 2267.94,337.616 "/>
<path clip-path="url(#clip730)" d="M232.296 387.432 Q228.685 387.432 226.857 390.997 Q225.051 394.538 225.051 401.668 Q225.051 408.774 226.857 412.339 Q228.685 415.881 232.296 415.881 Q235.931 415.881 237.736 412.339 Q239.565 408.774 239.565 401.668 Q239.565 394.538 237.736 390.997 Q235.931 387.432 232.296 387.432 M232.296 383.728 Q238.106 383.728 241.162 388.335 Q244.241 392.918 244.241 401.668 Q244.241 410.395 241.162 415.001 Q238.106 419.584 232.296 419.584 Q226.486 419.584 223.407 415.001 Q220.352 410.395 220.352 401.668 Q220.352 392.918 223.407 388.335 Q226.486 383.728 232.296 383.728 Z" fill="#000000" fill-rule="nonzero" fill-opacity="1" /><path clip-path="url(#clip730)" d="M392.315 414.978 L399.954 414.978 L399.954 388.612 L391.644 390.279 L391.644 386.02 L399.908 384.353 L404.584 384.353 L404.584 414.978 L412.222 414.978 L412.222 418.913 L392.315 418.913 L392.315 414.978 Z" fill="#000000" fill-rule="nonzero" fill-opacity="1" /><path clip-path="url(#clip730)" d="M566.223 414.978 L582.542 414.978 L582.542 418.913 L560.598 418.913 L560.598 414.978 Q563.26 412.223 567.843 407.594 Q572.449 402.941 573.63 401.598 Q575.875 399.075 576.755 397.339 Q577.658 395.58 577.658 393.89 Q577.658 391.136 575.713 389.399 Q573.792 387.663 570.69 387.663 Q568.491 387.663 566.037 388.427 Q563.607 389.191 560.829 390.742 L560.829 386.02 Q563.653 384.886 566.107 384.307 Q568.561 383.728 570.598 383.728 Q575.968 383.728 579.162 386.413 Q582.357 389.099 582.357 393.589 Q582.357 395.719 581.547 397.64 Q580.76 399.538 578.653 402.131 Q578.074 402.802 574.973 406.02 Q571.871 409.214 566.223 414.978 Z" fill="#000000" fill-rule="nonzero" fill-opacity="1" /><path clip-path="url(#clip730)" d="M745.454 400.279 Q748.811 400.997 750.686 403.265 Q752.584 405.534 752.584 408.867 Q752.584 413.983 749.065 416.784 Q745.547 419.584 739.065 419.584 Q736.889 419.584 734.575 419.145 Q732.283 418.728 729.829 417.872 L729.829 413.358 Q731.774 414.492 734.089 415.071 Q736.403 415.649 738.927 415.649 Q743.325 415.649 745.616 413.913 Q747.931 412.177 747.931 408.867 Q747.931 405.811 745.778 404.098 Q743.649 402.362 739.829 402.362 L735.802 402.362 L735.802 398.52 L740.014 398.52 Q743.464 398.52 745.292 397.154 Q747.121 395.765 747.121 393.173 Q747.121 390.511 745.223 389.099 Q743.348 387.663 739.829 387.663 Q737.908 387.663 735.709 388.08 Q733.51 388.497 730.871 389.376 L730.871 385.21 Q733.533 384.469 735.848 384.099 Q738.186 383.728 740.246 383.728 Q745.57 383.728 748.672 386.159 Q751.774 388.566 751.774 392.686 Q751.774 395.557 750.13 397.548 Q748.487 399.515 745.454 400.279 Z" fill="#000000" fill-rule="nonzero" fill-opacity="1" /><path clip-path="url(#clip730)" d="M913.853 388.427 L902.047 406.876 L913.853 406.876 L913.853 388.427 M912.626 384.353 L918.505 384.353 L918.505 406.876 L923.436 406.876 L923.436 410.765 L918.505 410.765 L918.505 418.913 L913.853 418.913 L913.853 410.765 L898.251 410.765 L898.251 406.251 L912.626 384.353 Z" fill="#000000" fill-rule="nonzero" fill-opacity="1" /><path clip-path="url(#clip730)" d="M1070.76 384.353 L1089.11 384.353 L1089.11 388.288 L1075.04 388.288 L1075.04 396.761 Q1076.06 396.413 1077.08 396.251 Q1078.1 396.066 1079.11 396.066 Q1084.9 396.066 1088.28 399.237 Q1091.66 402.409 1091.66 407.825 Q1091.66 413.404 1088.19 416.506 Q1084.72 419.584 1078.4 419.584 Q1076.22 419.584 1073.95 419.214 Q1071.71 418.844 1069.3 418.103 L1069.3 413.404 Q1071.38 414.538 1073.61 415.094 Q1075.83 415.649 1078.3 415.649 Q1082.31 415.649 1084.65 413.543 Q1086.98 411.436 1086.98 407.825 Q1086.98 404.214 1084.65 402.108 Q1082.31 400.001 1078.3 400.001 Q1076.43 400.001 1074.55 400.418 Q1072.7 400.835 1070.76 401.714 L1070.76 384.353 Z" fill="#000000" fill-rule="nonzero" fill-opacity="1" /><path clip-path="url(#clip730)" d="M1250.52 399.77 Q1247.37 399.77 1245.52 401.923 Q1243.69 404.075 1243.69 407.825 Q1243.69 411.552 1245.52 413.728 Q1247.37 415.881 1250.52 415.881 Q1253.67 415.881 1255.5 413.728 Q1257.35 411.552 1257.35 407.825 Q1257.35 404.075 1255.5 401.923 Q1253.67 399.77 1250.52 399.77 M1259.8 385.117 L1259.8 389.376 Q1258.05 388.543 1256.24 388.103 Q1254.46 387.663 1252.7 387.663 Q1248.07 387.663 1245.61 390.788 Q1243.18 393.913 1242.84 400.233 Q1244.2 398.219 1246.26 397.154 Q1248.32 396.066 1250.8 396.066 Q1256.01 396.066 1259.02 399.237 Q1262.05 402.385 1262.05 407.825 Q1262.05 413.149 1258.9 416.367 Q1255.75 419.584 1250.52 419.584 Q1244.53 419.584 1241.36 415.001 Q1238.18 410.395 1238.18 401.668 Q1238.18 393.473 1242.07 388.612 Q1245.96 383.728 1252.51 383.728 Q1254.27 383.728 1256.05 384.075 Q1257.86 384.423 1259.8 385.117 Z" fill="#000000" fill-rule="nonzero" fill-opacity="1" /><path clip-path="url(#clip730)" d="M1408.64 384.353 L1430.86 384.353 L1430.86 386.344 L1418.32 418.913 L1413.43 418.913 L1425.24 388.288 L1408.64 388.288 L1408.64 384.353 Z" fill="#000000" fill-rule="nonzero" fill-opacity="1" /><path clip-path="url(#clip730)" d="M1589.39 402.501 Q1586.06 402.501 1584.14 404.284 Q1582.24 406.066 1582.24 409.191 Q1582.24 412.316 1584.14 414.098 Q1586.06 415.881 1589.39 415.881 Q1592.72 415.881 1594.65 414.098 Q1596.57 412.293 1596.57 409.191 Q1596.57 406.066 1594.65 404.284 Q1592.75 402.501 1589.39 402.501 M1584.71 400.51 Q1581.71 399.77 1580.02 397.71 Q1578.35 395.649 1578.35 392.686 Q1578.35 388.543 1581.29 386.136 Q1584.25 383.728 1589.39 383.728 Q1594.55 383.728 1597.49 386.136 Q1600.43 388.543 1600.43 392.686 Q1600.43 395.649 1598.74 397.71 Q1597.08 399.77 1594.09 400.51 Q1597.47 401.298 1599.34 403.589 Q1601.24 405.881 1601.24 409.191 Q1601.24 414.214 1598.16 416.899 Q1595.11 419.584 1589.39 419.584 Q1583.67 419.584 1580.59 416.899 Q1577.54 414.214 1577.54 409.191 Q1577.54 405.881 1579.44 403.589 Q1581.33 401.298 1584.71 400.51 M1583 393.126 Q1583 395.811 1584.67 397.316 Q1586.36 398.821 1589.39 398.821 Q1592.4 398.821 1594.09 397.316 Q1595.8 395.811 1595.8 393.126 Q1595.8 390.441 1594.09 388.936 Q1592.4 387.432 1589.39 387.432 Q1586.36 387.432 1584.67 388.936 Q1583 390.441 1583 393.126 Z" fill="#000000" fill-rule="nonzero" fill-opacity="1" /><path clip-path="url(#clip730)" d="M1749.33 418.196 L1749.33 413.936 Q1751.09 414.77 1752.89 415.209 Q1754.7 415.649 1756.43 415.649 Q1761.06 415.649 1763.49 412.547 Q1765.95 409.422 1766.3 403.08 Q1764.95 405.071 1762.89 406.135 Q1760.83 407.2 1758.33 407.2 Q1753.15 407.2 1750.12 404.075 Q1747.11 400.927 1747.11 395.487 Q1747.11 390.163 1750.25 386.946 Q1753.4 383.728 1758.63 383.728 Q1764.63 383.728 1767.78 388.335 Q1770.95 392.918 1770.95 401.668 Q1770.95 409.839 1767.06 414.723 Q1763.19 419.584 1756.64 419.584 Q1754.88 419.584 1753.08 419.237 Q1751.27 418.89 1749.33 418.196 M1758.63 403.543 Q1761.78 403.543 1763.61 401.39 Q1765.46 399.237 1765.46 395.487 Q1765.46 391.761 1763.61 389.608 Q1761.78 387.432 1758.63 387.432 Q1755.49 387.432 1753.63 389.608 Q1751.81 391.761 1751.81 395.487 Q1751.81 399.237 1753.63 401.39 Q1755.49 403.543 1758.63 403.543 Z" fill="#000000" fill-rule="nonzero" fill-opacity="1" /><path clip-path="url(#clip730)" d="M1903.35 414.978 L1910.99 414.978 L1910.99 388.612 L1902.68 390.279 L1902.68 386.02 L1910.94 384.353 L1915.62 384.353 L1915.62 414.978 L1923.26 414.978 L1923.26 418.913 L1903.35 418.913 L1903.35 414.978 Z" fill="#000000" fill-rule="nonzero" fill-opacity="1" /><path clip-path="url(#clip730)" d="M1942.7 387.432 Q1939.09 387.432 1937.26 390.997 Q1935.46 394.538 1935.46 401.668 Q1935.46 408.774 1937.26 412.339 Q1939.09 415.881 1942.7 415.881 Q1946.34 415.881 1948.14 412.339 Q1949.97 408.774 1949.97 401.668 Q1949.97 394.538 1948.14 390.997 Q1946.34 387.432 1942.7 387.432 M1942.7 383.728 Q1948.51 383.728 1951.57 388.335 Q1954.65 392.918 1954.65 401.668 Q1954.65 410.395 1951.57 415.001 Q1948.51 419.584 1942.7 419.584 Q1936.89 419.584 1933.81 415.001 Q1930.76 410.395 1930.76 401.668 Q1930.76 392.918 1933.81 388.335 Q1936.89 383.728 1942.7 383.728 Z" fill="#000000" fill-rule="nonzero" fill-opacity="1" /><path clip-path="url(#clip730)" d="M2073.6 414.978 L2081.24 414.978 L2081.24 388.612 L2072.93 390.279 L2072.93 386.02 L2081.19 384.353 L2085.87 384.353 L2085.87 414.978 L2093.51 414.978 L2093.51 418.913 L2073.6 418.913 L2073.6 414.978 Z" fill="#000000" fill-rule="nonzero" fill-opacity="1" /><path clip-path="url(#clip730)" d="M2103.76 414.978 L2111.4 414.978 L2111.4 388.612 L2103.09 390.279 L2103.09 386.02 L2111.36 384.353 L2116.03 384.353 L2116.03 414.978 L2123.67 414.978 L2123.67 418.913 L2103.76 418.913 L2103.76 414.978 Z" fill="#000000" fill-rule="nonzero" fill-opacity="1" /><path clip-path="url(#clip730)" d="M2243.42 414.978 L2251.06 414.978 L2251.06 388.612 L2242.75 390.279 L2242.75 386.02 L2251.02 384.353 L2255.69 384.353 L2255.69 414.978 L2263.33 414.978 L2263.33 418.913 L2243.42 418.913 L2243.42 414.978 Z" fill="#000000" fill-rule="nonzero" fill-opacity="1" /><path clip-path="url(#clip730)" d="M2276.8 414.978 L2293.12 414.978 L2293.12 418.913 L2271.18 418.913 L2271.18 414.978 Q2273.84 412.223 2278.42 407.594 Q2283.03 402.941 2284.21 401.598 Q2286.46 399.075 2287.34 397.339 Q2288.24 395.58 2288.24 393.89 Q2288.24 391.136 2286.29 389.399 Q2284.37 387.663 2281.27 387.663 Q2279.07 387.663 2276.62 388.427 Q2274.19 389.191 2271.41 390.742 L2271.41 386.02 Q2274.23 384.886 2276.69 384.307 Q2279.14 383.728 2281.18 383.728 Q2286.55 383.728 2289.74 386.413 Q2292.94 389.099 2292.94 393.589 Q2292.94 395.719 2292.13 397.64 Q2291.34 399.538 2289.23 402.131 Q2288.66 402.802 2285.55 406.02 Q2282.45 409.214 2276.8 414.978 Z" fill="#000000" fill-rule="nonzero" fill-opacity="1" /><path clip-path="url(#clip730)" d="M1258.59 465.246 Q1258.59 466.148 1258.17 466.373 Q1257.75 466.567 1256.59 466.567 L1250.41 466.567 L1245.51 486.019 Q1245.13 487.726 1245.13 489.175 Q1245.13 490.786 1245.61 491.494 Q1246.12 492.203 1247.19 492.203 Q1249.28 492.203 1251.53 490.302 Q1253.82 488.402 1255.75 483.765 Q1256.01 483.153 1256.14 483.024 Q1256.3 482.863 1256.72 482.863 Q1257.53 482.863 1257.53 483.507 Q1257.53 483.732 1257.07 484.763 Q1256.66 485.794 1255.72 487.307 Q1254.82 488.821 1253.63 490.238 Q1252.47 491.655 1250.7 492.686 Q1248.93 493.684 1247.03 493.684 Q1244.35 493.684 1242.65 491.977 Q1240.97 490.27 1240.97 487.597 Q1240.97 486.728 1241.65 483.958 Q1242.32 481.156 1246 466.567 L1240.17 466.567 Q1239.36 466.567 1239.04 466.534 Q1238.75 466.502 1238.52 466.341 Q1238.33 466.148 1238.33 465.762 Q1238.33 465.15 1238.59 464.892 Q1238.85 464.602 1239.17 464.57 Q1239.52 464.506 1240.33 464.506 L1246.51 464.506 L1249.09 454.039 Q1249.34 453.008 1249.99 452.428 Q1250.67 451.816 1251.05 451.752 Q1251.44 451.655 1251.73 451.655 Q1252.6 451.655 1253.11 452.138 Q1253.63 452.589 1253.63 453.427 Q1253.63 453.878 1250.92 464.506 L1256.72 464.506 Q1257.46 464.506 1257.75 464.538 Q1258.07 464.57 1258.33 464.731 Q1258.59 464.892 1258.59 465.246 Z" fill="#000000" fill-rule="nonzero" fill-opacity="1" /><polyline clip-path="url(#clip732)" style="stroke:#000000; stroke-linecap:round; stroke-linejoin:round; stroke-width:2; stroke-opacity:0.1; fill:none" points="147.478,317.673 2352.76,317.673 "/>
<polyline clip-path="url(#clip732)" style="stroke:#000000; stroke-linecap:round; stroke-linejoin:round; stroke-width:2; stroke-opacity:0.1; fill:none" points="147.478,239.993 2352.76,239.993 "/>
<polyline clip-path="url(#clip732)" style="stroke:#000000; stroke-linecap:round; stroke-linejoin:round; stroke-width:2; stroke-opacity:0.1; fill:none" points="147.478,162.312 2352.76,162.312 "/>
<polyline clip-path="url(#clip730)" style="stroke:#000000; stroke-linecap:round; stroke-linejoin:round; stroke-width:4; stroke-opacity:1; fill:none" points="147.478,356.513 147.478,123.472 "/>
<polyline clip-path="url(#clip730)" style="stroke:#000000; stroke-linecap:round; stroke-linejoin:round; stroke-width:4; stroke-opacity:1; fill:none" points="147.478,317.673 166.376,317.673 "/>
<polyline clip-path="url(#clip730)" style="stroke:#000000; stroke-linecap:round; stroke-linejoin:round; stroke-width:4; stroke-opacity:1; fill:none" points="147.478,239.993 166.376,239.993 "/>
<polyline clip-path="url(#clip730)" style="stroke:#000000; stroke-linecap:round; stroke-linejoin:round; stroke-width:4; stroke-opacity:1; fill:none" points="147.478,162.312 166.376,162.312 "/>
<path clip-path="url(#clip730)" d="M50.9921 318.124 L80.6679 318.124 L80.6679 322.06 L50.9921 322.06 L50.9921 318.124 Z" fill="#000000" fill-rule="nonzero" fill-opacity="1" /><path clip-path="url(#clip730)" d="M91.5706 331.018 L99.2095 331.018 L99.2095 304.652 L90.8993 306.319 L90.8993 302.06 L99.1632 300.393 L103.839 300.393 L103.839 331.018 L111.478 331.018 L111.478 334.953 L91.5706 334.953 L91.5706 331.018 Z" fill="#000000" fill-rule="nonzero" fill-opacity="1" /><path clip-path="url(#clip730)" d="M99.5335 225.791 Q95.9224 225.791 94.0937 229.356 Q92.2882 232.898 92.2882 240.027 Q92.2882 247.134 94.0937 250.699 Q95.9224 254.24 99.5335 254.24 Q103.168 254.24 104.973 250.699 Q106.802 247.134 106.802 240.027 Q106.802 232.898 104.973 229.356 Q103.168 225.791 99.5335 225.791 M99.5335 222.088 Q105.344 222.088 108.399 226.694 Q111.478 231.277 111.478 240.027 Q111.478 248.754 108.399 253.361 Q105.344 257.944 99.5335 257.944 Q93.7234 257.944 90.6447 253.361 Q87.5892 248.754 87.5892 240.027 Q87.5892 231.277 90.6447 226.694 Q93.7234 222.088 99.5335 222.088 Z" fill="#000000" fill-rule="nonzero" fill-opacity="1" /><path clip-path="url(#clip730)" d="M91.5706 175.657 L99.2095 175.657 L99.2095 149.292 L90.8993 150.958 L90.8993 146.699 L99.1632 145.032 L103.839 145.032 L103.839 175.657 L111.478 175.657 L111.478 179.592 L91.5706 179.592 L91.5706 175.657 Z" fill="#000000" fill-rule="nonzero" fill-opacity="1" /><path clip-path="url(#clip730)" d="M1253.13 12.0602 L1248.58 30.4234 Q1248.34 31.5301 1248.13 31.817 Q1247.93 32.104 1247.35 32.104 Q1246.9 32.104 1246.62 31.899 Q1246.37 31.6941 1246.37 31.4891 L1246.33 31.2842 Q1246.33 31.1612 1246.41 30.5464 Q1246.49 29.8905 1246.58 28.8248 Q1246.66 27.7591 1246.66 26.5704 Q1246.66 19.8482 1243.38 16.733 Q1240.14 13.5768 1234.57 13.5768 Q1230.71 13.5768 1227.27 15.6263 Q1223.83 17.6757 1221.86 20.9139 Q1219.89 24.111 1219.89 27.4722 Q1219.89 30.5464 1221.45 32.5138 Q1223.01 34.4813 1225.02 35.1372 L1230.63 36.6538 Q1236.53 38.1704 1238.21 38.8262 Q1239.89 39.441 1241.29 40.8347 Q1245.43 44.6877 1245.43 50.6721 Q1245.43 55.8367 1242.52 60.8374 Q1239.61 65.7971 1234.61 69.0353 Q1229.61 72.2325 1224.07 72.2325 Q1214.36 72.2325 1209.89 66.207 L1205.79 70.9618 Q1205.01 71.8636 1204.77 72.0275 Q1204.56 72.2325 1204.27 72.2325 Q1203.91 72.2325 1203.62 71.9865 Q1203.33 71.7816 1203.33 71.4127 Q1203.33 71.1257 1205.75 61.4933 Q1208.17 51.8608 1208.37 51.6558 Q1208.7 51.3279 1209.23 51.3279 Q1210.22 51.3279 1210.22 52.2707 Q1210.14 52.5166 1210.05 52.8445 Q1209.56 55.7958 1209.56 57.3943 Q1209.56 60.3866 1210.59 62.682 Q1211.61 64.9364 1213.13 66.248 Q1214.69 67.5187 1216.78 68.3385 Q1218.87 69.1173 1220.63 69.4042 Q1222.39 69.6501 1224.24 69.6501 Q1228.21 69.6501 1231.74 67.3547 Q1235.3 65.0593 1237.31 61.4933 Q1239.36 57.9272 1239.36 54.1972 Q1239.36 52.2297 1238.83 50.7131 Q1238.3 49.1555 1237.56 48.2947 Q1236.86 47.4339 1235.67 46.7781 Q1234.48 46.1223 1233.66 45.8763 Q1232.89 45.5894 1231.66 45.3025 L1222.68 42.9251 Q1219.07 41.8594 1216.49 38.7852 Q1213.95 35.711 1213.95 30.9972 Q1213.95 26.0375 1216.86 21.4467 Q1219.81 16.815 1224.61 14.0277 Q1229.44 11.1994 1234.65 11.1994 Q1238.75 11.1994 1241.9 12.798 Q1245.06 14.3556 1246.66 17.2658 L1250.72 12.4701 Q1251.54 11.5273 1251.7 11.3634 Q1251.9 11.1994 1252.19 11.1994 Q1252.68 11.1994 1252.89 11.4863 Q1253.13 11.7733 1253.13 12.0602 Z" fill="#000000" fill-rule="nonzero" fill-opacity="1" /><path clip-path="url(#clip730)" d="M1288.2 74.1794 Q1288.2 75.8149 1287.2 76.7905 Q1286.22 77.766 1284.99 77.766 Q1283.9 77.766 1283.32 77.1348 Q1282.75 76.5035 1282.75 75.7001 Q1282.75 75.3558 1282.89 74.9254 Q1283.04 74.4664 1283.35 73.9212 Q1283.7 73.376 1284.41 72.9744 Q1285.13 72.5727 1286.11 72.5153 Q1285.91 72.3144 1285.85 72.2857 Q1285.42 71.9414 1284.62 71.8267 Q1284.5 71.7693 1284.1 71.7693 Q1282.12 71.7693 1280.11 73.2326 Q1278.13 74.6672 1275.69 77.393 Q1272.62 80.5779 1270.64 81.7543 Q1279.34 82.902 1279.34 87.9231 Q1279.34 88.7552 1279.11 89.7595 Q1278.65 91.6532 1278.65 93.0304 Q1278.65 95.7849 1280.51 95.7849 Q1282.32 95.7849 1283.47 93.9486 Q1284.64 92.1122 1285.62 88.5257 Q1285.76 87.8658 1285.91 87.6649 Q1286.05 87.4641 1286.45 87.4641 Q1287.17 87.4641 1287.17 88.0379 Q1286.51 91.3949 1285.05 93.9773 Q1283.18 97.1047 1280.4 97.1047 Q1278.07 97.1047 1276.52 95.498 Q1275 93.8625 1275 91.2802 Q1275 90.6489 1275.23 89.2143 Q1275.41 88.6405 1275.41 87.9805 Q1275.41 86.632 1274.66 85.6277 Q1273.91 84.5948 1272.71 84.0783 Q1271.5 83.5619 1270.5 83.3323 Q1269.52 83.0741 1268.58 82.988 Q1265.71 95.125 1265.31 95.871 Q1265.05 96.3874 1264.47 96.7317 Q1263.9 97.1047 1263.3 97.1047 Q1262.72 97.1047 1262.15 96.703 Q1261.6 96.33 1261.6 95.4406 Q1261.6 94.9815 1261.83 94.1494 L1270.36 60.2923 L1270.53 59.1446 Q1270.53 58.8003 1270.38 58.6281 Q1270.27 58.4273 1269.58 58.2838 Q1268.92 58.1403 1267.6 58.1403 Q1267.06 58.1403 1266.8 58.1116 Q1266.57 58.0829 1266.37 57.9395 Q1266.17 57.7673 1266.17 57.423 Q1266.17 56.9352 1266.37 56.677 Q1266.6 56.3901 1266.77 56.3327 Q1266.94 56.2753 1267.29 56.2466 Q1267.77 56.2179 1269.41 56.0745 Q1271.04 55.9023 1272.45 55.7875 Q1273.86 55.6728 1274.46 55.6728 Q1274.8 55.6728 1274.98 55.8449 Q1275.18 55.9884 1275.2 56.1606 L1275.23 56.304 L1269.12 81.0943 Q1271.65 80.0901 1275.64 75.6428 Q1280.25 70.4781 1284.21 70.4781 Q1286.08 70.4781 1287.14 71.6258 Q1288.2 72.7448 1288.2 74.1794 Z" fill="#000000" fill-rule="nonzero" fill-opacity="1" /><polyline clip-path="url(#clip732)" style="stroke:#009af9; stroke-linecap:round; stroke-linejoin:round; stroke-width:8; stroke-opacity:1; fill:none" points="232.296,239.993 235.695,225.143 239.093,210.842 242.491,197.615 245.89,185.952 249.288,176.281 252.687,168.961 256.085,164.26 259.483,162.352 262.882,163.308 266.28,167.092 269.679,173.565 273.077,182.488 276.475,193.531 279.874,206.288 283.272,220.289 286.671,235.016 290.069,249.926 293.467,264.47 296.866,278.112 300.264,290.347 303.663,300.726 307.061,308.864 310.459,314.462 313.858,317.314 317.256,317.314 320.655,314.462 324.053,308.864 327.451,300.726 330.85,290.347 334.248,278.112 337.647,264.47 341.045,249.926 344.443,235.016 347.842,220.289 351.24,206.288 354.639,193.531 358.037,182.488 361.435,173.565 364.834,167.092 368.232,163.308 371.631,162.352 375.029,164.26 378.427,168.961 381.826,176.281 385.224,185.952 388.623,197.615 392.021,210.842 395.419,225.143 398.818,239.993 402.216,239.993 405.615,225.143 409.013,210.842 412.411,197.615 415.81,185.952 419.208,176.281 422.607,168.961 426.005,164.26 429.403,162.352 432.802,163.308 436.2,167.092 439.599,173.565 442.997,182.488 446.395,193.531 449.794,206.288 453.192,220.289 456.591,235.016 459.989,249.926 463.387,264.47 466.786,278.112 470.184,290.347 473.583,300.726 476.981,308.864 480.379,314.462 483.778,317.314 487.176,317.314 490.575,314.462 493.973,308.864 497.371,300.726 500.77,290.347 504.168,278.112 507.567,264.47 510.965,249.926 514.363,235.016 517.762,220.289 521.16,206.288 524.559,193.531 527.957,182.488 531.355,173.565 534.754,167.092 538.152,163.308 541.551,162.352 544.949,164.26 548.347,168.961 551.746,176.281 555.144,185.952 558.543,197.615 561.941,210.842 565.339,225.143 568.738,239.993 572.136,239.993 575.535,254.842 578.933,269.144 582.331,282.37 585.73,294.034 589.128,303.704 592.527,311.025 595.925,315.725 599.323,317.633 602.722,316.677 606.12,312.893 609.519,306.42 612.917,297.498 616.315,286.454 619.714,273.697 623.112,259.697 626.511,244.97 629.909,230.059 633.307,215.515 636.706,201.874 640.104,189.638 643.503,179.26 646.901,171.121 650.299,165.523 653.698,162.671 657.096,162.671 660.495,165.523 663.893,171.121 667.291,179.26 670.69,189.638 674.088,201.874 677.487,215.515 680.885,230.059 684.283,244.97 687.682,259.697 691.08,273.697 694.479,286.454 697.877,297.498 701.275,306.42 704.674,312.893 708.072,316.677 711.471,317.633 714.869,315.725 718.267,311.025 721.666,303.704 725.064,294.034 728.463,282.37 731.861,269.144 735.259,254.842 738.658,239.993 742.056,239.993 745.455,225.143 748.853,210.842 752.251,197.615 755.65,185.952 759.048,176.281 762.447,168.961 765.845,164.26 769.243,162.352 772.642,163.308 776.04,167.092 779.439,173.565 782.837,182.488 786.235,193.531 789.634,206.288 793.032,220.289 796.431,235.016 799.829,249.926 803.227,264.47 806.626,278.112 810.024,290.347 813.423,300.726 816.821,308.864 820.219,314.462 823.618,317.314 827.016,317.314 830.415,314.462 833.813,308.864 837.211,300.726 840.61,290.347 844.008,278.112 847.407,264.47 850.805,249.926 854.203,235.016 857.602,220.289 861,206.288 864.399,193.531 867.797,182.488 871.195,173.565 874.594,167.092 877.992,163.308 881.391,162.352 884.789,164.26 888.187,168.961 891.586,176.281 894.984,185.952 898.383,197.615 901.781,210.842 905.179,225.143 908.578,239.993 911.976,239.993 915.375,225.143 918.773,210.842 922.171,197.615 925.57,185.952 928.968,176.281 932.367,168.961 935.765,164.26 939.163,162.352 942.562,163.308 945.96,167.092 949.359,173.565 952.757,182.488 956.155,193.531 959.554,206.288 962.952,220.289 966.351,235.016 969.749,249.926 973.147,264.47 976.546,278.112 979.944,290.347 983.343,300.726 986.741,308.864 990.139,314.462 993.538,317.314 996.936,317.314 1000.33,314.462 1003.73,308.864 1007.13,300.726 1010.53,290.347 1013.93,278.112 1017.33,264.47 1020.72,249.926 1024.12,235.016 1027.52,220.289 1030.92,206.288 1034.32,193.531 1037.72,182.488 1041.12,173.565 1044.51,167.092 1047.91,163.308 1051.31,162.352 1054.71,164.26 1058.11,168.961 1061.51,176.281 1064.9,185.952 1068.3,197.615 1071.7,210.842 1075.1,225.143 1078.5,239.993 1081.9,239.993 1085.29,225.143 1088.69,210.842 1092.09,197.615 1095.49,185.952 1098.89,176.281 1102.29,168.961 1105.68,164.26 1109.08,162.352 1112.48,163.308 1115.88,167.092 1119.28,173.565 1122.68,182.488 1126.08,193.531 1129.47,206.288 1132.87,220.289 1136.27,235.016 1139.67,249.926 1143.07,264.47 1146.47,278.112 1149.86,290.347 1153.26,300.726 1156.66,308.864 1160.06,314.462 1163.46,317.314 1166.86,317.314 1170.25,314.462 1173.65,308.864 1177.05,300.726 1180.45,290.347 1183.85,278.112 1187.25,264.47 1190.64,249.926 1194.04,235.016 1197.44,220.289 1200.84,206.288 1204.24,193.531 1207.64,182.488 1211.04,173.565 1214.43,167.092 1217.83,163.308 1221.23,162.352 1224.63,164.26 1228.03,168.961 1231.43,176.281 1234.82,185.952 1238.22,197.615 1241.62,210.842 1245.02,225.143 1248.42,239.993 1251.82,239.993 1255.21,254.842 1258.61,269.144 1262.01,282.37 1265.41,294.034 1268.81,303.704 1272.21,311.025 1275.6,315.725 1279,317.633 1282.4,316.677 1285.8,312.893 1289.2,306.42 1292.6,297.498 1296,286.454 1299.39,273.697 1302.79,259.697 1306.19,244.97 1309.59,230.059 1312.99,215.515 1316.39,201.874 1319.78,189.638 1323.18,179.26 1326.58,171.121 1329.98,165.523 1333.38,162.671 1336.78,162.671 1340.17,165.523 1343.57,171.121 1346.97,179.26 1350.37,189.638 1353.77,201.874 1357.17,215.515 1360.56,230.059 1363.96,244.97 1367.36,259.697 1370.76,273.697 1374.16,286.454 1377.56,297.498 1380.96,306.42 1384.35,312.893 1387.75,316.677 1391.15,317.633 1394.55,315.725 1397.95,311.025 1401.35,303.704 1404.74,294.034 1408.14,282.37 1411.54,269.144 1414.94,254.842 1418.34,239.993 1421.74,239.993 1425.13,225.143 1428.53,210.842 1431.93,197.615 1435.33,185.952 1438.73,176.281 1442.13,168.961 1445.52,164.26 1448.92,162.352 1452.32,163.308 1455.72,167.092 1459.12,173.565 1462.52,182.488 1465.92,193.531 1469.31,206.288 1472.71,220.289 1476.11,235.016 1479.51,249.926 1482.91,264.47 1486.31,278.112 1489.7,290.347 1493.1,300.726 1496.5,308.864 1499.9,314.462 1503.3,317.314 1506.7,317.314 1510.09,314.462 1513.49,308.864 1516.89,300.726 1520.29,290.347 1523.69,278.112 1527.09,264.47 1530.48,249.926 1533.88,235.016 1537.28,220.289 1540.68,206.288 1544.08,193.531 1547.48,182.488 1550.88,173.565 1554.27,167.092 1557.67,163.308 1561.07,162.352 1564.47,164.26 1567.87,168.961 1571.27,176.281 1574.66,185.952 1578.06,197.615 1581.46,210.842 1584.86,225.143 1588.26,239.993 1591.66,239.993 1595.05,254.842 1598.45,269.144 1601.85,282.37 1605.25,294.034 1608.65,303.704 1612.05,311.025 1615.44,315.725 1618.84,317.633 1622.24,316.677 1625.64,312.893 1629.04,306.42 1632.44,297.498 1635.84,286.454 1639.23,273.697 1642.63,259.697 1646.03,244.97 1649.43,230.059 1652.83,215.515 1656.23,201.874 1659.62,189.638 1663.02,179.26 1666.42,171.121 1669.82,165.523 1673.22,162.671 1676.62,162.671 1680.01,165.523 1683.41,171.121 1686.81,179.26 1690.21,189.638 1693.61,201.874 1697.01,215.515 1700.4,230.059 1703.8,244.97 1707.2,259.697 1710.6,273.697 1714,286.454 1717.4,297.498 1720.8,306.42 1724.19,312.893 1727.59,316.677 1730.99,317.633 1734.39,315.725 1737.79,311.025 1741.19,303.704 1744.58,294.034 1747.98,282.37 1751.38,269.144 1754.78,254.842 1758.18,239.993 1761.58,239.993 1764.97,254.842 1768.37,269.144 1771.77,282.37 1775.17,294.034 1778.57,303.704 1781.97,311.025 1785.36,315.725 1788.76,317.633 1792.16,316.677 1795.56,312.893 1798.96,306.42 1802.36,297.498 1805.76,286.454 1809.15,273.697 1812.55,259.697 1815.95,244.97 1819.35,230.059 1822.75,215.515 1826.15,201.874 1829.54,189.638 1832.94,179.26 1836.34,171.121 1839.74,165.523 1843.14,162.671 1846.54,162.671 1849.93,165.523 1853.33,171.121 1856.73,179.26 1860.13,189.638 1863.53,201.874 1866.93,215.515 1870.32,230.059 1873.72,244.97 1877.12,259.697 1880.52,273.697 1883.92,286.454 1887.32,297.498 1890.72,306.42 1894.11,312.893 1897.51,316.677 1900.91,317.633 1904.31,315.725 1907.71,311.025 1911.11,303.704 1914.5,294.034 1917.9,282.37 1921.3,269.144 1924.7,254.842 1928.1,239.993 1931.5,239.993 1934.89,254.842 1938.29,269.144 1941.69,282.37 1945.09,294.034 1948.49,303.704 1951.89,311.025 1955.28,315.725 1958.68,317.633 1962.08,316.677 1965.48,312.893 1968.88,306.42 1972.28,297.498 1975.68,286.454 1979.07,273.697 1982.47,259.697 1985.87,244.97 1989.27,230.059 1992.67,215.515 1996.07,201.874 1999.46,189.638 2002.86,179.26 2006.26,171.121 2009.66,165.523 2013.06,162.671 2016.46,162.671 2019.85,165.523 2023.25,171.121 2026.65,179.26 2030.05,189.638 2033.45,201.874 2036.85,215.515 2040.24,230.059 2043.64,244.97 2047.04,259.697 2050.44,273.697 2053.84,286.454 2057.24,297.498 2060.64,306.42 2064.03,312.893 2067.43,316.677 2070.83,317.633 2074.23,315.725 2077.63,311.025 2081.03,303.704 2084.42,294.034 2087.82,282.37 2091.22,269.144 2094.62,254.842 2098.02,239.993 2101.42,239.993 2104.81,254.842 2108.21,269.144 2111.61,282.37 2115.01,294.034 2118.41,303.704 2121.81,311.025 2125.2,315.725 2128.6,317.633 2132,316.677 2135.4,312.893 2138.8,306.42 2142.2,297.498 2145.6,286.454 2148.99,273.697 2152.39,259.697 2155.79,244.97 2159.19,230.059 2162.59,215.515 2165.99,201.874 2169.38,189.638 2172.78,179.26 2176.18,171.121 2179.58,165.523 2182.98,162.671 2186.38,162.671 2189.77,165.523 2193.17,171.121 2196.57,179.26 2199.97,189.638 2203.37,201.874 2206.77,215.515 2210.16,230.059 2213.56,244.97 2216.96,259.697 2220.36,273.697 2223.76,286.454 2227.16,297.498 2230.56,306.42 2233.95,312.893 2237.35,316.677 2240.75,317.633 2244.15,315.725 2247.55,311.025 2250.95,303.704 2254.34,294.034 2257.74,282.37 2261.14,269.144 2264.54,254.842 2267.94,239.993 "/>
<path clip-path="url(#clip730)" d="M147.478 889.847 L2352.76 889.847 L2352.76 656.805 L147.478 656.805  Z" fill="#ffffff" fill-rule="evenodd" fill-opacity="1"/>
<defs>
  <clipPath id="clip733">
    <rect x="147" y="656" width="2206" height="234"/>
  </clipPath>
</defs>
<polyline clip-path="url(#clip733)" style="stroke:#000000; stroke-linecap:round; stroke-linejoin:round; stroke-width:2; stroke-opacity:0.1; fill:none" points="232.296,889.847 232.296,656.805 "/>
<polyline clip-path="url(#clip733)" style="stroke:#000000; stroke-linecap:round; stroke-linejoin:round; stroke-width:2; stroke-opacity:0.1; fill:none" points="401.933,889.847 401.933,656.805 "/>
<polyline clip-path="url(#clip733)" style="stroke:#000000; stroke-linecap:round; stroke-linejoin:round; stroke-width:2; stroke-opacity:0.1; fill:none" points="571.57,889.847 571.57,656.805 "/>
<polyline clip-path="url(#clip733)" style="stroke:#000000; stroke-linecap:round; stroke-linejoin:round; stroke-width:2; stroke-opacity:0.1; fill:none" points="741.207,889.847 741.207,656.805 "/>
<polyline clip-path="url(#clip733)" style="stroke:#000000; stroke-linecap:round; stroke-linejoin:round; stroke-width:2; stroke-opacity:0.1; fill:none" points="910.843,889.847 910.843,656.805 "/>
<polyline clip-path="url(#clip733)" style="stroke:#000000; stroke-linecap:round; stroke-linejoin:round; stroke-width:2; stroke-opacity:0.1; fill:none" points="1080.48,889.847 1080.48,656.805 "/>
<polyline clip-path="url(#clip733)" style="stroke:#000000; stroke-linecap:round; stroke-linejoin:round; stroke-width:2; stroke-opacity:0.1; fill:none" points="1250.12,889.847 1250.12,656.805 "/>
<polyline clip-path="url(#clip733)" style="stroke:#000000; stroke-linecap:round; stroke-linejoin:round; stroke-width:2; stroke-opacity:0.1; fill:none" points="1419.75,889.847 1419.75,656.805 "/>
<polyline clip-path="url(#clip733)" style="stroke:#000000; stroke-linecap:round; stroke-linejoin:round; stroke-width:2; stroke-opacity:0.1; fill:none" points="1589.39,889.847 1589.39,656.805 "/>
<polyline clip-path="url(#clip733)" style="stroke:#000000; stroke-linecap:round; stroke-linejoin:round; stroke-width:2; stroke-opacity:0.1; fill:none" points="1759.03,889.847 1759.03,656.805 "/>
<polyline clip-path="url(#clip733)" style="stroke:#000000; stroke-linecap:round; stroke-linejoin:round; stroke-width:2; stroke-opacity:0.1; fill:none" points="1928.66,889.847 1928.66,656.805 "/>
<polyline clip-path="url(#clip733)" style="stroke:#000000; stroke-linecap:round; stroke-linejoin:round; stroke-width:2; stroke-opacity:0.1; fill:none" points="2098.3,889.847 2098.3,656.805 "/>
<polyline clip-path="url(#clip733)" style="stroke:#000000; stroke-linecap:round; stroke-linejoin:round; stroke-width:2; stroke-opacity:0.1; fill:none" points="2267.94,889.847 2267.94,656.805 "/>
<polyline clip-path="url(#clip730)" style="stroke:#000000; stroke-linecap:round; stroke-linejoin:round; stroke-width:4; stroke-opacity:1; fill:none" points="147.478,889.847 2352.76,889.847 "/>
<polyline clip-path="url(#clip730)" style="stroke:#000000; stroke-linecap:round; stroke-linejoin:round; stroke-width:4; stroke-opacity:1; fill:none" points="232.296,889.847 232.296,870.949 "/>
<polyline clip-path="url(#clip730)" style="stroke:#000000; stroke-linecap:round; stroke-linejoin:round; stroke-width:4; stroke-opacity:1; fill:none" points="401.933,889.847 401.933,870.949 "/>
<polyline clip-path="url(#clip730)" style="stroke:#000000; stroke-linecap:round; stroke-linejoin:round; stroke-width:4; stroke-opacity:1; fill:none" points="571.57,889.847 571.57,870.949 "/>
<polyline clip-path="url(#clip730)" style="stroke:#000000; stroke-linecap:round; stroke-linejoin:round; stroke-width:4; stroke-opacity:1; fill:none" points="741.207,889.847 741.207,870.949 "/>
<polyline clip-path="url(#clip730)" style="stroke:#000000; stroke-linecap:round; stroke-linejoin:round; stroke-width:4; stroke-opacity:1; fill:none" points="910.843,889.847 910.843,870.949 "/>
<polyline clip-path="url(#clip730)" style="stroke:#000000; stroke-linecap:round; stroke-linejoin:round; stroke-width:4; stroke-opacity:1; fill:none" points="1080.48,889.847 1080.48,870.949 "/>
<polyline clip-path="url(#clip730)" style="stroke:#000000; stroke-linecap:round; stroke-linejoin:round; stroke-width:4; stroke-opacity:1; fill:none" points="1250.12,889.847 1250.12,870.949 "/>
<polyline clip-path="url(#clip730)" style="stroke:#000000; stroke-linecap:round; stroke-linejoin:round; stroke-width:4; stroke-opacity:1; fill:none" points="1419.75,889.847 1419.75,870.949 "/>
<polyline clip-path="url(#clip730)" style="stroke:#000000; stroke-linecap:round; stroke-linejoin:round; stroke-width:4; stroke-opacity:1; fill:none" points="1589.39,889.847 1589.39,870.949 "/>
<polyline clip-path="url(#clip730)" style="stroke:#000000; stroke-linecap:round; stroke-linejoin:round; stroke-width:4; stroke-opacity:1; fill:none" points="1759.03,889.847 1759.03,870.949 "/>
<polyline clip-path="url(#clip730)" style="stroke:#000000; stroke-linecap:round; stroke-linejoin:round; stroke-width:4; stroke-opacity:1; fill:none" points="1928.66,889.847 1928.66,870.949 "/>
<polyline clip-path="url(#clip730)" style="stroke:#000000; stroke-linecap:round; stroke-linejoin:round; stroke-width:4; stroke-opacity:1; fill:none" points="2098.3,889.847 2098.3,870.949 "/>
<polyline clip-path="url(#clip730)" style="stroke:#000000; stroke-linecap:round; stroke-linejoin:round; stroke-width:4; stroke-opacity:1; fill:none" points="2267.94,889.847 2267.94,870.949 "/>
<path clip-path="url(#clip730)" d="M232.296 920.765 Q228.685 920.765 226.857 924.33 Q225.051 927.872 225.051 935.001 Q225.051 942.108 226.857 945.672 Q228.685 949.214 232.296 949.214 Q235.931 949.214 237.736 945.672 Q239.565 942.108 239.565 935.001 Q239.565 927.872 237.736 924.33 Q235.931 920.765 232.296 920.765 M232.296 917.062 Q238.106 917.062 241.162 921.668 Q244.241 926.251 244.241 935.001 Q244.241 943.728 241.162 948.334 Q238.106 952.918 232.296 952.918 Q226.486 952.918 223.407 948.334 Q220.352 943.728 220.352 935.001 Q220.352 926.251 223.407 921.668 Q226.486 917.062 232.296 917.062 Z" fill="#000000" fill-rule="nonzero" fill-opacity="1" /><path clip-path="url(#clip730)" d="M392.315 948.311 L399.954 948.311 L399.954 921.946 L391.644 923.612 L391.644 919.353 L399.908 917.687 L404.584 917.687 L404.584 948.311 L412.222 948.311 L412.222 952.247 L392.315 952.247 L392.315 948.311 Z" fill="#000000" fill-rule="nonzero" fill-opacity="1" /><path clip-path="url(#clip730)" d="M566.223 948.311 L582.542 948.311 L582.542 952.247 L560.598 952.247 L560.598 948.311 Q563.26 945.557 567.843 940.927 Q572.449 936.274 573.63 934.932 Q575.875 932.409 576.755 930.673 Q577.658 928.913 577.658 927.223 Q577.658 924.469 575.713 922.733 Q573.792 920.997 570.69 920.997 Q568.491 920.997 566.037 921.761 Q563.607 922.524 560.829 924.075 L560.829 919.353 Q563.653 918.219 566.107 917.64 Q568.561 917.062 570.598 917.062 Q575.968 917.062 579.162 919.747 Q582.357 922.432 582.357 926.923 Q582.357 929.052 581.547 930.973 Q580.76 932.872 578.653 935.464 Q578.074 936.135 574.973 939.353 Q571.871 942.547 566.223 948.311 Z" fill="#000000" fill-rule="nonzero" fill-opacity="1" /><path clip-path="url(#clip730)" d="M745.454 933.612 Q748.811 934.33 750.686 936.598 Q752.584 938.867 752.584 942.2 Q752.584 947.316 749.065 950.117 Q745.547 952.918 739.065 952.918 Q736.889 952.918 734.575 952.478 Q732.283 952.061 729.829 951.205 L729.829 946.691 Q731.774 947.825 734.089 948.404 Q736.403 948.983 738.927 948.983 Q743.325 948.983 745.616 947.247 Q747.931 945.51 747.931 942.2 Q747.931 939.145 745.778 937.432 Q743.649 935.696 739.829 935.696 L735.802 935.696 L735.802 931.853 L740.014 931.853 Q743.464 931.853 745.292 930.487 Q747.121 929.098 747.121 926.506 Q747.121 923.844 745.223 922.432 Q743.348 920.997 739.829 920.997 Q737.908 920.997 735.709 921.413 Q733.51 921.83 730.871 922.71 L730.871 918.543 Q733.533 917.802 735.848 917.432 Q738.186 917.062 740.246 917.062 Q745.57 917.062 748.672 919.492 Q751.774 921.899 751.774 926.02 Q751.774 928.89 750.13 930.881 Q748.487 932.848 745.454 933.612 Z" fill="#000000" fill-rule="nonzero" fill-opacity="1" /><path clip-path="url(#clip730)" d="M913.853 921.761 L902.047 940.21 L913.853 940.21 L913.853 921.761 M912.626 917.687 L918.505 917.687 L918.505 940.21 L923.436 940.21 L923.436 944.098 L918.505 944.098 L918.505 952.247 L913.853 952.247 L913.853 944.098 L898.251 944.098 L898.251 939.585 L912.626 917.687 Z" fill="#000000" fill-rule="nonzero" fill-opacity="1" /><path clip-path="url(#clip730)" d="M1070.76 917.687 L1089.11 917.687 L1089.11 921.622 L1075.04 921.622 L1075.04 930.094 Q1076.06 929.747 1077.08 929.585 Q1078.1 929.399 1079.11 929.399 Q1084.9 929.399 1088.28 932.571 Q1091.66 935.742 1091.66 941.159 Q1091.66 946.737 1088.19 949.839 Q1084.72 952.918 1078.4 952.918 Q1076.22 952.918 1073.95 952.547 Q1071.71 952.177 1069.3 951.436 L1069.3 946.737 Q1071.38 947.872 1073.61 948.427 Q1075.83 948.983 1078.3 948.983 Q1082.31 948.983 1084.65 946.876 Q1086.98 944.77 1086.98 941.159 Q1086.98 937.548 1084.65 935.441 Q1082.31 933.335 1078.3 933.335 Q1076.43 933.335 1074.55 933.751 Q1072.7 934.168 1070.76 935.048 L1070.76 917.687 Z" fill="#000000" fill-rule="nonzero" fill-opacity="1" /><path clip-path="url(#clip730)" d="M1250.52 933.103 Q1247.37 933.103 1245.52 935.256 Q1243.69 937.409 1243.69 941.159 Q1243.69 944.885 1245.52 947.061 Q1247.37 949.214 1250.52 949.214 Q1253.67 949.214 1255.5 947.061 Q1257.35 944.885 1257.35 941.159 Q1257.35 937.409 1255.5 935.256 Q1253.67 933.103 1250.52 933.103 M1259.8 918.45 L1259.8 922.71 Q1258.05 921.876 1256.24 921.436 Q1254.46 920.997 1252.7 920.997 Q1248.07 920.997 1245.61 924.122 Q1243.18 927.247 1242.84 933.566 Q1244.2 931.552 1246.26 930.487 Q1248.32 929.399 1250.8 929.399 Q1256.01 929.399 1259.02 932.571 Q1262.05 935.719 1262.05 941.159 Q1262.05 946.483 1258.9 949.7 Q1255.75 952.918 1250.52 952.918 Q1244.53 952.918 1241.36 948.334 Q1238.18 943.728 1238.18 935.001 Q1238.18 926.807 1242.07 921.946 Q1245.96 917.062 1252.51 917.062 Q1254.27 917.062 1256.05 917.409 Q1257.86 917.756 1259.8 918.45 Z" fill="#000000" fill-rule="nonzero" fill-opacity="1" /><path clip-path="url(#clip730)" d="M1408.64 917.687 L1430.86 917.687 L1430.86 919.677 L1418.32 952.247 L1413.43 952.247 L1425.24 921.622 L1408.64 921.622 L1408.64 917.687 Z" fill="#000000" fill-rule="nonzero" fill-opacity="1" /><path clip-path="url(#clip730)" d="M1589.39 935.835 Q1586.06 935.835 1584.14 937.617 Q1582.24 939.399 1582.24 942.524 Q1582.24 945.649 1584.14 947.432 Q1586.06 949.214 1589.39 949.214 Q1592.72 949.214 1594.65 947.432 Q1596.57 945.626 1596.57 942.524 Q1596.57 939.399 1594.65 937.617 Q1592.75 935.835 1589.39 935.835 M1584.71 933.844 Q1581.71 933.103 1580.02 931.043 Q1578.35 928.983 1578.35 926.02 Q1578.35 921.876 1581.29 919.469 Q1584.25 917.062 1589.39 917.062 Q1594.55 917.062 1597.49 919.469 Q1600.43 921.876 1600.43 926.02 Q1600.43 928.983 1598.74 931.043 Q1597.08 933.103 1594.09 933.844 Q1597.47 934.631 1599.34 936.923 Q1601.24 939.214 1601.24 942.524 Q1601.24 947.547 1598.16 950.233 Q1595.11 952.918 1589.39 952.918 Q1583.67 952.918 1580.59 950.233 Q1577.54 947.547 1577.54 942.524 Q1577.54 939.214 1579.44 936.923 Q1581.33 934.631 1584.71 933.844 M1583 926.46 Q1583 929.145 1584.67 930.649 Q1586.36 932.154 1589.39 932.154 Q1592.4 932.154 1594.09 930.649 Q1595.8 929.145 1595.8 926.46 Q1595.8 923.774 1594.09 922.27 Q1592.4 920.765 1589.39 920.765 Q1586.36 920.765 1584.67 922.27 Q1583 923.774 1583 926.46 Z" fill="#000000" fill-rule="nonzero" fill-opacity="1" /><path clip-path="url(#clip730)" d="M1749.33 951.529 L1749.33 947.27 Q1751.09 948.103 1752.89 948.543 Q1754.7 948.983 1756.43 948.983 Q1761.06 948.983 1763.49 945.881 Q1765.95 942.756 1766.3 936.413 Q1764.95 938.404 1762.89 939.469 Q1760.83 940.534 1758.33 940.534 Q1753.15 940.534 1750.12 937.409 Q1747.11 934.26 1747.11 928.821 Q1747.11 923.497 1750.25 920.279 Q1753.4 917.062 1758.63 917.062 Q1764.63 917.062 1767.78 921.668 Q1770.95 926.251 1770.95 935.001 Q1770.95 943.172 1767.06 948.057 Q1763.19 952.918 1756.64 952.918 Q1754.88 952.918 1753.08 952.571 Q1751.27 952.223 1749.33 951.529 M1758.63 936.876 Q1761.78 936.876 1763.61 934.723 Q1765.46 932.571 1765.46 928.821 Q1765.46 925.094 1763.61 922.941 Q1761.78 920.765 1758.63 920.765 Q1755.49 920.765 1753.63 922.941 Q1751.81 925.094 1751.81 928.821 Q1751.81 932.571 1753.63 934.723 Q1755.49 936.876 1758.63 936.876 Z" fill="#000000" fill-rule="nonzero" fill-opacity="1" /><path clip-path="url(#clip730)" d="M1903.35 948.311 L1910.99 948.311 L1910.99 921.946 L1902.68 923.612 L1902.68 919.353 L1910.94 917.687 L1915.62 917.687 L1915.62 948.311 L1923.26 948.311 L1923.26 952.247 L1903.35 952.247 L1903.35 948.311 Z" fill="#000000" fill-rule="nonzero" fill-opacity="1" /><path clip-path="url(#clip730)" d="M1942.7 920.765 Q1939.09 920.765 1937.26 924.33 Q1935.46 927.872 1935.46 935.001 Q1935.46 942.108 1937.26 945.672 Q1939.09 949.214 1942.7 949.214 Q1946.34 949.214 1948.14 945.672 Q1949.97 942.108 1949.97 935.001 Q1949.97 927.872 1948.14 924.33 Q1946.34 920.765 1942.7 920.765 M1942.7 917.062 Q1948.51 917.062 1951.57 921.668 Q1954.65 926.251 1954.65 935.001 Q1954.65 943.728 1951.57 948.334 Q1948.51 952.918 1942.7 952.918 Q1936.89 952.918 1933.81 948.334 Q1930.76 943.728 1930.76 935.001 Q1930.76 926.251 1933.81 921.668 Q1936.89 917.062 1942.7 917.062 Z" fill="#000000" fill-rule="nonzero" fill-opacity="1" /><path clip-path="url(#clip730)" d="M2073.6 948.311 L2081.24 948.311 L2081.24 921.946 L2072.93 923.612 L2072.93 919.353 L2081.19 917.687 L2085.87 917.687 L2085.87 948.311 L2093.51 948.311 L2093.51 952.247 L2073.6 952.247 L2073.6 948.311 Z" fill="#000000" fill-rule="nonzero" fill-opacity="1" /><path clip-path="url(#clip730)" d="M2103.76 948.311 L2111.4 948.311 L2111.4 921.946 L2103.09 923.612 L2103.09 919.353 L2111.36 917.687 L2116.03 917.687 L2116.03 948.311 L2123.67 948.311 L2123.67 952.247 L2103.76 952.247 L2103.76 948.311 Z" fill="#000000" fill-rule="nonzero" fill-opacity="1" /><path clip-path="url(#clip730)" d="M2243.42 948.311 L2251.06 948.311 L2251.06 921.946 L2242.75 923.612 L2242.75 919.353 L2251.02 917.687 L2255.69 917.687 L2255.69 948.311 L2263.33 948.311 L2263.33 952.247 L2243.42 952.247 L2243.42 948.311 Z" fill="#000000" fill-rule="nonzero" fill-opacity="1" /><path clip-path="url(#clip730)" d="M2276.8 948.311 L2293.12 948.311 L2293.12 952.247 L2271.18 952.247 L2271.18 948.311 Q2273.84 945.557 2278.42 940.927 Q2283.03 936.274 2284.21 934.932 Q2286.46 932.409 2287.34 930.673 Q2288.24 928.913 2288.24 927.223 Q2288.24 924.469 2286.29 922.733 Q2284.37 920.997 2281.27 920.997 Q2279.07 920.997 2276.62 921.761 Q2274.19 922.524 2271.41 924.075 L2271.41 919.353 Q2274.23 918.219 2276.69 917.64 Q2279.14 917.062 2281.18 917.062 Q2286.55 917.062 2289.74 919.747 Q2292.94 922.432 2292.94 926.923 Q2292.94 929.052 2292.13 930.973 Q2291.34 932.872 2289.23 935.464 Q2288.66 936.135 2285.55 939.353 Q2282.45 942.547 2276.8 948.311 Z" fill="#000000" fill-rule="nonzero" fill-opacity="1" /><path clip-path="url(#clip730)" d="M1258.59 998.58 Q1258.59 999.481 1258.17 999.707 Q1257.75 999.9 1256.59 999.9 L1250.41 999.9 L1245.51 1019.35 Q1245.13 1021.06 1245.13 1022.51 Q1245.13 1024.12 1245.61 1024.83 Q1246.12 1025.54 1247.19 1025.54 Q1249.28 1025.54 1251.53 1023.64 Q1253.82 1021.74 1255.75 1017.1 Q1256.01 1016.49 1256.14 1016.36 Q1256.3 1016.2 1256.72 1016.2 Q1257.53 1016.2 1257.53 1016.84 Q1257.53 1017.07 1257.07 1018.1 Q1256.66 1019.13 1255.72 1020.64 Q1254.82 1022.15 1253.63 1023.57 Q1252.47 1024.99 1250.7 1026.02 Q1248.93 1027.02 1247.03 1027.02 Q1244.35 1027.02 1242.65 1025.31 Q1240.97 1023.6 1240.97 1020.93 Q1240.97 1020.06 1241.65 1017.29 Q1242.32 1014.49 1246 999.9 L1240.17 999.9 Q1239.36 999.9 1239.04 999.868 Q1238.75 999.836 1238.52 999.675 Q1238.33 999.481 1238.33 999.095 Q1238.33 998.483 1238.59 998.225 Q1238.85 997.935 1239.17 997.903 Q1239.52 997.839 1240.33 997.839 L1246.51 997.839 L1249.09 987.372 Q1249.34 986.341 1249.99 985.762 Q1250.67 985.15 1251.05 985.085 Q1251.44 984.989 1251.73 984.989 Q1252.6 984.989 1253.11 985.472 Q1253.63 985.923 1253.63 986.76 Q1253.63 987.211 1250.92 997.839 L1256.72 997.839 Q1257.46 997.839 1257.75 997.871 Q1258.07 997.903 1258.33 998.064 Q1258.59 998.225 1258.59 998.58 Z" fill="#000000" fill-rule="nonzero" fill-opacity="1" /><polyline clip-path="url(#clip733)" style="stroke:#000000; stroke-linecap:round; stroke-linejoin:round; stroke-width:2; stroke-opacity:0.1; fill:none" points="147.478,851.006 2352.76,851.006 "/>
<polyline clip-path="url(#clip733)" style="stroke:#000000; stroke-linecap:round; stroke-linejoin:round; stroke-width:2; stroke-opacity:0.1; fill:none" points="147.478,773.326 2352.76,773.326 "/>
<polyline clip-path="url(#clip733)" style="stroke:#000000; stroke-linecap:round; stroke-linejoin:round; stroke-width:2; stroke-opacity:0.1; fill:none" points="147.478,695.646 2352.76,695.646 "/>
<polyline clip-path="url(#clip730)" style="stroke:#000000; stroke-linecap:round; stroke-linejoin:round; stroke-width:4; stroke-opacity:1; fill:none" points="147.478,889.847 147.478,656.805 "/>
<polyline clip-path="url(#clip730)" style="stroke:#000000; stroke-linecap:round; stroke-linejoin:round; stroke-width:4; stroke-opacity:1; fill:none" points="147.478,851.006 166.376,851.006 "/>
<polyline clip-path="url(#clip730)" style="stroke:#000000; stroke-linecap:round; stroke-linejoin:round; stroke-width:4; stroke-opacity:1; fill:none" points="147.478,773.326 166.376,773.326 "/>
<polyline clip-path="url(#clip730)" style="stroke:#000000; stroke-linecap:round; stroke-linejoin:round; stroke-width:4; stroke-opacity:1; fill:none" points="147.478,695.646 166.376,695.646 "/>
<path clip-path="url(#clip730)" d="M50.9921 851.458 L80.6679 851.458 L80.6679 855.393 L50.9921 855.393 L50.9921 851.458 Z" fill="#000000" fill-rule="nonzero" fill-opacity="1" /><path clip-path="url(#clip730)" d="M91.5706 864.351 L99.2095 864.351 L99.2095 837.986 L90.8993 839.652 L90.8993 835.393 L99.1632 833.726 L103.839 833.726 L103.839 864.351 L111.478 864.351 L111.478 868.286 L91.5706 868.286 L91.5706 864.351 Z" fill="#000000" fill-rule="nonzero" fill-opacity="1" /><path clip-path="url(#clip730)" d="M99.5335 759.125 Q95.9224 759.125 94.0937 762.689 Q92.2882 766.231 92.2882 773.361 Q92.2882 780.467 94.0937 784.032 Q95.9224 787.574 99.5335 787.574 Q103.168 787.574 104.973 784.032 Q106.802 780.467 106.802 773.361 Q106.802 766.231 104.973 762.689 Q103.168 759.125 99.5335 759.125 M99.5335 755.421 Q105.344 755.421 108.399 760.027 Q111.478 764.611 111.478 773.361 Q111.478 782.088 108.399 786.694 Q105.344 791.277 99.5335 791.277 Q93.7234 791.277 90.6447 786.694 Q87.5892 782.088 87.5892 773.361 Q87.5892 764.611 90.6447 760.027 Q93.7234 755.421 99.5335 755.421 Z" fill="#000000" fill-rule="nonzero" fill-opacity="1" /><path clip-path="url(#clip730)" d="M91.5706 708.99 L99.2095 708.99 L99.2095 682.625 L90.8993 684.292 L90.8993 680.032 L99.1632 678.366 L103.839 678.366 L103.839 708.99 L111.478 708.99 L111.478 712.926 L91.5706 712.926 L91.5706 708.99 Z" fill="#000000" fill-rule="nonzero" fill-opacity="1" /><path clip-path="url(#clip730)" d="M1254.06 545.567 L1249.51 563.931 Q1249.26 565.037 1249.06 565.324 Q1248.85 565.611 1248.28 565.611 Q1247.83 565.611 1247.54 565.406 Q1247.29 565.201 1247.29 564.996 L1247.25 564.791 Q1247.25 564.668 1247.34 564.054 Q1247.42 563.398 1247.5 562.332 Q1247.58 561.266 1247.58 560.078 Q1247.58 553.355 1244.3 550.24 Q1241.06 547.084 1235.49 547.084 Q1231.64 547.084 1228.19 549.134 Q1224.75 551.183 1222.78 554.421 Q1220.82 557.618 1220.82 560.979 Q1220.82 564.054 1222.37 566.021 Q1223.93 567.989 1225.94 568.644 L1231.55 570.161 Q1237.46 571.678 1239.14 572.333 Q1240.82 572.948 1242.21 574.342 Q1246.35 578.195 1246.35 584.179 Q1246.35 589.344 1243.44 594.345 Q1240.53 599.304 1235.53 602.543 Q1230.53 605.74 1225 605.74 Q1215.28 605.74 1210.81 599.714 L1206.72 604.469 Q1205.94 605.371 1205.69 605.535 Q1205.49 605.74 1205.2 605.74 Q1204.83 605.74 1204.54 605.494 Q1204.26 605.289 1204.26 604.92 Q1204.26 604.633 1206.67 595.001 Q1209.09 585.368 1209.3 585.163 Q1209.63 584.835 1210.16 584.835 Q1211.14 584.835 1211.14 585.778 Q1211.06 586.024 1210.98 586.352 Q1210.49 589.303 1210.49 590.902 Q1210.49 593.894 1211.51 596.189 Q1212.54 598.444 1214.05 599.755 Q1215.61 601.026 1217.7 601.846 Q1219.79 602.625 1221.55 602.911 Q1223.32 603.157 1225.16 603.157 Q1229.14 603.157 1232.66 600.862 Q1236.23 598.567 1238.24 595.001 Q1240.29 591.434 1240.29 587.704 Q1240.29 585.737 1239.75 584.22 Q1239.22 582.663 1238.48 581.802 Q1237.79 580.941 1236.6 580.285 Q1235.41 579.63 1234.59 579.384 Q1233.81 579.097 1232.58 578.81 L1223.6 576.432 Q1220 575.367 1217.41 572.292 Q1214.87 569.218 1214.87 564.504 Q1214.87 559.545 1217.78 554.954 Q1220.73 550.322 1225.53 547.535 Q1230.37 544.707 1235.57 544.707 Q1239.67 544.707 1242.83 546.305 Q1245.98 547.863 1247.58 550.773 L1251.64 545.977 Q1252.46 545.035 1252.62 544.871 Q1252.83 544.707 1253.12 544.707 Q1253.61 544.707 1253.81 544.994 Q1254.06 545.281 1254.06 545.567 Z" fill="#000000" fill-rule="nonzero" fill-opacity="1" /><path clip-path="url(#clip730)" d="M1262.53 610.187 Q1262.53 601.551 1264.71 596.845 Q1267.75 589.844 1274.92 589.844 Q1276.44 589.844 1278.02 590.275 Q1279.63 590.676 1281.64 592.254 Q1283.67 593.832 1284.91 596.415 Q1287.26 601.407 1287.26 610.187 Q1287.26 618.766 1285.08 623.443 Q1281.9 630.272 1274.87 630.272 Q1272.23 630.272 1269.53 628.923 Q1266.86 627.575 1265.17 624.333 Q1262.53 619.484 1262.53 610.187 M1267.41 609.47 Q1267.41 618.336 1268.04 621.865 Q1268.75 625.681 1270.71 627.345 Q1272.69 628.981 1274.87 628.981 Q1277.22 628.981 1279.17 627.231 Q1281.15 625.452 1281.75 621.636 Q1282.41 617.877 1282.38 609.47 Q1282.38 601.293 1281.81 598.022 Q1281.04 594.205 1278.97 592.685 Q1276.93 591.135 1274.87 591.135 Q1274.09 591.135 1273.26 591.365 Q1272.46 591.594 1271.28 592.254 Q1270.1 592.914 1269.19 594.55 Q1268.3 596.185 1267.87 598.653 Q1267.41 601.838 1267.41 609.47 Z" fill="#000000" fill-rule="nonzero" fill-opacity="1" /><polyline clip-path="url(#clip733)" style="stroke:#009af9; stroke-linecap:round; stroke-linejoin:round; stroke-width:8; stroke-opacity:1; fill:none" points="232.296,773.326 235.695,758.746 239.093,744.684 242.491,731.641 245.89,720.079 249.288,710.409 252.687,702.976 256.085,698.044 259.483,695.787 262.882,696.286 266.28,699.523 269.679,705.384 273.077,713.66 276.475,724.056 279.874,736.203 283.272,749.67 286.671,763.978 290.069,778.618 293.467,793.07 296.866,806.82 300.264,819.38 303.663,830.303 307.061,839.2 310.459,845.756 313.858,849.738 317.256,851.004 320.655,849.509 324.053,845.306 327.451,838.544 330.85,829.465 334.248,818.39 337.647,805.713 341.045,791.886 344.443,777.398 347.842,762.766 351.24,748.509 354.639,735.134 358.037,723.117 361.435,712.884 364.834,704.8 368.232,699.151 371.631,696.139 375.029,695.87 378.427,698.354 381.826,703.503 385.224,711.134 388.623,720.975 392.021,732.677 395.419,745.824 398.818,759.948 402.216,774.548 405.615,789.105 409.013,803.1 412.411,816.037 415.81,827.456 419.208,836.952 422.607,844.185 426.005,848.9 429.403,850.929 432.802,850.2 436.2,846.738 439.599,840.667 442.997,832.202 446.395,821.645 449.794,809.37 453.192,795.814 456.591,781.459 459.989,766.815 463.387,752.402 466.786,738.733 470.184,726.293 473.583,715.526 476.981,706.812 480.379,700.463 483.778,696.703 487.176,695.667 490.575,697.391 493.973,701.815 497.371,708.78 500.77,718.039 504.168,729.263 507.567,742.053 510.965,755.955 514.363,770.475 517.762,785.095 521.16,799.298 524.559,812.577 527.957,824.461 531.355,834.528 534.754,842.419 538.152,847.855 541.551,850.641 544.949,850.679 548.347,847.968 551.746,842.604 555.144,834.778 558.543,824.767 561.941,812.928 565.339,799.681 568.738,785.498 572.136,770.882 575.535,756.353 578.933,742.427 582.331,729.599 585.73,718.326 589.128,709.007 592.527,701.975 595.925,697.478 599.323,695.678 602.722,696.637 606.12,700.323 609.519,706.603 612.917,715.254 616.315,725.97 619.714,738.369 623.112,752.01 626.511,766.409 629.909,781.054 633.307,795.424 636.706,809.009 640.104,821.325 643.503,831.936 646.901,840.463 650.299,846.604 653.698,850.14 657.096,850.946 660.495,848.993 663.893,844.351 667.291,837.184 670.69,827.748 674.088,816.377 677.487,803.476 680.885,789.503 684.283,774.956 687.682,760.35 691.08,746.206 694.479,733.025 697.877,721.277 701.275,711.379 704.674,703.683 708.072,698.462 711.471,695.902 714.869,696.094 718.267,699.031 721.666,704.609 725.064,712.629 728.463,722.807 731.861,734.78 735.259,748.123 738.658,762.363 742.056,776.991 745.455,791.49 748.853,805.343 752.251,818.058 755.65,829.183 759.048,838.322 762.447,845.152 765.845,849.428 769.243,851 772.642,849.81 776.04,845.903 779.439,839.415 782.837,830.579 786.235,819.707 789.634,807.187 793.032,793.464 796.431,779.025 799.829,764.383 803.227,750.059 806.626,736.562 810.024,724.372 813.423,713.921 816.821,705.583 820.219,699.652 823.618,696.339 827.016,695.763 830.415,697.944 833.813,702.805 837.211,710.171 840.61,719.783 844.008,731.298 847.407,744.306 850.805,758.346 854.203,772.919 857.602,787.505 861,801.588 864.399,814.667 867.797,826.276 871.195,836.003 874.594,843.502 877.992,848.507 881.391,850.839 884.789,850.417 888.187,847.255 891.586,841.464 894.984,833.252 898.383,822.91 901.781,810.806 905.179,797.369 908.578,783.078 911.976,768.44 915.375,753.976 918.773,740.2 922.171,727.601 925.57,716.627 928.968,707.669 932.367,701.044 935.765,696.988 939.163,695.646 942.562,697.065 945.96,701.194 949.359,707.887 952.757,716.906 956.155,727.931 959.554,740.569 962.952,754.371 966.351,768.847 969.749,783.482 973.147,797.756 976.546,811.162 979.944,823.223 983.343,833.511 986.741,841.659 990.139,847.379 993.538,850.466 996.936,850.812 1000.33,848.403 1003.73,843.326 1007.13,835.761 1010.53,825.977 1013.93,814.321 1017.33,801.209 1020.72,787.105 1024.12,772.511 1027.52,757.947 1030.92,743.929 1034.32,730.956 1037.72,719.489 1041.12,709.935 1044.51,702.635 1047.91,697.847 1051.31,695.742 1054.71,696.395 1058.11,699.782 1061.51,705.783 1064.9,714.185 1068.3,724.689 1071.7,736.921 1075.1,750.448 1078.5,764.788 1081.9,779.431 1085.29,793.857 1088.69,807.554 1092.09,820.034 1095.49,830.853 1098.89,839.628 1102.29,846.047 1105.68,849.881 1109.08,850.993 1112.48,849.345 1115.88,844.995 1119.28,838.098 1122.68,828.899 1126.08,817.724 1129.47,804.971 1132.87,791.093 1136.27,776.584 1139.67,761.959 1143.07,747.738 1146.47,734.427 1149.86,722.498 1153.26,712.376 1156.66,704.42 1160.06,698.913 1163.46,696.052 1166.86,695.936 1170.25,698.572 1173.65,703.864 1177.05,711.626 1180.45,721.58 1183.85,733.374 1187.25,746.588 1190.64,760.752 1194.04,775.363 1197.44,789.901 1200.84,803.851 1204.24,816.715 1207.64,828.038 1211.04,837.415 1214.43,844.515 1217.83,849.085 1221.23,850.961 1224.63,850.078 1228.03,846.468 1231.43,840.257 1234.82,831.668 1238.22,821.004 1241.62,808.647 1245.02,795.033 1248.42,780.649 1251.82,766.003 1255.21,751.619 1258.61,738.005 1262.01,725.648 1265.41,714.984 1268.81,706.395 1272.21,700.184 1275.6,696.574 1279,695.691 1282.4,697.567 1285.8,702.137 1289.2,709.237 1292.6,718.614 1296,729.936 1299.39,742.801 1302.79,756.751 1306.19,771.289 1309.59,785.9 1312.99,800.064 1316.39,813.278 1319.78,825.072 1323.18,835.026 1326.58,842.788 1329.98,848.08 1333.38,850.716 1336.78,850.6 1340.17,847.739 1343.57,842.232 1346.97,834.276 1350.37,824.154 1353.77,812.225 1357.17,798.913 1360.56,784.693 1363.96,770.068 1367.36,755.559 1370.76,741.681 1374.16,728.928 1377.56,717.753 1380.96,708.554 1384.35,701.657 1387.75,697.307 1391.15,695.659 1394.55,696.771 1397.95,700.605 1401.35,707.024 1404.74,715.799 1408.14,726.618 1411.54,739.098 1414.94,752.795 1418.34,767.221 1421.74,781.864 1425.13,796.204 1428.53,809.731 1431.93,821.963 1435.33,832.467 1438.73,840.869 1442.13,846.87 1445.52,850.257 1448.92,850.91 1452.32,848.805 1455.72,844.017 1459.12,836.717 1462.52,827.163 1465.92,815.696 1469.31,802.723 1472.71,788.705 1476.11,774.141 1479.51,759.547 1482.91,745.443 1486.31,732.331 1489.7,720.675 1493.1,710.891 1496.5,703.326 1499.9,698.249 1503.3,695.84 1506.7,696.186 1510.09,699.273 1513.49,704.993 1516.89,713.141 1520.29,723.429 1523.69,735.49 1527.09,748.896 1530.48,763.17 1533.88,777.805 1537.28,792.281 1540.68,806.083 1544.08,818.721 1547.48,829.746 1550.88,838.765 1554.27,845.458 1557.67,849.587 1561.07,851.006 1564.47,849.664 1567.87,845.608 1571.27,838.983 1574.66,830.025 1578.06,819.051 1581.46,806.452 1584.86,792.676 1588.26,778.212 1591.66,763.574 1595.05,749.283 1598.45,735.846 1601.85,723.742 1605.25,713.4 1608.65,705.188 1612.05,699.397 1615.44,696.235 1618.84,695.813 1622.24,698.145 1625.64,703.15 1629.04,710.649 1632.44,720.376 1635.84,731.985 1639.23,745.064 1642.63,759.146 1646.03,773.733 1649.43,788.306 1652.83,802.346 1656.23,815.354 1659.62,826.869 1663.02,836.481 1666.42,843.847 1669.82,848.708 1673.22,850.889 1676.62,850.313 1680.01,847 1683.41,841.069 1686.81,832.731 1690.21,822.28 1693.61,810.09 1697.01,796.593 1700.4,782.269 1703.8,767.627 1707.2,753.188 1710.6,739.465 1714,726.945 1717.4,716.073 1720.8,707.237 1724.19,700.749 1727.59,696.842 1730.99,695.652 1734.39,697.224 1737.79,701.5 1741.19,708.33 1744.58,717.469 1747.98,728.594 1751.38,741.309 1754.78,755.162 1758.18,769.661 1761.58,784.289 1764.97,798.528 1768.37,811.872 1771.77,823.845 1775.17,834.023 1778.57,842.043 1781.97,847.621 1785.36,850.558 1788.76,850.75 1792.16,848.19 1795.56,842.969 1798.96,835.273 1802.36,825.375 1805.76,813.627 1809.15,800.446 1812.55,786.302 1815.95,771.696 1819.35,757.149 1822.75,743.176 1826.15,730.275 1829.54,718.904 1832.94,709.468 1836.34,702.301 1839.74,697.659 1843.14,695.706 1846.54,696.512 1849.93,700.048 1853.33,706.189 1856.73,714.716 1860.13,725.327 1863.53,737.643 1866.93,751.228 1870.32,765.598 1873.72,780.243 1877.12,794.642 1880.52,808.283 1883.92,820.682 1887.32,831.398 1890.72,840.049 1894.11,846.329 1897.51,850.015 1900.91,850.974 1904.31,849.174 1907.71,844.677 1911.11,837.645 1914.5,828.326 1917.9,817.053 1921.3,804.225 1924.7,790.299 1928.1,775.77 1931.5,761.154 1934.89,746.971 1938.29,733.724 1941.69,721.885 1945.09,711.874 1948.49,704.048 1951.89,698.684 1955.28,695.973 1958.68,696.011 1962.08,698.797 1965.48,704.233 1968.88,712.124 1972.28,722.191 1975.68,734.075 1979.07,747.354 1982.47,761.557 1985.87,776.177 1989.27,790.697 1992.67,804.599 1996.07,817.389 1999.46,828.613 2002.86,837.872 2006.26,844.837 2009.66,849.26 2013.06,850.985 2016.46,849.949 2019.85,846.189 2023.25,839.84 2026.65,831.126 2030.05,820.358 2033.45,807.919 2036.85,794.25 2040.24,779.837 2043.64,765.193 2047.04,750.837 2050.44,737.282 2053.84,725.007 2057.24,714.45 2060.64,705.985 2064.03,699.914 2067.43,696.452 2070.83,695.723 2074.23,697.752 2077.63,702.467 2081.03,709.7 2084.42,719.196 2087.82,730.615 2091.22,743.552 2094.62,757.547 2098.02,772.104 2101.42,786.704 2104.81,800.828 2108.21,813.975 2111.61,825.677 2115.01,835.518 2118.41,843.149 2121.81,848.298 2125.2,850.782 2128.6,850.513 2132,847.501 2135.4,841.852 2138.8,833.768 2142.2,823.535 2145.6,811.518 2148.99,798.143 2152.39,783.886 2155.79,769.254 2159.19,754.766 2162.59,740.939 2165.99,728.262 2169.38,717.187 2172.78,708.108 2176.18,701.346 2179.58,697.143 2182.98,695.648 2186.38,696.914 2189.77,700.896 2193.17,707.452 2196.57,716.349 2199.97,727.272 2203.37,739.832 2206.77,753.582 2210.16,768.034 2213.56,782.674 2216.96,796.982 2220.36,810.449 2223.76,822.596 2227.16,832.992 2230.56,841.268 2233.95,847.128 2237.35,850.366 2240.75,850.865 2244.15,848.608 2247.55,843.676 2250.95,836.242 2254.34,826.573 2257.74,815.011 2261.14,801.967 2264.54,787.906 2267.94,773.326 "/>
<path clip-path="url(#clip730)" d="M147.478 1423.18 L2352.76 1423.18 L2352.76 1190.14 L147.478 1190.14  Z" fill="#ffffff" fill-rule="evenodd" fill-opacity="1"/>
<defs>
  <clipPath id="clip734">
    <rect x="147" y="1190" width="2206" height="234"/>
  </clipPath>
</defs>
<polyline clip-path="url(#clip734)" style="stroke:#000000; stroke-linecap:round; stroke-linejoin:round; stroke-width:2; stroke-opacity:0.1; fill:none" points="232.296,1423.18 232.296,1190.14 "/>
<polyline clip-path="url(#clip734)" style="stroke:#000000; stroke-linecap:round; stroke-linejoin:round; stroke-width:2; stroke-opacity:0.1; fill:none" points="401.933,1423.18 401.933,1190.14 "/>
<polyline clip-path="url(#clip734)" style="stroke:#000000; stroke-linecap:round; stroke-linejoin:round; stroke-width:2; stroke-opacity:0.1; fill:none" points="571.57,1423.18 571.57,1190.14 "/>
<polyline clip-path="url(#clip734)" style="stroke:#000000; stroke-linecap:round; stroke-linejoin:round; stroke-width:2; stroke-opacity:0.1; fill:none" points="741.207,1423.18 741.207,1190.14 "/>
<polyline clip-path="url(#clip734)" style="stroke:#000000; stroke-linecap:round; stroke-linejoin:round; stroke-width:2; stroke-opacity:0.1; fill:none" points="910.843,1423.18 910.843,1190.14 "/>
<polyline clip-path="url(#clip734)" style="stroke:#000000; stroke-linecap:round; stroke-linejoin:round; stroke-width:2; stroke-opacity:0.1; fill:none" points="1080.48,1423.18 1080.48,1190.14 "/>
<polyline clip-path="url(#clip734)" style="stroke:#000000; stroke-linecap:round; stroke-linejoin:round; stroke-width:2; stroke-opacity:0.1; fill:none" points="1250.12,1423.18 1250.12,1190.14 "/>
<polyline clip-path="url(#clip734)" style="stroke:#000000; stroke-linecap:round; stroke-linejoin:round; stroke-width:2; stroke-opacity:0.1; fill:none" points="1419.75,1423.18 1419.75,1190.14 "/>
<polyline clip-path="url(#clip734)" style="stroke:#000000; stroke-linecap:round; stroke-linejoin:round; stroke-width:2; stroke-opacity:0.1; fill:none" points="1589.39,1423.18 1589.39,1190.14 "/>
<polyline clip-path="url(#clip734)" style="stroke:#000000; stroke-linecap:round; stroke-linejoin:round; stroke-width:2; stroke-opacity:0.1; fill:none" points="1759.03,1423.18 1759.03,1190.14 "/>
<polyline clip-path="url(#clip734)" style="stroke:#000000; stroke-linecap:round; stroke-linejoin:round; stroke-width:2; stroke-opacity:0.1; fill:none" points="1928.66,1423.18 1928.66,1190.14 "/>
<polyline clip-path="url(#clip734)" style="stroke:#000000; stroke-linecap:round; stroke-linejoin:round; stroke-width:2; stroke-opacity:0.1; fill:none" points="2098.3,1423.18 2098.3,1190.14 "/>
<polyline clip-path="url(#clip734)" style="stroke:#000000; stroke-linecap:round; stroke-linejoin:round; stroke-width:2; stroke-opacity:0.1; fill:none" points="2267.94,1423.18 2267.94,1190.14 "/>
<polyline clip-path="url(#clip730)" style="stroke:#000000; stroke-linecap:round; stroke-linejoin:round; stroke-width:4; stroke-opacity:1; fill:none" points="147.478,1423.18 2352.76,1423.18 "/>
<polyline clip-path="url(#clip730)" style="stroke:#000000; stroke-linecap:round; stroke-linejoin:round; stroke-width:4; stroke-opacity:1; fill:none" points="232.296,1423.18 232.296,1404.28 "/>
<polyline clip-path="url(#clip730)" style="stroke:#000000; stroke-linecap:round; stroke-linejoin:round; stroke-width:4; stroke-opacity:1; fill:none" points="401.933,1423.18 401.933,1404.28 "/>
<polyline clip-path="url(#clip730)" style="stroke:#000000; stroke-linecap:round; stroke-linejoin:round; stroke-width:4; stroke-opacity:1; fill:none" points="571.57,1423.18 571.57,1404.28 "/>
<polyline clip-path="url(#clip730)" style="stroke:#000000; stroke-linecap:round; stroke-linejoin:round; stroke-width:4; stroke-opacity:1; fill:none" points="741.207,1423.18 741.207,1404.28 "/>
<polyline clip-path="url(#clip730)" style="stroke:#000000; stroke-linecap:round; stroke-linejoin:round; stroke-width:4; stroke-opacity:1; fill:none" points="910.843,1423.18 910.843,1404.28 "/>
<polyline clip-path="url(#clip730)" style="stroke:#000000; stroke-linecap:round; stroke-linejoin:round; stroke-width:4; stroke-opacity:1; fill:none" points="1080.48,1423.18 1080.48,1404.28 "/>
<polyline clip-path="url(#clip730)" style="stroke:#000000; stroke-linecap:round; stroke-linejoin:round; stroke-width:4; stroke-opacity:1; fill:none" points="1250.12,1423.18 1250.12,1404.28 "/>
<polyline clip-path="url(#clip730)" style="stroke:#000000; stroke-linecap:round; stroke-linejoin:round; stroke-width:4; stroke-opacity:1; fill:none" points="1419.75,1423.18 1419.75,1404.28 "/>
<polyline clip-path="url(#clip730)" style="stroke:#000000; stroke-linecap:round; stroke-linejoin:round; stroke-width:4; stroke-opacity:1; fill:none" points="1589.39,1423.18 1589.39,1404.28 "/>
<polyline clip-path="url(#clip730)" style="stroke:#000000; stroke-linecap:round; stroke-linejoin:round; stroke-width:4; stroke-opacity:1; fill:none" points="1759.03,1423.18 1759.03,1404.28 "/>
<polyline clip-path="url(#clip730)" style="stroke:#000000; stroke-linecap:round; stroke-linejoin:round; stroke-width:4; stroke-opacity:1; fill:none" points="1928.66,1423.18 1928.66,1404.28 "/>
<polyline clip-path="url(#clip730)" style="stroke:#000000; stroke-linecap:round; stroke-linejoin:round; stroke-width:4; stroke-opacity:1; fill:none" points="2098.3,1423.18 2098.3,1404.28 "/>
<polyline clip-path="url(#clip730)" style="stroke:#000000; stroke-linecap:round; stroke-linejoin:round; stroke-width:4; stroke-opacity:1; fill:none" points="2267.94,1423.18 2267.94,1404.28 "/>
<path clip-path="url(#clip730)" d="M232.296 1454.1 Q228.685 1454.1 226.857 1457.66 Q225.051 1461.2 225.051 1468.33 Q225.051 1475.44 226.857 1479.01 Q228.685 1482.55 232.296 1482.55 Q235.931 1482.55 237.736 1479.01 Q239.565 1475.44 239.565 1468.33 Q239.565 1461.2 237.736 1457.66 Q235.931 1454.1 232.296 1454.1 M232.296 1450.39 Q238.106 1450.39 241.162 1455 Q244.241 1459.58 244.241 1468.33 Q244.241 1477.06 241.162 1481.67 Q238.106 1486.25 232.296 1486.25 Q226.486 1486.25 223.407 1481.67 Q220.352 1477.06 220.352 1468.33 Q220.352 1459.58 223.407 1455 Q226.486 1450.39 232.296 1450.39 Z" fill="#000000" fill-rule="nonzero" fill-opacity="1" /><path clip-path="url(#clip730)" d="M392.315 1481.64 L399.954 1481.64 L399.954 1455.28 L391.644 1456.95 L391.644 1452.69 L399.908 1451.02 L404.584 1451.02 L404.584 1481.64 L412.222 1481.64 L412.222 1485.58 L392.315 1485.58 L392.315 1481.64 Z" fill="#000000" fill-rule="nonzero" fill-opacity="1" /><path clip-path="url(#clip730)" d="M566.223 1481.64 L582.542 1481.64 L582.542 1485.58 L560.598 1485.58 L560.598 1481.64 Q563.26 1478.89 567.843 1474.26 Q572.449 1469.61 573.63 1468.27 Q575.875 1465.74 576.755 1464.01 Q577.658 1462.25 577.658 1460.56 Q577.658 1457.8 575.713 1456.07 Q573.792 1454.33 570.69 1454.33 Q568.491 1454.33 566.037 1455.09 Q563.607 1455.86 560.829 1457.41 L560.829 1452.69 Q563.653 1451.55 566.107 1450.97 Q568.561 1450.39 570.598 1450.39 Q575.968 1450.39 579.162 1453.08 Q582.357 1455.77 582.357 1460.26 Q582.357 1462.39 581.547 1464.31 Q580.76 1466.2 578.653 1468.8 Q578.074 1469.47 574.973 1472.69 Q571.871 1475.88 566.223 1481.64 Z" fill="#000000" fill-rule="nonzero" fill-opacity="1" /><path clip-path="url(#clip730)" d="M745.454 1466.95 Q748.811 1467.66 750.686 1469.93 Q752.584 1472.2 752.584 1475.53 Q752.584 1480.65 749.065 1483.45 Q745.547 1486.25 739.065 1486.25 Q736.889 1486.25 734.575 1485.81 Q732.283 1485.39 729.829 1484.54 L729.829 1480.02 Q731.774 1481.16 734.089 1481.74 Q736.403 1482.32 738.927 1482.32 Q743.325 1482.32 745.616 1480.58 Q747.931 1478.84 747.931 1475.53 Q747.931 1472.48 745.778 1470.77 Q743.649 1469.03 739.829 1469.03 L735.802 1469.03 L735.802 1465.19 L740.014 1465.19 Q743.464 1465.19 745.292 1463.82 Q747.121 1462.43 747.121 1459.84 Q747.121 1457.18 745.223 1455.77 Q743.348 1454.33 739.829 1454.33 Q737.908 1454.33 735.709 1454.75 Q733.51 1455.16 730.871 1456.04 L730.871 1451.88 Q733.533 1451.14 735.848 1450.77 Q738.186 1450.39 740.246 1450.39 Q745.57 1450.39 748.672 1452.83 Q751.774 1455.23 751.774 1459.35 Q751.774 1462.22 750.13 1464.21 Q748.487 1466.18 745.454 1466.95 Z" fill="#000000" fill-rule="nonzero" fill-opacity="1" /><path clip-path="url(#clip730)" d="M913.853 1455.09 L902.047 1473.54 L913.853 1473.54 L913.853 1455.09 M912.626 1451.02 L918.505 1451.02 L918.505 1473.54 L923.436 1473.54 L923.436 1477.43 L918.505 1477.43 L918.505 1485.58 L913.853 1485.58 L913.853 1477.43 L898.251 1477.43 L898.251 1472.92 L912.626 1451.02 Z" fill="#000000" fill-rule="nonzero" fill-opacity="1" /><path clip-path="url(#clip730)" d="M1070.76 1451.02 L1089.11 1451.02 L1089.11 1454.96 L1075.04 1454.96 L1075.04 1463.43 Q1076.06 1463.08 1077.08 1462.92 Q1078.1 1462.73 1079.11 1462.73 Q1084.9 1462.73 1088.28 1465.9 Q1091.66 1469.08 1091.66 1474.49 Q1091.66 1480.07 1088.19 1483.17 Q1084.72 1486.25 1078.4 1486.25 Q1076.22 1486.25 1073.95 1485.88 Q1071.71 1485.51 1069.3 1484.77 L1069.3 1480.07 Q1071.38 1481.2 1073.61 1481.76 Q1075.83 1482.32 1078.3 1482.32 Q1082.31 1482.32 1084.65 1480.21 Q1086.98 1478.1 1086.98 1474.49 Q1086.98 1470.88 1084.65 1468.77 Q1082.31 1466.67 1078.3 1466.67 Q1076.43 1466.67 1074.55 1467.08 Q1072.7 1467.5 1070.76 1468.38 L1070.76 1451.02 Z" fill="#000000" fill-rule="nonzero" fill-opacity="1" /><path clip-path="url(#clip730)" d="M1250.52 1466.44 Q1247.37 1466.44 1245.52 1468.59 Q1243.69 1470.74 1243.69 1474.49 Q1243.69 1478.22 1245.52 1480.39 Q1247.37 1482.55 1250.52 1482.55 Q1253.67 1482.55 1255.5 1480.39 Q1257.35 1478.22 1257.35 1474.49 Q1257.35 1470.74 1255.5 1468.59 Q1253.67 1466.44 1250.52 1466.44 M1259.8 1451.78 L1259.8 1456.04 Q1258.05 1455.21 1256.24 1454.77 Q1254.46 1454.33 1252.7 1454.33 Q1248.07 1454.33 1245.61 1457.45 Q1243.18 1460.58 1242.84 1466.9 Q1244.2 1464.89 1246.26 1463.82 Q1248.32 1462.73 1250.8 1462.73 Q1256.01 1462.73 1259.02 1465.9 Q1262.05 1469.05 1262.05 1474.49 Q1262.05 1479.82 1258.9 1483.03 Q1255.75 1486.25 1250.52 1486.25 Q1244.53 1486.25 1241.36 1481.67 Q1238.18 1477.06 1238.18 1468.33 Q1238.18 1460.14 1242.07 1455.28 Q1245.96 1450.39 1252.51 1450.39 Q1254.27 1450.39 1256.05 1450.74 Q1257.86 1451.09 1259.8 1451.78 Z" fill="#000000" fill-rule="nonzero" fill-opacity="1" /><path clip-path="url(#clip730)" d="M1408.64 1451.02 L1430.86 1451.02 L1430.86 1453.01 L1418.32 1485.58 L1413.43 1485.58 L1425.24 1454.96 L1408.64 1454.96 L1408.64 1451.02 Z" fill="#000000" fill-rule="nonzero" fill-opacity="1" /><path clip-path="url(#clip730)" d="M1589.39 1469.17 Q1586.06 1469.17 1584.14 1470.95 Q1582.24 1472.73 1582.24 1475.86 Q1582.24 1478.98 1584.14 1480.77 Q1586.06 1482.55 1589.39 1482.55 Q1592.72 1482.55 1594.65 1480.77 Q1596.57 1478.96 1596.57 1475.86 Q1596.57 1472.73 1594.65 1470.95 Q1592.75 1469.17 1589.39 1469.17 M1584.71 1467.18 Q1581.71 1466.44 1580.02 1464.38 Q1578.35 1462.32 1578.35 1459.35 Q1578.35 1455.21 1581.29 1452.8 Q1584.25 1450.39 1589.39 1450.39 Q1594.55 1450.39 1597.49 1452.8 Q1600.43 1455.21 1600.43 1459.35 Q1600.43 1462.32 1598.74 1464.38 Q1597.08 1466.44 1594.09 1467.18 Q1597.47 1467.96 1599.34 1470.26 Q1601.24 1472.55 1601.24 1475.86 Q1601.24 1480.88 1598.16 1483.57 Q1595.11 1486.25 1589.39 1486.25 Q1583.67 1486.25 1580.59 1483.57 Q1577.54 1480.88 1577.54 1475.86 Q1577.54 1472.55 1579.44 1470.26 Q1581.33 1467.96 1584.71 1467.18 M1583 1459.79 Q1583 1462.48 1584.67 1463.98 Q1586.36 1465.49 1589.39 1465.49 Q1592.4 1465.49 1594.09 1463.98 Q1595.8 1462.48 1595.8 1459.79 Q1595.8 1457.11 1594.09 1455.6 Q1592.4 1454.1 1589.39 1454.1 Q1586.36 1454.1 1584.67 1455.6 Q1583 1457.11 1583 1459.79 Z" fill="#000000" fill-rule="nonzero" fill-opacity="1" /><path clip-path="url(#clip730)" d="M1749.33 1484.86 L1749.33 1480.6 Q1751.09 1481.44 1752.89 1481.88 Q1754.7 1482.32 1756.43 1482.32 Q1761.06 1482.32 1763.49 1479.21 Q1765.95 1476.09 1766.3 1469.75 Q1764.95 1471.74 1762.89 1472.8 Q1760.83 1473.87 1758.33 1473.87 Q1753.15 1473.87 1750.12 1470.74 Q1747.11 1467.59 1747.11 1462.15 Q1747.11 1456.83 1750.25 1453.61 Q1753.4 1450.39 1758.63 1450.39 Q1764.63 1450.39 1767.78 1455 Q1770.95 1459.58 1770.95 1468.33 Q1770.95 1476.51 1767.06 1481.39 Q1763.19 1486.25 1756.64 1486.25 Q1754.88 1486.25 1753.08 1485.9 Q1751.27 1485.56 1749.33 1484.86 M1758.63 1470.21 Q1761.78 1470.21 1763.61 1468.06 Q1765.46 1465.9 1765.46 1462.15 Q1765.46 1458.43 1763.61 1456.27 Q1761.78 1454.1 1758.63 1454.1 Q1755.49 1454.1 1753.63 1456.27 Q1751.81 1458.43 1751.81 1462.15 Q1751.81 1465.9 1753.63 1468.06 Q1755.49 1470.21 1758.63 1470.21 Z" fill="#000000" fill-rule="nonzero" fill-opacity="1" /><path clip-path="url(#clip730)" d="M1903.35 1481.64 L1910.99 1481.64 L1910.99 1455.28 L1902.68 1456.95 L1902.68 1452.69 L1910.94 1451.02 L1915.62 1451.02 L1915.62 1481.64 L1923.26 1481.64 L1923.26 1485.58 L1903.35 1485.58 L1903.35 1481.64 Z" fill="#000000" fill-rule="nonzero" fill-opacity="1" /><path clip-path="url(#clip730)" d="M1942.7 1454.1 Q1939.09 1454.1 1937.26 1457.66 Q1935.46 1461.2 1935.46 1468.33 Q1935.46 1475.44 1937.26 1479.01 Q1939.09 1482.55 1942.7 1482.55 Q1946.34 1482.55 1948.14 1479.01 Q1949.97 1475.44 1949.97 1468.33 Q1949.97 1461.2 1948.14 1457.66 Q1946.34 1454.1 1942.7 1454.1 M1942.7 1450.39 Q1948.51 1450.39 1951.57 1455 Q1954.65 1459.58 1954.65 1468.33 Q1954.65 1477.06 1951.57 1481.67 Q1948.51 1486.25 1942.7 1486.25 Q1936.89 1486.25 1933.81 1481.67 Q1930.76 1477.06 1930.76 1468.33 Q1930.76 1459.58 1933.81 1455 Q1936.89 1450.39 1942.7 1450.39 Z" fill="#000000" fill-rule="nonzero" fill-opacity="1" /><path clip-path="url(#clip730)" d="M2073.6 1481.64 L2081.24 1481.64 L2081.24 1455.28 L2072.93 1456.95 L2072.93 1452.69 L2081.19 1451.02 L2085.87 1451.02 L2085.87 1481.64 L2093.51 1481.64 L2093.51 1485.58 L2073.6 1485.58 L2073.6 1481.64 Z" fill="#000000" fill-rule="nonzero" fill-opacity="1" /><path clip-path="url(#clip730)" d="M2103.76 1481.64 L2111.4 1481.64 L2111.4 1455.28 L2103.09 1456.95 L2103.09 1452.69 L2111.36 1451.02 L2116.03 1451.02 L2116.03 1481.64 L2123.67 1481.64 L2123.67 1485.58 L2103.76 1485.58 L2103.76 1481.64 Z" fill="#000000" fill-rule="nonzero" fill-opacity="1" /><path clip-path="url(#clip730)" d="M2243.42 1481.64 L2251.06 1481.64 L2251.06 1455.28 L2242.75 1456.95 L2242.75 1452.69 L2251.02 1451.02 L2255.69 1451.02 L2255.69 1481.64 L2263.33 1481.64 L2263.33 1485.58 L2243.42 1485.58 L2243.42 1481.64 Z" fill="#000000" fill-rule="nonzero" fill-opacity="1" /><path clip-path="url(#clip730)" d="M2276.8 1481.64 L2293.12 1481.64 L2293.12 1485.58 L2271.18 1485.58 L2271.18 1481.64 Q2273.84 1478.89 2278.42 1474.26 Q2283.03 1469.61 2284.21 1468.27 Q2286.46 1465.74 2287.34 1464.01 Q2288.24 1462.25 2288.24 1460.56 Q2288.24 1457.8 2286.29 1456.07 Q2284.37 1454.33 2281.27 1454.33 Q2279.07 1454.33 2276.62 1455.09 Q2274.19 1455.86 2271.41 1457.41 L2271.41 1452.69 Q2274.23 1451.55 2276.69 1450.97 Q2279.14 1450.39 2281.18 1450.39 Q2286.55 1450.39 2289.74 1453.08 Q2292.94 1455.77 2292.94 1460.26 Q2292.94 1462.39 2292.13 1464.31 Q2291.34 1466.2 2289.23 1468.8 Q2288.66 1469.47 2285.55 1472.69 Q2282.45 1475.88 2276.8 1481.64 Z" fill="#000000" fill-rule="nonzero" fill-opacity="1" /><path clip-path="url(#clip730)" d="M1258.59 1531.91 Q1258.59 1532.81 1258.17 1533.04 Q1257.75 1533.23 1256.59 1533.23 L1250.41 1533.23 L1245.51 1552.69 Q1245.13 1554.39 1245.13 1555.84 Q1245.13 1557.45 1245.61 1558.16 Q1246.12 1558.87 1247.19 1558.87 Q1249.28 1558.87 1251.53 1556.97 Q1253.82 1555.07 1255.75 1550.43 Q1256.01 1549.82 1256.14 1549.69 Q1256.3 1549.53 1256.72 1549.53 Q1257.53 1549.53 1257.53 1550.17 Q1257.53 1550.4 1257.07 1551.43 Q1256.66 1552.46 1255.72 1553.97 Q1254.82 1555.49 1253.63 1556.9 Q1252.47 1558.32 1250.7 1559.35 Q1248.93 1560.35 1247.03 1560.35 Q1244.35 1560.35 1242.65 1558.64 Q1240.97 1556.94 1240.97 1554.26 Q1240.97 1553.39 1241.65 1550.62 Q1242.32 1547.82 1246 1533.23 L1240.17 1533.23 Q1239.36 1533.23 1239.04 1533.2 Q1238.75 1533.17 1238.52 1533.01 Q1238.33 1532.81 1238.33 1532.43 Q1238.33 1531.82 1238.59 1531.56 Q1238.85 1531.27 1239.17 1531.24 Q1239.52 1531.17 1240.33 1531.17 L1246.51 1531.17 L1249.09 1520.71 Q1249.34 1519.67 1249.99 1519.09 Q1250.67 1518.48 1251.05 1518.42 Q1251.44 1518.32 1251.73 1518.32 Q1252.6 1518.32 1253.11 1518.81 Q1253.63 1519.26 1253.63 1520.09 Q1253.63 1520.54 1250.92 1531.17 L1256.72 1531.17 Q1257.46 1531.17 1257.75 1531.2 Q1258.07 1531.24 1258.33 1531.4 Q1258.59 1531.56 1258.59 1531.91 Z" fill="#000000" fill-rule="nonzero" fill-opacity="1" /><polyline clip-path="url(#clip734)" style="stroke:#000000; stroke-linecap:round; stroke-linejoin:round; stroke-width:2; stroke-opacity:0.1; fill:none" points="147.478,1384.34 2352.76,1384.34 "/>
<polyline clip-path="url(#clip734)" style="stroke:#000000; stroke-linecap:round; stroke-linejoin:round; stroke-width:2; stroke-opacity:0.1; fill:none" points="147.478,1306.66 2352.76,1306.66 "/>
<polyline clip-path="url(#clip734)" style="stroke:#000000; stroke-linecap:round; stroke-linejoin:round; stroke-width:2; stroke-opacity:0.1; fill:none" points="147.478,1228.98 2352.76,1228.98 "/>
<polyline clip-path="url(#clip730)" style="stroke:#000000; stroke-linecap:round; stroke-linejoin:round; stroke-width:4; stroke-opacity:1; fill:none" points="147.478,1423.18 147.478,1190.14 "/>
<polyline clip-path="url(#clip730)" style="stroke:#000000; stroke-linecap:round; stroke-linejoin:round; stroke-width:4; stroke-opacity:1; fill:none" points="147.478,1384.34 166.376,1384.34 "/>
<polyline clip-path="url(#clip730)" style="stroke:#000000; stroke-linecap:round; stroke-linejoin:round; stroke-width:4; stroke-opacity:1; fill:none" points="147.478,1306.66 166.376,1306.66 "/>
<polyline clip-path="url(#clip730)" style="stroke:#000000; stroke-linecap:round; stroke-linejoin:round; stroke-width:4; stroke-opacity:1; fill:none" points="147.478,1228.98 166.376,1228.98 "/>
<path clip-path="url(#clip730)" d="M50.9921 1384.79 L80.6679 1384.79 L80.6679 1388.73 L50.9921 1388.73 L50.9921 1384.79 Z" fill="#000000" fill-rule="nonzero" fill-opacity="1" /><path clip-path="url(#clip730)" d="M91.5706 1397.68 L99.2095 1397.68 L99.2095 1371.32 L90.8993 1372.99 L90.8993 1368.73 L99.1632 1367.06 L103.839 1367.06 L103.839 1397.68 L111.478 1397.68 L111.478 1401.62 L91.5706 1401.62 L91.5706 1397.68 Z" fill="#000000" fill-rule="nonzero" fill-opacity="1" /><path clip-path="url(#clip730)" d="M99.5335 1292.46 Q95.9224 1292.46 94.0937 1296.02 Q92.2882 1299.56 92.2882 1306.69 Q92.2882 1313.8 94.0937 1317.37 Q95.9224 1320.91 99.5335 1320.91 Q103.168 1320.91 104.973 1317.37 Q106.802 1313.8 106.802 1306.69 Q106.802 1299.56 104.973 1296.02 Q103.168 1292.46 99.5335 1292.46 M99.5335 1288.75 Q105.344 1288.75 108.399 1293.36 Q111.478 1297.94 111.478 1306.69 Q111.478 1315.42 108.399 1320.03 Q105.344 1324.61 99.5335 1324.61 Q93.7234 1324.61 90.6447 1320.03 Q87.5892 1315.42 87.5892 1306.69 Q87.5892 1297.94 90.6447 1293.36 Q93.7234 1288.75 99.5335 1288.75 Z" fill="#000000" fill-rule="nonzero" fill-opacity="1" /><path clip-path="url(#clip730)" d="M91.5706 1242.32 L99.2095 1242.32 L99.2095 1215.96 L90.8993 1217.62 L90.8993 1213.37 L99.1632 1211.7 L103.839 1211.7 L103.839 1242.32 L111.478 1242.32 L111.478 1246.26 L91.5706 1246.26 L91.5706 1242.32 Z" fill="#000000" fill-rule="nonzero" fill-opacity="1" /><path clip-path="url(#clip730)" d="M1256.7 1079.54 L1252.15 1097.9 Q1251.9 1099.01 1251.7 1099.3 Q1251.49 1099.58 1250.92 1099.58 Q1250.47 1099.58 1250.18 1099.38 Q1249.94 1099.17 1249.94 1098.97 L1249.9 1098.76 Q1249.9 1098.64 1249.98 1098.03 Q1250.06 1097.37 1250.14 1096.31 Q1250.22 1095.24 1250.22 1094.05 Q1250.22 1087.33 1246.94 1084.21 Q1243.71 1081.06 1238.13 1081.06 Q1234.28 1081.06 1230.84 1083.11 Q1227.39 1085.16 1225.42 1088.39 Q1223.46 1091.59 1223.46 1094.95 Q1223.46 1098.03 1225.01 1099.99 Q1226.57 1101.96 1228.58 1102.62 L1234.2 1104.13 Q1240.1 1105.65 1241.78 1106.31 Q1243.46 1106.92 1244.85 1108.32 Q1248.99 1112.17 1248.99 1118.15 Q1248.99 1123.32 1246.08 1128.32 Q1243.17 1133.28 1238.17 1136.52 Q1233.17 1139.71 1227.64 1139.71 Q1217.92 1139.71 1213.46 1133.69 L1209.36 1138.44 Q1208.58 1139.34 1208.33 1139.51 Q1208.13 1139.71 1207.84 1139.71 Q1207.47 1139.71 1207.18 1139.47 Q1206.9 1139.26 1206.9 1138.89 Q1206.9 1138.61 1209.32 1128.97 Q1211.73 1119.34 1211.94 1119.14 Q1212.27 1118.81 1212.8 1118.81 Q1213.78 1118.81 1213.78 1119.75 Q1213.7 1120 1213.62 1120.32 Q1213.13 1123.28 1213.13 1124.87 Q1213.13 1127.87 1214.15 1130.16 Q1215.18 1132.42 1216.69 1133.73 Q1218.25 1135 1220.34 1135.82 Q1222.43 1136.6 1224.2 1136.88 Q1225.96 1137.13 1227.8 1137.13 Q1231.78 1137.13 1235.3 1134.84 Q1238.87 1132.54 1240.88 1128.97 Q1242.93 1125.41 1242.93 1121.68 Q1242.93 1119.71 1242.39 1118.19 Q1241.86 1116.64 1241.12 1115.78 Q1240.43 1114.91 1239.24 1114.26 Q1238.05 1113.6 1237.23 1113.36 Q1236.45 1113.07 1235.22 1112.78 L1226.24 1110.41 Q1222.64 1109.34 1220.06 1106.27 Q1217.51 1103.19 1217.51 1098.48 Q1217.51 1093.52 1220.42 1088.93 Q1223.38 1084.3 1228.17 1081.51 Q1233.01 1078.68 1238.21 1078.68 Q1242.31 1078.68 1245.47 1080.28 Q1248.62 1081.84 1250.22 1084.75 L1254.28 1079.95 Q1255.1 1079.01 1255.26 1078.84 Q1255.47 1078.68 1255.76 1078.68 Q1256.25 1078.68 1256.45 1078.97 Q1256.7 1079.25 1256.7 1079.54 Z" fill="#000000" fill-rule="nonzero" fill-opacity="1" /><path clip-path="url(#clip730)" d="M1265.17 1129.41 L1265.17 1127.58 Q1272.23 1127.58 1275.87 1123.82 Q1276.88 1123.82 1277.05 1124.05 Q1277.22 1124.28 1277.22 1125.34 L1277.22 1158.31 Q1277.22 1160.06 1278.08 1160.6 Q1278.94 1161.15 1282.7 1161.15 L1284.57 1161.15 L1284.57 1162.95 Q1282.5 1162.78 1275.04 1162.78 Q1267.58 1162.78 1265.54 1162.95 L1265.54 1161.15 L1267.41 1161.15 Q1271.11 1161.15 1272 1160.63 Q1272.89 1160.08 1272.89 1158.31 L1272.89 1127.86 Q1269.82 1129.41 1265.17 1129.41 Z" fill="#000000" fill-rule="nonzero" fill-opacity="1" /><polyline clip-path="url(#clip734)" style="stroke:#009af9; stroke-linecap:round; stroke-linejoin:round; stroke-width:8; stroke-opacity:1; fill:none" points="232.296,1306.66 235.695,1321.24 239.093,1335.3 242.491,1348.34 245.89,1359.91 249.288,1369.58 252.687,1377.01 256.085,1381.94 259.483,1384.2 262.882,1383.7 266.28,1380.46 269.679,1374.6 273.077,1366.33 276.475,1355.93 279.874,1343.78 283.272,1330.31 286.671,1316.01 290.069,1301.37 293.467,1286.92 296.866,1273.16 300.264,1260.61 303.663,1249.68 307.061,1240.79 310.459,1234.23 313.858,1230.25 317.256,1228.98 320.655,1230.48 324.053,1234.68 327.451,1241.44 330.85,1250.52 334.248,1261.6 337.647,1274.27 341.045,1288.1 344.443,1302.59 347.842,1317.22 351.24,1331.48 354.639,1344.85 358.037,1356.87 361.435,1367.1 364.834,1375.19 368.232,1380.83 371.631,1383.85 375.029,1384.12 378.427,1381.63 381.826,1376.48 385.224,1368.85 388.623,1359.01 392.021,1347.31 395.419,1334.16 398.818,1320.04 402.216,1305.44 405.615,1290.88 409.013,1276.89 412.411,1263.95 415.81,1252.53 419.208,1243.03 422.607,1235.8 426.005,1231.09 429.403,1229.06 432.802,1229.79 436.2,1233.25 439.599,1239.32 442.997,1247.78 446.395,1258.34 449.794,1270.61 453.192,1284.17 456.591,1298.53 459.989,1313.17 463.387,1327.58 466.786,1341.25 470.184,1353.69 473.583,1364.46 476.981,1373.17 480.379,1379.52 483.778,1383.28 487.176,1384.32 490.575,1382.59 493.973,1378.17 497.371,1371.21 500.77,1361.95 504.168,1350.72 507.567,1337.93 510.965,1324.03 514.363,1309.51 517.762,1294.89 521.16,1280.69 524.559,1267.41 527.957,1255.52 531.355,1245.46 534.754,1237.57 538.152,1232.13 541.551,1229.34 544.949,1229.31 548.347,1232.02 551.746,1237.38 555.144,1245.21 558.543,1255.22 561.941,1267.06 565.339,1280.3 568.738,1294.49 572.136,1309.1 575.535,1323.63 578.933,1337.56 582.331,1350.39 585.73,1361.66 589.128,1370.98 592.527,1378.01 595.925,1382.51 599.323,1384.31 602.722,1383.35 606.12,1379.66 609.519,1373.38 612.917,1364.73 616.315,1354.02 619.714,1341.62 623.112,1327.98 626.511,1313.58 629.909,1298.93 633.307,1284.56 636.706,1270.98 640.104,1258.66 643.503,1248.05 646.901,1239.52 650.299,1233.38 653.698,1229.85 657.096,1229.04 660.495,1230.99 663.893,1235.63 667.291,1242.8 670.69,1252.24 674.088,1263.61 677.487,1276.51 680.885,1290.48 684.283,1305.03 687.682,1319.64 691.08,1333.78 694.479,1346.96 697.877,1358.71 701.275,1368.61 704.674,1376.3 708.072,1381.52 711.471,1384.08 714.869,1383.89 718.267,1380.95 721.666,1375.38 725.064,1367.36 728.463,1357.18 731.861,1345.21 735.259,1331.86 738.658,1317.62 742.056,1302.99 745.455,1288.5 748.853,1274.64 752.251,1261.93 755.65,1250.8 759.048,1241.66 762.447,1234.83 765.845,1230.56 769.243,1228.99 772.642,1230.17 776.04,1234.08 779.439,1240.57 782.837,1249.41 786.235,1260.28 789.634,1272.8 793.032,1286.52 796.431,1300.96 799.829,1315.6 803.227,1329.93 806.626,1343.42 810.024,1355.61 813.423,1366.06 816.821,1374.4 820.219,1380.33 823.618,1383.65 827.016,1384.22 830.415,1382.04 833.813,1377.18 837.211,1369.81 840.61,1360.2 844.008,1348.69 847.407,1335.68 850.805,1321.64 854.203,1307.07 857.602,1292.48 861,1278.4 864.399,1265.32 867.797,1253.71 871.195,1243.98 874.594,1236.48 877.992,1231.48 881.391,1229.15 884.789,1229.57 888.187,1232.73 891.586,1238.52 894.984,1246.73 898.383,1257.07 901.781,1269.18 905.179,1282.62 908.578,1296.91 911.976,1311.55 915.375,1326.01 918.773,1339.79 922.171,1352.38 925.57,1363.36 928.968,1372.32 932.367,1378.94 935.765,1383 939.163,1384.34 942.562,1382.92 945.96,1378.79 949.359,1372.1 952.757,1363.08 956.155,1352.05 959.554,1339.42 962.952,1325.61 966.351,1311.14 969.749,1296.5 973.147,1282.23 976.546,1268.82 979.944,1256.76 983.343,1246.47 986.741,1238.33 990.139,1232.61 993.538,1229.52 996.936,1229.17 1000.33,1231.58 1003.73,1236.66 1007.13,1244.22 1010.53,1254.01 1013.93,1265.66 1017.33,1278.78 1020.72,1292.88 1024.12,1307.47 1027.52,1322.04 1030.92,1336.06 1034.32,1349.03 1037.72,1360.5 1041.12,1370.05 1044.51,1377.35 1047.91,1382.14 1051.31,1384.24 1054.71,1383.59 1058.11,1380.2 1061.51,1374.2 1064.9,1365.8 1068.3,1355.3 1071.7,1343.06 1075.1,1329.54 1078.5,1315.2 1081.9,1300.55 1085.29,1286.13 1088.69,1272.43 1092.09,1259.95 1095.49,1249.13 1098.89,1240.36 1102.29,1233.94 1105.68,1230.1 1109.08,1228.99 1112.48,1230.64 1115.88,1234.99 1119.28,1241.89 1122.68,1251.09 1126.08,1262.26 1129.47,1275.01 1132.87,1288.89 1136.27,1303.4 1139.67,1318.03 1143.07,1332.25 1146.47,1345.56 1149.86,1357.49 1153.26,1367.61 1156.66,1375.57 1160.06,1381.07 1163.46,1383.93 1166.86,1384.05 1170.25,1381.41 1173.65,1376.12 1177.05,1368.36 1180.45,1358.41 1183.85,1346.61 1187.25,1333.4 1190.64,1319.23 1194.04,1304.62 1197.44,1290.08 1200.84,1276.13 1204.24,1263.27 1207.64,1251.95 1211.04,1242.57 1214.43,1235.47 1217.83,1230.9 1221.23,1229.02 1224.63,1229.91 1228.03,1233.52 1231.43,1239.73 1234.82,1248.32 1238.22,1258.98 1241.62,1271.34 1245.02,1284.95 1248.42,1299.34 1251.82,1313.98 1255.21,1328.37 1258.61,1341.98 1262.01,1354.34 1265.41,1365 1268.81,1373.59 1272.21,1379.8 1275.6,1383.41 1279,1384.29 1282.4,1382.42 1285.8,1377.85 1289.2,1370.75 1292.6,1361.37 1296,1350.05 1299.39,1337.18 1302.79,1323.23 1306.19,1308.7 1309.59,1294.09 1312.99,1279.92 1316.39,1266.71 1319.78,1254.91 1323.18,1244.96 1326.58,1237.2 1329.98,1231.91 1333.38,1229.27 1336.78,1229.38 1340.17,1232.25 1343.57,1237.75 1346.97,1245.71 1350.37,1255.83 1353.77,1267.76 1357.17,1281.07 1360.56,1295.29 1363.96,1309.92 1367.36,1324.43 1370.76,1338.3 1374.16,1351.06 1377.56,1362.23 1380.96,1371.43 1384.35,1378.33 1387.75,1382.68 1391.15,1384.33 1394.55,1383.21 1397.95,1379.38 1401.35,1372.96 1404.74,1364.19 1408.14,1353.37 1411.54,1340.89 1414.94,1327.19 1418.34,1312.76 1421.74,1298.12 1425.13,1283.78 1428.53,1270.25 1431.93,1258.02 1435.33,1247.52 1438.73,1239.12 1442.13,1233.12 1445.52,1229.73 1448.92,1229.08 1452.32,1231.18 1455.72,1235.97 1459.12,1243.27 1462.52,1252.82 1465.92,1264.29 1469.31,1277.26 1472.71,1291.28 1476.11,1305.84 1479.51,1320.44 1482.91,1334.54 1486.31,1347.65 1489.7,1359.31 1493.1,1369.09 1496.5,1376.66 1499.9,1381.74 1503.3,1384.15 1506.7,1383.8 1510.09,1380.71 1513.49,1374.99 1516.89,1366.84 1520.29,1356.56 1523.69,1344.5 1527.09,1331.09 1530.48,1316.82 1533.88,1302.18 1537.28,1287.7 1540.68,1273.9 1544.08,1261.26 1547.48,1250.24 1550.88,1241.22 1554.27,1234.53 1557.67,1230.4 1561.07,1228.98 1564.47,1230.32 1567.87,1234.38 1571.27,1241 1574.66,1249.96 1578.06,1260.93 1581.46,1273.53 1584.86,1287.31 1588.26,1301.77 1591.66,1316.41 1595.05,1330.7 1598.45,1344.14 1601.85,1356.24 1605.25,1366.59 1608.65,1374.8 1612.05,1380.59 1615.44,1383.75 1618.84,1384.17 1622.24,1381.84 1625.64,1376.84 1629.04,1369.34 1632.44,1359.61 1635.84,1348 1639.23,1334.92 1642.63,1320.84 1646.03,1306.25 1649.43,1291.68 1652.83,1277.64 1656.23,1264.63 1659.62,1253.12 1663.02,1243.5 1666.42,1236.14 1669.82,1231.28 1673.22,1229.1 1676.62,1229.67 1680.01,1232.98 1683.41,1238.92 1686.81,1247.25 1690.21,1257.7 1693.61,1269.9 1697.01,1283.39 1700.4,1297.72 1703.8,1312.36 1707.2,1326.8 1710.6,1340.52 1714,1353.04 1717.4,1363.91 1720.8,1372.75 1724.19,1379.24 1727.59,1383.14 1730.99,1384.33 1734.39,1382.76 1737.79,1378.48 1741.19,1371.66 1744.58,1362.52 1747.98,1351.39 1751.38,1338.68 1754.78,1324.82 1758.18,1310.32 1761.58,1295.7 1764.97,1281.46 1768.37,1268.11 1771.77,1256.14 1775.17,1245.96 1778.57,1237.94 1781.97,1232.36 1785.36,1229.43 1788.76,1229.24 1792.16,1231.8 1795.56,1237.02 1798.96,1244.71 1802.36,1254.61 1805.76,1266.36 1809.15,1279.54 1812.55,1293.68 1815.95,1308.29 1819.35,1322.84 1822.75,1336.81 1826.15,1349.71 1829.54,1361.08 1832.94,1370.52 1836.34,1377.68 1839.74,1382.33 1843.14,1384.28 1846.54,1383.47 1849.93,1379.94 1853.33,1373.8 1856.73,1365.27 1860.13,1354.66 1863.53,1342.34 1866.93,1328.76 1870.32,1314.39 1873.72,1299.74 1877.12,1285.34 1880.52,1271.7 1883.92,1259.3 1887.32,1248.59 1890.72,1239.94 1894.11,1233.66 1897.51,1229.97 1900.91,1229.01 1904.31,1230.81 1907.71,1235.31 1911.11,1242.34 1914.5,1251.66 1917.9,1262.93 1921.3,1275.76 1924.7,1289.69 1928.1,1304.22 1931.5,1318.83 1934.89,1333.01 1938.29,1346.26 1941.69,1358.1 1945.09,1368.11 1948.49,1375.94 1951.89,1381.3 1955.28,1384.01 1958.68,1383.97 1962.08,1381.19 1965.48,1375.75 1968.88,1367.86 1972.28,1357.79 1975.68,1345.91 1979.07,1332.63 1982.47,1318.43 1985.87,1303.81 1989.27,1289.29 1992.67,1275.39 1996.07,1262.6 1999.46,1251.37 2002.86,1242.11 2006.26,1235.15 2009.66,1230.72 2013.06,1229 2016.46,1230.04 2019.85,1233.8 2023.25,1240.15 2026.65,1248.86 2030.05,1259.63 2033.45,1272.07 2036.85,1285.74 2040.24,1300.15 2043.64,1314.79 2047.04,1329.15 2050.44,1342.7 2053.84,1354.98 2057.24,1365.54 2060.64,1374 2064.03,1380.07 2067.43,1383.53 2070.83,1384.26 2074.23,1382.23 2077.63,1377.52 2081.03,1370.28 2084.42,1360.79 2087.82,1349.37 2091.22,1336.43 2094.62,1322.44 2098.02,1307.88 2101.42,1293.28 2104.81,1279.16 2108.21,1266.01 2111.61,1254.31 2115.01,1244.47 2118.41,1236.84 2121.81,1231.69 2125.2,1229.2 2128.6,1229.47 2132,1232.48 2135.4,1238.13 2138.8,1246.22 2142.2,1256.45 2145.6,1268.47 2148.99,1281.84 2152.39,1296.1 2155.79,1310.73 2159.19,1325.22 2162.59,1339.05 2165.99,1351.72 2169.38,1362.8 2172.78,1371.88 2176.18,1378.64 2179.58,1382.84 2182.98,1384.34 2186.38,1383.07 2189.77,1379.09 2193.17,1372.53 2196.57,1363.64 2199.97,1352.71 2203.37,1340.15 2206.77,1326.4 2210.16,1311.95 2213.56,1297.31 2216.96,1283 2220.36,1269.54 2223.76,1257.39 2227.16,1246.99 2230.56,1238.72 2233.95,1232.86 2237.35,1229.62 2240.75,1229.12 2244.15,1231.38 2247.55,1236.31 2250.95,1243.74 2254.34,1253.41 2257.74,1264.97 2261.14,1278.02 2264.54,1292.08 2267.94,1306.66 "/>
</svg>
