<?xml version="1.0" encoding="utf-8"?>
<svg xmlns="http://www.w3.org/2000/svg" xmlns:xlink="http://www.w3.org/1999/xlink" width="600" height="400" viewBox="0 0 2400 1600">
<defs>
  <clipPath id="clip860">
    <rect x="0" y="0" width="2400" height="1600"/>
  </clipPath>
</defs>
<path clip-path="url(#clip860)" d="M0 1600 L2400 1600 L2400 0 L0 0  Z" fill="#ffffff" fill-rule="evenodd" fill-opacity="1"/>
<defs>
  <clipPath id="clip861">
    <rect x="480" y="0" width="1681" height="1600"/>
  </clipPath>
</defs>
<path clip-path="url(#clip860)" d="M147.478 623.18 L2352.76 623.18 L2352.76 123.472 L147.478 123.472  Z" fill="#ffffff" fill-rule="evenodd" fill-opacity="1"/>
<defs>
  <clipPath id="clip862">
    <rect x="147" y="123" width="2206" height="501"/>
  </clipPath>
</defs>
<polyline clip-path="url(#clip862)" style="stroke:#000000; stroke-linecap:round; stroke-linejoin:round; stroke-width:2; stroke-opacity:0.1; fill:none" points="232.296,623.18 232.296,123.472 "/>
<polyline clip-path="url(#clip862)" style="stroke:#000000; stroke-linecap:round; stroke-linejoin:round; stroke-width:2; stroke-opacity:0.1; fill:none" points="401.933,623.18 401.933,123.472 "/>
<polyline clip-path="url(#clip862)" style="stroke:#000000; stroke-linecap:round; stroke-linejoin:round; stroke-width:2; stroke-opacity:0.1; fill:none" points="571.57,623.18 571.57,123.472 "/>
<polyline clip-path="url(#clip862)" style="stroke:#000000; stroke-linecap:round; stroke-linejoin:round; stroke-width:2; stroke-opacity:0.1; fill:none" points="741.207,623.18 741.207,123.472 "/>
<polyline clip-path="url(#clip862)" style="stroke:#000000; stroke-linecap:round; stroke-linejoin:round; stroke-width:2; stroke-opacity:0.1; fill:none" points="910.843,623.18 910.843,123.472 "/>
<polyline clip-path="url(#clip862)" style="stroke:#000000; stroke-linecap:round; stroke-linejoin:round; stroke-width:2; stroke-opacity:0.1; fill:none" points="1080.48,623.18 1080.48,123.472 "/>
<polyline clip-path="url(#clip862)" style="stroke:#000000; stroke-linecap:round; stroke-linejoin:round; stroke-width:2; stroke-opacity:0.1; fill:none" points="1250.12,623.18 1250.12,123.472 "/>
<polyline clip-path="url(#clip862)" style="stroke:#000000; stroke-linecap:round; stroke-linejoin:round; stroke-width:2; stroke-opacity:0.1; fill:none" points="1419.75,623.18 1419.75,123.472 "/>
<polyline clip-path="url(#clip862)" style="stroke:#000000; stroke-linecap:round; stroke-linejoin:round; stroke-width:2; stroke-opacity:0.1; fill:none" points="1589.39,623.18 1589.39,123.472 "/>
<polyline clip-path="url(#clip862)" style="stroke:#000000; stroke-linecap:round; stroke-linejoin:round; stroke-width:2; stroke-opacity:0.1; fill:none" points="1759.03,623.18 1759.03,123.472 "/>
<polyline clip-path="url(#clip862)" style="stroke:#000000; stroke-linecap:round; stroke-linejoin:round; stroke-width:2; stroke-opacity:0.1; fill:none" points="1928.66,623.18 1928.66,123.472 "/>
<polyline clip-path="url(#clip862)" style="stroke:#000000; stroke-linecap:round; stroke-linejoin:round; stroke-width:2; stroke-opacity:0.1; fill:none" points="2098.3,623.18 2098.3,123.472 "/>
<polyline clip-path="url(#clip862)" style="stroke:#000000; stroke-linecap:round; stroke-linejoin:round; stroke-width:2; stroke-opacity:0.1; fill:none" points="2267.94,623.18 2267.94,123.472 "/>
<polyline clip-path="url(#clip860)" style="stroke:#000000; stroke-linecap:round; stroke-linejoin:round; stroke-width:4; stroke-opacity:1; fill:none" points="147.478,623.18 2352.76,623.18 "/>
<polyline clip-path="url(#clip860)" style="stroke:#000000; stroke-linecap:round; stroke-linejoin:round; stroke-width:4; stroke-opacity:1; fill:none" points="232.296,623.18 232.296,604.282 "/>
<polyline clip-path="url(#clip860)" style="stroke:#000000; stroke-linecap:round; stroke-linejoin:round; stroke-width:4; stroke-opacity:1; fill:none" points="401.933,623.18 401.933,604.282 "/>
<polyline clip-path="url(#clip860)" style="stroke:#000000; stroke-linecap:round; stroke-linejoin:round; stroke-width:4; stroke-opacity:1; fill:none" points="571.57,623.18 571.57,604.282 "/>
<polyline clip-path="url(#clip860)" style="stroke:#000000; stroke-linecap:round; stroke-linejoin:round; stroke-width:4; stroke-opacity:1; fill:none" points="741.207,623.18 741.207,604.282 "/>
<polyline clip-path="url(#clip860)" style="stroke:#000000; stroke-linecap:round; stroke-linejoin:round; stroke-width:4; stroke-opacity:1; fill:none" points="910.843,623.18 910.843,604.282 "/>
<polyline clip-path="url(#clip860)" style="stroke:#000000; stroke-linecap:round; stroke-linejoin:round; stroke-width:4; stroke-opacity:1; fill:none" points="1080.48,623.18 1080.48,604.282 "/>
<polyline clip-path="url(#clip860)" style="stroke:#000000; stroke-linecap:round; stroke-linejoin:round; stroke-width:4; stroke-opacity:1; fill:none" points="1250.12,623.18 1250.12,604.282 "/>
<polyline clip-path="url(#clip860)" style="stroke:#000000; stroke-linecap:round; stroke-linejoin:round; stroke-width:4; stroke-opacity:1; fill:none" points="1419.75,623.18 1419.75,604.282 "/>
<polyline clip-path="url(#clip860)" style="stroke:#000000; stroke-linecap:round; stroke-linejoin:round; stroke-width:4; stroke-opacity:1; fill:none" points="1589.39,623.18 1589.39,604.282 "/>
<polyline clip-path="url(#clip860)" style="stroke:#000000; stroke-linecap:round; stroke-linejoin:round; stroke-width:4; stroke-opacity:1; fill:none" points="1759.03,623.18 1759.03,604.282 "/>
<polyline clip-path="url(#clip860)" style="stroke:#000000; stroke-linecap:round; stroke-linejoin:round; stroke-width:4; stroke-opacity:1; fill:none" points="1928.66,623.18 1928.66,604.282 "/>
<polyline clip-path="url(#clip860)" style="stroke:#000000; stroke-linecap:round; stroke-linejoin:round; stroke-width:4; stroke-opacity:1; fill:none" points="2098.3,623.18 2098.3,604.282 "/>
<polyline clip-path="url(#clip860)" style="stroke:#000000; stroke-linecap:round; stroke-linejoin:round; stroke-width:4; stroke-opacity:1; fill:none" points="2267.94,623.18 2267.94,604.282 "/>
<path clip-path="url(#clip860)" d="M232.296 654.099 Q228.685 654.099 226.857 657.663 Q225.051 661.205 225.051 668.335 Q225.051 675.441 226.857 679.006 Q228.685 682.547 232.296 682.547 Q235.931 682.547 237.736 679.006 Q239.565 675.441 239.565 668.335 Q239.565 661.205 237.736 657.663 Q235.931 654.099 232.296 654.099 M232.296 650.395 Q238.106 650.395 241.162 655.001 Q244.241 659.585 244.241 668.335 Q244.241 677.061 241.162 681.668 Q238.106 686.251 232.296 686.251 Q226.486 686.251 223.407 681.668 Q220.352 677.061 220.352 668.335 Q220.352 659.585 223.407 655.001 Q226.486 650.395 232.296 650.395 Z" fill="#000000" fill-rule="nonzero" fill-opacity="1" /><path clip-path="url(#clip860)" d="M392.315 681.645 L399.954 681.645 L399.954 655.279 L391.644 656.946 L391.644 652.687 L399.908 651.02 L404.584 651.02 L404.584 681.645 L412.222 681.645 L412.222 685.58 L392.315 685.58 L392.315 681.645 Z" fill="#000000" fill-rule="nonzero" fill-opacity="1" /><path clip-path="url(#clip860)" d="M566.223 681.645 L582.542 681.645 L582.542 685.58 L560.598 685.58 L560.598 681.645 Q563.26 678.89 567.843 674.26 Q572.449 669.608 573.63 668.265 Q575.875 665.742 576.755 664.006 Q577.658 662.247 577.658 660.557 Q577.658 657.802 575.713 656.066 Q573.792 654.33 570.69 654.33 Q568.491 654.33 566.037 655.094 Q563.607 655.858 560.829 657.409 L560.829 652.687 Q563.653 651.552 566.107 650.974 Q568.561 650.395 570.598 650.395 Q575.968 650.395 579.162 653.08 Q582.357 655.765 582.357 660.256 Q582.357 662.386 581.547 664.307 Q580.76 666.205 578.653 668.798 Q578.074 669.469 574.973 672.686 Q571.871 675.881 566.223 681.645 Z" fill="#000000" fill-rule="nonzero" fill-opacity="1" /><path clip-path="url(#clip860)" d="M745.454 666.946 Q748.811 667.663 750.686 669.932 Q752.584 672.2 752.584 675.534 Q752.584 680.649 749.065 683.45 Q745.547 686.251 739.065 686.251 Q736.889 686.251 734.575 685.811 Q732.283 685.395 729.829 684.538 L729.829 680.024 Q731.774 681.159 734.089 681.737 Q736.403 682.316 738.927 682.316 Q743.325 682.316 745.616 680.58 Q747.931 678.844 747.931 675.534 Q747.931 672.478 745.778 670.765 Q743.649 669.029 739.829 669.029 L735.802 669.029 L735.802 665.186 L740.014 665.186 Q743.464 665.186 745.292 663.821 Q747.121 662.432 747.121 659.839 Q747.121 657.177 745.223 655.765 Q743.348 654.33 739.829 654.33 Q737.908 654.33 735.709 654.747 Q733.51 655.163 730.871 656.043 L730.871 651.876 Q733.533 651.136 735.848 650.765 Q738.186 650.395 740.246 650.395 Q745.57 650.395 748.672 652.825 Q751.774 655.233 751.774 659.353 Q751.774 662.223 750.13 664.214 Q748.487 666.182 745.454 666.946 Z" fill="#000000" fill-rule="nonzero" fill-opacity="1" /><path clip-path="url(#clip860)" d="M913.853 655.094 L902.047 673.543 L913.853 673.543 L913.853 655.094 M912.626 651.02 L918.505 651.02 L918.505 673.543 L923.436 673.543 L923.436 677.432 L918.505 677.432 L918.505 685.58 L913.853 685.58 L913.853 677.432 L898.251 677.432 L898.251 672.918 L912.626 651.02 Z" fill="#000000" fill-rule="nonzero" fill-opacity="1" /><path clip-path="url(#clip860)" d="M1070.76 651.02 L1089.11 651.02 L1089.11 654.955 L1075.04 654.955 L1075.04 663.427 Q1076.06 663.08 1077.08 662.918 Q1078.1 662.733 1079.11 662.733 Q1084.9 662.733 1088.28 665.904 Q1091.66 669.075 1091.66 674.492 Q1091.66 680.071 1088.19 683.172 Q1084.72 686.251 1078.4 686.251 Q1076.22 686.251 1073.95 685.881 Q1071.71 685.51 1069.3 684.77 L1069.3 680.071 Q1071.38 681.205 1073.61 681.76 Q1075.83 682.316 1078.3 682.316 Q1082.31 682.316 1084.65 680.21 Q1086.98 678.103 1086.98 674.492 Q1086.98 670.881 1084.65 668.774 Q1082.31 666.668 1078.3 666.668 Q1076.43 666.668 1074.55 667.085 Q1072.7 667.501 1070.76 668.381 L1070.76 651.02 Z" fill="#000000" fill-rule="nonzero" fill-opacity="1" /><path clip-path="url(#clip860)" d="M1250.52 666.436 Q1247.37 666.436 1245.52 668.589 Q1243.69 670.742 1243.69 674.492 Q1243.69 678.219 1245.52 680.395 Q1247.37 682.547 1250.52 682.547 Q1253.67 682.547 1255.5 680.395 Q1257.35 678.219 1257.35 674.492 Q1257.35 670.742 1255.5 668.589 Q1253.67 666.436 1250.52 666.436 M1259.8 651.784 L1259.8 656.043 Q1258.05 655.21 1256.24 654.77 Q1254.46 654.33 1252.7 654.33 Q1248.07 654.33 1245.61 657.455 Q1243.18 660.58 1242.84 666.899 Q1244.2 664.886 1246.26 663.821 Q1248.32 662.733 1250.8 662.733 Q1256.01 662.733 1259.02 665.904 Q1262.05 669.052 1262.05 674.492 Q1262.05 679.816 1258.9 683.034 Q1255.75 686.251 1250.52 686.251 Q1244.53 686.251 1241.36 681.668 Q1238.18 677.061 1238.18 668.335 Q1238.18 660.14 1242.07 655.279 Q1245.96 650.395 1252.51 650.395 Q1254.27 650.395 1256.05 650.742 Q1257.86 651.089 1259.8 651.784 Z" fill="#000000" fill-rule="nonzero" fill-opacity="1" /><path clip-path="url(#clip860)" d="M1408.64 651.02 L1430.86 651.02 L1430.86 653.011 L1418.32 685.58 L1413.43 685.58 L1425.24 654.955 L1408.64 654.955 L1408.64 651.02 Z" fill="#000000" fill-rule="nonzero" fill-opacity="1" /><path clip-path="url(#clip860)" d="M1589.39 669.168 Q1586.06 669.168 1584.14 670.95 Q1582.24 672.733 1582.24 675.858 Q1582.24 678.983 1584.14 680.765 Q1586.06 682.547 1589.39 682.547 Q1592.72 682.547 1594.65 680.765 Q1596.57 678.96 1596.57 675.858 Q1596.57 672.733 1594.65 670.95 Q1592.75 669.168 1589.39 669.168 M1584.71 667.177 Q1581.71 666.436 1580.02 664.376 Q1578.35 662.316 1578.35 659.353 Q1578.35 655.21 1581.29 652.802 Q1584.25 650.395 1589.39 650.395 Q1594.55 650.395 1597.49 652.802 Q1600.43 655.21 1600.43 659.353 Q1600.43 662.316 1598.74 664.376 Q1597.08 666.436 1594.09 667.177 Q1597.47 667.964 1599.34 670.256 Q1601.24 672.548 1601.24 675.858 Q1601.24 680.881 1598.16 683.566 Q1595.11 686.251 1589.39 686.251 Q1583.67 686.251 1580.59 683.566 Q1577.54 680.881 1577.54 675.858 Q1577.54 672.548 1579.44 670.256 Q1581.33 667.964 1584.71 667.177 M1583 659.793 Q1583 662.478 1584.67 663.983 Q1586.36 665.487 1589.39 665.487 Q1592.4 665.487 1594.09 663.983 Q1595.8 662.478 1595.8 659.793 Q1595.8 657.108 1594.09 655.603 Q1592.4 654.099 1589.39 654.099 Q1586.36 654.099 1584.67 655.603 Q1583 657.108 1583 659.793 Z" fill="#000000" fill-rule="nonzero" fill-opacity="1" /><path clip-path="url(#clip860)" d="M1749.33 684.862 L1749.33 680.603 Q1751.09 681.436 1752.89 681.876 Q1754.7 682.316 1756.43 682.316 Q1761.06 682.316 1763.49 679.214 Q1765.95 676.089 1766.3 669.747 Q1764.95 671.737 1762.89 672.802 Q1760.83 673.867 1758.33 673.867 Q1753.15 673.867 1750.12 670.742 Q1747.11 667.594 1747.11 662.154 Q1747.11 656.83 1750.25 653.612 Q1753.4 650.395 1758.63 650.395 Q1764.63 650.395 1767.78 655.001 Q1770.95 659.585 1770.95 668.335 Q1770.95 676.506 1767.06 681.39 Q1763.19 686.251 1756.64 686.251 Q1754.88 686.251 1753.08 685.904 Q1751.27 685.557 1749.33 684.862 M1758.63 670.21 Q1761.78 670.21 1763.61 668.057 Q1765.46 665.904 1765.46 662.154 Q1765.46 658.427 1763.61 656.274 Q1761.78 654.099 1758.63 654.099 Q1755.49 654.099 1753.63 656.274 Q1751.81 658.427 1751.81 662.154 Q1751.81 665.904 1753.63 668.057 Q1755.49 670.21 1758.63 670.21 Z" fill="#000000" fill-rule="nonzero" fill-opacity="1" /><path clip-path="url(#clip860)" d="M1903.35 681.645 L1910.99 681.645 L1910.99 655.279 L1902.68 656.946 L1902.68 652.687 L1910.94 651.02 L1915.62 651.02 L1915.62 681.645 L1923.26 681.645 L1923.26 685.58 L1903.35 685.58 L1903.35 681.645 Z" fill="#000000" fill-rule="nonzero" fill-opacity="1" /><path clip-path="url(#clip860)" d="M1942.7 654.099 Q1939.09 654.099 1937.26 657.663 Q1935.46 661.205 1935.46 668.335 Q1935.46 675.441 1937.26 679.006 Q1939.09 682.547 1942.7 682.547 Q1946.34 682.547 1948.14 679.006 Q1949.97 675.441 1949.97 668.335 Q1949.97 661.205 1948.14 657.663 Q1946.34 654.099 1942.7 654.099 M1942.7 650.395 Q1948.51 650.395 1951.57 655.001 Q1954.65 659.585 1954.65 668.335 Q1954.65 677.061 1951.57 681.668 Q1948.51 686.251 1942.7 686.251 Q1936.89 686.251 1933.81 681.668 Q1930.76 677.061 1930.76 668.335 Q1930.76 659.585 1933.81 655.001 Q1936.89 650.395 1942.7 650.395 Z" fill="#000000" fill-rule="nonzero" fill-opacity="1" /><path clip-path="url(#clip860)" d="M2073.6 681.645 L2081.24 681.645 L2081.24 655.279 L2072.93 656.946 L2072.93 652.687 L2081.19 651.02 L2085.87 651.02 L2085.87 681.645 L2093.51 681.645 L2093.51 685.58 L2073.6 685.58 L2073.6 681.645 Z" fill="#000000" fill-rule="nonzero" fill-opacity="1" /><path clip-path="url(#clip860)" d="M2103.76 681.645 L2111.4 681.645 L2111.4 655.279 L2103.09 656.946 L2103.09 652.687 L2111.36 651.02 L2116.03 651.02 L2116.03 681.645 L2123.67 681.645 L2123.67 685.58 L2103.76 685.58 L2103.76 681.645 Z" fill="#000000" fill-rule="nonzero" fill-opacity="1" /><path clip-path="url(#clip860)" d="M2243.42 681.645 L2251.06 681.645 L2251.06 655.279 L2242.75 656.946 L2242.75 652.687 L2251.02 651.02 L2255.69 651.02 L2255.69 681.645 L2263.33 681.645 L2263.33 685.58 L2243.42 685.58 L2243.42 681.645 Z" fill="#000000" fill-rule="nonzero" fill-opacity="1" /><path clip-path="url(#clip860)" d="M2276.8 681.645 L2293.12 681.645 L2293.12 685.58 L2271.18 685.58 L2271.18 681.645 Q2273.84 678.89 2278.42 674.26 Q2283.03 669.608 2284.21 668.265 Q2286.46 665.742 2287.34 664.006 Q2288.24 662.247 2288.24 660.557 Q2288.24 657.802 2286.29 656.066 Q2284.37 654.33 2281.27 654.33 Q2279.07 654.33 2276.62 655.094 Q2274.19 655.858 2271.41 657.409 L2271.41 652.687 Q2274.23 651.552 2276.69 650.974 Q2279.14 650.395 2281.18 650.395 Q2286.55 650.395 2289.74 653.08 Q2292.94 655.765 2292.94 660.256 Q2292.94 662.386 2292.13 664.307 Q2291.34 666.205 2289.23 668.798 Q2288.66 669.469 2285.55 672.686 Q2282.45 675.881 2276.8 681.645 Z" fill="#000000" fill-rule="nonzero" fill-opacity="1" /><path clip-path="url(#clip860)" d="M1258.59 731.913 Q1258.59 732.815 1258.17 733.04 Q1257.75 733.233 1256.59 733.233 L1250.41 733.233 L1245.51 752.686 Q1245.13 754.393 1245.13 755.842 Q1245.13 757.452 1245.61 758.161 Q1246.12 758.869 1247.19 758.869 Q1249.28 758.869 1251.53 756.969 Q1253.82 755.069 1255.75 750.431 Q1256.01 749.819 1256.14 749.691 Q1256.3 749.53 1256.72 749.53 Q1257.53 749.53 1257.53 750.174 Q1257.53 750.399 1257.07 751.43 Q1256.66 752.46 1255.72 753.974 Q1254.82 755.488 1253.63 756.905 Q1252.47 758.322 1250.7 759.352 Q1248.93 760.351 1247.03 760.351 Q1244.35 760.351 1242.65 758.644 Q1240.97 756.937 1240.97 754.264 Q1240.97 753.394 1241.65 750.625 Q1242.32 747.823 1246 733.233 L1240.17 733.233 Q1239.36 733.233 1239.04 733.201 Q1238.75 733.169 1238.52 733.008 Q1238.33 732.815 1238.33 732.428 Q1238.33 731.816 1238.59 731.559 Q1238.85 731.269 1239.17 731.237 Q1239.52 731.172 1240.33 731.172 L1246.51 731.172 L1249.09 720.705 Q1249.34 719.675 1249.99 719.095 Q1250.67 718.483 1251.05 718.419 Q1251.44 718.322 1251.73 718.322 Q1252.6 718.322 1253.11 718.805 Q1253.63 719.256 1253.63 720.093 Q1253.63 720.544 1250.92 731.172 L1256.72 731.172 Q1257.46 731.172 1257.75 731.204 Q1258.07 731.237 1258.33 731.398 Q1258.59 731.559 1258.59 731.913 Z" fill="#000000" fill-rule="nonzero" fill-opacity="1" /><polyline clip-path="url(#clip862)" style="stroke:#000000; stroke-linecap:round; stroke-linejoin:round; stroke-width:2; stroke-opacity:0.1; fill:none" points="147.478,539.895 2352.76,539.895 "/>
<polyline clip-path="url(#clip862)" style="stroke:#000000; stroke-linecap:round; stroke-linejoin:round; stroke-width:2; stroke-opacity:0.1; fill:none" points="147.478,373.326 2352.76,373.326 "/>
<polyline clip-path="url(#clip862)" style="stroke:#000000; stroke-linecap:round; stroke-linejoin:round; stroke-width:2; stroke-opacity:0.1; fill:none" points="147.478,206.757 2352.76,206.757 "/>
<polyline clip-path="url(#clip860)" style="stroke:#000000; stroke-linecap:round; stroke-linejoin:round; stroke-width:4; stroke-opacity:1; fill:none" points="147.478,623.18 147.478,123.472 "/>
<polyline clip-path="url(#clip860)" style="stroke:#000000; stroke-linecap:round; stroke-linejoin:round; stroke-width:4; stroke-opacity:1; fill:none" points="147.478,539.895 166.376,539.895 "/>
<polyline clip-path="url(#clip860)" style="stroke:#000000; stroke-linecap:round; stroke-linejoin:round; stroke-width:4; stroke-opacity:1; fill:none" points="147.478,373.326 166.376,373.326 "/>
<polyline clip-path="url(#clip860)" style="stroke:#000000; stroke-linecap:round; stroke-linejoin:round; stroke-width:4; stroke-opacity:1; fill:none" points="147.478,206.757 166.376,206.757 "/>
<path clip-path="url(#clip860)" d="M50.9921 540.347 L80.6679 540.347 L80.6679 544.282 L50.9921 544.282 L50.9921 540.347 Z" fill="#000000" fill-rule="nonzero" fill-opacity="1" /><path clip-path="url(#clip860)" d="M91.5706 553.24 L99.2095 553.24 L99.2095 526.874 L90.8993 528.541 L90.8993 524.282 L99.1632 522.615 L103.839 522.615 L103.839 553.24 L111.478 553.24 L111.478 557.175 L91.5706 557.175 L91.5706 553.24 Z" fill="#000000" fill-rule="nonzero" fill-opacity="1" /><path clip-path="url(#clip860)" d="M99.5335 359.125 Q95.9224 359.125 94.0937 362.689 Q92.2882 366.231 92.2882 373.361 Q92.2882 380.467 94.0937 384.032 Q95.9224 387.574 99.5335 387.574 Q103.168 387.574 104.973 384.032 Q106.802 380.467 106.802 373.361 Q106.802 366.231 104.973 362.689 Q103.168 359.125 99.5335 359.125 M99.5335 355.421 Q105.344 355.421 108.399 360.027 Q111.478 364.611 111.478 373.361 Q111.478 382.088 108.399 386.694 Q105.344 391.277 99.5335 391.277 Q93.7234 391.277 90.6447 386.694 Q87.5892 382.088 87.5892 373.361 Q87.5892 364.611 90.6447 360.027 Q93.7234 355.421 99.5335 355.421 Z" fill="#000000" fill-rule="nonzero" fill-opacity="1" /><path clip-path="url(#clip860)" d="M91.5706 220.102 L99.2095 220.102 L99.2095 193.736 L90.8993 195.403 L90.8993 191.143 L99.1632 189.477 L103.839 189.477 L103.839 220.102 L111.478 220.102 L111.478 224.037 L91.5706 224.037 L91.5706 220.102 Z" fill="#000000" fill-rule="nonzero" fill-opacity="1" /><path clip-path="url(#clip860)" d="M1201.73 12.0602 L1197.18 30.4234 Q1196.93 31.5301 1196.73 31.817 Q1196.52 32.104 1195.95 32.104 Q1195.5 32.104 1195.21 31.899 Q1194.96 31.6941 1194.96 31.4891 L1194.92 31.2842 Q1194.92 31.1612 1195.01 30.5464 Q1195.09 29.8905 1195.17 28.8248 Q1195.25 27.7591 1195.25 26.5704 Q1195.25 19.8482 1191.97 16.733 Q1188.73 13.5768 1183.16 13.5768 Q1179.31 13.5768 1175.86 15.6263 Q1172.42 17.6757 1170.45 20.9139 Q1168.49 24.111 1168.49 27.4722 Q1168.49 30.5464 1170.04 32.5138 Q1171.6 34.4813 1173.61 35.1372 L1179.22 36.6538 Q1185.13 38.1704 1186.81 38.8262 Q1188.49 39.441 1189.88 40.8347 Q1194.02 44.6877 1194.02 50.6721 Q1194.02 55.8367 1191.11 60.8374 Q1188.2 65.7971 1183.2 69.0353 Q1178.2 72.2325 1172.67 72.2325 Q1162.95 72.2325 1158.48 66.207 L1154.39 70.9618 Q1153.61 71.8636 1153.36 72.0275 Q1153.16 72.2325 1152.87 72.2325 Q1152.5 72.2325 1152.21 71.9865 Q1151.93 71.7816 1151.93 71.4127 Q1151.93 71.1257 1154.34 61.4933 Q1156.76 51.8608 1156.97 51.6558 Q1157.3 51.3279 1157.83 51.3279 Q1158.81 51.3279 1158.81 52.2707 Q1158.73 52.5166 1158.65 52.8445 Q1158.16 55.7958 1158.16 57.3943 Q1158.16 60.3866 1159.18 62.682 Q1160.21 64.9364 1161.72 66.248 Q1163.28 67.5187 1165.37 68.3385 Q1167.46 69.1173 1169.22 69.4042 Q1170.99 69.6501 1172.83 69.6501 Q1176.81 69.6501 1180.33 67.3547 Q1183.9 65.0593 1185.91 61.4933 Q1187.96 57.9272 1187.96 54.1972 Q1187.96 52.2297 1187.42 50.7131 Q1186.89 49.1555 1186.15 48.2947 Q1185.45 47.4339 1184.27 46.7781 Q1183.08 46.1223 1182.26 45.8763 Q1181.48 45.5894 1180.25 45.3025 L1171.27 42.9251 Q1167.67 41.8594 1165.08 38.7852 Q1162.54 35.711 1162.54 30.9972 Q1162.54 26.0375 1165.45 21.4467 Q1168.4 16.815 1173.2 14.0277 Q1178.04 11.1994 1183.24 11.1994 Q1187.34 11.1994 1190.5 12.798 Q1193.65 14.3556 1195.25 17.2658 L1199.31 12.4701 Q1200.13 11.5273 1200.29 11.3634 Q1200.5 11.1994 1200.78 11.1994 Q1201.28 11.1994 1201.48 11.4863 Q1201.73 11.7733 1201.73 12.0602 Z" fill="#000000" fill-rule="nonzero" fill-opacity="1" /><path clip-path="url(#clip860)" d="M1210.2 76.68 Q1210.2 68.0435 1212.38 63.338 Q1215.42 56.337 1222.59 56.337 Q1224.11 56.337 1225.69 56.7674 Q1227.3 57.1691 1229.31 58.7472 Q1231.34 60.3253 1232.58 62.9076 Q1234.93 67.9001 1234.93 76.68 Q1234.93 85.259 1232.75 89.9359 Q1229.57 96.7647 1222.54 96.7647 Q1219.9 96.7647 1217.2 95.4162 Q1214.53 94.0676 1212.84 90.8254 Q1210.2 85.9763 1210.2 76.68 M1215.08 75.9627 Q1215.08 84.8286 1215.71 88.3578 Q1216.42 92.1739 1218.38 93.8381 Q1220.36 95.4736 1222.54 95.4736 Q1224.89 95.4736 1226.84 93.7233 Q1228.82 91.9444 1229.42 88.1283 Q1230.08 84.3696 1230.05 75.9627 Q1230.05 67.7853 1229.48 64.5144 Q1228.7 60.6983 1226.64 59.1776 Q1224.6 57.6282 1222.54 57.6282 Q1221.76 57.6282 1220.93 57.8577 Q1220.13 58.0872 1218.95 58.7472 Q1217.77 59.4071 1216.85 61.0426 Q1215.97 62.678 1215.53 65.1456 Q1215.08 68.3305 1215.08 75.9627 Z" fill="#000000" fill-rule="nonzero" fill-opacity="1" /><path clip-path="url(#clip860)" d="M1304.54 12.0602 L1299.99 30.4234 Q1299.74 31.5301 1299.54 31.817 Q1299.33 32.104 1298.76 32.104 Q1298.31 32.104 1298.02 31.899 Q1297.78 31.6941 1297.78 31.4891 L1297.74 31.2842 Q1297.74 31.1612 1297.82 30.5464 Q1297.9 29.8905 1297.98 28.8248 Q1298.06 27.7591 1298.06 26.5704 Q1298.06 19.8482 1294.78 16.733 Q1291.55 13.5768 1285.97 13.5768 Q1282.12 13.5768 1278.68 15.6263 Q1275.23 17.6757 1273.27 20.9139 Q1271.3 24.111 1271.3 27.4722 Q1271.3 30.5464 1272.86 32.5138 Q1274.41 34.4813 1276.42 35.1372 L1282.04 36.6538 Q1287.94 38.1704 1289.62 38.8262 Q1291.3 39.441 1292.69 40.8347 Q1296.83 44.6877 1296.83 50.6721 Q1296.83 55.8367 1293.92 60.8374 Q1291.01 65.7971 1286.01 69.0353 Q1281.01 72.2325 1275.48 72.2325 Q1265.76 72.2325 1261.3 66.207 L1257.2 70.9618 Q1256.42 71.8636 1256.17 72.0275 Q1255.97 72.2325 1255.68 72.2325 Q1255.31 72.2325 1255.03 71.9865 Q1254.74 71.7816 1254.74 71.4127 Q1254.74 71.1257 1257.16 61.4933 Q1259.57 51.8608 1259.78 51.6558 Q1260.11 51.3279 1260.64 51.3279 Q1261.62 51.3279 1261.62 52.2707 Q1261.54 52.5166 1261.46 52.8445 Q1260.97 55.7958 1260.97 57.3943 Q1260.97 60.3866 1261.99 62.682 Q1263.02 64.9364 1264.53 66.248 Q1266.09 67.5187 1268.18 68.3385 Q1270.27 69.1173 1272.04 69.4042 Q1273.8 69.6501 1275.64 69.6501 Q1279.62 69.6501 1283.14 67.3547 Q1286.71 65.0593 1288.72 61.4933 Q1290.77 57.9272 1290.77 54.1972 Q1290.77 52.2297 1290.23 50.7131 Q1289.7 49.1555 1288.96 48.2947 Q1288.27 47.4339 1287.08 46.7781 Q1285.89 46.1223 1285.07 45.8763 Q1284.29 45.5894 1283.06 45.3025 L1274.09 42.9251 Q1270.48 41.8594 1267.9 38.7852 Q1265.35 35.711 1265.35 30.9972 Q1265.35 26.0375 1268.26 21.4467 Q1271.22 16.815 1276.01 14.0277 Q1280.85 11.1994 1286.05 11.1994 Q1290.15 11.1994 1293.31 12.798 Q1296.47 14.3556 1298.06 17.2658 L1302.12 12.4701 Q1302.94 11.5273 1303.11 11.3634 Q1303.31 11.1994 1303.6 11.1994 Q1304.09 11.1994 1304.29 11.4863 Q1304.54 11.7733 1304.54 12.0602 Z" fill="#000000" fill-rule="nonzero" fill-opacity="1" /><path clip-path="url(#clip860)" d="M1339.61 74.1794 Q1339.61 75.8149 1338.6 76.7905 Q1337.63 77.766 1336.4 77.766 Q1335.3 77.766 1334.73 77.1348 Q1334.16 76.5035 1334.16 75.7001 Q1334.16 75.3558 1334.3 74.9254 Q1334.44 74.4664 1334.76 73.9212 Q1335.1 73.376 1335.82 72.9744 Q1336.54 72.5727 1337.51 72.5153 Q1337.31 72.3144 1337.26 72.2857 Q1336.83 71.9414 1336.02 71.8267 Q1335.91 71.7693 1335.51 71.7693 Q1333.53 71.7693 1331.52 73.2326 Q1329.54 74.6672 1327.1 77.393 Q1324.03 80.5779 1322.05 81.7543 Q1330.74 82.902 1330.74 87.9231 Q1330.74 88.7552 1330.51 89.7595 Q1330.05 91.6532 1330.05 93.0304 Q1330.05 95.7849 1331.92 95.7849 Q1333.73 95.7849 1334.87 93.9486 Q1336.05 92.1122 1337.03 88.5257 Q1337.17 87.8658 1337.31 87.6649 Q1337.46 87.4641 1337.86 87.4641 Q1338.58 87.4641 1338.58 88.0379 Q1337.92 91.3949 1336.45 93.9773 Q1334.59 97.1047 1331.8 97.1047 Q1329.48 97.1047 1327.93 95.498 Q1326.41 93.8625 1326.41 91.2802 Q1326.41 90.6489 1326.64 89.2143 Q1326.81 88.6405 1326.81 87.9805 Q1326.81 86.632 1326.07 85.6277 Q1325.32 84.5948 1324.11 84.0783 Q1322.91 83.5619 1321.91 83.3323 Q1320.93 83.0741 1319.98 82.988 Q1317.11 95.125 1316.71 95.871 Q1316.45 96.3874 1315.88 96.7317 Q1315.31 97.1047 1314.7 97.1047 Q1314.13 97.1047 1313.56 96.703 Q1313.01 96.33 1313.01 95.4406 Q1313.01 94.9815 1313.24 94.1494 L1321.76 60.2923 L1321.93 59.1446 Q1321.93 58.8003 1321.79 58.6281 Q1321.68 58.4273 1320.99 58.2838 Q1320.33 58.1403 1319.01 58.1403 Q1318.46 58.1403 1318.2 58.1116 Q1317.97 58.0829 1317.77 57.9395 Q1317.57 57.7673 1317.57 57.423 Q1317.57 56.9352 1317.77 56.677 Q1318 56.3901 1318.18 56.3327 Q1318.35 56.2753 1318.69 56.2466 Q1319.18 56.2179 1320.82 56.0745 Q1322.45 55.9023 1323.86 55.7875 Q1325.26 55.6728 1325.86 55.6728 Q1326.21 55.6728 1326.38 55.8449 Q1326.58 55.9884 1326.61 56.1606 L1326.64 56.304 L1320.53 81.0943 Q1323.05 80.0901 1327.04 75.6428 Q1331.66 70.4781 1335.62 70.4781 Q1337.49 70.4781 1338.55 71.6258 Q1339.61 72.7448 1339.61 74.1794 Z" fill="#000000" fill-rule="nonzero" fill-opacity="1" /><polyline clip-path="url(#clip862)" style="stroke:#009af9; stroke-linecap:round; stroke-linejoin:round; stroke-width:8; stroke-opacity:1; fill:none" points="232.296,373.326 235.695,367.35 239.093,350.279 242.491,324.563 245.89,293.895 249.288,262.676 252.687,235.387 256.085,215.946 259.483,207.145 262.882,210.248 266.28,224.81 269.679,248.743 273.077,278.613 276.475,310.136 279.874,338.788 283.272,360.46 286.671,372.042 290.069,371.875 293.467,359.985 296.866,338.082 300.264,309.311 303.663,277.806 307.061,248.091 310.459,224.433 313.858,210.233 317.256,207.532 320.655,216.72 324.053,236.483 327.451,263.989 330.85,295.293 334.248,325.908 337.647,351.442 341.045,368.237 344.443,373.885 347.842,367.582 351.24,350.237 354.639,324.344 358.037,293.626 361.435,262.496 364.834,235.428 368.232,216.313 371.631,207.9 375.029,211.402 378.427,226.324 381.826,250.53 385.224,280.552 388.623,312.087 392.021,340.617 395.419,362.053 398.818,373.326 402.216,373.326 405.615,379.794 409.013,397.285 412.411,423.289 415.81,454.075 419.208,485.223 422.607,512.264 426.005,531.316 429.403,539.644 432.802,536.053 436.2,521.057 439.599,496.807 442.997,466.785 446.395,435.296 449.794,406.861 453.192,385.558 456.591,374.443 459.989,375.111 463.387,387.464 466.786,409.726 470.184,438.701 473.583,470.227 476.981,499.777 480.379,523.108 483.778,536.868 487.176,539.079 490.575,529.422 493.973,509.278 497.371,481.536 500.77,450.175 504.168,419.691 507.567,394.456 510.965,378.089 514.363,372.934 517.762,379.727 521.16,397.489 524.559,423.666 527.957,454.497 531.355,485.55 534.754,512.365 538.152,531.088 541.551,539.027 544.949,535.035 548.347,519.682 551.746,495.165 555.144,464.997 558.543,433.501 561.941,405.193 565.339,384.129 568.738,373.326 572.136,373.326 575.535,380.283 578.933,398.19 582.331,424.477 585.73,455.372 589.128,486.443 592.527,513.229 595.925,531.888 599.323,539.74 602.722,535.661 606.12,520.234 609.519,495.675 612.917,465.507 616.315,434.061 619.714,405.849 623.112,384.92 626.511,374.276 629.909,375.445 633.307,388.257 636.706,410.873 640.104,440.045 643.503,471.584 646.901,500.962 650.299,523.96 653.698,537.277 657.096,538.997 660.495,528.873 663.893,508.354 667.291,480.383 670.69,448.972 674.088,418.626 677.487,393.698 680.885,377.762 684.283,373.102 687.682,380.384 691.08,398.558 694.479,425.013 697.877,455.947 701.275,486.916 704.674,513.472 708.072,531.798 711.471,539.26 714.869,534.781 718.267,519.001 721.666,494.178 725.064,463.87 728.463,432.422 731.861,404.343 735.259,383.656 738.658,373.326 742.056,373.326 745.455,380.771 748.853,399.089 752.251,425.652 755.65,456.65 759.048,487.634 762.447,514.159 765.845,532.42 769.243,539.795 772.642,535.229 776.04,519.376 779.439,494.512 782.837,464.207 786.235,432.811 789.634,404.83 793.032,384.279 796.431,374.109 799.829,375.778 803.227,389.047 806.626,412.011 810.024,441.372 813.423,472.916 816.821,502.115 820.219,524.776 823.618,537.645 827.016,538.874 830.415,528.285 833.813,507.396 837.211,479.203 840.61,447.75 844.008,417.55 847.407,392.934 850.805,377.434 854.203,373.27 857.602,381.038 861,399.621 864.399,426.346 867.797,457.377 871.195,488.255 874.594,514.544 877.992,532.469 881.391,539.452 884.789,534.487 888.187,518.283 891.586,493.16 894.984,462.721 898.383,431.329 901.781,403.485 905.179,383.181 908.578,373.326 911.976,373.326 915.375,365.394 918.773,346.67 922.171,319.837 925.57,288.746 928.968,257.855 932.367,231.597 935.765,213.74 939.163,206.843 942.562,211.896 945.96,228.171 949.359,253.332 952.757,283.767 956.155,315.106 959.554,342.849 962.952,363.016 966.351,372.711 969.749,370.541 973.147,356.819 976.546,333.513 979.944,303.969 983.343,272.428 986.741,243.416 990.139,221.099 993.538,208.68 996.936,207.942 1000.33,218.993 1003.73,240.247 1007.13,268.655 1010.53,300.142 1013.93,330.189 1017.33,354.486 1020.72,369.548 1024.12,373.214 1027.52,364.961 1030.92,345.976 1034.32,318.985 1037.72,287.866 1041.12,257.088 1044.51,231.07 1047.91,213.552 1051.31,207.049 1054.71,212.499 1058.11,229.123 1061.51,254.539 1064.9,285.102 1068.3,316.431 1071.7,344.032 1075.1,363.948 1078.5,373.326 1081.9,373.326 1085.29,381.742 1088.69,400.868 1092.09,427.964 1095.49,459.142 1098.89,489.931 1102.29,515.915 1105.68,533.366 1109.08,539.782 1112.48,534.244 1115.88,517.55 1119.28,492.097 1122.68,461.54 1126.08,430.267 1129.47,402.768 1132.87,382.99 1136.27,373.774 1139.67,376.443 1143.07,390.615 1146.47,414.257 1149.86,443.976 1153.26,475.507 1156.66,504.325 1160.06,526.293 1163.46,538.259 1166.86,538.505 1170.25,526.995 1173.65,505.381 1177.05,476.765 1180.45,445.252 1183.85,415.365 1187.25,391.393 1190.64,376.774 1194.04,373.606 1197.44,382.342 1200.84,401.726 1204.24,428.974 1207.64,460.174 1211.04,490.845 1214.43,516.583 1217.83,533.692 1221.23,539.713 1224.63,533.779 1228.03,516.74 1231.43,491.037 1234.82,460.357 1238.22,429.099 1241.62,401.748 1245.02,382.224 1248.42,373.326 1251.82,373.326 1255.21,382.224 1258.61,401.748 1262.01,429.099 1265.41,460.357 1268.81,491.037 1272.21,516.74 1275.6,533.779 1279,539.713 1282.4,533.692 1285.8,516.583 1289.2,490.845 1292.6,460.174 1296,428.974 1299.39,401.726 1302.79,382.342 1306.19,373.606 1309.59,376.774 1312.99,391.393 1316.39,415.365 1319.78,445.252 1323.18,476.765 1326.58,505.381 1329.98,526.995 1333.38,538.505 1336.78,538.259 1340.17,526.293 1343.57,504.325 1346.97,475.507 1350.37,443.976 1353.77,414.257 1357.17,390.615 1360.56,376.443 1363.96,373.774 1367.36,382.99 1370.76,402.768 1374.16,430.267 1377.56,461.54 1380.96,492.097 1384.35,517.55 1387.75,534.244 1391.15,539.782 1394.55,533.366 1397.95,515.915 1401.35,489.931 1404.74,459.142 1408.14,427.964 1411.54,400.868 1414.94,381.742 1418.34,373.326 1421.74,373.326 1425.13,382.704 1428.53,402.62 1431.93,430.221 1435.33,461.55 1438.73,492.113 1442.13,517.529 1445.52,534.153 1448.92,539.603 1452.32,533.1 1455.72,515.581 1459.12,489.564 1462.52,458.786 1465.92,427.667 1469.31,400.676 1472.71,381.691 1476.11,373.438 1479.51,377.104 1482.91,392.166 1486.31,416.463 1489.7,446.51 1493.1,477.997 1496.5,506.405 1499.9,527.659 1503.3,538.71 1506.7,537.972 1510.09,525.553 1513.49,503.236 1516.89,474.224 1520.29,442.683 1523.69,413.139 1527.09,389.833 1530.48,376.111 1533.88,373.941 1537.28,383.636 1540.68,403.803 1544.08,431.546 1547.48,462.885 1550.88,493.319 1554.27,518.481 1557.67,534.756 1561.07,539.809 1564.47,532.912 1567.87,515.055 1571.27,488.797 1574.66,457.906 1578.06,426.815 1581.46,399.982 1584.86,381.257 1588.26,373.326 1591.66,373.326 1595.05,383.181 1598.45,403.485 1601.85,431.329 1605.25,462.721 1608.65,493.16 1612.05,518.283 1615.44,534.487 1618.84,539.452 1622.24,532.469 1625.64,514.544 1629.04,488.255 1632.44,457.377 1635.84,426.346 1639.23,399.621 1642.63,381.038 1646.03,373.27 1649.43,377.434 1652.83,392.934 1656.23,417.55 1659.62,447.75 1663.02,479.203 1666.42,507.396 1669.82,528.285 1673.22,538.874 1676.62,537.645 1680.01,524.776 1683.41,502.115 1686.81,472.916 1690.21,441.372 1693.61,412.011 1697.01,389.047 1700.4,375.778 1703.8,374.109 1707.2,384.279 1710.6,404.83 1714,432.811 1717.4,464.207 1720.8,494.512 1724.19,519.376 1727.59,535.229 1730.99,539.795 1734.39,532.42 1737.79,514.159 1741.19,487.634 1744.58,456.65 1747.98,425.652 1751.38,399.089 1754.78,380.771 1758.18,373.326 1761.58,373.326 1764.97,362.995 1768.37,342.309 1771.77,314.23 1775.17,282.782 1778.57,252.474 1781.97,227.651 1785.36,211.871 1788.76,207.392 1792.16,214.854 1795.56,233.18 1798.96,259.736 1802.36,290.705 1805.76,321.639 1809.15,348.094 1812.55,366.268 1815.95,373.55 1819.35,368.89 1822.75,352.954 1826.15,328.026 1829.54,297.68 1832.94,266.269 1836.34,238.298 1839.74,217.779 1843.14,207.655 1846.54,209.375 1849.93,222.692 1853.33,245.69 1856.73,275.068 1860.13,306.607 1863.53,335.779 1866.93,358.395 1870.32,371.207 1873.72,372.376 1877.12,361.732 1880.52,340.803 1883.92,312.591 1887.32,281.145 1890.72,250.977 1894.11,226.418 1897.51,210.991 1900.91,206.912 1904.31,214.764 1907.71,233.423 1911.11,260.209 1914.5,291.28 1917.9,322.175 1921.3,348.462 1924.7,366.369 1928.1,373.326 1931.5,373.326 1934.89,384.129 1938.29,405.193 1941.69,433.501 1945.09,464.997 1948.49,495.165 1951.89,519.682 1955.28,535.035 1958.68,539.027 1962.08,531.088 1965.48,512.365 1968.88,485.55 1972.28,454.497 1975.68,423.666 1979.07,397.489 1982.47,379.727 1985.87,372.934 1989.27,378.089 1992.67,394.456 1996.07,419.691 1999.46,450.175 2002.86,481.536 2006.26,509.278 2009.66,529.422 2013.06,539.079 2016.46,536.868 2019.85,523.108 2023.25,499.777 2026.65,470.227 2030.05,438.701 2033.45,409.726 2036.85,387.464 2040.24,375.111 2043.64,374.443 2047.04,385.558 2050.44,406.861 2053.84,435.296 2057.24,466.785 2060.64,496.807 2064.03,521.057 2067.43,536.053 2070.83,539.644 2074.23,531.316 2077.63,512.264 2081.03,485.223 2084.42,454.075 2087.82,423.289 2091.22,397.285 2094.62,379.794 2098.02,373.326 2101.42,373.326 2104.81,362.053 2108.21,340.617 2111.61,312.087 2115.01,280.552 2118.41,250.53 2121.81,226.324 2125.2,211.402 2128.6,207.9 2132,216.313 2135.4,235.428 2138.8,262.496 2142.2,293.626 2145.6,324.344 2148.99,350.237 2152.39,367.582 2155.79,373.885 2159.19,368.237 2162.59,351.442 2165.99,325.908 2169.38,295.293 2172.78,263.989 2176.18,236.483 2179.58,216.72 2182.98,207.532 2186.38,210.233 2189.77,224.433 2193.17,248.091 2196.57,277.806 2199.97,309.311 2203.37,338.082 2206.77,359.985 2210.16,371.875 2213.56,372.042 2216.96,360.46 2220.36,338.788 2223.76,310.136 2227.16,278.613 2230.56,248.743 2233.95,224.81 2237.35,210.248 2240.75,207.145 2244.15,215.946 2247.55,235.387 2250.95,262.676 2254.34,293.895 2257.74,324.563 2261.14,350.279 2264.54,367.35 2267.94,373.326 "/>
<path clip-path="url(#clip860)" d="M147.478 1423.18 L2352.76 1423.18 L2352.76 923.472 L147.478 923.472  Z" fill="#ffffff" fill-rule="evenodd" fill-opacity="1"/>
<defs>
  <clipPath id="clip863">
    <rect x="147" y="923" width="2206" height="501"/>
  </clipPath>
</defs>
<polyline clip-path="url(#clip863)" style="stroke:#000000; stroke-linecap:round; stroke-linejoin:round; stroke-width:2; stroke-opacity:0.1; fill:none" points="232.296,1423.18 232.296,923.472 "/>
<polyline clip-path="url(#clip863)" style="stroke:#000000; stroke-linecap:round; stroke-linejoin:round; stroke-width:2; stroke-opacity:0.1; fill:none" points="401.933,1423.18 401.933,923.472 "/>
<polyline clip-path="url(#clip863)" style="stroke:#000000; stroke-linecap:round; stroke-linejoin:round; stroke-width:2; stroke-opacity:0.1; fill:none" points="571.57,1423.18 571.57,923.472 "/>
<polyline clip-path="url(#clip863)" style="stroke:#000000; stroke-linecap:round; stroke-linejoin:round; stroke-width:2; stroke-opacity:0.1; fill:none" points="741.207,1423.18 741.207,923.472 "/>
<polyline clip-path="url(#clip863)" style="stroke:#000000; stroke-linecap:round; stroke-linejoin:round; stroke-width:2; stroke-opacity:0.1; fill:none" points="910.843,1423.18 910.843,923.472 "/>
<polyline clip-path="url(#clip863)" style="stroke:#000000; stroke-linecap:round; stroke-linejoin:round; stroke-width:2; stroke-opacity:0.1; fill:none" points="1080.48,1423.18 1080.48,923.472 "/>
<polyline clip-path="url(#clip863)" style="stroke:#000000; stroke-linecap:round; stroke-linejoin:round; stroke-width:2; stroke-opacity:0.1; fill:none" points="1250.12,1423.18 1250.12,923.472 "/>
<polyline clip-path="url(#clip863)" style="stroke:#000000; stroke-linecap:round; stroke-linejoin:round; stroke-width:2; stroke-opacity:0.1; fill:none" points="1419.75,1423.18 1419.75,923.472 "/>
<polyline clip-path="url(#clip863)" style="stroke:#000000; stroke-linecap:round; stroke-linejoin:round; stroke-width:2; stroke-opacity:0.1; fill:none" points="1589.39,1423.18 1589.39,923.472 "/>
<polyline clip-path="url(#clip863)" style="stroke:#000000; stroke-linecap:round; stroke-linejoin:round; stroke-width:2; stroke-opacity:0.1; fill:none" points="1759.03,1423.18 1759.03,923.472 "/>
<polyline clip-path="url(#clip863)" style="stroke:#000000; stroke-linecap:round; stroke-linejoin:round; stroke-width:2; stroke-opacity:0.1; fill:none" points="1928.66,1423.18 1928.66,923.472 "/>
<polyline clip-path="url(#clip863)" style="stroke:#000000; stroke-linecap:round; stroke-linejoin:round; stroke-width:2; stroke-opacity:0.1; fill:none" points="2098.3,1423.18 2098.3,923.472 "/>
<polyline clip-path="url(#clip863)" style="stroke:#000000; stroke-linecap:round; stroke-linejoin:round; stroke-width:2; stroke-opacity:0.1; fill:none" points="2267.94,1423.18 2267.94,923.472 "/>
<polyline clip-path="url(#clip860)" style="stroke:#000000; stroke-linecap:round; stroke-linejoin:round; stroke-width:4; stroke-opacity:1; fill:none" points="147.478,1423.18 2352.76,1423.18 "/>
<polyline clip-path="url(#clip860)" style="stroke:#000000; stroke-linecap:round; stroke-linejoin:round; stroke-width:4; stroke-opacity:1; fill:none" points="232.296,1423.18 232.296,1404.28 "/>
<polyline clip-path="url(#clip860)" style="stroke:#000000; stroke-linecap:round; stroke-linejoin:round; stroke-width:4; stroke-opacity:1; fill:none" points="401.933,1423.18 401.933,1404.28 "/>
<polyline clip-path="url(#clip860)" style="stroke:#000000; stroke-linecap:round; stroke-linejoin:round; stroke-width:4; stroke-opacity:1; fill:none" points="571.57,1423.18 571.57,1404.28 "/>
<polyline clip-path="url(#clip860)" style="stroke:#000000; stroke-linecap:round; stroke-linejoin:round; stroke-width:4; stroke-opacity:1; fill:none" points="741.207,1423.18 741.207,1404.28 "/>
<polyline clip-path="url(#clip860)" style="stroke:#000000; stroke-linecap:round; stroke-linejoin:round; stroke-width:4; stroke-opacity:1; fill:none" points="910.843,1423.18 910.843,1404.28 "/>
<polyline clip-path="url(#clip860)" style="stroke:#000000; stroke-linecap:round; stroke-linejoin:round; stroke-width:4; stroke-opacity:1; fill:none" points="1080.48,1423.18 1080.48,1404.28 "/>
<polyline clip-path="url(#clip860)" style="stroke:#000000; stroke-linecap:round; stroke-linejoin:round; stroke-width:4; stroke-opacity:1; fill:none" points="1250.12,1423.18 1250.12,1404.28 "/>
<polyline clip-path="url(#clip860)" style="stroke:#000000; stroke-linecap:round; stroke-linejoin:round; stroke-width:4; stroke-opacity:1; fill:none" points="1419.75,1423.18 1419.75,1404.28 "/>
<polyline clip-path="url(#clip860)" style="stroke:#000000; stroke-linecap:round; stroke-linejoin:round; stroke-width:4; stroke-opacity:1; fill:none" points="1589.39,1423.18 1589.39,1404.28 "/>
<polyline clip-path="url(#clip860)" style="stroke:#000000; stroke-linecap:round; stroke-linejoin:round; stroke-width:4; stroke-opacity:1; fill:none" points="1759.03,1423.18 1759.03,1404.28 "/>
<polyline clip-path="url(#clip860)" style="stroke:#000000; stroke-linecap:round; stroke-linejoin:round; stroke-width:4; stroke-opacity:1; fill:none" points="1928.66,1423.18 1928.66,1404.28 "/>
<polyline clip-path="url(#clip860)" style="stroke:#000000; stroke-linecap:round; stroke-linejoin:round; stroke-width:4; stroke-opacity:1; fill:none" points="2098.3,1423.18 2098.3,1404.28 "/>
<polyline clip-path="url(#clip860)" style="stroke:#000000; stroke-linecap:round; stroke-linejoin:round; stroke-width:4; stroke-opacity:1; fill:none" points="2267.94,1423.18 2267.94,1404.28 "/>
<path clip-path="url(#clip860)" d="M232.296 1454.1 Q228.685 1454.1 226.857 1457.66 Q225.051 1461.2 225.051 1468.33 Q225.051 1475.44 226.857 1479.01 Q228.685 1482.55 232.296 1482.55 Q235.931 1482.55 237.736 1479.01 Q239.565 1475.44 239.565 1468.33 Q239.565 1461.2 237.736 1457.66 Q235.931 1454.1 232.296 1454.1 M232.296 1450.39 Q238.106 1450.39 241.162 1455 Q244.241 1459.58 244.241 1468.33 Q244.241 1477.06 241.162 1481.67 Q238.106 1486.25 232.296 1486.25 Q226.486 1486.25 223.407 1481.67 Q220.352 1477.06 220.352 1468.33 Q220.352 1459.58 223.407 1455 Q226.486 1450.39 232.296 1450.39 Z" fill="#000000" fill-rule="nonzero" fill-opacity="1" /><path clip-path="url(#clip860)" d="M392.315 1481.64 L399.954 1481.64 L399.954 1455.28 L391.644 1456.95 L391.644 1452.69 L399.908 1451.02 L404.584 1451.02 L404.584 1481.64 L412.222 1481.64 L412.222 1485.58 L392.315 1485.58 L392.315 1481.64 Z" fill="#000000" fill-rule="nonzero" fill-opacity="1" /><path clip-path="url(#clip860)" d="M566.223 1481.64 L582.542 1481.64 L582.542 1485.58 L560.598 1485.58 L560.598 1481.64 Q563.26 1478.89 567.843 1474.26 Q572.449 1469.61 573.63 1468.27 Q575.875 1465.74 576.755 1464.01 Q577.658 1462.25 577.658 1460.56 Q577.658 1457.8 575.713 1456.07 Q573.792 1454.33 570.69 1454.33 Q568.491 1454.33 566.037 1455.09 Q563.607 1455.86 560.829 1457.41 L560.829 1452.69 Q563.653 1451.55 566.107 1450.97 Q568.561 1450.39 570.598 1450.39 Q575.968 1450.39 579.162 1453.08 Q582.357 1455.77 582.357 1460.26 Q582.357 1462.39 581.547 1464.31 Q580.76 1466.2 578.653 1468.8 Q578.074 1469.47 574.973 1472.69 Q571.871 1475.88 566.223 1481.64 Z" fill="#000000" fill-rule="nonzero" fill-opacity="1" /><path clip-path="url(#clip860)" d="M745.454 1466.95 Q748.811 1467.66 750.686 1469.93 Q752.584 1472.2 752.584 1475.53 Q752.584 1480.65 749.065 1483.45 Q745.547 1486.25 739.065 1486.25 Q736.889 1486.25 734.575 1485.81 Q732.283 1485.39 729.829 1484.54 L729.829 1480.02 Q731.774 1481.16 734.089 1481.74 Q736.403 1482.32 738.927 1482.32 Q743.325 1482.32 745.616 1480.58 Q747.931 1478.84 747.931 1475.53 Q747.931 1472.48 745.778 1470.77 Q743.649 1469.03 739.829 1469.03 L735.802 1469.03 L735.802 1465.19 L740.014 1465.19 Q743.464 1465.19 745.292 1463.82 Q747.121 1462.43 747.121 1459.84 Q747.121 1457.18 745.223 1455.77 Q743.348 1454.33 739.829 1454.33 Q737.908 1454.33 735.709 1454.75 Q733.51 1455.16 730.871 1456.04 L730.871 1451.88 Q733.533 1451.14 735.848 1450.77 Q738.186 1450.39 740.246 1450.39 Q745.57 1450.39 748.672 1452.83 Q751.774 1455.23 751.774 1459.35 Q751.774 1462.22 750.13 1464.21 Q748.487 1466.18 745.454 1466.95 Z" fill="#000000" fill-rule="nonzero" fill-opacity="1" /><path clip-path="url(#clip860)" d="M913.853 1455.09 L902.047 1473.54 L913.853 1473.54 L913.853 1455.09 M912.626 1451.02 L918.505 1451.02 L918.505 1473.54 L923.436 1473.54 L923.436 1477.43 L918.505 1477.43 L918.505 1485.58 L913.853 1485.58 L913.853 1477.43 L898.251 1477.43 L898.251 1472.92 L912.626 1451.02 Z" fill="#000000" fill-rule="nonzero" fill-opacity="1" /><path clip-path="url(#clip860)" d="M1070.76 1451.02 L1089.11 1451.02 L1089.11 1454.96 L1075.04 1454.96 L1075.04 1463.43 Q1076.06 1463.08 1077.08 1462.92 Q1078.1 1462.73 1079.11 1462.73 Q1084.9 1462.73 1088.28 1465.9 Q1091.66 1469.08 1091.66 1474.49 Q1091.66 1480.07 1088.19 1483.17 Q1084.72 1486.25 1078.4 1486.25 Q1076.22 1486.25 1073.95 1485.88 Q1071.71 1485.51 1069.3 1484.77 L1069.3 1480.07 Q1071.38 1481.2 1073.61 1481.76 Q1075.83 1482.32 1078.3 1482.32 Q1082.31 1482.32 1084.65 1480.21 Q1086.98 1478.1 1086.98 1474.49 Q1086.98 1470.88 1084.65 1468.77 Q1082.31 1466.67 1078.3 1466.67 Q1076.43 1466.67 1074.55 1467.08 Q1072.7 1467.5 1070.76 1468.38 L1070.76 1451.02 Z" fill="#000000" fill-rule="nonzero" fill-opacity="1" /><path clip-path="url(#clip860)" d="M1250.52 1466.44 Q1247.37 1466.44 1245.52 1468.59 Q1243.69 1470.74 1243.69 1474.49 Q1243.69 1478.22 1245.52 1480.39 Q1247.37 1482.55 1250.52 1482.55 Q1253.67 1482.55 1255.5 1480.39 Q1257.35 1478.22 1257.35 1474.49 Q1257.35 1470.74 1255.5 1468.59 Q1253.67 1466.44 1250.52 1466.44 M1259.8 1451.78 L1259.8 1456.04 Q1258.05 1455.21 1256.24 1454.77 Q1254.46 1454.33 1252.7 1454.33 Q1248.07 1454.33 1245.61 1457.45 Q1243.18 1460.58 1242.84 1466.9 Q1244.2 1464.89 1246.26 1463.82 Q1248.32 1462.73 1250.8 1462.73 Q1256.01 1462.73 1259.02 1465.9 Q1262.05 1469.05 1262.05 1474.49 Q1262.05 1479.82 1258.9 1483.03 Q1255.75 1486.25 1250.52 1486.25 Q1244.53 1486.25 1241.36 1481.67 Q1238.18 1477.06 1238.18 1468.33 Q1238.18 1460.14 1242.07 1455.28 Q1245.96 1450.39 1252.51 1450.39 Q1254.27 1450.39 1256.05 1450.74 Q1257.86 1451.09 1259.8 1451.78 Z" fill="#000000" fill-rule="nonzero" fill-opacity="1" /><path clip-path="url(#clip860)" d="M1408.64 1451.02 L1430.86 1451.02 L1430.86 1453.01 L1418.32 1485.58 L1413.43 1485.58 L1425.24 1454.96 L1408.64 1454.96 L1408.64 1451.02 Z" fill="#000000" fill-rule="nonzero" fill-opacity="1" /><path clip-path="url(#clip860)" d="M1589.39 1469.17 Q1586.06 1469.17 1584.14 1470.95 Q1582.24 1472.73 1582.24 1475.86 Q1582.24 1478.98 1584.14 1480.77 Q1586.06 1482.55 1589.39 1482.55 Q1592.72 1482.55 1594.65 1480.77 Q1596.57 1478.96 1596.57 1475.86 Q1596.57 1472.73 1594.65 1470.95 Q1592.75 1469.17 1589.39 1469.17 M1584.71 1467.18 Q1581.71 1466.44 1580.02 1464.38 Q1578.35 1462.32 1578.35 1459.35 Q1578.35 1455.21 1581.29 1452.8 Q1584.25 1450.39 1589.39 1450.39 Q1594.55 1450.39 1597.49 1452.8 Q1600.43 1455.21 1600.43 1459.35 Q1600.43 1462.32 1598.74 1464.38 Q1597.08 1466.44 1594.09 1467.18 Q1597.47 1467.96 1599.34 1470.26 Q1601.24 1472.55 1601.24 1475.86 Q1601.24 1480.88 1598.16 1483.57 Q1595.11 1486.25 1589.39 1486.25 Q1583.67 1486.25 1580.59 1483.57 Q1577.54 1480.88 1577.54 1475.86 Q1577.54 1472.55 1579.44 1470.26 Q1581.33 1467.96 1584.71 1467.18 M1583 1459.79 Q1583 1462.48 1584.67 1463.98 Q1586.36 1465.49 1589.39 1465.49 Q1592.4 1465.49 1594.09 1463.98 Q1595.8 1462.48 1595.8 1459.79 Q1595.8 1457.11 1594.09 1455.6 Q1592.4 1454.1 1589.39 1454.1 Q1586.36 1454.1 1584.67 1455.6 Q1583 1457.11 1583 1459.79 Z" fill="#000000" fill-rule="nonzero" fill-opacity="1" /><path clip-path="url(#clip860)" d="M1749.33 1484.86 L1749.33 1480.6 Q1751.09 1481.44 1752.89 1481.88 Q1754.7 1482.32 1756.43 1482.32 Q1761.06 1482.32 1763.49 1479.21 Q1765.95 1476.09 1766.3 1469.75 Q1764.95 1471.74 1762.89 1472.8 Q1760.83 1473.87 1758.33 1473.87 Q1753.15 1473.87 1750.12 1470.74 Q1747.11 1467.59 1747.11 1462.15 Q1747.11 1456.83 1750.25 1453.61 Q1753.4 1450.39 1758.63 1450.39 Q1764.63 1450.39 1767.78 1455 Q1770.95 1459.58 1770.95 1468.33 Q1770.95 1476.51 1767.06 1481.39 Q1763.19 1486.25 1756.64 1486.25 Q1754.88 1486.25 1753.08 1485.9 Q1751.27 1485.56 1749.33 1484.86 M1758.63 1470.21 Q1761.78 1470.21 1763.61 1468.06 Q1765.46 1465.9 1765.46 1462.15 Q1765.46 1458.43 1763.61 1456.27 Q1761.78 1454.1 1758.63 1454.1 Q1755.49 1454.1 1753.63 1456.27 Q1751.81 1458.43 1751.81 1462.15 Q1751.81 1465.9 1753.63 1468.06 Q1755.49 1470.21 1758.63 1470.21 Z" fill="#000000" fill-rule="nonzero" fill-opacity="1" /><path clip-path="url(#clip860)" d="M1903.35 1481.64 L1910.99 1481.64 L1910.99 1455.28 L1902.68 1456.95 L1902.68 1452.69 L1910.94 1451.02 L1915.62 1451.02 L1915.62 1481.64 L1923.26 1481.64 L1923.26 1485.58 L1903.35 1485.58 L1903.35 1481.64 Z" fill="#000000" fill-rule="nonzero" fill-opacity="1" /><path clip-path="url(#clip860)" d="M1942.7 1454.1 Q1939.09 1454.1 1937.26 1457.66 Q1935.46 1461.2 1935.46 1468.33 Q1935.46 1475.44 1937.26 1479.01 Q1939.09 1482.55 1942.7 1482.55 Q1946.34 1482.55 1948.14 1479.01 Q1949.97 1475.44 1949.97 1468.33 Q1949.97 1461.2 1948.14 1457.66 Q1946.34 1454.1 1942.7 1454.1 M1942.7 1450.39 Q1948.51 1450.39 1951.57 1455 Q1954.65 1459.58 1954.65 1468.33 Q1954.65 1477.06 1951.57 1481.67 Q1948.51 1486.25 1942.7 1486.25 Q1936.89 1486.25 1933.81 1481.67 Q1930.76 1477.06 1930.76 1468.33 Q1930.76 1459.58 1933.81 1455 Q1936.89 1450.39 1942.7 1450.39 Z" fill="#000000" fill-rule="nonzero" fill-opacity="1" /><path clip-path="url(#clip860)" d="M2073.6 1481.64 L2081.24 1481.64 L2081.24 1455.28 L2072.93 1456.95 L2072.93 1452.69 L2081.19 1451.02 L2085.87 1451.02 L2085.87 1481.64 L2093.51 1481.64 L2093.51 1485.58 L2073.6 1485.58 L2073.6 1481.64 Z" fill="#000000" fill-rule="nonzero" fill-opacity="1" /><path clip-path="url(#clip860)" d="M2103.76 1481.64 L2111.4 1481.64 L2111.4 1455.28 L2103.09 1456.95 L2103.09 1452.69 L2111.36 1451.02 L2116.03 1451.02 L2116.03 1481.64 L2123.67 1481.64 L2123.67 1485.58 L2103.76 1485.58 L2103.76 1481.64 Z" fill="#000000" fill-rule="nonzero" fill-opacity="1" /><path clip-path="url(#clip860)" d="M2243.42 1481.64 L2251.06 1481.64 L2251.06 1455.28 L2242.75 1456.95 L2242.75 1452.69 L2251.02 1451.02 L2255.69 1451.02 L2255.69 1481.64 L2263.33 1481.64 L2263.33 1485.58 L2243.42 1485.58 L2243.42 1481.64 Z" fill="#000000" fill-rule="nonzero" fill-opacity="1" /><path clip-path="url(#clip860)" d="M2276.8 1481.64 L2293.12 1481.64 L2293.12 1485.58 L2271.18 1485.58 L2271.18 1481.64 Q2273.84 1478.89 2278.42 1474.26 Q2283.03 1469.61 2284.21 1468.27 Q2286.46 1465.74 2287.34 1464.01 Q2288.24 1462.25 2288.24 1460.56 Q2288.24 1457.8 2286.29 1456.07 Q2284.37 1454.33 2281.27 1454.33 Q2279.07 1454.33 2276.62 1455.09 Q2274.19 1455.86 2271.41 1457.41 L2271.41 1452.69 Q2274.23 1451.55 2276.69 1450.97 Q2279.14 1450.39 2281.18 1450.39 Q2286.55 1450.39 2289.74 1453.08 Q2292.94 1455.77 2292.94 1460.26 Q2292.94 1462.39 2292.13 1464.31 Q2291.34 1466.2 2289.23 1468.8 Q2288.66 1469.47 2285.55 1472.69 Q2282.45 1475.88 2276.8 1481.64 Z" fill="#000000" fill-rule="nonzero" fill-opacity="1" /><path clip-path="url(#clip860)" d="M1258.59 1531.91 Q1258.59 1532.81 1258.17 1533.04 Q1257.75 1533.23 1256.59 1533.23 L1250.41 1533.23 L1245.51 1552.69 Q1245.13 1554.39 1245.13 1555.84 Q1245.13 1557.45 1245.61 1558.16 Q1246.12 1558.87 1247.19 1558.87 Q1249.28 1558.87 1251.53 1556.97 Q1253.82 1555.07 1255.75 1550.43 Q1256.01 1549.82 1256.14 1549.69 Q1256.3 1549.53 1256.72 1549.53 Q1257.53 1549.53 1257.53 1550.17 Q1257.53 1550.4 1257.07 1551.43 Q1256.66 1552.46 1255.72 1553.97 Q1254.82 1555.49 1253.63 1556.9 Q1252.47 1558.32 1250.7 1559.35 Q1248.93 1560.35 1247.03 1560.35 Q1244.35 1560.35 1242.65 1558.64 Q1240.97 1556.94 1240.97 1554.26 Q1240.97 1553.39 1241.65 1550.62 Q1242.32 1547.82 1246 1533.23 L1240.17 1533.23 Q1239.36 1533.23 1239.04 1533.2 Q1238.75 1533.17 1238.52 1533.01 Q1238.33 1532.81 1238.33 1532.43 Q1238.33 1531.82 1238.59 1531.56 Q1238.85 1531.27 1239.17 1531.24 Q1239.52 1531.17 1240.33 1531.17 L1246.51 1531.17 L1249.09 1520.71 Q1249.34 1519.67 1249.99 1519.09 Q1250.67 1518.48 1251.05 1518.42 Q1251.44 1518.32 1251.73 1518.32 Q1252.6 1518.32 1253.11 1518.81 Q1253.63 1519.26 1253.63 1520.09 Q1253.63 1520.54 1250.92 1531.17 L1256.72 1531.17 Q1257.46 1531.17 1257.75 1531.2 Q1258.07 1531.24 1258.33 1531.4 Q1258.59 1531.56 1258.59 1531.91 Z" fill="#000000" fill-rule="nonzero" fill-opacity="1" /><polyline clip-path="url(#clip863)" style="stroke:#000000; stroke-linecap:round; stroke-linejoin:round; stroke-width:2; stroke-opacity:0.1; fill:none" points="147.478,1339.9 2352.76,1339.9 "/>
<polyline clip-path="url(#clip863)" style="stroke:#000000; stroke-linecap:round; stroke-linejoin:round; stroke-width:2; stroke-opacity:0.1; fill:none" points="147.478,1173.33 2352.76,1173.33 "/>
<polyline clip-path="url(#clip863)" style="stroke:#000000; stroke-linecap:round; stroke-linejoin:round; stroke-width:2; stroke-opacity:0.1; fill:none" points="147.478,1006.76 2352.76,1006.76 "/>
<polyline clip-path="url(#clip860)" style="stroke:#000000; stroke-linecap:round; stroke-linejoin:round; stroke-width:4; stroke-opacity:1; fill:none" points="147.478,1423.18 147.478,923.472 "/>
<polyline clip-path="url(#clip860)" style="stroke:#000000; stroke-linecap:round; stroke-linejoin:round; stroke-width:4; stroke-opacity:1; fill:none" points="147.478,1339.9 166.376,1339.9 "/>
<polyline clip-path="url(#clip860)" style="stroke:#000000; stroke-linecap:round; stroke-linejoin:round; stroke-width:4; stroke-opacity:1; fill:none" points="147.478,1173.33 166.376,1173.33 "/>
<polyline clip-path="url(#clip860)" style="stroke:#000000; stroke-linecap:round; stroke-linejoin:round; stroke-width:4; stroke-opacity:1; fill:none" points="147.478,1006.76 166.376,1006.76 "/>
<path clip-path="url(#clip860)" d="M50.9921 1340.35 L80.6679 1340.35 L80.6679 1344.28 L50.9921 1344.28 L50.9921 1340.35 Z" fill="#000000" fill-rule="nonzero" fill-opacity="1" /><path clip-path="url(#clip860)" d="M91.5706 1353.24 L99.2095 1353.24 L99.2095 1326.87 L90.8993 1328.54 L90.8993 1324.28 L99.1632 1322.62 L103.839 1322.62 L103.839 1353.24 L111.478 1353.24 L111.478 1357.18 L91.5706 1357.18 L91.5706 1353.24 Z" fill="#000000" fill-rule="nonzero" fill-opacity="1" /><path clip-path="url(#clip860)" d="M99.5335 1159.12 Q95.9224 1159.12 94.0937 1162.69 Q92.2882 1166.23 92.2882 1173.36 Q92.2882 1180.47 94.0937 1184.03 Q95.9224 1187.57 99.5335 1187.57 Q103.168 1187.57 104.973 1184.03 Q106.802 1180.47 106.802 1173.36 Q106.802 1166.23 104.973 1162.69 Q103.168 1159.12 99.5335 1159.12 M99.5335 1155.42 Q105.344 1155.42 108.399 1160.03 Q111.478 1164.61 111.478 1173.36 Q111.478 1182.09 108.399 1186.69 Q105.344 1191.28 99.5335 1191.28 Q93.7234 1191.28 90.6447 1186.69 Q87.5892 1182.09 87.5892 1173.36 Q87.5892 1164.61 90.6447 1160.03 Q93.7234 1155.42 99.5335 1155.42 Z" fill="#000000" fill-rule="nonzero" fill-opacity="1" /><path clip-path="url(#clip860)" d="M91.5706 1020.1 L99.2095 1020.1 L99.2095 993.736 L90.8993 995.403 L90.8993 991.143 L99.1632 989.477 L103.839 989.477 L103.839 1020.1 L111.478 1020.1 L111.478 1024.04 L91.5706 1024.04 L91.5706 1020.1 Z" fill="#000000" fill-rule="nonzero" fill-opacity="1" /><path clip-path="url(#clip860)" d="M1204.37 812.06 L1199.82 830.423 Q1199.57 831.53 1199.37 831.817 Q1199.16 832.104 1198.59 832.104 Q1198.14 832.104 1197.85 831.899 Q1197.61 831.694 1197.61 831.489 L1197.56 831.284 Q1197.56 831.161 1197.65 830.546 Q1197.73 829.891 1197.81 828.825 Q1197.89 827.759 1197.89 826.57 Q1197.89 819.848 1194.61 816.733 Q1191.38 813.577 1185.8 813.577 Q1181.95 813.577 1178.5 815.626 Q1175.06 817.676 1173.09 820.914 Q1171.13 824.111 1171.13 827.472 Q1171.13 830.546 1172.68 832.514 Q1174.24 834.481 1176.25 835.137 L1181.87 836.654 Q1187.77 838.17 1189.45 838.826 Q1191.13 839.441 1192.52 840.835 Q1196.66 844.688 1196.66 850.672 Q1196.66 855.837 1193.75 860.837 Q1190.84 865.797 1185.84 869.035 Q1180.84 872.232 1175.31 872.232 Q1165.59 872.232 1161.13 866.207 L1157.03 870.962 Q1156.25 871.864 1156 872.028 Q1155.8 872.232 1155.51 872.232 Q1155.14 872.232 1154.85 871.987 Q1154.57 871.782 1154.57 871.413 Q1154.57 871.126 1156.99 861.493 Q1159.4 851.861 1159.61 851.656 Q1159.94 851.328 1160.47 851.328 Q1161.45 851.328 1161.45 852.271 Q1161.37 852.517 1161.29 852.845 Q1160.8 855.796 1160.8 857.394 Q1160.8 860.387 1161.82 862.682 Q1162.85 864.936 1164.36 866.248 Q1165.92 867.519 1168.01 868.338 Q1170.1 869.117 1171.86 869.404 Q1173.63 869.65 1175.47 869.65 Q1179.45 869.65 1182.97 867.355 Q1186.54 865.059 1188.55 861.493 Q1190.6 857.927 1190.6 854.197 Q1190.6 852.23 1190.06 850.713 Q1189.53 849.155 1188.79 848.295 Q1188.1 847.434 1186.91 846.778 Q1185.72 846.122 1184.9 845.876 Q1184.12 845.589 1182.89 845.302 L1173.91 842.925 Q1170.31 841.859 1167.72 838.785 Q1165.18 835.711 1165.18 830.997 Q1165.18 826.038 1168.09 821.447 Q1171.04 816.815 1175.84 814.028 Q1180.68 811.199 1185.88 811.199 Q1189.98 811.199 1193.14 812.798 Q1196.29 814.356 1197.89 817.266 L1201.95 812.47 Q1202.77 811.527 1202.93 811.363 Q1203.14 811.199 1203.43 811.199 Q1203.92 811.199 1204.12 811.486 Q1204.37 811.773 1204.37 812.06 Z" fill="#000000" fill-rule="nonzero" fill-opacity="1" /><path clip-path="url(#clip860)" d="M1212.84 861.932 L1212.84 860.096 Q1219.9 860.096 1223.54 856.337 Q1224.55 856.337 1224.72 856.567 Q1224.89 856.796 1224.89 857.858 L1224.89 890.825 Q1224.89 892.576 1225.75 893.121 Q1226.61 893.666 1230.37 893.666 L1232.24 893.666 L1232.24 895.474 Q1230.17 895.301 1222.71 895.301 Q1215.25 895.301 1213.21 895.474 L1213.21 893.666 L1215.08 893.666 Q1218.78 893.666 1219.67 893.149 Q1220.56 892.604 1220.56 890.825 L1220.56 860.383 Q1217.49 861.932 1212.84 861.932 Z" fill="#000000" fill-rule="nonzero" fill-opacity="1" /><path clip-path="url(#clip860)" d="M1301.9 812.06 L1297.35 830.423 Q1297.1 831.53 1296.9 831.817 Q1296.69 832.104 1296.12 832.104 Q1295.67 832.104 1295.38 831.899 Q1295.14 831.694 1295.14 831.489 L1295.09 831.284 Q1295.09 831.161 1295.18 830.546 Q1295.26 829.891 1295.34 828.825 Q1295.42 827.759 1295.42 826.57 Q1295.42 819.848 1292.14 816.733 Q1288.91 813.577 1283.33 813.577 Q1279.48 813.577 1276.03 815.626 Q1272.59 817.676 1270.62 820.914 Q1268.66 824.111 1268.66 827.472 Q1268.66 830.546 1270.21 832.514 Q1271.77 834.481 1273.78 835.137 L1279.4 836.654 Q1285.3 838.17 1286.98 838.826 Q1288.66 839.441 1290.05 840.835 Q1294.19 844.688 1294.19 850.672 Q1294.19 855.837 1291.28 860.837 Q1288.37 865.797 1283.37 869.035 Q1278.37 872.232 1272.84 872.232 Q1263.12 872.232 1258.66 866.207 L1254.56 870.962 Q1253.78 871.864 1253.53 872.028 Q1253.33 872.232 1253.04 872.232 Q1252.67 872.232 1252.38 871.987 Q1252.1 871.782 1252.1 871.413 Q1252.1 871.126 1254.52 861.493 Q1256.93 851.861 1257.14 851.656 Q1257.47 851.328 1258 851.328 Q1258.98 851.328 1258.98 852.271 Q1258.9 852.517 1258.82 852.845 Q1258.33 855.796 1258.33 857.394 Q1258.33 860.387 1259.35 862.682 Q1260.38 864.936 1261.89 866.248 Q1263.45 867.519 1265.54 868.338 Q1267.63 869.117 1269.39 869.404 Q1271.16 869.65 1273 869.65 Q1276.98 869.65 1280.5 867.355 Q1284.07 865.059 1286.08 861.493 Q1288.13 857.927 1288.13 854.197 Q1288.13 852.23 1287.59 850.713 Q1287.06 849.155 1286.32 848.295 Q1285.63 847.434 1284.44 846.778 Q1283.25 846.122 1282.43 845.876 Q1281.65 845.589 1280.42 845.302 L1271.44 842.925 Q1267.84 841.859 1265.25 838.785 Q1262.71 835.711 1262.71 830.997 Q1262.71 826.038 1265.62 821.447 Q1268.57 816.815 1273.37 814.028 Q1278.21 811.199 1283.41 811.199 Q1287.51 811.199 1290.67 812.798 Q1293.82 814.356 1295.42 817.266 L1299.48 812.47 Q1300.3 811.527 1300.46 811.363 Q1300.67 811.199 1300.96 811.199 Q1301.45 811.199 1301.65 811.486 Q1301.9 811.773 1301.9 812.06 Z" fill="#000000" fill-rule="nonzero" fill-opacity="1" /><path clip-path="url(#clip860)" d="M1336.97 874.179 Q1336.97 875.815 1335.96 876.79 Q1334.99 877.766 1333.75 877.766 Q1332.66 877.766 1332.09 877.135 Q1331.52 876.504 1331.52 875.7 Q1331.52 875.356 1331.66 874.925 Q1331.8 874.466 1332.12 873.921 Q1332.46 873.376 1333.18 872.974 Q1333.9 872.573 1334.87 872.515 Q1334.67 872.314 1334.61 872.286 Q1334.18 871.941 1333.38 871.827 Q1333.27 871.769 1332.86 871.769 Q1330.88 871.769 1328.88 873.233 Q1326.9 874.667 1324.46 877.393 Q1321.39 880.578 1319.41 881.754 Q1328.1 882.902 1328.1 887.923 Q1328.1 888.755 1327.87 889.759 Q1327.41 891.653 1327.41 893.03 Q1327.41 895.785 1329.28 895.785 Q1331.09 895.785 1332.23 893.949 Q1333.41 892.112 1334.38 888.526 Q1334.53 887.866 1334.67 887.665 Q1334.82 887.464 1335.22 887.464 Q1335.93 887.464 1335.93 888.038 Q1335.27 891.395 1333.81 893.977 Q1331.95 897.105 1329.16 897.105 Q1326.84 897.105 1325.29 895.498 Q1323.77 893.862 1323.77 891.28 Q1323.77 890.649 1324 889.214 Q1324.17 888.64 1324.17 887.981 Q1324.17 886.632 1323.42 885.628 Q1322.68 884.595 1321.47 884.078 Q1320.27 883.562 1319.26 883.332 Q1318.29 883.074 1317.34 882.988 Q1314.47 895.125 1314.07 895.871 Q1313.81 896.387 1313.24 896.732 Q1312.66 897.105 1312.06 897.105 Q1311.49 897.105 1310.91 896.703 Q1310.37 896.33 1310.37 895.441 Q1310.37 894.981 1310.6 894.149 L1319.12 860.292 L1319.29 859.145 Q1319.29 858.8 1319.15 858.628 Q1319.03 858.427 1318.35 858.284 Q1317.69 858.14 1316.37 858.14 Q1315.82 858.14 1315.56 858.112 Q1315.33 858.083 1315.13 857.939 Q1314.93 857.767 1314.93 857.423 Q1314.93 856.935 1315.13 856.677 Q1315.36 856.39 1315.53 856.333 Q1315.71 856.275 1316.05 856.247 Q1316.54 856.218 1318.17 856.074 Q1319.81 855.902 1321.22 855.788 Q1322.62 855.673 1323.22 855.673 Q1323.57 855.673 1323.74 855.845 Q1323.94 855.988 1323.97 856.161 L1324 856.304 L1317.89 881.094 Q1320.41 880.09 1324.4 875.643 Q1329.02 870.478 1332.98 870.478 Q1334.84 870.478 1335.91 871.626 Q1336.97 872.745 1336.97 874.179 Z" fill="#000000" fill-rule="nonzero" fill-opacity="1" /><polyline clip-path="url(#clip863)" style="stroke:#009af9; stroke-linecap:round; stroke-linejoin:round; stroke-width:8; stroke-opacity:1; fill:none" points="232.296,1173.33 235.695,1179.3 239.093,1196.37 242.491,1222.09 245.89,1252.76 249.288,1283.98 252.687,1311.27 256.085,1330.71 259.483,1339.51 262.882,1336.4 266.28,1321.84 269.679,1297.91 273.077,1268.04 276.475,1236.52 279.874,1207.86 283.272,1186.19 286.671,1174.61 290.069,1174.78 293.467,1186.67 296.866,1208.57 300.264,1237.34 303.663,1268.85 307.061,1298.56 310.459,1322.22 313.858,1336.42 317.256,1339.12 320.655,1329.93 324.053,1310.17 327.451,1282.66 330.85,1251.36 334.248,1220.74 337.647,1195.21 341.045,1178.42 344.443,1172.77 347.842,1179.07 351.24,1196.41 354.639,1222.31 358.037,1253.03 361.435,1284.16 364.834,1311.22 368.232,1330.34 371.631,1338.75 375.029,1335.25 378.427,1320.33 381.826,1296.12 385.224,1266.1 388.623,1234.56 392.021,1206.04 395.419,1184.6 398.818,1173.33 402.216,1173.33 405.615,1166.86 409.013,1149.37 412.411,1123.36 415.81,1092.58 419.208,1061.43 422.607,1034.39 426.005,1015.34 429.403,1007.01 432.802,1010.6 436.2,1025.6 439.599,1049.84 442.997,1079.87 446.395,1111.36 449.794,1139.79 453.192,1161.09 456.591,1172.21 459.989,1171.54 463.387,1159.19 466.786,1136.93 470.184,1107.95 473.583,1076.43 476.981,1046.87 480.379,1023.54 483.778,1009.78 487.176,1007.57 490.575,1017.23 493.973,1037.37 497.371,1065.12 500.77,1096.48 504.168,1126.96 507.567,1152.2 510.965,1168.56 514.363,1173.72 517.762,1166.92 521.16,1149.16 524.559,1122.99 527.957,1092.16 531.355,1061.1 534.754,1034.29 538.152,1015.56 541.551,1007.63 544.949,1011.62 548.347,1026.97 551.746,1051.49 555.144,1081.66 558.543,1113.15 561.941,1141.46 565.339,1162.52 568.738,1173.33 572.136,1173.33 575.535,1166.37 578.933,1148.46 582.331,1122.17 585.73,1091.28 589.128,1060.21 592.527,1033.42 595.925,1014.76 599.323,1006.91 602.722,1010.99 606.12,1026.42 609.519,1050.98 612.917,1081.14 616.315,1112.59 619.714,1140.8 623.112,1161.73 626.511,1172.38 629.909,1171.21 633.307,1158.39 636.706,1135.78 640.104,1106.61 643.503,1075.07 646.901,1045.69 650.299,1022.69 653.698,1009.38 657.096,1007.65 660.495,1017.78 663.893,1038.3 667.291,1066.27 670.69,1097.68 674.088,1128.03 677.487,1152.95 680.885,1168.89 684.283,1173.55 687.682,1166.27 691.08,1148.09 694.479,1121.64 697.877,1090.71 701.275,1059.74 704.674,1033.18 708.072,1014.85 711.471,1007.39 714.869,1011.87 718.267,1027.65 721.666,1052.47 725.064,1082.78 728.463,1114.23 731.861,1142.31 735.259,1163 738.658,1173.33 742.056,1173.33 745.455,1165.88 748.853,1147.56 752.251,1121 755.65,1090 759.048,1059.02 762.447,1032.49 765.845,1014.23 769.243,1006.86 772.642,1011.42 776.04,1027.28 779.439,1052.14 782.837,1082.44 786.235,1113.84 789.634,1141.82 793.032,1162.37 796.431,1172.54 799.829,1170.87 803.227,1157.6 806.626,1134.64 810.024,1105.28 813.423,1073.74 816.821,1044.54 820.219,1021.88 823.618,1009.01 827.016,1007.78 830.415,1018.37 833.813,1039.26 837.211,1067.45 840.61,1098.9 844.008,1129.1 847.407,1153.72 850.805,1169.22 854.203,1173.38 857.602,1165.61 861,1147.03 864.399,1120.31 867.797,1089.28 871.195,1058.4 874.594,1032.11 877.992,1014.18 881.391,1007.2 884.789,1012.16 888.187,1028.37 891.586,1053.49 894.984,1083.93 898.383,1115.32 901.781,1143.17 905.179,1163.47 908.578,1173.33 911.976,1173.33 915.375,1181.26 918.773,1199.98 922.171,1226.81 925.57,1257.91 928.968,1288.8 932.367,1315.05 935.765,1332.91 939.163,1339.81 942.562,1334.76 945.96,1318.48 949.359,1293.32 952.757,1262.89 956.155,1231.55 959.554,1203.8 962.952,1183.64 966.351,1173.94 969.749,1176.11 973.147,1189.83 976.546,1213.14 979.944,1242.68 983.343,1274.22 986.741,1303.24 990.139,1325.55 993.538,1337.97 996.936,1338.71 1000.33,1327.66 1003.73,1306.41 1007.13,1278 1010.53,1246.51 1013.93,1216.46 1017.33,1192.17 1020.72,1177.1 1024.12,1173.44 1027.52,1181.69 1030.92,1200.68 1034.32,1227.67 1037.72,1258.79 1041.12,1289.56 1044.51,1315.58 1047.91,1333.1 1051.31,1339.6 1054.71,1334.15 1058.11,1317.53 1061.51,1292.11 1064.9,1261.55 1068.3,1230.22 1071.7,1202.62 1075.1,1182.7 1078.5,1173.33 1081.9,1173.33 1085.29,1164.91 1088.69,1145.78 1092.09,1118.69 1095.49,1087.51 1098.89,1056.72 1102.29,1030.74 1105.68,1013.29 1109.08,1006.87 1112.48,1012.41 1115.88,1029.1 1119.28,1054.55 1122.68,1085.11 1126.08,1116.38 1129.47,1143.88 1132.87,1163.66 1136.27,1172.88 1139.67,1170.21 1143.07,1156.04 1146.47,1132.39 1149.86,1102.68 1153.26,1071.14 1156.66,1042.33 1160.06,1020.36 1163.46,1008.39 1166.86,1008.15 1170.25,1019.66 1173.65,1041.27 1177.05,1069.89 1180.45,1101.4 1183.85,1131.29 1187.25,1155.26 1190.64,1169.88 1194.04,1173.05 1197.44,1164.31 1200.84,1144.93 1204.24,1117.68 1207.64,1086.48 1211.04,1055.81 1214.43,1030.07 1217.83,1012.96 1221.23,1006.94 1224.63,1012.87 1228.03,1029.91 1231.43,1055.62 1234.82,1086.3 1238.22,1117.55 1241.62,1144.9 1245.02,1164.43 1248.42,1173.33 1251.82,1173.33 1255.21,1164.43 1258.61,1144.9 1262.01,1117.55 1265.41,1086.3 1268.81,1055.62 1272.21,1029.91 1275.6,1012.87 1279,1006.94 1282.4,1012.96 1285.8,1030.07 1289.2,1055.81 1292.6,1086.48 1296,1117.68 1299.39,1144.93 1302.79,1164.31 1306.19,1173.05 1309.59,1169.88 1312.99,1155.26 1316.39,1131.29 1319.78,1101.4 1323.18,1069.89 1326.58,1041.27 1329.98,1019.66 1333.38,1008.15 1336.78,1008.39 1340.17,1020.36 1343.57,1042.33 1346.97,1071.14 1350.37,1102.68 1353.77,1132.39 1357.17,1156.04 1360.56,1170.21 1363.96,1172.88 1367.36,1163.66 1370.76,1143.88 1374.16,1116.38 1377.56,1085.11 1380.96,1054.55 1384.35,1029.1 1387.75,1012.41 1391.15,1006.87 1394.55,1013.29 1397.95,1030.74 1401.35,1056.72 1404.74,1087.51 1408.14,1118.69 1411.54,1145.78 1414.94,1164.91 1418.34,1173.33 1421.74,1173.33 1425.13,1163.95 1428.53,1144.03 1431.93,1116.43 1435.33,1085.1 1438.73,1054.54 1442.13,1029.12 1445.52,1012.5 1448.92,1007.05 1452.32,1013.55 1455.72,1031.07 1459.12,1057.09 1462.52,1087.87 1465.92,1118.99 1469.31,1145.98 1472.71,1164.96 1476.11,1173.21 1479.51,1169.55 1482.91,1154.49 1486.31,1130.19 1489.7,1100.14 1493.1,1068.66 1496.5,1040.25 1499.9,1018.99 1503.3,1007.94 1506.7,1008.68 1510.09,1021.1 1513.49,1043.42 1516.89,1072.43 1520.29,1103.97 1523.69,1133.51 1527.09,1156.82 1530.48,1170.54 1533.88,1172.71 1537.28,1163.02 1540.68,1142.85 1544.08,1115.11 1547.48,1083.77 1550.88,1053.33 1554.27,1028.17 1557.67,1011.9 1561.07,1006.84 1564.47,1013.74 1567.87,1031.6 1571.27,1057.86 1574.66,1088.75 1578.06,1119.84 1581.46,1146.67 1584.86,1165.39 1588.26,1173.33 1591.66,1173.33 1595.05,1163.47 1598.45,1143.17 1601.85,1115.32 1605.25,1083.93 1608.65,1053.49 1612.05,1028.37 1615.44,1012.16 1618.84,1007.2 1622.24,1014.18 1625.64,1032.11 1629.04,1058.4 1632.44,1089.28 1635.84,1120.31 1639.23,1147.03 1642.63,1165.61 1646.03,1173.38 1649.43,1169.22 1652.83,1153.72 1656.23,1129.1 1659.62,1098.9 1663.02,1067.45 1666.42,1039.26 1669.82,1018.37 1673.22,1007.78 1676.62,1009.01 1680.01,1021.88 1683.41,1044.54 1686.81,1073.74 1690.21,1105.28 1693.61,1134.64 1697.01,1157.6 1700.4,1170.87 1703.8,1172.54 1707.2,1162.37 1710.6,1141.82 1714,1113.84 1717.4,1082.44 1720.8,1052.14 1724.19,1027.28 1727.59,1011.42 1730.99,1006.86 1734.39,1014.23 1737.79,1032.49 1741.19,1059.02 1744.58,1090 1747.98,1121 1751.38,1147.56 1754.78,1165.88 1758.18,1173.33 1761.58,1173.33 1764.97,1183.66 1768.37,1204.34 1771.77,1232.42 1775.17,1263.87 1778.57,1294.18 1781.97,1319 1785.36,1334.78 1788.76,1339.26 1792.16,1331.8 1795.56,1313.47 1798.96,1286.92 1802.36,1255.95 1805.76,1225.01 1809.15,1198.56 1812.55,1180.38 1815.95,1173.1 1819.35,1177.76 1822.75,1193.7 1826.15,1218.63 1829.54,1248.97 1832.94,1280.38 1836.34,1308.35 1839.74,1328.87 1843.14,1339 1846.54,1337.28 1849.93,1323.96 1853.33,1300.96 1856.73,1271.58 1860.13,1240.04 1863.53,1210.87 1866.93,1188.26 1870.32,1175.45 1873.72,1174.28 1877.12,1184.92 1880.52,1205.85 1883.92,1234.06 1887.32,1265.51 1890.72,1295.67 1894.11,1320.23 1897.51,1335.66 1900.91,1339.74 1904.31,1331.89 1907.71,1313.23 1911.11,1286.44 1914.5,1255.37 1917.9,1224.48 1921.3,1198.19 1924.7,1180.28 1928.1,1173.33 1931.5,1173.33 1934.89,1162.52 1938.29,1141.46 1941.69,1113.15 1945.09,1081.66 1948.49,1051.49 1951.89,1026.97 1955.28,1011.62 1958.68,1007.63 1962.08,1015.56 1965.48,1034.29 1968.88,1061.1 1972.28,1092.16 1975.68,1122.99 1979.07,1149.16 1982.47,1166.92 1985.87,1173.72 1989.27,1168.56 1992.67,1152.2 1996.07,1126.96 1999.46,1096.48 2002.86,1065.12 2006.26,1037.37 2009.66,1017.23 2013.06,1007.57 2016.46,1009.78 2019.85,1023.54 2023.25,1046.87 2026.65,1076.43 2030.05,1107.95 2033.45,1136.93 2036.85,1159.19 2040.24,1171.54 2043.64,1172.21 2047.04,1161.09 2050.44,1139.79 2053.84,1111.36 2057.24,1079.87 2060.64,1049.84 2064.03,1025.6 2067.43,1010.6 2070.83,1007.01 2074.23,1015.34 2077.63,1034.39 2081.03,1061.43 2084.42,1092.58 2087.82,1123.36 2091.22,1149.37 2094.62,1166.86 2098.02,1173.33 2101.42,1173.33 2104.81,1184.6 2108.21,1206.04 2111.61,1234.56 2115.01,1266.1 2118.41,1296.12 2121.81,1320.33 2125.2,1335.25 2128.6,1338.75 2132,1330.34 2135.4,1311.22 2138.8,1284.16 2142.2,1253.03 2145.6,1222.31 2148.99,1196.41 2152.39,1179.07 2155.79,1172.77 2159.19,1178.42 2162.59,1195.21 2165.99,1220.74 2169.38,1251.36 2172.78,1282.66 2176.18,1310.17 2179.58,1329.93 2182.98,1339.12 2186.38,1336.42 2189.77,1322.22 2193.17,1298.56 2196.57,1268.85 2199.97,1237.34 2203.37,1208.57 2206.77,1186.67 2210.16,1174.78 2213.56,1174.61 2216.96,1186.19 2220.36,1207.86 2223.76,1236.52 2227.16,1268.04 2230.56,1297.91 2233.95,1321.84 2237.35,1336.4 2240.75,1339.51 2244.15,1330.71 2247.55,1311.27 2250.95,1283.98 2254.34,1252.76 2257.74,1222.09 2261.14,1196.37 2264.54,1179.3 2267.94,1173.33 "/>
</svg>
