<?xml version="1.0" encoding="utf-8"?>
<svg xmlns="http://www.w3.org/2000/svg" xmlns:xlink="http://www.w3.org/1999/xlink" width="600" height="400" viewBox="0 0 2400 1600">
<defs>
  <clipPath id="clip990">
    <rect x="0" y="0" width="2400" height="1600"/>
  </clipPath>
</defs>
<path clip-path="url(#clip990)" d="M0 1600 L2400 1600 L2400 0 L0 0  Z" fill="#ffffff" fill-rule="evenodd" fill-opacity="1"/>
<defs>
  <clipPath id="clip991">
    <rect x="480" y="0" width="1681" height="1600"/>
  </clipPath>
</defs>
<path clip-path="url(#clip990)" d="M147.478 623.18 L2352.76 623.18 L2352.76 216.904 L147.478 216.904  Z" fill="#ffffff" fill-rule="evenodd" fill-opacity="1"/>
<defs>
  <clipPath id="clip992">
    <rect x="147" y="216" width="2206" height="407"/>
  </clipPath>
</defs>
<polyline clip-path="url(#clip992)" style="stroke:#000000; stroke-linecap:round; stroke-linejoin:round; stroke-width:2; stroke-opacity:0.1; fill:none" points="232.296,623.18 232.296,216.904 "/>
<polyline clip-path="url(#clip992)" style="stroke:#000000; stroke-linecap:round; stroke-linejoin:round; stroke-width:2; stroke-opacity:0.1; fill:none" points="401.933,623.18 401.933,216.904 "/>
<polyline clip-path="url(#clip992)" style="stroke:#000000; stroke-linecap:round; stroke-linejoin:round; stroke-width:2; stroke-opacity:0.1; fill:none" points="571.57,623.18 571.57,216.904 "/>
<polyline clip-path="url(#clip992)" style="stroke:#000000; stroke-linecap:round; stroke-linejoin:round; stroke-width:2; stroke-opacity:0.1; fill:none" points="741.207,623.18 741.207,216.904 "/>
<polyline clip-path="url(#clip992)" style="stroke:#000000; stroke-linecap:round; stroke-linejoin:round; stroke-width:2; stroke-opacity:0.1; fill:none" points="910.843,623.18 910.843,216.904 "/>
<polyline clip-path="url(#clip992)" style="stroke:#000000; stroke-linecap:round; stroke-linejoin:round; stroke-width:2; stroke-opacity:0.1; fill:none" points="1080.48,623.18 1080.48,216.904 "/>
<polyline clip-path="url(#clip992)" style="stroke:#000000; stroke-linecap:round; stroke-linejoin:round; stroke-width:2; stroke-opacity:0.1; fill:none" points="1250.12,623.18 1250.12,216.904 "/>
<polyline clip-path="url(#clip992)" style="stroke:#000000; stroke-linecap:round; stroke-linejoin:round; stroke-width:2; stroke-opacity:0.1; fill:none" points="1419.75,623.18 1419.75,216.904 "/>
<polyline clip-path="url(#clip992)" style="stroke:#000000; stroke-linecap:round; stroke-linejoin:round; stroke-width:2; stroke-opacity:0.1; fill:none" points="1589.39,623.18 1589.39,216.904 "/>
<polyline clip-path="url(#clip992)" style="stroke:#000000; stroke-linecap:round; stroke-linejoin:round; stroke-width:2; stroke-opacity:0.1; fill:none" points="1759.03,623.18 1759.03,216.904 "/>
<polyline clip-path="url(#clip992)" style="stroke:#000000; stroke-linecap:round; stroke-linejoin:round; stroke-width:2; stroke-opacity:0.1; fill:none" points="1928.66,623.18 1928.66,216.904 "/>
<polyline clip-path="url(#clip992)" style="stroke:#000000; stroke-linecap:round; stroke-linejoin:round; stroke-width:2; stroke-opacity:0.1; fill:none" points="2098.3,623.18 2098.3,216.904 "/>
<polyline clip-path="url(#clip992)" style="stroke:#000000; stroke-linecap:round; stroke-linejoin:round; stroke-width:2; stroke-opacity:0.1; fill:none" points="2267.94,623.18 2267.94,216.904 "/>
<polyline clip-path="url(#clip990)" style="stroke:#000000; stroke-linecap:round; stroke-linejoin:round; stroke-width:4; stroke-opacity:1; fill:none" points="147.478,623.18 2352.76,623.18 "/>
<polyline clip-path="url(#clip990)" style="stroke:#000000; stroke-linecap:round; stroke-linejoin:round; stroke-width:4; stroke-opacity:1; fill:none" points="232.296,623.18 232.296,604.282 "/>
<polyline clip-path="url(#clip990)" style="stroke:#000000; stroke-linecap:round; stroke-linejoin:round; stroke-width:4; stroke-opacity:1; fill:none" points="401.933,623.18 401.933,604.282 "/>
<polyline clip-path="url(#clip990)" style="stroke:#000000; stroke-linecap:round; stroke-linejoin:round; stroke-width:4; stroke-opacity:1; fill:none" points="571.57,623.18 571.57,604.282 "/>
<polyline clip-path="url(#clip990)" style="stroke:#000000; stroke-linecap:round; stroke-linejoin:round; stroke-width:4; stroke-opacity:1; fill:none" points="741.207,623.18 741.207,604.282 "/>
<polyline clip-path="url(#clip990)" style="stroke:#000000; stroke-linecap:round; stroke-linejoin:round; stroke-width:4; stroke-opacity:1; fill:none" points="910.843,623.18 910.843,604.282 "/>
<polyline clip-path="url(#clip990)" style="stroke:#000000; stroke-linecap:round; stroke-linejoin:round; stroke-width:4; stroke-opacity:1; fill:none" points="1080.48,623.18 1080.48,604.282 "/>
<polyline clip-path="url(#clip990)" style="stroke:#000000; stroke-linecap:round; stroke-linejoin:round; stroke-width:4; stroke-opacity:1; fill:none" points="1250.12,623.18 1250.12,604.282 "/>
<polyline clip-path="url(#clip990)" style="stroke:#000000; stroke-linecap:round; stroke-linejoin:round; stroke-width:4; stroke-opacity:1; fill:none" points="1419.75,623.18 1419.75,604.282 "/>
<polyline clip-path="url(#clip990)" style="stroke:#000000; stroke-linecap:round; stroke-linejoin:round; stroke-width:4; stroke-opacity:1; fill:none" points="1589.39,623.18 1589.39,604.282 "/>
<polyline clip-path="url(#clip990)" style="stroke:#000000; stroke-linecap:round; stroke-linejoin:round; stroke-width:4; stroke-opacity:1; fill:none" points="1759.03,623.18 1759.03,604.282 "/>
<polyline clip-path="url(#clip990)" style="stroke:#000000; stroke-linecap:round; stroke-linejoin:round; stroke-width:4; stroke-opacity:1; fill:none" points="1928.66,623.18 1928.66,604.282 "/>
<polyline clip-path="url(#clip990)" style="stroke:#000000; stroke-linecap:round; stroke-linejoin:round; stroke-width:4; stroke-opacity:1; fill:none" points="2098.3,623.18 2098.3,604.282 "/>
<polyline clip-path="url(#clip990)" style="stroke:#000000; stroke-linecap:round; stroke-linejoin:round; stroke-width:4; stroke-opacity:1; fill:none" points="2267.94,623.18 2267.94,604.282 "/>
<path clip-path="url(#clip990)" d="M232.296 654.099 Q228.685 654.099 226.857 657.663 Q225.051 661.205 225.051 668.335 Q225.051 675.441 226.857 679.006 Q228.685 682.547 232.296 682.547 Q235.931 682.547 237.736 679.006 Q239.565 675.441 239.565 668.335 Q239.565 661.205 237.736 657.663 Q235.931 654.099 232.296 654.099 M232.296 650.395 Q238.106 650.395 241.162 655.001 Q244.241 659.585 244.241 668.335 Q244.241 677.061 241.162 681.668 Q238.106 686.251 232.296 686.251 Q226.486 686.251 223.407 681.668 Q220.352 677.061 220.352 668.335 Q220.352 659.585 223.407 655.001 Q226.486 650.395 232.296 650.395 Z" fill="#000000" fill-rule="nonzero" fill-opacity="1" /><path clip-path="url(#clip990)" d="M392.315 681.645 L399.954 681.645 L399.954 655.279 L391.644 656.946 L391.644 652.687 L399.908 651.02 L404.584 651.02 L404.584 681.645 L412.222 681.645 L412.222 685.58 L392.315 685.58 L392.315 681.645 Z" fill="#000000" fill-rule="nonzero" fill-opacity="1" /><path clip-path="url(#clip990)" d="M566.223 681.645 L582.542 681.645 L582.542 685.58 L560.598 685.58 L560.598 681.645 Q563.26 678.89 567.843 674.26 Q572.449 669.608 573.63 668.265 Q575.875 665.742 576.755 664.006 Q577.658 662.247 577.658 660.557 Q577.658 657.802 575.713 656.066 Q573.792 654.33 570.69 654.33 Q568.491 654.33 566.037 655.094 Q563.607 655.858 560.829 657.409 L560.829 652.687 Q563.653 651.552 566.107 650.974 Q568.561 650.395 570.598 650.395 Q575.968 650.395 579.162 653.08 Q582.357 655.765 582.357 660.256 Q582.357 662.386 581.547 664.307 Q580.76 666.205 578.653 668.798 Q578.074 669.469 574.973 672.686 Q571.871 675.881 566.223 681.645 Z" fill="#000000" fill-rule="nonzero" fill-opacity="1" /><path clip-path="url(#clip990)" d="M745.454 666.946 Q748.811 667.663 750.686 669.932 Q752.584 672.2 752.584 675.534 Q752.584 680.649 749.065 683.45 Q745.547 686.251 739.065 686.251 Q736.889 686.251 734.575 685.811 Q732.283 685.395 729.829 684.538 L729.829 680.024 Q731.774 681.159 734.089 681.737 Q736.403 682.316 738.927 682.316 Q743.325 682.316 745.616 680.58 Q747.931 678.844 747.931 675.534 Q747.931 672.478 745.778 670.765 Q743.649 669.029 739.829 669.029 L735.802 669.029 L735.802 665.186 L740.014 665.186 Q743.464 665.186 745.292 663.821 Q747.121 662.432 747.121 659.839 Q747.121 657.177 745.223 655.765 Q743.348 654.33 739.829 654.33 Q737.908 654.33 735.709 654.747 Q733.51 655.163 730.871 656.043 L730.871 651.876 Q733.533 651.136 735.848 650.765 Q738.186 650.395 740.246 650.395 Q745.57 650.395 748.672 652.825 Q751.774 655.233 751.774 659.353 Q751.774 662.223 750.13 664.214 Q748.487 666.182 745.454 666.946 Z" fill="#000000" fill-rule="nonzero" fill-opacity="1" /><path clip-path="url(#clip990)" d="M913.853 655.094 L902.047 673.543 L913.853 673.543 L913.853 655.094 M912.626 651.02 L918.505 651.02 L918.505 673.543 L923.436 673.543 L923.436 677.432 L918.505 677.432 L918.505 685.58 L913.853 685.58 L913.853 677.432 L898.251 677.432 L898.251 672.918 L912.626 651.02 Z" fill="#000000" fill-rule="nonzero" fill-opacity="1" /><path clip-path="url(#clip990)" d="M1070.76 651.02 L1089.11 651.02 L1089.11 654.955 L1075.04 654.955 L1075.04 663.427 Q1076.06 663.08 1077.08 662.918 Q1078.1 662.733 1079.11 662.733 Q1084.9 662.733 1088.28 665.904 Q1091.66 669.075 1091.66 674.492 Q1091.66 680.071 1088.19 683.172 Q1084.72 686.251 1078.4 686.251 Q1076.22 686.251 1073.95 685.881 Q1071.71 685.51 1069.3 684.77 L1069.3 680.071 Q1071.38 681.205 1073.61 681.76 Q1075.83 682.316 1078.3 682.316 Q1082.31 682.316 1084.65 680.21 Q1086.98 678.103 1086.98 674.492 Q1086.98 670.881 1084.65 668.774 Q1082.31 666.668 1078.3 666.668 Q1076.43 666.668 1074.55 667.085 Q1072.7 667.501 1070.76 668.381 L1070.76 651.02 Z" fill="#000000" fill-rule="nonzero" fill-opacity="1" /><path clip-path="url(#clip990)" d="M1250.52 666.436 Q1247.37 666.436 1245.52 668.589 Q1243.69 670.742 1243.69 674.492 Q1243.69 678.219 1245.52 680.395 Q1247.37 682.547 1250.52 682.547 Q1253.67 682.547 1255.5 680.395 Q1257.35 678.219 1257.35 674.492 Q1257.35 670.742 1255.5 668.589 Q1253.67 666.436 1250.52 666.436 M1259.8 651.784 L1259.8 656.043 Q1258.05 655.21 1256.24 654.77 Q1254.46 654.33 1252.7 654.33 Q1248.07 654.33 1245.61 657.455 Q1243.18 660.58 1242.84 666.899 Q1244.2 664.886 1246.26 663.821 Q1248.32 662.733 1250.8 662.733 Q1256.01 662.733 1259.02 665.904 Q1262.05 669.052 1262.05 674.492 Q1262.05 679.816 1258.9 683.034 Q1255.75 686.251 1250.52 686.251 Q1244.53 686.251 1241.36 681.668 Q1238.18 677.061 1238.18 668.335 Q1238.18 660.14 1242.07 655.279 Q1245.96 650.395 1252.51 650.395 Q1254.27 650.395 1256.05 650.742 Q1257.86 651.089 1259.8 651.784 Z" fill="#000000" fill-rule="nonzero" fill-opacity="1" /><path clip-path="url(#clip990)" d="M1408.64 651.02 L1430.86 651.02 L1430.86 653.011 L1418.32 685.58 L1413.43 685.58 L1425.24 654.955 L1408.64 654.955 L1408.64 651.02 Z" fill="#000000" fill-rule="nonzero" fill-opacity="1" /><path clip-path="url(#clip990)" d="M1589.39 669.168 Q1586.06 669.168 1584.14 670.95 Q1582.24 672.733 1582.24 675.858 Q1582.24 678.983 1584.14 680.765 Q1586.06 682.547 1589.39 682.547 Q1592.72 682.547 1594.65 680.765 Q1596.57 678.96 1596.57 675.858 Q1596.57 672.733 1594.65 670.95 Q1592.75 669.168 1589.39 669.168 M1584.71 667.177 Q1581.71 666.436 1580.02 664.376 Q1578.35 662.316 1578.35 659.353 Q1578.35 655.21 1581.29 652.802 Q1584.25 650.395 1589.39 650.395 Q1594.55 650.395 1597.49 652.802 Q1600.43 655.21 1600.43 659.353 Q1600.43 662.316 1598.74 664.376 Q1597.08 666.436 1594.09 667.177 Q1597.47 667.964 1599.34 670.256 Q1601.24 672.548 1601.24 675.858 Q1601.24 680.881 1598.16 683.566 Q1595.11 686.251 1589.39 686.251 Q1583.67 686.251 1580.59 683.566 Q1577.54 680.881 1577.54 675.858 Q1577.54 672.548 1579.44 670.256 Q1581.33 667.964 1584.71 667.177 M1583 659.793 Q1583 662.478 1584.67 663.983 Q1586.36 665.487 1589.39 665.487 Q1592.4 665.487 1594.09 663.983 Q1595.8 662.478 1595.8 659.793 Q1595.8 657.108 1594.09 655.603 Q1592.4 654.099 1589.39 654.099 Q1586.36 654.099 1584.67 655.603 Q1583 657.108 1583 659.793 Z" fill="#000000" fill-rule="nonzero" fill-opacity="1" /><path clip-path="url(#clip990)" d="M1749.33 684.862 L1749.33 680.603 Q1751.09 681.436 1752.89 681.876 Q1754.7 682.316 1756.43 682.316 Q1761.06 682.316 1763.49 679.214 Q1765.95 676.089 1766.3 669.747 Q1764.95 671.737 1762.89 672.802 Q1760.83 673.867 1758.33 673.867 Q1753.15 673.867 1750.12 670.742 Q1747.11 667.594 1747.11 662.154 Q1747.11 656.83 1750.25 653.612 Q1753.4 650.395 1758.63 650.395 Q1764.63 650.395 1767.78 655.001 Q1770.95 659.585 1770.95 668.335 Q1770.95 676.506 1767.06 681.39 Q1763.19 686.251 1756.64 686.251 Q1754.88 686.251 1753.08 685.904 Q1751.27 685.557 1749.33 684.862 M1758.63 670.21 Q1761.78 670.21 1763.61 668.057 Q1765.46 665.904 1765.46 662.154 Q1765.46 658.427 1763.61 656.274 Q1761.78 654.099 1758.63 654.099 Q1755.49 654.099 1753.63 656.274 Q1751.81 658.427 1751.81 662.154 Q1751.81 665.904 1753.63 668.057 Q1755.49 670.21 1758.63 670.21 Z" fill="#000000" fill-rule="nonzero" fill-opacity="1" /><path clip-path="url(#clip990)" d="M1903.35 681.645 L1910.99 681.645 L1910.99 655.279 L1902.68 656.946 L1902.68 652.687 L1910.94 651.02 L1915.62 651.02 L1915.62 681.645 L1923.26 681.645 L1923.26 685.58 L1903.35 685.58 L1903.35 681.645 Z" fill="#000000" fill-rule="nonzero" fill-opacity="1" /><path clip-path="url(#clip990)" d="M1942.7 654.099 Q1939.09 654.099 1937.26 657.663 Q1935.46 661.205 1935.46 668.335 Q1935.46 675.441 1937.26 679.006 Q1939.09 682.547 1942.7 682.547 Q1946.34 682.547 1948.14 679.006 Q1949.97 675.441 1949.97 668.335 Q1949.97 661.205 1948.14 657.663 Q1946.34 654.099 1942.7 654.099 M1942.7 650.395 Q1948.51 650.395 1951.57 655.001 Q1954.65 659.585 1954.65 668.335 Q1954.65 677.061 1951.57 681.668 Q1948.51 686.251 1942.7 686.251 Q1936.89 686.251 1933.81 681.668 Q1930.76 677.061 1930.76 668.335 Q1930.76 659.585 1933.81 655.001 Q1936.89 650.395 1942.7 650.395 Z" fill="#000000" fill-rule="nonzero" fill-opacity="1" /><path clip-path="url(#clip990)" d="M2073.6 681.645 L2081.24 681.645 L2081.24 655.279 L2072.93 656.946 L2072.93 652.687 L2081.19 651.02 L2085.87 651.02 L2085.87 681.645 L2093.51 681.645 L2093.51 685.58 L2073.6 685.58 L2073.6 681.645 Z" fill="#000000" fill-rule="nonzero" fill-opacity="1" /><path clip-path="url(#clip990)" d="M2103.76 681.645 L2111.4 681.645 L2111.4 655.279 L2103.09 656.946 L2103.09 652.687 L2111.36 651.02 L2116.03 651.02 L2116.03 681.645 L2123.67 681.645 L2123.67 685.58 L2103.76 685.58 L2103.76 681.645 Z" fill="#000000" fill-rule="nonzero" fill-opacity="1" /><path clip-path="url(#clip990)" d="M2243.42 681.645 L2251.06 681.645 L2251.06 655.279 L2242.75 656.946 L2242.75 652.687 L2251.02 651.02 L2255.69 651.02 L2255.69 681.645 L2263.33 681.645 L2263.33 685.58 L2243.42 685.58 L2243.42 681.645 Z" fill="#000000" fill-rule="nonzero" fill-opacity="1" /><path clip-path="url(#clip990)" d="M2276.8 681.645 L2293.12 681.645 L2293.12 685.58 L2271.18 685.58 L2271.18 681.645 Q2273.84 678.89 2278.42 674.26 Q2283.03 669.608 2284.21 668.265 Q2286.46 665.742 2287.34 664.006 Q2288.24 662.247 2288.24 660.557 Q2288.24 657.802 2286.29 656.066 Q2284.37 654.33 2281.27 654.33 Q2279.07 654.33 2276.62 655.094 Q2274.19 655.858 2271.41 657.409 L2271.41 652.687 Q2274.23 651.552 2276.69 650.974 Q2279.14 650.395 2281.18 650.395 Q2286.55 650.395 2289.74 653.08 Q2292.94 655.765 2292.94 660.256 Q2292.94 662.386 2292.13 664.307 Q2291.34 666.205 2289.23 668.798 Q2288.66 669.469 2285.55 672.686 Q2282.45 675.881 2276.8 681.645 Z" fill="#000000" fill-rule="nonzero" fill-opacity="1" /><path clip-path="url(#clip990)" d="M1258.59 731.913 Q1258.59 732.815 1258.17 733.04 Q1257.75 733.233 1256.59 733.233 L1250.41 733.233 L1245.51 752.686 Q1245.13 754.393 1245.13 755.842 Q1245.13 757.452 1245.61 758.161 Q1246.12 758.869 1247.19 758.869 Q1249.28 758.869 1251.53 756.969 Q1253.82 755.069 1255.75 750.431 Q1256.01 749.819 1256.14 749.691 Q1256.3 749.53 1256.72 749.53 Q1257.53 749.53 1257.53 750.174 Q1257.53 750.399 1257.07 751.43 Q1256.66 752.46 1255.72 753.974 Q1254.82 755.488 1253.63 756.905 Q1252.47 758.322 1250.7 759.352 Q1248.93 760.351 1247.03 760.351 Q1244.35 760.351 1242.65 758.644 Q1240.97 756.937 1240.97 754.264 Q1240.97 753.394 1241.65 750.625 Q1242.32 747.823 1246 733.233 L1240.17 733.233 Q1239.36 733.233 1239.04 733.201 Q1238.75 733.169 1238.52 733.008 Q1238.33 732.815 1238.33 732.428 Q1238.33 731.816 1238.59 731.559 Q1238.85 731.269 1239.17 731.237 Q1239.52 731.172 1240.33 731.172 L1246.51 731.172 L1249.09 720.705 Q1249.34 719.675 1249.99 719.095 Q1250.67 718.483 1251.05 718.419 Q1251.44 718.322 1251.73 718.322 Q1252.6 718.322 1253.11 718.805 Q1253.63 719.256 1253.63 720.093 Q1253.63 720.544 1250.92 731.172 L1256.72 731.172 Q1257.46 731.172 1257.75 731.204 Q1258.07 731.237 1258.33 731.398 Q1258.59 731.559 1258.59 731.913 Z" fill="#000000" fill-rule="nonzero" fill-opacity="1" /><polyline clip-path="url(#clip992)" style="stroke:#000000; stroke-linecap:round; stroke-linejoin:round; stroke-width:2; stroke-opacity:0.1; fill:none" points="147.478,555.467 2352.76,555.467 "/>
<polyline clip-path="url(#clip992)" style="stroke:#000000; stroke-linecap:round; stroke-linejoin:round; stroke-width:2; stroke-opacity:0.1; fill:none" points="147.478,420.042 2352.76,420.042 "/>
<polyline clip-path="url(#clip992)" style="stroke:#000000; stroke-linecap:round; stroke-linejoin:round; stroke-width:2; stroke-opacity:0.1; fill:none" points="147.478,284.617 2352.76,284.617 "/>
<polyline clip-path="url(#clip990)" style="stroke:#000000; stroke-linecap:round; stroke-linejoin:round; stroke-width:4; stroke-opacity:1; fill:none" points="147.478,623.18 147.478,216.904 "/>
<polyline clip-path="url(#clip990)" style="stroke:#000000; stroke-linecap:round; stroke-linejoin:round; stroke-width:4; stroke-opacity:1; fill:none" points="147.478,555.467 166.376,555.467 "/>
<polyline clip-path="url(#clip990)" style="stroke:#000000; stroke-linecap:round; stroke-linejoin:round; stroke-width:4; stroke-opacity:1; fill:none" points="147.478,420.042 166.376,420.042 "/>
<polyline clip-path="url(#clip990)" style="stroke:#000000; stroke-linecap:round; stroke-linejoin:round; stroke-width:4; stroke-opacity:1; fill:none" points="147.478,284.617 166.376,284.617 "/>
<path clip-path="url(#clip990)" d="M50.9921 555.919 L80.6679 555.919 L80.6679 559.854 L50.9921 559.854 L50.9921 555.919 Z" fill="#000000" fill-rule="nonzero" fill-opacity="1" /><path clip-path="url(#clip990)" d="M91.5706 568.812 L99.2095 568.812 L99.2095 542.446 L90.8993 544.113 L90.8993 539.854 L99.1632 538.187 L103.839 538.187 L103.839 568.812 L111.478 568.812 L111.478 572.747 L91.5706 572.747 L91.5706 568.812 Z" fill="#000000" fill-rule="nonzero" fill-opacity="1" /><path clip-path="url(#clip990)" d="M99.5335 405.841 Q95.9224 405.841 94.0937 409.406 Q92.2882 412.947 92.2882 420.077 Q92.2882 427.183 94.0937 430.748 Q95.9224 434.29 99.5335 434.29 Q103.168 434.29 104.973 430.748 Q106.802 427.183 106.802 420.077 Q106.802 412.947 104.973 409.406 Q103.168 405.841 99.5335 405.841 M99.5335 402.137 Q105.344 402.137 108.399 406.744 Q111.478 411.327 111.478 420.077 Q111.478 428.804 108.399 433.41 Q105.344 437.993 99.5335 437.993 Q93.7234 437.993 90.6447 433.41 Q87.5892 428.804 87.5892 420.077 Q87.5892 411.327 90.6447 406.744 Q93.7234 402.137 99.5335 402.137 Z" fill="#000000" fill-rule="nonzero" fill-opacity="1" /><path clip-path="url(#clip990)" d="M91.5706 297.962 L99.2095 297.962 L99.2095 271.596 L90.8993 273.263 L90.8993 269.004 L99.1632 267.337 L103.839 267.337 L103.839 297.962 L111.478 297.962 L111.478 301.897 L91.5706 301.897 L91.5706 297.962 Z" fill="#000000" fill-rule="nonzero" fill-opacity="1" /><path clip-path="url(#clip990)" d="M1186.18 78.9872 Q1186.18 81.1904 1184.85 82.3688 Q1183.52 83.496 1181.78 83.496 Q1180.09 83.496 1178.75 82.3688 Q1177.47 81.1904 1177.47 79.0897 Q1177.47 77.6551 1178.4 76.3741 Q1179.32 75.042 1181.37 74.7858 Q1178.81 72.5826 1174.76 72.5826 Q1172.76 72.5826 1171.38 73.3512 Q1170.04 74.0685 1168.71 76.2717 Q1167.38 78.4748 1166.46 82.9837 Q1165.59 87.4925 1165.02 94.5119 L1163.03 120.643 Q1162.41 129.506 1160.21 146.927 Q1158.06 164.296 1157.03 168.293 Q1156.11 172.084 1154.72 175.21 Q1153.34 178.335 1151.29 181.051 Q1149.24 183.817 1146.27 185.354 Q1143.3 186.891 1139.71 186.891 Q1134.95 186.891 1131.57 184.381 Q1128.18 181.922 1128.18 178.181 Q1128.18 175.978 1129.52 174.8 Q1130.85 173.672 1132.59 173.672 Q1134.28 173.672 1135.56 174.8 Q1136.89 175.978 1136.89 178.079 Q1136.89 179.513 1135.97 180.794 Q1135.05 182.126 1133 182.383 Q1135.56 184.586 1139.71 184.586 Q1142.89 184.586 1144.99 182.741 Q1147.09 180.897 1148.63 175.978 Q1150.16 171.059 1150.83 162.657 L1152.83 136.526 Q1153.5 127.303 1155.65 110.139 Q1157.85 92.9748 1158.82 88.466 Q1162.92 70.277 1174.66 70.277 Q1179.42 70.277 1182.8 72.7876 Q1186.18 75.2469 1186.18 78.9872 Z" fill="#000000" fill-rule="nonzero" fill-opacity="1" /><path clip-path="url(#clip990)" d="M1138.85 233.882 Q1138.85 225.245 1141.03 220.54 Q1144.07 213.539 1151.24 213.539 Q1152.76 213.539 1154.34 213.969 Q1155.95 214.371 1157.96 215.949 Q1159.99 217.527 1161.23 220.11 Q1163.58 225.102 1163.58 233.882 Q1163.58 242.461 1161.4 247.138 Q1158.21 253.967 1151.18 253.967 Q1148.54 253.967 1145.85 252.618 Q1143.18 251.27 1141.49 248.027 Q1138.85 243.178 1138.85 233.882 M1143.72 233.165 Q1143.72 242.031 1144.36 245.56 Q1145.07 249.376 1147.02 251.04 Q1149 252.676 1151.18 252.676 Q1153.54 252.676 1155.49 250.925 Q1157.47 249.146 1158.07 245.33 Q1158.73 241.572 1158.7 233.165 Q1158.7 224.987 1158.13 221.716 Q1157.35 217.9 1155.29 216.38 Q1153.25 214.83 1151.18 214.83 Q1150.41 214.83 1149.58 215.06 Q1148.77 215.289 1147.6 215.949 Q1146.42 216.609 1145.5 218.245 Q1144.61 219.88 1144.18 222.348 Q1143.72 225.532 1143.72 233.165 Z" fill="#000000" fill-rule="nonzero" fill-opacity="1" /><path clip-path="url(#clip990)" d="M1154.22 23.3362 Q1154.22 23.8814 1154.11 24.3404 L1152.5 34.555 Q1152.42 35.3297 1152.25 35.6166 Q1152.1 35.9035 1151.64 35.9035 Q1150.93 35.9035 1150.93 35.1575 Q1150.93 34.7271 1151.1 34.0385 Q1151.59 30.7963 1151.59 29.3329 Q1151.59 28.3574 1151.38 27.6401 Q1151.21 26.8941 1150.93 26.3776 Q1150.67 25.8612 1150.06 25.5168 Q1149.46 25.1725 1148.89 24.9717 Q1148.31 24.7708 1147.28 24.6848 Q1146.25 24.57 1145.36 24.5413 Q1144.47 24.5126 1143.01 24.5126 Q1139.82 24.5126 1139.3 24.6274 Q1138.76 24.7708 1138.47 25.2012 Q1138.21 25.6029 1137.93 26.808 L1130.12 57.9967 L1129.89 59.2305 Q1129.89 59.9191 1130.32 60.1487 Q1130.75 60.3782 1132.07 60.5217 Q1133.97 60.6651 1135.83 60.6651 Q1135.89 60.6651 1136.01 60.6651 Q1136.64 60.6651 1136.89 60.6938 Q1137.15 60.6938 1137.41 60.7512 Q1137.67 60.8086 1137.73 60.9521 Q1137.81 61.0668 1137.81 61.2964 Q1137.81 61.8415 1137.58 62.1285 Q1137.35 62.3867 1137.12 62.4441 Q1136.92 62.4728 1136.52 62.4728 Q1135.72 62.4728 1134 62.4154 Q1132.28 62.358 1131.41 62.358 L1126.54 62.3006 L1121.54 62.358 Q1120.77 62.358 1119.13 62.4154 Q1117.5 62.4728 1116.72 62.4728 Q1115.72 62.4728 1115.72 61.7555 Q1115.72 60.9521 1116.09 60.8086 Q1116.49 60.6651 1118.19 60.6651 Q1120.57 60.6651 1121.86 60.5504 Q1123.15 60.4356 1123.84 60.0339 Q1124.56 59.6322 1124.76 59.2305 Q1124.96 58.8001 1125.19 57.8246 L1133.08 26.4637 Q1133.31 25.7751 1133.31 25.2299 Q1133.31 24.943 1133.22 24.8282 Q1133.16 24.7135 1132.79 24.6274 Q1132.42 24.5126 1131.64 24.5126 L1129.35 24.5126 Q1127 24.5126 1125.53 24.6274 Q1124.1 24.7135 1122.72 25.1438 Q1121.37 25.5742 1120.57 26.1768 Q1119.79 26.7793 1118.93 28.0131 Q1118.07 29.2469 1117.44 30.7389 Q1116.84 32.2309 1115.98 34.6697 Q1115.69 35.4731 1115.52 35.7027 Q1115.38 35.9035 1114.97 35.9035 Q1114.69 35.9035 1114.46 35.7314 Q1114.26 35.5305 1114.26 35.2723 Q1114.54 34.3254 1114.6 34.2107 L1118.13 23.8527 Q1118.42 23.0206 1118.67 22.8771 Q1118.96 22.705 1120.02 22.705 L1152.62 22.705 Q1153.13 22.705 1153.31 22.705 Q1153.48 22.705 1153.77 22.7624 Q1154.05 22.8197 1154.14 22.9632 Q1154.22 23.1067 1154.22 23.3362 Z" fill="#000000" fill-rule="nonzero" fill-opacity="1" /><path clip-path="url(#clip990)" d="M1178.95 67.3878 Q1178.41 69.9788 1177.71 71.4651 Q1176.58 73.7346 1174.67 73.7346 Q1173.23 73.7346 1172.2 72.8509 Q1171.18 71.9672 1170.94 70.6416 Q1168.31 73.7346 1165.57 73.7346 Q1163.16 73.7346 1161.64 71.9069 Q1160.11 70.0591 1160.11 67.1468 Q1160.11 64.2145 1161.56 61.4026 Q1163.02 58.5907 1165.33 56.8434 Q1167.64 55.096 1170.01 55.096 Q1172.52 55.096 1173.81 57.7271 Q1173.91 57.004 1174.37 56.4617 Q1174.83 55.9195 1175.54 55.9195 Q1176.08 55.9195 1176.4 56.2207 Q1176.72 56.5019 1176.72 57.0241 Q1176.72 57.2852 1176.44 58.4301 L1174.95 64.1743 L1174.05 67.89 Q1173.71 69.2557 1173.61 69.7578 Q1173.53 70.26 1173.53 70.9228 Q1173.53 72.8107 1174.75 72.8107 Q1175.36 72.8107 1175.84 72.4291 Q1176.32 72.0475 1176.7 71.2441 Q1177.08 70.4407 1177.32 69.6976 Q1177.56 68.9344 1177.89 67.7293 Q1177.99 67.2473 1178.07 67.1267 Q1178.17 66.9862 1178.45 66.9862 Q1178.95 66.9862 1178.95 67.3878 M1173.31 59.6151 Q1173.31 59.4343 1173.17 58.9322 Q1173.03 58.4301 1172.7 57.7271 Q1172.38 57.0241 1171.68 56.522 Q1171 55.9998 1170.07 55.9998 Q1168.83 55.9998 1167.52 57.0643 Q1166.24 58.1288 1165.29 59.9364 Q1164.57 61.3825 1163.79 64.4153 Q1163.02 67.4481 1163.02 68.9545 Q1163.02 69.8784 1163.22 70.7018 Q1163.45 71.5052 1164.07 72.168 Q1164.69 72.8107 1165.65 72.8107 Q1168 72.8107 1170.31 69.8984 Q1170.76 69.3963 1170.86 69.1955 Q1170.98 68.9745 1171.14 68.372 L1173.19 60.318 Q1173.31 59.7155 1173.31 59.6151 Z" fill="#000000" fill-rule="nonzero" fill-opacity="1" /><path clip-path="url(#clip990)" d="M1253.34 96.4384 L1248.79 114.802 Q1248.55 115.908 1248.34 116.195 Q1248.14 116.482 1247.56 116.482 Q1247.11 116.482 1246.83 116.277 Q1246.58 116.072 1246.58 115.867 L1246.54 115.662 Q1246.54 115.539 1246.62 114.925 Q1246.7 114.269 1246.79 113.203 Q1246.87 112.137 1246.87 110.949 Q1246.87 104.226 1243.59 101.111 Q1240.35 97.955 1234.78 97.955 Q1230.92 97.955 1227.48 100.004 Q1224.04 102.054 1222.07 105.292 Q1220.1 108.489 1220.1 111.85 Q1220.1 114.925 1221.66 116.892 Q1223.22 118.86 1225.23 119.515 L1230.84 121.032 Q1236.74 122.549 1238.42 123.204 Q1240.1 123.819 1241.5 125.213 Q1245.64 129.066 1245.64 135.05 Q1245.64 140.215 1242.73 145.216 Q1239.82 150.175 1234.82 153.413 Q1229.82 156.611 1224.28 156.611 Q1214.57 156.611 1210.1 150.585 L1206 155.34 Q1205.22 156.242 1204.98 156.406 Q1204.77 156.611 1204.48 156.611 Q1204.12 156.611 1203.83 156.365 Q1203.54 156.16 1203.54 155.791 Q1203.54 155.504 1205.96 145.871 Q1208.38 136.239 1208.58 136.034 Q1208.91 135.706 1209.44 135.706 Q1210.43 135.706 1210.43 136.649 Q1210.35 136.895 1210.26 137.223 Q1209.77 140.174 1209.77 141.773 Q1209.77 144.765 1210.8 147.06 Q1211.82 149.315 1213.34 150.626 Q1214.9 151.897 1216.99 152.717 Q1219.08 153.495 1220.84 153.782 Q1222.6 154.028 1224.45 154.028 Q1228.42 154.028 1231.95 151.733 Q1235.51 149.438 1237.52 145.871 Q1239.57 142.305 1239.57 138.575 Q1239.57 136.608 1239.04 135.091 Q1238.51 133.534 1237.77 132.673 Q1237.07 131.812 1235.88 131.156 Q1234.69 130.5 1233.87 130.255 Q1233.1 129.968 1231.87 129.681 L1222.89 127.303 Q1219.28 126.238 1216.7 123.163 Q1214.16 120.089 1214.16 115.375 Q1214.16 110.416 1217.07 105.825 Q1220.02 101.193 1224.82 98.4059 Q1229.65 95.5776 1234.86 95.5776 Q1238.96 95.5776 1242.11 97.1762 Q1245.27 98.7338 1246.87 101.644 L1250.93 96.8483 Q1251.75 95.9055 1251.91 95.7416 Q1252.11 95.5776 1252.4 95.5776 Q1252.89 95.5776 1253.1 95.8645 Q1253.34 96.1515 1253.34 96.4384 Z" fill="#000000" fill-rule="nonzero" fill-opacity="1" /><path clip-path="url(#clip990)" d="M1261.81 161.058 Q1261.81 152.422 1264 147.716 Q1267.04 140.715 1274.21 140.715 Q1275.73 140.715 1277.31 141.146 Q1278.92 141.547 1280.92 143.125 Q1282.96 144.703 1284.19 147.286 Q1286.55 152.278 1286.55 161.058 Q1286.55 169.637 1284.37 174.314 Q1281.18 181.143 1274.15 181.143 Q1271.51 181.143 1268.82 179.794 Q1266.15 178.446 1264.45 175.204 Q1261.81 170.355 1261.81 161.058 M1266.69 160.341 Q1266.69 169.207 1267.32 172.736 Q1268.04 176.552 1269.99 178.216 Q1271.97 179.852 1274.15 179.852 Q1276.5 179.852 1278.46 178.102 Q1280.44 176.323 1281.04 172.506 Q1281.7 168.748 1281.67 160.341 Q1281.67 152.164 1281.1 148.893 Q1280.32 145.076 1278.26 143.556 Q1276.22 142.006 1274.15 142.006 Q1273.38 142.006 1272.55 142.236 Q1271.74 142.465 1270.57 143.125 Q1269.39 143.785 1268.47 145.421 Q1267.58 147.056 1267.15 149.524 Q1266.69 152.709 1266.69 160.341 Z" fill="#000000" fill-rule="nonzero" fill-opacity="1" /><path clip-path="url(#clip990)" d="M1356.16 96.4384 L1351.61 114.802 Q1351.36 115.908 1351.16 116.195 Q1350.95 116.482 1350.38 116.482 Q1349.93 116.482 1349.64 116.277 Q1349.39 116.072 1349.39 115.867 L1349.35 115.662 Q1349.35 115.539 1349.43 114.925 Q1349.52 114.269 1349.6 113.203 Q1349.68 112.137 1349.68 110.949 Q1349.68 104.226 1346.4 101.111 Q1343.16 97.955 1337.59 97.955 Q1333.74 97.955 1330.29 100.004 Q1326.85 102.054 1324.88 105.292 Q1322.91 108.489 1322.91 111.85 Q1322.91 114.925 1324.47 116.892 Q1326.03 118.86 1328.04 119.515 L1333.65 121.032 Q1339.56 122.549 1341.24 123.204 Q1342.92 123.819 1344.31 125.213 Q1348.45 129.066 1348.45 135.05 Q1348.45 140.215 1345.54 145.216 Q1342.63 150.175 1337.63 153.413 Q1332.63 156.611 1327.09 156.611 Q1317.38 156.611 1312.91 150.585 L1308.81 155.34 Q1308.03 156.242 1307.79 156.406 Q1307.58 156.611 1307.3 156.611 Q1306.93 156.611 1306.64 156.365 Q1306.35 156.16 1306.35 155.791 Q1306.35 155.504 1308.77 145.871 Q1311.19 136.239 1311.4 136.034 Q1311.72 135.706 1312.26 135.706 Q1313.24 135.706 1313.24 136.649 Q1313.16 136.895 1313.08 137.223 Q1312.58 140.174 1312.58 141.773 Q1312.58 144.765 1313.61 147.06 Q1314.63 149.315 1316.15 150.626 Q1317.71 151.897 1319.8 152.717 Q1321.89 153.495 1323.65 153.782 Q1325.41 154.028 1327.26 154.028 Q1331.23 154.028 1334.76 151.733 Q1338.33 149.438 1340.33 145.871 Q1342.38 142.305 1342.38 138.575 Q1342.38 136.608 1341.85 135.091 Q1341.32 133.534 1340.58 132.673 Q1339.88 131.812 1338.69 131.156 Q1337.51 130.5 1336.69 130.255 Q1335.91 129.968 1334.68 129.681 L1325.7 127.303 Q1322.09 126.238 1319.51 123.163 Q1316.97 120.089 1316.97 115.375 Q1316.97 110.416 1319.88 105.825 Q1322.83 101.193 1327.63 98.4059 Q1332.46 95.5776 1337.67 95.5776 Q1341.77 95.5776 1344.93 97.1762 Q1348.08 98.7338 1349.68 101.644 L1353.74 96.8483 Q1354.56 95.9055 1354.72 95.7416 Q1354.93 95.5776 1355.21 95.5776 Q1355.71 95.5776 1355.91 95.8645 Q1356.16 96.1515 1356.16 96.4384 Z" fill="#000000" fill-rule="nonzero" fill-opacity="1" /><path clip-path="url(#clip990)" d="M1391.22 158.558 Q1391.22 160.193 1390.22 161.169 Q1389.25 162.144 1388.01 162.144 Q1386.92 162.144 1386.35 161.513 Q1385.77 160.882 1385.77 160.078 Q1385.77 159.734 1385.92 159.304 Q1386.06 158.845 1386.38 158.299 Q1386.72 157.754 1387.44 157.353 Q1388.15 156.951 1389.13 156.893 Q1388.93 156.693 1388.87 156.664 Q1388.44 156.32 1387.64 156.205 Q1387.52 156.147 1387.12 156.147 Q1385.14 156.147 1383.13 157.611 Q1381.15 159.045 1378.71 161.771 Q1375.64 164.956 1373.67 166.132 Q1382.36 167.28 1382.36 172.301 Q1382.36 173.133 1382.13 174.138 Q1381.67 176.031 1381.67 177.409 Q1381.67 180.163 1383.54 180.163 Q1385.34 180.163 1386.49 178.327 Q1387.67 176.49 1388.64 172.904 Q1388.79 172.244 1388.93 172.043 Q1389.07 171.842 1389.47 171.842 Q1390.19 171.842 1390.19 172.416 Q1389.53 175.773 1388.07 178.355 Q1386.2 181.483 1383.42 181.483 Q1381.1 181.483 1379.55 179.876 Q1378.03 178.241 1378.03 175.658 Q1378.03 175.027 1378.26 173.592 Q1378.43 173.019 1378.43 172.359 Q1378.43 171.01 1377.68 170.006 Q1376.94 168.973 1375.73 168.457 Q1374.53 167.94 1373.52 167.711 Q1372.55 167.452 1371.6 167.366 Q1368.73 179.503 1368.33 180.249 Q1368.07 180.766 1367.5 181.11 Q1366.92 181.483 1366.32 181.483 Q1365.75 181.483 1365.17 181.081 Q1364.63 180.708 1364.63 179.819 Q1364.63 179.36 1364.86 178.528 L1373.38 144.67 L1373.55 143.523 Q1373.55 143.178 1373.41 143.006 Q1373.29 142.805 1372.6 142.662 Q1371.94 142.519 1370.62 142.519 Q1370.08 142.519 1369.82 142.49 Q1369.59 142.461 1369.39 142.318 Q1369.19 142.146 1369.19 141.801 Q1369.19 141.313 1369.39 141.055 Q1369.62 140.768 1369.79 140.711 Q1369.96 140.654 1370.31 140.625 Q1370.8 140.596 1372.43 140.453 Q1374.07 140.281 1375.47 140.166 Q1376.88 140.051 1377.48 140.051 Q1377.83 140.051 1378 140.223 Q1378.2 140.367 1378.23 140.539 L1378.26 140.682 L1372.14 165.473 Q1374.67 164.468 1378.66 160.021 Q1383.28 154.856 1387.24 154.856 Q1389.1 154.856 1390.16 156.004 Q1391.22 157.123 1391.22 158.558 Z" fill="#000000" fill-rule="nonzero" fill-opacity="1" /><polyline clip-path="url(#clip992)" style="stroke:#009af9; stroke-linecap:round; stroke-linejoin:round; stroke-width:8; stroke-opacity:1; fill:none" points="232.296,420.042 235.695,419.848 239.093,419.098 242.491,417.512 245.89,414.929 249.288,411.331 252.687,406.845 256.085,401.727 259.483,396.322 262.882,391.019 266.28,386.189 269.679,382.137 273.077,379.057 276.475,377.002 279.874,375.879 283.272,375.461 286.671,375.419 290.069,375.372 293.467,374.938 296.866,373.792 300.264,371.71 303.663,368.603 307.061,364.531 310.459,359.688 313.858,354.384 317.256,348.993 320.655,343.9 324.053,339.449 327.451,335.894 330.85,333.356 334.248,331.814 337.647,331.102 341.045,330.937 344.443,330.955 347.842,330.768 351.24,330.017 354.639,328.424 358.037,325.832 361.435,322.228 364.834,317.743 368.232,312.637 371.631,307.257 375.029,301.991 378.427,297.211 381.826,293.217 385.224,290.2 388.623,288.209 392.021,287.145 395.419,286.778 398.818,286.778 402.216,420.042 405.615,420.252 409.013,421.032 412.411,422.656 415.81,425.282 419.208,428.922 422.607,433.44 426.005,438.578 429.403,443.987 432.802,449.279 436.2,454.083 439.599,458.099 442.997,461.138 446.395,463.154 449.794,464.244 453.192,464.642 456.591,464.678 459.989,464.736 463.387,465.196 466.786,466.38 470.184,468.506 473.583,471.657 476.981,475.77 480.379,480.641 483.778,485.959 487.176,491.35 490.575,496.426 493.973,500.847 497.371,504.367 500.77,506.866 504.168,508.374 507.567,509.061 510.965,509.216 514.363,509.203 517.762,509.411 521.16,510.197 524.559,511.834 527.957,514.474 531.355,518.123 534.754,522.645 538.152,527.776 541.551,533.165 544.949,538.423 548.347,543.183 551.746,547.145 555.144,550.127 558.543,552.084 561.941,553.12 565.339,553.471 568.738,553.471 572.136,420.042 575.535,420.268 578.933,421.077 582.331,422.74 585.73,425.409 589.128,429.087 592.527,433.637 595.925,438.794 599.323,444.206 602.722,449.485 606.12,454.263 609.519,458.242 612.917,461.239 616.315,463.215 619.714,464.272 623.112,464.649 626.511,464.68 629.909,464.749 633.307,465.235 636.706,466.456 640.104,468.626 643.503,471.821 646.901,475.972 650.299,480.871 653.698,486.202 657.096,491.59 660.495,496.649 663.893,501.04 667.291,504.522 670.69,506.982 674.088,508.455 677.487,509.117 680.885,509.262 684.283,509.254 687.682,509.484 691.08,510.305 694.479,511.985 697.877,514.672 701.275,518.366 704.674,522.924 708.072,528.078 711.471,533.474 714.869,538.725 718.267,543.462 721.666,547.393 725.064,550.337 728.463,552.259 731.861,553.268 735.259,553.604 738.658,553.604 742.056,420.042 745.455,420.284 748.853,421.122 752.251,422.824 755.65,425.534 759.048,429.251 762.447,433.831 765.845,439.005 769.243,444.419 772.642,449.684 776.04,454.434 779.439,458.375 782.837,461.33 786.235,463.265 789.634,464.289 793.032,464.646 796.431,464.671 799.829,464.751 803.227,465.262 806.626,466.52 810.024,468.733 813.423,471.972 816.821,476.16 820.219,481.085 823.618,486.429 827.016,491.813 830.415,496.853 833.813,501.213 837.211,504.656 840.61,507.076 844.008,508.514 847.407,509.152 850.805,509.286 854.203,509.284 857.602,509.535 861,510.39 864.399,512.114 867.797,514.847 871.195,518.585 874.594,523.178 877.992,528.353 881.391,533.756 884.789,538.997 888.187,543.711 891.586,547.608 894.984,550.515 898.383,552.402 901.781,553.383 905.179,553.703 908.578,553.703 911.976,420.042 915.375,419.784 918.773,418.917 922.171,417.178 925.57,414.427 928.968,410.672 932.367,406.063 935.765,400.873 939.163,395.459 942.562,390.209 945.96,385.488 949.359,381.586 952.757,378.673 956.155,376.78 959.554,375.789 962.952,375.453 966.351,375.433 969.749,375.343 973.147,374.806 976.546,373.511 979.944,371.256 983.343,367.974 986.741,363.75 990.139,358.799 993.538,353.445 996.936,348.066 1000.33,343.047 1003.73,338.719 1007.13,335.315 1010.53,332.935 1013.93,331.532 1017.33,330.92 1020.72,330.797 1024.12,330.793 1027.52,330.521 1030.92,329.632 1034.32,327.864 1037.72,325.085 1041.12,321.305 1044.51,316.679 1047.91,311.483 1051.31,306.075 1054.71,300.845 1058.11,296.155 1061.51,292.292 1064.9,289.423 1068.3,287.573 1071.7,286.62 1075.1,286.315 1078.5,286.315 1081.9,420.042 1085.29,420.316 1088.69,421.211 1092.09,422.988 1095.49,425.779 1098.89,429.571 1102.29,434.208 1105.68,439.413 1109.08,444.826 1112.48,450.06 1115.88,454.75 1119.28,458.613 1122.68,461.481 1126.08,463.333 1129.47,464.291 1132.87,464.605 1136.27,464.619 1139.67,464.721 1143.07,465.283 1146.47,466.614 1149.86,468.912 1153.26,472.235 1156.66,476.495 1160.06,481.47 1163.46,486.834 1166.86,492.205 1170.25,497.203 1173.65,501.497 1177.05,504.861 1180.45,507.2 1183.85,508.568 1187.25,509.155 1190.64,509.267 1194.04,509.276 1197.44,509.57 1200.84,510.493 1204.24,512.303 1207.64,515.127 1211.04,518.949 1214.43,523.608 1217.83,528.823 1221.23,534.234 1224.63,539.452 1228.03,544.116 1231.43,547.945 1234.82,550.775 1238.22,552.589 1241.62,553.513 1245.02,553.802 1248.42,553.802 1251.82,420.042 1255.21,420.331 1258.61,421.256 1262.01,423.07 1265.41,425.9 1268.81,429.728 1272.21,434.392 1275.6,439.61 1279,445.021 1282.4,450.236 1285.8,454.895 1289.2,458.717 1292.6,461.542 1296,463.351 1299.39,464.275 1302.79,464.568 1306.19,464.577 1309.59,464.689 1312.99,465.277 1316.39,466.644 1319.78,468.983 1323.18,472.347 1326.58,476.642 1329.98,481.639 1333.38,487.011 1336.78,492.375 1340.17,497.349 1343.57,501.61 1346.97,504.933 1350.37,507.23 1353.77,508.561 1357.17,509.124 1360.56,509.225 1363.96,509.24 1367.36,509.554 1370.76,510.511 1374.16,512.363 1377.56,515.232 1380.96,519.094 1384.35,523.785 1387.75,529.018 1391.15,534.431 1394.55,539.636 1397.95,544.273 1401.35,548.065 1404.74,550.856 1408.14,552.633 1411.54,553.529 1414.94,553.802 1418.34,553.802 1421.74,420.042 1425.13,420.347 1428.53,421.3 1431.93,423.15 1435.33,426.019 1438.73,429.882 1442.13,434.572 1445.52,439.802 1448.92,445.21 1452.32,450.406 1455.72,455.032 1459.12,458.812 1462.52,461.591 1465.92,463.359 1469.31,464.248 1472.71,464.52 1476.11,464.524 1479.51,464.647 1482.91,465.259 1486.31,466.662 1489.7,469.042 1493.1,472.446 1496.5,476.774 1499.9,481.793 1503.3,487.172 1506.7,492.526 1510.09,497.477 1513.49,501.702 1516.89,504.983 1520.29,507.238 1523.69,508.533 1527.09,509.07 1530.48,509.161 1533.88,509.181 1537.28,509.516 1540.68,510.507 1544.08,512.4 1547.48,515.313 1550.88,519.215 1554.27,523.936 1557.67,529.186 1561.07,534.6 1564.47,539.79 1567.87,544.399 1571.27,548.154 1574.66,550.905 1578.06,552.644 1581.46,553.511 1584.86,553.769 1588.26,553.769 1591.66,420.042 1595.05,420.363 1598.45,421.343 1601.85,423.23 1605.25,426.137 1608.65,430.034 1612.05,434.748 1615.44,439.989 1618.84,445.392 1622.24,450.567 1625.64,455.16 1629.04,458.898 1632.44,461.631 1635.84,463.355 1639.23,464.21 1642.63,464.461 1646.03,464.459 1649.43,464.593 1652.83,465.231 1656.23,466.669 1659.62,469.089 1663.02,472.533 1666.42,476.893 1669.82,481.932 1673.22,487.316 1676.62,492.66 1680.01,497.585 1683.41,501.773 1686.81,505.012 1690.21,507.225 1693.61,508.483 1697.01,508.994 1700.4,509.074 1703.8,509.1 1707.2,509.456 1710.6,510.48 1714,512.415 1717.4,515.37 1720.8,519.312 1724.19,524.061 1727.59,529.326 1730.99,534.74 1734.39,539.914 1737.79,544.494 1741.19,548.212 1744.58,550.921 1747.98,552.623 1751.38,553.461 1754.78,553.703 1758.18,553.703 1761.58,420.042 1764.97,419.706 1768.37,418.697 1771.77,416.776 1775.17,413.831 1778.57,409.901 1781.97,405.163 1785.36,399.913 1788.76,394.516 1792.16,389.363 1795.56,384.805 1798.96,381.111 1802.36,378.424 1805.76,376.743 1809.15,375.922 1812.55,375.693 1815.95,375.7 1819.35,375.556 1822.75,374.893 1826.15,373.42 1829.54,370.96 1832.94,367.478 1836.34,363.087 1839.74,358.029 1843.14,352.641 1846.54,347.309 1849.93,342.41 1853.33,338.259 1856.73,335.064 1860.13,332.894 1863.53,331.673 1866.93,331.188 1870.32,331.119 1873.72,331.088 1877.12,330.711 1880.52,329.653 1883.92,327.678 1887.32,324.68 1890.72,320.701 1894.11,315.923 1897.51,310.644 1900.91,305.232 1904.31,300.076 1907.71,295.526 1911.11,291.847 1914.5,289.179 1917.9,287.515 1921.3,286.707 1924.7,286.481 1928.1,286.481 1931.5,420.042 1934.89,420.393 1938.29,421.43 1941.69,423.387 1945.09,426.368 1948.49,430.33 1951.89,435.09 1955.28,440.349 1958.68,445.738 1962.08,450.868 1965.48,455.39 1968.88,459.04 1972.28,461.679 1975.68,463.316 1979.07,464.102 1982.47,464.311 1985.87,464.298 1989.27,464.453 1992.67,465.14 1996.07,466.648 1999.46,469.147 2002.86,472.666 2006.26,477.087 2009.66,482.164 2013.06,487.554 2016.46,492.873 2019.85,497.744 2023.25,501.856 2026.65,505.007 2030.05,507.133 2033.45,508.317 2036.85,508.777 2040.24,508.835 2043.64,508.871 2047.04,509.269 2050.44,510.36 2053.84,512.375 2057.24,515.415 2060.64,519.43 2064.03,524.235 2067.43,529.527 2070.83,534.936 2074.23,540.074 2077.63,544.592 2081.03,548.231 2084.42,550.857 2087.82,552.482 2091.22,553.261 2094.62,553.471 2098.02,553.471 2101.42,420.042 2104.81,419.675 2108.21,418.612 2111.61,416.62 2115.01,413.603 2118.41,409.61 2121.81,404.829 2125.2,399.563 2128.6,394.183 2132,389.077 2135.4,384.592 2138.8,380.988 2142.2,378.396 2145.6,376.803 2148.99,376.052 2152.39,375.866 2155.79,375.884 2159.19,375.718 2162.59,375.007 2165.99,373.464 2169.38,370.927 2172.78,367.371 2176.18,362.921 2179.58,357.828 2182.98,352.436 2186.38,347.132 2189.77,342.29 2193.17,338.217 2196.57,335.111 2199.97,333.029 2203.37,331.883 2206.77,331.449 2210.16,331.402 2213.56,331.36 2216.96,330.941 2220.36,329.818 2223.76,327.763 2227.16,324.683 2230.56,320.631 2233.95,315.802 2237.35,310.498 2240.75,305.094 2244.15,299.976 2247.55,295.49 2250.95,291.891 2254.34,289.308 2257.74,287.722 2261.14,286.973 2264.54,286.778 2267.94,286.778 "/>
<path clip-path="url(#clip990)" d="M147.478 1423.18 L2352.76 1423.18 L2352.76 1016.9 L147.478 1016.9  Z" fill="#ffffff" fill-rule="evenodd" fill-opacity="1"/>
<defs>
  <clipPath id="clip993">
    <rect x="147" y="1016" width="2206" height="407"/>
  </clipPath>
</defs>
<polyline clip-path="url(#clip993)" style="stroke:#000000; stroke-linecap:round; stroke-linejoin:round; stroke-width:2; stroke-opacity:0.1; fill:none" points="232.296,1423.18 232.296,1016.9 "/>
<polyline clip-path="url(#clip993)" style="stroke:#000000; stroke-linecap:round; stroke-linejoin:round; stroke-width:2; stroke-opacity:0.1; fill:none" points="401.933,1423.18 401.933,1016.9 "/>
<polyline clip-path="url(#clip993)" style="stroke:#000000; stroke-linecap:round; stroke-linejoin:round; stroke-width:2; stroke-opacity:0.1; fill:none" points="571.57,1423.18 571.57,1016.9 "/>
<polyline clip-path="url(#clip993)" style="stroke:#000000; stroke-linecap:round; stroke-linejoin:round; stroke-width:2; stroke-opacity:0.1; fill:none" points="741.207,1423.18 741.207,1016.9 "/>
<polyline clip-path="url(#clip993)" style="stroke:#000000; stroke-linecap:round; stroke-linejoin:round; stroke-width:2; stroke-opacity:0.1; fill:none" points="910.843,1423.18 910.843,1016.9 "/>
<polyline clip-path="url(#clip993)" style="stroke:#000000; stroke-linecap:round; stroke-linejoin:round; stroke-width:2; stroke-opacity:0.1; fill:none" points="1080.48,1423.18 1080.48,1016.9 "/>
<polyline clip-path="url(#clip993)" style="stroke:#000000; stroke-linecap:round; stroke-linejoin:round; stroke-width:2; stroke-opacity:0.1; fill:none" points="1250.12,1423.18 1250.12,1016.9 "/>
<polyline clip-path="url(#clip993)" style="stroke:#000000; stroke-linecap:round; stroke-linejoin:round; stroke-width:2; stroke-opacity:0.1; fill:none" points="1419.75,1423.18 1419.75,1016.9 "/>
<polyline clip-path="url(#clip993)" style="stroke:#000000; stroke-linecap:round; stroke-linejoin:round; stroke-width:2; stroke-opacity:0.1; fill:none" points="1589.39,1423.18 1589.39,1016.9 "/>
<polyline clip-path="url(#clip993)" style="stroke:#000000; stroke-linecap:round; stroke-linejoin:round; stroke-width:2; stroke-opacity:0.1; fill:none" points="1759.03,1423.18 1759.03,1016.9 "/>
<polyline clip-path="url(#clip993)" style="stroke:#000000; stroke-linecap:round; stroke-linejoin:round; stroke-width:2; stroke-opacity:0.1; fill:none" points="1928.66,1423.18 1928.66,1016.9 "/>
<polyline clip-path="url(#clip993)" style="stroke:#000000; stroke-linecap:round; stroke-linejoin:round; stroke-width:2; stroke-opacity:0.1; fill:none" points="2098.3,1423.18 2098.3,1016.9 "/>
<polyline clip-path="url(#clip993)" style="stroke:#000000; stroke-linecap:round; stroke-linejoin:round; stroke-width:2; stroke-opacity:0.1; fill:none" points="2267.94,1423.18 2267.94,1016.9 "/>
<polyline clip-path="url(#clip990)" style="stroke:#000000; stroke-linecap:round; stroke-linejoin:round; stroke-width:4; stroke-opacity:1; fill:none" points="147.478,1423.18 2352.76,1423.18 "/>
<polyline clip-path="url(#clip990)" style="stroke:#000000; stroke-linecap:round; stroke-linejoin:round; stroke-width:4; stroke-opacity:1; fill:none" points="232.296,1423.18 232.296,1404.28 "/>
<polyline clip-path="url(#clip990)" style="stroke:#000000; stroke-linecap:round; stroke-linejoin:round; stroke-width:4; stroke-opacity:1; fill:none" points="401.933,1423.18 401.933,1404.28 "/>
<polyline clip-path="url(#clip990)" style="stroke:#000000; stroke-linecap:round; stroke-linejoin:round; stroke-width:4; stroke-opacity:1; fill:none" points="571.57,1423.18 571.57,1404.28 "/>
<polyline clip-path="url(#clip990)" style="stroke:#000000; stroke-linecap:round; stroke-linejoin:round; stroke-width:4; stroke-opacity:1; fill:none" points="741.207,1423.18 741.207,1404.28 "/>
<polyline clip-path="url(#clip990)" style="stroke:#000000; stroke-linecap:round; stroke-linejoin:round; stroke-width:4; stroke-opacity:1; fill:none" points="910.843,1423.18 910.843,1404.28 "/>
<polyline clip-path="url(#clip990)" style="stroke:#000000; stroke-linecap:round; stroke-linejoin:round; stroke-width:4; stroke-opacity:1; fill:none" points="1080.48,1423.18 1080.48,1404.28 "/>
<polyline clip-path="url(#clip990)" style="stroke:#000000; stroke-linecap:round; stroke-linejoin:round; stroke-width:4; stroke-opacity:1; fill:none" points="1250.12,1423.18 1250.12,1404.28 "/>
<polyline clip-path="url(#clip990)" style="stroke:#000000; stroke-linecap:round; stroke-linejoin:round; stroke-width:4; stroke-opacity:1; fill:none" points="1419.75,1423.18 1419.75,1404.28 "/>
<polyline clip-path="url(#clip990)" style="stroke:#000000; stroke-linecap:round; stroke-linejoin:round; stroke-width:4; stroke-opacity:1; fill:none" points="1589.39,1423.18 1589.39,1404.28 "/>
<polyline clip-path="url(#clip990)" style="stroke:#000000; stroke-linecap:round; stroke-linejoin:round; stroke-width:4; stroke-opacity:1; fill:none" points="1759.03,1423.18 1759.03,1404.28 "/>
<polyline clip-path="url(#clip990)" style="stroke:#000000; stroke-linecap:round; stroke-linejoin:round; stroke-width:4; stroke-opacity:1; fill:none" points="1928.66,1423.18 1928.66,1404.28 "/>
<polyline clip-path="url(#clip990)" style="stroke:#000000; stroke-linecap:round; stroke-linejoin:round; stroke-width:4; stroke-opacity:1; fill:none" points="2098.3,1423.18 2098.3,1404.28 "/>
<polyline clip-path="url(#clip990)" style="stroke:#000000; stroke-linecap:round; stroke-linejoin:round; stroke-width:4; stroke-opacity:1; fill:none" points="2267.94,1423.18 2267.94,1404.28 "/>
<path clip-path="url(#clip990)" d="M232.296 1454.1 Q228.685 1454.1 226.857 1457.66 Q225.051 1461.2 225.051 1468.33 Q225.051 1475.44 226.857 1479.01 Q228.685 1482.55 232.296 1482.55 Q235.931 1482.55 237.736 1479.01 Q239.565 1475.44 239.565 1468.33 Q239.565 1461.2 237.736 1457.66 Q235.931 1454.1 232.296 1454.1 M232.296 1450.39 Q238.106 1450.39 241.162 1455 Q244.241 1459.58 244.241 1468.33 Q244.241 1477.06 241.162 1481.67 Q238.106 1486.25 232.296 1486.25 Q226.486 1486.25 223.407 1481.67 Q220.352 1477.06 220.352 1468.33 Q220.352 1459.58 223.407 1455 Q226.486 1450.39 232.296 1450.39 Z" fill="#000000" fill-rule="nonzero" fill-opacity="1" /><path clip-path="url(#clip990)" d="M392.315 1481.64 L399.954 1481.64 L399.954 1455.28 L391.644 1456.95 L391.644 1452.69 L399.908 1451.02 L404.584 1451.02 L404.584 1481.64 L412.222 1481.64 L412.222 1485.58 L392.315 1485.58 L392.315 1481.64 Z" fill="#000000" fill-rule="nonzero" fill-opacity="1" /><path clip-path="url(#clip990)" d="M566.223 1481.64 L582.542 1481.64 L582.542 1485.58 L560.598 1485.58 L560.598 1481.64 Q563.26 1478.89 567.843 1474.26 Q572.449 1469.61 573.63 1468.27 Q575.875 1465.74 576.755 1464.01 Q577.658 1462.25 577.658 1460.56 Q577.658 1457.8 575.713 1456.07 Q573.792 1454.33 570.69 1454.33 Q568.491 1454.33 566.037 1455.09 Q563.607 1455.86 560.829 1457.41 L560.829 1452.69 Q563.653 1451.55 566.107 1450.97 Q568.561 1450.39 570.598 1450.39 Q575.968 1450.39 579.162 1453.08 Q582.357 1455.77 582.357 1460.26 Q582.357 1462.39 581.547 1464.31 Q580.76 1466.2 578.653 1468.8 Q578.074 1469.47 574.973 1472.69 Q571.871 1475.88 566.223 1481.64 Z" fill="#000000" fill-rule="nonzero" fill-opacity="1" /><path clip-path="url(#clip990)" d="M745.454 1466.95 Q748.811 1467.66 750.686 1469.93 Q752.584 1472.2 752.584 1475.53 Q752.584 1480.65 749.065 1483.45 Q745.547 1486.25 739.065 1486.25 Q736.889 1486.25 734.575 1485.81 Q732.283 1485.39 729.829 1484.54 L729.829 1480.02 Q731.774 1481.16 734.089 1481.74 Q736.403 1482.32 738.927 1482.32 Q743.325 1482.32 745.616 1480.58 Q747.931 1478.84 747.931 1475.53 Q747.931 1472.48 745.778 1470.77 Q743.649 1469.03 739.829 1469.03 L735.802 1469.03 L735.802 1465.19 L740.014 1465.19 Q743.464 1465.19 745.292 1463.82 Q747.121 1462.43 747.121 1459.84 Q747.121 1457.18 745.223 1455.77 Q743.348 1454.33 739.829 1454.33 Q737.908 1454.33 735.709 1454.75 Q733.51 1455.16 730.871 1456.04 L730.871 1451.88 Q733.533 1451.14 735.848 1450.77 Q738.186 1450.39 740.246 1450.39 Q745.57 1450.39 748.672 1452.83 Q751.774 1455.23 751.774 1459.35 Q751.774 1462.22 750.13 1464.21 Q748.487 1466.18 745.454 1466.95 Z" fill="#000000" fill-rule="nonzero" fill-opacity="1" /><path clip-path="url(#clip990)" d="M913.853 1455.09 L902.047 1473.54 L913.853 1473.54 L913.853 1455.09 M912.626 1451.02 L918.505 1451.02 L918.505 1473.54 L923.436 1473.54 L923.436 1477.43 L918.505 1477.43 L918.505 1485.58 L913.853 1485.58 L913.853 1477.43 L898.251 1477.43 L898.251 1472.92 L912.626 1451.02 Z" fill="#000000" fill-rule="nonzero" fill-opacity="1" /><path clip-path="url(#clip990)" d="M1070.76 1451.02 L1089.11 1451.02 L1089.11 1454.96 L1075.04 1454.96 L1075.04 1463.43 Q1076.06 1463.08 1077.08 1462.92 Q1078.1 1462.73 1079.11 1462.73 Q1084.9 1462.73 1088.28 1465.9 Q1091.66 1469.08 1091.66 1474.49 Q1091.66 1480.07 1088.19 1483.17 Q1084.72 1486.25 1078.4 1486.25 Q1076.22 1486.25 1073.95 1485.88 Q1071.71 1485.51 1069.3 1484.77 L1069.3 1480.07 Q1071.38 1481.2 1073.61 1481.76 Q1075.83 1482.32 1078.3 1482.32 Q1082.31 1482.32 1084.65 1480.21 Q1086.98 1478.1 1086.98 1474.49 Q1086.98 1470.88 1084.65 1468.77 Q1082.31 1466.67 1078.3 1466.67 Q1076.43 1466.67 1074.55 1467.08 Q1072.7 1467.5 1070.76 1468.38 L1070.76 1451.02 Z" fill="#000000" fill-rule="nonzero" fill-opacity="1" /><path clip-path="url(#clip990)" d="M1250.52 1466.44 Q1247.37 1466.44 1245.52 1468.59 Q1243.69 1470.74 1243.69 1474.49 Q1243.69 1478.22 1245.52 1480.39 Q1247.37 1482.55 1250.52 1482.55 Q1253.67 1482.55 1255.5 1480.39 Q1257.35 1478.22 1257.35 1474.49 Q1257.35 1470.74 1255.5 1468.59 Q1253.67 1466.44 1250.52 1466.44 M1259.8 1451.78 L1259.8 1456.04 Q1258.05 1455.21 1256.24 1454.77 Q1254.46 1454.33 1252.7 1454.33 Q1248.07 1454.33 1245.61 1457.45 Q1243.18 1460.58 1242.84 1466.9 Q1244.2 1464.89 1246.26 1463.82 Q1248.32 1462.73 1250.8 1462.73 Q1256.01 1462.73 1259.02 1465.9 Q1262.05 1469.05 1262.05 1474.49 Q1262.05 1479.82 1258.9 1483.03 Q1255.75 1486.25 1250.52 1486.25 Q1244.53 1486.25 1241.36 1481.67 Q1238.18 1477.06 1238.18 1468.33 Q1238.18 1460.14 1242.07 1455.28 Q1245.96 1450.39 1252.51 1450.39 Q1254.27 1450.39 1256.05 1450.74 Q1257.86 1451.09 1259.8 1451.78 Z" fill="#000000" fill-rule="nonzero" fill-opacity="1" /><path clip-path="url(#clip990)" d="M1408.64 1451.02 L1430.86 1451.02 L1430.86 1453.01 L1418.32 1485.58 L1413.43 1485.58 L1425.24 1454.96 L1408.64 1454.96 L1408.64 1451.02 Z" fill="#000000" fill-rule="nonzero" fill-opacity="1" /><path clip-path="url(#clip990)" d="M1589.39 1469.17 Q1586.06 1469.17 1584.14 1470.95 Q1582.24 1472.73 1582.24 1475.86 Q1582.24 1478.98 1584.14 1480.77 Q1586.06 1482.55 1589.39 1482.55 Q1592.72 1482.55 1594.65 1480.77 Q1596.57 1478.96 1596.57 1475.86 Q1596.57 1472.73 1594.65 1470.95 Q1592.75 1469.17 1589.39 1469.17 M1584.71 1467.18 Q1581.71 1466.44 1580.02 1464.38 Q1578.35 1462.32 1578.35 1459.35 Q1578.35 1455.21 1581.29 1452.8 Q1584.25 1450.39 1589.39 1450.39 Q1594.55 1450.39 1597.49 1452.8 Q1600.43 1455.21 1600.43 1459.35 Q1600.43 1462.32 1598.74 1464.38 Q1597.08 1466.44 1594.09 1467.18 Q1597.47 1467.96 1599.34 1470.26 Q1601.24 1472.55 1601.24 1475.86 Q1601.24 1480.88 1598.16 1483.57 Q1595.11 1486.25 1589.39 1486.25 Q1583.67 1486.25 1580.59 1483.57 Q1577.54 1480.88 1577.54 1475.86 Q1577.54 1472.55 1579.44 1470.26 Q1581.33 1467.96 1584.71 1467.18 M1583 1459.79 Q1583 1462.48 1584.67 1463.98 Q1586.36 1465.49 1589.39 1465.49 Q1592.4 1465.49 1594.09 1463.98 Q1595.8 1462.48 1595.8 1459.79 Q1595.8 1457.11 1594.09 1455.6 Q1592.4 1454.1 1589.39 1454.1 Q1586.36 1454.1 1584.67 1455.6 Q1583 1457.11 1583 1459.79 Z" fill="#000000" fill-rule="nonzero" fill-opacity="1" /><path clip-path="url(#clip990)" d="M1749.33 1484.86 L1749.33 1480.6 Q1751.09 1481.44 1752.89 1481.88 Q1754.7 1482.32 1756.43 1482.32 Q1761.06 1482.32 1763.49 1479.21 Q1765.95 1476.09 1766.3 1469.75 Q1764.95 1471.74 1762.89 1472.8 Q1760.83 1473.87 1758.33 1473.87 Q1753.15 1473.87 1750.12 1470.74 Q1747.11 1467.59 1747.11 1462.15 Q1747.11 1456.83 1750.25 1453.61 Q1753.4 1450.39 1758.63 1450.39 Q1764.63 1450.39 1767.78 1455 Q1770.95 1459.58 1770.95 1468.33 Q1770.95 1476.51 1767.06 1481.39 Q1763.19 1486.25 1756.64 1486.25 Q1754.88 1486.25 1753.08 1485.9 Q1751.27 1485.56 1749.33 1484.86 M1758.63 1470.21 Q1761.78 1470.21 1763.61 1468.06 Q1765.46 1465.9 1765.46 1462.15 Q1765.46 1458.43 1763.61 1456.27 Q1761.78 1454.1 1758.63 1454.1 Q1755.49 1454.1 1753.63 1456.27 Q1751.81 1458.43 1751.81 1462.15 Q1751.81 1465.9 1753.63 1468.06 Q1755.49 1470.21 1758.63 1470.21 Z" fill="#000000" fill-rule="nonzero" fill-opacity="1" /><path clip-path="url(#clip990)" d="M1903.35 1481.64 L1910.99 1481.64 L1910.99 1455.28 L1902.68 1456.95 L1902.68 1452.69 L1910.94 1451.02 L1915.62 1451.02 L1915.62 1481.64 L1923.26 1481.64 L1923.26 1485.58 L1903.35 1485.58 L1903.35 1481.64 Z" fill="#000000" fill-rule="nonzero" fill-opacity="1" /><path clip-path="url(#clip990)" d="M1942.7 1454.1 Q1939.09 1454.1 1937.26 1457.66 Q1935.46 1461.2 1935.46 1468.33 Q1935.46 1475.44 1937.26 1479.01 Q1939.09 1482.55 1942.7 1482.55 Q1946.34 1482.55 1948.14 1479.01 Q1949.97 1475.44 1949.97 1468.33 Q1949.97 1461.2 1948.14 1457.66 Q1946.34 1454.1 1942.7 1454.1 M1942.7 1450.39 Q1948.51 1450.39 1951.57 1455 Q1954.65 1459.58 1954.65 1468.33 Q1954.65 1477.06 1951.57 1481.67 Q1948.51 1486.25 1942.7 1486.25 Q1936.89 1486.25 1933.81 1481.67 Q1930.76 1477.06 1930.76 1468.33 Q1930.76 1459.58 1933.81 1455 Q1936.89 1450.39 1942.7 1450.39 Z" fill="#000000" fill-rule="nonzero" fill-opacity="1" /><path clip-path="url(#clip990)" d="M2073.6 1481.64 L2081.24 1481.64 L2081.24 1455.28 L2072.93 1456.95 L2072.93 1452.69 L2081.19 1451.02 L2085.87 1451.02 L2085.87 1481.64 L2093.51 1481.64 L2093.51 1485.58 L2073.6 1485.58 L2073.6 1481.64 Z" fill="#000000" fill-rule="nonzero" fill-opacity="1" /><path clip-path="url(#clip990)" d="M2103.76 1481.64 L2111.4 1481.64 L2111.4 1455.28 L2103.09 1456.95 L2103.09 1452.69 L2111.36 1451.02 L2116.03 1451.02 L2116.03 1481.64 L2123.67 1481.64 L2123.67 1485.58 L2103.76 1485.58 L2103.76 1481.64 Z" fill="#000000" fill-rule="nonzero" fill-opacity="1" /><path clip-path="url(#clip990)" d="M2243.42 1481.64 L2251.06 1481.64 L2251.06 1455.28 L2242.75 1456.95 L2242.75 1452.69 L2251.02 1451.02 L2255.69 1451.02 L2255.69 1481.64 L2263.33 1481.64 L2263.33 1485.58 L2243.42 1485.58 L2243.42 1481.64 Z" fill="#000000" fill-rule="nonzero" fill-opacity="1" /><path clip-path="url(#clip990)" d="M2276.8 1481.64 L2293.12 1481.64 L2293.12 1485.58 L2271.18 1485.58 L2271.18 1481.64 Q2273.84 1478.89 2278.42 1474.26 Q2283.03 1469.61 2284.21 1468.27 Q2286.46 1465.74 2287.34 1464.01 Q2288.24 1462.25 2288.24 1460.56 Q2288.24 1457.8 2286.29 1456.07 Q2284.37 1454.33 2281.27 1454.33 Q2279.07 1454.33 2276.62 1455.09 Q2274.19 1455.86 2271.41 1457.41 L2271.41 1452.69 Q2274.23 1451.55 2276.69 1450.97 Q2279.14 1450.39 2281.18 1450.39 Q2286.55 1450.39 2289.74 1453.08 Q2292.94 1455.77 2292.94 1460.26 Q2292.94 1462.39 2292.13 1464.31 Q2291.34 1466.2 2289.23 1468.8 Q2288.66 1469.47 2285.55 1472.69 Q2282.45 1475.88 2276.8 1481.64 Z" fill="#000000" fill-rule="nonzero" fill-opacity="1" /><path clip-path="url(#clip990)" d="M1258.59 1531.91 Q1258.59 1532.81 1258.17 1533.04 Q1257.75 1533.23 1256.59 1533.23 L1250.41 1533.23 L1245.51 1552.69 Q1245.13 1554.39 1245.13 1555.84 Q1245.13 1557.45 1245.61 1558.16 Q1246.12 1558.87 1247.19 1558.87 Q1249.28 1558.87 1251.53 1556.97 Q1253.82 1555.07 1255.75 1550.43 Q1256.01 1549.82 1256.14 1549.69 Q1256.3 1549.53 1256.72 1549.53 Q1257.53 1549.53 1257.53 1550.17 Q1257.53 1550.4 1257.07 1551.43 Q1256.66 1552.46 1255.72 1553.97 Q1254.82 1555.49 1253.63 1556.9 Q1252.47 1558.32 1250.7 1559.35 Q1248.93 1560.35 1247.03 1560.35 Q1244.35 1560.35 1242.65 1558.64 Q1240.97 1556.94 1240.97 1554.26 Q1240.97 1553.39 1241.65 1550.62 Q1242.32 1547.82 1246 1533.23 L1240.17 1533.23 Q1239.36 1533.23 1239.04 1533.2 Q1238.75 1533.17 1238.52 1533.01 Q1238.33 1532.81 1238.33 1532.43 Q1238.33 1531.82 1238.59 1531.56 Q1238.85 1531.27 1239.17 1531.24 Q1239.52 1531.17 1240.33 1531.17 L1246.51 1531.17 L1249.09 1520.71 Q1249.34 1519.67 1249.99 1519.09 Q1250.67 1518.48 1251.05 1518.42 Q1251.44 1518.32 1251.73 1518.32 Q1252.6 1518.32 1253.11 1518.81 Q1253.63 1519.26 1253.63 1520.09 Q1253.63 1520.54 1250.92 1531.17 L1256.72 1531.17 Q1257.46 1531.17 1257.75 1531.2 Q1258.07 1531.24 1258.33 1531.4 Q1258.59 1531.56 1258.59 1531.91 Z" fill="#000000" fill-rule="nonzero" fill-opacity="1" /><polyline clip-path="url(#clip993)" style="stroke:#000000; stroke-linecap:round; stroke-linejoin:round; stroke-width:2; stroke-opacity:0.1; fill:none" points="147.478,1355.47 2352.76,1355.47 "/>
<polyline clip-path="url(#clip993)" style="stroke:#000000; stroke-linecap:round; stroke-linejoin:round; stroke-width:2; stroke-opacity:0.1; fill:none" points="147.478,1220.04 2352.76,1220.04 "/>
<polyline clip-path="url(#clip993)" style="stroke:#000000; stroke-linecap:round; stroke-linejoin:round; stroke-width:2; stroke-opacity:0.1; fill:none" points="147.478,1084.62 2352.76,1084.62 "/>
<polyline clip-path="url(#clip990)" style="stroke:#000000; stroke-linecap:round; stroke-linejoin:round; stroke-width:4; stroke-opacity:1; fill:none" points="147.478,1423.18 147.478,1016.9 "/>
<polyline clip-path="url(#clip990)" style="stroke:#000000; stroke-linecap:round; stroke-linejoin:round; stroke-width:4; stroke-opacity:1; fill:none" points="147.478,1355.47 166.376,1355.47 "/>
<polyline clip-path="url(#clip990)" style="stroke:#000000; stroke-linecap:round; stroke-linejoin:round; stroke-width:4; stroke-opacity:1; fill:none" points="147.478,1220.04 166.376,1220.04 "/>
<polyline clip-path="url(#clip990)" style="stroke:#000000; stroke-linecap:round; stroke-linejoin:round; stroke-width:4; stroke-opacity:1; fill:none" points="147.478,1084.62 166.376,1084.62 "/>
<path clip-path="url(#clip990)" d="M50.9921 1355.92 L80.6679 1355.92 L80.6679 1359.85 L50.9921 1359.85 L50.9921 1355.92 Z" fill="#000000" fill-rule="nonzero" fill-opacity="1" /><path clip-path="url(#clip990)" d="M91.5706 1368.81 L99.2095 1368.81 L99.2095 1342.45 L90.8993 1344.11 L90.8993 1339.85 L99.1632 1338.19 L103.839 1338.19 L103.839 1368.81 L111.478 1368.81 L111.478 1372.75 L91.5706 1372.75 L91.5706 1368.81 Z" fill="#000000" fill-rule="nonzero" fill-opacity="1" /><path clip-path="url(#clip990)" d="M99.5335 1205.84 Q95.9224 1205.84 94.0937 1209.41 Q92.2882 1212.95 92.2882 1220.08 Q92.2882 1227.18 94.0937 1230.75 Q95.9224 1234.29 99.5335 1234.29 Q103.168 1234.29 104.973 1230.75 Q106.802 1227.18 106.802 1220.08 Q106.802 1212.95 104.973 1209.41 Q103.168 1205.84 99.5335 1205.84 M99.5335 1202.14 Q105.344 1202.14 108.399 1206.74 Q111.478 1211.33 111.478 1220.08 Q111.478 1228.8 108.399 1233.41 Q105.344 1237.99 99.5335 1237.99 Q93.7234 1237.99 90.6447 1233.41 Q87.5892 1228.8 87.5892 1220.08 Q87.5892 1211.33 90.6447 1206.74 Q93.7234 1202.14 99.5335 1202.14 Z" fill="#000000" fill-rule="nonzero" fill-opacity="1" /><path clip-path="url(#clip990)" d="M91.5706 1097.96 L99.2095 1097.96 L99.2095 1071.6 L90.8993 1073.26 L90.8993 1069 L99.1632 1067.34 L103.839 1067.34 L103.839 1097.96 L111.478 1097.96 L111.478 1101.9 L91.5706 1101.9 L91.5706 1097.96 Z" fill="#000000" fill-rule="nonzero" fill-opacity="1" /><path clip-path="url(#clip990)" d="M1188.83 878.987 Q1188.83 881.19 1187.49 882.369 Q1186.16 883.496 1184.42 883.496 Q1182.73 883.496 1181.4 882.369 Q1180.12 881.19 1180.12 879.09 Q1180.12 877.655 1181.04 876.374 Q1181.96 875.042 1184.01 874.786 Q1181.45 872.583 1177.4 872.583 Q1175.4 872.583 1174.02 873.351 Q1172.69 874.068 1171.35 876.272 Q1170.02 878.475 1169.1 882.984 Q1168.23 887.492 1167.66 894.512 L1165.67 920.643 Q1165.05 929.506 1162.85 946.927 Q1160.7 964.296 1159.67 968.293 Q1158.75 972.084 1157.37 975.21 Q1155.98 978.335 1153.93 981.051 Q1151.88 983.817 1148.91 985.354 Q1145.94 986.891 1142.35 986.891 Q1137.59 986.891 1134.21 984.381 Q1130.83 981.922 1130.83 978.181 Q1130.83 975.978 1132.16 974.8 Q1133.49 973.672 1135.23 973.672 Q1136.92 973.672 1138.2 974.8 Q1139.54 975.978 1139.54 978.079 Q1139.54 979.513 1138.61 980.794 Q1137.69 982.126 1135.64 982.383 Q1138.2 984.586 1142.35 984.586 Q1145.53 984.586 1147.63 982.741 Q1149.73 980.897 1151.27 975.978 Q1152.81 971.059 1153.47 962.657 L1155.47 936.526 Q1156.14 927.303 1158.29 910.139 Q1160.49 892.975 1161.47 888.466 Q1165.56 870.277 1177.3 870.277 Q1182.06 870.277 1185.44 872.788 Q1188.83 875.247 1188.83 878.987 Z" fill="#000000" fill-rule="nonzero" fill-opacity="1" /><path clip-path="url(#clip990)" d="M1141.49 1033.88 Q1141.49 1025.25 1143.67 1020.54 Q1146.71 1013.54 1153.88 1013.54 Q1155.4 1013.54 1156.98 1013.97 Q1158.59 1014.37 1160.6 1015.95 Q1162.63 1017.53 1163.87 1020.11 Q1166.22 1025.1 1166.22 1033.88 Q1166.22 1042.46 1164.04 1047.14 Q1160.86 1053.97 1153.83 1053.97 Q1151.19 1053.97 1148.49 1052.62 Q1145.82 1051.27 1144.13 1048.03 Q1141.49 1043.18 1141.49 1033.88 M1146.37 1033.16 Q1146.37 1042.03 1147 1045.56 Q1147.71 1049.38 1149.67 1051.04 Q1151.65 1052.68 1153.83 1052.68 Q1156.18 1052.68 1158.13 1050.93 Q1160.11 1049.15 1160.71 1045.33 Q1161.37 1041.57 1161.34 1033.16 Q1161.34 1024.99 1160.77 1021.72 Q1159.99 1017.9 1157.93 1016.38 Q1155.89 1014.83 1153.83 1014.83 Q1153.05 1014.83 1152.22 1015.06 Q1151.42 1015.29 1150.24 1015.95 Q1149.06 1016.61 1148.14 1018.24 Q1147.26 1019.88 1146.82 1022.35 Q1146.37 1025.53 1146.37 1033.16 Z" fill="#000000" fill-rule="nonzero" fill-opacity="1" /><path clip-path="url(#clip990)" d="M1156.87 823.336 Q1156.87 823.881 1156.75 824.34 L1155.14 834.555 Q1155.06 835.33 1154.89 835.617 Q1154.74 835.904 1154.28 835.904 Q1153.57 835.904 1153.57 835.158 Q1153.57 834.727 1153.74 834.039 Q1154.23 830.796 1154.23 829.333 Q1154.23 828.357 1154.03 827.64 Q1153.85 826.894 1153.57 826.378 Q1153.31 825.861 1152.71 825.517 Q1152.1 825.173 1151.53 824.972 Q1150.96 824.771 1149.92 824.685 Q1148.89 824.57 1148 824.541 Q1147.11 824.513 1145.65 824.513 Q1142.46 824.513 1141.95 824.627 Q1141.4 824.771 1141.11 825.201 Q1140.86 825.603 1140.57 826.808 L1132.76 857.997 L1132.54 859.231 Q1132.54 859.919 1132.97 860.149 Q1133.4 860.378 1134.72 860.522 Q1136.61 860.665 1138.47 860.665 Q1138.53 860.665 1138.65 860.665 Q1139.28 860.665 1139.54 860.694 Q1139.79 860.694 1140.05 860.751 Q1140.31 860.809 1140.37 860.952 Q1140.45 861.067 1140.45 861.296 Q1140.45 861.842 1140.22 862.128 Q1140 862.387 1139.77 862.444 Q1139.56 862.473 1139.16 862.473 Q1138.36 862.473 1136.64 862.415 Q1134.92 862.358 1134.06 862.358 L1129.18 862.301 L1124.19 862.358 Q1123.41 862.358 1121.78 862.415 Q1120.14 862.473 1119.37 862.473 Q1118.36 862.473 1118.36 861.755 Q1118.36 860.952 1118.73 860.809 Q1119.14 860.665 1120.83 860.665 Q1123.21 860.665 1124.5 860.55 Q1125.79 860.436 1126.48 860.034 Q1127.2 859.632 1127.4 859.231 Q1127.6 858.8 1127.83 857.825 L1135.72 826.464 Q1135.95 825.775 1135.95 825.23 Q1135.95 824.943 1135.86 824.828 Q1135.81 824.713 1135.43 824.627 Q1135.06 824.513 1134.29 824.513 L1131.99 824.513 Q1129.64 824.513 1128.17 824.627 Q1126.74 824.713 1125.36 825.144 Q1124.01 825.574 1123.21 826.177 Q1122.44 826.779 1121.57 828.013 Q1120.71 829.247 1120.08 830.739 Q1119.48 832.231 1118.62 834.67 Q1118.33 835.473 1118.16 835.703 Q1118.02 835.904 1117.61 835.904 Q1117.33 835.904 1117.1 835.731 Q1116.9 835.531 1116.9 835.272 Q1117.18 834.325 1117.24 834.211 L1120.77 823.853 Q1121.06 823.021 1121.32 822.877 Q1121.6 822.705 1122.66 822.705 L1155.26 822.705 Q1155.78 822.705 1155.95 822.705 Q1156.12 822.705 1156.41 822.762 Q1156.69 822.82 1156.78 822.963 Q1156.87 823.107 1156.87 823.336 Z" fill="#000000" fill-rule="nonzero" fill-opacity="1" /><path clip-path="url(#clip990)" d="M1181.59 867.388 Q1181.05 869.979 1180.35 871.465 Q1179.22 873.735 1177.31 873.735 Q1175.87 873.735 1174.84 872.851 Q1173.82 871.967 1173.58 870.642 Q1170.95 873.735 1168.22 873.735 Q1165.81 873.735 1164.28 871.907 Q1162.75 870.059 1162.75 867.147 Q1162.75 864.214 1164.2 861.403 Q1165.66 858.591 1167.97 856.843 Q1170.28 855.096 1172.65 855.096 Q1175.16 855.096 1176.45 857.727 Q1176.55 857.004 1177.01 856.462 Q1177.47 855.919 1178.18 855.919 Q1178.72 855.919 1179.04 856.221 Q1179.36 856.502 1179.36 857.024 Q1179.36 857.285 1179.08 858.43 L1177.6 864.174 L1176.69 867.89 Q1176.35 869.256 1176.25 869.758 Q1176.17 870.26 1176.17 870.923 Q1176.17 872.811 1177.39 872.811 Q1178 872.811 1178.48 872.429 Q1178.96 872.048 1179.34 871.244 Q1179.72 870.441 1179.97 869.698 Q1180.21 868.934 1180.53 867.729 Q1180.63 867.247 1180.71 867.127 Q1180.81 866.986 1181.09 866.986 Q1181.59 866.986 1181.59 867.388 M1175.95 859.615 Q1175.95 859.434 1175.81 858.932 Q1175.67 858.43 1175.35 857.727 Q1175.02 857.024 1174.32 856.522 Q1173.64 856 1172.71 856 Q1171.47 856 1170.16 857.064 Q1168.88 858.129 1167.93 859.936 Q1167.21 861.383 1166.43 864.415 Q1165.66 867.448 1165.66 868.954 Q1165.66 869.878 1165.87 870.702 Q1166.09 871.505 1166.71 872.168 Q1167.33 872.811 1168.3 872.811 Q1170.65 872.811 1172.96 869.898 Q1173.4 869.396 1173.5 869.195 Q1173.62 868.975 1173.78 868.372 L1175.83 860.318 Q1175.95 859.715 1175.95 859.615 Z" fill="#000000" fill-rule="nonzero" fill-opacity="1" /><path clip-path="url(#clip990)" d="M1255.99 896.438 L1251.44 914.802 Q1251.19 915.908 1250.98 916.195 Q1250.78 916.482 1250.21 916.482 Q1249.75 916.482 1249.47 916.277 Q1249.22 916.072 1249.22 915.867 L1249.18 915.662 Q1249.18 915.539 1249.26 914.925 Q1249.34 914.269 1249.43 913.203 Q1249.51 912.137 1249.51 910.949 Q1249.51 904.226 1246.23 901.111 Q1242.99 897.955 1237.42 897.955 Q1233.56 897.955 1230.12 900.004 Q1226.68 902.054 1224.71 905.292 Q1222.74 908.489 1222.74 911.85 Q1222.74 914.925 1224.3 916.892 Q1225.86 918.86 1227.87 919.515 L1233.48 921.032 Q1239.38 922.549 1241.07 923.204 Q1242.75 923.819 1244.14 925.213 Q1248.28 929.066 1248.28 935.05 Q1248.28 940.215 1245.37 945.216 Q1242.46 950.175 1237.46 953.413 Q1232.46 956.611 1226.92 956.611 Q1217.21 956.611 1212.74 950.585 L1208.64 955.34 Q1207.86 956.242 1207.62 956.406 Q1207.41 956.611 1207.13 956.611 Q1206.76 956.611 1206.47 956.365 Q1206.18 956.16 1206.18 955.791 Q1206.18 955.504 1208.6 945.871 Q1211.02 936.239 1211.22 936.034 Q1211.55 935.706 1212.09 935.706 Q1213.07 935.706 1213.07 936.649 Q1212.99 936.895 1212.91 937.223 Q1212.41 940.174 1212.41 941.773 Q1212.41 944.765 1213.44 947.06 Q1214.46 949.315 1215.98 950.626 Q1217.54 951.897 1219.63 952.717 Q1221.72 953.495 1223.48 953.782 Q1225.24 954.028 1227.09 954.028 Q1231.06 954.028 1234.59 951.733 Q1238.15 949.438 1240.16 945.871 Q1242.21 942.305 1242.21 938.575 Q1242.21 936.608 1241.68 935.091 Q1241.15 933.534 1240.41 932.673 Q1239.71 931.812 1238.52 931.156 Q1237.34 930.5 1236.52 930.255 Q1235.74 929.968 1234.51 929.681 L1225.53 927.303 Q1221.92 926.238 1219.34 923.163 Q1216.8 920.089 1216.8 915.375 Q1216.8 910.416 1219.71 905.825 Q1222.66 901.193 1227.46 898.406 Q1232.29 895.578 1237.5 895.578 Q1241.6 895.578 1244.75 897.176 Q1247.91 898.734 1249.51 901.644 L1253.57 896.848 Q1254.39 895.906 1254.55 895.742 Q1254.76 895.578 1255.04 895.578 Q1255.53 895.578 1255.74 895.865 Q1255.99 896.151 1255.99 896.438 Z" fill="#000000" fill-rule="nonzero" fill-opacity="1" /><path clip-path="url(#clip990)" d="M1264.46 946.31 L1264.46 944.474 Q1271.51 944.474 1275.16 940.715 Q1276.16 940.715 1276.33 940.945 Q1276.51 941.174 1276.51 942.236 L1276.51 975.204 Q1276.51 976.954 1277.37 977.499 Q1278.23 978.044 1281.99 978.044 L1283.85 978.044 L1283.85 979.852 Q1281.79 979.68 1274.33 979.68 Q1266.87 979.68 1264.83 979.852 L1264.83 978.044 L1266.69 978.044 Q1270.4 978.044 1271.28 977.528 Q1272.17 976.983 1272.17 975.204 L1272.17 944.761 Q1269.1 946.31 1264.46 946.31 Z" fill="#000000" fill-rule="nonzero" fill-opacity="1" /><path clip-path="url(#clip990)" d="M1353.51 896.438 L1348.97 914.802 Q1348.72 915.908 1348.51 916.195 Q1348.31 916.482 1347.74 916.482 Q1347.28 916.482 1347 916.277 Q1346.75 916.072 1346.75 915.867 L1346.71 915.662 Q1346.71 915.539 1346.79 914.925 Q1346.87 914.269 1346.96 913.203 Q1347.04 912.137 1347.04 910.949 Q1347.04 904.226 1343.76 901.111 Q1340.52 897.955 1334.95 897.955 Q1331.09 897.955 1327.65 900.004 Q1324.21 902.054 1322.24 905.292 Q1320.27 908.489 1320.27 911.85 Q1320.27 914.925 1321.83 916.892 Q1323.39 918.86 1325.4 919.515 L1331.01 921.032 Q1336.91 922.549 1338.59 923.204 Q1340.28 923.819 1341.67 925.213 Q1345.81 929.066 1345.81 935.05 Q1345.81 940.215 1342.9 945.216 Q1339.99 950.175 1334.99 953.413 Q1329.99 956.611 1324.45 956.611 Q1314.74 956.611 1310.27 950.585 L1306.17 955.34 Q1305.39 956.242 1305.15 956.406 Q1304.94 956.611 1304.66 956.611 Q1304.29 956.611 1304 956.365 Q1303.71 956.16 1303.71 955.791 Q1303.71 955.504 1306.13 945.871 Q1308.55 936.239 1308.75 936.034 Q1309.08 935.706 1309.62 935.706 Q1310.6 935.706 1310.6 936.649 Q1310.52 936.895 1310.44 937.223 Q1309.94 940.174 1309.94 941.773 Q1309.94 944.765 1310.97 947.06 Q1311.99 949.315 1313.51 950.626 Q1315.07 951.897 1317.16 952.717 Q1319.25 953.495 1321.01 953.782 Q1322.77 954.028 1324.62 954.028 Q1328.59 954.028 1332.12 951.733 Q1335.68 949.438 1337.69 945.871 Q1339.74 942.305 1339.74 938.575 Q1339.74 936.608 1339.21 935.091 Q1338.68 933.534 1337.94 932.673 Q1337.24 931.812 1336.05 931.156 Q1334.86 930.5 1334.05 930.255 Q1333.27 929.968 1332.04 929.681 L1323.06 927.303 Q1319.45 926.238 1316.87 923.163 Q1314.33 920.089 1314.33 915.375 Q1314.33 910.416 1317.24 905.825 Q1320.19 901.193 1324.99 898.406 Q1329.82 895.578 1335.03 895.578 Q1339.13 895.578 1342.28 897.176 Q1345.44 898.734 1347.04 901.644 L1351.1 896.848 Q1351.92 895.906 1352.08 895.742 Q1352.29 895.578 1352.57 895.578 Q1353.06 895.578 1353.27 895.865 Q1353.51 896.151 1353.51 896.438 Z" fill="#000000" fill-rule="nonzero" fill-opacity="1" /><path clip-path="url(#clip990)" d="M1388.58 958.558 Q1388.58 960.193 1387.58 961.169 Q1386.6 962.144 1385.37 962.144 Q1384.28 962.144 1383.71 961.513 Q1383.13 960.882 1383.13 960.078 Q1383.13 959.734 1383.28 959.304 Q1383.42 958.845 1383.73 958.299 Q1384.08 957.754 1384.8 957.353 Q1385.51 956.951 1386.49 956.893 Q1386.29 956.693 1386.23 956.664 Q1385.8 956.32 1385 956.205 Q1384.88 956.147 1384.48 956.147 Q1382.5 956.147 1380.49 957.611 Q1378.51 959.045 1376.07 961.771 Q1373 964.956 1371.02 966.132 Q1379.72 967.28 1379.72 972.301 Q1379.72 973.133 1379.49 974.138 Q1379.03 976.031 1379.03 977.409 Q1379.03 980.163 1380.89 980.163 Q1382.7 980.163 1383.85 978.327 Q1385.03 976.49 1386 972.904 Q1386.14 972.244 1386.29 972.043 Q1386.43 971.842 1386.83 971.842 Q1387.55 971.842 1387.55 972.416 Q1386.89 975.773 1385.43 978.355 Q1383.56 981.483 1380.78 981.483 Q1378.45 981.483 1376.91 979.876 Q1375.38 978.241 1375.38 975.658 Q1375.38 975.027 1375.61 973.592 Q1375.79 973.019 1375.79 972.359 Q1375.79 971.01 1375.04 970.006 Q1374.29 968.973 1373.09 968.457 Q1371.88 967.94 1370.88 967.711 Q1369.9 967.452 1368.96 967.366 Q1366.09 979.503 1365.69 980.249 Q1365.43 980.766 1364.85 981.11 Q1364.28 981.483 1363.68 981.483 Q1363.1 981.483 1362.53 981.081 Q1361.99 980.708 1361.99 979.819 Q1361.99 979.36 1362.22 978.528 L1370.74 944.67 L1370.91 943.523 Q1370.91 943.178 1370.77 943.006 Q1370.65 942.805 1369.96 942.662 Q1369.3 942.519 1367.98 942.519 Q1367.44 942.519 1367.18 942.49 Q1366.95 942.461 1366.75 942.318 Q1366.55 942.146 1366.55 941.801 Q1366.55 941.313 1366.75 941.055 Q1366.98 940.768 1367.15 940.711 Q1367.32 940.654 1367.67 940.625 Q1368.15 940.596 1369.79 940.453 Q1371.43 940.281 1372.83 940.166 Q1374.24 940.051 1374.84 940.051 Q1375.18 940.051 1375.36 940.223 Q1375.56 940.367 1375.59 940.539 L1375.61 940.682 L1369.5 965.473 Q1372.03 964.468 1376.02 960.021 Q1380.64 954.856 1384.6 954.856 Q1386.46 954.856 1387.52 956.004 Q1388.58 957.123 1388.58 958.558 Z" fill="#000000" fill-rule="nonzero" fill-opacity="1" /><polyline clip-path="url(#clip993)" style="stroke:#009af9; stroke-linecap:round; stroke-linejoin:round; stroke-width:8; stroke-opacity:1; fill:none" points="232.296,1220.04 235.695,1220.24 239.093,1220.99 242.491,1222.57 245.89,1225.15 249.288,1228.75 252.687,1233.24 256.085,1238.36 259.483,1243.76 262.882,1249.07 266.28,1253.9 269.679,1257.95 273.077,1261.03 276.475,1263.08 279.874,1264.21 283.272,1264.62 286.671,1264.67 290.069,1264.71 293.467,1265.15 296.866,1266.29 300.264,1268.37 303.663,1271.48 307.061,1275.55 310.459,1280.4 313.858,1285.7 317.256,1291.09 320.655,1296.18 324.053,1300.63 327.451,1304.19 330.85,1306.73 334.248,1308.27 337.647,1308.98 341.045,1309.15 344.443,1309.13 347.842,1309.32 351.24,1310.07 354.639,1311.66 358.037,1314.25 361.435,1317.86 364.834,1322.34 368.232,1327.45 371.631,1332.83 375.029,1338.09 378.427,1342.87 381.826,1346.87 385.224,1349.88 388.623,1351.88 392.021,1352.94 395.419,1353.31 398.818,1353.31 402.216,1220.04 405.615,1219.83 409.013,1219.05 412.411,1217.43 415.81,1214.8 419.208,1211.16 422.607,1206.64 426.005,1201.51 429.403,1196.1 432.802,1190.81 436.2,1186 439.599,1181.99 442.997,1178.95 446.395,1176.93 449.794,1175.84 453.192,1175.44 456.591,1175.41 459.989,1175.35 463.387,1174.89 466.786,1173.7 470.184,1171.58 473.583,1168.43 476.981,1164.31 480.379,1159.44 483.778,1154.12 487.176,1148.73 490.575,1143.66 493.973,1139.24 497.371,1135.72 500.77,1133.22 504.168,1131.71 507.567,1131.02 510.965,1130.87 514.363,1130.88 517.762,1130.67 521.16,1129.89 524.559,1128.25 527.957,1125.61 531.355,1121.96 534.754,1117.44 538.152,1112.31 541.551,1106.92 544.949,1101.66 548.347,1096.9 551.746,1092.94 555.144,1089.96 558.543,1088 561.941,1086.96 565.339,1086.61 568.738,1086.61 572.136,1220.04 575.535,1219.82 578.933,1219.01 582.331,1217.34 585.73,1214.68 589.128,1211 592.527,1206.45 595.925,1201.29 599.323,1195.88 602.722,1190.6 606.12,1185.82 609.519,1181.84 612.917,1178.84 616.315,1176.87 619.714,1175.81 623.112,1175.43 626.511,1175.4 629.909,1175.34 633.307,1174.85 636.706,1173.63 640.104,1171.46 643.503,1168.26 646.901,1164.11 650.299,1159.21 653.698,1153.88 657.096,1148.49 660.495,1143.44 663.893,1139.04 667.291,1135.56 670.69,1133.1 674.088,1131.63 677.487,1130.97 680.885,1130.82 684.283,1130.83 687.682,1130.6 691.08,1129.78 694.479,1128.1 697.877,1125.41 701.275,1121.72 704.674,1117.16 708.072,1112.01 711.471,1106.61 714.869,1101.36 718.267,1096.62 721.666,1092.69 725.064,1089.75 728.463,1087.83 731.861,1086.82 735.259,1086.48 738.658,1086.48 742.056,1220.04 745.455,1219.8 748.853,1218.96 752.251,1217.26 755.65,1214.55 759.048,1210.83 762.447,1206.25 765.845,1201.08 769.243,1195.67 772.642,1190.4 776.04,1185.65 779.439,1181.71 782.837,1178.75 786.235,1176.82 789.634,1175.79 793.032,1175.44 796.431,1175.41 799.829,1175.33 803.227,1174.82 806.626,1173.56 810.024,1171.35 813.423,1168.11 816.821,1163.92 820.219,1159 823.618,1153.65 827.016,1148.27 830.415,1143.23 833.813,1138.87 837.211,1135.43 840.61,1133.01 844.008,1131.57 847.407,1130.93 850.805,1130.8 854.203,1130.8 857.602,1130.55 861,1129.69 864.399,1127.97 867.797,1125.24 871.195,1121.5 874.594,1116.91 877.992,1111.73 881.391,1106.33 884.789,1101.09 888.187,1096.37 891.586,1092.48 894.984,1089.57 898.383,1087.68 901.781,1086.7 905.179,1086.38 908.578,1086.38 911.976,1220.04 915.375,1220.3 918.773,1221.17 922.171,1222.91 925.57,1225.66 928.968,1229.41 932.367,1234.02 935.765,1239.21 939.163,1244.63 942.562,1249.88 945.96,1254.6 949.359,1258.5 952.757,1261.41 956.155,1263.3 959.554,1264.3 962.952,1264.63 966.351,1264.65 969.749,1264.74 973.147,1265.28 976.546,1266.57 979.944,1268.83 983.343,1272.11 986.741,1276.33 990.139,1281.29 993.538,1286.64 996.936,1292.02 1000.33,1297.04 1003.73,1301.37 1007.13,1304.77 1010.53,1307.15 1013.93,1308.55 1017.33,1309.16 1020.72,1309.29 1024.12,1309.29 1027.52,1309.56 1030.92,1310.45 1034.32,1312.22 1037.72,1315 1041.12,1318.78 1044.51,1323.41 1047.91,1328.6 1051.31,1334.01 1054.71,1339.24 1058.11,1343.93 1061.51,1347.79 1064.9,1350.66 1068.3,1352.51 1071.7,1353.46 1075.1,1353.77 1078.5,1353.77 1081.9,1220.04 1085.29,1219.77 1088.69,1218.87 1092.09,1217.1 1095.49,1214.3 1098.89,1210.51 1102.29,1205.88 1105.68,1200.67 1109.08,1195.26 1112.48,1190.02 1115.88,1185.33 1119.28,1181.47 1122.68,1178.6 1126.08,1176.75 1129.47,1175.79 1132.87,1175.48 1136.27,1175.46 1139.67,1175.36 1143.07,1174.8 1146.47,1173.47 1149.86,1171.17 1153.26,1167.85 1156.66,1163.59 1160.06,1158.61 1163.46,1153.25 1166.86,1147.88 1170.25,1142.88 1173.65,1138.59 1177.05,1135.22 1180.45,1132.88 1183.85,1131.52 1187.25,1130.93 1190.64,1130.82 1194.04,1130.81 1197.44,1130.51 1200.84,1129.59 1204.24,1127.78 1207.64,1124.96 1211.04,1121.14 1214.43,1116.48 1217.83,1111.26 1221.23,1105.85 1224.63,1100.63 1228.03,1095.97 1231.43,1092.14 1234.82,1089.31 1238.22,1087.5 1241.62,1086.57 1245.02,1086.28 1248.42,1086.28 1251.82,1220.04 1255.21,1219.75 1258.61,1218.83 1262.01,1217.01 1265.41,1214.18 1268.81,1210.36 1272.21,1205.69 1275.6,1200.47 1279,1195.06 1282.4,1189.85 1285.8,1185.19 1289.2,1181.37 1292.6,1178.54 1296,1176.73 1299.39,1175.81 1302.79,1175.52 1306.19,1175.51 1309.59,1175.39 1312.99,1174.81 1316.39,1173.44 1319.78,1171.1 1323.18,1167.74 1326.58,1163.44 1329.98,1158.45 1333.38,1153.07 1336.78,1147.71 1340.17,1142.73 1343.57,1138.47 1346.97,1135.15 1350.37,1132.85 1353.77,1131.52 1357.17,1130.96 1360.56,1130.86 1363.96,1130.84 1367.36,1130.53 1370.76,1129.57 1374.16,1127.72 1377.56,1124.85 1380.96,1120.99 1384.35,1116.3 1387.75,1111.07 1391.15,1105.65 1394.55,1100.45 1397.95,1095.81 1401.35,1092.02 1404.74,1089.23 1408.14,1087.45 1411.54,1086.56 1414.94,1086.28 1418.34,1086.28 1421.74,1220.04 1425.13,1219.74 1428.53,1218.78 1431.93,1216.93 1435.33,1214.07 1438.73,1210.2 1442.13,1205.51 1445.52,1200.28 1448.92,1194.87 1452.32,1189.68 1455.72,1185.05 1459.12,1181.27 1462.52,1178.49 1465.92,1176.73 1469.31,1175.84 1472.71,1175.56 1476.11,1175.56 1479.51,1175.44 1482.91,1174.82 1486.31,1173.42 1489.7,1171.04 1493.1,1167.64 1496.5,1163.31 1499.9,1158.29 1503.3,1152.91 1506.7,1147.56 1510.09,1142.61 1513.49,1138.38 1516.89,1135.1 1520.29,1132.85 1523.69,1131.55 1527.09,1131.01 1530.48,1130.92 1533.88,1130.9 1537.28,1130.57 1540.68,1129.58 1544.08,1127.68 1547.48,1124.77 1550.88,1120.87 1554.27,1116.15 1557.67,1110.9 1561.07,1105.48 1564.47,1100.29 1567.87,1095.69 1571.27,1091.93 1574.66,1089.18 1578.06,1087.44 1581.46,1086.57 1584.86,1086.31 1588.26,1086.31 1591.66,1220.04 1595.05,1219.72 1598.45,1218.74 1601.85,1216.85 1605.25,1213.95 1608.65,1210.05 1612.05,1205.34 1615.44,1200.09 1618.84,1194.69 1622.24,1189.52 1625.64,1184.92 1629.04,1181.19 1632.44,1178.45 1635.84,1176.73 1639.23,1175.87 1642.63,1175.62 1646.03,1175.62 1649.43,1175.49 1652.83,1174.85 1656.23,1173.42 1659.62,1170.99 1663.02,1167.55 1666.42,1163.19 1669.82,1158.15 1673.22,1152.77 1676.62,1147.42 1680.01,1142.5 1683.41,1138.31 1686.81,1135.07 1690.21,1132.86 1693.61,1131.6 1697.01,1131.09 1700.4,1131.01 1703.8,1130.98 1707.2,1130.63 1710.6,1129.6 1714,1127.67 1717.4,1124.71 1720.8,1120.77 1724.19,1116.02 1727.59,1110.76 1730.99,1105.34 1734.39,1100.17 1737.79,1095.59 1741.19,1091.87 1744.58,1089.16 1747.98,1087.46 1751.38,1086.62 1754.78,1086.38 1758.18,1086.38 1761.58,1220.04 1764.97,1220.38 1768.37,1221.39 1771.77,1223.31 1775.17,1226.25 1778.57,1230.18 1781.97,1234.92 1785.36,1240.17 1788.76,1245.57 1792.16,1250.72 1795.56,1255.28 1798.96,1258.97 1802.36,1261.66 1805.76,1263.34 1809.15,1264.16 1812.55,1264.39 1815.95,1264.38 1819.35,1264.53 1822.75,1265.19 1826.15,1266.66 1829.54,1269.12 1832.94,1272.61 1836.34,1277 1839.74,1282.06 1843.14,1287.44 1846.54,1292.78 1849.93,1297.67 1853.33,1301.82 1856.73,1305.02 1860.13,1307.19 1863.53,1308.41 1866.93,1308.9 1870.32,1308.97 1873.72,1309 1877.12,1309.37 1880.52,1310.43 1883.92,1312.41 1887.32,1315.4 1890.72,1319.38 1894.11,1324.16 1897.51,1329.44 1900.91,1334.85 1904.31,1340.01 1907.71,1344.56 1911.11,1348.24 1914.5,1350.91 1917.9,1352.57 1921.3,1353.38 1924.7,1353.6 1928.1,1353.6 1931.5,1220.04 1934.89,1219.69 1938.29,1218.65 1941.69,1216.7 1945.09,1213.72 1948.49,1209.75 1951.89,1204.99 1955.28,1199.74 1958.68,1194.35 1962.08,1189.22 1965.48,1184.69 1968.88,1181.04 1972.28,1178.4 1975.68,1176.77 1979.07,1175.98 1982.47,1175.77 1985.87,1175.79 1989.27,1175.63 1992.67,1174.94 1996.07,1173.44 1999.46,1170.94 2002.86,1167.42 2006.26,1163 2009.66,1157.92 2013.06,1152.53 2016.46,1147.21 2019.85,1142.34 2023.25,1138.23 2026.65,1135.08 2030.05,1132.95 2033.45,1131.77 2036.85,1131.31 2040.24,1131.25 2043.64,1131.21 2047.04,1130.81 2050.44,1129.72 2053.84,1127.71 2057.24,1124.67 2060.64,1120.65 2064.03,1115.85 2067.43,1110.56 2070.83,1105.15 2074.23,1100.01 2077.63,1095.49 2081.03,1091.85 2084.42,1089.23 2087.82,1087.6 2091.22,1086.82 2094.62,1086.61 2098.02,1086.61 2101.42,1220.04 2104.81,1220.41 2108.21,1221.47 2111.61,1223.46 2115.01,1226.48 2118.41,1230.47 2121.81,1235.26 2125.2,1240.52 2128.6,1245.9 2132,1251.01 2135.4,1255.49 2138.8,1259.1 2142.2,1261.69 2145.6,1263.28 2148.99,1264.03 2152.39,1264.22 2155.79,1264.2 2159.19,1264.37 2162.59,1265.08 2165.99,1266.62 2169.38,1269.16 2172.78,1272.71 2176.18,1277.16 2179.58,1282.26 2182.98,1287.65 2186.38,1292.95 2189.77,1297.79 2193.17,1301.87 2196.57,1304.97 2199.97,1307.06 2203.37,1308.2 2206.77,1308.64 2210.16,1308.68 2213.56,1308.72 2216.96,1309.14 2220.36,1310.27 2223.76,1312.32 2227.16,1315.4 2230.56,1319.45 2233.95,1324.28 2237.35,1329.59 2240.75,1334.99 2244.15,1340.11 2247.55,1344.59 2250.95,1348.19 2254.34,1350.78 2257.74,1352.36 2261.14,1353.11 2264.54,1353.31 2267.94,1353.31 "/>
</svg>
