<?xml version="1.0" encoding="utf-8"?>
<svg xmlns="http://www.w3.org/2000/svg" xmlns:xlink="http://www.w3.org/1999/xlink" width="600" height="400" viewBox="0 0 2400 1600">
<defs>
  <clipPath id="clip760">
    <rect x="0" y="0" width="2400" height="1600"/>
  </clipPath>
</defs>
<path clip-path="url(#clip760)" d="M0 1600 L2400 1600 L2400 0 L0 0  Z" fill="#ffffff" fill-rule="evenodd" fill-opacity="1"/>
<defs>
  <clipPath id="clip761">
    <rect x="480" y="0" width="1681" height="1600"/>
  </clipPath>
</defs>
<path clip-path="url(#clip760)" d="M110.881 223.18 L2352.76 223.18 L2352.76 123.472 L110.881 123.472  Z" fill="#ffffff" fill-rule="evenodd" fill-opacity="1"/>
<defs>
  <clipPath id="clip762">
    <rect x="110" y="123" width="2243" height="101"/>
  </clipPath>
</defs>
<polyline clip-path="url(#clip762)" style="stroke:#000000; stroke-linecap:round; stroke-linejoin:round; stroke-width:2; stroke-opacity:0.1; fill:none" points="197.107,223.18 197.107,123.472 "/>
<polyline clip-path="url(#clip762)" style="stroke:#000000; stroke-linecap:round; stroke-linejoin:round; stroke-width:2; stroke-opacity:0.1; fill:none" points="369.559,223.18 369.559,123.472 "/>
<polyline clip-path="url(#clip762)" style="stroke:#000000; stroke-linecap:round; stroke-linejoin:round; stroke-width:2; stroke-opacity:0.1; fill:none" points="542.011,223.18 542.011,123.472 "/>
<polyline clip-path="url(#clip762)" style="stroke:#000000; stroke-linecap:round; stroke-linejoin:round; stroke-width:2; stroke-opacity:0.1; fill:none" points="714.463,223.18 714.463,123.472 "/>
<polyline clip-path="url(#clip762)" style="stroke:#000000; stroke-linecap:round; stroke-linejoin:round; stroke-width:2; stroke-opacity:0.1; fill:none" points="886.915,223.18 886.915,123.472 "/>
<polyline clip-path="url(#clip762)" style="stroke:#000000; stroke-linecap:round; stroke-linejoin:round; stroke-width:2; stroke-opacity:0.1; fill:none" points="1059.37,223.18 1059.37,123.472 "/>
<polyline clip-path="url(#clip762)" style="stroke:#000000; stroke-linecap:round; stroke-linejoin:round; stroke-width:2; stroke-opacity:0.1; fill:none" points="1231.82,223.18 1231.82,123.472 "/>
<polyline clip-path="url(#clip762)" style="stroke:#000000; stroke-linecap:round; stroke-linejoin:round; stroke-width:2; stroke-opacity:0.1; fill:none" points="1404.27,223.18 1404.27,123.472 "/>
<polyline clip-path="url(#clip762)" style="stroke:#000000; stroke-linecap:round; stroke-linejoin:round; stroke-width:2; stroke-opacity:0.1; fill:none" points="1576.72,223.18 1576.72,123.472 "/>
<polyline clip-path="url(#clip762)" style="stroke:#000000; stroke-linecap:round; stroke-linejoin:round; stroke-width:2; stroke-opacity:0.1; fill:none" points="1749.17,223.18 1749.17,123.472 "/>
<polyline clip-path="url(#clip762)" style="stroke:#000000; stroke-linecap:round; stroke-linejoin:round; stroke-width:2; stroke-opacity:0.1; fill:none" points="1921.63,223.18 1921.63,123.472 "/>
<polyline clip-path="url(#clip762)" style="stroke:#000000; stroke-linecap:round; stroke-linejoin:round; stroke-width:2; stroke-opacity:0.1; fill:none" points="2094.08,223.18 2094.08,123.472 "/>
<polyline clip-path="url(#clip762)" style="stroke:#000000; stroke-linecap:round; stroke-linejoin:round; stroke-width:2; stroke-opacity:0.1; fill:none" points="2266.53,223.18 2266.53,123.472 "/>
<polyline clip-path="url(#clip760)" style="stroke:#000000; stroke-linecap:round; stroke-linejoin:round; stroke-width:4; stroke-opacity:1; fill:none" points="110.881,223.18 2352.76,223.18 "/>
<polyline clip-path="url(#clip760)" style="stroke:#000000; stroke-linecap:round; stroke-linejoin:round; stroke-width:4; stroke-opacity:1; fill:none" points="197.107,223.18 197.107,204.282 "/>
<polyline clip-path="url(#clip760)" style="stroke:#000000; stroke-linecap:round; stroke-linejoin:round; stroke-width:4; stroke-opacity:1; fill:none" points="369.559,223.18 369.559,204.282 "/>
<polyline clip-path="url(#clip760)" style="stroke:#000000; stroke-linecap:round; stroke-linejoin:round; stroke-width:4; stroke-opacity:1; fill:none" points="542.011,223.18 542.011,204.282 "/>
<polyline clip-path="url(#clip760)" style="stroke:#000000; stroke-linecap:round; stroke-linejoin:round; stroke-width:4; stroke-opacity:1; fill:none" points="714.463,223.18 714.463,204.282 "/>
<polyline clip-path="url(#clip760)" style="stroke:#000000; stroke-linecap:round; stroke-linejoin:round; stroke-width:4; stroke-opacity:1; fill:none" points="886.915,223.18 886.915,204.282 "/>
<polyline clip-path="url(#clip760)" style="stroke:#000000; stroke-linecap:round; stroke-linejoin:round; stroke-width:4; stroke-opacity:1; fill:none" points="1059.37,223.18 1059.37,204.282 "/>
<polyline clip-path="url(#clip760)" style="stroke:#000000; stroke-linecap:round; stroke-linejoin:round; stroke-width:4; stroke-opacity:1; fill:none" points="1231.82,223.18 1231.82,204.282 "/>
<polyline clip-path="url(#clip760)" style="stroke:#000000; stroke-linecap:round; stroke-linejoin:round; stroke-width:4; stroke-opacity:1; fill:none" points="1404.27,223.18 1404.27,204.282 "/>
<polyline clip-path="url(#clip760)" style="stroke:#000000; stroke-linecap:round; stroke-linejoin:round; stroke-width:4; stroke-opacity:1; fill:none" points="1576.72,223.18 1576.72,204.282 "/>
<polyline clip-path="url(#clip760)" style="stroke:#000000; stroke-linecap:round; stroke-linejoin:round; stroke-width:4; stroke-opacity:1; fill:none" points="1749.17,223.18 1749.17,204.282 "/>
<polyline clip-path="url(#clip760)" style="stroke:#000000; stroke-linecap:round; stroke-linejoin:round; stroke-width:4; stroke-opacity:1; fill:none" points="1921.63,223.18 1921.63,204.282 "/>
<polyline clip-path="url(#clip760)" style="stroke:#000000; stroke-linecap:round; stroke-linejoin:round; stroke-width:4; stroke-opacity:1; fill:none" points="2094.08,223.18 2094.08,204.282 "/>
<polyline clip-path="url(#clip760)" style="stroke:#000000; stroke-linecap:round; stroke-linejoin:round; stroke-width:4; stroke-opacity:1; fill:none" points="2266.53,223.18 2266.53,204.282 "/>
<path clip-path="url(#clip760)" d="M197.107 254.099 Q193.496 254.099 191.667 257.663 Q189.862 261.205 189.862 268.335 Q189.862 275.441 191.667 279.006 Q193.496 282.547 197.107 282.547 Q200.741 282.547 202.547 279.006 Q204.375 275.441 204.375 268.335 Q204.375 261.205 202.547 257.663 Q200.741 254.099 197.107 254.099 M197.107 250.395 Q202.917 250.395 205.973 255.001 Q209.051 259.585 209.051 268.335 Q209.051 277.061 205.973 281.668 Q202.917 286.251 197.107 286.251 Q191.297 286.251 188.218 281.668 Q185.162 277.061 185.162 268.335 Q185.162 259.585 188.218 255.001 Q191.297 250.395 197.107 250.395 Z" fill="#000000" fill-rule="nonzero" fill-opacity="1" /><path clip-path="url(#clip760)" d="M359.941 281.645 L367.58 281.645 L367.58 255.279 L359.269 256.946 L359.269 252.687 L367.533 251.02 L372.209 251.02 L372.209 281.645 L379.848 281.645 L379.848 285.58 L359.941 285.58 L359.941 281.645 Z" fill="#000000" fill-rule="nonzero" fill-opacity="1" /><path clip-path="url(#clip760)" d="M536.664 281.645 L552.983 281.645 L552.983 285.58 L531.039 285.58 L531.039 281.645 Q533.701 278.89 538.284 274.26 Q542.89 269.608 544.071 268.265 Q546.316 265.742 547.196 264.006 Q548.099 262.247 548.099 260.557 Q548.099 257.802 546.154 256.066 Q544.233 254.33 541.131 254.33 Q538.932 254.33 536.478 255.094 Q534.048 255.858 531.27 257.409 L531.27 252.687 Q534.094 251.552 536.548 250.974 Q539.001 250.395 541.038 250.395 Q546.409 250.395 549.603 253.08 Q552.798 255.765 552.798 260.256 Q552.798 262.386 551.987 264.307 Q551.2 266.205 549.094 268.798 Q548.515 269.469 545.413 272.686 Q542.312 275.881 536.664 281.645 Z" fill="#000000" fill-rule="nonzero" fill-opacity="1" /><path clip-path="url(#clip760)" d="M718.71 266.946 Q722.067 267.663 723.942 269.932 Q725.84 272.2 725.84 275.534 Q725.84 280.649 722.321 283.45 Q718.803 286.251 712.321 286.251 Q710.146 286.251 707.831 285.811 Q705.539 285.395 703.085 284.538 L703.085 280.024 Q705.03 281.159 707.345 281.737 Q709.659 282.316 712.183 282.316 Q716.581 282.316 718.872 280.58 Q721.187 278.844 721.187 275.534 Q721.187 272.478 719.034 270.765 Q716.905 269.029 713.085 269.029 L709.058 269.029 L709.058 265.186 L713.27 265.186 Q716.72 265.186 718.548 263.821 Q720.377 262.432 720.377 259.839 Q720.377 257.177 718.479 255.765 Q716.604 254.33 713.085 254.33 Q711.164 254.33 708.965 254.747 Q706.766 255.163 704.127 256.043 L704.127 251.876 Q706.789 251.136 709.104 250.765 Q711.442 250.395 713.502 250.395 Q718.826 250.395 721.928 252.825 Q725.03 255.233 725.03 259.353 Q725.03 262.223 723.386 264.214 Q721.743 266.182 718.71 266.946 Z" fill="#000000" fill-rule="nonzero" fill-opacity="1" /><path clip-path="url(#clip760)" d="M889.924 255.094 L878.118 273.543 L889.924 273.543 L889.924 255.094 M888.697 251.02 L894.577 251.02 L894.577 273.543 L899.507 273.543 L899.507 277.432 L894.577 277.432 L894.577 285.58 L889.924 285.58 L889.924 277.432 L874.322 277.432 L874.322 272.918 L888.697 251.02 Z" fill="#000000" fill-rule="nonzero" fill-opacity="1" /><path clip-path="url(#clip760)" d="M1049.64 251.02 L1068 251.02 L1068 254.955 L1053.93 254.955 L1053.93 263.427 Q1054.95 263.08 1055.96 262.918 Q1056.98 262.733 1058 262.733 Q1063.79 262.733 1067.17 265.904 Q1070.55 269.075 1070.55 274.492 Q1070.55 280.071 1067.07 283.172 Q1063.6 286.251 1057.28 286.251 Q1055.11 286.251 1052.84 285.881 Q1050.59 285.51 1048.19 284.77 L1048.19 280.071 Q1050.27 281.205 1052.49 281.76 Q1054.71 282.316 1057.19 282.316 Q1061.2 282.316 1063.53 280.21 Q1065.87 278.103 1065.87 274.492 Q1065.87 270.881 1063.53 268.774 Q1061.2 266.668 1057.19 266.668 Q1055.32 266.668 1053.44 267.085 Q1051.59 267.501 1049.64 268.381 L1049.64 251.02 Z" fill="#000000" fill-rule="nonzero" fill-opacity="1" /><path clip-path="url(#clip760)" d="M1232.22 266.436 Q1229.08 266.436 1227.22 268.589 Q1225.39 270.742 1225.39 274.492 Q1225.39 278.219 1227.22 280.395 Q1229.08 282.547 1232.22 282.547 Q1235.37 282.547 1237.2 280.395 Q1239.05 278.219 1239.05 274.492 Q1239.05 270.742 1237.2 268.589 Q1235.37 266.436 1232.22 266.436 M1241.51 251.784 L1241.51 256.043 Q1239.75 255.21 1237.94 254.77 Q1236.16 254.33 1234.4 254.33 Q1229.77 254.33 1227.32 257.455 Q1224.89 260.58 1224.54 266.899 Q1225.9 264.886 1227.96 263.821 Q1230.02 262.733 1232.5 262.733 Q1237.71 262.733 1240.72 265.904 Q1243.75 269.052 1243.75 274.492 Q1243.75 279.816 1240.6 283.034 Q1237.45 286.251 1232.22 286.251 Q1226.23 286.251 1223.06 281.668 Q1219.89 277.061 1219.89 268.335 Q1219.89 260.14 1223.77 255.279 Q1227.66 250.395 1234.21 250.395 Q1235.97 250.395 1237.76 250.742 Q1239.56 251.089 1241.51 251.784 Z" fill="#000000" fill-rule="nonzero" fill-opacity="1" /><path clip-path="url(#clip760)" d="M1393.16 251.02 L1415.38 251.02 L1415.38 253.011 L1402.84 285.58 L1397.95 285.58 L1409.76 254.955 L1393.16 254.955 L1393.16 251.02 Z" fill="#000000" fill-rule="nonzero" fill-opacity="1" /><path clip-path="url(#clip760)" d="M1576.72 269.168 Q1573.39 269.168 1571.47 270.95 Q1569.57 272.733 1569.57 275.858 Q1569.57 278.983 1571.47 280.765 Q1573.39 282.547 1576.72 282.547 Q1580.06 282.547 1581.98 280.765 Q1583.9 278.96 1583.9 275.858 Q1583.9 272.733 1581.98 270.95 Q1580.08 269.168 1576.72 269.168 M1572.05 267.177 Q1569.04 266.436 1567.35 264.376 Q1565.68 262.316 1565.68 259.353 Q1565.68 255.21 1568.62 252.802 Q1571.58 250.395 1576.72 250.395 Q1581.88 250.395 1584.82 252.802 Q1587.76 255.21 1587.76 259.353 Q1587.76 262.316 1586.07 264.376 Q1584.41 266.436 1581.42 267.177 Q1584.8 267.964 1586.68 270.256 Q1588.57 272.548 1588.57 275.858 Q1588.57 280.881 1585.5 283.566 Q1582.44 286.251 1576.72 286.251 Q1571 286.251 1567.93 283.566 Q1564.87 280.881 1564.87 275.858 Q1564.87 272.548 1566.77 270.256 Q1568.67 267.964 1572.05 267.177 M1570.33 259.793 Q1570.33 262.478 1572 263.983 Q1573.69 265.487 1576.72 265.487 Q1579.73 265.487 1581.42 263.983 Q1583.13 262.478 1583.13 259.793 Q1583.13 257.108 1581.42 255.603 Q1579.73 254.099 1576.72 254.099 Q1573.69 254.099 1572 255.603 Q1570.33 257.108 1570.33 259.793 Z" fill="#000000" fill-rule="nonzero" fill-opacity="1" /><path clip-path="url(#clip760)" d="M1739.48 284.862 L1739.48 280.603 Q1741.23 281.436 1743.04 281.876 Q1744.85 282.316 1746.58 282.316 Q1751.21 282.316 1753.64 279.214 Q1756.1 276.089 1756.44 269.747 Q1755.1 271.737 1753.04 272.802 Q1750.98 273.867 1748.48 273.867 Q1743.29 273.867 1740.26 270.742 Q1737.25 267.594 1737.25 262.154 Q1737.25 256.83 1740.4 253.612 Q1743.55 250.395 1748.78 250.395 Q1754.78 250.395 1757.92 255.001 Q1761.1 259.585 1761.1 268.335 Q1761.1 276.506 1757.21 281.39 Q1753.34 286.251 1746.79 286.251 Q1745.03 286.251 1743.23 285.904 Q1741.42 285.557 1739.48 284.862 M1748.78 270.21 Q1751.93 270.21 1753.76 268.057 Q1755.61 265.904 1755.61 262.154 Q1755.61 258.427 1753.76 256.274 Q1751.93 254.099 1748.78 254.099 Q1745.63 254.099 1743.78 256.274 Q1741.95 258.427 1741.95 262.154 Q1741.95 265.904 1743.78 268.057 Q1745.63 270.21 1748.78 270.21 Z" fill="#000000" fill-rule="nonzero" fill-opacity="1" /><path clip-path="url(#clip760)" d="M1896.31 281.645 L1903.95 281.645 L1903.95 255.279 L1895.64 256.946 L1895.64 252.687 L1903.91 251.02 L1908.58 251.02 L1908.58 281.645 L1916.22 281.645 L1916.22 285.58 L1896.31 285.58 L1896.31 281.645 Z" fill="#000000" fill-rule="nonzero" fill-opacity="1" /><path clip-path="url(#clip760)" d="M1935.67 254.099 Q1932.05 254.099 1930.23 257.663 Q1928.42 261.205 1928.42 268.335 Q1928.42 275.441 1930.23 279.006 Q1932.05 282.547 1935.67 282.547 Q1939.3 282.547 1941.11 279.006 Q1942.93 275.441 1942.93 268.335 Q1942.93 261.205 1941.11 257.663 Q1939.3 254.099 1935.67 254.099 M1935.67 250.395 Q1941.48 250.395 1944.53 255.001 Q1947.61 259.585 1947.61 268.335 Q1947.61 277.061 1944.53 281.668 Q1941.48 286.251 1935.67 286.251 Q1929.86 286.251 1926.78 281.668 Q1923.72 277.061 1923.72 268.335 Q1923.72 259.585 1926.78 255.001 Q1929.86 250.395 1935.67 250.395 Z" fill="#000000" fill-rule="nonzero" fill-opacity="1" /><path clip-path="url(#clip760)" d="M2069.38 281.645 L2077.02 281.645 L2077.02 255.279 L2068.71 256.946 L2068.71 252.687 L2076.97 251.02 L2081.65 251.02 L2081.65 281.645 L2089.29 281.645 L2089.29 285.58 L2069.38 285.58 L2069.38 281.645 Z" fill="#000000" fill-rule="nonzero" fill-opacity="1" /><path clip-path="url(#clip760)" d="M2099.54 281.645 L2107.18 281.645 L2107.18 255.279 L2098.87 256.946 L2098.87 252.687 L2107.13 251.02 L2111.81 251.02 L2111.81 281.645 L2119.45 281.645 L2119.45 285.58 L2099.54 285.58 L2099.54 281.645 Z" fill="#000000" fill-rule="nonzero" fill-opacity="1" /><path clip-path="url(#clip760)" d="M2242.02 281.645 L2249.66 281.645 L2249.66 255.279 L2241.34 256.946 L2241.34 252.687 L2249.61 251.02 L2254.28 251.02 L2254.28 281.645 L2261.92 281.645 L2261.92 285.58 L2242.02 285.58 L2242.02 281.645 Z" fill="#000000" fill-rule="nonzero" fill-opacity="1" /><path clip-path="url(#clip760)" d="M2275.4 281.645 L2291.71 281.645 L2291.71 285.58 L2269.77 285.58 L2269.77 281.645 Q2272.43 278.89 2277.02 274.26 Q2281.62 269.608 2282.8 268.265 Q2285.05 265.742 2285.93 264.006 Q2286.83 262.247 2286.83 260.557 Q2286.83 257.802 2284.89 256.066 Q2282.97 254.33 2279.86 254.33 Q2277.66 254.33 2275.21 255.094 Q2272.78 255.858 2270 257.409 L2270 252.687 Q2272.83 251.552 2275.28 250.974 Q2277.73 250.395 2279.77 250.395 Q2285.14 250.395 2288.34 253.08 Q2291.53 255.765 2291.53 260.256 Q2291.53 262.386 2290.72 264.307 Q2289.93 266.205 2287.83 268.798 Q2287.25 269.469 2284.15 272.686 Q2281.04 275.881 2275.4 281.645 Z" fill="#000000" fill-rule="nonzero" fill-opacity="1" /><path clip-path="url(#clip760)" d="M1240.29 331.913 Q1240.29 332.815 1239.87 333.04 Q1239.45 333.233 1238.29 333.233 L1232.11 333.233 L1227.21 352.686 Q1226.83 354.393 1226.83 355.842 Q1226.83 357.452 1227.31 358.161 Q1227.83 358.869 1228.89 358.869 Q1230.98 358.869 1233.24 356.969 Q1235.52 355.069 1237.46 350.431 Q1237.71 349.819 1237.84 349.691 Q1238 349.53 1238.42 349.53 Q1239.23 349.53 1239.23 350.174 Q1239.23 350.399 1238.78 351.43 Q1238.36 352.46 1237.42 353.974 Q1236.52 355.488 1235.33 356.905 Q1234.17 358.322 1232.4 359.352 Q1230.63 360.351 1228.73 360.351 Q1226.05 360.351 1224.35 358.644 Q1222.67 356.937 1222.67 354.264 Q1222.67 353.394 1223.35 350.625 Q1224.03 347.823 1227.7 333.233 L1221.87 333.233 Q1221.06 333.233 1220.74 333.201 Q1220.45 333.169 1220.23 333.008 Q1220.03 332.815 1220.03 332.428 Q1220.03 331.816 1220.29 331.559 Q1220.55 331.269 1220.87 331.237 Q1221.22 331.172 1222.03 331.172 L1228.21 331.172 L1230.79 320.705 Q1231.05 319.675 1231.69 319.095 Q1232.37 318.483 1232.75 318.419 Q1233.14 318.322 1233.43 318.322 Q1234.3 318.322 1234.81 318.805 Q1235.33 319.256 1235.33 320.093 Q1235.33 320.544 1232.62 331.172 L1238.42 331.172 Q1239.16 331.172 1239.45 331.204 Q1239.77 331.237 1240.03 331.398 Q1240.29 331.559 1240.29 331.913 Z" fill="#000000" fill-rule="nonzero" fill-opacity="1" /><polyline clip-path="url(#clip762)" style="stroke:#000000; stroke-linecap:round; stroke-linejoin:round; stroke-width:2; stroke-opacity:0.1; fill:none" points="110.881,198.253 2352.76,198.253 "/>
<polyline clip-path="url(#clip762)" style="stroke:#000000; stroke-linecap:round; stroke-linejoin:round; stroke-width:2; stroke-opacity:0.1; fill:none" points="110.881,148.399 2352.76,148.399 "/>
<polyline clip-path="url(#clip760)" style="stroke:#000000; stroke-linecap:round; stroke-linejoin:round; stroke-width:4; stroke-opacity:1; fill:none" points="110.881,223.18 110.881,123.472 "/>
<polyline clip-path="url(#clip760)" style="stroke:#000000; stroke-linecap:round; stroke-linejoin:round; stroke-width:4; stroke-opacity:1; fill:none" points="110.881,198.253 129.779,198.253 "/>
<polyline clip-path="url(#clip760)" style="stroke:#000000; stroke-linecap:round; stroke-linejoin:round; stroke-width:4; stroke-opacity:1; fill:none" points="110.881,148.399 129.779,148.399 "/>
<path clip-path="url(#clip760)" d="M62.9365 184.052 Q59.3254 184.052 57.4967 187.616 Q55.6912 191.158 55.6912 198.288 Q55.6912 205.394 57.4967 208.959 Q59.3254 212.501 62.9365 212.501 Q66.5707 212.501 68.3763 208.959 Q70.205 205.394 70.205 198.288 Q70.205 191.158 68.3763 187.616 Q66.5707 184.052 62.9365 184.052 M62.9365 180.348 Q68.7467 180.348 71.8022 184.954 Q74.8809 189.538 74.8809 198.288 Q74.8809 207.014 71.8022 211.621 Q68.7467 216.204 62.9365 216.204 Q57.1264 216.204 54.0477 211.621 Q50.9921 207.014 50.9921 198.288 Q50.9921 189.538 54.0477 184.954 Q57.1264 180.348 62.9365 180.348 Z" fill="#000000" fill-rule="nonzero" fill-opacity="1" /><path clip-path="url(#clip760)" d="M54.9736 161.744 L62.6124 161.744 L62.6124 135.378 L54.3023 137.045 L54.3023 132.786 L62.5661 131.119 L67.242 131.119 L67.242 161.744 L74.8809 161.744 L74.8809 165.679 L54.9736 165.679 L54.9736 161.744 Z" fill="#000000" fill-rule="nonzero" fill-opacity="1" /><path clip-path="url(#clip760)" d="M1133.17 27.1957 L1133.17 24.5724 Q1137.88 24.8183 1143.5 24.8183 Q1149.65 24.8183 1155.67 24.5724 L1155.67 27.1957 L1155.35 27.1957 Q1149.89 27.1957 1149.89 29.2861 Q1149.89 30.0239 1151.12 31.9504 L1170.18 63.8811 L1181.09 33.2211 Q1181.41 32.0324 1181.46 31.3766 Q1181.46 29.86 1179.98 28.6303 Q1178.5 27.3596 1175.23 27.1957 L1175.23 24.5724 Q1180.18 24.8183 1184.98 24.8183 Q1188.18 24.8183 1192.69 24.5724 L1192.69 27.1957 Q1190.19 27.2777 1188.51 27.8515 Q1186.83 28.4254 1185.84 29.737 Q1184.9 31.0487 1184.49 31.8685 Q1184.12 32.6473 1183.46 34.4918 L1173.22 63.4302 Q1171.95 66.8733 1171.25 68.6768 Q1170.59 70.4804 1168.79 73.8415 Q1166.99 77.2026 1165.14 79.0061 Q1163.3 80.8097 1160.31 82.2853 Q1157.35 83.7609 1153.75 83.7609 Q1148.79 83.7609 1145.67 80.3178 Q1142.56 76.8747 1142.56 72.6118 Q1142.56 70.0295 1144.07 68.8818 Q1145.59 67.7341 1147.27 67.7341 Q1149.2 67.7341 1150.59 69.0457 Q1151.98 70.3164 1151.98 72.3659 Q1151.98 74.3743 1150.67 75.727 Q1149.36 77.0387 1147.27 77.0387 Q1146.78 77.0387 1145.92 76.8747 Q1148.79 81.4245 1153.75 81.4245 Q1158.79 81.4245 1162.76 77.7765 Q1166.74 74.1284 1166.74 72.1609 Q1166.74 71.6691 1164.98 68.8408 L1142.84 31.7865 Q1141.74 29.942 1141.37 29.4501 Q1141 28.9582 1139.97 28.2204 Q1138.95 27.4416 1137.51 27.3187 Q1136.12 27.1957 1133.5 27.1957 L1133.17 27.1957 Z" fill="#000000" fill-rule="nonzero" fill-opacity="1" /><path clip-path="url(#clip760)" d="M1195.53 81.9164 L1195.53 79.3341 L1197.53 79.3341 Q1202.08 79.3341 1203.11 78.5962 Q1204.17 77.8174 1204.17 75.3581 L1204.17 31.1307 Q1204.17 28.7123 1203.11 27.9745 Q1202.04 27.1957 1197.53 27.1957 L1195.53 27.1957 L1195.53 24.5724 L1226.23 24.5724 Q1234.22 24.5724 1239.55 28.8762 Q1244.88 33.1391 1244.88 38.7547 Q1244.88 43.3865 1240.94 47.0755 Q1237.05 50.7645 1230.94 51.9532 Q1237.91 52.691 1242.5 56.9129 Q1247.13 61.0938 1247.13 66.5454 Q1247.13 72.6938 1241.84 77.3256 Q1236.56 81.9164 1228.44 81.9164 L1195.53 81.9164 M1211.14 75.9729 Q1211.14 78.1454 1211.76 78.7602 Q1212.37 79.3341 1215.24 79.3341 L1225.73 79.3341 Q1231.76 79.3341 1235.24 75.3991 Q1238.73 71.4231 1238.73 66.4634 Q1238.73 61.5037 1235.65 57.2818 Q1232.62 53.0189 1226.92 53.0189 L1211.14 53.0189 L1211.14 75.9729 M1211.14 51.1744 L1223.32 51.1744 Q1229.79 51.1744 1233.24 47.2804 Q1236.72 43.3865 1236.72 38.7547 Q1236.72 34.6557 1233.93 30.9257 Q1231.19 27.1957 1225.65 27.1957 L1215.24 27.1957 Q1212.37 27.1957 1211.76 27.7695 Q1211.14 28.3434 1211.14 30.5568 L1211.14 51.1744 Z" fill="#000000" fill-rule="nonzero" fill-opacity="1" /><path clip-path="url(#clip760)" d="M1254.35 81.9164 L1254.35 79.3341 Q1257.38 79.3341 1259.31 78.7602 Q1261.24 78.1454 1261.93 77.0387 Q1262.67 75.891 1262.83 75.1531 Q1263 74.3743 1263 73.1037 L1263 31.1307 Q1263 28.7123 1261.93 27.9745 Q1260.91 27.1957 1256.36 27.1957 L1254.35 27.1957 L1254.35 24.5724 L1268.53 24.5724 Q1270.05 24.5724 1270.46 24.8593 Q1270.87 25.1052 1271.48 26.4169 L1289.68 73.4316 L1308.05 26.171 Q1308.46 24.9823 1308.82 24.7773 Q1309.23 24.5724 1310.83 24.5724 L1325.01 24.5724 L1325.01 27.1957 L1323.01 27.1957 Q1318.46 27.1957 1317.39 27.9745 Q1316.37 28.7123 1316.37 31.1307 L1316.37 75.3581 Q1316.37 77.7765 1317.39 78.5553 Q1318.46 79.3341 1323.01 79.3341 L1325.01 79.3341 L1325.01 81.9164 Q1321.9 81.6704 1313 81.6704 Q1304.03 81.6704 1300.91 81.9164 L1300.91 79.3341 L1302.96 79.3341 Q1307.51 79.3341 1308.54 78.5962 Q1309.56 77.8174 1309.56 75.3581 L1309.56 27.1957 L1309.48 27.1957 L1288.86 80.3178 Q1288.29 81.9164 1287.35 81.9164 Q1286.32 81.9164 1285.66 80.0719 L1265.42 27.8515 L1265.33 27.8515 L1265.33 73.1037 Q1265.33 74.3743 1265.5 75.1531 Q1265.66 75.891 1266.36 77.0387 Q1267.1 78.1454 1269.02 78.7602 Q1270.95 79.3341 1273.98 79.3341 L1273.98 81.9164 Q1265.17 81.6704 1264.15 81.6704 Q1263.16 81.6704 1254.35 81.9164 Z" fill="#000000" fill-rule="nonzero" fill-opacity="1" /><polyline clip-path="url(#clip762)" style="stroke:#009af9; stroke-linecap:round; stroke-linejoin:round; stroke-width:8; stroke-opacity:1; fill:none" points="197.107,198.253 369.559,198.253 369.559,148.399 542.011,148.399 714.463,148.399 886.915,148.399 886.915,198.253 1059.37,198.253 1059.37,148.399 1231.82,148.399 1404.27,148.399 1576.72,148.399 1749.17,148.399 1749.17,198.253 1921.63,198.253 1921.63,148.399 2094.08,148.399 2094.08,198.253 2266.53,198.253 "/>
<path clip-path="url(#clip760)" d="M110.881 623.18 L2352.76 623.18 L2352.76 523.472 L110.881 523.472  Z" fill="#ffffff" fill-rule="evenodd" fill-opacity="1"/>
<defs>
  <clipPath id="clip763">
    <rect x="110" y="523" width="2243" height="101"/>
  </clipPath>
</defs>
<polyline clip-path="url(#clip763)" style="stroke:#000000; stroke-linecap:round; stroke-linejoin:round; stroke-width:2; stroke-opacity:0.1; fill:none" points="197.107,623.18 197.107,523.472 "/>
<polyline clip-path="url(#clip763)" style="stroke:#000000; stroke-linecap:round; stroke-linejoin:round; stroke-width:2; stroke-opacity:0.1; fill:none" points="369.559,623.18 369.559,523.472 "/>
<polyline clip-path="url(#clip763)" style="stroke:#000000; stroke-linecap:round; stroke-linejoin:round; stroke-width:2; stroke-opacity:0.1; fill:none" points="542.011,623.18 542.011,523.472 "/>
<polyline clip-path="url(#clip763)" style="stroke:#000000; stroke-linecap:round; stroke-linejoin:round; stroke-width:2; stroke-opacity:0.1; fill:none" points="714.463,623.18 714.463,523.472 "/>
<polyline clip-path="url(#clip763)" style="stroke:#000000; stroke-linecap:round; stroke-linejoin:round; stroke-width:2; stroke-opacity:0.1; fill:none" points="886.915,623.18 886.915,523.472 "/>
<polyline clip-path="url(#clip763)" style="stroke:#000000; stroke-linecap:round; stroke-linejoin:round; stroke-width:2; stroke-opacity:0.1; fill:none" points="1059.37,623.18 1059.37,523.472 "/>
<polyline clip-path="url(#clip763)" style="stroke:#000000; stroke-linecap:round; stroke-linejoin:round; stroke-width:2; stroke-opacity:0.1; fill:none" points="1231.82,623.18 1231.82,523.472 "/>
<polyline clip-path="url(#clip763)" style="stroke:#000000; stroke-linecap:round; stroke-linejoin:round; stroke-width:2; stroke-opacity:0.1; fill:none" points="1404.27,623.18 1404.27,523.472 "/>
<polyline clip-path="url(#clip763)" style="stroke:#000000; stroke-linecap:round; stroke-linejoin:round; stroke-width:2; stroke-opacity:0.1; fill:none" points="1576.72,623.18 1576.72,523.472 "/>
<polyline clip-path="url(#clip763)" style="stroke:#000000; stroke-linecap:round; stroke-linejoin:round; stroke-width:2; stroke-opacity:0.1; fill:none" points="1749.17,623.18 1749.17,523.472 "/>
<polyline clip-path="url(#clip763)" style="stroke:#000000; stroke-linecap:round; stroke-linejoin:round; stroke-width:2; stroke-opacity:0.1; fill:none" points="1921.63,623.18 1921.63,523.472 "/>
<polyline clip-path="url(#clip763)" style="stroke:#000000; stroke-linecap:round; stroke-linejoin:round; stroke-width:2; stroke-opacity:0.1; fill:none" points="2094.08,623.18 2094.08,523.472 "/>
<polyline clip-path="url(#clip763)" style="stroke:#000000; stroke-linecap:round; stroke-linejoin:round; stroke-width:2; stroke-opacity:0.1; fill:none" points="2266.53,623.18 2266.53,523.472 "/>
<polyline clip-path="url(#clip760)" style="stroke:#000000; stroke-linecap:round; stroke-linejoin:round; stroke-width:4; stroke-opacity:1; fill:none" points="110.881,623.18 2352.76,623.18 "/>
<polyline clip-path="url(#clip760)" style="stroke:#000000; stroke-linecap:round; stroke-linejoin:round; stroke-width:4; stroke-opacity:1; fill:none" points="197.107,623.18 197.107,604.282 "/>
<polyline clip-path="url(#clip760)" style="stroke:#000000; stroke-linecap:round; stroke-linejoin:round; stroke-width:4; stroke-opacity:1; fill:none" points="369.559,623.18 369.559,604.282 "/>
<polyline clip-path="url(#clip760)" style="stroke:#000000; stroke-linecap:round; stroke-linejoin:round; stroke-width:4; stroke-opacity:1; fill:none" points="542.011,623.18 542.011,604.282 "/>
<polyline clip-path="url(#clip760)" style="stroke:#000000; stroke-linecap:round; stroke-linejoin:round; stroke-width:4; stroke-opacity:1; fill:none" points="714.463,623.18 714.463,604.282 "/>
<polyline clip-path="url(#clip760)" style="stroke:#000000; stroke-linecap:round; stroke-linejoin:round; stroke-width:4; stroke-opacity:1; fill:none" points="886.915,623.18 886.915,604.282 "/>
<polyline clip-path="url(#clip760)" style="stroke:#000000; stroke-linecap:round; stroke-linejoin:round; stroke-width:4; stroke-opacity:1; fill:none" points="1059.37,623.18 1059.37,604.282 "/>
<polyline clip-path="url(#clip760)" style="stroke:#000000; stroke-linecap:round; stroke-linejoin:round; stroke-width:4; stroke-opacity:1; fill:none" points="1231.82,623.18 1231.82,604.282 "/>
<polyline clip-path="url(#clip760)" style="stroke:#000000; stroke-linecap:round; stroke-linejoin:round; stroke-width:4; stroke-opacity:1; fill:none" points="1404.27,623.18 1404.27,604.282 "/>
<polyline clip-path="url(#clip760)" style="stroke:#000000; stroke-linecap:round; stroke-linejoin:round; stroke-width:4; stroke-opacity:1; fill:none" points="1576.72,623.18 1576.72,604.282 "/>
<polyline clip-path="url(#clip760)" style="stroke:#000000; stroke-linecap:round; stroke-linejoin:round; stroke-width:4; stroke-opacity:1; fill:none" points="1749.17,623.18 1749.17,604.282 "/>
<polyline clip-path="url(#clip760)" style="stroke:#000000; stroke-linecap:round; stroke-linejoin:round; stroke-width:4; stroke-opacity:1; fill:none" points="1921.63,623.18 1921.63,604.282 "/>
<polyline clip-path="url(#clip760)" style="stroke:#000000; stroke-linecap:round; stroke-linejoin:round; stroke-width:4; stroke-opacity:1; fill:none" points="2094.08,623.18 2094.08,604.282 "/>
<polyline clip-path="url(#clip760)" style="stroke:#000000; stroke-linecap:round; stroke-linejoin:round; stroke-width:4; stroke-opacity:1; fill:none" points="2266.53,623.18 2266.53,604.282 "/>
<path clip-path="url(#clip760)" d="M197.107 654.099 Q193.496 654.099 191.667 657.663 Q189.862 661.205 189.862 668.335 Q189.862 675.441 191.667 679.006 Q193.496 682.547 197.107 682.547 Q200.741 682.547 202.547 679.006 Q204.375 675.441 204.375 668.335 Q204.375 661.205 202.547 657.663 Q200.741 654.099 197.107 654.099 M197.107 650.395 Q202.917 650.395 205.973 655.001 Q209.051 659.585 209.051 668.335 Q209.051 677.061 205.973 681.668 Q202.917 686.251 197.107 686.251 Q191.297 686.251 188.218 681.668 Q185.162 677.061 185.162 668.335 Q185.162 659.585 188.218 655.001 Q191.297 650.395 197.107 650.395 Z" fill="#000000" fill-rule="nonzero" fill-opacity="1" /><path clip-path="url(#clip760)" d="M359.941 681.645 L367.58 681.645 L367.58 655.279 L359.269 656.946 L359.269 652.687 L367.533 651.02 L372.209 651.02 L372.209 681.645 L379.848 681.645 L379.848 685.58 L359.941 685.58 L359.941 681.645 Z" fill="#000000" fill-rule="nonzero" fill-opacity="1" /><path clip-path="url(#clip760)" d="M536.664 681.645 L552.983 681.645 L552.983 685.58 L531.039 685.58 L531.039 681.645 Q533.701 678.89 538.284 674.26 Q542.89 669.608 544.071 668.265 Q546.316 665.742 547.196 664.006 Q548.099 662.247 548.099 660.557 Q548.099 657.802 546.154 656.066 Q544.233 654.33 541.131 654.33 Q538.932 654.33 536.478 655.094 Q534.048 655.858 531.27 657.409 L531.27 652.687 Q534.094 651.552 536.548 650.974 Q539.001 650.395 541.038 650.395 Q546.409 650.395 549.603 653.08 Q552.798 655.765 552.798 660.256 Q552.798 662.386 551.987 664.307 Q551.2 666.205 549.094 668.798 Q548.515 669.469 545.413 672.686 Q542.312 675.881 536.664 681.645 Z" fill="#000000" fill-rule="nonzero" fill-opacity="1" /><path clip-path="url(#clip760)" d="M718.71 666.946 Q722.067 667.663 723.942 669.932 Q725.84 672.2 725.84 675.534 Q725.84 680.649 722.321 683.45 Q718.803 686.251 712.321 686.251 Q710.146 686.251 707.831 685.811 Q705.539 685.395 703.085 684.538 L703.085 680.024 Q705.03 681.159 707.345 681.737 Q709.659 682.316 712.183 682.316 Q716.581 682.316 718.872 680.58 Q721.187 678.844 721.187 675.534 Q721.187 672.478 719.034 670.765 Q716.905 669.029 713.085 669.029 L709.058 669.029 L709.058 665.186 L713.27 665.186 Q716.72 665.186 718.548 663.821 Q720.377 662.432 720.377 659.839 Q720.377 657.177 718.479 655.765 Q716.604 654.33 713.085 654.33 Q711.164 654.33 708.965 654.747 Q706.766 655.163 704.127 656.043 L704.127 651.876 Q706.789 651.136 709.104 650.765 Q711.442 650.395 713.502 650.395 Q718.826 650.395 721.928 652.825 Q725.03 655.233 725.03 659.353 Q725.03 662.223 723.386 664.214 Q721.743 666.182 718.71 666.946 Z" fill="#000000" fill-rule="nonzero" fill-opacity="1" /><path clip-path="url(#clip760)" d="M889.924 655.094 L878.118 673.543 L889.924 673.543 L889.924 655.094 M888.697 651.02 L894.577 651.02 L894.577 673.543 L899.507 673.543 L899.507 677.432 L894.577 677.432 L894.577 685.58 L889.924 685.58 L889.924 677.432 L874.322 677.432 L874.322 672.918 L888.697 651.02 Z" fill="#000000" fill-rule="nonzero" fill-opacity="1" /><path clip-path="url(#clip760)" d="M1049.64 651.02 L1068 651.02 L1068 654.955 L1053.93 654.955 L1053.93 663.427 Q1054.95 663.08 1055.96 662.918 Q1056.98 662.733 1058 662.733 Q1063.79 662.733 1067.17 665.904 Q1070.55 669.075 1070.55 674.492 Q1070.55 680.071 1067.07 683.172 Q1063.6 686.251 1057.28 686.251 Q1055.11 686.251 1052.84 685.881 Q1050.59 685.51 1048.19 684.77 L1048.19 680.071 Q1050.27 681.205 1052.49 681.76 Q1054.71 682.316 1057.19 682.316 Q1061.2 682.316 1063.53 680.21 Q1065.87 678.103 1065.87 674.492 Q1065.87 670.881 1063.53 668.774 Q1061.2 666.668 1057.19 666.668 Q1055.32 666.668 1053.44 667.085 Q1051.59 667.501 1049.64 668.381 L1049.64 651.02 Z" fill="#000000" fill-rule="nonzero" fill-opacity="1" /><path clip-path="url(#clip760)" d="M1232.22 666.436 Q1229.08 666.436 1227.22 668.589 Q1225.39 670.742 1225.39 674.492 Q1225.39 678.219 1227.22 680.395 Q1229.08 682.547 1232.22 682.547 Q1235.37 682.547 1237.2 680.395 Q1239.05 678.219 1239.05 674.492 Q1239.05 670.742 1237.2 668.589 Q1235.37 666.436 1232.22 666.436 M1241.51 651.784 L1241.51 656.043 Q1239.75 655.21 1237.94 654.77 Q1236.16 654.33 1234.4 654.33 Q1229.77 654.33 1227.32 657.455 Q1224.89 660.58 1224.54 666.899 Q1225.9 664.886 1227.96 663.821 Q1230.02 662.733 1232.5 662.733 Q1237.71 662.733 1240.72 665.904 Q1243.75 669.052 1243.75 674.492 Q1243.75 679.816 1240.6 683.034 Q1237.45 686.251 1232.22 686.251 Q1226.23 686.251 1223.06 681.668 Q1219.89 677.061 1219.89 668.335 Q1219.89 660.14 1223.77 655.279 Q1227.66 650.395 1234.21 650.395 Q1235.97 650.395 1237.76 650.742 Q1239.56 651.089 1241.51 651.784 Z" fill="#000000" fill-rule="nonzero" fill-opacity="1" /><path clip-path="url(#clip760)" d="M1393.16 651.02 L1415.38 651.02 L1415.38 653.011 L1402.84 685.58 L1397.95 685.58 L1409.76 654.955 L1393.16 654.955 L1393.16 651.02 Z" fill="#000000" fill-rule="nonzero" fill-opacity="1" /><path clip-path="url(#clip760)" d="M1576.72 669.168 Q1573.39 669.168 1571.47 670.95 Q1569.57 672.733 1569.57 675.858 Q1569.57 678.983 1571.47 680.765 Q1573.39 682.547 1576.72 682.547 Q1580.06 682.547 1581.98 680.765 Q1583.9 678.96 1583.9 675.858 Q1583.9 672.733 1581.98 670.95 Q1580.08 669.168 1576.72 669.168 M1572.05 667.177 Q1569.04 666.436 1567.35 664.376 Q1565.68 662.316 1565.68 659.353 Q1565.68 655.21 1568.62 652.802 Q1571.58 650.395 1576.72 650.395 Q1581.88 650.395 1584.82 652.802 Q1587.76 655.21 1587.76 659.353 Q1587.76 662.316 1586.07 664.376 Q1584.41 666.436 1581.42 667.177 Q1584.8 667.964 1586.68 670.256 Q1588.57 672.548 1588.57 675.858 Q1588.57 680.881 1585.5 683.566 Q1582.44 686.251 1576.72 686.251 Q1571 686.251 1567.93 683.566 Q1564.87 680.881 1564.87 675.858 Q1564.87 672.548 1566.77 670.256 Q1568.67 667.964 1572.05 667.177 M1570.33 659.793 Q1570.33 662.478 1572 663.983 Q1573.69 665.487 1576.72 665.487 Q1579.73 665.487 1581.42 663.983 Q1583.13 662.478 1583.13 659.793 Q1583.13 657.108 1581.42 655.603 Q1579.73 654.099 1576.72 654.099 Q1573.69 654.099 1572 655.603 Q1570.33 657.108 1570.33 659.793 Z" fill="#000000" fill-rule="nonzero" fill-opacity="1" /><path clip-path="url(#clip760)" d="M1739.48 684.862 L1739.48 680.603 Q1741.23 681.436 1743.04 681.876 Q1744.85 682.316 1746.58 682.316 Q1751.21 682.316 1753.64 679.214 Q1756.1 676.089 1756.44 669.747 Q1755.1 671.737 1753.04 672.802 Q1750.98 673.867 1748.48 673.867 Q1743.29 673.867 1740.26 670.742 Q1737.25 667.594 1737.25 662.154 Q1737.25 656.83 1740.4 653.612 Q1743.55 650.395 1748.78 650.395 Q1754.78 650.395 1757.92 655.001 Q1761.1 659.585 1761.1 668.335 Q1761.1 676.506 1757.21 681.39 Q1753.34 686.251 1746.79 686.251 Q1745.03 686.251 1743.23 685.904 Q1741.42 685.557 1739.48 684.862 M1748.78 670.21 Q1751.93 670.21 1753.76 668.057 Q1755.61 665.904 1755.61 662.154 Q1755.61 658.427 1753.76 656.274 Q1751.93 654.099 1748.78 654.099 Q1745.63 654.099 1743.78 656.274 Q1741.95 658.427 1741.95 662.154 Q1741.95 665.904 1743.78 668.057 Q1745.63 670.21 1748.78 670.21 Z" fill="#000000" fill-rule="nonzero" fill-opacity="1" /><path clip-path="url(#clip760)" d="M1896.31 681.645 L1903.95 681.645 L1903.95 655.279 L1895.64 656.946 L1895.64 652.687 L1903.91 651.02 L1908.58 651.02 L1908.58 681.645 L1916.22 681.645 L1916.22 685.58 L1896.31 685.58 L1896.31 681.645 Z" fill="#000000" fill-rule="nonzero" fill-opacity="1" /><path clip-path="url(#clip760)" d="M1935.67 654.099 Q1932.05 654.099 1930.23 657.663 Q1928.42 661.205 1928.42 668.335 Q1928.42 675.441 1930.23 679.006 Q1932.05 682.547 1935.67 682.547 Q1939.3 682.547 1941.11 679.006 Q1942.93 675.441 1942.93 668.335 Q1942.93 661.205 1941.11 657.663 Q1939.3 654.099 1935.67 654.099 M1935.67 650.395 Q1941.48 650.395 1944.53 655.001 Q1947.61 659.585 1947.61 668.335 Q1947.61 677.061 1944.53 681.668 Q1941.48 686.251 1935.67 686.251 Q1929.86 686.251 1926.78 681.668 Q1923.72 677.061 1923.72 668.335 Q1923.72 659.585 1926.78 655.001 Q1929.86 650.395 1935.67 650.395 Z" fill="#000000" fill-rule="nonzero" fill-opacity="1" /><path clip-path="url(#clip760)" d="M2069.38 681.645 L2077.02 681.645 L2077.02 655.279 L2068.71 656.946 L2068.71 652.687 L2076.97 651.02 L2081.65 651.02 L2081.65 681.645 L2089.29 681.645 L2089.29 685.58 L2069.38 685.58 L2069.38 681.645 Z" fill="#000000" fill-rule="nonzero" fill-opacity="1" /><path clip-path="url(#clip760)" d="M2099.54 681.645 L2107.18 681.645 L2107.18 655.279 L2098.87 656.946 L2098.87 652.687 L2107.13 651.02 L2111.81 651.02 L2111.81 681.645 L2119.45 681.645 L2119.45 685.58 L2099.54 685.58 L2099.54 681.645 Z" fill="#000000" fill-rule="nonzero" fill-opacity="1" /><path clip-path="url(#clip760)" d="M2242.02 681.645 L2249.66 681.645 L2249.66 655.279 L2241.34 656.946 L2241.34 652.687 L2249.61 651.02 L2254.28 651.02 L2254.28 681.645 L2261.92 681.645 L2261.92 685.58 L2242.02 685.58 L2242.02 681.645 Z" fill="#000000" fill-rule="nonzero" fill-opacity="1" /><path clip-path="url(#clip760)" d="M2275.4 681.645 L2291.71 681.645 L2291.71 685.58 L2269.77 685.58 L2269.77 681.645 Q2272.43 678.89 2277.02 674.26 Q2281.62 669.608 2282.8 668.265 Q2285.05 665.742 2285.93 664.006 Q2286.83 662.247 2286.83 660.557 Q2286.83 657.802 2284.89 656.066 Q2282.97 654.33 2279.86 654.33 Q2277.66 654.33 2275.21 655.094 Q2272.78 655.858 2270 657.409 L2270 652.687 Q2272.83 651.552 2275.28 650.974 Q2277.73 650.395 2279.77 650.395 Q2285.14 650.395 2288.34 653.08 Q2291.53 655.765 2291.53 660.256 Q2291.53 662.386 2290.72 664.307 Q2289.93 666.205 2287.83 668.798 Q2287.25 669.469 2284.15 672.686 Q2281.04 675.881 2275.4 681.645 Z" fill="#000000" fill-rule="nonzero" fill-opacity="1" /><path clip-path="url(#clip760)" d="M1240.29 731.913 Q1240.29 732.815 1239.87 733.04 Q1239.45 733.233 1238.29 733.233 L1232.11 733.233 L1227.21 752.686 Q1226.83 754.393 1226.83 755.842 Q1226.83 757.452 1227.31 758.161 Q1227.83 758.869 1228.89 758.869 Q1230.98 758.869 1233.24 756.969 Q1235.52 755.069 1237.46 750.431 Q1237.71 749.819 1237.84 749.691 Q1238 749.53 1238.42 749.53 Q1239.23 749.53 1239.23 750.174 Q1239.23 750.399 1238.78 751.43 Q1238.36 752.46 1237.42 753.974 Q1236.52 755.488 1235.33 756.905 Q1234.17 758.322 1232.4 759.352 Q1230.63 760.351 1228.73 760.351 Q1226.05 760.351 1224.35 758.644 Q1222.67 756.937 1222.67 754.264 Q1222.67 753.394 1223.35 750.625 Q1224.03 747.823 1227.7 733.233 L1221.87 733.233 Q1221.06 733.233 1220.74 733.201 Q1220.45 733.169 1220.23 733.008 Q1220.03 732.815 1220.03 732.428 Q1220.03 731.816 1220.29 731.559 Q1220.55 731.269 1220.87 731.237 Q1221.22 731.172 1222.03 731.172 L1228.21 731.172 L1230.79 720.705 Q1231.05 719.675 1231.69 719.095 Q1232.37 718.483 1232.75 718.419 Q1233.14 718.322 1233.43 718.322 Q1234.3 718.322 1234.81 718.805 Q1235.33 719.256 1235.33 720.093 Q1235.33 720.544 1232.62 731.172 L1238.42 731.172 Q1239.16 731.172 1239.45 731.204 Q1239.77 731.237 1240.03 731.398 Q1240.29 731.559 1240.29 731.913 Z" fill="#000000" fill-rule="nonzero" fill-opacity="1" /><polyline clip-path="url(#clip763)" style="stroke:#000000; stroke-linecap:round; stroke-linejoin:round; stroke-width:2; stroke-opacity:0.1; fill:none" points="110.881,598.253 2352.76,598.253 "/>
<polyline clip-path="url(#clip763)" style="stroke:#000000; stroke-linecap:round; stroke-linejoin:round; stroke-width:2; stroke-opacity:0.1; fill:none" points="110.881,548.399 2352.76,548.399 "/>
<polyline clip-path="url(#clip760)" style="stroke:#000000; stroke-linecap:round; stroke-linejoin:round; stroke-width:4; stroke-opacity:1; fill:none" points="110.881,623.18 110.881,523.472 "/>
<polyline clip-path="url(#clip760)" style="stroke:#000000; stroke-linecap:round; stroke-linejoin:round; stroke-width:4; stroke-opacity:1; fill:none" points="110.881,598.253 129.779,598.253 "/>
<polyline clip-path="url(#clip760)" style="stroke:#000000; stroke-linecap:round; stroke-linejoin:round; stroke-width:4; stroke-opacity:1; fill:none" points="110.881,548.399 129.779,548.399 "/>
<path clip-path="url(#clip760)" d="M62.9365 584.052 Q59.3254 584.052 57.4967 587.616 Q55.6912 591.158 55.6912 598.288 Q55.6912 605.394 57.4967 608.959 Q59.3254 612.501 62.9365 612.501 Q66.5707 612.501 68.3763 608.959 Q70.205 605.394 70.205 598.288 Q70.205 591.158 68.3763 587.616 Q66.5707 584.052 62.9365 584.052 M62.9365 580.348 Q68.7467 580.348 71.8022 584.954 Q74.8809 589.538 74.8809 598.288 Q74.8809 607.014 71.8022 611.621 Q68.7467 616.204 62.9365 616.204 Q57.1264 616.204 54.0477 611.621 Q50.9921 607.014 50.9921 598.288 Q50.9921 589.538 54.0477 584.954 Q57.1264 580.348 62.9365 580.348 Z" fill="#000000" fill-rule="nonzero" fill-opacity="1" /><path clip-path="url(#clip760)" d="M54.9736 561.744 L62.6124 561.744 L62.6124 535.378 L54.3023 537.045 L54.3023 532.786 L62.5661 531.119 L67.242 531.119 L67.242 561.744 L74.8809 561.744 L74.8809 565.679 L54.9736 565.679 L54.9736 561.744 Z" fill="#000000" fill-rule="nonzero" fill-opacity="1" /><path clip-path="url(#clip760)" d="M1213.86 439.832 Q1213.86 440.078 1213.62 441.062 L1166.68 493.528 L1181.03 493.528 Q1185.25 493.528 1188.45 492.79 Q1191.65 492.011 1193.86 490.7 Q1196.07 489.388 1197.79 487.134 Q1199.56 484.838 1200.7 482.338 Q1201.85 479.797 1203.04 476.067 Q1203.49 474.632 1203.7 474.304 Q1203.9 473.976 1204.43 473.976 Q1204.97 473.976 1205.25 474.304 Q1205.54 474.591 1205.54 474.919 Q1205.54 475.083 1205.46 475.329 Q1205.42 475.534 1205.34 475.78 Q1205.25 476.026 1205.21 476.149 L1199.23 494.717 Q1198.86 495.905 1198.49 496.151 Q1198.12 496.397 1196.65 496.397 L1160.12 496.397 Q1158.85 496.397 1158.44 496.315 Q1158.03 496.192 1158.03 495.66 L1158.36 494.143 L1205.29 441.677 L1191.6 441.677 Q1187.75 441.677 1184.72 442.373 Q1181.73 443.029 1179.59 444.259 Q1177.46 445.448 1175.82 447.456 Q1174.18 449.424 1173.08 451.719 Q1171.97 453.973 1170.95 457.13 L1170.82 457.335 Q1170.7 457.539 1170.62 457.662 Q1170.54 457.744 1170.33 457.867 Q1170.13 457.949 1169.88 457.949 Q1169.43 457.949 1169.14 457.703 Q1168.9 457.457 1168.9 457.212 L1168.86 457.007 Q1168.94 456.269 1169.1 455.859 L1173.73 440.734 Q1174.1 439.545 1174.47 439.299 Q1174.84 439.053 1176.32 439.053 L1211.77 439.053 Q1213.08 439.053 1213.45 439.176 Q1213.86 439.299 1213.86 439.832 Z" fill="#000000" fill-rule="nonzero" fill-opacity="1" /><path clip-path="url(#clip760)" d="M1261.07 435.707 Q1261.41 436.051 1261.41 436.539 Q1261.41 437.026 1261.07 437.371 Q1260.72 437.715 1260.24 437.715 L1223.45 437.715 Q1222.96 437.715 1222.62 437.371 Q1222.28 437.026 1222.28 436.539 Q1222.28 436.051 1222.62 435.707 Q1222.96 435.362 1223.45 435.362 L1260.24 435.362 Q1260.72 435.362 1261.07 435.707 Z" fill="#000000" fill-rule="nonzero" fill-opacity="1" /><path clip-path="url(#clip760)" d="M1267.54 417.688 L1267.54 415.851 Q1274.6 415.851 1278.25 412.093 Q1279.25 412.093 1279.42 412.322 Q1279.59 412.552 1279.59 413.613 L1279.59 446.581 Q1279.59 448.331 1280.46 448.876 Q1281.32 449.422 1285.07 449.422 L1286.94 449.422 L1286.94 451.229 Q1284.87 451.057 1277.41 451.057 Q1269.95 451.057 1267.92 451.229 L1267.92 449.422 L1269.78 449.422 Q1273.48 449.422 1274.37 448.905 Q1275.26 448.36 1275.26 446.581 L1275.26 416.138 Q1272.19 417.688 1267.54 417.688 Z" fill="#000000" fill-rule="nonzero" fill-opacity="1" /><polyline clip-path="url(#clip763)" style="stroke:#009af9; stroke-linecap:round; stroke-linejoin:round; stroke-width:8; stroke-opacity:1; fill:none" points="369.559,598.253 542.011,598.253 542.011,548.399 714.463,548.399 886.915,548.399 1059.37,548.399 1059.37,598.253 1231.82,598.253 1231.82,548.399 1404.27,548.399 1576.72,548.399 1749.17,548.399 1921.63,548.399 1921.63,598.253 2094.08,598.253 2094.08,548.399 2266.53,548.399 "/>
<path clip-path="url(#clip760)" d="M110.881 1023.18 L2352.76 1023.18 L2352.76 923.472 L110.881 923.472  Z" fill="#ffffff" fill-rule="evenodd" fill-opacity="1"/>
<defs>
  <clipPath id="clip764">
    <rect x="110" y="923" width="2243" height="101"/>
  </clipPath>
</defs>
<polyline clip-path="url(#clip764)" style="stroke:#000000; stroke-linecap:round; stroke-linejoin:round; stroke-width:2; stroke-opacity:0.1; fill:none" points="197.107,1023.18 197.107,923.472 "/>
<polyline clip-path="url(#clip764)" style="stroke:#000000; stroke-linecap:round; stroke-linejoin:round; stroke-width:2; stroke-opacity:0.1; fill:none" points="369.559,1023.18 369.559,923.472 "/>
<polyline clip-path="url(#clip764)" style="stroke:#000000; stroke-linecap:round; stroke-linejoin:round; stroke-width:2; stroke-opacity:0.1; fill:none" points="542.011,1023.18 542.011,923.472 "/>
<polyline clip-path="url(#clip764)" style="stroke:#000000; stroke-linecap:round; stroke-linejoin:round; stroke-width:2; stroke-opacity:0.1; fill:none" points="714.463,1023.18 714.463,923.472 "/>
<polyline clip-path="url(#clip764)" style="stroke:#000000; stroke-linecap:round; stroke-linejoin:round; stroke-width:2; stroke-opacity:0.1; fill:none" points="886.915,1023.18 886.915,923.472 "/>
<polyline clip-path="url(#clip764)" style="stroke:#000000; stroke-linecap:round; stroke-linejoin:round; stroke-width:2; stroke-opacity:0.1; fill:none" points="1059.37,1023.18 1059.37,923.472 "/>
<polyline clip-path="url(#clip764)" style="stroke:#000000; stroke-linecap:round; stroke-linejoin:round; stroke-width:2; stroke-opacity:0.1; fill:none" points="1231.82,1023.18 1231.82,923.472 "/>
<polyline clip-path="url(#clip764)" style="stroke:#000000; stroke-linecap:round; stroke-linejoin:round; stroke-width:2; stroke-opacity:0.1; fill:none" points="1404.27,1023.18 1404.27,923.472 "/>
<polyline clip-path="url(#clip764)" style="stroke:#000000; stroke-linecap:round; stroke-linejoin:round; stroke-width:2; stroke-opacity:0.1; fill:none" points="1576.72,1023.18 1576.72,923.472 "/>
<polyline clip-path="url(#clip764)" style="stroke:#000000; stroke-linecap:round; stroke-linejoin:round; stroke-width:2; stroke-opacity:0.1; fill:none" points="1749.17,1023.18 1749.17,923.472 "/>
<polyline clip-path="url(#clip764)" style="stroke:#000000; stroke-linecap:round; stroke-linejoin:round; stroke-width:2; stroke-opacity:0.1; fill:none" points="1921.63,1023.18 1921.63,923.472 "/>
<polyline clip-path="url(#clip764)" style="stroke:#000000; stroke-linecap:round; stroke-linejoin:round; stroke-width:2; stroke-opacity:0.1; fill:none" points="2094.08,1023.18 2094.08,923.472 "/>
<polyline clip-path="url(#clip764)" style="stroke:#000000; stroke-linecap:round; stroke-linejoin:round; stroke-width:2; stroke-opacity:0.1; fill:none" points="2266.53,1023.18 2266.53,923.472 "/>
<polyline clip-path="url(#clip760)" style="stroke:#000000; stroke-linecap:round; stroke-linejoin:round; stroke-width:4; stroke-opacity:1; fill:none" points="110.881,1023.18 2352.76,1023.18 "/>
<polyline clip-path="url(#clip760)" style="stroke:#000000; stroke-linecap:round; stroke-linejoin:round; stroke-width:4; stroke-opacity:1; fill:none" points="197.107,1023.18 197.107,1004.28 "/>
<polyline clip-path="url(#clip760)" style="stroke:#000000; stroke-linecap:round; stroke-linejoin:round; stroke-width:4; stroke-opacity:1; fill:none" points="369.559,1023.18 369.559,1004.28 "/>
<polyline clip-path="url(#clip760)" style="stroke:#000000; stroke-linecap:round; stroke-linejoin:round; stroke-width:4; stroke-opacity:1; fill:none" points="542.011,1023.18 542.011,1004.28 "/>
<polyline clip-path="url(#clip760)" style="stroke:#000000; stroke-linecap:round; stroke-linejoin:round; stroke-width:4; stroke-opacity:1; fill:none" points="714.463,1023.18 714.463,1004.28 "/>
<polyline clip-path="url(#clip760)" style="stroke:#000000; stroke-linecap:round; stroke-linejoin:round; stroke-width:4; stroke-opacity:1; fill:none" points="886.915,1023.18 886.915,1004.28 "/>
<polyline clip-path="url(#clip760)" style="stroke:#000000; stroke-linecap:round; stroke-linejoin:round; stroke-width:4; stroke-opacity:1; fill:none" points="1059.37,1023.18 1059.37,1004.28 "/>
<polyline clip-path="url(#clip760)" style="stroke:#000000; stroke-linecap:round; stroke-linejoin:round; stroke-width:4; stroke-opacity:1; fill:none" points="1231.82,1023.18 1231.82,1004.28 "/>
<polyline clip-path="url(#clip760)" style="stroke:#000000; stroke-linecap:round; stroke-linejoin:round; stroke-width:4; stroke-opacity:1; fill:none" points="1404.27,1023.18 1404.27,1004.28 "/>
<polyline clip-path="url(#clip760)" style="stroke:#000000; stroke-linecap:round; stroke-linejoin:round; stroke-width:4; stroke-opacity:1; fill:none" points="1576.72,1023.18 1576.72,1004.28 "/>
<polyline clip-path="url(#clip760)" style="stroke:#000000; stroke-linecap:round; stroke-linejoin:round; stroke-width:4; stroke-opacity:1; fill:none" points="1749.17,1023.18 1749.17,1004.28 "/>
<polyline clip-path="url(#clip760)" style="stroke:#000000; stroke-linecap:round; stroke-linejoin:round; stroke-width:4; stroke-opacity:1; fill:none" points="1921.63,1023.18 1921.63,1004.28 "/>
<polyline clip-path="url(#clip760)" style="stroke:#000000; stroke-linecap:round; stroke-linejoin:round; stroke-width:4; stroke-opacity:1; fill:none" points="2094.08,1023.18 2094.08,1004.28 "/>
<polyline clip-path="url(#clip760)" style="stroke:#000000; stroke-linecap:round; stroke-linejoin:round; stroke-width:4; stroke-opacity:1; fill:none" points="2266.53,1023.18 2266.53,1004.28 "/>
<path clip-path="url(#clip760)" d="M197.107 1054.1 Q193.496 1054.1 191.667 1057.66 Q189.862 1061.2 189.862 1068.33 Q189.862 1075.44 191.667 1079.01 Q193.496 1082.55 197.107 1082.55 Q200.741 1082.55 202.547 1079.01 Q204.375 1075.44 204.375 1068.33 Q204.375 1061.2 202.547 1057.66 Q200.741 1054.1 197.107 1054.1 M197.107 1050.39 Q202.917 1050.39 205.973 1055 Q209.051 1059.58 209.051 1068.33 Q209.051 1077.06 205.973 1081.67 Q202.917 1086.25 197.107 1086.25 Q191.297 1086.25 188.218 1081.67 Q185.162 1077.06 185.162 1068.33 Q185.162 1059.58 188.218 1055 Q191.297 1050.39 197.107 1050.39 Z" fill="#000000" fill-rule="nonzero" fill-opacity="1" /><path clip-path="url(#clip760)" d="M359.941 1081.64 L367.58 1081.64 L367.58 1055.28 L359.269 1056.95 L359.269 1052.69 L367.533 1051.02 L372.209 1051.02 L372.209 1081.64 L379.848 1081.64 L379.848 1085.58 L359.941 1085.58 L359.941 1081.64 Z" fill="#000000" fill-rule="nonzero" fill-opacity="1" /><path clip-path="url(#clip760)" d="M536.664 1081.64 L552.983 1081.64 L552.983 1085.58 L531.039 1085.58 L531.039 1081.64 Q533.701 1078.89 538.284 1074.26 Q542.89 1069.61 544.071 1068.27 Q546.316 1065.74 547.196 1064.01 Q548.099 1062.25 548.099 1060.56 Q548.099 1057.8 546.154 1056.07 Q544.233 1054.33 541.131 1054.33 Q538.932 1054.33 536.478 1055.09 Q534.048 1055.86 531.27 1057.41 L531.27 1052.69 Q534.094 1051.55 536.548 1050.97 Q539.001 1050.39 541.038 1050.39 Q546.409 1050.39 549.603 1053.08 Q552.798 1055.77 552.798 1060.26 Q552.798 1062.39 551.987 1064.31 Q551.2 1066.2 549.094 1068.8 Q548.515 1069.47 545.413 1072.69 Q542.312 1075.88 536.664 1081.64 Z" fill="#000000" fill-rule="nonzero" fill-opacity="1" /><path clip-path="url(#clip760)" d="M718.71 1066.95 Q722.067 1067.66 723.942 1069.93 Q725.84 1072.2 725.84 1075.53 Q725.84 1080.65 722.321 1083.45 Q718.803 1086.25 712.321 1086.25 Q710.146 1086.25 707.831 1085.81 Q705.539 1085.39 703.085 1084.54 L703.085 1080.02 Q705.03 1081.16 707.345 1081.74 Q709.659 1082.32 712.183 1082.32 Q716.581 1082.32 718.872 1080.58 Q721.187 1078.84 721.187 1075.53 Q721.187 1072.48 719.034 1070.77 Q716.905 1069.03 713.085 1069.03 L709.058 1069.03 L709.058 1065.19 L713.27 1065.19 Q716.72 1065.19 718.548 1063.82 Q720.377 1062.43 720.377 1059.84 Q720.377 1057.18 718.479 1055.77 Q716.604 1054.33 713.085 1054.33 Q711.164 1054.33 708.965 1054.75 Q706.766 1055.16 704.127 1056.04 L704.127 1051.88 Q706.789 1051.14 709.104 1050.77 Q711.442 1050.39 713.502 1050.39 Q718.826 1050.39 721.928 1052.83 Q725.03 1055.23 725.03 1059.35 Q725.03 1062.22 723.386 1064.21 Q721.743 1066.18 718.71 1066.95 Z" fill="#000000" fill-rule="nonzero" fill-opacity="1" /><path clip-path="url(#clip760)" d="M889.924 1055.09 L878.118 1073.54 L889.924 1073.54 L889.924 1055.09 M888.697 1051.02 L894.577 1051.02 L894.577 1073.54 L899.507 1073.54 L899.507 1077.43 L894.577 1077.43 L894.577 1085.58 L889.924 1085.58 L889.924 1077.43 L874.322 1077.43 L874.322 1072.92 L888.697 1051.02 Z" fill="#000000" fill-rule="nonzero" fill-opacity="1" /><path clip-path="url(#clip760)" d="M1049.64 1051.02 L1068 1051.02 L1068 1054.96 L1053.93 1054.96 L1053.93 1063.43 Q1054.95 1063.08 1055.96 1062.92 Q1056.98 1062.73 1058 1062.73 Q1063.79 1062.73 1067.17 1065.9 Q1070.55 1069.08 1070.55 1074.49 Q1070.55 1080.07 1067.07 1083.17 Q1063.6 1086.25 1057.28 1086.25 Q1055.11 1086.25 1052.84 1085.88 Q1050.59 1085.51 1048.19 1084.77 L1048.19 1080.07 Q1050.27 1081.2 1052.49 1081.76 Q1054.71 1082.32 1057.19 1082.32 Q1061.2 1082.32 1063.53 1080.21 Q1065.87 1078.1 1065.87 1074.49 Q1065.87 1070.88 1063.53 1068.77 Q1061.2 1066.67 1057.19 1066.67 Q1055.32 1066.67 1053.44 1067.08 Q1051.59 1067.5 1049.64 1068.38 L1049.64 1051.02 Z" fill="#000000" fill-rule="nonzero" fill-opacity="1" /><path clip-path="url(#clip760)" d="M1232.22 1066.44 Q1229.08 1066.44 1227.22 1068.59 Q1225.39 1070.74 1225.39 1074.49 Q1225.39 1078.22 1227.22 1080.39 Q1229.08 1082.55 1232.22 1082.55 Q1235.37 1082.55 1237.2 1080.39 Q1239.05 1078.22 1239.05 1074.49 Q1239.05 1070.74 1237.2 1068.59 Q1235.37 1066.44 1232.22 1066.44 M1241.51 1051.78 L1241.51 1056.04 Q1239.75 1055.21 1237.94 1054.77 Q1236.16 1054.33 1234.4 1054.33 Q1229.77 1054.33 1227.32 1057.45 Q1224.89 1060.58 1224.54 1066.9 Q1225.9 1064.89 1227.96 1063.82 Q1230.02 1062.73 1232.5 1062.73 Q1237.71 1062.73 1240.72 1065.9 Q1243.75 1069.05 1243.75 1074.49 Q1243.75 1079.82 1240.6 1083.03 Q1237.45 1086.25 1232.22 1086.25 Q1226.23 1086.25 1223.06 1081.67 Q1219.89 1077.06 1219.89 1068.33 Q1219.89 1060.14 1223.77 1055.28 Q1227.66 1050.39 1234.21 1050.39 Q1235.97 1050.39 1237.76 1050.74 Q1239.56 1051.09 1241.51 1051.78 Z" fill="#000000" fill-rule="nonzero" fill-opacity="1" /><path clip-path="url(#clip760)" d="M1393.16 1051.02 L1415.38 1051.02 L1415.38 1053.01 L1402.84 1085.58 L1397.95 1085.58 L1409.76 1054.96 L1393.16 1054.96 L1393.16 1051.02 Z" fill="#000000" fill-rule="nonzero" fill-opacity="1" /><path clip-path="url(#clip760)" d="M1576.72 1069.17 Q1573.39 1069.17 1571.47 1070.95 Q1569.57 1072.73 1569.57 1075.86 Q1569.57 1078.98 1571.47 1080.77 Q1573.39 1082.55 1576.72 1082.55 Q1580.06 1082.55 1581.98 1080.77 Q1583.9 1078.96 1583.9 1075.86 Q1583.9 1072.73 1581.98 1070.95 Q1580.08 1069.17 1576.72 1069.17 M1572.05 1067.18 Q1569.04 1066.44 1567.35 1064.38 Q1565.68 1062.32 1565.68 1059.35 Q1565.68 1055.21 1568.62 1052.8 Q1571.58 1050.39 1576.72 1050.39 Q1581.88 1050.39 1584.82 1052.8 Q1587.76 1055.21 1587.76 1059.35 Q1587.76 1062.32 1586.07 1064.38 Q1584.41 1066.44 1581.42 1067.18 Q1584.8 1067.96 1586.68 1070.26 Q1588.57 1072.55 1588.57 1075.86 Q1588.57 1080.88 1585.5 1083.57 Q1582.44 1086.25 1576.72 1086.25 Q1571 1086.25 1567.93 1083.57 Q1564.87 1080.88 1564.87 1075.86 Q1564.87 1072.55 1566.77 1070.26 Q1568.67 1067.96 1572.05 1067.18 M1570.33 1059.79 Q1570.33 1062.48 1572 1063.98 Q1573.69 1065.49 1576.72 1065.49 Q1579.73 1065.49 1581.42 1063.98 Q1583.13 1062.48 1583.13 1059.79 Q1583.13 1057.11 1581.42 1055.6 Q1579.73 1054.1 1576.72 1054.1 Q1573.69 1054.1 1572 1055.6 Q1570.33 1057.11 1570.33 1059.79 Z" fill="#000000" fill-rule="nonzero" fill-opacity="1" /><path clip-path="url(#clip760)" d="M1739.48 1084.86 L1739.48 1080.6 Q1741.23 1081.44 1743.04 1081.88 Q1744.85 1082.32 1746.58 1082.32 Q1751.21 1082.32 1753.64 1079.21 Q1756.1 1076.09 1756.44 1069.75 Q1755.1 1071.74 1753.04 1072.8 Q1750.98 1073.87 1748.48 1073.87 Q1743.29 1073.87 1740.26 1070.74 Q1737.25 1067.59 1737.25 1062.15 Q1737.25 1056.83 1740.4 1053.61 Q1743.55 1050.39 1748.78 1050.39 Q1754.78 1050.39 1757.92 1055 Q1761.1 1059.58 1761.1 1068.33 Q1761.1 1076.51 1757.21 1081.39 Q1753.34 1086.25 1746.79 1086.25 Q1745.03 1086.25 1743.23 1085.9 Q1741.42 1085.56 1739.48 1084.86 M1748.78 1070.21 Q1751.93 1070.21 1753.76 1068.06 Q1755.61 1065.9 1755.61 1062.15 Q1755.61 1058.43 1753.76 1056.27 Q1751.93 1054.1 1748.78 1054.1 Q1745.63 1054.1 1743.78 1056.27 Q1741.95 1058.43 1741.95 1062.15 Q1741.95 1065.9 1743.78 1068.06 Q1745.63 1070.21 1748.78 1070.21 Z" fill="#000000" fill-rule="nonzero" fill-opacity="1" /><path clip-path="url(#clip760)" d="M1896.31 1081.64 L1903.95 1081.64 L1903.95 1055.28 L1895.64 1056.95 L1895.64 1052.69 L1903.91 1051.02 L1908.58 1051.02 L1908.58 1081.64 L1916.22 1081.64 L1916.22 1085.58 L1896.31 1085.58 L1896.31 1081.64 Z" fill="#000000" fill-rule="nonzero" fill-opacity="1" /><path clip-path="url(#clip760)" d="M1935.67 1054.1 Q1932.05 1054.1 1930.23 1057.66 Q1928.42 1061.2 1928.42 1068.33 Q1928.42 1075.44 1930.23 1079.01 Q1932.05 1082.55 1935.67 1082.55 Q1939.3 1082.55 1941.11 1079.01 Q1942.93 1075.44 1942.93 1068.33 Q1942.93 1061.2 1941.11 1057.66 Q1939.3 1054.1 1935.67 1054.1 M1935.67 1050.39 Q1941.48 1050.39 1944.53 1055 Q1947.61 1059.58 1947.61 1068.33 Q1947.61 1077.06 1944.53 1081.67 Q1941.48 1086.25 1935.67 1086.25 Q1929.86 1086.25 1926.78 1081.67 Q1923.72 1077.06 1923.72 1068.33 Q1923.72 1059.58 1926.78 1055 Q1929.86 1050.39 1935.67 1050.39 Z" fill="#000000" fill-rule="nonzero" fill-opacity="1" /><path clip-path="url(#clip760)" d="M2069.38 1081.64 L2077.02 1081.64 L2077.02 1055.28 L2068.71 1056.95 L2068.71 1052.69 L2076.97 1051.02 L2081.65 1051.02 L2081.65 1081.64 L2089.29 1081.64 L2089.29 1085.58 L2069.38 1085.58 L2069.38 1081.64 Z" fill="#000000" fill-rule="nonzero" fill-opacity="1" /><path clip-path="url(#clip760)" d="M2099.54 1081.64 L2107.18 1081.64 L2107.18 1055.28 L2098.87 1056.95 L2098.87 1052.69 L2107.13 1051.02 L2111.81 1051.02 L2111.81 1081.64 L2119.45 1081.64 L2119.45 1085.58 L2099.54 1085.58 L2099.54 1081.64 Z" fill="#000000" fill-rule="nonzero" fill-opacity="1" /><path clip-path="url(#clip760)" d="M2242.02 1081.64 L2249.66 1081.64 L2249.66 1055.28 L2241.34 1056.95 L2241.34 1052.69 L2249.61 1051.02 L2254.28 1051.02 L2254.28 1081.64 L2261.92 1081.64 L2261.92 1085.58 L2242.02 1085.58 L2242.02 1081.64 Z" fill="#000000" fill-rule="nonzero" fill-opacity="1" /><path clip-path="url(#clip760)" d="M2275.4 1081.64 L2291.71 1081.64 L2291.71 1085.58 L2269.77 1085.58 L2269.77 1081.64 Q2272.43 1078.89 2277.02 1074.26 Q2281.62 1069.61 2282.8 1068.27 Q2285.05 1065.74 2285.93 1064.01 Q2286.83 1062.25 2286.83 1060.56 Q2286.83 1057.8 2284.89 1056.07 Q2282.97 1054.33 2279.86 1054.33 Q2277.66 1054.33 2275.21 1055.09 Q2272.78 1055.86 2270 1057.41 L2270 1052.69 Q2272.83 1051.55 2275.28 1050.97 Q2277.73 1050.39 2279.77 1050.39 Q2285.14 1050.39 2288.34 1053.08 Q2291.53 1055.77 2291.53 1060.26 Q2291.53 1062.39 2290.72 1064.31 Q2289.93 1066.2 2287.83 1068.8 Q2287.25 1069.47 2284.15 1072.69 Q2281.04 1075.88 2275.4 1081.64 Z" fill="#000000" fill-rule="nonzero" fill-opacity="1" /><path clip-path="url(#clip760)" d="M1240.29 1131.91 Q1240.29 1132.81 1239.87 1133.04 Q1239.45 1133.23 1238.29 1133.23 L1232.11 1133.23 L1227.21 1152.69 Q1226.83 1154.39 1226.83 1155.84 Q1226.83 1157.45 1227.31 1158.16 Q1227.83 1158.87 1228.89 1158.87 Q1230.98 1158.87 1233.24 1156.97 Q1235.52 1155.07 1237.46 1150.43 Q1237.71 1149.82 1237.84 1149.69 Q1238 1149.53 1238.42 1149.53 Q1239.23 1149.53 1239.23 1150.17 Q1239.23 1150.4 1238.78 1151.43 Q1238.36 1152.46 1237.42 1153.97 Q1236.52 1155.49 1235.33 1156.9 Q1234.17 1158.32 1232.4 1159.35 Q1230.63 1160.35 1228.73 1160.35 Q1226.05 1160.35 1224.35 1158.64 Q1222.67 1156.94 1222.67 1154.26 Q1222.67 1153.39 1223.35 1150.62 Q1224.03 1147.82 1227.7 1133.23 L1221.87 1133.23 Q1221.06 1133.23 1220.74 1133.2 Q1220.45 1133.17 1220.23 1133.01 Q1220.03 1132.81 1220.03 1132.43 Q1220.03 1131.82 1220.29 1131.56 Q1220.55 1131.27 1220.87 1131.24 Q1221.22 1131.17 1222.03 1131.17 L1228.21 1131.17 L1230.79 1120.71 Q1231.05 1119.67 1231.69 1119.09 Q1232.37 1118.48 1232.75 1118.42 Q1233.14 1118.32 1233.43 1118.32 Q1234.3 1118.32 1234.81 1118.81 Q1235.33 1119.26 1235.33 1120.09 Q1235.33 1120.54 1232.62 1131.17 L1238.42 1131.17 Q1239.16 1131.17 1239.45 1131.2 Q1239.77 1131.24 1240.03 1131.4 Q1240.29 1131.56 1240.29 1131.91 Z" fill="#000000" fill-rule="nonzero" fill-opacity="1" /><polyline clip-path="url(#clip764)" style="stroke:#000000; stroke-linecap:round; stroke-linejoin:round; stroke-width:2; stroke-opacity:0.1; fill:none" points="110.881,998.253 2352.76,998.253 "/>
<polyline clip-path="url(#clip764)" style="stroke:#000000; stroke-linecap:round; stroke-linejoin:round; stroke-width:2; stroke-opacity:0.1; fill:none" points="110.881,948.399 2352.76,948.399 "/>
<polyline clip-path="url(#clip760)" style="stroke:#000000; stroke-linecap:round; stroke-linejoin:round; stroke-width:4; stroke-opacity:1; fill:none" points="110.881,1023.18 110.881,923.472 "/>
<polyline clip-path="url(#clip760)" style="stroke:#000000; stroke-linecap:round; stroke-linejoin:round; stroke-width:4; stroke-opacity:1; fill:none" points="110.881,998.253 129.779,998.253 "/>
<polyline clip-path="url(#clip760)" style="stroke:#000000; stroke-linecap:round; stroke-linejoin:round; stroke-width:4; stroke-opacity:1; fill:none" points="110.881,948.399 129.779,948.399 "/>
<path clip-path="url(#clip760)" d="M62.9365 984.052 Q59.3254 984.052 57.4967 987.616 Q55.6912 991.158 55.6912 998.288 Q55.6912 1005.39 57.4967 1008.96 Q59.3254 1012.5 62.9365 1012.5 Q66.5707 1012.5 68.3763 1008.96 Q70.205 1005.39 70.205 998.288 Q70.205 991.158 68.3763 987.616 Q66.5707 984.052 62.9365 984.052 M62.9365 980.348 Q68.7467 980.348 71.8022 984.954 Q74.8809 989.538 74.8809 998.288 Q74.8809 1007.01 71.8022 1011.62 Q68.7467 1016.2 62.9365 1016.2 Q57.1264 1016.2 54.0477 1011.62 Q50.9921 1007.01 50.9921 998.288 Q50.9921 989.538 54.0477 984.954 Q57.1264 980.348 62.9365 980.348 Z" fill="#000000" fill-rule="nonzero" fill-opacity="1" /><path clip-path="url(#clip760)" d="M54.9736 961.744 L62.6124 961.744 L62.6124 935.378 L54.3023 937.045 L54.3023 932.786 L62.5661 931.119 L67.242 931.119 L67.242 961.744 L74.8809 961.744 L74.8809 965.679 L54.9736 965.679 L54.9736 961.744 Z" fill="#000000" fill-rule="nonzero" fill-opacity="1" /><path clip-path="url(#clip760)" d="M1199.37 826.429 Q1199.37 827.167 1199.09 827.577 Q1198.84 827.946 1198.55 828.028 Q1198.27 828.069 1197.53 828.11 Q1191.67 828.397 1186.87 832.373 Q1185.68 833.397 1182.69 836.595 Q1179.74 839.792 1175.8 844.055 Q1171.91 848.317 1169.66 850.613 L1180.48 876.518 Q1180.93 877.543 1181.09 877.994 Q1181.3 878.404 1181.71 878.936 Q1182.16 879.469 1182.49 879.633 Q1182.85 879.797 1183.63 880.002 Q1184.45 880.166 1185.27 880.207 Q1186.13 880.207 1187.69 880.248 Q1188.18 880.248 1188.39 880.289 Q1188.63 880.289 1188.92 880.535 Q1189.21 880.74 1189.21 881.232 Q1189.21 881.97 1188.88 882.38 Q1188.59 882.748 1188.31 882.789 Q1188.06 882.83 1187.61 882.83 Q1186.54 882.83 1182.94 882.707 Q1179.33 882.585 1178.3 882.585 L1167.73 882.83 Q1166.46 882.83 1166.46 881.806 Q1166.46 881.273 1166.54 880.986 Q1166.66 880.658 1166.95 880.535 Q1167.24 880.371 1167.44 880.33 Q1167.65 880.289 1168.14 880.248 Q1169.66 880.084 1170.8 879.633 Q1171.99 879.141 1172.48 878.65 Q1173.02 878.158 1173.02 877.789 L1172.61 876.6 L1164.12 856.556 L1156.54 864.795 L1147.97 873.854 Q1145.72 876.272 1145.72 877.625 Q1145.72 879.879 1149.08 880.248 Q1150.1 880.33 1150.1 881.15 Q1150.1 881.929 1149.78 882.339 Q1149.49 882.707 1149.2 882.789 Q1148.96 882.83 1148.59 882.83 Q1147.07 882.83 1143.87 882.707 Q1140.72 882.585 1139.16 882.585 Q1137.85 882.585 1135.18 882.707 Q1132.52 882.83 1131.29 882.83 Q1130.8 882.83 1130.51 882.585 Q1130.22 882.339 1130.22 882.093 L1130.18 881.888 Q1130.18 881.314 1130.27 880.986 Q1130.39 880.658 1130.72 880.494 Q1131.08 880.33 1131.25 880.33 Q1131.41 880.289 1132.03 880.248 Q1135.51 880.043 1138.46 878.691 Q1141.46 877.338 1144.37 874.182 Q1144.61 873.977 1144.9 873.731 Q1145.23 873.485 1145.47 873.28 L1163.18 854.22 L1153.26 830.774 Q1152.81 829.708 1152.4 829.257 Q1151.99 828.766 1150.72 828.438 Q1149.45 828.11 1146.99 828.11 Q1146.29 828.11 1145.96 828.069 Q1145.64 828.028 1145.35 827.823 Q1145.06 827.618 1145.06 827.167 Q1145.06 826.388 1145.35 826.019 Q1145.68 825.609 1145.92 825.568 Q1146.21 825.486 1146.58 825.486 Q1147.6 825.486 1151.25 825.609 Q1154.9 825.732 1155.97 825.732 Q1157.73 825.732 1161.25 825.609 Q1164.82 825.486 1166.54 825.486 Q1167.81 825.486 1167.81 826.511 Q1167.81 827.167 1167.52 827.536 Q1167.24 827.905 1166.95 827.987 Q1166.66 828.069 1166.13 828.11 Q1164.53 828.274 1163.3 828.807 Q1162.11 829.298 1161.62 829.79 Q1161.17 830.241 1161.17 830.528 L1161.58 831.635 L1168.63 848.317 L1182.24 833.725 Q1183.84 831.922 1183.84 830.692 Q1183.84 828.479 1180.48 828.11 Q1179.45 827.946 1179.45 827.167 Q1179.45 826.388 1179.78 826.019 Q1180.11 825.609 1180.35 825.568 Q1180.64 825.486 1181.05 825.486 Q1182.57 825.486 1185.68 825.609 Q1188.84 825.732 1190.4 825.732 Q1191.71 825.732 1194.37 825.609 Q1197.04 825.486 1198.27 825.486 Q1198.76 825.486 1199.05 825.732 Q1199.33 825.937 1199.33 826.183 L1199.37 826.429 Z" fill="#000000" fill-rule="nonzero" fill-opacity="1" /><path clip-path="url(#clip760)" d="M1262.65 846.227 Q1262.65 852.088 1260.55 857.909 Q1258.51 863.688 1254.9 868.443 Q1251.29 873.198 1246.7 876.887 Q1242.11 880.576 1236.74 882.625 Q1231.37 884.675 1226.12 884.675 Q1216.82 884.675 1210.71 878.568 Q1204.6 872.46 1204.6 862.254 Q1204.6 855.122 1207.8 848.031 Q1211 840.898 1216.08 835.611 Q1221.16 830.282 1227.85 826.962 Q1234.57 823.642 1241.21 823.642 Q1250.64 823.642 1256.62 829.913 Q1262.65 836.144 1262.65 846.227 M1255.14 842.948 Q1255.14 838.439 1253.87 835.037 Q1252.6 831.594 1250.47 829.626 Q1248.38 827.659 1245.88 826.716 Q1243.42 825.732 1240.72 825.732 Q1235.47 825.732 1229.85 829.134 Q1224.24 832.537 1220.06 838.849 Q1217.8 842.292 1216.16 846.432 Q1214.52 850.531 1213.79 854.179 Q1213.05 857.786 1212.72 860.327 Q1212.43 862.869 1212.43 864.631 Q1212.43 872.829 1216.37 877.666 Q1220.3 882.503 1226.62 882.503 Q1231.58 882.503 1236.41 879.592 Q1241.25 876.641 1244.57 872.419 Q1247.52 868.771 1249.69 864.385 Q1251.91 859.999 1253.01 855.982 Q1254.12 851.966 1254.61 848.727 Q1255.14 845.489 1255.14 842.948 Z" fill="#000000" fill-rule="nonzero" fill-opacity="1" /><path clip-path="url(#clip760)" d="M1321.15 836.39 Q1321.15 835.037 1320.78 833.93 Q1320.46 832.783 1319.92 832.004 Q1319.43 831.184 1318.49 830.569 Q1317.55 829.913 1316.77 829.503 Q1315.99 829.093 1314.68 828.848 Q1313.37 828.561 1312.5 828.438 Q1311.64 828.274 1310.17 828.192 Q1308.69 828.11 1307.95 828.11 Q1307.26 828.11 1305.86 828.11 Q1301.48 828.11 1300.74 828.192 Q1299.63 828.356 1299.22 829.012 Q1298.81 829.626 1298.4 831.307 L1292.95 853.195 L1302.34 853.195 Q1307.46 853.195 1310.99 851.761 Q1314.51 850.326 1316.52 848.317 Q1318.73 846.104 1319.92 842.538 Q1321.15 838.972 1321.15 836.39 M1330.29 875.042 Q1330.29 875.493 1329.92 876.518 Q1329.6 877.543 1328.78 878.977 Q1327.96 880.371 1326.85 881.642 Q1325.74 882.912 1323.98 883.773 Q1322.22 884.675 1320.21 884.675 Q1319.72 884.675 1319.23 884.634 Q1318.73 884.634 1317.51 884.429 Q1316.32 884.265 1315.33 883.937 Q1314.35 883.65 1313.12 882.953 Q1311.89 882.298 1311.03 881.396 Q1310.21 880.453 1309.64 878.977 Q1309.06 877.461 1309.06 875.616 Q1309.06 873.977 1310.41 868.484 Q1311.6 863.811 1311.6 862.664 Q1311.6 861.393 1311.19 860.204 Q1310.82 859.016 1309.88 857.786 Q1308.98 856.556 1307.05 855.819 Q1305.13 855.04 1302.42 855.04 L1292.46 855.04 L1286.89 877.297 Q1286.89 877.338 1286.76 877.912 Q1286.64 878.445 1286.64 878.732 Q1286.64 879.264 1286.97 879.592 Q1287.34 879.92 1288.24 880.084 Q1289.14 880.207 1289.84 880.248 Q1290.58 880.248 1292.09 880.248 Q1293.98 880.248 1294.31 880.576 Q1294.47 880.781 1294.47 881.15 Q1294.47 881.724 1294.31 882.134 Q1294.18 882.503 1293.85 882.625 Q1293.57 882.748 1293.36 882.789 Q1293.16 882.83 1292.79 882.83 L1282.13 882.585 L1271.56 882.83 Q1270.37 882.83 1270.37 881.888 Q1270.37 881.068 1270.65 880.74 Q1270.94 880.371 1271.31 880.33 Q1271.68 880.248 1272.62 880.248 Q1274.67 880.248 1275.9 880.125 Q1277.13 880.002 1277.91 879.838 Q1278.73 879.633 1279.14 879.059 Q1279.59 878.486 1279.79 877.994 Q1280 877.461 1280.29 876.272 L1291.52 831.184 Q1291.85 829.831 1291.85 829.626 Q1291.85 828.848 1291.35 828.643 Q1290.9 828.397 1289.59 828.274 L1286.39 828.11 Q1285.41 828.11 1285 828.069 Q1284.63 828.028 1284.34 827.823 Q1284.06 827.618 1284.06 827.167 Q1284.06 826.019 1284.55 825.773 Q1285.04 825.486 1286.48 825.486 L1310.41 825.486 Q1318.57 825.486 1323.74 829.053 Q1328.94 832.619 1328.94 838.07 Q1328.94 840.53 1327.83 842.825 Q1326.73 845.12 1324.88 846.924 Q1323.08 848.727 1320.66 850.244 Q1318.24 851.72 1315.66 852.744 Q1313.12 853.728 1310.5 854.302 Q1311.64 854.712 1312.71 855.327 Q1313.82 855.941 1315.21 857.089 Q1316.64 858.237 1317.51 860.081 Q1318.37 861.926 1318.37 864.18 Q1318.37 865.779 1318.04 868.156 Q1317.22 874.92 1317.22 877.707 Q1317.22 880.371 1317.91 881.601 Q1318.61 882.83 1320.58 882.83 Q1322.51 882.83 1324.64 881.109 Q1326.81 879.346 1328.2 875.206 Q1328.53 874.018 1329.31 874.018 Q1329.35 874.018 1329.39 874.018 Q1329.47 874.018 1329.64 874.1 Q1329.8 874.141 1329.92 874.264 Q1330.09 874.346 1330.17 874.551 Q1330.29 874.756 1330.29 875.042 Z" fill="#000000" fill-rule="nonzero" fill-opacity="1" /><polyline clip-path="url(#clip764)" style="stroke:#009af9; stroke-linecap:round; stroke-linejoin:round; stroke-width:8; stroke-opacity:1; fill:none" points="369.559,948.399 542.011,948.399 542.011,998.253 714.463,998.253 886.915,998.253 886.915,948.399 1059.37,948.399 1231.82,948.399 1231.82,998.253 1404.27,998.253 1576.72,998.253 1749.17,998.253 1749.17,948.399 1921.63,948.399 2094.08,948.399 2266.53,948.399 "/>
<path clip-path="url(#clip760)" d="M110.881 1423.18 L2352.76 1423.18 L2352.76 1323.47 L110.881 1323.47  Z" fill="#ffffff" fill-rule="evenodd" fill-opacity="1"/>
<defs>
  <clipPath id="clip765">
    <rect x="110" y="1323" width="2243" height="101"/>
  </clipPath>
</defs>
<polyline clip-path="url(#clip765)" style="stroke:#000000; stroke-linecap:round; stroke-linejoin:round; stroke-width:2; stroke-opacity:0.1; fill:none" points="197.107,1423.18 197.107,1323.47 "/>
<polyline clip-path="url(#clip765)" style="stroke:#000000; stroke-linecap:round; stroke-linejoin:round; stroke-width:2; stroke-opacity:0.1; fill:none" points="369.559,1423.18 369.559,1323.47 "/>
<polyline clip-path="url(#clip765)" style="stroke:#000000; stroke-linecap:round; stroke-linejoin:round; stroke-width:2; stroke-opacity:0.1; fill:none" points="542.011,1423.18 542.011,1323.47 "/>
<polyline clip-path="url(#clip765)" style="stroke:#000000; stroke-linecap:round; stroke-linejoin:round; stroke-width:2; stroke-opacity:0.1; fill:none" points="714.463,1423.18 714.463,1323.47 "/>
<polyline clip-path="url(#clip765)" style="stroke:#000000; stroke-linecap:round; stroke-linejoin:round; stroke-width:2; stroke-opacity:0.1; fill:none" points="886.915,1423.18 886.915,1323.47 "/>
<polyline clip-path="url(#clip765)" style="stroke:#000000; stroke-linecap:round; stroke-linejoin:round; stroke-width:2; stroke-opacity:0.1; fill:none" points="1059.37,1423.18 1059.37,1323.47 "/>
<polyline clip-path="url(#clip765)" style="stroke:#000000; stroke-linecap:round; stroke-linejoin:round; stroke-width:2; stroke-opacity:0.1; fill:none" points="1231.82,1423.18 1231.82,1323.47 "/>
<polyline clip-path="url(#clip765)" style="stroke:#000000; stroke-linecap:round; stroke-linejoin:round; stroke-width:2; stroke-opacity:0.1; fill:none" points="1404.27,1423.18 1404.27,1323.47 "/>
<polyline clip-path="url(#clip765)" style="stroke:#000000; stroke-linecap:round; stroke-linejoin:round; stroke-width:2; stroke-opacity:0.1; fill:none" points="1576.72,1423.18 1576.72,1323.47 "/>
<polyline clip-path="url(#clip765)" style="stroke:#000000; stroke-linecap:round; stroke-linejoin:round; stroke-width:2; stroke-opacity:0.1; fill:none" points="1749.17,1423.18 1749.17,1323.47 "/>
<polyline clip-path="url(#clip765)" style="stroke:#000000; stroke-linecap:round; stroke-linejoin:round; stroke-width:2; stroke-opacity:0.1; fill:none" points="1921.63,1423.18 1921.63,1323.47 "/>
<polyline clip-path="url(#clip765)" style="stroke:#000000; stroke-linecap:round; stroke-linejoin:round; stroke-width:2; stroke-opacity:0.1; fill:none" points="2094.08,1423.18 2094.08,1323.47 "/>
<polyline clip-path="url(#clip765)" style="stroke:#000000; stroke-linecap:round; stroke-linejoin:round; stroke-width:2; stroke-opacity:0.1; fill:none" points="2266.53,1423.18 2266.53,1323.47 "/>
<polyline clip-path="url(#clip760)" style="stroke:#000000; stroke-linecap:round; stroke-linejoin:round; stroke-width:4; stroke-opacity:1; fill:none" points="110.881,1423.18 2352.76,1423.18 "/>
<polyline clip-path="url(#clip760)" style="stroke:#000000; stroke-linecap:round; stroke-linejoin:round; stroke-width:4; stroke-opacity:1; fill:none" points="197.107,1423.18 197.107,1404.28 "/>
<polyline clip-path="url(#clip760)" style="stroke:#000000; stroke-linecap:round; stroke-linejoin:round; stroke-width:4; stroke-opacity:1; fill:none" points="369.559,1423.18 369.559,1404.28 "/>
<polyline clip-path="url(#clip760)" style="stroke:#000000; stroke-linecap:round; stroke-linejoin:round; stroke-width:4; stroke-opacity:1; fill:none" points="542.011,1423.18 542.011,1404.28 "/>
<polyline clip-path="url(#clip760)" style="stroke:#000000; stroke-linecap:round; stroke-linejoin:round; stroke-width:4; stroke-opacity:1; fill:none" points="714.463,1423.18 714.463,1404.28 "/>
<polyline clip-path="url(#clip760)" style="stroke:#000000; stroke-linecap:round; stroke-linejoin:round; stroke-width:4; stroke-opacity:1; fill:none" points="886.915,1423.18 886.915,1404.28 "/>
<polyline clip-path="url(#clip760)" style="stroke:#000000; stroke-linecap:round; stroke-linejoin:round; stroke-width:4; stroke-opacity:1; fill:none" points="1059.37,1423.18 1059.37,1404.28 "/>
<polyline clip-path="url(#clip760)" style="stroke:#000000; stroke-linecap:round; stroke-linejoin:round; stroke-width:4; stroke-opacity:1; fill:none" points="1231.82,1423.18 1231.82,1404.28 "/>
<polyline clip-path="url(#clip760)" style="stroke:#000000; stroke-linecap:round; stroke-linejoin:round; stroke-width:4; stroke-opacity:1; fill:none" points="1404.27,1423.18 1404.27,1404.28 "/>
<polyline clip-path="url(#clip760)" style="stroke:#000000; stroke-linecap:round; stroke-linejoin:round; stroke-width:4; stroke-opacity:1; fill:none" points="1576.72,1423.18 1576.72,1404.28 "/>
<polyline clip-path="url(#clip760)" style="stroke:#000000; stroke-linecap:round; stroke-linejoin:round; stroke-width:4; stroke-opacity:1; fill:none" points="1749.17,1423.18 1749.17,1404.28 "/>
<polyline clip-path="url(#clip760)" style="stroke:#000000; stroke-linecap:round; stroke-linejoin:round; stroke-width:4; stroke-opacity:1; fill:none" points="1921.63,1423.18 1921.63,1404.28 "/>
<polyline clip-path="url(#clip760)" style="stroke:#000000; stroke-linecap:round; stroke-linejoin:round; stroke-width:4; stroke-opacity:1; fill:none" points="2094.08,1423.18 2094.08,1404.28 "/>
<polyline clip-path="url(#clip760)" style="stroke:#000000; stroke-linecap:round; stroke-linejoin:round; stroke-width:4; stroke-opacity:1; fill:none" points="2266.53,1423.18 2266.53,1404.28 "/>
<path clip-path="url(#clip760)" d="M197.107 1454.1 Q193.496 1454.1 191.667 1457.66 Q189.862 1461.2 189.862 1468.33 Q189.862 1475.44 191.667 1479.01 Q193.496 1482.55 197.107 1482.55 Q200.741 1482.55 202.547 1479.01 Q204.375 1475.44 204.375 1468.33 Q204.375 1461.2 202.547 1457.66 Q200.741 1454.1 197.107 1454.1 M197.107 1450.39 Q202.917 1450.39 205.973 1455 Q209.051 1459.58 209.051 1468.33 Q209.051 1477.06 205.973 1481.67 Q202.917 1486.25 197.107 1486.25 Q191.297 1486.25 188.218 1481.67 Q185.162 1477.06 185.162 1468.33 Q185.162 1459.58 188.218 1455 Q191.297 1450.39 197.107 1450.39 Z" fill="#000000" fill-rule="nonzero" fill-opacity="1" /><path clip-path="url(#clip760)" d="M359.941 1481.64 L367.58 1481.64 L367.58 1455.28 L359.269 1456.95 L359.269 1452.69 L367.533 1451.02 L372.209 1451.02 L372.209 1481.64 L379.848 1481.64 L379.848 1485.58 L359.941 1485.58 L359.941 1481.64 Z" fill="#000000" fill-rule="nonzero" fill-opacity="1" /><path clip-path="url(#clip760)" d="M536.664 1481.64 L552.983 1481.64 L552.983 1485.58 L531.039 1485.58 L531.039 1481.64 Q533.701 1478.89 538.284 1474.26 Q542.89 1469.61 544.071 1468.27 Q546.316 1465.74 547.196 1464.01 Q548.099 1462.25 548.099 1460.56 Q548.099 1457.8 546.154 1456.07 Q544.233 1454.33 541.131 1454.33 Q538.932 1454.33 536.478 1455.09 Q534.048 1455.86 531.27 1457.41 L531.27 1452.69 Q534.094 1451.55 536.548 1450.97 Q539.001 1450.39 541.038 1450.39 Q546.409 1450.39 549.603 1453.08 Q552.798 1455.77 552.798 1460.26 Q552.798 1462.39 551.987 1464.31 Q551.2 1466.2 549.094 1468.8 Q548.515 1469.47 545.413 1472.69 Q542.312 1475.88 536.664 1481.64 Z" fill="#000000" fill-rule="nonzero" fill-opacity="1" /><path clip-path="url(#clip760)" d="M718.71 1466.95 Q722.067 1467.66 723.942 1469.93 Q725.84 1472.2 725.84 1475.53 Q725.84 1480.65 722.321 1483.45 Q718.803 1486.25 712.321 1486.25 Q710.146 1486.25 707.831 1485.81 Q705.539 1485.39 703.085 1484.54 L703.085 1480.02 Q705.03 1481.16 707.345 1481.74 Q709.659 1482.32 712.183 1482.32 Q716.581 1482.32 718.872 1480.58 Q721.187 1478.84 721.187 1475.53 Q721.187 1472.48 719.034 1470.77 Q716.905 1469.03 713.085 1469.03 L709.058 1469.03 L709.058 1465.19 L713.27 1465.19 Q716.72 1465.19 718.548 1463.82 Q720.377 1462.43 720.377 1459.84 Q720.377 1457.18 718.479 1455.77 Q716.604 1454.33 713.085 1454.33 Q711.164 1454.33 708.965 1454.75 Q706.766 1455.16 704.127 1456.04 L704.127 1451.88 Q706.789 1451.14 709.104 1450.77 Q711.442 1450.39 713.502 1450.39 Q718.826 1450.39 721.928 1452.83 Q725.03 1455.23 725.03 1459.35 Q725.03 1462.22 723.386 1464.21 Q721.743 1466.18 718.71 1466.95 Z" fill="#000000" fill-rule="nonzero" fill-opacity="1" /><path clip-path="url(#clip760)" d="M889.924 1455.09 L878.118 1473.54 L889.924 1473.54 L889.924 1455.09 M888.697 1451.02 L894.577 1451.02 L894.577 1473.54 L899.507 1473.54 L899.507 1477.43 L894.577 1477.43 L894.577 1485.58 L889.924 1485.58 L889.924 1477.43 L874.322 1477.43 L874.322 1472.92 L888.697 1451.02 Z" fill="#000000" fill-rule="nonzero" fill-opacity="1" /><path clip-path="url(#clip760)" d="M1049.64 1451.02 L1068 1451.02 L1068 1454.96 L1053.93 1454.96 L1053.93 1463.43 Q1054.95 1463.08 1055.96 1462.92 Q1056.98 1462.73 1058 1462.73 Q1063.79 1462.73 1067.17 1465.9 Q1070.55 1469.08 1070.55 1474.49 Q1070.55 1480.07 1067.07 1483.17 Q1063.6 1486.25 1057.28 1486.25 Q1055.11 1486.25 1052.84 1485.88 Q1050.59 1485.51 1048.19 1484.77 L1048.19 1480.07 Q1050.27 1481.2 1052.49 1481.76 Q1054.71 1482.32 1057.19 1482.32 Q1061.2 1482.32 1063.53 1480.21 Q1065.87 1478.1 1065.87 1474.49 Q1065.87 1470.88 1063.53 1468.77 Q1061.2 1466.67 1057.19 1466.67 Q1055.32 1466.67 1053.44 1467.08 Q1051.59 1467.5 1049.64 1468.38 L1049.64 1451.02 Z" fill="#000000" fill-rule="nonzero" fill-opacity="1" /><path clip-path="url(#clip760)" d="M1232.22 1466.44 Q1229.08 1466.44 1227.22 1468.59 Q1225.39 1470.74 1225.39 1474.49 Q1225.39 1478.22 1227.22 1480.39 Q1229.08 1482.55 1232.22 1482.55 Q1235.37 1482.55 1237.2 1480.39 Q1239.05 1478.22 1239.05 1474.49 Q1239.05 1470.74 1237.2 1468.59 Q1235.37 1466.44 1232.22 1466.44 M1241.51 1451.78 L1241.51 1456.04 Q1239.75 1455.21 1237.94 1454.77 Q1236.16 1454.33 1234.4 1454.33 Q1229.77 1454.33 1227.32 1457.45 Q1224.89 1460.58 1224.54 1466.9 Q1225.9 1464.89 1227.96 1463.82 Q1230.02 1462.73 1232.5 1462.73 Q1237.71 1462.73 1240.72 1465.9 Q1243.75 1469.05 1243.75 1474.49 Q1243.75 1479.82 1240.6 1483.03 Q1237.45 1486.25 1232.22 1486.25 Q1226.23 1486.25 1223.06 1481.67 Q1219.89 1477.06 1219.89 1468.33 Q1219.89 1460.14 1223.77 1455.28 Q1227.66 1450.39 1234.21 1450.39 Q1235.97 1450.39 1237.76 1450.74 Q1239.56 1451.09 1241.51 1451.78 Z" fill="#000000" fill-rule="nonzero" fill-opacity="1" /><path clip-path="url(#clip760)" d="M1393.16 1451.02 L1415.38 1451.02 L1415.38 1453.01 L1402.84 1485.58 L1397.95 1485.58 L1409.76 1454.96 L1393.16 1454.96 L1393.16 1451.02 Z" fill="#000000" fill-rule="nonzero" fill-opacity="1" /><path clip-path="url(#clip760)" d="M1576.72 1469.17 Q1573.39 1469.17 1571.47 1470.95 Q1569.57 1472.73 1569.57 1475.86 Q1569.57 1478.98 1571.47 1480.77 Q1573.39 1482.55 1576.72 1482.55 Q1580.06 1482.55 1581.98 1480.77 Q1583.9 1478.96 1583.9 1475.86 Q1583.9 1472.73 1581.98 1470.95 Q1580.08 1469.17 1576.72 1469.17 M1572.05 1467.18 Q1569.04 1466.44 1567.35 1464.38 Q1565.68 1462.32 1565.68 1459.35 Q1565.68 1455.21 1568.62 1452.8 Q1571.58 1450.39 1576.72 1450.39 Q1581.88 1450.39 1584.82 1452.8 Q1587.76 1455.21 1587.76 1459.35 Q1587.76 1462.32 1586.07 1464.38 Q1584.41 1466.44 1581.42 1467.18 Q1584.8 1467.96 1586.68 1470.26 Q1588.57 1472.55 1588.57 1475.86 Q1588.57 1480.88 1585.5 1483.57 Q1582.44 1486.25 1576.72 1486.25 Q1571 1486.25 1567.93 1483.57 Q1564.87 1480.88 1564.87 1475.86 Q1564.87 1472.55 1566.77 1470.26 Q1568.67 1467.96 1572.05 1467.18 M1570.33 1459.79 Q1570.33 1462.48 1572 1463.98 Q1573.69 1465.49 1576.72 1465.49 Q1579.73 1465.49 1581.42 1463.98 Q1583.13 1462.48 1583.13 1459.79 Q1583.13 1457.11 1581.42 1455.6 Q1579.73 1454.1 1576.72 1454.1 Q1573.69 1454.1 1572 1455.6 Q1570.33 1457.11 1570.33 1459.79 Z" fill="#000000" fill-rule="nonzero" fill-opacity="1" /><path clip-path="url(#clip760)" d="M1739.48 1484.86 L1739.48 1480.6 Q1741.23 1481.44 1743.04 1481.88 Q1744.85 1482.32 1746.58 1482.32 Q1751.21 1482.32 1753.64 1479.21 Q1756.1 1476.09 1756.44 1469.75 Q1755.1 1471.74 1753.04 1472.8 Q1750.98 1473.87 1748.48 1473.87 Q1743.29 1473.87 1740.26 1470.74 Q1737.25 1467.59 1737.25 1462.15 Q1737.25 1456.83 1740.4 1453.61 Q1743.55 1450.39 1748.78 1450.39 Q1754.78 1450.39 1757.92 1455 Q1761.1 1459.58 1761.1 1468.33 Q1761.1 1476.51 1757.21 1481.39 Q1753.34 1486.25 1746.79 1486.25 Q1745.03 1486.25 1743.23 1485.9 Q1741.42 1485.56 1739.48 1484.86 M1748.78 1470.21 Q1751.93 1470.21 1753.76 1468.06 Q1755.61 1465.9 1755.61 1462.15 Q1755.61 1458.43 1753.76 1456.27 Q1751.93 1454.1 1748.78 1454.1 Q1745.63 1454.1 1743.78 1456.27 Q1741.95 1458.43 1741.95 1462.15 Q1741.95 1465.9 1743.78 1468.06 Q1745.63 1470.21 1748.78 1470.21 Z" fill="#000000" fill-rule="nonzero" fill-opacity="1" /><path clip-path="url(#clip760)" d="M1896.31 1481.64 L1903.95 1481.64 L1903.95 1455.28 L1895.64 1456.95 L1895.64 1452.69 L1903.91 1451.02 L1908.58 1451.02 L1908.58 1481.64 L1916.22 1481.64 L1916.22 1485.58 L1896.31 1485.58 L1896.31 1481.64 Z" fill="#000000" fill-rule="nonzero" fill-opacity="1" /><path clip-path="url(#clip760)" d="M1935.67 1454.1 Q1932.05 1454.1 1930.23 1457.66 Q1928.42 1461.2 1928.42 1468.33 Q1928.42 1475.44 1930.23 1479.01 Q1932.05 1482.55 1935.67 1482.55 Q1939.3 1482.55 1941.11 1479.01 Q1942.93 1475.44 1942.93 1468.33 Q1942.93 1461.2 1941.11 1457.66 Q1939.3 1454.1 1935.67 1454.1 M1935.67 1450.39 Q1941.48 1450.39 1944.53 1455 Q1947.61 1459.58 1947.61 1468.33 Q1947.61 1477.06 1944.53 1481.67 Q1941.48 1486.25 1935.67 1486.25 Q1929.86 1486.25 1926.78 1481.67 Q1923.72 1477.06 1923.72 1468.33 Q1923.72 1459.58 1926.78 1455 Q1929.86 1450.39 1935.67 1450.39 Z" fill="#000000" fill-rule="nonzero" fill-opacity="1" /><path clip-path="url(#clip760)" d="M2069.38 1481.64 L2077.02 1481.64 L2077.02 1455.28 L2068.71 1456.95 L2068.71 1452.69 L2076.97 1451.02 L2081.65 1451.02 L2081.65 1481.64 L2089.29 1481.64 L2089.29 1485.58 L2069.38 1485.58 L2069.38 1481.64 Z" fill="#000000" fill-rule="nonzero" fill-opacity="1" /><path clip-path="url(#clip760)" d="M2099.54 1481.64 L2107.18 1481.64 L2107.18 1455.28 L2098.87 1456.95 L2098.87 1452.69 L2107.13 1451.02 L2111.81 1451.02 L2111.81 1481.64 L2119.45 1481.64 L2119.45 1485.58 L2099.54 1485.58 L2099.54 1481.64 Z" fill="#000000" fill-rule="nonzero" fill-opacity="1" /><path clip-path="url(#clip760)" d="M2242.02 1481.64 L2249.66 1481.64 L2249.66 1455.28 L2241.34 1456.95 L2241.34 1452.69 L2249.61 1451.02 L2254.28 1451.02 L2254.28 1481.64 L2261.92 1481.64 L2261.92 1485.58 L2242.02 1485.58 L2242.02 1481.64 Z" fill="#000000" fill-rule="nonzero" fill-opacity="1" /><path clip-path="url(#clip760)" d="M2275.4 1481.64 L2291.71 1481.64 L2291.71 1485.58 L2269.77 1485.58 L2269.77 1481.64 Q2272.43 1478.89 2277.02 1474.26 Q2281.62 1469.61 2282.8 1468.27 Q2285.05 1465.74 2285.93 1464.01 Q2286.83 1462.25 2286.83 1460.56 Q2286.83 1457.8 2284.89 1456.07 Q2282.97 1454.33 2279.86 1454.33 Q2277.66 1454.33 2275.21 1455.09 Q2272.78 1455.86 2270 1457.41 L2270 1452.69 Q2272.83 1451.55 2275.28 1450.97 Q2277.73 1450.39 2279.77 1450.39 Q2285.14 1450.39 2288.34 1453.08 Q2291.53 1455.77 2291.53 1460.26 Q2291.53 1462.39 2290.72 1464.31 Q2289.93 1466.2 2287.83 1468.8 Q2287.25 1469.47 2284.15 1472.69 Q2281.04 1475.88 2275.4 1481.64 Z" fill="#000000" fill-rule="nonzero" fill-opacity="1" /><path clip-path="url(#clip760)" d="M1240.29 1531.91 Q1240.29 1532.81 1239.87 1533.04 Q1239.45 1533.23 1238.29 1533.23 L1232.11 1533.23 L1227.21 1552.69 Q1226.83 1554.39 1226.83 1555.84 Q1226.83 1557.45 1227.31 1558.16 Q1227.83 1558.87 1228.89 1558.87 Q1230.98 1558.87 1233.24 1556.97 Q1235.52 1555.07 1237.46 1550.43 Q1237.71 1549.82 1237.84 1549.69 Q1238 1549.53 1238.42 1549.53 Q1239.23 1549.53 1239.23 1550.17 Q1239.23 1550.4 1238.78 1551.43 Q1238.36 1552.46 1237.42 1553.97 Q1236.52 1555.49 1235.33 1556.9 Q1234.17 1558.32 1232.4 1559.35 Q1230.63 1560.35 1228.73 1560.35 Q1226.05 1560.35 1224.35 1558.64 Q1222.67 1556.94 1222.67 1554.26 Q1222.67 1553.39 1223.35 1550.62 Q1224.03 1547.82 1227.7 1533.23 L1221.87 1533.23 Q1221.06 1533.23 1220.74 1533.2 Q1220.45 1533.17 1220.23 1533.01 Q1220.03 1532.81 1220.03 1532.43 Q1220.03 1531.82 1220.29 1531.56 Q1220.55 1531.27 1220.87 1531.24 Q1221.22 1531.17 1222.03 1531.17 L1228.21 1531.17 L1230.79 1520.71 Q1231.05 1519.67 1231.69 1519.09 Q1232.37 1518.48 1232.75 1518.42 Q1233.14 1518.32 1233.43 1518.32 Q1234.3 1518.32 1234.81 1518.81 Q1235.33 1519.26 1235.33 1520.09 Q1235.33 1520.54 1232.62 1531.17 L1238.42 1531.17 Q1239.16 1531.17 1239.45 1531.2 Q1239.77 1531.24 1240.03 1531.4 Q1240.29 1531.56 1240.29 1531.91 Z" fill="#000000" fill-rule="nonzero" fill-opacity="1" /><polyline clip-path="url(#clip765)" style="stroke:#000000; stroke-linecap:round; stroke-linejoin:round; stroke-width:2; stroke-opacity:0.1; fill:none" points="110.881,1398.25 2352.76,1398.25 "/>
<polyline clip-path="url(#clip765)" style="stroke:#000000; stroke-linecap:round; stroke-linejoin:round; stroke-width:2; stroke-opacity:0.1; fill:none" points="110.881,1348.4 2352.76,1348.4 "/>
<polyline clip-path="url(#clip760)" style="stroke:#000000; stroke-linecap:round; stroke-linejoin:round; stroke-width:4; stroke-opacity:1; fill:none" points="110.881,1423.18 110.881,1323.47 "/>
<polyline clip-path="url(#clip760)" style="stroke:#000000; stroke-linecap:round; stroke-linejoin:round; stroke-width:4; stroke-opacity:1; fill:none" points="110.881,1398.25 129.779,1398.25 "/>
<polyline clip-path="url(#clip760)" style="stroke:#000000; stroke-linecap:round; stroke-linejoin:round; stroke-width:4; stroke-opacity:1; fill:none" points="110.881,1348.4 129.779,1348.4 "/>
<path clip-path="url(#clip760)" d="M62.9365 1384.05 Q59.3254 1384.05 57.4967 1387.62 Q55.6912 1391.16 55.6912 1398.29 Q55.6912 1405.39 57.4967 1408.96 Q59.3254 1412.5 62.9365 1412.5 Q66.5707 1412.5 68.3763 1408.96 Q70.205 1405.39 70.205 1398.29 Q70.205 1391.16 68.3763 1387.62 Q66.5707 1384.05 62.9365 1384.05 M62.9365 1380.35 Q68.7467 1380.35 71.8022 1384.95 Q74.8809 1389.54 74.8809 1398.29 Q74.8809 1407.01 71.8022 1411.62 Q68.7467 1416.2 62.9365 1416.2 Q57.1264 1416.2 54.0477 1411.62 Q50.9921 1407.01 50.9921 1398.29 Q50.9921 1389.54 54.0477 1384.95 Q57.1264 1380.35 62.9365 1380.35 Z" fill="#000000" fill-rule="nonzero" fill-opacity="1" /><path clip-path="url(#clip760)" d="M54.9736 1361.74 L62.6124 1361.74 L62.6124 1335.38 L54.3023 1337.04 L54.3023 1332.79 L62.5661 1331.12 L67.242 1331.12 L67.242 1361.74 L74.8809 1361.74 L74.8809 1365.68 L54.9736 1365.68 L54.9736 1361.74 Z" fill="#000000" fill-rule="nonzero" fill-opacity="1" /><path clip-path="url(#clip760)" d="M1201.96 1249.06 Q1200.85 1254.35 1199.42 1257.38 Q1197.12 1262.02 1193.23 1262.02 Q1190.28 1262.02 1188.19 1260.21 Q1186.1 1258.41 1185.61 1255.7 Q1180.24 1262.02 1174.66 1262.02 Q1169.74 1262.02 1166.63 1258.29 Q1163.51 1254.51 1163.51 1248.57 Q1163.51 1242.59 1166.46 1236.85 Q1169.46 1231.11 1174.17 1227.54 Q1178.88 1223.98 1183.72 1223.98 Q1188.84 1223.98 1191.47 1229.35 Q1191.67 1227.87 1192.61 1226.76 Q1193.56 1225.66 1194.99 1225.66 Q1196.1 1225.66 1196.75 1226.27 Q1197.41 1226.85 1197.41 1227.91 Q1197.41 1228.45 1196.84 1230.78 L1193.8 1242.5 L1191.96 1250.09 Q1191.26 1252.87 1191.06 1253.9 Q1190.89 1254.92 1190.89 1256.28 Q1190.89 1260.13 1193.39 1260.13 Q1194.62 1260.13 1195.61 1259.35 Q1196.59 1258.57 1197.37 1256.93 Q1198.15 1255.29 1198.64 1253.78 Q1199.13 1252.22 1199.79 1249.76 Q1199.99 1248.78 1200.16 1248.53 Q1200.36 1248.24 1200.94 1248.24 Q1201.96 1248.24 1201.96 1249.06 M1190.44 1233.2 Q1190.44 1232.83 1190.16 1231.81 Q1189.87 1230.78 1189.21 1229.35 Q1188.56 1227.91 1187.12 1226.89 Q1185.73 1225.82 1183.84 1225.82 Q1181.3 1225.82 1178.64 1227.99 Q1176.01 1230.17 1174.09 1233.86 Q1172.61 1236.81 1171.01 1243 Q1169.46 1249.19 1169.46 1252.26 Q1169.46 1254.15 1169.87 1255.83 Q1170.32 1257.47 1171.59 1258.82 Q1172.86 1260.13 1174.83 1260.13 Q1179.62 1260.13 1184.34 1254.19 Q1185.24 1253.16 1185.44 1252.75 Q1185.69 1252.3 1186.02 1251.07 L1190.2 1234.63 Q1190.44 1233.4 1190.44 1233.2 Z" fill="#000000" fill-rule="nonzero" fill-opacity="1" /><path clip-path="url(#clip760)" d="M1235.71 1267.83 Q1235.71 1270.96 1234.34 1274.06 Q1232.96 1277.13 1230.75 1279.42 Q1228.57 1281.69 1225.7 1283.12 Q1222.83 1284.53 1219.96 1284.53 Q1215.86 1284.53 1213.19 1281.75 Q1210.55 1278.93 1210.55 1274.57 Q1210.55 1270.5 1212.82 1266.63 Q1215.11 1262.72 1218.79 1260.31 Q1222.46 1257.9 1226.3 1257.9 Q1230.35 1257.9 1233.02 1260.63 Q1235.71 1263.35 1235.71 1267.83 M1231.41 1265.54 Q1231.41 1262.75 1230.06 1260.97 Q1228.71 1259.19 1226.25 1259.19 Q1225.53 1259.19 1224.7 1259.42 Q1223.86 1259.62 1222.77 1260.17 Q1221.71 1260.71 1220.51 1261.86 Q1219.33 1262.98 1218.3 1264.59 Q1216.95 1266.71 1215.92 1270.61 Q1214.91 1274.49 1214.91 1276.81 Q1214.91 1280.02 1216.4 1281.63 Q1217.9 1283.21 1220.02 1283.21 Q1222.09 1283.21 1224.27 1281.78 Q1226.48 1280.31 1228 1277.82 Q1229.52 1275.23 1230.46 1271.45 Q1231.41 1267.63 1231.41 1265.54 Z" fill="#000000" fill-rule="nonzero" fill-opacity="1" /><path clip-path="url(#clip760)" d="M1267.81 1275.46 Q1267.06 1279.16 1266.06 1281.29 Q1264.42 1284.53 1261.69 1284.53 Q1259.8 1284.53 1258.37 1283.47 Q1256.96 1282.38 1256.47 1280.57 Q1255.93 1281.29 1255.44 1281.78 Q1254.98 1282.26 1254.09 1283.01 Q1253.2 1283.73 1252 1284.13 Q1250.82 1284.53 1249.47 1284.53 Q1248.44 1284.53 1247.49 1284.33 Q1246.55 1284.16 1245.54 1283.67 Q1244.57 1283.15 1243.85 1282.38 Q1243.16 1281.6 1242.7 1280.34 Q1242.24 1279.08 1242.24 1277.47 Q1242.24 1275.46 1243.02 1272.74 Q1243.82 1270.01 1245.66 1265.13 Q1246.66 1262.55 1246.66 1261.12 Q1246.66 1260.46 1246.52 1260.03 Q1246.37 1259.6 1246.09 1259.45 Q1245.83 1259.28 1245.66 1259.25 Q1245.48 1259.19 1245.2 1259.19 Q1243.42 1259.19 1241.87 1261 Q1240.32 1262.81 1239.26 1266.48 Q1239.03 1267.2 1238.88 1267.37 Q1238.74 1267.54 1238.31 1267.54 Q1237.59 1267.51 1237.59 1266.94 Q1237.59 1266.71 1237.85 1265.82 Q1238.11 1264.9 1238.71 1263.56 Q1239.34 1262.18 1240.2 1260.94 Q1241.06 1259.68 1242.41 1258.79 Q1243.79 1257.9 1245.37 1257.9 Q1247.52 1257.9 1248.84 1259.31 Q1250.19 1260.69 1250.19 1262.72 Q1250.19 1263.99 1249.18 1266.42 Q1246 1274.89 1246 1278.42 Q1246 1283.21 1249.64 1283.21 Q1250.85 1283.21 1251.97 1282.72 Q1253.12 1282.23 1253.86 1281.55 Q1254.61 1280.86 1255.18 1280.11 Q1255.78 1279.36 1256.04 1278.88 Q1256.33 1278.39 1256.36 1278.27 L1260.75 1260.6 Q1260.92 1259.91 1261.24 1259.45 Q1261.58 1258.96 1261.98 1258.79 Q1262.38 1258.62 1262.61 1258.59 Q1262.84 1258.53 1263.04 1258.53 Q1263.76 1258.53 1264.25 1258.96 Q1264.76 1259.39 1264.76 1260.14 Q1264.76 1260.28 1264.59 1260.97 Q1264.45 1261.63 1264.22 1262.61 Q1263.99 1263.56 1263.88 1264.07 Q1262.96 1267.69 1262.87 1268.06 L1261.24 1274.4 Q1261.15 1274.77 1260.86 1275.98 Q1260.6 1277.18 1260.46 1277.82 Q1260.32 1278.42 1260.17 1279.25 Q1260.06 1280.05 1260.06 1280.51 Q1260.06 1281.95 1260.49 1282.58 Q1260.92 1283.21 1261.87 1283.21 Q1262.76 1283.21 1263.44 1282.61 Q1264.16 1281.98 1264.71 1280.77 Q1265.25 1279.54 1265.57 1278.53 Q1265.88 1277.53 1266.29 1275.95 Q1266.43 1275.26 1266.54 1275.09 Q1266.69 1274.89 1267.09 1274.89 Q1267.81 1274.89 1267.81 1275.46 Z" fill="#000000" fill-rule="nonzero" fill-opacity="1" /><path clip-path="url(#clip760)" d="M1288.21 1259.19 Q1288.21 1260 1287.84 1260.2 Q1287.47 1260.37 1286.43 1260.37 L1280.92 1260.37 L1276.56 1277.7 Q1276.22 1279.22 1276.22 1280.51 Q1276.22 1281.95 1276.65 1282.58 Q1277.11 1283.21 1278.05 1283.21 Q1279.92 1283.21 1281.93 1281.52 Q1283.97 1279.82 1285.69 1275.69 Q1285.92 1275.15 1286.03 1275.03 Q1286.17 1274.89 1286.55 1274.89 Q1287.26 1274.89 1287.26 1275.46 Q1287.26 1275.66 1286.86 1276.58 Q1286.49 1277.5 1285.66 1278.85 Q1284.85 1280.2 1283.79 1281.46 Q1282.76 1282.72 1281.18 1283.64 Q1279.6 1284.53 1277.91 1284.53 Q1275.53 1284.53 1274.01 1283.01 Q1272.52 1281.49 1272.52 1279.11 Q1272.52 1278.33 1273.12 1275.86 Q1273.72 1273.37 1276.99 1260.37 L1271.8 1260.37 Q1271.08 1260.37 1270.8 1260.34 Q1270.54 1260.31 1270.34 1260.17 Q1270.16 1260 1270.16 1259.65 Q1270.16 1259.11 1270.39 1258.88 Q1270.62 1258.62 1270.91 1258.59 Q1271.23 1258.53 1271.94 1258.53 L1277.45 1258.53 L1279.75 1249.21 Q1279.98 1248.29 1280.55 1247.77 Q1281.15 1247.23 1281.5 1247.17 Q1281.84 1247.09 1282.1 1247.09 Q1282.87 1247.09 1283.33 1247.52 Q1283.79 1247.92 1283.79 1248.66 Q1283.79 1249.07 1281.38 1258.53 L1286.55 1258.53 Q1287.21 1258.53 1287.47 1258.56 Q1287.75 1258.59 1287.98 1258.74 Q1288.21 1258.88 1288.21 1259.19 Z" fill="#000000" fill-rule="nonzero" fill-opacity="1" /><polyline clip-path="url(#clip765)" style="stroke:#009af9; stroke-linecap:round; stroke-linejoin:round; stroke-width:8; stroke-opacity:1; fill:none" points="369.559,1398.25 542.011,1398.25 542.011,1348.4 714.463,1348.4 886.915,1348.4 886.915,1398.25 1059.37,1398.25 1231.82,1398.25 1231.82,1348.4 1404.27,1348.4 1576.72,1348.4 1749.17,1348.4 1749.17,1398.25 1921.63,1398.25 2094.08,1398.25 2266.53,1398.25 "/>
</svg>
