<?xml version="1.0" encoding="utf-8"?>
<svg xmlns="http://www.w3.org/2000/svg" xmlns:xlink="http://www.w3.org/1999/xlink" width="600" height="400" viewBox="0 0 2400 1600">
<defs>
  <clipPath id="clip270">
    <rect x="0" y="0" width="2400" height="1600"/>
  </clipPath>
</defs>
<path clip-path="url(#clip270)" d="M0 1600 L2400 1600 L2400 0 L0 0  Z" fill="#ffffff" fill-rule="evenodd" fill-opacity="1"/>
<defs>
  <clipPath id="clip271">
    <rect x="480" y="0" width="1681" height="1600"/>
  </clipPath>
</defs>
<path clip-path="url(#clip270)" d="M110.881 1423.18 L2352.76 1423.18 L2352.76 123.472 L110.881 123.472  Z" fill="#ffffff" fill-rule="evenodd" fill-opacity="1"/>
<defs>
  <clipPath id="clip272">
    <rect x="110" y="123" width="2243" height="1301"/>
  </clipPath>
</defs>
<polyline clip-path="url(#clip272)" style="stroke:#000000; stroke-linecap:round; stroke-linejoin:round; stroke-width:2; stroke-opacity:0.1; fill:none" points="235.429,1423.18 235.429,123.472 "/>
<polyline clip-path="url(#clip272)" style="stroke:#000000; stroke-linecap:round; stroke-linejoin:round; stroke-width:2; stroke-opacity:0.1; fill:none" points="484.527,1423.18 484.527,123.472 "/>
<polyline clip-path="url(#clip272)" style="stroke:#000000; stroke-linecap:round; stroke-linejoin:round; stroke-width:2; stroke-opacity:0.1; fill:none" points="733.624,1423.18 733.624,123.472 "/>
<polyline clip-path="url(#clip272)" style="stroke:#000000; stroke-linecap:round; stroke-linejoin:round; stroke-width:2; stroke-opacity:0.1; fill:none" points="982.721,1423.18 982.721,123.472 "/>
<polyline clip-path="url(#clip272)" style="stroke:#000000; stroke-linecap:round; stroke-linejoin:round; stroke-width:2; stroke-opacity:0.1; fill:none" points="1231.82,1423.18 1231.82,123.472 "/>
<polyline clip-path="url(#clip272)" style="stroke:#000000; stroke-linecap:round; stroke-linejoin:round; stroke-width:2; stroke-opacity:0.1; fill:none" points="1480.92,1423.18 1480.92,123.472 "/>
<polyline clip-path="url(#clip272)" style="stroke:#000000; stroke-linecap:round; stroke-linejoin:round; stroke-width:2; stroke-opacity:0.1; fill:none" points="1730.01,1423.18 1730.01,123.472 "/>
<polyline clip-path="url(#clip272)" style="stroke:#000000; stroke-linecap:round; stroke-linejoin:round; stroke-width:2; stroke-opacity:0.1; fill:none" points="1979.11,1423.18 1979.11,123.472 "/>
<polyline clip-path="url(#clip272)" style="stroke:#000000; stroke-linecap:round; stroke-linejoin:round; stroke-width:2; stroke-opacity:0.1; fill:none" points="2228.21,1423.18 2228.21,123.472 "/>
<polyline clip-path="url(#clip270)" style="stroke:#000000; stroke-linecap:round; stroke-linejoin:round; stroke-width:4; stroke-opacity:1; fill:none" points="110.881,1423.18 2352.76,1423.18 "/>
<polyline clip-path="url(#clip270)" style="stroke:#000000; stroke-linecap:round; stroke-linejoin:round; stroke-width:4; stroke-opacity:1; fill:none" points="235.429,1423.18 235.429,1404.28 "/>
<polyline clip-path="url(#clip270)" style="stroke:#000000; stroke-linecap:round; stroke-linejoin:round; stroke-width:4; stroke-opacity:1; fill:none" points="484.527,1423.18 484.527,1404.28 "/>
<polyline clip-path="url(#clip270)" style="stroke:#000000; stroke-linecap:round; stroke-linejoin:round; stroke-width:4; stroke-opacity:1; fill:none" points="733.624,1423.18 733.624,1404.28 "/>
<polyline clip-path="url(#clip270)" style="stroke:#000000; stroke-linecap:round; stroke-linejoin:round; stroke-width:4; stroke-opacity:1; fill:none" points="982.721,1423.18 982.721,1404.28 "/>
<polyline clip-path="url(#clip270)" style="stroke:#000000; stroke-linecap:round; stroke-linejoin:round; stroke-width:4; stroke-opacity:1; fill:none" points="1231.82,1423.18 1231.82,1404.28 "/>
<polyline clip-path="url(#clip270)" style="stroke:#000000; stroke-linecap:round; stroke-linejoin:round; stroke-width:4; stroke-opacity:1; fill:none" points="1480.92,1423.18 1480.92,1404.28 "/>
<polyline clip-path="url(#clip270)" style="stroke:#000000; stroke-linecap:round; stroke-linejoin:round; stroke-width:4; stroke-opacity:1; fill:none" points="1730.01,1423.18 1730.01,1404.28 "/>
<polyline clip-path="url(#clip270)" style="stroke:#000000; stroke-linecap:round; stroke-linejoin:round; stroke-width:4; stroke-opacity:1; fill:none" points="1979.11,1423.18 1979.11,1404.28 "/>
<polyline clip-path="url(#clip270)" style="stroke:#000000; stroke-linecap:round; stroke-linejoin:round; stroke-width:4; stroke-opacity:1; fill:none" points="2228.21,1423.18 2228.21,1404.28 "/>
<path clip-path="url(#clip270)" d="M235.429 1454.1 Q231.818 1454.1 229.99 1457.66 Q228.184 1461.2 228.184 1468.33 Q228.184 1475.44 229.99 1479.01 Q231.818 1482.55 235.429 1482.55 Q239.064 1482.55 240.869 1479.01 Q242.698 1475.44 242.698 1468.33 Q242.698 1461.2 240.869 1457.66 Q239.064 1454.1 235.429 1454.1 M235.429 1450.39 Q241.24 1450.39 244.295 1455 Q247.374 1459.58 247.374 1468.33 Q247.374 1477.06 244.295 1481.67 Q241.24 1486.25 235.429 1486.25 Q229.619 1486.25 226.541 1481.67 Q223.485 1477.06 223.485 1468.33 Q223.485 1459.58 226.541 1455 Q229.619 1450.39 235.429 1450.39 Z" fill="#000000" fill-rule="nonzero" fill-opacity="1" /><path clip-path="url(#clip270)" d="M474.909 1481.64 L482.548 1481.64 L482.548 1455.28 L474.237 1456.95 L474.237 1452.69 L482.501 1451.02 L487.177 1451.02 L487.177 1481.64 L494.816 1481.64 L494.816 1485.58 L474.909 1485.58 L474.909 1481.64 Z" fill="#000000" fill-rule="nonzero" fill-opacity="1" /><path clip-path="url(#clip270)" d="M728.277 1481.64 L744.596 1481.64 L744.596 1485.58 L722.652 1485.58 L722.652 1481.64 Q725.314 1478.89 729.897 1474.26 Q734.504 1469.61 735.684 1468.27 Q737.929 1465.74 738.809 1464.01 Q739.712 1462.25 739.712 1460.56 Q739.712 1457.8 737.767 1456.07 Q735.846 1454.33 732.744 1454.33 Q730.545 1454.33 728.092 1455.09 Q725.661 1455.86 722.883 1457.41 L722.883 1452.69 Q725.707 1451.55 728.161 1450.97 Q730.615 1450.39 732.652 1450.39 Q738.022 1450.39 741.216 1453.08 Q744.411 1455.77 744.411 1460.26 Q744.411 1462.39 743.601 1464.31 Q742.814 1466.2 740.707 1468.8 Q740.129 1469.47 737.027 1472.69 Q733.925 1475.88 728.277 1481.64 Z" fill="#000000" fill-rule="nonzero" fill-opacity="1" /><path clip-path="url(#clip270)" d="M986.969 1466.95 Q990.325 1467.66 992.2 1469.93 Q994.098 1472.2 994.098 1475.53 Q994.098 1480.65 990.58 1483.45 Q987.061 1486.25 980.58 1486.25 Q978.404 1486.25 976.089 1485.81 Q973.798 1485.39 971.344 1484.54 L971.344 1480.02 Q973.288 1481.16 975.603 1481.74 Q977.918 1482.32 980.441 1482.32 Q984.839 1482.32 987.131 1480.58 Q989.446 1478.84 989.446 1475.53 Q989.446 1472.48 987.293 1470.77 Q985.163 1469.03 981.344 1469.03 L977.316 1469.03 L977.316 1465.19 L981.529 1465.19 Q984.978 1465.19 986.807 1463.82 Q988.635 1462.43 988.635 1459.84 Q988.635 1457.18 986.737 1455.77 Q984.862 1454.33 981.344 1454.33 Q979.423 1454.33 977.224 1454.75 Q975.024 1455.16 972.386 1456.04 L972.386 1451.88 Q975.048 1451.14 977.362 1450.77 Q979.7 1450.39 981.761 1450.39 Q987.085 1450.39 990.186 1452.83 Q993.288 1455.23 993.288 1459.35 Q993.288 1462.22 991.645 1464.21 Q990.001 1466.18 986.969 1466.95 Z" fill="#000000" fill-rule="nonzero" fill-opacity="1" /><path clip-path="url(#clip270)" d="M1234.83 1455.09 L1223.02 1473.54 L1234.83 1473.54 L1234.83 1455.09 M1233.6 1451.02 L1239.48 1451.02 L1239.48 1473.54 L1244.41 1473.54 L1244.41 1477.43 L1239.48 1477.43 L1239.48 1485.58 L1234.83 1485.58 L1234.83 1477.43 L1219.23 1477.43 L1219.23 1472.92 L1233.6 1451.02 Z" fill="#000000" fill-rule="nonzero" fill-opacity="1" /><path clip-path="url(#clip270)" d="M1471.19 1451.02 L1489.55 1451.02 L1489.55 1454.96 L1475.48 1454.96 L1475.48 1463.43 Q1476.49 1463.08 1477.51 1462.92 Q1478.53 1462.73 1479.55 1462.73 Q1485.34 1462.73 1488.72 1465.9 Q1492.1 1469.08 1492.1 1474.49 Q1492.1 1480.07 1488.62 1483.17 Q1485.15 1486.25 1478.83 1486.25 Q1476.66 1486.25 1474.39 1485.88 Q1472.14 1485.51 1469.74 1484.77 L1469.74 1480.07 Q1471.82 1481.2 1474.04 1481.76 Q1476.26 1482.32 1478.74 1482.32 Q1482.74 1482.32 1485.08 1480.21 Q1487.42 1478.1 1487.42 1474.49 Q1487.42 1470.88 1485.08 1468.77 Q1482.74 1466.67 1478.74 1466.67 Q1476.86 1466.67 1474.99 1467.08 Q1473.14 1467.5 1471.19 1468.38 L1471.19 1451.02 Z" fill="#000000" fill-rule="nonzero" fill-opacity="1" /><path clip-path="url(#clip270)" d="M1730.42 1466.44 Q1727.27 1466.44 1725.42 1468.59 Q1723.59 1470.74 1723.59 1474.49 Q1723.59 1478.22 1725.42 1480.39 Q1727.27 1482.55 1730.42 1482.55 Q1733.57 1482.55 1735.39 1480.39 Q1737.25 1478.22 1737.25 1474.49 Q1737.25 1470.74 1735.39 1468.59 Q1733.57 1466.44 1730.42 1466.44 M1739.7 1451.78 L1739.7 1456.04 Q1737.94 1455.21 1736.14 1454.77 Q1734.35 1454.33 1732.59 1454.33 Q1727.96 1454.33 1725.51 1457.45 Q1723.08 1460.58 1722.73 1466.9 Q1724.1 1464.89 1726.16 1463.82 Q1728.22 1462.73 1730.7 1462.73 Q1735.9 1462.73 1738.91 1465.9 Q1741.95 1469.05 1741.95 1474.49 Q1741.95 1479.82 1738.8 1483.03 Q1735.65 1486.25 1730.42 1486.25 Q1724.42 1486.25 1721.25 1481.67 Q1718.08 1477.06 1718.08 1468.33 Q1718.08 1460.14 1721.97 1455.28 Q1725.86 1450.39 1732.41 1450.39 Q1734.17 1450.39 1735.95 1450.74 Q1737.76 1451.09 1739.7 1451.78 Z" fill="#000000" fill-rule="nonzero" fill-opacity="1" /><path clip-path="url(#clip270)" d="M1968 1451.02 L1990.22 1451.02 L1990.22 1453.01 L1977.67 1485.58 L1972.79 1485.58 L1984.6 1454.96 L1968 1454.96 L1968 1451.02 Z" fill="#000000" fill-rule="nonzero" fill-opacity="1" /><path clip-path="url(#clip270)" d="M2228.21 1469.17 Q2224.87 1469.17 2222.95 1470.95 Q2221.05 1472.73 2221.05 1475.86 Q2221.05 1478.98 2222.95 1480.77 Q2224.87 1482.55 2228.21 1482.55 Q2231.54 1482.55 2233.46 1480.77 Q2235.38 1478.96 2235.38 1475.86 Q2235.38 1472.73 2233.46 1470.95 Q2231.56 1469.17 2228.21 1469.17 M2223.53 1467.18 Q2220.52 1466.44 2218.83 1464.38 Q2217.17 1462.32 2217.17 1459.35 Q2217.17 1455.21 2220.11 1452.8 Q2223.07 1450.39 2228.21 1450.39 Q2233.37 1450.39 2236.31 1452.8 Q2239.25 1455.21 2239.25 1459.35 Q2239.25 1462.32 2237.56 1464.38 Q2235.89 1466.44 2232.91 1467.18 Q2236.29 1467.96 2238.16 1470.26 Q2240.06 1472.55 2240.06 1475.86 Q2240.06 1480.88 2236.98 1483.57 Q2233.92 1486.25 2228.21 1486.25 Q2222.49 1486.25 2219.41 1483.57 Q2216.36 1480.88 2216.36 1475.86 Q2216.36 1472.55 2218.25 1470.26 Q2220.15 1467.96 2223.53 1467.18 M2221.82 1459.79 Q2221.82 1462.48 2223.49 1463.98 Q2225.17 1465.49 2228.21 1465.49 Q2231.22 1465.49 2232.91 1463.98 Q2234.62 1462.48 2234.62 1459.79 Q2234.62 1457.11 2232.91 1455.6 Q2231.22 1454.1 2228.21 1454.1 Q2225.17 1454.1 2223.49 1455.6 Q2221.82 1457.11 2221.82 1459.79 Z" fill="#000000" fill-rule="nonzero" fill-opacity="1" /><path clip-path="url(#clip270)" d="M1240.29 1531.91 Q1240.29 1532.81 1239.87 1533.04 Q1239.45 1533.23 1238.29 1533.23 L1232.11 1533.23 L1227.21 1552.69 Q1226.83 1554.39 1226.83 1555.84 Q1226.83 1557.45 1227.31 1558.16 Q1227.83 1558.87 1228.89 1558.87 Q1230.98 1558.87 1233.24 1556.97 Q1235.52 1555.07 1237.46 1550.43 Q1237.71 1549.82 1237.84 1549.69 Q1238 1549.53 1238.42 1549.53 Q1239.23 1549.53 1239.23 1550.17 Q1239.23 1550.4 1238.78 1551.43 Q1238.36 1552.46 1237.42 1553.97 Q1236.52 1555.49 1235.33 1556.9 Q1234.17 1558.32 1232.4 1559.35 Q1230.63 1560.35 1228.73 1560.35 Q1226.05 1560.35 1224.35 1558.64 Q1222.67 1556.94 1222.67 1554.26 Q1222.67 1553.39 1223.35 1550.62 Q1224.03 1547.82 1227.7 1533.23 L1221.87 1533.23 Q1221.06 1533.23 1220.74 1533.2 Q1220.45 1533.17 1220.23 1533.01 Q1220.03 1532.81 1220.03 1532.43 Q1220.03 1531.82 1220.29 1531.56 Q1220.55 1531.27 1220.87 1531.24 Q1221.22 1531.17 1222.03 1531.17 L1228.21 1531.17 L1230.79 1520.71 Q1231.05 1519.67 1231.69 1519.09 Q1232.37 1518.48 1232.75 1518.42 Q1233.14 1518.32 1233.43 1518.32 Q1234.3 1518.32 1234.81 1518.81 Q1235.33 1519.26 1235.33 1520.09 Q1235.33 1520.54 1232.62 1531.17 L1238.42 1531.17 Q1239.16 1531.17 1239.45 1531.2 Q1239.77 1531.24 1240.03 1531.4 Q1240.29 1531.56 1240.29 1531.91 Z" fill="#000000" fill-rule="nonzero" fill-opacity="1" /><polyline clip-path="url(#clip272)" style="stroke:#000000; stroke-linecap:round; stroke-linejoin:round; stroke-width:2; stroke-opacity:0.1; fill:none" points="110.881,1423.18 2352.76,1423.18 "/>
<polyline clip-path="url(#clip272)" style="stroke:#000000; stroke-linecap:round; stroke-linejoin:round; stroke-width:2; stroke-opacity:0.1; fill:none" points="110.881,556.708 2352.76,556.708 "/>
<polyline clip-path="url(#clip270)" style="stroke:#000000; stroke-linecap:round; stroke-linejoin:round; stroke-width:4; stroke-opacity:1; fill:none" points="110.881,1423.18 110.881,123.472 "/>
<polyline clip-path="url(#clip270)" style="stroke:#000000; stroke-linecap:round; stroke-linejoin:round; stroke-width:4; stroke-opacity:1; fill:none" points="110.881,1423.18 129.779,1423.18 "/>
<polyline clip-path="url(#clip270)" style="stroke:#000000; stroke-linecap:round; stroke-linejoin:round; stroke-width:4; stroke-opacity:1; fill:none" points="110.881,556.708 129.779,556.708 "/>
<path clip-path="url(#clip270)" d="M62.9365 1408.98 Q59.3254 1408.98 57.4967 1412.54 Q55.6912 1416.08 55.6912 1423.21 Q55.6912 1430.32 57.4967 1433.89 Q59.3254 1437.43 62.9365 1437.43 Q66.5707 1437.43 68.3763 1433.89 Q70.205 1430.32 70.205 1423.21 Q70.205 1416.08 68.3763 1412.54 Q66.5707 1408.98 62.9365 1408.98 M62.9365 1405.27 Q68.7467 1405.27 71.8022 1409.88 Q74.8809 1414.46 74.8809 1423.21 Q74.8809 1431.94 71.8022 1436.55 Q68.7467 1441.13 62.9365 1441.13 Q57.1264 1441.13 54.0477 1436.55 Q50.9921 1431.94 50.9921 1423.21 Q50.9921 1414.46 54.0477 1409.88 Q57.1264 1405.27 62.9365 1405.27 Z" fill="#000000" fill-rule="nonzero" fill-opacity="1" /><path clip-path="url(#clip270)" d="M54.9736 570.053 L62.6124 570.053 L62.6124 543.687 L54.3023 545.354 L54.3023 541.095 L62.5661 539.428 L67.242 539.428 L67.242 570.053 L74.8809 570.053 L74.8809 573.988 L54.9736 573.988 L54.9736 570.053 Z" fill="#000000" fill-rule="nonzero" fill-opacity="1" /><path clip-path="url(#clip270)" d="M1229.1 47.8781 Q1227.99 53.1657 1226.56 56.1989 Q1224.26 60.8307 1220.37 60.8307 Q1217.42 60.8307 1215.33 59.0272 Q1213.24 57.2236 1212.74 54.5183 Q1207.37 60.8307 1201.8 60.8307 Q1196.88 60.8307 1193.77 57.1007 Q1190.65 53.3297 1190.65 47.3862 Q1190.65 41.4018 1193.6 35.6633 Q1196.59 29.9248 1201.31 26.3587 Q1206.02 22.7926 1210.86 22.7926 Q1215.98 22.7926 1218.61 28.1622 Q1218.81 26.6866 1219.75 25.5799 Q1220.7 24.4732 1222.13 24.4732 Q1223.24 24.4732 1223.89 25.088 Q1224.55 25.6619 1224.55 26.7276 Q1224.55 27.2605 1223.97 29.5969 L1220.94 41.3198 L1219.1 48.9028 Q1218.4 51.6901 1218.2 52.7148 Q1218.03 53.7395 1218.03 55.0922 Q1218.03 58.9452 1220.53 58.9452 Q1221.76 58.9452 1222.75 58.1664 Q1223.73 57.3876 1224.51 55.748 Q1225.29 54.1084 1225.78 52.5918 Q1226.27 51.0343 1226.93 48.5749 Q1227.13 47.5912 1227.29 47.3452 Q1227.5 47.0583 1228.07 47.0583 Q1229.1 47.0583 1229.1 47.8781 M1217.58 32.0152 Q1217.58 31.6463 1217.29 30.6216 Q1217.01 29.5969 1216.35 28.1622 Q1215.7 26.7276 1214.26 25.7029 Q1212.87 24.6372 1210.98 24.6372 Q1208.44 24.6372 1205.78 26.8096 Q1203.15 28.982 1201.23 32.6711 Q1199.75 35.6223 1198.15 41.8117 Q1196.59 48.001 1196.59 51.0752 Q1196.59 52.9607 1197 54.6413 Q1197.45 56.2809 1198.73 57.6335 Q1200 58.9452 1201.96 58.9452 Q1206.76 58.9452 1211.47 53.0017 Q1212.37 51.977 1212.58 51.5671 Q1212.83 51.1162 1213.15 49.8866 L1217.33 33.4499 Q1217.58 32.2202 1217.58 32.0152 Z" fill="#000000" fill-rule="nonzero" fill-opacity="1" /><path clip-path="url(#clip270)" d="M1264.29 62.7888 Q1264.29 64.4243 1263.28 65.3998 Q1262.31 66.3754 1261.07 66.3754 Q1259.98 66.3754 1259.41 65.7441 Q1258.84 65.1129 1258.84 64.3095 Q1258.84 63.9652 1258.98 63.5348 Q1259.12 63.0757 1259.44 62.5306 Q1259.78 61.9854 1260.5 61.5837 Q1261.22 61.182 1262.19 61.1246 Q1261.99 60.9238 1261.93 60.8951 Q1261.5 60.5508 1260.7 60.436 Q1260.59 60.3786 1260.18 60.3786 Q1258.2 60.3786 1256.2 61.842 Q1254.22 63.2766 1251.78 66.0024 Q1248.71 69.1872 1246.73 70.3636 Q1255.42 71.5113 1255.42 76.5325 Q1255.42 77.3646 1255.19 78.3688 Q1254.73 80.2625 1254.73 81.6398 Q1254.73 84.3943 1256.6 84.3943 Q1258.4 84.3943 1259.55 82.5579 Q1260.73 80.7216 1261.7 77.1351 Q1261.85 76.4751 1261.99 76.2743 Q1262.13 76.0734 1262.54 76.0734 Q1263.25 76.0734 1263.25 76.6473 Q1262.59 80.0043 1261.13 82.5866 Q1259.27 85.7141 1256.48 85.7141 Q1254.16 85.7141 1252.61 84.1073 Q1251.09 82.4719 1251.09 79.8895 Q1251.09 79.2583 1251.32 77.8237 Q1251.49 77.2498 1251.49 76.5899 Q1251.49 75.2414 1250.74 74.2371 Q1250 73.2042 1248.79 72.6877 Q1247.59 72.1713 1246.58 71.9417 Q1245.61 71.6835 1244.66 71.5974 Q1241.79 83.7343 1241.39 84.4803 Q1241.13 84.9968 1240.56 85.3411 Q1239.98 85.7141 1239.38 85.7141 Q1238.81 85.7141 1238.23 85.3124 Q1237.69 84.9394 1237.69 84.05 Q1237.69 83.5909 1237.92 82.7588 L1246.44 48.9016 L1246.61 47.7539 Q1246.61 47.4096 1246.47 47.2375 Q1246.35 47.0366 1245.67 46.8932 Q1245.01 46.7497 1243.69 46.7497 Q1243.14 46.7497 1242.88 46.721 Q1242.65 46.6923 1242.45 46.5489 Q1242.25 46.3767 1242.25 46.0324 Q1242.25 45.5446 1242.45 45.2864 Q1242.68 44.9995 1242.85 44.9421 Q1243.03 44.8847 1243.37 44.856 Q1243.86 44.8273 1245.49 44.6838 Q1247.13 44.5117 1248.53 44.3969 Q1249.94 44.2822 1250.54 44.2822 Q1250.89 44.2822 1251.06 44.4543 Q1251.26 44.5978 1251.29 44.7699 L1251.32 44.9134 L1245.21 69.7037 Q1247.73 68.6995 1251.72 64.2521 Q1256.34 59.0875 1260.3 59.0875 Q1262.16 59.0875 1263.23 60.2352 Q1264.29 61.3542 1264.29 62.7888 Z" fill="#000000" fill-rule="nonzero" fill-opacity="1" /><polyline clip-path="url(#clip272)" style="stroke:#009af9; stroke-linecap:round; stroke-linejoin:round; stroke-width:8; stroke-opacity:1; fill:none" points="235.429,556.708 484.527,556.708 484.527,1423.18 733.624,1423.18 982.721,1423.18 982.721,556.708 1231.82,556.708 1480.92,556.708 1480.92,1423.18 1730.01,1423.18 1730.01,556.708 1979.11,556.708 2228.21,556.708 2477.3,556.708 "/>
<path clip-path="url(#clip270)" d="M2001.41 270.476 L2278.03 270.476 L2278.03 166.796 L2001.41 166.796  Z" fill="#ffffff" fill-rule="evenodd" fill-opacity="1"/>
<polyline clip-path="url(#clip270)" style="stroke:#000000; stroke-linecap:round; stroke-linejoin:round; stroke-width:4; stroke-opacity:1; fill:none" points="2001.41,270.476 2278.03,270.476 2278.03,166.796 2001.41,166.796 2001.41,270.476 "/>
<polyline clip-path="url(#clip270)" style="stroke:#009af9; stroke-linecap:round; stroke-linejoin:round; stroke-width:8; stroke-opacity:1; fill:none" points="2026.32,218.636 2175.78,218.636 "/>
<path clip-path="url(#clip270)" d="M2214.53 238.323 Q2212.72 242.953 2211.01 244.365 Q2209.3 245.777 2206.43 245.777 L2203.02 245.777 L2203.02 242.212 L2205.52 242.212 Q2207.28 242.212 2208.26 241.379 Q2209.23 240.545 2210.41 237.443 L2211.17 235.499 L2200.69 209.99 L2205.2 209.99 L2213.3 230.268 L2221.4 209.99 L2225.92 209.99 L2214.53 238.323 Z" fill="#000000" fill-rule="nonzero" fill-opacity="1" /><path clip-path="url(#clip270)" d="M2233.21 231.981 L2240.85 231.981 L2240.85 205.615 L2232.54 207.282 L2232.54 203.022 L2240.8 201.356 L2245.48 201.356 L2245.48 231.981 L2253.12 231.981 L2253.12 235.916 L2233.21 235.916 L2233.21 231.981 Z" fill="#000000" fill-rule="nonzero" fill-opacity="1" /></svg>
