<?xml version="1.0" encoding="utf-8"?>
<svg xmlns="http://www.w3.org/2000/svg" xmlns:xlink="http://www.w3.org/1999/xlink" width="600" height="400" viewBox="0 0 2400 1600">
<defs>
  <clipPath id="clip480">
    <rect x="0" y="0" width="2400" height="1600"/>
  </clipPath>
</defs>
<path clip-path="url(#clip480)" d="M0 1600 L2400 1600 L2400 0 L0 0  Z" fill="#ffffff" fill-rule="evenodd" fill-opacity="1"/>
<defs>
  <clipPath id="clip481">
    <rect x="480" y="0" width="1681" height="1600"/>
  </clipPath>
</defs>
<path clip-path="url(#clip480)" d="M252.764 1423.18 L2352.76 1423.18 L2352.76 123.472 L252.764 123.472  Z" fill="#ffffff" fill-rule="evenodd" fill-opacity="1"/>
<defs>
  <clipPath id="clip482">
    <rect x="252" y="123" width="2101" height="1301"/>
  </clipPath>
</defs>
<polyline clip-path="url(#clip482)" style="stroke:#000000; stroke-linecap:round; stroke-linejoin:round; stroke-width:2; stroke-opacity:0.1; fill:none" points="312.198,1423.18 312.198,123.472 "/>
<polyline clip-path="url(#clip482)" style="stroke:#000000; stroke-linecap:round; stroke-linejoin:round; stroke-width:2; stroke-opacity:0.1; fill:none" points="878.233,1423.18 878.233,123.472 "/>
<polyline clip-path="url(#clip482)" style="stroke:#000000; stroke-linecap:round; stroke-linejoin:round; stroke-width:2; stroke-opacity:0.1; fill:none" points="1444.27,1423.18 1444.27,123.472 "/>
<polyline clip-path="url(#clip482)" style="stroke:#000000; stroke-linecap:round; stroke-linejoin:round; stroke-width:2; stroke-opacity:0.1; fill:none" points="2010.3,1423.18 2010.3,123.472 "/>
<polyline clip-path="url(#clip480)" style="stroke:#000000; stroke-linecap:round; stroke-linejoin:round; stroke-width:4; stroke-opacity:1; fill:none" points="252.764,1423.18 2352.76,1423.18 "/>
<polyline clip-path="url(#clip480)" style="stroke:#000000; stroke-linecap:round; stroke-linejoin:round; stroke-width:4; stroke-opacity:1; fill:none" points="312.198,1423.18 312.198,1404.28 "/>
<polyline clip-path="url(#clip480)" style="stroke:#000000; stroke-linecap:round; stroke-linejoin:round; stroke-width:4; stroke-opacity:1; fill:none" points="878.233,1423.18 878.233,1404.28 "/>
<polyline clip-path="url(#clip480)" style="stroke:#000000; stroke-linecap:round; stroke-linejoin:round; stroke-width:4; stroke-opacity:1; fill:none" points="1444.27,1423.18 1444.27,1404.28 "/>
<polyline clip-path="url(#clip480)" style="stroke:#000000; stroke-linecap:round; stroke-linejoin:round; stroke-width:4; stroke-opacity:1; fill:none" points="2010.3,1423.18 2010.3,1404.28 "/>
<path clip-path="url(#clip480)" d="M312.198 1454.1 Q308.587 1454.1 306.758 1457.66 Q304.952 1461.2 304.952 1468.33 Q304.952 1475.44 306.758 1479.01 Q308.587 1482.55 312.198 1482.55 Q315.832 1482.55 317.637 1479.01 Q319.466 1475.44 319.466 1468.33 Q319.466 1461.2 317.637 1457.66 Q315.832 1454.1 312.198 1454.1 M312.198 1450.39 Q318.008 1450.39 321.063 1455 Q324.142 1459.58 324.142 1468.33 Q324.142 1477.06 321.063 1481.67 Q318.008 1486.25 312.198 1486.25 Q306.388 1486.25 303.309 1481.67 Q300.253 1477.06 300.253 1468.33 Q300.253 1459.58 303.309 1455 Q306.388 1450.39 312.198 1450.39 Z" fill="#000000" fill-rule="nonzero" fill-opacity="1" /><path clip-path="url(#clip480)" d="M857.007 1481.64 L873.326 1481.64 L873.326 1485.58 L851.382 1485.58 L851.382 1481.64 Q854.044 1478.89 858.627 1474.26 Q863.233 1469.61 864.414 1468.27 Q866.659 1465.74 867.539 1464.01 Q868.442 1462.25 868.442 1460.56 Q868.442 1457.8 866.497 1456.07 Q864.576 1454.33 861.474 1454.33 Q859.275 1454.33 856.821 1455.09 Q854.391 1455.86 851.613 1457.41 L851.613 1452.69 Q854.437 1451.55 856.891 1450.97 Q859.344 1450.39 861.381 1450.39 Q866.752 1450.39 869.946 1453.08 Q873.141 1455.77 873.141 1460.26 Q873.141 1462.39 872.331 1464.31 Q871.543 1466.2 869.437 1468.8 Q868.858 1469.47 865.756 1472.69 Q862.655 1475.88 857.007 1481.64 Z" fill="#000000" fill-rule="nonzero" fill-opacity="1" /><path clip-path="url(#clip480)" d="M893.141 1454.1 Q889.529 1454.1 887.701 1457.66 Q885.895 1461.2 885.895 1468.33 Q885.895 1475.44 887.701 1479.01 Q889.529 1482.55 893.141 1482.55 Q896.775 1482.55 898.58 1479.01 Q900.409 1475.44 900.409 1468.33 Q900.409 1461.2 898.58 1457.66 Q896.775 1454.1 893.141 1454.1 M893.141 1450.39 Q898.951 1450.39 902.006 1455 Q905.085 1459.58 905.085 1468.33 Q905.085 1477.06 902.006 1481.67 Q898.951 1486.25 893.141 1486.25 Q887.33 1486.25 884.252 1481.67 Q881.196 1477.06 881.196 1468.33 Q881.196 1459.58 884.252 1455 Q887.33 1450.39 893.141 1450.39 Z" fill="#000000" fill-rule="nonzero" fill-opacity="1" /><path clip-path="url(#clip480)" d="M1432.44 1455.09 L1420.63 1473.54 L1432.44 1473.54 L1432.44 1455.09 M1431.21 1451.02 L1437.09 1451.02 L1437.09 1473.54 L1442.02 1473.54 L1442.02 1477.43 L1437.09 1477.43 L1437.09 1485.58 L1432.44 1485.58 L1432.44 1477.43 L1416.84 1477.43 L1416.84 1472.92 L1431.21 1451.02 Z" fill="#000000" fill-rule="nonzero" fill-opacity="1" /><path clip-path="url(#clip480)" d="M1459.75 1454.1 Q1456.14 1454.1 1454.32 1457.66 Q1452.51 1461.2 1452.51 1468.33 Q1452.51 1475.44 1454.32 1479.01 Q1456.14 1482.55 1459.75 1482.55 Q1463.39 1482.55 1465.19 1479.01 Q1467.02 1475.44 1467.02 1468.33 Q1467.02 1461.2 1465.19 1457.66 Q1463.39 1454.1 1459.75 1454.1 M1459.75 1450.39 Q1465.57 1450.39 1468.62 1455 Q1471.7 1459.58 1471.7 1468.33 Q1471.7 1477.06 1468.62 1481.67 Q1465.57 1486.25 1459.75 1486.25 Q1453.94 1486.25 1450.87 1481.67 Q1447.81 1477.06 1447.81 1468.33 Q1447.81 1459.58 1450.87 1455 Q1453.94 1450.39 1459.75 1450.39 Z" fill="#000000" fill-rule="nonzero" fill-opacity="1" /><path clip-path="url(#clip480)" d="M1995.71 1466.44 Q1992.56 1466.44 1990.71 1468.59 Q1988.88 1470.74 1988.88 1474.49 Q1988.88 1478.22 1990.71 1480.39 Q1992.56 1482.55 1995.71 1482.55 Q1998.86 1482.55 2000.69 1480.39 Q2002.54 1478.22 2002.54 1474.49 Q2002.54 1470.74 2000.69 1468.59 Q1998.86 1466.44 1995.71 1466.44 M2004.99 1451.78 L2004.99 1456.04 Q2003.23 1455.21 2001.43 1454.77 Q1999.64 1454.33 1997.89 1454.33 Q1993.26 1454.33 1990.8 1457.45 Q1988.37 1460.58 1988.02 1466.9 Q1989.39 1464.89 1991.45 1463.82 Q1993.51 1462.73 1995.99 1462.73 Q2001.2 1462.73 2004.2 1465.9 Q2007.24 1469.05 2007.24 1474.49 Q2007.24 1479.82 2004.09 1483.03 Q2000.94 1486.25 1995.71 1486.25 Q1989.71 1486.25 1986.54 1481.67 Q1983.37 1477.06 1983.37 1468.33 Q1983.37 1460.14 1987.26 1455.28 Q1991.15 1450.39 1997.7 1450.39 Q1999.46 1450.39 2001.24 1450.74 Q2003.05 1451.09 2004.99 1451.78 Z" fill="#000000" fill-rule="nonzero" fill-opacity="1" /><path clip-path="url(#clip480)" d="M2025.29 1454.1 Q2021.68 1454.1 2019.85 1457.66 Q2018.05 1461.2 2018.05 1468.33 Q2018.05 1475.44 2019.85 1479.01 Q2021.68 1482.55 2025.29 1482.55 Q2028.93 1482.55 2030.73 1479.01 Q2032.56 1475.44 2032.56 1468.33 Q2032.56 1461.2 2030.73 1457.66 Q2028.93 1454.1 2025.29 1454.1 M2025.29 1450.39 Q2031.1 1450.39 2034.16 1455 Q2037.24 1459.58 2037.24 1468.33 Q2037.24 1477.06 2034.16 1481.67 Q2031.1 1486.25 2025.29 1486.25 Q2019.48 1486.25 2016.4 1481.67 Q2013.35 1477.06 2013.35 1468.33 Q2013.35 1459.58 2016.4 1455 Q2019.48 1450.39 2025.29 1450.39 Z" fill="#000000" fill-rule="nonzero" fill-opacity="1" /><path clip-path="url(#clip480)" d="M1191.74 1522.08 L1191.74 1528.35 Q1188.08 1526.6 1184.84 1525.74 Q1181.59 1524.88 1178.56 1524.88 Q1173.31 1524.88 1170.45 1526.92 Q1167.62 1528.96 1167.62 1532.71 Q1167.62 1535.87 1169.49 1537.49 Q1171.4 1539.08 1176.69 1540.07 L1180.57 1540.86 Q1187.76 1542.23 1191.17 1545.7 Q1194.61 1549.14 1194.61 1554.93 Q1194.61 1561.84 1189.96 1565.4 Q1185.34 1568.97 1176.4 1568.97 Q1173.03 1568.97 1169.21 1568.2 Q1165.42 1567.44 1161.35 1565.94 L1161.35 1559.32 Q1165.26 1561.52 1169.02 1562.63 Q1172.77 1563.75 1176.4 1563.75 Q1181.91 1563.75 1184.9 1561.58 Q1187.89 1559.42 1187.89 1555.41 Q1187.89 1551.91 1185.73 1549.93 Q1183.59 1547.96 1178.69 1546.97 L1174.78 1546.21 Q1167.58 1544.78 1164.37 1541.72 Q1161.15 1538.67 1161.15 1533.22 Q1161.15 1526.92 1165.58 1523.29 Q1170.03 1519.66 1177.83 1519.66 Q1181.17 1519.66 1184.64 1520.27 Q1188.11 1520.87 1191.74 1522.08 Z" fill="#000000" fill-rule="nonzero" fill-opacity="1" /><path clip-path="url(#clip480)" d="M1204.63 1520.52 L1213.29 1520.52 L1234.36 1560.28 L1234.36 1520.52 L1240.6 1520.52 L1240.6 1568.04 L1231.94 1568.04 L1210.87 1528.29 L1210.87 1568.04 L1204.63 1568.04 L1204.63 1520.52 Z" fill="#000000" fill-rule="nonzero" fill-opacity="1" /><path clip-path="url(#clip480)" d="M1275.93 1545.76 Q1278 1546.46 1279.94 1548.76 Q1281.91 1551.05 1283.89 1555.06 L1290.41 1568.04 L1283.5 1568.04 L1277.42 1555.85 Q1275.07 1551.08 1272.84 1549.52 Q1270.64 1547.96 1266.83 1547.96 L1259.82 1547.96 L1259.82 1568.04 L1253.39 1568.04 L1253.39 1520.52 L1267.91 1520.52 Q1276.06 1520.52 1280.07 1523.93 Q1284.08 1527.34 1284.08 1534.21 Q1284.08 1538.7 1281.98 1541.66 Q1279.91 1544.62 1275.93 1545.76 M1259.82 1525.81 L1259.82 1542.68 L1267.91 1542.68 Q1272.55 1542.68 1274.91 1540.54 Q1277.3 1538.38 1277.3 1534.21 Q1277.3 1530.04 1274.91 1527.94 Q1272.55 1525.81 1267.91 1525.81 L1259.82 1525.81 Z" fill="#000000" fill-rule="nonzero" fill-opacity="1" /><path clip-path="url(#clip480)" d="M1333.22 1518.58 Q1328.95 1525.9 1326.89 1533.06 Q1324.82 1540.23 1324.82 1547.58 Q1324.82 1554.93 1326.89 1562.16 Q1328.99 1569.35 1333.22 1576.64 L1328.13 1576.64 Q1323.35 1569.16 1320.97 1561.93 Q1318.61 1554.71 1318.61 1547.58 Q1318.61 1540.48 1320.97 1533.29 Q1323.32 1526.09 1328.13 1518.58 L1333.22 1518.58 Z" fill="#000000" fill-rule="nonzero" fill-opacity="1" /><path clip-path="url(#clip480)" d="M1368.04 1537.81 L1368.04 1518.52 L1373.9 1518.52 L1373.9 1568.04 L1368.04 1568.04 L1368.04 1562.7 Q1366.19 1565.88 1363.36 1567.44 Q1360.56 1568.97 1356.61 1568.97 Q1350.15 1568.97 1346.08 1563.81 Q1342.04 1558.65 1342.04 1550.25 Q1342.04 1541.85 1346.08 1536.69 Q1350.15 1531.54 1356.61 1531.54 Q1360.56 1531.54 1363.36 1533.1 Q1366.19 1534.62 1368.04 1537.81 M1348.08 1550.25 Q1348.08 1556.71 1350.73 1560.4 Q1353.4 1564.07 1358.05 1564.07 Q1362.69 1564.07 1365.37 1560.4 Q1368.04 1556.71 1368.04 1550.25 Q1368.04 1543.79 1365.37 1540.13 Q1362.69 1536.44 1358.05 1536.44 Q1353.4 1536.44 1350.73 1540.13 Q1348.08 1543.79 1348.08 1550.25 Z" fill="#000000" fill-rule="nonzero" fill-opacity="1" /><path clip-path="url(#clip480)" d="M1392.64 1545.35 L1392.64 1562.76 L1402.96 1562.76 Q1408.14 1562.76 1410.63 1560.63 Q1413.14 1558.46 1413.14 1554.04 Q1413.14 1549.58 1410.63 1547.48 Q1408.14 1545.35 1402.96 1545.35 L1392.64 1545.35 M1392.64 1525.81 L1392.64 1540.13 L1402.16 1540.13 Q1406.87 1540.13 1409.16 1538.38 Q1411.49 1536.6 1411.49 1532.97 Q1411.49 1529.37 1409.16 1527.59 Q1406.87 1525.81 1402.16 1525.81 L1392.64 1525.81 M1386.21 1520.52 L1402.64 1520.52 Q1409.99 1520.52 1413.97 1523.58 Q1417.95 1526.63 1417.95 1532.27 Q1417.95 1536.63 1415.91 1539.21 Q1413.87 1541.79 1409.93 1542.42 Q1414.67 1543.44 1417.28 1546.69 Q1419.92 1549.9 1419.92 1554.74 Q1419.92 1561.11 1415.59 1564.57 Q1411.26 1568.04 1403.27 1568.04 L1386.21 1568.04 L1386.21 1520.52 Z" fill="#000000" fill-rule="nonzero" fill-opacity="1" /><path clip-path="url(#clip480)" d="M1429.76 1518.58 L1434.85 1518.58 Q1439.62 1526.09 1441.98 1533.29 Q1444.37 1540.48 1444.37 1547.58 Q1444.37 1554.71 1441.98 1561.93 Q1439.62 1569.16 1434.85 1576.64 L1429.76 1576.64 Q1433.99 1569.35 1436.06 1562.16 Q1438.16 1554.93 1438.16 1547.58 Q1438.16 1540.23 1436.06 1533.06 Q1433.99 1525.9 1429.76 1518.58 Z" fill="#000000" fill-rule="nonzero" fill-opacity="1" /><polyline clip-path="url(#clip482)" style="stroke:#000000; stroke-linecap:round; stroke-linejoin:round; stroke-width:2; stroke-opacity:0.1; fill:none" points="252.764,1423.18 2352.76,1423.18 "/>
<polyline clip-path="url(#clip482)" style="stroke:#000000; stroke-linecap:round; stroke-linejoin:round; stroke-width:2; stroke-opacity:0.1; fill:none" points="252.764,1237.51 2352.76,1237.51 "/>
<polyline clip-path="url(#clip482)" style="stroke:#000000; stroke-linecap:round; stroke-linejoin:round; stroke-width:2; stroke-opacity:0.1; fill:none" points="252.764,1051.83 2352.76,1051.83 "/>
<polyline clip-path="url(#clip482)" style="stroke:#000000; stroke-linecap:round; stroke-linejoin:round; stroke-width:2; stroke-opacity:0.1; fill:none" points="252.764,866.162 2352.76,866.162 "/>
<polyline clip-path="url(#clip482)" style="stroke:#000000; stroke-linecap:round; stroke-linejoin:round; stroke-width:2; stroke-opacity:0.1; fill:none" points="252.764,680.49 2352.76,680.49 "/>
<polyline clip-path="url(#clip482)" style="stroke:#000000; stroke-linecap:round; stroke-linejoin:round; stroke-width:2; stroke-opacity:0.1; fill:none" points="252.764,494.817 2352.76,494.817 "/>
<polyline clip-path="url(#clip482)" style="stroke:#000000; stroke-linecap:round; stroke-linejoin:round; stroke-width:2; stroke-opacity:0.1; fill:none" points="252.764,309.145 2352.76,309.145 "/>
<polyline clip-path="url(#clip482)" style="stroke:#000000; stroke-linecap:round; stroke-linejoin:round; stroke-width:2; stroke-opacity:0.1; fill:none" points="252.764,123.472 2352.76,123.472 "/>
<polyline clip-path="url(#clip480)" style="stroke:#000000; stroke-linecap:round; stroke-linejoin:round; stroke-width:4; stroke-opacity:1; fill:none" points="252.764,1423.18 252.764,123.472 "/>
<polyline clip-path="url(#clip480)" style="stroke:#000000; stroke-linecap:round; stroke-linejoin:round; stroke-width:4; stroke-opacity:1; fill:none" points="252.764,1423.18 271.662,1423.18 "/>
<polyline clip-path="url(#clip480)" style="stroke:#000000; stroke-linecap:round; stroke-linejoin:round; stroke-width:4; stroke-opacity:1; fill:none" points="252.764,1237.51 271.662,1237.51 "/>
<polyline clip-path="url(#clip480)" style="stroke:#000000; stroke-linecap:round; stroke-linejoin:round; stroke-width:4; stroke-opacity:1; fill:none" points="252.764,1051.83 271.662,1051.83 "/>
<polyline clip-path="url(#clip480)" style="stroke:#000000; stroke-linecap:round; stroke-linejoin:round; stroke-width:4; stroke-opacity:1; fill:none" points="252.764,866.162 271.662,866.162 "/>
<polyline clip-path="url(#clip480)" style="stroke:#000000; stroke-linecap:round; stroke-linejoin:round; stroke-width:4; stroke-opacity:1; fill:none" points="252.764,680.49 271.662,680.49 "/>
<polyline clip-path="url(#clip480)" style="stroke:#000000; stroke-linecap:round; stroke-linejoin:round; stroke-width:4; stroke-opacity:1; fill:none" points="252.764,494.817 271.662,494.817 "/>
<polyline clip-path="url(#clip480)" style="stroke:#000000; stroke-linecap:round; stroke-linejoin:round; stroke-width:4; stroke-opacity:1; fill:none" points="252.764,309.145 271.662,309.145 "/>
<polyline clip-path="url(#clip480)" style="stroke:#000000; stroke-linecap:round; stroke-linejoin:round; stroke-width:4; stroke-opacity:1; fill:none" points="252.764,123.472 271.662,123.472 "/>
<path clip-path="url(#clip480)" d="M116.06 1442.97 L123.699 1442.97 L123.699 1416.61 L115.389 1418.27 L115.389 1414.01 L123.652 1412.35 L128.328 1412.35 L128.328 1442.97 L135.967 1442.97 L135.967 1446.91 L116.06 1446.91 L116.06 1442.97 Z" fill="#000000" fill-rule="nonzero" fill-opacity="1" /><path clip-path="url(#clip480)" d="M155.412 1415.43 Q151.8 1415.43 149.972 1418.99 Q148.166 1422.53 148.166 1429.66 Q148.166 1436.77 149.972 1440.33 Q151.8 1443.88 155.412 1443.88 Q159.046 1443.88 160.851 1440.33 Q162.68 1436.77 162.68 1429.66 Q162.68 1422.53 160.851 1418.99 Q159.046 1415.43 155.412 1415.43 M155.412 1411.72 Q161.222 1411.72 164.277 1416.33 Q167.356 1420.91 167.356 1429.66 Q167.356 1438.39 164.277 1443 Q161.222 1447.58 155.412 1447.58 Q149.601 1447.58 146.523 1443 Q143.467 1438.39 143.467 1429.66 Q143.467 1420.91 146.523 1416.33 Q149.601 1411.72 155.412 1411.72 Z" fill="#000000" fill-rule="nonzero" fill-opacity="1" /><path clip-path="url(#clip480)" d="M167.356 1405.82 L191.467 1405.82 L191.467 1409.02 L167.356 1409.02 L167.356 1405.82 Z" fill="#000000" fill-rule="nonzero" fill-opacity="1" /><path clip-path="url(#clip480)" d="M198.708 1391.42 L216.764 1391.42 L216.764 1393.03 L206.57 1419.5 L202.602 1419.5 L212.194 1394.61 L198.708 1394.61 L198.708 1391.42 Z" fill="#000000" fill-rule="nonzero" fill-opacity="1" /><path clip-path="url(#clip480)" d="M115.195 1257.3 L122.834 1257.3 L122.834 1230.93 L114.523 1232.6 L114.523 1228.34 L122.787 1226.67 L127.463 1226.67 L127.463 1257.3 L135.102 1257.3 L135.102 1261.23 L115.195 1261.23 L115.195 1257.3 Z" fill="#000000" fill-rule="nonzero" fill-opacity="1" /><path clip-path="url(#clip480)" d="M154.546 1229.75 Q150.935 1229.75 149.107 1233.32 Q147.301 1236.86 147.301 1243.99 Q147.301 1251.1 149.107 1254.66 Q150.935 1258.2 154.546 1258.2 Q158.181 1258.2 159.986 1254.66 Q161.815 1251.1 161.815 1243.99 Q161.815 1236.86 159.986 1233.32 Q158.181 1229.75 154.546 1229.75 M154.546 1226.05 Q160.357 1226.05 163.412 1230.66 Q166.491 1235.24 166.491 1243.99 Q166.491 1252.72 163.412 1257.32 Q160.357 1261.91 154.546 1261.91 Q148.736 1261.91 145.658 1257.32 Q142.602 1252.72 142.602 1243.99 Q142.602 1235.24 145.658 1230.66 Q148.736 1226.05 154.546 1226.05 Z" fill="#000000" fill-rule="nonzero" fill-opacity="1" /><path clip-path="url(#clip480)" d="M166.491 1220.15 L190.602 1220.15 L190.602 1223.35 L166.491 1223.35 L166.491 1220.15 Z" fill="#000000" fill-rule="nonzero" fill-opacity="1" /><path clip-path="url(#clip480)" d="M207.398 1218.27 Q204.84 1218.27 203.335 1220.02 Q201.849 1221.77 201.849 1224.82 Q201.849 1227.84 203.335 1229.61 Q204.84 1231.36 207.398 1231.36 Q209.956 1231.36 211.441 1229.61 Q212.946 1227.84 212.946 1224.82 Q212.946 1221.77 211.441 1220.02 Q209.956 1218.27 207.398 1218.27 M214.94 1206.37 L214.94 1209.83 Q213.51 1209.15 212.043 1208.79 Q210.595 1208.43 209.166 1208.43 Q205.404 1208.43 203.41 1210.97 Q201.436 1213.51 201.153 1218.65 Q202.263 1217.01 203.937 1216.15 Q205.611 1215.26 207.623 1215.26 Q211.855 1215.26 214.3 1217.84 Q216.764 1220.4 216.764 1224.82 Q216.764 1229.14 214.206 1231.76 Q211.648 1234.37 207.398 1234.37 Q202.526 1234.37 199.95 1230.65 Q197.373 1226.9 197.373 1219.81 Q197.373 1213.15 200.533 1209.21 Q203.693 1205.24 209.015 1205.24 Q210.445 1205.24 211.893 1205.52 Q213.36 1205.8 214.94 1206.37 Z" fill="#000000" fill-rule="nonzero" fill-opacity="1" /><path clip-path="url(#clip480)" d="M116.135 1071.63 L123.774 1071.63 L123.774 1045.26 L115.464 1046.93 L115.464 1042.67 L123.728 1041 L128.404 1041 L128.404 1071.63 L136.042 1071.63 L136.042 1075.56 L116.135 1075.56 L116.135 1071.63 Z" fill="#000000" fill-rule="nonzero" fill-opacity="1" /><path clip-path="url(#clip480)" d="M155.487 1044.08 Q151.876 1044.08 150.047 1047.65 Q148.241 1051.19 148.241 1058.32 Q148.241 1065.42 150.047 1068.99 Q151.876 1072.53 155.487 1072.53 Q159.121 1072.53 160.927 1068.99 Q162.755 1065.42 162.755 1058.32 Q162.755 1051.19 160.927 1047.65 Q159.121 1044.08 155.487 1044.08 M155.487 1040.38 Q161.297 1040.38 164.352 1044.98 Q167.431 1049.57 167.431 1058.32 Q167.431 1067.04 164.352 1071.65 Q161.297 1076.23 155.487 1076.23 Q149.677 1076.23 146.598 1071.65 Q143.542 1067.04 143.542 1058.32 Q143.542 1049.57 146.598 1044.98 Q149.677 1040.38 155.487 1040.38 Z" fill="#000000" fill-rule="nonzero" fill-opacity="1" /><path clip-path="url(#clip480)" d="M167.431 1034.48 L191.543 1034.48 L191.543 1037.68 L167.431 1037.68 L167.431 1034.48 Z" fill="#000000" fill-rule="nonzero" fill-opacity="1" /><path clip-path="url(#clip480)" d="M199.781 1020.07 L214.695 1020.07 L214.695 1023.27 L203.26 1023.27 L203.26 1030.15 Q204.088 1029.87 204.915 1029.74 Q205.743 1029.59 206.57 1029.59 Q211.272 1029.59 214.018 1032.17 Q216.764 1034.74 216.764 1039.14 Q216.764 1043.68 213.943 1046.2 Q211.122 1048.7 205.987 1048.7 Q204.219 1048.7 202.376 1048.4 Q200.552 1048.1 198.596 1047.49 L198.596 1043.68 Q200.288 1044.6 202.094 1045.05 Q203.899 1045.5 205.912 1045.5 Q209.166 1045.5 211.065 1043.79 Q212.965 1042.08 212.965 1039.14 Q212.965 1036.21 211.065 1034.5 Q209.166 1032.79 205.912 1032.79 Q204.388 1032.79 202.865 1033.12 Q201.36 1033.46 199.781 1034.18 L199.781 1020.07 Z" fill="#000000" fill-rule="nonzero" fill-opacity="1" /><path clip-path="url(#clip480)" d="M114.931 885.955 L122.57 885.955 L122.57 859.589 L114.26 861.256 L114.26 856.997 L122.524 855.33 L127.2 855.33 L127.2 885.955 L134.839 885.955 L134.839 889.89 L114.931 889.89 L114.931 885.955 Z" fill="#000000" fill-rule="nonzero" fill-opacity="1" /><path clip-path="url(#clip480)" d="M154.283 858.409 Q150.672 858.409 148.843 861.973 Q147.038 865.515 147.038 872.645 Q147.038 879.751 148.843 883.316 Q150.672 886.857 154.283 886.857 Q157.917 886.857 159.723 883.316 Q161.552 879.751 161.552 872.645 Q161.552 865.515 159.723 861.973 Q157.917 858.409 154.283 858.409 M154.283 854.705 Q160.093 854.705 163.149 859.311 Q166.227 863.895 166.227 872.645 Q166.227 881.371 163.149 885.978 Q160.093 890.561 154.283 890.561 Q148.473 890.561 145.394 885.978 Q142.339 881.371 142.339 872.645 Q142.339 863.895 145.394 859.311 Q148.473 854.705 154.283 854.705 Z" fill="#000000" fill-rule="nonzero" fill-opacity="1" /><path clip-path="url(#clip480)" d="M166.227 848.806 L190.339 848.806 L190.339 852.004 L166.227 852.004 L166.227 848.806 Z" fill="#000000" fill-rule="nonzero" fill-opacity="1" /><path clip-path="url(#clip480)" d="M208.978 837.71 L199.386 852.699 L208.978 852.699 L208.978 837.71 M207.981 834.399 L212.758 834.399 L212.758 852.699 L216.764 852.699 L216.764 855.859 L212.758 855.859 L212.758 862.479 L208.978 862.479 L208.978 855.859 L196.301 855.859 L196.301 852.192 L207.981 834.399 Z" fill="#000000" fill-rule="nonzero" fill-opacity="1" /><path clip-path="url(#clip480)" d="M115.853 700.282 L123.492 700.282 L123.492 673.917 L115.182 675.583 L115.182 671.324 L123.446 669.657 L128.121 669.657 L128.121 700.282 L135.76 700.282 L135.76 704.217 L115.853 704.217 L115.853 700.282 Z" fill="#000000" fill-rule="nonzero" fill-opacity="1" /><path clip-path="url(#clip480)" d="M155.205 672.736 Q151.594 672.736 149.765 676.301 Q147.959 679.842 147.959 686.972 Q147.959 694.078 149.765 697.643 Q151.594 701.185 155.205 701.185 Q158.839 701.185 160.644 697.643 Q162.473 694.078 162.473 686.972 Q162.473 679.842 160.644 676.301 Q158.839 672.736 155.205 672.736 M155.205 669.032 Q161.015 669.032 164.07 673.639 Q167.149 678.222 167.149 686.972 Q167.149 695.699 164.07 700.305 Q161.015 704.889 155.205 704.889 Q149.395 704.889 146.316 700.305 Q143.26 695.699 143.26 686.972 Q143.26 678.222 146.316 673.639 Q149.395 669.032 155.205 669.032 Z" fill="#000000" fill-rule="nonzero" fill-opacity="1" /><path clip-path="url(#clip480)" d="M167.149 663.134 L191.261 663.134 L191.261 666.331 L167.149 666.331 L167.149 663.134 Z" fill="#000000" fill-rule="nonzero" fill-opacity="1" /><path clip-path="url(#clip480)" d="M210.971 661.667 Q213.698 662.25 215.222 664.093 Q216.764 665.936 216.764 668.644 Q216.764 672.801 213.905 675.077 Q211.046 677.352 205.78 677.352 Q204.012 677.352 202.132 676.995 Q200.27 676.656 198.276 675.961 L198.276 672.293 Q199.856 673.215 201.737 673.685 Q203.617 674.155 205.667 674.155 Q209.241 674.155 211.103 672.744 Q212.984 671.334 212.984 668.644 Q212.984 666.162 211.234 664.77 Q209.504 663.359 206.401 663.359 L203.128 663.359 L203.128 660.237 L206.551 660.237 Q209.354 660.237 210.84 659.128 Q212.325 657.999 212.325 655.893 Q212.325 653.73 210.783 652.583 Q209.26 651.416 206.401 651.416 Q204.84 651.416 203.053 651.755 Q201.266 652.094 199.122 652.808 L199.122 649.423 Q201.285 648.821 203.166 648.52 Q205.066 648.219 206.739 648.219 Q211.065 648.219 213.585 650.194 Q216.106 652.15 216.106 655.498 Q216.106 657.83 214.77 659.447 Q213.435 661.046 210.971 661.667 Z" fill="#000000" fill-rule="nonzero" fill-opacity="1" /><path clip-path="url(#clip480)" d="M116.624 514.61 L124.263 514.61 L124.263 488.244 L115.953 489.911 L115.953 485.651 L124.217 483.985 L128.893 483.985 L128.893 514.61 L136.531 514.61 L136.531 518.545 L116.624 518.545 L116.624 514.61 Z" fill="#000000" fill-rule="nonzero" fill-opacity="1" /><path clip-path="url(#clip480)" d="M155.976 487.063 Q152.365 487.063 150.536 490.628 Q148.73 494.17 148.73 501.3 Q148.73 508.406 150.536 511.971 Q152.365 515.512 155.976 515.512 Q159.61 515.512 161.416 511.971 Q163.244 508.406 163.244 501.3 Q163.244 494.17 161.416 490.628 Q159.61 487.063 155.976 487.063 M155.976 483.36 Q161.786 483.36 164.841 487.966 Q167.92 492.55 167.92 501.3 Q167.92 510.026 164.841 514.633 Q161.786 519.216 155.976 519.216 Q150.166 519.216 147.087 514.633 Q144.031 510.026 144.031 501.3 Q144.031 492.55 147.087 487.966 Q150.166 483.36 155.976 483.36 Z" fill="#000000" fill-rule="nonzero" fill-opacity="1" /><path clip-path="url(#clip480)" d="M167.92 477.461 L192.032 477.461 L192.032 480.658 L167.92 480.658 L167.92 477.461 Z" fill="#000000" fill-rule="nonzero" fill-opacity="1" /><path clip-path="url(#clip480)" d="M203.504 487.937 L216.764 487.937 L216.764 491.134 L198.934 491.134 L198.934 487.937 Q201.097 485.699 204.821 481.937 Q208.564 478.157 209.523 477.066 Q211.347 475.016 212.062 473.606 Q212.796 472.176 212.796 470.803 Q212.796 468.565 211.216 467.154 Q209.655 465.744 207.134 465.744 Q205.348 465.744 203.354 466.365 Q201.379 466.985 199.122 468.245 L199.122 464.409 Q201.417 463.487 203.41 463.017 Q205.404 462.547 207.059 462.547 Q211.423 462.547 214.018 464.728 Q216.613 466.91 216.613 470.559 Q216.613 472.289 215.955 473.85 Q215.316 475.392 213.604 477.499 Q213.134 478.044 210.614 480.658 Q208.094 483.254 203.504 487.937 Z" fill="#000000" fill-rule="nonzero" fill-opacity="1" /><path clip-path="url(#clip480)" d="M116.323 328.937 L123.962 328.937 L123.962 302.571 L115.652 304.238 L115.652 299.979 L123.916 298.312 L128.592 298.312 L128.592 328.937 L136.231 328.937 L136.231 332.872 L116.323 332.872 L116.323 328.937 Z" fill="#000000" fill-rule="nonzero" fill-opacity="1" /><path clip-path="url(#clip480)" d="M155.675 301.391 Q152.064 301.391 150.235 304.956 Q148.43 308.497 148.43 315.627 Q148.43 322.733 150.235 326.298 Q152.064 329.84 155.675 329.84 Q159.309 329.84 161.115 326.298 Q162.943 322.733 162.943 315.627 Q162.943 308.497 161.115 304.956 Q159.309 301.391 155.675 301.391 M155.675 297.687 Q161.485 297.687 164.541 302.294 Q167.619 306.877 167.619 315.627 Q167.619 324.354 164.541 328.96 Q161.485 333.544 155.675 333.544 Q149.865 333.544 146.786 328.96 Q143.73 324.354 143.73 315.627 Q143.73 306.877 146.786 302.294 Q149.865 297.687 155.675 297.687 Z" fill="#000000" fill-rule="nonzero" fill-opacity="1" /><path clip-path="url(#clip480)" d="M167.619 291.789 L191.731 291.789 L191.731 294.986 L167.619 294.986 L167.619 291.789 Z" fill="#000000" fill-rule="nonzero" fill-opacity="1" /><path clip-path="url(#clip480)" d="M200.589 302.265 L206.796 302.265 L206.796 280.842 L200.044 282.197 L200.044 278.736 L206.758 277.382 L210.557 277.382 L210.557 302.265 L216.764 302.265 L216.764 305.462 L200.589 305.462 L200.589 302.265 Z" fill="#000000" fill-rule="nonzero" fill-opacity="1" /><path clip-path="url(#clip480)" d="M146.058 143.265 L153.697 143.265 L153.697 116.899 L145.387 118.566 L145.387 114.306 L153.651 112.64 L158.327 112.64 L158.327 143.265 L165.966 143.265 L165.966 147.2 L146.058 147.2 L146.058 143.265 Z" fill="#000000" fill-rule="nonzero" fill-opacity="1" /><path clip-path="url(#clip480)" d="M185.41 115.718 Q181.799 115.718 179.97 119.283 Q178.165 122.825 178.165 129.954 Q178.165 137.061 179.97 140.626 Q181.799 144.167 185.41 144.167 Q189.044 144.167 190.85 140.626 Q192.678 137.061 192.678 129.954 Q192.678 122.825 190.85 119.283 Q189.044 115.718 185.41 115.718 M185.41 112.015 Q191.22 112.015 194.276 116.621 Q197.354 121.204 197.354 129.954 Q197.354 138.681 194.276 143.288 Q191.22 147.871 185.41 147.871 Q179.6 147.871 176.521 143.288 Q173.466 138.681 173.466 129.954 Q173.466 121.204 176.521 116.621 Q179.6 112.015 185.41 112.015 Z" fill="#000000" fill-rule="nonzero" fill-opacity="1" /><path clip-path="url(#clip480)" d="M207.059 94.2108 Q204.125 94.2108 202.639 97.1072 Q201.172 99.9847 201.172 105.778 Q201.172 111.552 202.639 114.448 Q204.125 117.326 207.059 117.326 Q210.012 117.326 211.479 114.448 Q212.965 111.552 212.965 105.778 Q212.965 99.9847 211.479 97.1072 Q210.012 94.2108 207.059 94.2108 M207.059 91.2015 Q211.78 91.2015 214.263 94.9443 Q216.764 98.6682 216.764 105.778 Q216.764 112.868 214.263 116.611 Q211.78 120.335 207.059 120.335 Q202.338 120.335 199.837 116.611 Q197.354 112.868 197.354 105.778 Q197.354 98.6682 199.837 94.9443 Q202.338 91.2015 207.059 91.2015 Z" fill="#000000" fill-rule="nonzero" fill-opacity="1" /><path clip-path="url(#clip480)" d="M41.3104 828.358 L58.7206 828.358 L58.7206 818.045 Q58.7206 812.857 56.5881 810.374 Q54.4238 807.86 49.9996 807.86 Q45.5436 807.86 43.4429 810.374 Q41.3104 812.857 41.3104 818.045 L41.3104 828.358 M21.7677 828.358 L36.0905 828.358 L36.0905 818.841 Q36.0905 814.13 34.34 811.839 Q32.5576 809.515 28.9291 809.515 Q25.3325 809.515 23.5501 811.839 Q21.7677 814.13 21.7677 818.841 L21.7677 828.358 M16.4842 834.787 L16.4842 818.363 Q16.4842 811.011 19.5397 807.032 Q22.5952 803.054 28.2289 803.054 Q32.5894 803.054 35.1675 805.091 Q37.7456 807.128 38.3822 811.075 Q39.4007 806.332 42.6472 803.722 Q45.8619 801.08 50.6998 801.08 Q57.0655 801.08 60.5348 805.409 Q64.0042 809.738 64.0042 817.727 L64.0042 834.787 L16.4842 834.787 Z" fill="#000000" fill-rule="nonzero" fill-opacity="1" /><path clip-path="url(#clip480)" d="M16.4842 790.068 L16.4842 760.022 L21.895 760.022 L21.895 783.638 L35.9632 783.638 L35.9632 761.008 L41.3741 761.008 L41.3741 783.638 L58.5933 783.638 L58.5933 759.449 L64.0042 759.449 L64.0042 790.068 L16.4842 790.068 Z" fill="#000000" fill-rule="nonzero" fill-opacity="1" /><path clip-path="url(#clip480)" d="M41.7242 726.347 Q42.4244 724.278 44.7161 722.337 Q47.0077 720.363 51.0181 718.39 L64.0042 711.865 L64.0042 718.772 L51.8138 724.851 Q47.0395 727.206 45.48 729.434 Q43.9204 731.631 43.9204 735.45 L43.9204 742.452 L64.0042 742.452 L64.0042 748.882 L16.4842 748.882 L16.4842 734.368 Q16.4842 726.22 19.8898 722.209 Q23.2955 718.199 30.1704 718.199 Q34.6582 718.199 37.6183 720.3 Q40.5784 722.369 41.7242 726.347 M21.7677 742.452 L38.6368 742.452 L38.6368 734.368 Q38.6368 729.721 36.5043 727.366 Q34.34 724.978 30.1704 724.978 Q26.0009 724.978 23.9002 727.366 Q21.7677 729.721 21.7677 734.368 L21.7677 742.452 Z" fill="#000000" fill-rule="nonzero" fill-opacity="1" /><path clip-path="url(#clip480)" d="M878.651 43.6931 L878.651 65.8515 L891.775 65.8515 Q898.378 65.8515 901.538 63.1374 Q904.738 60.3828 904.738 54.752 Q904.738 49.0808 901.538 46.4072 Q898.378 43.6931 891.775 43.6931 L878.651 43.6931 M878.651 18.8205 L878.651 37.0496 L890.763 37.0496 Q896.758 37.0496 899.675 34.8216 Q902.632 32.5531 902.632 27.935 Q902.632 23.3575 899.675 21.089 Q896.758 18.8205 890.763 18.8205 L878.651 18.8205 M870.468 12.096 L891.37 12.096 Q900.728 12.096 905.792 15.9849 Q910.855 19.8737 910.855 27.0438 Q910.855 32.5936 908.263 35.8748 Q905.67 39.156 900.647 39.9662 Q906.683 41.2625 910.005 45.3944 Q913.367 49.4858 913.367 55.6432 Q913.367 63.745 907.858 68.1605 Q902.348 72.576 892.181 72.576 L870.468 72.576 L870.468 12.096 Z" fill="#000000" fill-rule="nonzero" fill-opacity="1" /><path clip-path="url(#clip480)" d="M927.059 27.2059 L934.512 27.2059 L934.512 72.576 L927.059 72.576 L927.059 27.2059 M927.059 9.54393 L934.512 9.54393 L934.512 18.9825 L927.059 18.9825 L927.059 9.54393 Z" fill="#000000" fill-rule="nonzero" fill-opacity="1" /><path clip-path="url(#clip480)" d="M957.481 14.324 L957.481 27.2059 L972.834 27.2059 L972.834 32.9987 L957.481 32.9987 L957.481 57.6282 Q957.481 63.1779 958.98 64.7578 Q960.519 66.3376 965.178 66.3376 L972.834 66.3376 L972.834 72.576 L965.178 72.576 Q956.549 72.576 953.268 69.3758 Q949.987 66.1351 949.987 57.6282 L949.987 32.9987 L944.518 32.9987 L944.518 27.2059 L949.987 27.2059 L949.987 14.324 L957.481 14.324 Z" fill="#000000" fill-rule="nonzero" fill-opacity="1" /><path clip-path="url(#clip480)" d="M1009.33 12.096 L1047.57 12.096 L1047.57 18.9825 L1017.52 18.9825 L1017.52 36.8875 L1046.32 36.8875 L1046.32 43.7741 L1017.52 43.7741 L1017.52 65.6895 L1048.3 65.6895 L1048.3 72.576 L1009.33 72.576 L1009.33 12.096 Z" fill="#000000" fill-rule="nonzero" fill-opacity="1" /><path clip-path="url(#clip480)" d="M1087.72 34.1734 Q1086.46 33.4443 1084.96 33.1202 Q1083.5 32.7556 1081.72 32.7556 Q1075.4 32.7556 1072 36.8875 Q1068.64 40.9789 1068.64 48.6757 L1068.64 72.576 L1061.14 72.576 L1061.14 27.2059 L1068.64 27.2059 L1068.64 34.2544 Q1070.99 30.1225 1074.75 28.1376 Q1078.52 26.1121 1083.91 26.1121 Q1084.68 26.1121 1085.61 26.2337 Q1086.54 26.3147 1087.68 26.5172 L1087.72 34.1734 Z" fill="#000000" fill-rule="nonzero" fill-opacity="1" /><path clip-path="url(#clip480)" d="M1120.37 34.1734 Q1119.11 33.4443 1117.61 33.1202 Q1116.16 32.7556 1114.37 32.7556 Q1108.05 32.7556 1104.65 36.8875 Q1101.29 40.9789 1101.29 48.6757 L1101.29 72.576 L1093.79 72.576 L1093.79 27.2059 L1101.29 27.2059 L1101.29 34.2544 Q1103.64 30.1225 1107.41 28.1376 Q1111.17 26.1121 1116.56 26.1121 Q1117.33 26.1121 1118.26 26.2337 Q1119.19 26.3147 1120.33 26.5172 L1120.37 34.1734 Z" fill="#000000" fill-rule="nonzero" fill-opacity="1" /><path clip-path="url(#clip480)" d="M1143.94 32.4315 Q1137.95 32.4315 1134.47 37.1306 Q1130.98 41.7891 1130.98 49.9314 Q1130.98 58.0738 1134.42 62.7728 Q1137.91 67.4314 1143.94 67.4314 Q1149.9 67.4314 1153.38 62.7323 Q1156.87 58.0333 1156.87 49.9314 Q1156.87 41.8701 1153.38 37.1711 Q1149.9 32.4315 1143.94 32.4315 M1143.94 26.1121 Q1153.67 26.1121 1159.22 32.4315 Q1164.77 38.7509 1164.77 49.9314 Q1164.77 61.0714 1159.22 67.4314 Q1153.67 73.7508 1143.94 73.7508 Q1134.18 73.7508 1128.63 67.4314 Q1123.12 61.0714 1123.12 49.9314 Q1123.12 38.7509 1128.63 32.4315 Q1134.18 26.1121 1143.94 26.1121 Z" fill="#000000" fill-rule="nonzero" fill-opacity="1" /><path clip-path="url(#clip480)" d="M1203.41 34.1734 Q1202.16 33.4443 1200.66 33.1202 Q1199.2 32.7556 1197.42 32.7556 Q1191.1 32.7556 1187.69 36.8875 Q1184.33 40.9789 1184.33 48.6757 L1184.33 72.576 L1176.84 72.576 L1176.84 27.2059 L1184.33 27.2059 L1184.33 34.2544 Q1186.68 30.1225 1190.45 28.1376 Q1194.22 26.1121 1199.6 26.1121 Q1200.37 26.1121 1201.31 26.2337 Q1202.24 26.3147 1203.37 26.5172 L1203.41 34.1734 Z" fill="#000000" fill-rule="nonzero" fill-opacity="1" /><path clip-path="url(#clip480)" d="M1266.61 44.2197 Q1269.24 45.1109 1271.71 48.0275 Q1274.22 50.9442 1276.73 56.0483 L1285.04 72.576 L1276.25 72.576 L1268.51 57.061 Q1265.51 50.9847 1262.68 48.9997 Q1259.88 47.0148 1255.02 47.0148 L1246.11 47.0148 L1246.11 72.576 L1237.93 72.576 L1237.93 12.096 L1256.4 12.096 Q1266.77 12.096 1271.87 16.4305 Q1276.98 20.7649 1276.98 29.5149 Q1276.98 35.2267 1274.3 38.994 Q1271.67 42.7613 1266.61 44.2197 M1246.11 18.8205 L1246.11 40.2903 L1256.4 40.2903 Q1262.31 40.2903 1265.31 37.5762 Q1268.35 34.8216 1268.35 29.5149 Q1268.35 24.2082 1265.31 21.5346 Q1262.31 18.8205 1256.4 18.8205 L1246.11 18.8205 Z" fill="#000000" fill-rule="nonzero" fill-opacity="1" /><path clip-path="url(#clip480)" d="M1314.04 49.7694 Q1305.01 49.7694 1301.52 51.8354 Q1298.04 53.9013 1298.04 58.8839 Q1298.04 62.8538 1300.63 65.2034 Q1303.27 67.5124 1307.76 67.5124 Q1313.96 67.5124 1317.69 63.1374 Q1321.45 58.7219 1321.45 51.4303 L1321.45 49.7694 L1314.04 49.7694 M1328.91 46.6907 L1328.91 72.576 L1321.45 72.576 L1321.45 65.6895 Q1318.9 69.8214 1315.09 71.8063 Q1311.29 73.7508 1305.78 73.7508 Q1298.81 73.7508 1294.68 69.8619 Q1290.59 65.9325 1290.59 59.3701 Q1290.59 51.7138 1295.69 47.825 Q1300.84 43.9361 1311 43.9361 L1321.45 43.9361 L1321.45 43.2069 Q1321.45 38.0623 1318.05 35.2672 Q1314.69 32.4315 1308.57 32.4315 Q1304.68 32.4315 1301 33.3632 Q1297.31 34.295 1293.91 36.1584 L1293.91 29.2718 Q1298 27.692 1301.85 26.9223 Q1305.7 26.1121 1309.34 26.1121 Q1319.19 26.1121 1324.05 31.2163 Q1328.91 36.3204 1328.91 46.6907 Z" fill="#000000" fill-rule="nonzero" fill-opacity="1" /><path clip-path="url(#clip480)" d="M1351.63 14.324 L1351.63 27.2059 L1366.99 27.2059 L1366.99 32.9987 L1351.63 32.9987 L1351.63 57.6282 Q1351.63 63.1779 1353.13 64.7578 Q1354.67 66.3376 1359.33 66.3376 L1366.99 66.3376 L1366.99 72.576 L1359.33 72.576 Q1350.7 72.576 1347.42 69.3758 Q1344.14 66.1351 1344.14 57.6282 L1344.14 32.9987 L1338.67 32.9987 L1338.67 27.2059 L1344.14 27.2059 L1344.14 14.324 L1351.63 14.324 Z" fill="#000000" fill-rule="nonzero" fill-opacity="1" /><path clip-path="url(#clip480)" d="M1415.6 48.0275 L1415.6 51.6733 L1381.33 51.6733 Q1381.81 59.3701 1385.95 63.421 Q1390.12 67.4314 1397.53 67.4314 Q1401.82 67.4314 1405.84 66.3781 Q1409.89 65.3249 1413.86 63.2184 L1413.86 70.267 Q1409.85 71.9684 1405.63 72.8596 Q1401.42 73.7508 1397.09 73.7508 Q1386.23 73.7508 1379.87 67.4314 Q1373.55 61.1119 1373.55 50.3365 Q1373.55 39.1965 1379.54 32.6746 Q1385.58 26.1121 1395.79 26.1121 Q1404.94 26.1121 1410.25 32.0264 Q1415.6 37.9003 1415.6 48.0275 M1408.14 45.84 Q1408.06 39.7232 1404.7 36.0774 Q1401.38 32.4315 1395.87 32.4315 Q1389.63 32.4315 1385.86 35.9558 Q1382.14 39.4801 1381.57 45.8805 L1408.14 45.84 Z" fill="#000000" fill-rule="nonzero" fill-opacity="1" /><path clip-path="url(#clip480)" d="M1448.86 27.2059 L1456.76 27.2059 L1470.93 65.2844 L1485.11 27.2059 L1493.01 27.2059 L1476 72.576 L1465.87 72.576 L1448.86 27.2059 Z" fill="#000000" fill-rule="nonzero" fill-opacity="1" /><path clip-path="url(#clip480)" d="M1532.22 28.5427 L1532.22 35.5912 Q1529.06 33.9709 1525.66 33.1607 Q1522.26 32.3505 1518.61 32.3505 Q1513.06 32.3505 1510.27 34.0519 Q1507.51 35.7533 1507.51 39.156 Q1507.51 41.7486 1509.5 43.2475 Q1511.48 44.7058 1517.48 46.0426 L1520.03 46.6097 Q1527.97 48.3111 1531.29 51.4303 Q1534.65 54.509 1534.65 60.0587 Q1534.65 66.3781 1529.63 70.0644 Q1524.65 73.7508 1515.9 73.7508 Q1512.25 73.7508 1508.28 73.0216 Q1504.35 72.3329 1499.98 70.9151 L1499.98 63.2184 Q1504.11 65.3654 1508.12 66.4591 Q1512.13 67.5124 1516.06 67.5124 Q1521.33 67.5124 1524.16 65.73 Q1527 63.9071 1527 60.6258 Q1527 57.5877 1524.93 55.9673 Q1522.91 54.3469 1515.98 52.8481 L1513.39 52.2405 Q1506.46 50.7821 1503.38 47.7845 Q1500.3 44.7463 1500.3 39.4801 Q1500.3 33.0797 1504.84 29.5959 Q1509.38 26.1121 1517.72 26.1121 Q1521.85 26.1121 1525.5 26.7198 Q1529.14 27.3274 1532.22 28.5427 Z" fill="#000000" fill-rule="nonzero" fill-opacity="1" /><path clip-path="url(#clip480)" d="M1609.47 14.0809 L1609.47 22.0612 Q1604.82 19.8332 1600.68 18.7395 Q1596.55 17.6457 1592.7 17.6457 Q1586.02 17.6457 1582.37 20.2383 Q1578.77 22.8309 1578.77 27.611 Q1578.77 31.6214 1581.16 33.6873 Q1583.59 35.7128 1590.31 36.9686 L1595.26 37.9813 Q1604.41 39.7232 1608.74 44.1387 Q1613.12 48.5136 1613.12 55.8863 Q1613.12 64.6767 1607.21 69.2137 Q1601.33 73.7508 1589.95 73.7508 Q1585.65 73.7508 1580.79 72.7785 Q1575.97 71.8063 1570.79 69.9024 L1570.79 61.4765 Q1575.77 64.2716 1580.55 65.6895 Q1585.33 67.1073 1589.95 67.1073 Q1596.96 67.1073 1600.76 64.3527 Q1604.57 61.598 1604.57 56.4939 Q1604.57 52.0379 1601.82 49.5264 Q1599.1 47.0148 1592.87 45.759 L1587.88 44.7868 Q1578.73 42.9639 1574.64 39.075 Q1570.54 35.1862 1570.54 28.2591 Q1570.54 20.2383 1576.18 15.6203 Q1581.85 11.0023 1591.77 11.0023 Q1596.03 11.0023 1600.44 11.7719 Q1604.86 12.5416 1609.47 14.0809 Z" fill="#000000" fill-rule="nonzero" fill-opacity="1" /><path clip-path="url(#clip480)" d="M1625.88 12.096 L1636.9 12.096 L1663.72 62.6918 L1663.72 12.096 L1671.66 12.096 L1671.66 72.576 L1660.64 72.576 L1633.82 21.9802 L1633.82 72.576 L1625.88 72.576 L1625.88 12.096 Z" fill="#000000" fill-rule="nonzero" fill-opacity="1" /><path clip-path="url(#clip480)" d="M1716.62 44.2197 Q1719.25 45.1109 1721.72 48.0275 Q1724.24 50.9442 1726.75 56.0483 L1735.05 72.576 L1726.26 72.576 L1718.52 57.061 Q1715.53 50.9847 1712.69 48.9997 Q1709.9 47.0148 1705.03 47.0148 L1696.12 47.0148 L1696.12 72.576 L1687.94 72.576 L1687.94 12.096 L1706.41 12.096 Q1716.78 12.096 1721.89 16.4305 Q1726.99 20.7649 1726.99 29.5149 Q1726.99 35.2267 1724.32 38.994 Q1721.68 42.7613 1716.62 44.2197 M1696.12 18.8205 L1696.12 40.2903 L1706.41 40.2903 Q1712.33 40.2903 1715.32 37.5762 Q1718.36 34.8216 1718.36 29.5149 Q1718.36 24.2082 1715.32 21.5346 Q1712.33 18.8205 1706.41 18.8205 L1696.12 18.8205 Z" fill="#000000" fill-rule="nonzero" fill-opacity="1" /><polyline clip-path="url(#clip482)" style="stroke:#009af9; stroke-linecap:round; stroke-linejoin:round; stroke-width:4; stroke-opacity:1; fill:none" points="312.198,179.365 315.028,195.067 317.858,202.366 320.688,208.295 323.518,213.518 326.349,218.294 329.179,222.752 332.009,226.972 334.839,231.004 337.669,234.882 340.499,238.634 343.33,242.277 346.16,245.827 348.99,249.296 351.82,252.692 354.65,256.025 357.481,259.3 360.311,262.524 363.141,265.7 365.971,268.832 368.801,271.926 371.631,274.983 374.462,278.005 377.292,280.997 380.122,283.959 382.952,286.894 385.782,289.803 388.612,292.689 391.443,295.551 394.273,298.392 397.103,301.213 399.933,304.015 402.763,306.799 405.594,309.565 408.424,312.316 411.254,315.05 414.084,317.769 416.914,320.475 419.744,323.166 422.575,325.845 425.405,328.511 428.235,331.165 431.065,333.807 433.895,336.439 436.726,339.06 439.556,341.67 442.386,344.271 445.216,346.862 448.046,349.444 450.876,352.016 453.707,354.581 456.537,357.137 459.367,359.685 462.197,362.225 465.027,364.757 467.857,367.283 470.688,369.801 473.518,372.312 476.348,374.816 479.178,377.314 482.008,379.806 484.839,382.292 487.669,384.771 490.499,387.245 493.329,389.713 496.159,392.175 498.989,394.633 501.82,397.084 504.65,399.531 507.48,401.973 510.31,404.41 513.14,406.842 515.97,409.27 518.801,411.693 521.631,414.111 524.461,416.525 527.291,418.935 530.121,421.341 532.952,423.743 535.782,426.141 538.612,428.535 541.442,430.925 544.272,433.312 547.102,435.695 549.933,438.074 552.763,440.45 555.593,442.822 558.423,445.191 561.253,447.557 564.084,449.92 566.914,452.279 569.744,454.635 572.574,456.988 575.404,459.339 578.234,461.686 581.065,464.03 583.895,466.372 586.725,468.711 589.555,471.047 592.385,473.38 595.215,475.711 598.046,478.039 600.876,480.365 603.706,482.688 606.536,485.009 609.366,487.327 612.197,489.643 615.027,491.956 617.857,494.268 620.687,496.577 623.517,498.883 626.347,501.188 629.178,503.49 632.008,505.791 634.838,508.089 637.668,510.385 640.498,512.679 643.328,514.971 646.159,517.261 648.989,519.549 651.819,521.835 654.649,524.12 657.479,526.402 660.31,528.683 663.14,530.962 665.97,533.239 668.8,535.514 671.63,537.788 674.46,540.059 677.291,542.33 680.121,544.598 682.951,546.865 685.781,549.13 688.611,551.394 691.442,553.656 694.272,555.916 697.102,558.175 699.932,560.433 702.762,562.689 705.592,564.943 708.423,567.196 711.253,569.448 714.083,571.698 716.913,573.947 719.743,576.194 722.573,578.44 725.404,580.685 728.234,582.928 731.064,585.17 733.894,587.41 736.724,589.65 739.555,591.888 742.385,594.125 745.215,596.36 748.045,598.595 750.875,600.828 753.705,603.06 756.536,605.29 759.366,607.52 762.196,609.748 765.026,611.976 767.856,614.202 770.686,616.427 773.517,618.65 776.347,620.873 779.177,623.095 782.007,625.315 784.837,627.535 787.668,629.753 790.498,631.971 793.328,634.187 796.158,636.403 798.988,638.617 801.818,640.83 804.649,643.043 807.479,645.254 810.309,647.464 813.139,649.674 815.969,651.882 818.8,654.09 821.63,656.296 824.46,658.502 827.29,660.707 830.12,662.911 832.95,665.114 835.781,667.316 838.611,669.517 841.441,671.717 844.271,673.917 847.101,676.115 849.931,678.313 852.762,680.51 855.592,682.706 858.422,684.901 861.252,687.096 864.082,689.29 866.913,691.482 869.743,693.675 872.573,695.866 875.403,698.056 878.233,700.246 881.063,702.435 883.894,704.623 886.724,706.811 889.554,708.997 892.384,711.183 895.214,713.369 898.044,715.553 900.875,717.737 903.705,719.92 906.535,722.102 909.365,724.284 912.195,726.465 915.026,728.645 917.856,730.825 920.686,733.004 923.516,735.182 926.346,737.36 929.176,739.537 932.007,741.713 934.837,743.889 937.667,746.064 940.497,748.238 943.327,750.412 946.158,752.585 948.988,754.757 951.818,756.929 954.648,759.1 957.478,761.271 960.308,763.441 963.139,765.61 965.969,767.779 968.799,769.947 971.629,772.115 974.459,774.282 977.289,776.449 980.12,778.614 982.95,780.78 985.78,782.945 988.61,785.109 991.44,787.273 994.271,789.436 997.101,791.598 999.931,793.76 1002.76,795.922 1005.59,798.083 1008.42,800.243 1011.25,802.403 1014.08,804.563 1016.91,806.721 1019.74,808.88 1022.57,811.038 1025.4,813.195 1028.23,815.352 1031.06,817.508 1033.89,819.664 1036.72,821.819 1039.55,823.974 1042.38,826.129 1045.21,828.283 1048.04,830.436 1050.87,832.589 1053.7,834.741 1056.53,836.893 1059.36,839.045 1062.19,841.196 1065.02,843.347 1067.86,845.497 1070.69,847.647 1073.52,849.796 1076.35,851.945 1079.18,854.093 1082.01,856.241 1084.84,858.388 1087.67,860.535 1090.5,862.682 1093.33,864.828 1096.16,866.974 1098.99,869.119 1101.82,871.264 1104.65,873.409 1107.48,875.553 1110.31,877.697 1113.14,879.84 1115.97,881.983 1118.8,884.125 1121.63,886.267 1124.46,888.409 1127.29,890.55 1130.12,892.691 1132.95,894.831 1135.78,896.972 1138.61,899.111 1141.44,901.251 1144.27,903.389 1147.1,905.528 1149.93,907.666 1152.76,909.804 1155.59,911.941 1158.42,914.078 1161.25,916.215 1164.08,918.352 1166.91,920.487 1169.74,922.623 1172.57,924.758 1175.4,926.893 1178.23,929.028 1181.06,931.162 1183.89,933.296 1186.72,935.429 1189.55,937.562 1192.38,939.695 1195.21,941.828 1198.04,943.96 1200.87,946.091 1203.7,948.223 1206.53,950.354 1209.36,952.485 1212.19,954.615 1215.02,956.745 1217.85,958.875 1220.68,961.004 1223.51,963.134 1226.35,965.262 1229.18,967.391 1232.01,969.519 1234.84,971.647 1237.67,973.774 1240.5,975.902 1243.33,978.029 1246.16,980.155 1248.99,982.282 1251.82,984.408 1254.65,986.533 1257.48,988.659 1260.31,990.784 1263.14,992.909 1265.97,995.033 1268.8,997.157 1271.63,999.281 1274.46,1001.4 1277.29,1003.53 1280.12,1005.65 1282.95,1007.77 1285.78,1009.9 1288.61,1012.02 1291.44,1014.14 1294.27,1016.26 1297.1,1018.38 1299.93,1020.5 1302.76,1022.63 1305.59,1024.75 1308.42,1026.87 1311.25,1028.99 1314.08,1031.11 1316.91,1033.23 1319.74,1035.34 1322.57,1037.46 1325.4,1039.58 1328.23,1041.7 1331.06,1043.82 1333.89,1045.94 1336.72,1048.05 1339.55,1050.17 1342.38,1052.29 1345.21,1054.4 1348.04,1056.52 1350.87,1058.64 1353.7,1060.75 1356.53,1062.87 1359.36,1064.99 1362.19,1067.1 1365.02,1069.22 1367.85,1071.33 1370.68,1073.44 1373.51,1075.56 1376.34,1077.67 1379.17,1079.79 1382,1081.9 1384.84,1084.01 1387.67,1086.13 1390.5,1088.24 1393.33,1090.35 1396.16,1092.47 1398.99,1094.58 1401.82,1096.69 1404.65,1098.8 1407.48,1100.91 1410.31,1103.02 1413.14,1105.13 1415.97,1107.25 1418.8,1109.36 1421.63,1111.47 1424.46,1113.58 1427.29,1115.69 1430.12,1117.8 1432.95,1119.91 1435.78,1122.02 1438.61,1124.12 1441.44,1126.23 1444.27,1128.34 1447.1,1130.45 1449.93,1132.56 1452.76,1134.67 1455.59,1136.77 1458.42,1138.88 1461.25,1140.99 1464.08,1143.1 1466.91,1145.2 1469.74,1147.31 1472.57,1149.42 1475.4,1151.52 1478.23,1153.63 1481.06,1155.73 1483.89,1157.84 1486.72,1159.95 1489.55,1162.05 1492.38,1164.16 1495.21,1166.26 1498.04,1168.37 1500.87,1170.47 1503.7,1172.57 1506.53,1174.68 1509.36,1176.78 1512.19,1178.89 1515.02,1180.99 1517.85,1183.09 1520.68,1185.2 1523.51,1187.3 1526.34,1189.4 1529.17,1191.5 1532,1193.61 1534.83,1195.71 1537.66,1197.81 1540.49,1199.91 1543.33,1202.01 1546.16,1204.12 1548.99,1206.22 1551.82,1208.32 1554.65,1210.42 1557.48,1212.52 1560.31,1214.62 1563.14,1216.72 1565.97,1218.82 1568.8,1220.92 1571.63,1223.02 1574.46,1225.12 1577.29,1227.22 1580.12,1229.32 1582.95,1231.42 1585.78,1233.52 1588.61,1235.62 1591.44,1237.72 1594.27,1239.81 1597.1,1241.91 1599.93,1244.01 1602.76,1246.11 1605.59,1248.21 1608.42,1250.3 1611.25,1252.4 1614.08,1254.5 1616.91,1256.6 1619.74,1258.69 1622.57,1260.79 1625.4,1262.89 1628.23,1264.98 1631.06,1267.08 1633.89,1269.17 1636.72,1271.27 1639.55,1273.37 1642.38,1275.46 1645.21,1277.56 1648.04,1279.65 1650.87,1281.75 1653.7,1283.84 1656.53,1285.94 1659.36,1288.03 1662.19,1290.13 1665.02,1292.22 1667.85,1294.32 1670.68,1296.41 1673.51,1298.5 1676.34,1300.6 1679.17,1302.69 1682,1304.79 1684.83,1306.88 1687.66,1308.97 1690.49,1311.07 1693.32,1313.16 1696.15,1315.25 1698.98,1317.34 1701.82,1319.44 1704.65,1321.53 1707.48,1323.62 1710.31,1325.71 1713.14,1327.8 1715.97,1329.9 1718.8,1331.99 1721.63,1334.08 1724.46,1336.17 1727.29,1338.26 1730.12,1340.35 1732.95,1342.44 1735.78,1344.53 1738.61,1346.63 1741.44,1348.72 1744.27,1350.81 1747.1,1352.9 1749.93,1354.99 1752.76,1357.08 1755.59,1359.17 1758.42,1361.26 1761.25,1363.35 1764.08,1365.43 1766.91,1367.52 1769.74,1369.61 1772.57,1371.7 1775.4,1373.79 1778.23,1375.88 1781.06,1377.97 1783.89,1380.06 1786.72,1382.14 1789.55,1384.23 1792.38,1386.32 1795.21,1388.41 1798.04,1390.5 1800.87,1392.58 1803.7,1394.67 1806.53,1396.76 1809.36,1398.85 1812.19,1400.93 1815.02,1403.02 1817.85,1405.11 1820.68,1407.19 1823.51,1409.28 1826.34,1411.37 1829.17,1413.45 1832,1415.54 1834.83,1417.63 1837.66,1419.71 1840.49,1421.8 1843.32,1423.88 1846.15,1425.97 1848.98,1428.06 1851.81,1430.14 1854.64,1432.23 1857.47,1434.31 1860.3,1436.4 1863.14,1438.48 1865.97,1440.57 1868.8,1442.65 1871.63,1444.74 1874.46,1446.82 1877.29,1448.9 1880.12,1450.99 1882.95,1453.07 1885.78,1455.16 1888.61,1457.24 1891.44,1459.32 1894.27,1461.41 1897.1,1463.49 1899.93,1465.58 1902.76,1467.66 1905.59,1469.74 1908.42,1471.83 1911.25,1473.91 1914.08,1475.99 1916.91,1478.07 1919.74,1480.16 1922.57,1482.24 1925.4,1484.32 1928.23,1486.4 1931.06,1488.49 1933.89,1490.57 1936.72,1492.65 1939.55,1494.73 1942.38,1496.81 1945.21,1498.9 1948.04,1500.98 1950.87,1503.06 1953.7,1505.14 1956.53,1507.22 1959.36,1509.3 1962.19,1511.38 1965.02,1513.46 1967.85,1515.54 1970.68,1517.63 1973.51,1519.71 1976.34,1521.79 1979.17,1523.87 1982,1525.95 1984.83,1528.03 1987.66,1530.11 1990.49,1532.19 1993.32,1534.27 1996.15,1536.35 1998.98,1538.43 2001.81,1540.51 2004.64,1542.59 2007.47,1544.67 2010.3,1546.74 2013.13,1548.82 2015.96,1550.9 2018.79,1552.98 2021.63,1555.06 2024.46,1557.14 2027.29,1559.22 2030.12,1561.3 2032.95,1563.38 2035.78,1565.45 2038.61,1567.53 2041.44,1569.61 2044.27,1571.69 2047.1,1573.77 2049.93,1575.84 2052.76,1577.92 2055.59,1580 2058.42,1582.08 2061.25,1584.16 2064.08,1586.23 2066.91,1588.31 2069.74,1590.39 2072.57,1592.46 2075.4,1594.54 2078.23,1596.62 2081.06,1598.7 2083.89,1600.77 2086.72,1602.85 2089.55,1604.93 2092.38,1607 2095.21,1609.08 2098.04,1611.15 2100.87,1613.23 2103.7,1615.31 2106.53,1617.38 2109.36,1619.46 2112.19,1621.53 2115.02,1623.61 2117.85,1625.69 2120.68,1627.76 2123.51,1629.84 2126.34,1631.91 2129.17,1633.99 2132,1636.06 2134.83,1638.14 2137.66,1640.21 2140.49,1642.29 2143.32,1644.36 2146.15,1646.44 2148.98,1648.51 2151.81,1650.59 2154.64,1652.66 2157.47,1654.74 2160.3,1656.81 2163.13,1658.89 2165.96,1660.96 2168.79,1663.03 2171.62,1665.11 2174.45,1667.18 2177.28,1669.26 2180.12,1671.33 2182.95,1673.4 2185.78,1675.48 2188.61,1677.55 2191.44,1679.62 2194.27,1681.7 2197.1,1683.77 2199.93,1685.84 2202.76,1687.92 2205.59,1689.99 2208.42,1692.06 2211.25,1694.14 2214.08,1696.21 2216.91,1698.28 2219.74,1700.35 2222.57,1702.43 2225.4,1704.5 2228.23,1706.57 2231.06,1708.64 2233.89,1710.72 2236.72,1712.79 2239.55,1714.86 2242.38,1716.93 2245.21,1719 2248.04,1721.08 2250.87,1723.15 2253.7,1725.22 2256.53,1727.29 2259.36,1729.36 2262.19,1731.43 2265.02,1733.51 2267.85,1735.58 2270.68,1737.65 2273.51,1739.72 2276.34,1741.79 2279.17,1743.86 2282,1745.93 2284.83,1748 2287.66,1750.07 2290.49,1752.15 2293.32,1754.22 "/>
<polyline clip-path="url(#clip482)" style="stroke:#e26f46; stroke-linecap:round; stroke-linejoin:round; stroke-width:4; stroke-opacity:1; fill:none" points="312.198,179.365 315.028,202.366 317.858,213.518 320.688,222.752 323.518,231.004 326.349,238.634 329.179,245.827 332.009,252.692 334.839,259.3 337.669,265.7 340.499,271.926 343.33,278.005 346.16,283.959 348.99,289.803 351.82,295.551 354.65,301.213 357.481,306.799 360.311,312.316 363.141,317.769 365.971,323.166 368.801,328.511 371.631,333.807 374.462,339.06 377.292,344.271 380.122,349.444 382.952,354.581 385.782,359.685 388.612,364.757 391.443,369.801 394.273,374.816 397.103,379.806 399.933,384.771 402.763,389.713 405.594,394.633 408.424,399.531 411.254,404.41 414.084,409.27 416.914,414.111 419.744,418.935 422.575,423.743 425.405,428.535 428.235,433.312 431.065,438.074 433.895,442.822 436.726,447.557 439.556,452.279 442.386,456.988 445.216,461.686 448.046,466.372 450.876,471.047 453.707,475.711 456.537,480.365 459.367,485.009 462.197,489.643 465.027,494.268 467.857,498.883 470.688,503.49 473.518,508.089 476.348,512.679 479.178,517.261 482.008,521.835 484.839,526.402 487.669,530.962 490.499,535.514 493.329,540.059 496.159,544.598 498.989,549.13 501.82,553.656 504.65,558.175 507.48,562.689 510.31,567.196 513.14,571.698 515.97,576.194 518.801,580.685 521.631,585.17 524.461,589.65 527.291,594.125 530.121,598.595 532.952,603.06 535.782,607.52 538.612,611.976 541.442,616.427 544.272,620.873 547.102,625.315 549.933,629.753 552.763,634.187 555.593,638.617 558.423,643.043 561.253,647.464 564.084,651.882 566.914,656.296 569.744,660.707 572.574,665.114 575.404,669.517 578.234,673.917 581.065,678.313 583.895,682.706 586.725,687.096 589.555,691.482 592.385,695.866 595.215,700.246 598.046,704.623 600.876,708.997 603.706,713.369 606.536,717.737 609.366,722.102 612.197,726.465 615.027,730.825 617.857,735.182 620.687,739.537 623.517,743.889 626.347,748.238 629.178,752.585 632.008,756.929 634.838,761.271 637.668,765.61 640.498,769.947 643.328,774.282 646.159,778.614 648.989,782.945 651.819,787.273 654.649,791.598 657.479,795.922 660.31,800.243 663.14,804.563 665.97,808.88 668.8,813.195 671.63,817.508 674.46,821.819 677.291,826.129 680.121,830.436 682.951,834.741 685.781,839.045 688.611,843.347 691.442,847.647 694.272,851.945 697.102,856.241 699.932,860.535 702.762,864.828 705.592,869.119 708.423,873.409 711.253,877.697 714.083,881.983 716.913,886.267 719.743,890.55 722.573,894.831 725.404,899.111 728.234,903.389 731.064,907.666 733.894,911.941 736.724,916.215 739.555,920.487 742.385,924.758 745.215,929.028 748.045,933.296 750.875,937.562 753.705,941.828 756.536,946.091 759.366,950.354 762.196,954.615 765.026,958.875 767.856,963.134 770.686,967.391 773.517,971.647 776.347,975.902 779.177,980.155 782.007,984.408 784.837,988.659 787.668,992.909 790.498,997.157 793.328,1001.4 796.158,1005.65 798.988,1009.9 801.818,1014.14 804.649,1018.38 807.479,1022.63 810.309,1026.87 813.139,1031.11 815.969,1035.34 818.8,1039.58 821.63,1043.82 824.46,1048.05 827.29,1052.29 830.12,1056.52 832.95,1060.75 835.781,1064.99 838.611,1069.22 841.441,1073.44 844.271,1077.67 847.101,1081.9 849.931,1086.13 852.762,1090.35 855.592,1094.58 858.422,1098.8 861.252,1103.02 864.082,1107.25 866.913,1111.47 869.743,1115.69 872.573,1119.91 875.403,1124.12 878.233,1128.34 881.063,1132.56 883.894,1136.77 886.724,1140.99 889.554,1145.2 892.384,1149.42 895.214,1153.63 898.044,1157.84 900.875,1162.05 903.705,1166.26 906.535,1170.47 909.365,1174.68 912.195,1178.89 915.026,1183.09 917.856,1187.3 920.686,1191.5 923.516,1195.71 926.346,1199.91 929.176,1204.12 932.007,1208.32 934.837,1212.52 937.667,1216.72 940.497,1220.92 943.327,1225.12 946.158,1229.32 948.988,1233.52 951.818,1237.72 954.648,1241.91 957.478,1246.11 960.308,1250.3 963.139,1254.5 965.969,1258.69 968.799,1262.89 971.629,1267.08 974.459,1271.27 977.289,1275.46 980.12,1279.65 982.95,1283.84 985.78,1288.03 988.61,1292.22 991.44,1296.41 994.271,1300.6 997.101,1304.79 999.931,1308.97 1002.76,1313.16 1005.59,1317.34 1008.42,1321.53 1011.25,1325.71 1014.08,1329.9 1016.91,1334.08 1019.74,1338.26 1022.57,1342.44 1025.4,1346.63 1028.23,1350.81 1031.06,1354.99 1033.89,1359.17 1036.72,1363.35 1039.55,1367.52 1042.38,1371.7 1045.21,1375.88 1048.04,1380.06 1050.87,1384.23 1053.7,1388.41 1056.53,1392.58 1059.36,1396.76 1062.19,1400.93 1065.02,1405.11 1067.86,1409.28 1070.69,1413.45 1073.52,1417.63 1076.35,1421.8 1079.18,1425.97 1082.01,1430.14 1084.84,1434.31 1087.67,1438.48 1090.5,1442.65 1093.33,1446.82 1096.16,1450.99 1098.99,1455.16 1101.82,1459.32 1104.65,1463.49 1107.48,1467.66 1110.31,1471.83 1113.14,1475.99 1115.97,1480.16 1118.8,1484.32 1121.63,1488.49 1124.46,1492.65 1127.29,1496.81 1130.12,1500.98 1132.95,1505.14 1135.78,1509.3 1138.61,1513.46 1141.44,1517.63 1144.27,1521.79 1147.1,1525.95 1149.93,1530.11 1152.76,1534.27 1155.59,1538.43 1158.42,1542.59 1161.25,1546.74 1164.08,1550.9 1166.91,1555.06 1169.74,1559.22 1172.57,1563.38 1175.4,1567.53 1178.23,1571.69 1181.06,1575.84 1183.89,1580 1186.72,1584.16 1189.55,1588.31 1192.38,1592.46 1195.21,1596.62 1198.04,1600.77 1200.87,1604.93 1203.7,1609.08 1206.53,1613.23 1209.36,1617.38 1212.19,1621.53 1215.02,1625.69 1217.85,1629.84 1220.68,1633.99 1223.51,1638.14 1226.35,1642.29 1229.18,1646.44 1232.01,1650.59 1234.84,1654.74 1237.67,1658.89 1240.5,1663.03 1243.33,1667.18 1246.16,1671.33 1248.99,1675.48 1251.82,1679.62 1254.65,1683.77 1257.48,1687.92 1260.31,1692.06 1263.14,1696.21 1265.97,1700.35 1268.8,1704.5 1271.63,1708.64 1274.46,1712.79 1277.29,1716.93 1280.12,1721.08 1282.95,1725.22 1285.78,1729.36 1288.61,1733.51 1291.44,1737.65 1294.27,1741.79 1297.1,1745.93 1299.93,1750.07 1302.76,1754.22 1305.59,1758.36 1308.42,1762.5 1311.25,1766.64 1314.08,1770.78 1316.91,1774.92 1319.74,1779.06 1322.57,1783.2 1325.4,1787.34 1328.23,1791.48 1331.06,1795.61 1333.89,1799.75 1336.72,1803.89 1339.55,1808.03 1342.38,1812.16 1345.21,1816.3 1348.04,1820.44 1350.87,1824.58 1353.7,1828.71 1356.53,1832.85 1359.36,1836.98 1362.19,1841.12 1365.02,1845.25 1367.85,1849.39 1370.68,1853.52 1373.51,1857.66 1376.34,1861.79 1379.17,1865.93 1382,1870.06 1384.84,1874.19 1387.67,1878.33 1390.5,1882.46 1393.33,1886.59 1396.16,1890.72 1398.99,1894.86 1401.82,1898.99 1404.65,1903.12 1407.48,1907.25 1410.31,1911.38 1413.14,1915.51 1415.97,1919.64 1418.8,1923.77 1421.63,1927.9 1424.46,1932.03 1427.29,1936.16 1430.12,1940.29 1432.95,1944.42 1435.78,1948.55 1438.61,1952.68 1441.44,1956.81 1444.27,1960.94 1447.1,1965.06 1449.93,1969.19 1452.76,1973.32 1455.59,1977.45 1458.42,1981.57 1461.25,1985.7 1464.08,1989.83 1466.91,1993.95 1469.74,1998.08 1472.57,2002.21 1475.4,2006.33 1478.23,2010.46 1481.06,2014.58 1483.89,2018.71 1486.72,2022.83 1489.55,2026.96 1492.38,2031.08 1495.21,2035.21 1498.04,2039.33 1500.87,2043.45 1503.7,2047.58 1506.53,2051.7 1509.36,2055.82 1512.19,2059.95 1515.02,2064.07 1517.85,2068.19 1520.68,2072.31 1523.51,2076.44 1526.34,2080.56 1529.17,2084.68 1532,2088.8 1534.83,2092.92 1537.66,2097.04 1540.49,2101.17 1543.33,2105.29 1546.16,2109.41 1548.99,2113.53 1551.82,2117.65 1554.65,2121.77 1557.48,2125.89 1560.31,2130.01 1563.14,2134.13 1565.97,2138.25 1568.8,2142.36 1571.63,2146.48 1574.46,2150.6 1577.29,2154.72 1580.12,2158.84 1582.95,2162.96 1585.78,2167.07 1588.61,2171.19 1591.44,2175.31 1594.27,2179.43 1597.1,2183.54 1599.93,2187.66 1602.76,2191.78 1605.59,2195.89 1608.42,2200.01 1611.25,2204.13 1614.08,2208.24 1616.91,2212.36 1619.74,2216.48 1622.57,2220.59 1625.4,2224.71 1628.23,2228.82 1631.06,2232.94 1633.89,2237.05 1636.72,2241.17 1639.55,2245.28 1642.38,2249.4 1645.21,2253.51 1648.04,2257.62 1650.87,2261.74 1653.7,2265.85 1656.53,2269.96 1659.36,2274.08 1662.19,2278.19 1665.02,2282.3 1667.85,2286.42 1670.68,2290.53 1673.51,2294.64 1676.34,2298.75 1679.17,2302.87 1682,2306.98 1684.83,2311.09 1687.66,2315.2 1690.49,2319.31 1693.32,2323.43 1696.15,2327.54 1698.98,2331.65 1701.82,2335.76 1704.65,2339.87 1707.48,2343.98 1710.31,2348.09 1713.14,2352.2 1715.97,2356.31 1718.8,2360.42 1721.63,2364.53 1724.46,2368.64 1727.29,2372.75 1730.12,2376.86 1732.95,2380.97 1735.78,2385.08 1738.61,2389.19 1741.44,2393.3 1744.27,2397.41 1747.1,2401.51 1749.93,2405.62 1752.76,2409.73 1755.59,2413.84 1758.42,2417.95 1761.25,2422.05 1764.08,2426.16 1766.91,2430.27 1769.74,2434.38 1772.57,2438.48 1775.4,2442.59 1778.23,2446.7 1781.06,2450.81 1783.89,2454.91 1786.72,2459.02 1789.55,2463.13 1792.38,2467.23 1795.21,2471.34 1798.04,2475.44 1800.87,2479.55 1803.7,2483.66 1806.53,2487.76 1809.36,2491.87 1812.19,2495.97 1815.02,2500.08 1817.85,2504.18 1820.68,2508.29 1823.51,2512.39 1826.34,2516.5 1829.17,2520.6 1832,2524.71 1834.83,2528.81 1837.66,2532.91 1840.49,2537.02 1843.32,2541.12 1846.15,2545.23 1848.98,2549.33 1851.81,2553.43 1854.64,2557.54 1857.47,2561.64 1860.3,2565.74 1863.14,2569.85 1865.97,2573.95 1868.8,2578.05 1871.63,2582.15 1874.46,2586.26 1877.29,2590.36 1880.12,2594.46 1882.95,2598.56 1885.78,2602.66 1888.61,2606.77 1891.44,2610.87 1894.27,2614.97 1897.1,2619.07 1899.93,2623.17 1902.76,2627.27 1905.59,2631.38 1908.42,2635.48 1911.25,2639.58 1914.08,2643.68 1916.91,2647.78 1919.74,2651.88 1922.57,2655.98 1925.4,2660.08 1928.23,2664.18 1931.06,2668.28 1933.89,2672.38 1936.72,2676.48 1939.55,2680.58 1942.38,2684.68 1945.21,2688.78 1948.04,2692.88 1950.87,2696.98 1953.7,2701.08 1956.53,2705.18 1959.36,2709.28 1962.19,2713.37 1965.02,2717.47 1967.85,2721.57 1970.68,2725.67 1973.51,2729.77 1976.34,2733.87 1979.17,2737.96 1982,2742.06 1984.83,2746.16 1987.66,2750.26 1990.49,2754.36 1993.32,2758.45 1996.15,2762.55 1998.98,2766.65 2001.81,2770.75 2004.64,2774.84 2007.47,2778.94 2010.3,2783.04 2013.13,2787.13 2015.96,2791.23 2018.79,2795.33 2021.63,2799.42 2024.46,2803.52 2027.29,2807.62 2030.12,2811.71 2032.95,2815.81 2035.78,2819.91 2038.61,2824 2041.44,2828.1 2044.27,2832.19 2047.1,2836.29 2049.93,2840.38 2052.76,2844.48 2055.59,2848.58 2058.42,2852.67 2061.25,2856.77 2064.08,2860.86 2066.91,2864.96 2069.74,2869.05 2072.57,2873.15 2075.4,2877.24 2078.23,2881.34 2081.06,2885.43 2083.89,2889.52 2086.72,2893.62 2089.55,2897.71 2092.38,2901.81 2095.21,2905.9 2098.04,2909.99 2100.87,2914.09 2103.7,2918.18 2106.53,2922.28 2109.36,2926.37 2112.19,2930.46 2115.02,2934.56 2117.85,2938.65 2120.68,2942.74 2123.51,2946.84 2126.34,2950.93 2129.17,2955.02 2132,2959.11 2134.83,2963.21 2137.66,2967.3 2140.49,2971.39 2143.32,2975.48 2146.15,2979.58 2148.98,2983.67 2151.81,2987.76 2154.64,2991.85 2157.47,2995.94 2160.3,3000.04 2163.13,3004.13 2165.96,3008.22 2168.79,3012.31 2171.62,3016.4 2174.45,3020.49 2177.28,3024.59 2180.12,3028.68 2182.95,3032.77 2185.78,3036.86 2188.61,3040.95 2191.44,3045.04 2194.27,3049.13 2197.1,3053.22 2199.93,3057.31 2202.76,3061.4 2205.59,3065.49 2208.42,3069.58 2211.25,3073.67 2214.08,3077.76 2216.91,3081.85 2219.74,3085.94 2222.57,3090.03 2225.4,3094.12 2228.23,3098.21 2231.06,3102.3 2233.89,3106.39 2236.72,3110.48 2239.55,3114.57 2242.38,3118.66 2245.21,3122.75 2248.04,3126.84 2250.87,3130.93 2253.7,3135.02 2256.53,3139.11 2259.36,3143.2 2262.19,3147.29 2265.02,3151.37 2267.85,3155.46 2270.68,3159.55 2273.51,3163.64 2276.34,3167.73 2279.17,3171.82 2282,3175.9 2284.83,3179.99 2287.66,3184.08 2290.49,3188.17 2293.32,3192.26 "/>
<polyline clip-path="url(#clip482)" style="stroke:#3da44d; stroke-linecap:round; stroke-linejoin:round; stroke-width:4; stroke-opacity:1; fill:none" points="312.198,179.365 315.028,213.518 317.858,231.004 320.688,245.827 323.518,259.3 326.349,271.926 329.179,283.959 332.009,295.551 334.839,306.799 337.669,317.769 340.499,328.511 343.33,339.06 346.16,349.444 348.99,359.685 351.82,369.801 354.65,379.806 357.481,389.713 360.311,399.531 363.141,409.27 365.971,418.935 368.801,428.535 371.631,438.074 374.462,447.557 377.292,456.988 380.122,466.372 382.952,475.711 385.782,485.009 388.612,494.268 391.443,503.49 394.273,512.679 397.103,521.835 399.933,530.962 402.763,540.059 405.594,549.13 408.424,558.175 411.254,567.196 414.084,576.194 416.914,585.17 419.744,594.125 422.575,603.06 425.405,611.976 428.235,620.873 431.065,629.753 433.895,638.617 436.726,647.464 439.556,656.296 442.386,665.114 445.216,673.917 448.046,682.706 450.876,691.482 453.707,700.246 456.537,708.997 459.367,717.737 462.197,726.465 465.027,735.182 467.857,743.889 470.688,752.585 473.518,761.271 476.348,769.947 479.178,778.614 482.008,787.273 484.839,795.922 487.669,804.563 490.499,813.195 493.329,821.819 496.159,830.436 498.989,839.045 501.82,847.647 504.65,856.241 507.48,864.828 510.31,873.409 513.14,881.983 515.97,890.55 518.801,899.111 521.631,907.666 524.461,916.215 527.291,924.758 530.121,933.296 532.952,941.828 535.782,950.354 538.612,958.875 541.442,967.391 544.272,975.902 547.102,984.408 549.933,992.909 552.763,1001.4 555.593,1009.9 558.423,1018.38 561.253,1026.87 564.084,1035.34 566.914,1043.82 569.744,1052.29 572.574,1060.75 575.404,1069.22 578.234,1077.67 581.065,1086.13 583.895,1094.58 586.725,1103.02 589.555,1111.47 592.385,1119.91 595.215,1128.34 598.046,1136.77 600.876,1145.2 603.706,1153.63 606.536,1162.05 609.366,1170.47 612.197,1178.89 615.027,1187.3 617.857,1195.71 620.687,1204.12 623.517,1212.52 626.347,1220.92 629.178,1229.32 632.008,1237.72 634.838,1246.11 637.668,1254.5 640.498,1262.89 643.328,1271.27 646.159,1279.65 648.989,1288.03 651.819,1296.41 654.649,1304.79 657.479,1313.16 660.31,1321.53 663.14,1329.9 665.97,1338.26 668.8,1346.63 671.63,1354.99 674.46,1363.35 677.291,1371.7 680.121,1380.06 682.951,1388.41 685.781,1396.76 688.611,1405.11 691.442,1413.45 694.272,1421.8 697.102,1430.14 699.932,1438.48 702.762,1446.82 705.592,1455.16 708.423,1463.49 711.253,1471.83 714.083,1480.16 716.913,1488.49 719.743,1496.81 722.573,1505.14 725.404,1513.46 728.234,1521.79 731.064,1530.11 733.894,1538.43 736.724,1546.74 739.555,1555.06 742.385,1563.38 745.215,1571.69 748.045,1580 750.875,1588.31 753.705,1596.62 756.536,1604.93 759.366,1613.23 762.196,1621.53 765.026,1629.84 767.856,1638.14 770.686,1646.44 773.517,1654.74 776.347,1663.03 779.177,1671.33 782.007,1679.62 784.837,1687.92 787.668,1696.21 790.498,1704.5 793.328,1712.79 796.158,1721.08 798.988,1729.36 801.818,1737.65 804.649,1745.93 807.479,1754.22 810.309,1762.5 813.139,1770.78 815.969,1779.06 818.8,1787.34 821.63,1795.61 824.46,1803.89 827.29,1812.16 830.12,1820.44 832.95,1828.71 835.781,1836.98 838.611,1845.25 841.441,1853.52 844.271,1861.79 847.101,1870.06 849.931,1878.33 852.762,1886.59 855.592,1894.86 858.422,1903.12 861.252,1911.38 864.082,1919.64 866.913,1927.9 869.743,1936.16 872.573,1944.42 875.403,1952.68 878.233,1960.94 881.063,1969.19 883.894,1977.45 886.724,1985.7 889.554,1993.95 892.384,2002.21 895.214,2010.46 898.044,2018.71 900.875,2026.96 903.705,2035.21 906.535,2043.45 909.365,2051.7 912.195,2059.95 915.026,2068.19 917.856,2076.44 920.686,2084.68 923.516,2092.92 926.346,2101.17 929.176,2109.41 932.007,2117.65 934.837,2125.89 937.667,2134.13 940.497,2142.36 943.327,2150.6 946.158,2158.84 948.988,2167.07 951.818,2175.31 954.648,2183.54 957.478,2191.78 960.308,2200.01 963.139,2208.24 965.969,2216.48 968.799,2224.71 971.629,2232.94 974.459,2241.17 977.289,2249.4 980.12,2257.62 982.95,2265.85 985.78,2274.08 988.61,2282.3 991.44,2290.53 994.271,2298.75 997.101,2306.98 999.931,2315.2 1002.76,2323.43 1005.59,2331.65 1008.42,2339.87 1011.25,2348.09 1014.08,2356.31 1016.91,2364.53 1019.74,2372.75 1022.57,2380.97 1025.4,2389.19 1028.23,2397.41 1031.06,2405.62 1033.89,2413.84 1036.72,2422.05 1039.55,2430.27 1042.38,2438.48 1045.21,2446.7 1048.04,2454.91 1050.87,2463.13 1053.7,2471.34 1056.53,2479.55 1059.36,2487.76 1062.19,2495.97 1065.02,2504.18 1067.86,2512.39 1070.69,2520.6 1073.52,2528.81 1076.35,2537.02 1079.18,2545.23 1082.01,2553.43 1084.84,2561.64 1087.67,2569.85 1090.5,2578.05 1093.33,2586.26 1096.16,2594.46 1098.99,2602.66 1101.82,2610.87 1104.65,2619.07 1107.48,2627.27 1110.31,2635.48 1113.14,2643.68 1115.97,2651.88 1118.8,2660.08 1121.63,2668.28 1124.46,2676.48 1127.29,2684.68 1130.12,2692.88 1132.95,2701.08 1135.78,2709.28 1138.61,2717.47 1141.44,2725.67 1144.27,2733.87 1147.1,2742.06 1149.93,2750.26 1152.76,2758.45 1155.59,2766.65 1158.42,2774.84 1161.25,2783.04 1164.08,2791.23 1166.91,2799.42 1169.74,2807.62 1172.57,2815.81 1175.4,2824 1178.23,2832.19 1181.06,2840.38 1183.89,2848.58 1186.72,2856.77 1189.55,2864.96 1192.38,2873.15 1195.21,2881.34 1198.04,2889.52 1200.87,2897.71 1203.7,2905.9 1206.53,2914.09 1209.36,2922.28 1212.19,2930.46 1215.02,2938.65 1217.85,2946.84 1220.68,2955.02 1223.51,2963.21 1226.35,2971.39 1229.18,2979.58 1232.01,2987.76 1234.84,2995.94 1237.67,3004.13 1240.5,3012.31 1243.33,3020.49 1246.16,3028.68 1248.99,3036.86 1251.82,3045.04 1254.65,3053.22 1257.48,3061.4 1260.31,3069.58 1263.14,3077.76 1265.97,3085.94 1268.8,3094.12 1271.63,3102.3 1274.46,3110.48 1277.29,3118.66 1280.12,3126.84 1282.95,3135.02 1285.78,3143.2 1288.61,3151.37 1291.44,3159.55 1294.27,3167.73 1297.1,3175.9 1299.93,3184.08 1302.76,3192.26 1305.59,3200.43 1308.42,3208.61 1311.25,3216.78 1314.08,3224.96 1316.91,3233.13 1319.74,3241.31 1322.57,3249.48 1325.4,3257.65 1328.23,3265.83 1331.06,3274 1333.89,3282.17 1336.72,3290.34 1339.55,3298.52 1342.38,3306.69 1345.21,3314.86 1348.04,3323.03 1350.87,3331.2 1353.7,3339.37 1356.53,3347.54 1359.36,3355.71 1362.19,3363.88 1365.02,3372.05 1367.85,3380.22 1370.68,3388.39 1373.51,3396.56 1376.34,3404.73 1379.17,3412.89 1382,3421.06 1384.84,3429.23 1387.67,3437.4 1390.5,3445.56 1393.33,3453.73 1396.16,3461.9 1398.99,3470.06 1401.82,3478.23 1404.65,3486.4 1407.48,3494.56 1410.31,3502.73 1413.14,3510.89 1415.97,3519.06 1418.8,3527.22 1421.63,3535.38 1424.46,3543.55 1427.29,3551.71 1430.12,3559.87 1432.95,3568.04 1435.78,3576.2 1438.61,3584.36 1441.44,3592.53 1444.27,3600.69 1447.1,3608.85 1449.93,3617.01 1452.76,3625.17 1455.59,3633.33 1458.42,3641.5 1461.25,3649.66 1464.08,3657.82 1466.91,3665.98 1469.74,3674.14 1472.57,3682.3 1475.4,3690.46 1478.23,3698.62 1481.06,3706.78 1483.89,3714.93 1486.72,3723.09 1489.55,3731.25 1492.38,3739.41 1495.21,3747.57 1498.04,3755.73 1500.87,3763.88 1503.7,3772.04 1506.53,3780.2 1509.36,3788.35 1512.19,3796.51 1515.02,3804.67 1517.85,3812.82 1520.68,3820.98 1523.51,3829.14 1526.34,3837.29 1529.17,3845.45 1532,3853.6 1534.83,3861.76 1537.66,3869.91 1540.49,3878.07 1543.33,3886.22 1546.16,3894.38 1548.99,3902.53 1551.82,3910.68 1554.65,3918.84 1557.48,3926.99 1560.31,3935.14 1563.14,3943.3 1565.97,3951.45 1568.8,3959.6 1571.63,3967.75 1574.46,3975.91 1577.29,3984.06 1580.12,3992.21 1582.95,4000.36 1585.78,4008.51 1588.61,4016.67 1591.44,4024.82 1594.27,4032.97 1597.1,4041.12 1599.93,4049.27 1602.76,4057.42 1605.59,4065.57 1608.42,4073.72 1611.25,4081.87 1614.08,4090.02 1616.91,4098.17 1619.74,4106.32 1622.57,4114.47 1625.4,4122.61 1628.23,4130.76 1631.06,4138.91 1633.89,4147.06 1636.72,4155.21 1639.55,4163.36 1642.38,4171.5 1645.21,4179.65 1648.04,4187.8 1650.87,4195.95 1653.7,4204.09 1656.53,4212.24 1659.36,4220.39 1662.19,4228.53 1665.02,4236.68 1667.85,4244.83 1670.68,4252.97 1673.51,4261.12 1676.34,4269.26 1679.17,4277.41 1682,4285.56 1684.83,4293.7 1687.66,4301.85 1690.49,4309.99 1693.32,4318.14 1696.15,4326.28 1698.98,4334.42 1701.82,4342.57 1704.65,4350.71 1707.48,4358.86 1710.31,4367 1713.14,4375.14 1715.97,4383.29 1718.8,4391.43 1721.63,4399.57 1724.46,4407.72 1727.29,4415.86 1730.12,4424 1732.95,4432.14 1735.78,4440.29 1738.61,4448.43 1741.44,4456.57 1744.27,4464.71 1747.1,4472.86 1749.93,4481 1752.76,4489.14 1755.59,4497.28 1758.42,4505.42 1761.25,4513.56 1764.08,4521.7 1766.91,4529.84 1769.74,4537.98 1772.57,4546.12 1775.4,4554.26 1778.23,4562.4 1781.06,4570.54 1783.89,4578.68 1786.72,4586.82 1789.55,4594.96 1792.38,4603.1 1795.21,4611.24 1798.04,4619.38 1800.87,4627.52 1803.7,4635.66 1806.53,4643.8 1809.36,4651.94 1812.19,4660.08 1815.02,4668.21 1817.85,4676.35 1820.68,4684.49 1823.51,4692.63 1826.34,4700.77 1829.17,4708.9 1832,4717.04 1834.83,4725.18 1837.66,4733.31 1840.49,4741.45 1843.32,4749.59 1846.15,4757.73 1848.98,4765.86 1851.81,4774 1854.64,4782.14 1857.47,4790.27 1860.3,4798.41 1863.14,4806.54 1865.97,4814.68 1868.8,4822.82 1871.63,4830.95 1874.46,4839.09 1877.29,4847.22 1880.12,4855.36 1882.95,4863.49 1885.78,4871.63 1888.61,4879.76 1891.44,4887.9 1894.27,4896.03 1897.1,4904.17 1899.93,4912.3 1902.76,4920.43 1905.59,4928.57 1908.42,4936.7 1911.25,4944.84 1914.08,4952.97 1916.91,4961.1 1919.74,4969.24 1922.57,4977.37 1925.4,4985.5 1928.23,4993.64 1931.06,5001.77 1933.89,5009.9 1936.72,5018.04 1939.55,5026.17 1942.38,5034.3 1945.21,5042.43 1948.04,5050.57 1950.87,5058.7 1953.7,5066.83 1956.53,5074.96 1959.36,5083.09 1962.19,5091.23 1965.02,5099.36 1967.85,5107.49 1970.68,5115.62 1973.51,5123.75 1976.34,5131.88 1979.17,5140.01 1982,5148.14 1984.83,5156.28 1987.66,5164.41 1990.49,5172.54 1993.32,5180.67 1996.15,5188.8 1998.98,5196.93 2001.81,5205.06 2004.64,5213.19 2007.47,5221.32 2010.3,5229.45 2013.13,5237.58 2015.96,5245.71 2018.79,5253.84 2021.63,5261.97 2024.46,5270.09 2027.29,5278.22 2030.12,5286.35 2032.95,5294.48 2035.78,5302.61 2038.61,5310.74 2041.44,5318.87 2044.27,5327 2047.1,5335.13 2049.93,5343.25 2052.76,5351.38 2055.59,5359.51 2058.42,5367.64 2061.25,5375.77 2064.08,5383.89 2066.91,5392.02 2069.74,5400.15 2072.57,5408.28 2075.4,5416.4 2078.23,5424.53 2081.06,5432.66 2083.89,5440.79 2086.72,5448.91 2089.55,5457.04 2092.38,5465.17 2095.21,5473.29 2098.04,5481.42 2100.87,5489.55 2103.7,5497.67 2106.53,5505.8 2109.36,5513.93 2112.19,5522.05 2115.02,5530.18 2117.85,5538.3 2120.68,5546.43 2123.51,5554.56 2126.34,5562.68 2129.17,5570.81 2132,5578.93 2134.83,5587.06 2137.66,5595.18 2140.49,5603.31 2143.32,5611.43 2146.15,5619.56 2148.98,5627.68 2151.81,5635.81 2154.64,5643.93 2157.47,5652.06 2160.3,5660.18 2163.13,5668.31 2165.96,5676.43 2168.79,5684.55 2171.62,5692.68 2174.45,5700.8 2177.28,5708.93 2180.12,5717.05 2182.95,5725.17 2185.78,5733.3 2188.61,5741.42 2191.44,5749.55 2194.27,5757.67 2197.1,5765.79 2199.93,5773.92 2202.76,5782.04 2205.59,5790.16 2208.42,5798.28 2211.25,5806.41 2214.08,5814.53 2216.91,5822.65 2219.74,5830.78 2222.57,5838.9 2225.4,5847.02 2228.23,5855.14 2231.06,5863.27 2233.89,5871.39 2236.72,5879.51 2239.55,5887.63 2242.38,5895.75 2245.21,5903.88 2248.04,5912 2250.87,5920.12 2253.7,5928.24 2256.53,5936.36 2259.36,5944.48 2262.19,5952.61 2265.02,5960.73 2267.85,5968.85 2270.68,5976.97 2273.51,5985.09 2276.34,5993.21 2279.17,6001.33 2282,6009.45 2284.83,6017.57 2287.66,6025.69 2290.49,6033.82 2293.32,6041.94 "/>
<path clip-path="url(#clip480)" d="M2004.42 374.156 L2282.76 374.156 L2282.76 166.796 L2004.42 166.796  Z" fill="#ffffff" fill-rule="evenodd" fill-opacity="1"/>
<polyline clip-path="url(#clip480)" style="stroke:#000000; stroke-linecap:round; stroke-linejoin:round; stroke-width:4; stroke-opacity:1; fill:none" points="2004.42,374.156 2282.76,374.156 2282.76,166.796 2004.42,166.796 2004.42,374.156 "/>
<polyline clip-path="url(#clip480)" style="stroke:#009af9; stroke-linecap:round; stroke-linejoin:round; stroke-width:4; stroke-opacity:1; fill:none" points="2027.76,218.636 2167.76,218.636 "/>
<path clip-path="url(#clip480)" d="M2206.92 205.962 L2200.58 223.161 L2213.29 223.161 L2206.92 205.962 M2204.28 201.356 L2209.59 201.356 L2222.76 235.916 L2217.9 235.916 L2214.75 227.05 L2199.17 227.05 L2196.02 235.916 L2191.09 235.916 L2204.28 201.356 Z" fill="#000000" fill-rule="nonzero" fill-opacity="1" /><path clip-path="url(#clip480)" d="M2227.8 201.356 L2234.77 201.356 L2243.59 224.874 L2252.46 201.356 L2259.42 201.356 L2259.42 235.916 L2254.86 235.916 L2254.86 205.569 L2245.95 229.272 L2241.25 229.272 L2232.34 205.569 L2232.34 235.916 L2227.8 235.916 L2227.8 201.356 Z" fill="#000000" fill-rule="nonzero" fill-opacity="1" /><polyline clip-path="url(#clip480)" style="stroke:#e26f46; stroke-linecap:round; stroke-linejoin:round; stroke-width:4; stroke-opacity:1; fill:none" points="2027.76,270.476 2167.76,270.476 "/>
<path clip-path="url(#clip480)" d="M2191.09 253.196 L2210.95 253.196 L2210.95 257.131 L2195.77 257.131 L2195.77 267.316 L2209.47 267.316 L2209.47 271.251 L2195.77 271.251 L2195.77 287.756 L2191.09 287.756 L2191.09 253.196 Z" fill="#000000" fill-rule="nonzero" fill-opacity="1" /><path clip-path="url(#clip480)" d="M2218.36 253.196 L2225.33 253.196 L2234.15 276.714 L2243.01 253.196 L2249.98 253.196 L2249.98 287.756 L2245.42 287.756 L2245.42 257.409 L2236.51 281.112 L2231.81 281.112 L2222.9 257.409 L2222.9 287.756 L2218.36 287.756 L2218.36 253.196 Z" fill="#000000" fill-rule="nonzero" fill-opacity="1" /><polyline clip-path="url(#clip480)" style="stroke:#3da44d; stroke-linecap:round; stroke-linejoin:round; stroke-width:4; stroke-opacity:1; fill:none" points="2027.76,322.316 2167.76,322.316 "/>
<path clip-path="url(#clip480)" d="M2195.77 308.878 L2195.77 321.864 L2201.65 321.864 Q2204.91 321.864 2206.69 320.175 Q2208.47 318.485 2208.47 315.36 Q2208.47 312.258 2206.69 310.568 Q2204.91 308.878 2201.65 308.878 L2195.77 308.878 M2191.09 305.036 L2201.65 305.036 Q2207.46 305.036 2210.42 307.675 Q2213.4 310.29 2213.4 315.36 Q2213.4 320.475 2210.42 323.091 Q2207.46 325.707 2201.65 325.707 L2195.77 325.707 L2195.77 339.596 L2191.09 339.596 L2191.09 305.036 Z" fill="#000000" fill-rule="nonzero" fill-opacity="1" /><path clip-path="url(#clip480)" d="M2219.68 305.036 L2226.65 305.036 L2235.46 328.554 L2244.33 305.036 L2251.3 305.036 L2251.3 339.596 L2246.74 339.596 L2246.74 309.249 L2237.83 332.952 L2233.13 332.952 L2224.21 309.249 L2224.21 339.596 L2219.68 339.596 L2219.68 305.036 Z" fill="#000000" fill-rule="nonzero" fill-opacity="1" /></svg>
