<?xml version="1.0" encoding="utf-8"?>
<svg xmlns="http://www.w3.org/2000/svg" xmlns:xlink="http://www.w3.org/1999/xlink" width="600" height="400" viewBox="0 0 2400 1600">
<defs>
  <clipPath id="clip100">
    <rect x="0" y="0" width="2400" height="1600"/>
  </clipPath>
</defs>
<path clip-path="url(#clip100)" d="M0 1600 L2400 1600 L2400 0 L0 0  Z" fill="#ffffff" fill-rule="evenodd" fill-opacity="1"/>
<defs>
  <clipPath id="clip101">
    <rect x="480" y="0" width="1681" height="1600"/>
  </clipPath>
</defs>
<path clip-path="url(#clip100)" d="M147.478 623.18 L2352.76 623.18 L2352.76 216.904 L147.478 216.904  Z" fill="#ffffff" fill-rule="evenodd" fill-opacity="1"/>
<defs>
  <clipPath id="clip102">
    <rect x="147" y="216" width="2206" height="407"/>
  </clipPath>
</defs>
<polyline clip-path="url(#clip102)" style="stroke:#000000; stroke-linecap:round; stroke-linejoin:round; stroke-width:2; stroke-opacity:0.1; fill:none" points="269.993,623.18 269.993,216.904 "/>
<polyline clip-path="url(#clip102)" style="stroke:#000000; stroke-linecap:round; stroke-linejoin:round; stroke-width:2; stroke-opacity:0.1; fill:none" points="515.024,623.18 515.024,216.904 "/>
<polyline clip-path="url(#clip102)" style="stroke:#000000; stroke-linecap:round; stroke-linejoin:round; stroke-width:2; stroke-opacity:0.1; fill:none" points="760.055,623.18 760.055,216.904 "/>
<polyline clip-path="url(#clip102)" style="stroke:#000000; stroke-linecap:round; stroke-linejoin:round; stroke-width:2; stroke-opacity:0.1; fill:none" points="1005.09,623.18 1005.09,216.904 "/>
<polyline clip-path="url(#clip102)" style="stroke:#000000; stroke-linecap:round; stroke-linejoin:round; stroke-width:2; stroke-opacity:0.1; fill:none" points="1250.12,623.18 1250.12,216.904 "/>
<polyline clip-path="url(#clip102)" style="stroke:#000000; stroke-linecap:round; stroke-linejoin:round; stroke-width:2; stroke-opacity:0.1; fill:none" points="1495.15,623.18 1495.15,216.904 "/>
<polyline clip-path="url(#clip102)" style="stroke:#000000; stroke-linecap:round; stroke-linejoin:round; stroke-width:2; stroke-opacity:0.1; fill:none" points="1740.18,623.18 1740.18,216.904 "/>
<polyline clip-path="url(#clip102)" style="stroke:#000000; stroke-linecap:round; stroke-linejoin:round; stroke-width:2; stroke-opacity:0.1; fill:none" points="1985.21,623.18 1985.21,216.904 "/>
<polyline clip-path="url(#clip102)" style="stroke:#000000; stroke-linecap:round; stroke-linejoin:round; stroke-width:2; stroke-opacity:0.1; fill:none" points="2230.24,623.18 2230.24,216.904 "/>
<polyline clip-path="url(#clip100)" style="stroke:#000000; stroke-linecap:round; stroke-linejoin:round; stroke-width:4; stroke-opacity:1; fill:none" points="147.478,623.18 2352.76,623.18 "/>
<polyline clip-path="url(#clip100)" style="stroke:#000000; stroke-linecap:round; stroke-linejoin:round; stroke-width:4; stroke-opacity:1; fill:none" points="269.993,623.18 269.993,604.282 "/>
<polyline clip-path="url(#clip100)" style="stroke:#000000; stroke-linecap:round; stroke-linejoin:round; stroke-width:4; stroke-opacity:1; fill:none" points="515.024,623.18 515.024,604.282 "/>
<polyline clip-path="url(#clip100)" style="stroke:#000000; stroke-linecap:round; stroke-linejoin:round; stroke-width:4; stroke-opacity:1; fill:none" points="760.055,623.18 760.055,604.282 "/>
<polyline clip-path="url(#clip100)" style="stroke:#000000; stroke-linecap:round; stroke-linejoin:round; stroke-width:4; stroke-opacity:1; fill:none" points="1005.09,623.18 1005.09,604.282 "/>
<polyline clip-path="url(#clip100)" style="stroke:#000000; stroke-linecap:round; stroke-linejoin:round; stroke-width:4; stroke-opacity:1; fill:none" points="1250.12,623.18 1250.12,604.282 "/>
<polyline clip-path="url(#clip100)" style="stroke:#000000; stroke-linecap:round; stroke-linejoin:round; stroke-width:4; stroke-opacity:1; fill:none" points="1495.15,623.18 1495.15,604.282 "/>
<polyline clip-path="url(#clip100)" style="stroke:#000000; stroke-linecap:round; stroke-linejoin:round; stroke-width:4; stroke-opacity:1; fill:none" points="1740.18,623.18 1740.18,604.282 "/>
<polyline clip-path="url(#clip100)" style="stroke:#000000; stroke-linecap:round; stroke-linejoin:round; stroke-width:4; stroke-opacity:1; fill:none" points="1985.21,623.18 1985.21,604.282 "/>
<polyline clip-path="url(#clip100)" style="stroke:#000000; stroke-linecap:round; stroke-linejoin:round; stroke-width:4; stroke-opacity:1; fill:none" points="2230.24,623.18 2230.24,604.282 "/>
<path clip-path="url(#clip100)" d="M269.993 654.099 Q266.382 654.099 264.554 657.663 Q262.748 661.205 262.748 668.335 Q262.748 675.441 264.554 679.006 Q266.382 682.547 269.993 682.547 Q273.628 682.547 275.433 679.006 Q277.262 675.441 277.262 668.335 Q277.262 661.205 275.433 657.663 Q273.628 654.099 269.993 654.099 M269.993 650.395 Q275.804 650.395 278.859 655.001 Q281.938 659.585 281.938 668.335 Q281.938 677.061 278.859 681.668 Q275.804 686.251 269.993 686.251 Q264.183 686.251 261.105 681.668 Q258.049 677.061 258.049 668.335 Q258.049 659.585 261.105 655.001 Q264.183 650.395 269.993 650.395 Z" fill="#000000" fill-rule="nonzero" fill-opacity="1" /><path clip-path="url(#clip100)" d="M505.406 681.645 L513.045 681.645 L513.045 655.279 L504.735 656.946 L504.735 652.687 L512.999 651.02 L517.675 651.02 L517.675 681.645 L525.314 681.645 L525.314 685.58 L505.406 685.58 L505.406 681.645 Z" fill="#000000" fill-rule="nonzero" fill-opacity="1" /><path clip-path="url(#clip100)" d="M754.708 681.645 L771.027 681.645 L771.027 685.58 L749.083 685.58 L749.083 681.645 Q751.745 678.89 756.328 674.26 Q760.935 669.608 762.115 668.265 Q764.361 665.742 765.24 664.006 Q766.143 662.247 766.143 660.557 Q766.143 657.802 764.199 656.066 Q762.277 654.33 759.176 654.33 Q756.976 654.33 754.523 655.094 Q752.092 655.858 749.314 657.409 L749.314 652.687 Q752.139 651.552 754.592 650.974 Q757.046 650.395 759.083 650.395 Q764.453 650.395 767.648 653.08 Q770.842 655.765 770.842 660.256 Q770.842 662.386 770.032 664.307 Q769.245 666.205 767.138 668.798 Q766.56 669.469 763.458 672.686 Q760.356 675.881 754.708 681.645 Z" fill="#000000" fill-rule="nonzero" fill-opacity="1" /><path clip-path="url(#clip100)" d="M1009.33 666.946 Q1012.69 667.663 1014.57 669.932 Q1016.46 672.2 1016.46 675.534 Q1016.46 680.649 1012.94 683.45 Q1009.43 686.251 1002.94 686.251 Q1000.77 686.251 998.454 685.811 Q996.162 685.395 993.709 684.538 L993.709 680.024 Q995.653 681.159 997.968 681.737 Q1000.28 682.316 1002.81 682.316 Q1007.2 682.316 1009.5 680.58 Q1011.81 678.844 1011.81 675.534 Q1011.81 672.478 1009.66 670.765 Q1007.53 669.029 1003.71 669.029 L999.681 669.029 L999.681 665.186 L1003.89 665.186 Q1007.34 665.186 1009.17 663.821 Q1011 662.432 1011 659.839 Q1011 657.177 1009.1 655.765 Q1007.23 654.33 1003.71 654.33 Q1001.79 654.33 999.588 654.747 Q997.389 655.163 994.75 656.043 L994.75 651.876 Q997.412 651.136 999.727 650.765 Q1002.07 650.395 1004.13 650.395 Q1009.45 650.395 1012.55 652.825 Q1015.65 655.233 1015.65 659.353 Q1015.65 662.223 1014.01 664.214 Q1012.37 666.182 1009.33 666.946 Z" fill="#000000" fill-rule="nonzero" fill-opacity="1" /><path clip-path="url(#clip100)" d="M1253.13 655.094 L1241.32 673.543 L1253.13 673.543 L1253.13 655.094 M1251.9 651.02 L1257.78 651.02 L1257.78 673.543 L1262.71 673.543 L1262.71 677.432 L1257.78 677.432 L1257.78 685.58 L1253.13 685.58 L1253.13 677.432 L1237.52 677.432 L1237.52 672.918 L1251.9 651.02 Z" fill="#000000" fill-rule="nonzero" fill-opacity="1" /><path clip-path="url(#clip100)" d="M1485.43 651.02 L1503.78 651.02 L1503.78 654.955 L1489.71 654.955 L1489.71 663.427 Q1490.73 663.08 1491.75 662.918 Q1492.76 662.733 1493.78 662.733 Q1499.57 662.733 1502.95 665.904 Q1506.33 669.075 1506.33 674.492 Q1506.33 680.071 1502.86 683.172 Q1499.38 686.251 1493.06 686.251 Q1490.89 686.251 1488.62 685.881 Q1486.37 685.51 1483.97 684.77 L1483.97 680.071 Q1486.05 681.205 1488.27 681.76 Q1490.5 682.316 1492.97 682.316 Q1496.98 682.316 1499.31 680.21 Q1501.65 678.103 1501.65 674.492 Q1501.65 670.881 1499.31 668.774 Q1496.98 666.668 1492.97 666.668 Q1491.1 666.668 1489.22 667.085 Q1487.37 667.501 1485.43 668.381 L1485.43 651.02 Z" fill="#000000" fill-rule="nonzero" fill-opacity="1" /><path clip-path="url(#clip100)" d="M1740.58 666.436 Q1737.44 666.436 1735.58 668.589 Q1733.76 670.742 1733.76 674.492 Q1733.76 678.219 1735.58 680.395 Q1737.44 682.547 1740.58 682.547 Q1743.73 682.547 1745.56 680.395 Q1747.41 678.219 1747.41 674.492 Q1747.41 670.742 1745.56 668.589 Q1743.73 666.436 1740.58 666.436 M1749.87 651.784 L1749.87 656.043 Q1748.11 655.21 1746.3 654.77 Q1744.52 654.33 1742.76 654.33 Q1738.13 654.33 1735.68 657.455 Q1733.25 660.58 1732.9 666.899 Q1734.26 664.886 1736.32 663.821 Q1738.38 662.733 1740.86 662.733 Q1746.07 662.733 1749.08 665.904 Q1752.11 669.052 1752.11 674.492 Q1752.11 679.816 1748.96 683.034 Q1745.82 686.251 1740.58 686.251 Q1734.59 686.251 1731.42 681.668 Q1728.25 677.061 1728.25 668.335 Q1728.25 660.14 1732.13 655.279 Q1736.02 650.395 1742.57 650.395 Q1744.33 650.395 1746.12 650.742 Q1747.92 651.089 1749.87 651.784 Z" fill="#000000" fill-rule="nonzero" fill-opacity="1" /><path clip-path="url(#clip100)" d="M1974.1 651.02 L1996.32 651.02 L1996.32 653.011 L1983.77 685.58 L1978.89 685.58 L1990.7 654.955 L1974.1 654.955 L1974.1 651.02 Z" fill="#000000" fill-rule="nonzero" fill-opacity="1" /><path clip-path="url(#clip100)" d="M2230.24 669.168 Q2226.91 669.168 2224.99 670.95 Q2223.09 672.733 2223.09 675.858 Q2223.09 678.983 2224.99 680.765 Q2226.91 682.547 2230.24 682.547 Q2233.57 682.547 2235.5 680.765 Q2237.42 678.96 2237.42 675.858 Q2237.42 672.733 2235.5 670.95 Q2233.6 669.168 2230.24 669.168 M2225.56 667.177 Q2222.56 666.436 2220.87 664.376 Q2219.2 662.316 2219.2 659.353 Q2219.2 655.21 2222.14 652.802 Q2225.1 650.395 2230.24 650.395 Q2235.4 650.395 2238.34 652.802 Q2241.28 655.21 2241.28 659.353 Q2241.28 662.316 2239.59 664.376 Q2237.93 666.436 2234.94 667.177 Q2238.32 667.964 2240.19 670.256 Q2242.09 672.548 2242.09 675.858 Q2242.09 680.881 2239.01 683.566 Q2235.96 686.251 2230.24 686.251 Q2224.52 686.251 2221.44 683.566 Q2218.39 680.881 2218.39 675.858 Q2218.39 672.548 2220.29 670.256 Q2222.18 667.964 2225.56 667.177 M2223.85 659.793 Q2223.85 662.478 2225.52 663.983 Q2227.21 665.487 2230.24 665.487 Q2233.25 665.487 2234.94 663.983 Q2236.65 662.478 2236.65 659.793 Q2236.65 657.108 2234.94 655.603 Q2233.25 654.099 2230.24 654.099 Q2227.21 654.099 2225.52 655.603 Q2223.85 657.108 2223.85 659.793 Z" fill="#000000" fill-rule="nonzero" fill-opacity="1" /><path clip-path="url(#clip100)" d="M1258.59 731.913 Q1258.59 732.815 1258.17 733.04 Q1257.75 733.233 1256.59 733.233 L1250.41 733.233 L1245.51 752.686 Q1245.13 754.393 1245.13 755.842 Q1245.13 757.452 1245.61 758.161 Q1246.12 758.869 1247.19 758.869 Q1249.28 758.869 1251.53 756.969 Q1253.82 755.069 1255.75 750.431 Q1256.01 749.819 1256.14 749.691 Q1256.3 749.53 1256.72 749.53 Q1257.53 749.53 1257.53 750.174 Q1257.53 750.399 1257.07 751.43 Q1256.66 752.46 1255.72 753.974 Q1254.82 755.488 1253.63 756.905 Q1252.47 758.322 1250.7 759.352 Q1248.93 760.351 1247.03 760.351 Q1244.35 760.351 1242.65 758.644 Q1240.97 756.937 1240.97 754.264 Q1240.97 753.394 1241.65 750.625 Q1242.32 747.823 1246 733.233 L1240.17 733.233 Q1239.36 733.233 1239.04 733.201 Q1238.75 733.169 1238.52 733.008 Q1238.33 732.815 1238.33 732.428 Q1238.33 731.816 1238.59 731.559 Q1238.85 731.269 1239.17 731.237 Q1239.52 731.172 1240.33 731.172 L1246.51 731.172 L1249.09 720.705 Q1249.34 719.675 1249.99 719.095 Q1250.67 718.483 1251.05 718.419 Q1251.44 718.322 1251.73 718.322 Q1252.6 718.322 1253.11 718.805 Q1253.63 719.256 1253.63 720.093 Q1253.63 720.544 1250.92 731.172 L1256.72 731.172 Q1257.46 731.172 1257.75 731.204 Q1258.07 731.237 1258.33 731.398 Q1258.59 731.559 1258.59 731.913 Z" fill="#000000" fill-rule="nonzero" fill-opacity="1" /><polyline clip-path="url(#clip102)" style="stroke:#000000; stroke-linecap:round; stroke-linejoin:round; stroke-width:2; stroke-opacity:0.1; fill:none" points="147.478,555.467 2352.76,555.467 "/>
<polyline clip-path="url(#clip102)" style="stroke:#000000; stroke-linecap:round; stroke-linejoin:round; stroke-width:2; stroke-opacity:0.1; fill:none" points="147.478,420.042 2352.76,420.042 "/>
<polyline clip-path="url(#clip102)" style="stroke:#000000; stroke-linecap:round; stroke-linejoin:round; stroke-width:2; stroke-opacity:0.1; fill:none" points="147.478,284.617 2352.76,284.617 "/>
<polyline clip-path="url(#clip100)" style="stroke:#000000; stroke-linecap:round; stroke-linejoin:round; stroke-width:4; stroke-opacity:1; fill:none" points="147.478,623.18 147.478,216.904 "/>
<polyline clip-path="url(#clip100)" style="stroke:#000000; stroke-linecap:round; stroke-linejoin:round; stroke-width:4; stroke-opacity:1; fill:none" points="147.478,555.467 166.376,555.467 "/>
<polyline clip-path="url(#clip100)" style="stroke:#000000; stroke-linecap:round; stroke-linejoin:round; stroke-width:4; stroke-opacity:1; fill:none" points="147.478,420.042 166.376,420.042 "/>
<polyline clip-path="url(#clip100)" style="stroke:#000000; stroke-linecap:round; stroke-linejoin:round; stroke-width:4; stroke-opacity:1; fill:none" points="147.478,284.617 166.376,284.617 "/>
<path clip-path="url(#clip100)" d="M50.9921 555.919 L80.6679 555.919 L80.6679 559.854 L50.9921 559.854 L50.9921 555.919 Z" fill="#000000" fill-rule="nonzero" fill-opacity="1" /><path clip-path="url(#clip100)" d="M91.5706 568.812 L99.2095 568.812 L99.2095 542.446 L90.8993 544.113 L90.8993 539.854 L99.1632 538.187 L103.839 538.187 L103.839 568.812 L111.478 568.812 L111.478 572.747 L91.5706 572.747 L91.5706 568.812 Z" fill="#000000" fill-rule="nonzero" fill-opacity="1" /><path clip-path="url(#clip100)" d="M99.5335 405.841 Q95.9224 405.841 94.0937 409.406 Q92.2882 412.947 92.2882 420.077 Q92.2882 427.183 94.0937 430.748 Q95.9224 434.29 99.5335 434.29 Q103.168 434.29 104.973 430.748 Q106.802 427.183 106.802 420.077 Q106.802 412.947 104.973 409.406 Q103.168 405.841 99.5335 405.841 M99.5335 402.137 Q105.344 402.137 108.399 406.744 Q111.478 411.327 111.478 420.077 Q111.478 428.804 108.399 433.41 Q105.344 437.993 99.5335 437.993 Q93.7234 437.993 90.6447 433.41 Q87.5892 428.804 87.5892 420.077 Q87.5892 411.327 90.6447 406.744 Q93.7234 402.137 99.5335 402.137 Z" fill="#000000" fill-rule="nonzero" fill-opacity="1" /><path clip-path="url(#clip100)" d="M91.5706 297.962 L99.2095 297.962 L99.2095 271.596 L90.8993 273.263 L90.8993 269.004 L99.1632 267.337 L103.839 267.337 L103.839 297.962 L111.478 297.962 L111.478 301.897 L91.5706 301.897 L91.5706 297.962 Z" fill="#000000" fill-rule="nonzero" fill-opacity="1" /><path clip-path="url(#clip100)" d="M1187.43 78.9872 Q1187.43 81.1904 1186.1 82.3688 Q1184.77 83.496 1183.03 83.496 Q1181.34 83.496 1180 82.3688 Q1178.72 81.1904 1178.72 79.0897 Q1178.72 77.6551 1179.64 76.3741 Q1180.57 75.042 1182.62 74.7858 Q1180.05 72.5826 1176.01 72.5826 Q1174.01 72.5826 1172.63 73.3512 Q1171.29 74.0685 1169.96 76.2717 Q1168.63 78.4748 1167.71 82.9837 Q1166.84 87.4925 1166.27 94.5119 L1164.27 120.643 Q1163.66 129.506 1161.46 146.927 Q1159.3 164.296 1158.28 168.293 Q1157.36 172.084 1155.97 175.21 Q1154.59 178.335 1152.54 181.051 Q1150.49 183.817 1147.52 185.354 Q1144.55 186.891 1140.96 186.891 Q1136.2 186.891 1132.81 184.381 Q1129.43 181.922 1129.43 178.181 Q1129.43 175.978 1130.77 174.8 Q1132.1 173.672 1133.84 173.672 Q1135.53 173.672 1136.81 174.8 Q1138.14 175.978 1138.14 178.079 Q1138.14 179.513 1137.22 180.794 Q1136.3 182.126 1134.25 182.383 Q1136.81 184.586 1140.96 184.586 Q1144.14 184.586 1146.24 182.741 Q1148.34 180.897 1149.88 175.978 Q1151.41 171.059 1152.08 162.657 L1154.08 136.526 Q1154.74 127.303 1156.9 110.139 Q1159.1 92.9748 1160.07 88.466 Q1164.17 70.277 1175.9 70.277 Q1180.67 70.277 1184.05 72.7876 Q1187.43 75.2469 1187.43 78.9872 Z" fill="#000000" fill-rule="nonzero" fill-opacity="1" /><path clip-path="url(#clip100)" d="M1140.1 233.882 Q1140.1 225.245 1142.28 220.54 Q1145.32 213.539 1152.49 213.539 Q1154.01 213.539 1155.59 213.969 Q1157.2 214.371 1159.2 215.949 Q1161.24 217.527 1162.48 220.11 Q1164.83 225.102 1164.83 233.882 Q1164.83 242.461 1162.65 247.138 Q1159.46 253.967 1152.43 253.967 Q1149.79 253.967 1147.1 252.618 Q1144.43 251.27 1142.73 248.027 Q1140.1 243.178 1140.1 233.882 M1144.97 233.165 Q1144.97 242.031 1145.6 245.56 Q1146.32 249.376 1148.27 251.04 Q1150.25 252.676 1152.43 252.676 Q1154.79 252.676 1156.74 250.925 Q1158.72 249.146 1159.32 245.33 Q1159.98 241.572 1159.95 233.165 Q1159.95 224.987 1159.38 221.716 Q1158.6 217.9 1156.54 216.38 Q1154.5 214.83 1152.43 214.83 Q1151.66 214.83 1150.83 215.06 Q1150.02 215.289 1148.85 215.949 Q1147.67 216.609 1146.75 218.245 Q1145.86 219.88 1145.43 222.348 Q1144.97 225.532 1144.97 233.165 Z" fill="#000000" fill-rule="nonzero" fill-opacity="1" /><path clip-path="url(#clip100)" d="M1155.47 23.3362 Q1155.47 23.8814 1155.36 24.3404 L1153.75 34.555 Q1153.67 35.3297 1153.49 35.6166 Q1153.35 35.9035 1152.89 35.9035 Q1152.17 35.9035 1152.17 35.1575 Q1152.17 34.7271 1152.35 34.0385 Q1152.83 30.7963 1152.83 29.3329 Q1152.83 28.3574 1152.63 27.6401 Q1152.46 26.8941 1152.17 26.3776 Q1151.92 25.8612 1151.31 25.5168 Q1150.71 25.1725 1150.14 24.9717 Q1149.56 24.7708 1148.53 24.6848 Q1147.5 24.57 1146.61 24.5413 Q1145.72 24.5126 1144.25 24.5126 Q1141.07 24.5126 1140.55 24.6274 Q1140.01 24.7708 1139.72 25.2012 Q1139.46 25.6029 1139.18 26.808 L1131.37 57.9967 L1131.14 59.2305 Q1131.14 59.9191 1131.57 60.1487 Q1132 60.3782 1133.32 60.5217 Q1135.22 60.6651 1137.08 60.6651 Q1137.14 60.6651 1137.25 60.6651 Q1137.88 60.6651 1138.14 60.6938 Q1138.4 60.6938 1138.66 60.7512 Q1138.92 60.8086 1138.98 60.9521 Q1139.06 61.0668 1139.06 61.2964 Q1139.06 61.8415 1138.83 62.1285 Q1138.6 62.3867 1138.37 62.4441 Q1138.17 62.4728 1137.77 62.4728 Q1136.97 62.4728 1135.25 62.4154 Q1133.52 62.358 1132.66 62.358 L1127.79 62.3006 L1122.79 62.358 Q1122.02 62.358 1120.38 62.4154 Q1118.75 62.4728 1117.97 62.4728 Q1116.97 62.4728 1116.97 61.7555 Q1116.97 60.9521 1117.34 60.8086 Q1117.74 60.6651 1119.44 60.6651 Q1121.82 60.6651 1123.11 60.5504 Q1124.4 60.4356 1125.09 60.0339 Q1125.81 59.6322 1126.01 59.2305 Q1126.21 58.8001 1126.44 57.8246 L1134.33 26.4637 Q1134.56 25.7751 1134.56 25.2299 Q1134.56 24.943 1134.47 24.8282 Q1134.41 24.7135 1134.04 24.6274 Q1133.67 24.5126 1132.89 24.5126 L1130.6 24.5126 Q1128.24 24.5126 1126.78 24.6274 Q1125.35 24.7135 1123.97 25.1438 Q1122.62 25.5742 1121.82 26.1768 Q1121.04 26.7793 1120.18 28.0131 Q1119.32 29.2469 1118.69 30.7389 Q1118.09 32.2309 1117.23 34.6697 Q1116.94 35.4731 1116.77 35.7027 Q1116.62 35.9035 1116.22 35.9035 Q1115.94 35.9035 1115.71 35.7314 Q1115.5 35.5305 1115.5 35.2723 Q1115.79 34.3254 1115.85 34.2107 L1119.38 23.8527 Q1119.67 23.0206 1119.92 22.8771 Q1120.21 22.705 1121.27 22.705 L1153.87 22.705 Q1154.38 22.705 1154.56 22.705 Q1154.73 22.705 1155.01 22.7624 Q1155.3 22.8197 1155.39 22.9632 Q1155.47 23.1067 1155.47 23.3362 Z" fill="#000000" fill-rule="nonzero" fill-opacity="1" /><path clip-path="url(#clip100)" d="M1180.2 67.3878 Q1179.66 69.9788 1178.95 71.4651 Q1177.83 73.7346 1175.92 73.7346 Q1174.47 73.7346 1173.45 72.8509 Q1172.43 71.9672 1172.19 70.6416 Q1169.55 73.7346 1166.82 73.7346 Q1164.41 73.7346 1162.89 71.9069 Q1161.36 70.0591 1161.36 67.1468 Q1161.36 64.2145 1162.81 61.4026 Q1164.27 58.5907 1166.58 56.8434 Q1168.89 55.096 1171.26 55.096 Q1173.77 55.096 1175.06 57.7271 Q1175.16 57.004 1175.62 56.4617 Q1176.08 55.9195 1176.78 55.9195 Q1177.33 55.9195 1177.65 56.2207 Q1177.97 56.5019 1177.97 57.0241 Q1177.97 57.2852 1177.69 58.4301 L1176.2 64.1743 L1175.3 67.89 Q1174.96 69.2557 1174.86 69.7578 Q1174.78 70.26 1174.78 70.9228 Q1174.78 72.8107 1176 72.8107 Q1176.6 72.8107 1177.09 72.4291 Q1177.57 72.0475 1177.95 71.2441 Q1178.33 70.4407 1178.57 69.6976 Q1178.81 68.9344 1179.13 67.7293 Q1179.24 67.2473 1179.32 67.1267 Q1179.42 66.9862 1179.7 66.9862 Q1180.2 66.9862 1180.2 67.3878 M1174.56 59.6151 Q1174.56 59.4343 1174.41 58.9322 Q1174.27 58.4301 1173.95 57.7271 Q1173.63 57.0241 1172.93 56.522 Q1172.25 55.9998 1171.32 55.9998 Q1170.08 55.9998 1168.77 57.0643 Q1167.49 58.1288 1166.54 59.9364 Q1165.82 61.3825 1165.04 64.4153 Q1164.27 67.4481 1164.27 68.9545 Q1164.27 69.8784 1164.47 70.7018 Q1164.69 71.5052 1165.32 72.168 Q1165.94 72.8107 1166.9 72.8107 Q1169.25 72.8107 1171.56 69.8984 Q1172 69.3963 1172.1 69.1955 Q1172.23 68.9745 1172.39 68.372 L1174.43 60.318 Q1174.56 59.7155 1174.56 59.6151 Z" fill="#000000" fill-rule="nonzero" fill-opacity="1" /><path clip-path="url(#clip100)" d="M1254.59 96.4384 L1250.04 114.802 Q1249.8 115.908 1249.59 116.195 Q1249.39 116.482 1248.81 116.482 Q1248.36 116.482 1248.08 116.277 Q1247.83 116.072 1247.83 115.867 L1247.79 115.662 Q1247.79 115.539 1247.87 114.925 Q1247.95 114.269 1248.03 113.203 Q1248.12 112.137 1248.12 110.949 Q1248.12 104.226 1244.84 101.111 Q1241.6 97.955 1236.02 97.955 Q1232.17 97.955 1228.73 100.004 Q1225.29 102.054 1223.32 105.292 Q1221.35 108.489 1221.35 111.85 Q1221.35 114.925 1222.91 116.892 Q1224.47 118.86 1226.47 119.515 L1232.09 121.032 Q1237.99 122.549 1239.67 123.204 Q1241.35 123.819 1242.75 125.213 Q1246.89 129.066 1246.89 135.05 Q1246.89 140.215 1243.98 145.216 Q1241.07 150.175 1236.07 153.413 Q1231.06 156.611 1225.53 156.611 Q1215.82 156.611 1211.35 150.585 L1207.25 155.34 Q1206.47 156.242 1206.23 156.406 Q1206.02 156.611 1205.73 156.611 Q1205.36 156.611 1205.08 156.365 Q1204.79 156.16 1204.79 155.791 Q1204.79 155.504 1207.21 145.871 Q1209.63 136.239 1209.83 136.034 Q1210.16 135.706 1210.69 135.706 Q1211.68 135.706 1211.68 136.649 Q1211.59 136.895 1211.51 137.223 Q1211.02 140.174 1211.02 141.773 Q1211.02 144.765 1212.05 147.06 Q1213.07 149.315 1214.59 150.626 Q1216.14 151.897 1218.23 152.717 Q1220.33 153.495 1222.09 153.782 Q1223.85 154.028 1225.69 154.028 Q1229.67 154.028 1233.2 151.733 Q1236.76 149.438 1238.77 145.871 Q1240.82 142.305 1240.82 138.575 Q1240.82 136.608 1240.29 135.091 Q1239.75 133.534 1239.02 132.673 Q1238.32 131.812 1237.13 131.156 Q1235.94 130.5 1235.12 130.255 Q1234.34 129.968 1233.11 129.681 L1224.14 127.303 Q1220.53 126.238 1217.95 123.163 Q1215.41 120.089 1215.41 115.375 Q1215.41 110.416 1218.32 105.825 Q1221.27 101.193 1226.06 98.4059 Q1230.9 95.5776 1236.11 95.5776 Q1240.21 95.5776 1243.36 97.1762 Q1246.52 98.7338 1248.12 101.644 L1252.17 96.8483 Q1252.99 95.9055 1253.16 95.7416 Q1253.36 95.5776 1253.65 95.5776 Q1254.14 95.5776 1254.35 95.8645 Q1254.59 96.1515 1254.59 96.4384 Z" fill="#000000" fill-rule="nonzero" fill-opacity="1" /><path clip-path="url(#clip100)" d="M1289.66 158.558 Q1289.66 160.193 1288.66 161.169 Q1287.68 162.144 1286.45 162.144 Q1285.36 162.144 1284.78 161.513 Q1284.21 160.882 1284.21 160.078 Q1284.21 159.734 1284.35 159.304 Q1284.5 158.845 1284.81 158.299 Q1285.16 157.754 1285.87 157.353 Q1286.59 156.951 1287.57 156.893 Q1287.37 156.693 1287.31 156.664 Q1286.88 156.32 1286.07 156.205 Q1285.96 156.147 1285.56 156.147 Q1283.58 156.147 1281.57 157.611 Q1279.59 159.045 1277.15 161.771 Q1274.08 164.956 1272.1 166.132 Q1280.79 167.28 1280.79 172.301 Q1280.79 173.133 1280.57 174.138 Q1280.11 176.031 1280.11 177.409 Q1280.11 180.163 1281.97 180.163 Q1283.78 180.163 1284.93 178.327 Q1286.1 176.49 1287.08 172.904 Q1287.22 172.244 1287.37 172.043 Q1287.51 171.842 1287.91 171.842 Q1288.63 171.842 1288.63 172.416 Q1287.97 175.773 1286.5 178.355 Q1284.64 181.483 1281.86 181.483 Q1279.53 181.483 1277.98 179.876 Q1276.46 178.241 1276.46 175.658 Q1276.46 175.027 1276.69 173.592 Q1276.86 173.019 1276.86 172.359 Q1276.86 171.01 1276.12 170.006 Q1275.37 168.973 1274.17 168.457 Q1272.96 167.94 1271.96 167.711 Q1270.98 167.452 1270.04 167.366 Q1267.17 179.503 1266.76 180.249 Q1266.51 180.766 1265.93 181.11 Q1265.36 181.483 1264.76 181.483 Q1264.18 181.483 1263.61 181.081 Q1263.06 180.708 1263.06 179.819 Q1263.06 179.36 1263.29 178.528 L1271.81 144.67 L1271.99 143.523 Q1271.99 143.178 1271.84 143.006 Q1271.73 142.805 1271.04 142.662 Q1270.38 142.519 1269.06 142.519 Q1268.51 142.519 1268.26 142.49 Q1268.03 142.461 1267.83 142.318 Q1267.63 142.146 1267.63 141.801 Q1267.63 141.313 1267.83 141.055 Q1268.06 140.768 1268.23 140.711 Q1268.4 140.654 1268.74 140.625 Q1269.23 140.596 1270.87 140.453 Q1272.5 140.281 1273.91 140.166 Q1275.31 140.051 1275.92 140.051 Q1276.26 140.051 1276.43 140.223 Q1276.63 140.367 1276.66 140.539 L1276.69 140.682 L1270.58 165.473 Q1273.11 164.468 1277.09 160.021 Q1281.71 154.856 1285.67 154.856 Q1287.54 154.856 1288.6 156.004 Q1289.66 157.123 1289.66 158.558 Z" fill="#000000" fill-rule="nonzero" fill-opacity="1" /><path clip-path="url(#clip100)" d="M1352.15 96.4384 L1347.6 114.802 Q1347.35 115.908 1347.15 116.195 Q1346.94 116.482 1346.37 116.482 Q1345.92 116.482 1345.63 116.277 Q1345.38 116.072 1345.38 115.867 L1345.34 115.662 Q1345.34 115.539 1345.42 114.925 Q1345.51 114.269 1345.59 113.203 Q1345.67 112.137 1345.67 110.949 Q1345.67 104.226 1342.39 101.111 Q1339.15 97.955 1333.58 97.955 Q1329.72 97.955 1326.28 100.004 Q1322.84 102.054 1320.87 105.292 Q1318.9 108.489 1318.9 111.85 Q1318.9 114.925 1320.46 116.892 Q1322.02 118.86 1324.03 119.515 L1329.64 121.032 Q1335.55 122.549 1337.23 123.204 Q1338.91 123.819 1340.3 125.213 Q1344.44 129.066 1344.44 135.05 Q1344.44 140.215 1341.53 145.216 Q1338.62 150.175 1333.62 153.413 Q1328.62 156.611 1323.08 156.611 Q1313.37 156.611 1308.9 150.585 L1304.8 155.34 Q1304.02 156.242 1303.78 156.406 Q1303.57 156.611 1303.29 156.611 Q1302.92 156.611 1302.63 156.365 Q1302.34 156.16 1302.34 155.791 Q1302.34 155.504 1304.76 145.871 Q1307.18 136.239 1307.39 136.034 Q1307.71 135.706 1308.25 135.706 Q1309.23 135.706 1309.23 136.649 Q1309.15 136.895 1309.07 137.223 Q1308.57 140.174 1308.57 141.773 Q1308.57 144.765 1309.6 147.06 Q1310.62 149.315 1312.14 150.626 Q1313.7 151.897 1315.79 152.717 Q1317.88 153.495 1319.64 153.782 Q1321.4 154.028 1323.25 154.028 Q1327.22 154.028 1330.75 151.733 Q1334.32 149.438 1336.32 145.871 Q1338.37 142.305 1338.37 138.575 Q1338.37 136.608 1337.84 135.091 Q1337.31 133.534 1336.57 132.673 Q1335.87 131.812 1334.68 131.156 Q1333.5 130.5 1332.68 130.255 Q1331.9 129.968 1330.67 129.681 L1321.69 127.303 Q1318.08 126.238 1315.5 123.163 Q1312.96 120.089 1312.96 115.375 Q1312.96 110.416 1315.87 105.825 Q1318.82 101.193 1323.62 98.4059 Q1328.45 95.5776 1333.66 95.5776 Q1337.76 95.5776 1340.92 97.1762 Q1344.07 98.7338 1345.67 101.644 L1349.73 96.8483 Q1350.55 95.9055 1350.71 95.7416 Q1350.92 95.5776 1351.2 95.5776 Q1351.7 95.5776 1351.9 95.8645 Q1352.15 96.1515 1352.15 96.4384 Z" fill="#000000" fill-rule="nonzero" fill-opacity="1" /><path clip-path="url(#clip100)" d="M1360.62 161.058 Q1360.62 152.422 1362.8 147.716 Q1365.84 140.715 1373.01 140.715 Q1374.53 140.715 1376.11 141.146 Q1377.72 141.547 1379.73 143.125 Q1381.76 144.703 1383 147.286 Q1385.35 152.278 1385.35 161.058 Q1385.35 169.637 1383.17 174.314 Q1379.98 181.143 1372.95 181.143 Q1370.31 181.143 1367.62 179.794 Q1364.95 178.446 1363.26 175.204 Q1360.62 170.355 1360.62 161.058 M1365.49 160.341 Q1365.49 169.207 1366.13 172.736 Q1366.84 176.552 1368.79 178.216 Q1370.77 179.852 1372.95 179.852 Q1375.31 179.852 1377.26 178.102 Q1379.24 176.323 1379.84 172.506 Q1380.5 168.748 1380.47 160.341 Q1380.47 152.164 1379.9 148.893 Q1379.12 145.076 1377.06 143.556 Q1375.02 142.006 1372.95 142.006 Q1372.18 142.006 1371.35 142.236 Q1370.54 142.465 1369.37 143.125 Q1368.19 143.785 1367.27 145.421 Q1366.38 147.056 1365.95 149.524 Q1365.49 152.709 1365.49 160.341 Z" fill="#000000" fill-rule="nonzero" fill-opacity="1" /><polyline clip-path="url(#clip102)" style="stroke:#009af9; stroke-linecap:round; stroke-linejoin:round; stroke-width:8; stroke-opacity:1; fill:none" points="269.993,420.042 515.024,284.617 515.024,420.042 760.055,555.467 760.055,420.042 1005.09,284.617 1005.09,420.042 1250.12,284.617 1250.12,420.042 1495.15,284.617 1495.15,420.042 1740.18,555.467 1740.18,420.042 1985.21,555.467 1985.21,420.042 2230.24,555.467 2230.24,420.042 2475.27,555.467 "/>
<path clip-path="url(#clip100)" d="M147.478 1423.18 L2352.76 1423.18 L2352.76 1016.9 L147.478 1016.9  Z" fill="#ffffff" fill-rule="evenodd" fill-opacity="1"/>
<defs>
  <clipPath id="clip103">
    <rect x="147" y="1016" width="2206" height="407"/>
  </clipPath>
</defs>
<polyline clip-path="url(#clip103)" style="stroke:#000000; stroke-linecap:round; stroke-linejoin:round; stroke-width:2; stroke-opacity:0.1; fill:none" points="269.993,1423.18 269.993,1016.9 "/>
<polyline clip-path="url(#clip103)" style="stroke:#000000; stroke-linecap:round; stroke-linejoin:round; stroke-width:2; stroke-opacity:0.1; fill:none" points="515.024,1423.18 515.024,1016.9 "/>
<polyline clip-path="url(#clip103)" style="stroke:#000000; stroke-linecap:round; stroke-linejoin:round; stroke-width:2; stroke-opacity:0.1; fill:none" points="760.055,1423.18 760.055,1016.9 "/>
<polyline clip-path="url(#clip103)" style="stroke:#000000; stroke-linecap:round; stroke-linejoin:round; stroke-width:2; stroke-opacity:0.1; fill:none" points="1005.09,1423.18 1005.09,1016.9 "/>
<polyline clip-path="url(#clip103)" style="stroke:#000000; stroke-linecap:round; stroke-linejoin:round; stroke-width:2; stroke-opacity:0.1; fill:none" points="1250.12,1423.18 1250.12,1016.9 "/>
<polyline clip-path="url(#clip103)" style="stroke:#000000; stroke-linecap:round; stroke-linejoin:round; stroke-width:2; stroke-opacity:0.1; fill:none" points="1495.15,1423.18 1495.15,1016.9 "/>
<polyline clip-path="url(#clip103)" style="stroke:#000000; stroke-linecap:round; stroke-linejoin:round; stroke-width:2; stroke-opacity:0.1; fill:none" points="1740.18,1423.18 1740.18,1016.9 "/>
<polyline clip-path="url(#clip103)" style="stroke:#000000; stroke-linecap:round; stroke-linejoin:round; stroke-width:2; stroke-opacity:0.1; fill:none" points="1985.21,1423.18 1985.21,1016.9 "/>
<polyline clip-path="url(#clip103)" style="stroke:#000000; stroke-linecap:round; stroke-linejoin:round; stroke-width:2; stroke-opacity:0.1; fill:none" points="2230.24,1423.18 2230.24,1016.9 "/>
<polyline clip-path="url(#clip100)" style="stroke:#000000; stroke-linecap:round; stroke-linejoin:round; stroke-width:4; stroke-opacity:1; fill:none" points="147.478,1423.18 2352.76,1423.18 "/>
<polyline clip-path="url(#clip100)" style="stroke:#000000; stroke-linecap:round; stroke-linejoin:round; stroke-width:4; stroke-opacity:1; fill:none" points="269.993,1423.18 269.993,1404.28 "/>
<polyline clip-path="url(#clip100)" style="stroke:#000000; stroke-linecap:round; stroke-linejoin:round; stroke-width:4; stroke-opacity:1; fill:none" points="515.024,1423.18 515.024,1404.28 "/>
<polyline clip-path="url(#clip100)" style="stroke:#000000; stroke-linecap:round; stroke-linejoin:round; stroke-width:4; stroke-opacity:1; fill:none" points="760.055,1423.18 760.055,1404.28 "/>
<polyline clip-path="url(#clip100)" style="stroke:#000000; stroke-linecap:round; stroke-linejoin:round; stroke-width:4; stroke-opacity:1; fill:none" points="1005.09,1423.18 1005.09,1404.28 "/>
<polyline clip-path="url(#clip100)" style="stroke:#000000; stroke-linecap:round; stroke-linejoin:round; stroke-width:4; stroke-opacity:1; fill:none" points="1250.12,1423.18 1250.12,1404.28 "/>
<polyline clip-path="url(#clip100)" style="stroke:#000000; stroke-linecap:round; stroke-linejoin:round; stroke-width:4; stroke-opacity:1; fill:none" points="1495.15,1423.18 1495.15,1404.28 "/>
<polyline clip-path="url(#clip100)" style="stroke:#000000; stroke-linecap:round; stroke-linejoin:round; stroke-width:4; stroke-opacity:1; fill:none" points="1740.18,1423.18 1740.18,1404.28 "/>
<polyline clip-path="url(#clip100)" style="stroke:#000000; stroke-linecap:round; stroke-linejoin:round; stroke-width:4; stroke-opacity:1; fill:none" points="1985.21,1423.18 1985.21,1404.28 "/>
<polyline clip-path="url(#clip100)" style="stroke:#000000; stroke-linecap:round; stroke-linejoin:round; stroke-width:4; stroke-opacity:1; fill:none" points="2230.24,1423.18 2230.24,1404.28 "/>
<path clip-path="url(#clip100)" d="M269.993 1454.1 Q266.382 1454.1 264.554 1457.66 Q262.748 1461.2 262.748 1468.33 Q262.748 1475.44 264.554 1479.01 Q266.382 1482.55 269.993 1482.55 Q273.628 1482.55 275.433 1479.01 Q277.262 1475.44 277.262 1468.33 Q277.262 1461.2 275.433 1457.66 Q273.628 1454.1 269.993 1454.1 M269.993 1450.39 Q275.804 1450.39 278.859 1455 Q281.938 1459.58 281.938 1468.33 Q281.938 1477.06 278.859 1481.67 Q275.804 1486.25 269.993 1486.25 Q264.183 1486.25 261.105 1481.67 Q258.049 1477.06 258.049 1468.33 Q258.049 1459.58 261.105 1455 Q264.183 1450.39 269.993 1450.39 Z" fill="#000000" fill-rule="nonzero" fill-opacity="1" /><path clip-path="url(#clip100)" d="M505.406 1481.64 L513.045 1481.64 L513.045 1455.28 L504.735 1456.95 L504.735 1452.69 L512.999 1451.02 L517.675 1451.02 L517.675 1481.64 L525.314 1481.64 L525.314 1485.58 L505.406 1485.58 L505.406 1481.64 Z" fill="#000000" fill-rule="nonzero" fill-opacity="1" /><path clip-path="url(#clip100)" d="M754.708 1481.64 L771.027 1481.64 L771.027 1485.58 L749.083 1485.58 L749.083 1481.64 Q751.745 1478.89 756.328 1474.26 Q760.935 1469.61 762.115 1468.27 Q764.361 1465.74 765.24 1464.01 Q766.143 1462.25 766.143 1460.56 Q766.143 1457.8 764.199 1456.07 Q762.277 1454.33 759.176 1454.33 Q756.976 1454.33 754.523 1455.09 Q752.092 1455.86 749.314 1457.41 L749.314 1452.69 Q752.139 1451.55 754.592 1450.97 Q757.046 1450.39 759.083 1450.39 Q764.453 1450.39 767.648 1453.08 Q770.842 1455.77 770.842 1460.26 Q770.842 1462.39 770.032 1464.31 Q769.245 1466.2 767.138 1468.8 Q766.56 1469.47 763.458 1472.69 Q760.356 1475.88 754.708 1481.64 Z" fill="#000000" fill-rule="nonzero" fill-opacity="1" /><path clip-path="url(#clip100)" d="M1009.33 1466.95 Q1012.69 1467.66 1014.57 1469.93 Q1016.46 1472.2 1016.46 1475.53 Q1016.46 1480.65 1012.94 1483.45 Q1009.43 1486.25 1002.94 1486.25 Q1000.77 1486.25 998.454 1485.81 Q996.162 1485.39 993.709 1484.54 L993.709 1480.02 Q995.653 1481.16 997.968 1481.74 Q1000.28 1482.32 1002.81 1482.32 Q1007.2 1482.32 1009.5 1480.58 Q1011.81 1478.84 1011.81 1475.53 Q1011.81 1472.48 1009.66 1470.77 Q1007.53 1469.03 1003.71 1469.03 L999.681 1469.03 L999.681 1465.19 L1003.89 1465.19 Q1007.34 1465.19 1009.17 1463.82 Q1011 1462.43 1011 1459.84 Q1011 1457.18 1009.1 1455.77 Q1007.23 1454.33 1003.71 1454.33 Q1001.79 1454.33 999.588 1454.75 Q997.389 1455.16 994.75 1456.04 L994.75 1451.88 Q997.412 1451.14 999.727 1450.77 Q1002.07 1450.39 1004.13 1450.39 Q1009.45 1450.39 1012.55 1452.83 Q1015.65 1455.23 1015.65 1459.35 Q1015.65 1462.22 1014.01 1464.21 Q1012.37 1466.18 1009.33 1466.95 Z" fill="#000000" fill-rule="nonzero" fill-opacity="1" /><path clip-path="url(#clip100)" d="M1253.13 1455.09 L1241.32 1473.54 L1253.13 1473.54 L1253.13 1455.09 M1251.9 1451.02 L1257.78 1451.02 L1257.78 1473.54 L1262.71 1473.54 L1262.71 1477.43 L1257.78 1477.43 L1257.78 1485.58 L1253.13 1485.58 L1253.13 1477.43 L1237.52 1477.43 L1237.52 1472.92 L1251.9 1451.02 Z" fill="#000000" fill-rule="nonzero" fill-opacity="1" /><path clip-path="url(#clip100)" d="M1485.43 1451.02 L1503.78 1451.02 L1503.78 1454.96 L1489.71 1454.96 L1489.71 1463.43 Q1490.73 1463.08 1491.75 1462.92 Q1492.76 1462.73 1493.78 1462.73 Q1499.57 1462.73 1502.95 1465.9 Q1506.33 1469.08 1506.33 1474.49 Q1506.33 1480.07 1502.86 1483.17 Q1499.38 1486.25 1493.06 1486.25 Q1490.89 1486.25 1488.62 1485.88 Q1486.37 1485.51 1483.97 1484.77 L1483.97 1480.07 Q1486.05 1481.2 1488.27 1481.76 Q1490.5 1482.32 1492.97 1482.32 Q1496.98 1482.32 1499.31 1480.21 Q1501.65 1478.1 1501.65 1474.49 Q1501.65 1470.88 1499.31 1468.77 Q1496.98 1466.67 1492.97 1466.67 Q1491.1 1466.67 1489.22 1467.08 Q1487.37 1467.5 1485.43 1468.38 L1485.43 1451.02 Z" fill="#000000" fill-rule="nonzero" fill-opacity="1" /><path clip-path="url(#clip100)" d="M1740.58 1466.44 Q1737.44 1466.44 1735.58 1468.59 Q1733.76 1470.74 1733.76 1474.49 Q1733.76 1478.22 1735.58 1480.39 Q1737.44 1482.55 1740.58 1482.55 Q1743.73 1482.55 1745.56 1480.39 Q1747.41 1478.22 1747.41 1474.49 Q1747.41 1470.74 1745.56 1468.59 Q1743.73 1466.44 1740.58 1466.44 M1749.87 1451.78 L1749.87 1456.04 Q1748.11 1455.21 1746.3 1454.77 Q1744.52 1454.33 1742.76 1454.33 Q1738.13 1454.33 1735.68 1457.45 Q1733.25 1460.58 1732.9 1466.9 Q1734.26 1464.89 1736.32 1463.82 Q1738.38 1462.73 1740.86 1462.73 Q1746.07 1462.73 1749.08 1465.9 Q1752.11 1469.05 1752.11 1474.49 Q1752.11 1479.82 1748.96 1483.03 Q1745.82 1486.25 1740.58 1486.25 Q1734.59 1486.25 1731.42 1481.67 Q1728.25 1477.06 1728.25 1468.33 Q1728.25 1460.14 1732.13 1455.28 Q1736.02 1450.39 1742.57 1450.39 Q1744.33 1450.39 1746.12 1450.74 Q1747.92 1451.09 1749.87 1451.78 Z" fill="#000000" fill-rule="nonzero" fill-opacity="1" /><path clip-path="url(#clip100)" d="M1974.1 1451.02 L1996.32 1451.02 L1996.32 1453.01 L1983.77 1485.58 L1978.89 1485.58 L1990.7 1454.96 L1974.1 1454.96 L1974.1 1451.02 Z" fill="#000000" fill-rule="nonzero" fill-opacity="1" /><path clip-path="url(#clip100)" d="M2230.24 1469.17 Q2226.91 1469.17 2224.99 1470.95 Q2223.09 1472.73 2223.09 1475.86 Q2223.09 1478.98 2224.99 1480.77 Q2226.91 1482.55 2230.24 1482.55 Q2233.57 1482.55 2235.5 1480.77 Q2237.42 1478.96 2237.42 1475.86 Q2237.42 1472.73 2235.5 1470.95 Q2233.6 1469.17 2230.24 1469.17 M2225.56 1467.18 Q2222.56 1466.44 2220.87 1464.38 Q2219.2 1462.32 2219.2 1459.35 Q2219.2 1455.21 2222.14 1452.8 Q2225.1 1450.39 2230.24 1450.39 Q2235.4 1450.39 2238.34 1452.8 Q2241.28 1455.21 2241.28 1459.35 Q2241.28 1462.32 2239.59 1464.38 Q2237.93 1466.44 2234.94 1467.18 Q2238.32 1467.96 2240.19 1470.26 Q2242.09 1472.55 2242.09 1475.86 Q2242.09 1480.88 2239.01 1483.57 Q2235.96 1486.25 2230.24 1486.25 Q2224.52 1486.25 2221.44 1483.57 Q2218.39 1480.88 2218.39 1475.86 Q2218.39 1472.55 2220.29 1470.26 Q2222.18 1467.96 2225.56 1467.18 M2223.85 1459.79 Q2223.85 1462.48 2225.52 1463.98 Q2227.21 1465.49 2230.24 1465.49 Q2233.25 1465.49 2234.94 1463.98 Q2236.65 1462.48 2236.65 1459.79 Q2236.65 1457.11 2234.94 1455.6 Q2233.25 1454.1 2230.24 1454.1 Q2227.21 1454.1 2225.52 1455.6 Q2223.85 1457.11 2223.85 1459.79 Z" fill="#000000" fill-rule="nonzero" fill-opacity="1" /><path clip-path="url(#clip100)" d="M1258.59 1531.91 Q1258.59 1532.81 1258.17 1533.04 Q1257.75 1533.23 1256.59 1533.23 L1250.41 1533.23 L1245.51 1552.69 Q1245.13 1554.39 1245.13 1555.84 Q1245.13 1557.45 1245.61 1558.16 Q1246.12 1558.87 1247.19 1558.87 Q1249.28 1558.87 1251.53 1556.97 Q1253.82 1555.07 1255.75 1550.43 Q1256.01 1549.82 1256.14 1549.69 Q1256.3 1549.53 1256.72 1549.53 Q1257.53 1549.53 1257.53 1550.17 Q1257.53 1550.4 1257.07 1551.43 Q1256.66 1552.46 1255.72 1553.97 Q1254.82 1555.49 1253.63 1556.9 Q1252.47 1558.32 1250.7 1559.35 Q1248.93 1560.35 1247.03 1560.35 Q1244.35 1560.35 1242.65 1558.64 Q1240.97 1556.94 1240.97 1554.26 Q1240.97 1553.39 1241.65 1550.62 Q1242.32 1547.82 1246 1533.23 L1240.17 1533.23 Q1239.36 1533.23 1239.04 1533.2 Q1238.75 1533.17 1238.52 1533.01 Q1238.33 1532.81 1238.33 1532.43 Q1238.33 1531.82 1238.59 1531.56 Q1238.85 1531.27 1239.17 1531.24 Q1239.52 1531.17 1240.33 1531.17 L1246.51 1531.17 L1249.09 1520.71 Q1249.34 1519.67 1249.99 1519.09 Q1250.67 1518.48 1251.05 1518.42 Q1251.44 1518.32 1251.73 1518.32 Q1252.6 1518.32 1253.11 1518.81 Q1253.63 1519.26 1253.63 1520.09 Q1253.63 1520.54 1250.92 1531.17 L1256.72 1531.17 Q1257.46 1531.17 1257.75 1531.2 Q1258.07 1531.24 1258.33 1531.4 Q1258.59 1531.56 1258.59 1531.91 Z" fill="#000000" fill-rule="nonzero" fill-opacity="1" /><polyline clip-path="url(#clip103)" style="stroke:#000000; stroke-linecap:round; stroke-linejoin:round; stroke-width:2; stroke-opacity:0.1; fill:none" points="147.478,1355.47 2352.76,1355.47 "/>
<polyline clip-path="url(#clip103)" style="stroke:#000000; stroke-linecap:round; stroke-linejoin:round; stroke-width:2; stroke-opacity:0.1; fill:none" points="147.478,1220.04 2352.76,1220.04 "/>
<polyline clip-path="url(#clip103)" style="stroke:#000000; stroke-linecap:round; stroke-linejoin:round; stroke-width:2; stroke-opacity:0.1; fill:none" points="147.478,1084.62 2352.76,1084.62 "/>
<polyline clip-path="url(#clip100)" style="stroke:#000000; stroke-linecap:round; stroke-linejoin:round; stroke-width:4; stroke-opacity:1; fill:none" points="147.478,1423.18 147.478,1016.9 "/>
<polyline clip-path="url(#clip100)" style="stroke:#000000; stroke-linecap:round; stroke-linejoin:round; stroke-width:4; stroke-opacity:1; fill:none" points="147.478,1355.47 166.376,1355.47 "/>
<polyline clip-path="url(#clip100)" style="stroke:#000000; stroke-linecap:round; stroke-linejoin:round; stroke-width:4; stroke-opacity:1; fill:none" points="147.478,1220.04 166.376,1220.04 "/>
<polyline clip-path="url(#clip100)" style="stroke:#000000; stroke-linecap:round; stroke-linejoin:round; stroke-width:4; stroke-opacity:1; fill:none" points="147.478,1084.62 166.376,1084.62 "/>
<path clip-path="url(#clip100)" d="M50.9921 1355.92 L80.6679 1355.92 L80.6679 1359.85 L50.9921 1359.85 L50.9921 1355.92 Z" fill="#000000" fill-rule="nonzero" fill-opacity="1" /><path clip-path="url(#clip100)" d="M91.5706 1368.81 L99.2095 1368.81 L99.2095 1342.45 L90.8993 1344.11 L90.8993 1339.85 L99.1632 1338.19 L103.839 1338.19 L103.839 1368.81 L111.478 1368.81 L111.478 1372.75 L91.5706 1372.75 L91.5706 1368.81 Z" fill="#000000" fill-rule="nonzero" fill-opacity="1" /><path clip-path="url(#clip100)" d="M99.5335 1205.84 Q95.9224 1205.84 94.0937 1209.41 Q92.2882 1212.95 92.2882 1220.08 Q92.2882 1227.18 94.0937 1230.75 Q95.9224 1234.29 99.5335 1234.29 Q103.168 1234.29 104.973 1230.75 Q106.802 1227.18 106.802 1220.08 Q106.802 1212.95 104.973 1209.41 Q103.168 1205.84 99.5335 1205.84 M99.5335 1202.14 Q105.344 1202.14 108.399 1206.74 Q111.478 1211.33 111.478 1220.08 Q111.478 1228.8 108.399 1233.41 Q105.344 1237.99 99.5335 1237.99 Q93.7234 1237.99 90.6447 1233.41 Q87.5892 1228.8 87.5892 1220.08 Q87.5892 1211.33 90.6447 1206.74 Q93.7234 1202.14 99.5335 1202.14 Z" fill="#000000" fill-rule="nonzero" fill-opacity="1" /><path clip-path="url(#clip100)" d="M91.5706 1097.96 L99.2095 1097.96 L99.2095 1071.6 L90.8993 1073.26 L90.8993 1069 L99.1632 1067.34 L103.839 1067.34 L103.839 1097.96 L111.478 1097.96 L111.478 1101.9 L91.5706 1101.9 L91.5706 1097.96 Z" fill="#000000" fill-rule="nonzero" fill-opacity="1" /><path clip-path="url(#clip100)" d="M1122.86 878.987 Q1122.86 881.19 1121.53 882.369 Q1120.2 883.496 1118.46 883.496 Q1116.77 883.496 1115.44 882.369 Q1114.15 881.19 1114.15 879.09 Q1114.15 877.655 1115.08 876.374 Q1116 875.042 1118.05 874.786 Q1115.49 872.583 1111.44 872.583 Q1109.44 872.583 1108.06 873.351 Q1106.73 874.068 1105.39 876.272 Q1104.06 878.475 1103.14 882.984 Q1102.27 887.492 1101.7 894.512 L1099.71 920.643 Q1099.09 929.506 1096.89 946.927 Q1094.74 964.296 1093.71 968.293 Q1092.79 972.084 1091.41 975.21 Q1090.02 978.335 1087.97 981.051 Q1085.92 983.817 1082.95 985.354 Q1079.98 986.891 1076.39 986.891 Q1071.63 986.891 1068.25 984.381 Q1064.86 981.922 1064.86 978.181 Q1064.86 975.978 1066.2 974.8 Q1067.53 973.672 1069.27 973.672 Q1070.96 973.672 1072.24 974.8 Q1073.58 975.978 1073.58 978.079 Q1073.58 979.513 1072.65 980.794 Q1071.73 982.126 1069.68 982.383 Q1072.24 984.586 1076.39 984.586 Q1079.57 984.586 1081.67 982.741 Q1083.77 980.897 1085.31 975.978 Q1086.85 971.059 1087.51 962.657 L1089.51 936.526 Q1090.18 927.303 1092.33 910.139 Q1094.53 892.975 1095.5 888.466 Q1099.6 870.277 1111.34 870.277 Q1116.1 870.277 1119.48 872.788 Q1122.86 875.247 1122.86 878.987 Z" fill="#000000" fill-rule="nonzero" fill-opacity="1" /><path clip-path="url(#clip100)" d="M1075.53 1033.88 Q1075.53 1025.25 1077.71 1020.54 Q1080.75 1013.54 1087.92 1013.54 Q1089.44 1013.54 1091.02 1013.97 Q1092.63 1014.37 1094.64 1015.95 Q1096.67 1017.53 1097.91 1020.11 Q1100.26 1025.1 1100.26 1033.88 Q1100.26 1042.46 1098.08 1047.14 Q1094.89 1053.97 1087.87 1053.97 Q1085.23 1053.97 1082.53 1052.62 Q1079.86 1051.27 1078.17 1048.03 Q1075.53 1043.18 1075.53 1033.88 M1080.41 1033.16 Q1080.41 1042.03 1081.04 1045.56 Q1081.75 1049.38 1083.7 1051.04 Q1085.68 1052.68 1087.87 1052.68 Q1090.22 1052.68 1092.17 1050.93 Q1094.15 1049.15 1094.75 1045.33 Q1095.41 1041.57 1095.38 1033.16 Q1095.38 1024.99 1094.81 1021.72 Q1094.03 1017.9 1091.97 1016.38 Q1089.93 1014.83 1087.87 1014.83 Q1087.09 1014.83 1086.26 1015.06 Q1085.45 1015.29 1084.28 1015.95 Q1083.1 1016.61 1082.18 1018.24 Q1081.29 1019.88 1080.86 1022.35 Q1080.41 1025.53 1080.41 1033.16 Z" fill="#000000" fill-rule="nonzero" fill-opacity="1" /><path clip-path="url(#clip100)" d="M1090.91 823.336 Q1090.91 823.881 1090.79 824.34 L1089.18 834.555 Q1089.1 835.33 1088.93 835.617 Q1088.78 835.904 1088.32 835.904 Q1087.61 835.904 1087.61 835.158 Q1087.61 834.727 1087.78 834.039 Q1088.27 830.796 1088.27 829.333 Q1088.27 828.357 1088.06 827.64 Q1087.89 826.894 1087.61 826.378 Q1087.35 825.861 1086.75 825.517 Q1086.14 825.173 1085.57 824.972 Q1084.99 824.771 1083.96 824.685 Q1082.93 824.57 1082.04 824.541 Q1081.15 824.513 1079.69 824.513 Q1076.5 824.513 1075.99 824.627 Q1075.44 824.771 1075.15 825.201 Q1074.9 825.603 1074.61 826.808 L1066.8 857.997 L1066.57 859.231 Q1066.57 859.919 1067 860.149 Q1067.44 860.378 1068.75 860.522 Q1070.65 860.665 1072.51 860.665 Q1072.57 860.665 1072.69 860.665 Q1073.32 860.665 1073.58 860.694 Q1073.83 860.694 1074.09 860.751 Q1074.35 860.809 1074.41 860.952 Q1074.49 861.067 1074.49 861.296 Q1074.49 861.842 1074.26 862.128 Q1074.03 862.387 1073.8 862.444 Q1073.6 862.473 1073.2 862.473 Q1072.4 862.473 1070.68 862.415 Q1068.96 862.358 1068.09 862.358 L1063.22 862.301 L1058.22 862.358 Q1057.45 862.358 1055.81 862.415 Q1054.18 862.473 1053.4 862.473 Q1052.4 862.473 1052.4 861.755 Q1052.4 860.952 1052.77 860.809 Q1053.17 860.665 1054.87 860.665 Q1057.25 860.665 1058.54 860.55 Q1059.83 860.436 1060.52 860.034 Q1061.24 859.632 1061.44 859.231 Q1061.64 858.8 1061.87 857.825 L1069.76 826.464 Q1069.99 825.775 1069.99 825.23 Q1069.99 824.943 1069.9 824.828 Q1069.85 824.713 1069.47 824.627 Q1069.1 824.513 1068.32 824.513 L1066.03 824.513 Q1063.68 824.513 1062.21 824.627 Q1060.78 824.713 1059.4 825.144 Q1058.05 825.574 1057.25 826.177 Q1056.47 826.779 1055.61 828.013 Q1054.75 829.247 1054.12 830.739 Q1053.52 832.231 1052.66 834.67 Q1052.37 835.473 1052.2 835.703 Q1052.06 835.904 1051.65 835.904 Q1051.37 835.904 1051.14 835.731 Q1050.94 835.531 1050.94 835.272 Q1051.22 834.325 1051.28 834.211 L1054.81 823.853 Q1055.1 823.021 1055.36 822.877 Q1055.64 822.705 1056.7 822.705 L1089.3 822.705 Q1089.82 822.705 1089.99 822.705 Q1090.16 822.705 1090.45 822.762 Q1090.73 822.82 1090.82 822.963 Q1090.91 823.107 1090.91 823.336 Z" fill="#000000" fill-rule="nonzero" fill-opacity="1" /><path clip-path="url(#clip100)" d="M1115.63 867.388 Q1115.09 869.979 1114.39 871.465 Q1113.26 873.735 1111.35 873.735 Q1109.91 873.735 1108.88 872.851 Q1107.86 871.967 1107.62 870.642 Q1104.99 873.735 1102.25 873.735 Q1099.84 873.735 1098.32 871.907 Q1096.79 870.059 1096.79 867.147 Q1096.79 864.214 1098.24 861.403 Q1099.7 858.591 1102.01 856.843 Q1104.32 855.096 1106.69 855.096 Q1109.2 855.096 1110.49 857.727 Q1110.59 857.004 1111.05 856.462 Q1111.51 855.919 1112.22 855.919 Q1112.76 855.919 1113.08 856.221 Q1113.4 856.502 1113.4 857.024 Q1113.4 857.285 1113.12 858.43 L1111.63 864.174 L1110.73 867.89 Q1110.39 869.256 1110.29 869.758 Q1110.21 870.26 1110.21 870.923 Q1110.21 872.811 1111.43 872.811 Q1112.04 872.811 1112.52 872.429 Q1113 872.048 1113.38 871.244 Q1113.76 870.441 1114 869.698 Q1114.25 868.934 1114.57 867.729 Q1114.67 867.247 1114.75 867.127 Q1114.85 866.986 1115.13 866.986 Q1115.63 866.986 1115.63 867.388 M1109.99 859.615 Q1109.99 859.434 1109.85 858.932 Q1109.71 858.43 1109.38 857.727 Q1109.06 857.024 1108.36 856.522 Q1107.68 856 1106.75 856 Q1105.51 856 1104.2 857.064 Q1102.92 858.129 1101.97 859.936 Q1101.25 861.383 1100.47 864.415 Q1099.7 867.448 1099.7 868.954 Q1099.7 869.878 1099.9 870.702 Q1100.13 871.505 1100.75 872.168 Q1101.37 872.811 1102.34 872.811 Q1104.68 872.811 1106.99 869.898 Q1107.44 869.396 1107.54 869.195 Q1107.66 868.975 1107.82 868.372 L1109.87 860.318 Q1109.99 859.715 1109.99 859.615 Z" fill="#000000" fill-rule="nonzero" fill-opacity="1" /><path clip-path="url(#clip100)" d="M1190.02 896.438 L1185.47 914.802 Q1185.23 915.908 1185.02 916.195 Q1184.82 916.482 1184.24 916.482 Q1183.79 916.482 1183.51 916.277 Q1183.26 916.072 1183.26 915.867 L1183.22 915.662 Q1183.22 915.539 1183.3 914.925 Q1183.38 914.269 1183.47 913.203 Q1183.55 912.137 1183.55 910.949 Q1183.55 904.226 1180.27 901.111 Q1177.03 897.955 1171.46 897.955 Q1167.6 897.955 1164.16 900.004 Q1160.72 902.054 1158.75 905.292 Q1156.78 908.489 1156.78 911.85 Q1156.78 914.925 1158.34 916.892 Q1159.9 918.86 1161.91 919.515 L1167.52 921.032 Q1173.42 922.549 1175.1 923.204 Q1176.78 923.819 1178.18 925.213 Q1182.32 929.066 1182.32 935.05 Q1182.32 940.215 1179.41 945.216 Q1176.5 950.175 1171.5 953.413 Q1166.5 956.611 1160.96 956.611 Q1151.25 956.611 1146.78 950.585 L1142.68 955.34 Q1141.9 956.242 1141.66 956.406 Q1141.45 956.611 1141.17 956.611 Q1140.8 956.611 1140.51 956.365 Q1140.22 956.16 1140.22 955.791 Q1140.22 955.504 1142.64 945.871 Q1145.06 936.239 1145.26 936.034 Q1145.59 935.706 1146.12 935.706 Q1147.11 935.706 1147.11 936.649 Q1147.03 936.895 1146.94 937.223 Q1146.45 940.174 1146.45 941.773 Q1146.45 944.765 1147.48 947.06 Q1148.5 949.315 1150.02 950.626 Q1151.58 951.897 1153.67 952.717 Q1155.76 953.495 1157.52 953.782 Q1159.28 954.028 1161.13 954.028 Q1165.1 954.028 1168.63 951.733 Q1172.19 949.438 1174.2 945.871 Q1176.25 942.305 1176.25 938.575 Q1176.25 936.608 1175.72 935.091 Q1175.19 933.534 1174.45 932.673 Q1173.75 931.812 1172.56 931.156 Q1171.37 930.5 1170.55 930.255 Q1169.78 929.968 1168.55 929.681 L1159.57 927.303 Q1155.96 926.238 1153.38 923.163 Q1150.84 920.089 1150.84 915.375 Q1150.84 910.416 1153.75 905.825 Q1156.7 901.193 1161.5 898.406 Q1166.33 895.578 1171.54 895.578 Q1175.64 895.578 1178.79 897.176 Q1181.95 898.734 1183.55 901.644 L1187.61 896.848 Q1188.43 895.906 1188.59 895.742 Q1188.79 895.578 1189.08 895.578 Q1189.57 895.578 1189.78 895.865 Q1190.02 896.151 1190.02 896.438 Z" fill="#000000" fill-rule="nonzero" fill-opacity="1" /><path clip-path="url(#clip100)" d="M1225.09 958.558 Q1225.09 960.193 1224.09 961.169 Q1223.11 962.144 1221.88 962.144 Q1220.79 962.144 1220.22 961.513 Q1219.64 960.882 1219.64 960.078 Q1219.64 959.734 1219.78 959.304 Q1219.93 958.845 1220.24 958.299 Q1220.59 957.754 1221.31 957.353 Q1222.02 956.951 1223 956.893 Q1222.8 956.693 1222.74 956.664 Q1222.31 956.32 1221.51 956.205 Q1221.39 956.147 1220.99 956.147 Q1219.01 956.147 1217 957.611 Q1215.02 959.045 1212.58 961.771 Q1209.51 964.956 1207.53 966.132 Q1216.23 967.28 1216.23 972.301 Q1216.23 973.133 1216 974.138 Q1215.54 976.031 1215.54 977.409 Q1215.54 980.163 1217.4 980.163 Q1219.21 980.163 1220.36 978.327 Q1221.54 976.49 1222.51 972.904 Q1222.65 972.244 1222.8 972.043 Q1222.94 971.842 1223.34 971.842 Q1224.06 971.842 1224.06 972.416 Q1223.4 975.773 1221.94 978.355 Q1220.07 981.483 1217.29 981.483 Q1214.96 981.483 1213.42 979.876 Q1211.89 978.241 1211.89 975.658 Q1211.89 975.027 1212.12 973.592 Q1212.3 973.019 1212.3 972.359 Q1212.3 971.01 1211.55 970.006 Q1210.8 968.973 1209.6 968.457 Q1208.39 967.94 1207.39 967.711 Q1206.41 967.452 1205.47 967.366 Q1202.6 979.503 1202.2 980.249 Q1201.94 980.766 1201.36 981.11 Q1200.79 981.483 1200.19 981.483 Q1199.61 981.483 1199.04 981.081 Q1198.49 980.708 1198.49 979.819 Q1198.49 979.36 1198.72 978.528 L1207.25 944.67 L1207.42 943.523 Q1207.42 943.178 1207.27 943.006 Q1207.16 942.805 1206.47 942.662 Q1205.81 942.519 1204.49 942.519 Q1203.95 942.519 1203.69 942.49 Q1203.46 942.461 1203.26 942.318 Q1203.06 942.146 1203.06 941.801 Q1203.06 941.313 1203.26 941.055 Q1203.49 940.768 1203.66 940.711 Q1203.83 940.654 1204.18 940.625 Q1204.66 940.596 1206.3 940.453 Q1207.93 940.281 1209.34 940.166 Q1210.75 940.051 1211.35 940.051 Q1211.69 940.051 1211.87 940.223 Q1212.07 940.367 1212.1 940.539 L1212.12 940.682 L1206.01 965.473 Q1208.54 964.468 1212.53 960.021 Q1217.15 954.856 1221.1 954.856 Q1222.97 954.856 1224.03 956.004 Q1225.09 957.123 1225.09 958.558 Z" fill="#000000" fill-rule="nonzero" fill-opacity="1" /><path clip-path="url(#clip100)" d="M1237.78 933.78 Q1237.78 919.597 1243.06 908.161 Q1245.32 903.366 1248.47 899.349 Q1251.63 895.332 1253.72 893.569 Q1255.81 891.807 1256.39 891.807 Q1257.21 891.807 1257.25 892.626 Q1257.25 893.036 1256.14 894.061 Q1242.61 907.833 1242.65 933.78 Q1242.65 959.808 1255.81 973.047 Q1257.25 974.482 1257.25 974.933 Q1257.25 975.753 1256.39 975.753 Q1255.81 975.753 1253.8 974.072 Q1251.79 972.392 1248.68 968.539 Q1245.56 964.686 1243.31 959.972 Q1237.78 948.536 1237.78 933.78 Z" fill="#000000" fill-rule="nonzero" fill-opacity="1" /><path clip-path="url(#clip100)" d="M1325.43 932.591 Q1325.92 933.083 1325.92 933.78 Q1325.92 934.476 1325.43 934.968 Q1324.94 935.46 1324.24 935.46 L1271.69 935.46 Q1270.99 935.46 1270.5 934.968 Q1270.01 934.476 1270.01 933.78 Q1270.01 933.083 1270.5 932.591 Q1270.99 932.099 1271.69 932.099 L1324.24 932.099 Q1324.94 932.099 1325.43 932.591 Z" fill="#000000" fill-rule="nonzero" fill-opacity="1" /><path clip-path="url(#clip100)" d="M1384.48 896.438 L1379.93 914.802 Q1379.69 915.908 1379.48 916.195 Q1379.28 916.482 1378.7 916.482 Q1378.25 916.482 1377.96 916.277 Q1377.72 916.072 1377.72 915.867 L1377.68 915.662 Q1377.68 915.539 1377.76 914.925 Q1377.84 914.269 1377.92 913.203 Q1378 912.137 1378 910.949 Q1378 904.226 1374.73 901.111 Q1371.49 897.955 1365.91 897.955 Q1362.06 897.955 1358.62 900.004 Q1355.17 902.054 1353.21 905.292 Q1351.24 908.489 1351.24 911.85 Q1351.24 914.925 1352.8 916.892 Q1354.35 918.86 1356.36 919.515 L1361.98 921.032 Q1367.88 922.549 1369.56 923.204 Q1371.24 923.819 1372.63 925.213 Q1376.77 929.066 1376.77 935.05 Q1376.77 940.215 1373.86 945.216 Q1370.95 950.175 1365.95 953.413 Q1360.95 956.611 1355.42 956.611 Q1345.7 956.611 1341.24 950.585 L1337.14 955.34 Q1336.36 956.242 1336.11 956.406 Q1335.91 956.611 1335.62 956.611 Q1335.25 956.611 1334.97 956.365 Q1334.68 956.16 1334.68 955.791 Q1334.68 955.504 1337.1 945.871 Q1339.52 936.239 1339.72 936.034 Q1340.05 935.706 1340.58 935.706 Q1341.57 935.706 1341.57 936.649 Q1341.48 936.895 1341.4 937.223 Q1340.91 940.174 1340.91 941.773 Q1340.91 944.765 1341.93 947.06 Q1342.96 949.315 1344.48 950.626 Q1346.03 951.897 1348.12 952.717 Q1350.21 953.495 1351.98 953.782 Q1353.74 954.028 1355.58 954.028 Q1359.56 954.028 1363.08 951.733 Q1366.65 949.438 1368.66 945.871 Q1370.71 942.305 1370.71 938.575 Q1370.71 936.608 1370.18 935.091 Q1369.64 933.534 1368.9 932.673 Q1368.21 931.812 1367.02 931.156 Q1365.83 930.5 1365.01 930.255 Q1364.23 929.968 1363 929.681 L1354.03 927.303 Q1350.42 926.238 1347.84 923.163 Q1345.3 920.089 1345.3 915.375 Q1345.3 910.416 1348.21 905.825 Q1351.16 901.193 1355.95 898.406 Q1360.79 895.578 1365.99 895.578 Q1370.09 895.578 1373.25 897.176 Q1376.41 898.734 1378 901.644 L1382.06 896.848 Q1382.88 895.906 1383.05 895.742 Q1383.25 895.578 1383.54 895.578 Q1384.03 895.578 1384.23 895.865 Q1384.48 896.151 1384.48 896.438 Z" fill="#000000" fill-rule="nonzero" fill-opacity="1" /><path clip-path="url(#clip100)" d="M1392.95 961.058 Q1392.95 952.422 1395.13 947.716 Q1398.17 940.715 1405.35 940.715 Q1406.87 940.715 1408.45 941.146 Q1410.05 941.547 1412.06 943.125 Q1414.1 944.703 1415.33 947.286 Q1417.68 952.278 1417.68 961.058 Q1417.68 969.637 1415.5 974.314 Q1412.32 981.143 1405.29 981.143 Q1402.65 981.143 1399.95 979.794 Q1397.28 978.446 1395.59 975.204 Q1392.95 970.355 1392.95 961.058 M1397.83 960.341 Q1397.83 969.207 1398.46 972.736 Q1399.18 976.552 1401.13 978.216 Q1403.11 979.852 1405.29 979.852 Q1407.64 979.852 1409.59 978.102 Q1411.57 976.323 1412.18 972.506 Q1412.84 968.748 1412.81 960.341 Q1412.81 952.164 1412.23 948.893 Q1411.46 945.076 1409.39 943.556 Q1407.35 942.006 1405.29 942.006 Q1404.51 942.006 1403.68 942.236 Q1402.88 942.465 1401.7 943.125 Q1400.53 943.785 1399.61 945.421 Q1398.72 947.056 1398.29 949.524 Q1397.83 952.709 1397.83 960.341 Z" fill="#000000" fill-rule="nonzero" fill-opacity="1" /><path clip-path="url(#clip100)" d="M1431.01 974.933 Q1431.01 974.523 1432.08 973.498 Q1445.6 959.726 1445.6 933.78 Q1445.6 907.751 1432.61 894.594 Q1431.01 893.077 1431.01 892.626 Q1431.01 891.807 1431.83 891.807 Q1432.4 891.807 1434.41 893.487 Q1436.46 895.168 1439.54 899.021 Q1442.65 902.874 1444.95 907.587 Q1450.48 919.023 1450.48 933.78 Q1450.48 947.962 1445.19 959.398 Q1442.94 964.194 1439.78 968.211 Q1436.63 972.228 1434.54 973.99 Q1432.45 975.753 1431.83 975.753 Q1431.01 975.753 1431.01 974.933 Z" fill="#000000" fill-rule="nonzero" fill-opacity="1" /><polyline clip-path="url(#clip103)" style="stroke:#009af9; stroke-linecap:round; stroke-linejoin:round; stroke-width:8; stroke-opacity:1; fill:none" points="269.993,1220.04 515.024,1355.47 515.024,1220.04 760.055,1084.62 760.055,1220.04 1005.09,1355.47 1005.09,1220.04 1250.12,1355.47 1250.12,1220.04 1495.15,1355.47 1495.15,1220.04 1740.18,1084.62 1740.18,1220.04 1985.21,1084.62 1985.21,1220.04 2230.24,1084.62 2230.24,1220.04 2475.27,1084.62 "/>
</svg>
