<?xml version="1.0" encoding="utf-8"?>
<svg xmlns="http://www.w3.org/2000/svg" xmlns:xlink="http://www.w3.org/1999/xlink" width="600" height="400" viewBox="0 0 2400 1600">
<defs>
  <clipPath id="clip500">
    <rect x="0" y="0" width="2400" height="1600"/>
  </clipPath>
</defs>
<path clip-path="url(#clip500)" d="M0 1600 L2400 1600 L2400 0 L0 0  Z" fill="#ffffff" fill-rule="evenodd" fill-opacity="1"/>
<defs>
  <clipPath id="clip501">
    <rect x="480" y="0" width="1681" height="1600"/>
  </clipPath>
</defs>
<path clip-path="url(#clip500)" d="M110.881 623.18 L2352.76 623.18 L2352.76 123.472 L110.881 123.472  Z" fill="#ffffff" fill-rule="evenodd" fill-opacity="1"/>
<defs>
  <clipPath id="clip502">
    <rect x="110" y="123" width="2243" height="501"/>
  </clipPath>
</defs>
<polyline clip-path="url(#clip502)" style="stroke:#000000; stroke-linecap:round; stroke-linejoin:round; stroke-width:2; stroke-opacity:0.1; fill:none" points="235.429,623.18 235.429,123.472 "/>
<polyline clip-path="url(#clip502)" style="stroke:#000000; stroke-linecap:round; stroke-linejoin:round; stroke-width:2; stroke-opacity:0.1; fill:none" points="484.527,623.18 484.527,123.472 "/>
<polyline clip-path="url(#clip502)" style="stroke:#000000; stroke-linecap:round; stroke-linejoin:round; stroke-width:2; stroke-opacity:0.1; fill:none" points="733.624,623.18 733.624,123.472 "/>
<polyline clip-path="url(#clip502)" style="stroke:#000000; stroke-linecap:round; stroke-linejoin:round; stroke-width:2; stroke-opacity:0.1; fill:none" points="982.721,623.18 982.721,123.472 "/>
<polyline clip-path="url(#clip502)" style="stroke:#000000; stroke-linecap:round; stroke-linejoin:round; stroke-width:2; stroke-opacity:0.1; fill:none" points="1231.82,623.18 1231.82,123.472 "/>
<polyline clip-path="url(#clip502)" style="stroke:#000000; stroke-linecap:round; stroke-linejoin:round; stroke-width:2; stroke-opacity:0.1; fill:none" points="1480.92,623.18 1480.92,123.472 "/>
<polyline clip-path="url(#clip502)" style="stroke:#000000; stroke-linecap:round; stroke-linejoin:round; stroke-width:2; stroke-opacity:0.1; fill:none" points="1730.01,623.18 1730.01,123.472 "/>
<polyline clip-path="url(#clip502)" style="stroke:#000000; stroke-linecap:round; stroke-linejoin:round; stroke-width:2; stroke-opacity:0.1; fill:none" points="1979.11,623.18 1979.11,123.472 "/>
<polyline clip-path="url(#clip502)" style="stroke:#000000; stroke-linecap:round; stroke-linejoin:round; stroke-width:2; stroke-opacity:0.1; fill:none" points="2228.21,623.18 2228.21,123.472 "/>
<polyline clip-path="url(#clip500)" style="stroke:#000000; stroke-linecap:round; stroke-linejoin:round; stroke-width:4; stroke-opacity:1; fill:none" points="110.881,623.18 2352.76,623.18 "/>
<polyline clip-path="url(#clip500)" style="stroke:#000000; stroke-linecap:round; stroke-linejoin:round; stroke-width:4; stroke-opacity:1; fill:none" points="235.429,623.18 235.429,604.282 "/>
<polyline clip-path="url(#clip500)" style="stroke:#000000; stroke-linecap:round; stroke-linejoin:round; stroke-width:4; stroke-opacity:1; fill:none" points="484.527,623.18 484.527,604.282 "/>
<polyline clip-path="url(#clip500)" style="stroke:#000000; stroke-linecap:round; stroke-linejoin:round; stroke-width:4; stroke-opacity:1; fill:none" points="733.624,623.18 733.624,604.282 "/>
<polyline clip-path="url(#clip500)" style="stroke:#000000; stroke-linecap:round; stroke-linejoin:round; stroke-width:4; stroke-opacity:1; fill:none" points="982.721,623.18 982.721,604.282 "/>
<polyline clip-path="url(#clip500)" style="stroke:#000000; stroke-linecap:round; stroke-linejoin:round; stroke-width:4; stroke-opacity:1; fill:none" points="1231.82,623.18 1231.82,604.282 "/>
<polyline clip-path="url(#clip500)" style="stroke:#000000; stroke-linecap:round; stroke-linejoin:round; stroke-width:4; stroke-opacity:1; fill:none" points="1480.92,623.18 1480.92,604.282 "/>
<polyline clip-path="url(#clip500)" style="stroke:#000000; stroke-linecap:round; stroke-linejoin:round; stroke-width:4; stroke-opacity:1; fill:none" points="1730.01,623.18 1730.01,604.282 "/>
<polyline clip-path="url(#clip500)" style="stroke:#000000; stroke-linecap:round; stroke-linejoin:round; stroke-width:4; stroke-opacity:1; fill:none" points="1979.11,623.18 1979.11,604.282 "/>
<polyline clip-path="url(#clip500)" style="stroke:#000000; stroke-linecap:round; stroke-linejoin:round; stroke-width:4; stroke-opacity:1; fill:none" points="2228.21,623.18 2228.21,604.282 "/>
<path clip-path="url(#clip500)" d="M235.429 654.099 Q231.818 654.099 229.99 657.663 Q228.184 661.205 228.184 668.335 Q228.184 675.441 229.99 679.006 Q231.818 682.547 235.429 682.547 Q239.064 682.547 240.869 679.006 Q242.698 675.441 242.698 668.335 Q242.698 661.205 240.869 657.663 Q239.064 654.099 235.429 654.099 M235.429 650.395 Q241.24 650.395 244.295 655.001 Q247.374 659.585 247.374 668.335 Q247.374 677.061 244.295 681.668 Q241.24 686.251 235.429 686.251 Q229.619 686.251 226.541 681.668 Q223.485 677.061 223.485 668.335 Q223.485 659.585 226.541 655.001 Q229.619 650.395 235.429 650.395 Z" fill="#000000" fill-rule="nonzero" fill-opacity="1" /><path clip-path="url(#clip500)" d="M474.909 681.645 L482.548 681.645 L482.548 655.279 L474.237 656.946 L474.237 652.687 L482.501 651.02 L487.177 651.02 L487.177 681.645 L494.816 681.645 L494.816 685.58 L474.909 685.58 L474.909 681.645 Z" fill="#000000" fill-rule="nonzero" fill-opacity="1" /><path clip-path="url(#clip500)" d="M728.277 681.645 L744.596 681.645 L744.596 685.58 L722.652 685.58 L722.652 681.645 Q725.314 678.89 729.897 674.26 Q734.504 669.608 735.684 668.265 Q737.929 665.742 738.809 664.006 Q739.712 662.247 739.712 660.557 Q739.712 657.802 737.767 656.066 Q735.846 654.33 732.744 654.33 Q730.545 654.33 728.092 655.094 Q725.661 655.858 722.883 657.409 L722.883 652.687 Q725.707 651.552 728.161 650.974 Q730.615 650.395 732.652 650.395 Q738.022 650.395 741.216 653.08 Q744.411 655.765 744.411 660.256 Q744.411 662.386 743.601 664.307 Q742.814 666.205 740.707 668.798 Q740.129 669.469 737.027 672.686 Q733.925 675.881 728.277 681.645 Z" fill="#000000" fill-rule="nonzero" fill-opacity="1" /><path clip-path="url(#clip500)" d="M986.969 666.946 Q990.325 667.663 992.2 669.932 Q994.098 672.2 994.098 675.534 Q994.098 680.649 990.58 683.45 Q987.061 686.251 980.58 686.251 Q978.404 686.251 976.089 685.811 Q973.798 685.395 971.344 684.538 L971.344 680.024 Q973.288 681.159 975.603 681.737 Q977.918 682.316 980.441 682.316 Q984.839 682.316 987.131 680.58 Q989.446 678.844 989.446 675.534 Q989.446 672.478 987.293 670.765 Q985.163 669.029 981.344 669.029 L977.316 669.029 L977.316 665.186 L981.529 665.186 Q984.978 665.186 986.807 663.821 Q988.635 662.432 988.635 659.839 Q988.635 657.177 986.737 655.765 Q984.862 654.33 981.344 654.33 Q979.423 654.33 977.224 654.747 Q975.024 655.163 972.386 656.043 L972.386 651.876 Q975.048 651.136 977.362 650.765 Q979.7 650.395 981.761 650.395 Q987.085 650.395 990.186 652.825 Q993.288 655.233 993.288 659.353 Q993.288 662.223 991.645 664.214 Q990.001 666.182 986.969 666.946 Z" fill="#000000" fill-rule="nonzero" fill-opacity="1" /><path clip-path="url(#clip500)" d="M1234.83 655.094 L1223.02 673.543 L1234.83 673.543 L1234.83 655.094 M1233.6 651.02 L1239.48 651.02 L1239.48 673.543 L1244.41 673.543 L1244.41 677.432 L1239.48 677.432 L1239.48 685.58 L1234.83 685.58 L1234.83 677.432 L1219.23 677.432 L1219.23 672.918 L1233.6 651.02 Z" fill="#000000" fill-rule="nonzero" fill-opacity="1" /><path clip-path="url(#clip500)" d="M1471.19 651.02 L1489.55 651.02 L1489.55 654.955 L1475.48 654.955 L1475.48 663.427 Q1476.49 663.08 1477.51 662.918 Q1478.53 662.733 1479.55 662.733 Q1485.34 662.733 1488.72 665.904 Q1492.1 669.075 1492.1 674.492 Q1492.1 680.071 1488.62 683.172 Q1485.15 686.251 1478.83 686.251 Q1476.66 686.251 1474.39 685.881 Q1472.14 685.51 1469.74 684.77 L1469.74 680.071 Q1471.82 681.205 1474.04 681.76 Q1476.26 682.316 1478.74 682.316 Q1482.74 682.316 1485.08 680.21 Q1487.42 678.103 1487.42 674.492 Q1487.42 670.881 1485.08 668.774 Q1482.74 666.668 1478.74 666.668 Q1476.86 666.668 1474.99 667.085 Q1473.14 667.501 1471.19 668.381 L1471.19 651.02 Z" fill="#000000" fill-rule="nonzero" fill-opacity="1" /><path clip-path="url(#clip500)" d="M1730.42 666.436 Q1727.27 666.436 1725.42 668.589 Q1723.59 670.742 1723.59 674.492 Q1723.59 678.219 1725.42 680.395 Q1727.27 682.547 1730.42 682.547 Q1733.57 682.547 1735.39 680.395 Q1737.25 678.219 1737.25 674.492 Q1737.25 670.742 1735.39 668.589 Q1733.57 666.436 1730.42 666.436 M1739.7 651.784 L1739.7 656.043 Q1737.94 655.21 1736.14 654.77 Q1734.35 654.33 1732.59 654.33 Q1727.96 654.33 1725.51 657.455 Q1723.08 660.58 1722.73 666.899 Q1724.1 664.886 1726.16 663.821 Q1728.22 662.733 1730.7 662.733 Q1735.9 662.733 1738.91 665.904 Q1741.95 669.052 1741.95 674.492 Q1741.95 679.816 1738.8 683.034 Q1735.65 686.251 1730.42 686.251 Q1724.42 686.251 1721.25 681.668 Q1718.08 677.061 1718.08 668.335 Q1718.08 660.14 1721.97 655.279 Q1725.86 650.395 1732.41 650.395 Q1734.17 650.395 1735.95 650.742 Q1737.76 651.089 1739.7 651.784 Z" fill="#000000" fill-rule="nonzero" fill-opacity="1" /><path clip-path="url(#clip500)" d="M1968 651.02 L1990.22 651.02 L1990.22 653.011 L1977.67 685.58 L1972.79 685.58 L1984.6 654.955 L1968 654.955 L1968 651.02 Z" fill="#000000" fill-rule="nonzero" fill-opacity="1" /><path clip-path="url(#clip500)" d="M2228.21 669.168 Q2224.87 669.168 2222.95 670.95 Q2221.05 672.733 2221.05 675.858 Q2221.05 678.983 2222.95 680.765 Q2224.87 682.547 2228.21 682.547 Q2231.54 682.547 2233.46 680.765 Q2235.38 678.96 2235.38 675.858 Q2235.38 672.733 2233.46 670.95 Q2231.56 669.168 2228.21 669.168 M2223.53 667.177 Q2220.52 666.436 2218.83 664.376 Q2217.17 662.316 2217.17 659.353 Q2217.17 655.21 2220.11 652.802 Q2223.07 650.395 2228.21 650.395 Q2233.37 650.395 2236.31 652.802 Q2239.25 655.21 2239.25 659.353 Q2239.25 662.316 2237.56 664.376 Q2235.89 666.436 2232.91 667.177 Q2236.29 667.964 2238.16 670.256 Q2240.06 672.548 2240.06 675.858 Q2240.06 680.881 2236.98 683.566 Q2233.92 686.251 2228.21 686.251 Q2222.49 686.251 2219.41 683.566 Q2216.36 680.881 2216.36 675.858 Q2216.36 672.548 2218.25 670.256 Q2220.15 667.964 2223.53 667.177 M2221.82 659.793 Q2221.82 662.478 2223.49 663.983 Q2225.17 665.487 2228.21 665.487 Q2231.22 665.487 2232.91 663.983 Q2234.62 662.478 2234.62 659.793 Q2234.62 657.108 2232.91 655.603 Q2231.22 654.099 2228.21 654.099 Q2225.17 654.099 2223.49 655.603 Q2221.82 657.108 2221.82 659.793 Z" fill="#000000" fill-rule="nonzero" fill-opacity="1" /><path clip-path="url(#clip500)" d="M1240.29 731.913 Q1240.29 732.815 1239.87 733.04 Q1239.45 733.233 1238.29 733.233 L1232.11 733.233 L1227.21 752.686 Q1226.83 754.393 1226.83 755.842 Q1226.83 757.452 1227.31 758.161 Q1227.83 758.869 1228.89 758.869 Q1230.98 758.869 1233.24 756.969 Q1235.52 755.069 1237.46 750.431 Q1237.71 749.819 1237.84 749.691 Q1238 749.53 1238.42 749.53 Q1239.23 749.53 1239.23 750.174 Q1239.23 750.399 1238.78 751.43 Q1238.36 752.46 1237.42 753.974 Q1236.52 755.488 1235.33 756.905 Q1234.17 758.322 1232.4 759.352 Q1230.63 760.351 1228.73 760.351 Q1226.05 760.351 1224.35 758.644 Q1222.67 756.937 1222.67 754.264 Q1222.67 753.394 1223.35 750.625 Q1224.03 747.823 1227.7 733.233 L1221.87 733.233 Q1221.06 733.233 1220.74 733.201 Q1220.45 733.169 1220.23 733.008 Q1220.03 732.815 1220.03 732.428 Q1220.03 731.816 1220.29 731.559 Q1220.55 731.269 1220.87 731.237 Q1221.22 731.172 1222.03 731.172 L1228.21 731.172 L1230.79 720.705 Q1231.05 719.675 1231.69 719.095 Q1232.37 718.483 1232.75 718.419 Q1233.14 718.322 1233.43 718.322 Q1234.3 718.322 1234.81 718.805 Q1235.33 719.256 1235.33 720.093 Q1235.33 720.544 1232.62 731.172 L1238.42 731.172 Q1239.16 731.172 1239.45 731.204 Q1239.77 731.237 1240.03 731.398 Q1240.29 731.559 1240.29 731.913 Z" fill="#000000" fill-rule="nonzero" fill-opacity="1" /><polyline clip-path="url(#clip502)" style="stroke:#000000; stroke-linecap:round; stroke-linejoin:round; stroke-width:2; stroke-opacity:0.1; fill:none" points="110.881,623.18 2352.76,623.18 "/>
<polyline clip-path="url(#clip502)" style="stroke:#000000; stroke-linecap:round; stroke-linejoin:round; stroke-width:2; stroke-opacity:0.1; fill:none" points="110.881,290.041 2352.76,290.041 "/>
<polyline clip-path="url(#clip500)" style="stroke:#000000; stroke-linecap:round; stroke-linejoin:round; stroke-width:4; stroke-opacity:1; fill:none" points="110.881,623.18 110.881,123.472 "/>
<polyline clip-path="url(#clip500)" style="stroke:#000000; stroke-linecap:round; stroke-linejoin:round; stroke-width:4; stroke-opacity:1; fill:none" points="110.881,623.18 129.779,623.18 "/>
<polyline clip-path="url(#clip500)" style="stroke:#000000; stroke-linecap:round; stroke-linejoin:round; stroke-width:4; stroke-opacity:1; fill:none" points="110.881,290.041 129.779,290.041 "/>
<path clip-path="url(#clip500)" d="M62.9365 608.979 Q59.3254 608.979 57.4967 612.543 Q55.6912 616.085 55.6912 623.215 Q55.6912 630.321 57.4967 633.886 Q59.3254 637.427 62.9365 637.427 Q66.5707 637.427 68.3763 633.886 Q70.205 630.321 70.205 623.215 Q70.205 616.085 68.3763 612.543 Q66.5707 608.979 62.9365 608.979 M62.9365 605.275 Q68.7467 605.275 71.8022 609.881 Q74.8809 614.465 74.8809 623.215 Q74.8809 631.941 71.8022 636.548 Q68.7467 641.131 62.9365 641.131 Q57.1264 641.131 54.0477 636.548 Q50.9921 631.941 50.9921 623.215 Q50.9921 614.465 54.0477 609.881 Q57.1264 605.275 62.9365 605.275 Z" fill="#000000" fill-rule="nonzero" fill-opacity="1" /><path clip-path="url(#clip500)" d="M54.9736 303.386 L62.6124 303.386 L62.6124 277.021 L54.3023 278.687 L54.3023 274.428 L62.5661 272.761 L67.242 272.761 L67.242 303.386 L74.8809 303.386 L74.8809 307.321 L54.9736 307.321 L54.9736 303.386 Z" fill="#000000" fill-rule="nonzero" fill-opacity="1" /><path clip-path="url(#clip500)" d="M1133.17 27.1957 L1133.17 24.5724 Q1137.88 24.8183 1143.5 24.8183 Q1149.65 24.8183 1155.67 24.5724 L1155.67 27.1957 L1155.35 27.1957 Q1149.89 27.1957 1149.89 29.2861 Q1149.89 30.0239 1151.12 31.9504 L1170.18 63.8811 L1181.09 33.2211 Q1181.41 32.0324 1181.46 31.3766 Q1181.46 29.86 1179.98 28.6303 Q1178.5 27.3596 1175.23 27.1957 L1175.23 24.5724 Q1180.18 24.8183 1184.98 24.8183 Q1188.18 24.8183 1192.69 24.5724 L1192.69 27.1957 Q1190.19 27.2777 1188.51 27.8515 Q1186.83 28.4254 1185.84 29.737 Q1184.9 31.0487 1184.49 31.8685 Q1184.12 32.6473 1183.46 34.4918 L1173.22 63.4302 Q1171.95 66.8733 1171.25 68.6768 Q1170.59 70.4804 1168.79 73.8415 Q1166.99 77.2026 1165.14 79.0061 Q1163.3 80.8097 1160.31 82.2853 Q1157.35 83.7609 1153.75 83.7609 Q1148.79 83.7609 1145.67 80.3178 Q1142.56 76.8747 1142.56 72.6118 Q1142.56 70.0295 1144.07 68.8818 Q1145.59 67.7341 1147.27 67.7341 Q1149.2 67.7341 1150.59 69.0457 Q1151.98 70.3164 1151.98 72.3659 Q1151.98 74.3743 1150.67 75.727 Q1149.36 77.0387 1147.27 77.0387 Q1146.78 77.0387 1145.92 76.8747 Q1148.79 81.4245 1153.75 81.4245 Q1158.79 81.4245 1162.76 77.7765 Q1166.74 74.1284 1166.74 72.1609 Q1166.74 71.6691 1164.98 68.8408 L1142.84 31.7865 Q1141.74 29.942 1141.37 29.4501 Q1141 28.9582 1139.97 28.2204 Q1138.95 27.4416 1137.51 27.3187 Q1136.12 27.1957 1133.5 27.1957 L1133.17 27.1957 Z" fill="#000000" fill-rule="nonzero" fill-opacity="1" /><path clip-path="url(#clip500)" d="M1195.53 81.9164 L1195.53 79.3341 L1197.53 79.3341 Q1202.08 79.3341 1203.11 78.5962 Q1204.17 77.8174 1204.17 75.3581 L1204.17 31.1307 Q1204.17 28.7123 1203.11 27.9745 Q1202.04 27.1957 1197.53 27.1957 L1195.53 27.1957 L1195.53 24.5724 L1226.23 24.5724 Q1234.22 24.5724 1239.55 28.8762 Q1244.88 33.1391 1244.88 38.7547 Q1244.88 43.3865 1240.94 47.0755 Q1237.05 50.7645 1230.94 51.9532 Q1237.91 52.691 1242.5 56.9129 Q1247.13 61.0938 1247.13 66.5454 Q1247.13 72.6938 1241.84 77.3256 Q1236.56 81.9164 1228.44 81.9164 L1195.53 81.9164 M1211.14 75.9729 Q1211.14 78.1454 1211.76 78.7602 Q1212.37 79.3341 1215.24 79.3341 L1225.73 79.3341 Q1231.76 79.3341 1235.24 75.3991 Q1238.73 71.4231 1238.73 66.4634 Q1238.73 61.5037 1235.65 57.2818 Q1232.62 53.0189 1226.92 53.0189 L1211.14 53.0189 L1211.14 75.9729 M1211.14 51.1744 L1223.32 51.1744 Q1229.79 51.1744 1233.24 47.2804 Q1236.72 43.3865 1236.72 38.7547 Q1236.72 34.6557 1233.93 30.9257 Q1231.19 27.1957 1225.65 27.1957 L1215.24 27.1957 Q1212.37 27.1957 1211.76 27.7695 Q1211.14 28.3434 1211.14 30.5568 L1211.14 51.1744 Z" fill="#000000" fill-rule="nonzero" fill-opacity="1" /><path clip-path="url(#clip500)" d="M1254.35 81.9164 L1254.35 79.3341 Q1257.38 79.3341 1259.31 78.7602 Q1261.24 78.1454 1261.93 77.0387 Q1262.67 75.891 1262.83 75.1531 Q1263 74.3743 1263 73.1037 L1263 31.1307 Q1263 28.7123 1261.93 27.9745 Q1260.91 27.1957 1256.36 27.1957 L1254.35 27.1957 L1254.35 24.5724 L1268.53 24.5724 Q1270.05 24.5724 1270.46 24.8593 Q1270.87 25.1052 1271.48 26.4169 L1289.68 73.4316 L1308.05 26.171 Q1308.46 24.9823 1308.82 24.7773 Q1309.23 24.5724 1310.83 24.5724 L1325.01 24.5724 L1325.01 27.1957 L1323.01 27.1957 Q1318.46 27.1957 1317.39 27.9745 Q1316.37 28.7123 1316.37 31.1307 L1316.37 75.3581 Q1316.37 77.7765 1317.39 78.5553 Q1318.46 79.3341 1323.01 79.3341 L1325.01 79.3341 L1325.01 81.9164 Q1321.9 81.6704 1313 81.6704 Q1304.03 81.6704 1300.91 81.9164 L1300.91 79.3341 L1302.96 79.3341 Q1307.51 79.3341 1308.54 78.5962 Q1309.56 77.8174 1309.56 75.3581 L1309.56 27.1957 L1309.48 27.1957 L1288.86 80.3178 Q1288.29 81.9164 1287.35 81.9164 Q1286.32 81.9164 1285.66 80.0719 L1265.42 27.8515 L1265.33 27.8515 L1265.33 73.1037 Q1265.33 74.3743 1265.5 75.1531 Q1265.66 75.891 1266.36 77.0387 Q1267.1 78.1454 1269.02 78.7602 Q1270.95 79.3341 1273.98 79.3341 L1273.98 81.9164 Q1265.17 81.6704 1264.15 81.6704 Q1263.16 81.6704 1254.35 81.9164 Z" fill="#000000" fill-rule="nonzero" fill-opacity="1" /><polyline clip-path="url(#clip502)" style="stroke:#009af9; stroke-linecap:round; stroke-linejoin:round; stroke-width:8; stroke-opacity:1; fill:none" points="235.429,290.041 484.527,290.041 484.527,623.18 733.624,623.18 733.624,290.041 982.721,290.041 1231.82,290.041 1480.92,290.041 1480.92,623.18 1730.01,623.18 1979.11,623.18 2228.21,623.18 2477.3,623.18 "/>
<path clip-path="url(#clip500)" d="M110.881 1423.18 L2352.76 1423.18 L2352.76 923.472 L110.881 923.472  Z" fill="#ffffff" fill-rule="evenodd" fill-opacity="1"/>
<defs>
  <clipPath id="clip503">
    <rect x="110" y="923" width="2243" height="501"/>
  </clipPath>
</defs>
<polyline clip-path="url(#clip503)" style="stroke:#000000; stroke-linecap:round; stroke-linejoin:round; stroke-width:2; stroke-opacity:0.1; fill:none" points="235.429,1423.18 235.429,923.472 "/>
<polyline clip-path="url(#clip503)" style="stroke:#000000; stroke-linecap:round; stroke-linejoin:round; stroke-width:2; stroke-opacity:0.1; fill:none" points="484.527,1423.18 484.527,923.472 "/>
<polyline clip-path="url(#clip503)" style="stroke:#000000; stroke-linecap:round; stroke-linejoin:round; stroke-width:2; stroke-opacity:0.1; fill:none" points="733.624,1423.18 733.624,923.472 "/>
<polyline clip-path="url(#clip503)" style="stroke:#000000; stroke-linecap:round; stroke-linejoin:round; stroke-width:2; stroke-opacity:0.1; fill:none" points="982.721,1423.18 982.721,923.472 "/>
<polyline clip-path="url(#clip503)" style="stroke:#000000; stroke-linecap:round; stroke-linejoin:round; stroke-width:2; stroke-opacity:0.1; fill:none" points="1231.82,1423.18 1231.82,923.472 "/>
<polyline clip-path="url(#clip503)" style="stroke:#000000; stroke-linecap:round; stroke-linejoin:round; stroke-width:2; stroke-opacity:0.1; fill:none" points="1480.92,1423.18 1480.92,923.472 "/>
<polyline clip-path="url(#clip503)" style="stroke:#000000; stroke-linecap:round; stroke-linejoin:round; stroke-width:2; stroke-opacity:0.1; fill:none" points="1730.01,1423.18 1730.01,923.472 "/>
<polyline clip-path="url(#clip503)" style="stroke:#000000; stroke-linecap:round; stroke-linejoin:round; stroke-width:2; stroke-opacity:0.1; fill:none" points="1979.11,1423.18 1979.11,923.472 "/>
<polyline clip-path="url(#clip503)" style="stroke:#000000; stroke-linecap:round; stroke-linejoin:round; stroke-width:2; stroke-opacity:0.1; fill:none" points="2228.21,1423.18 2228.21,923.472 "/>
<polyline clip-path="url(#clip500)" style="stroke:#000000; stroke-linecap:round; stroke-linejoin:round; stroke-width:4; stroke-opacity:1; fill:none" points="110.881,1423.18 2352.76,1423.18 "/>
<polyline clip-path="url(#clip500)" style="stroke:#000000; stroke-linecap:round; stroke-linejoin:round; stroke-width:4; stroke-opacity:1; fill:none" points="235.429,1423.18 235.429,1404.28 "/>
<polyline clip-path="url(#clip500)" style="stroke:#000000; stroke-linecap:round; stroke-linejoin:round; stroke-width:4; stroke-opacity:1; fill:none" points="484.527,1423.18 484.527,1404.28 "/>
<polyline clip-path="url(#clip500)" style="stroke:#000000; stroke-linecap:round; stroke-linejoin:round; stroke-width:4; stroke-opacity:1; fill:none" points="733.624,1423.18 733.624,1404.28 "/>
<polyline clip-path="url(#clip500)" style="stroke:#000000; stroke-linecap:round; stroke-linejoin:round; stroke-width:4; stroke-opacity:1; fill:none" points="982.721,1423.18 982.721,1404.28 "/>
<polyline clip-path="url(#clip500)" style="stroke:#000000; stroke-linecap:round; stroke-linejoin:round; stroke-width:4; stroke-opacity:1; fill:none" points="1231.82,1423.18 1231.82,1404.28 "/>
<polyline clip-path="url(#clip500)" style="stroke:#000000; stroke-linecap:round; stroke-linejoin:round; stroke-width:4; stroke-opacity:1; fill:none" points="1480.92,1423.18 1480.92,1404.28 "/>
<polyline clip-path="url(#clip500)" style="stroke:#000000; stroke-linecap:round; stroke-linejoin:round; stroke-width:4; stroke-opacity:1; fill:none" points="1730.01,1423.18 1730.01,1404.28 "/>
<polyline clip-path="url(#clip500)" style="stroke:#000000; stroke-linecap:round; stroke-linejoin:round; stroke-width:4; stroke-opacity:1; fill:none" points="1979.11,1423.18 1979.11,1404.28 "/>
<polyline clip-path="url(#clip500)" style="stroke:#000000; stroke-linecap:round; stroke-linejoin:round; stroke-width:4; stroke-opacity:1; fill:none" points="2228.21,1423.18 2228.21,1404.28 "/>
<path clip-path="url(#clip500)" d="M235.429 1454.1 Q231.818 1454.1 229.99 1457.66 Q228.184 1461.2 228.184 1468.33 Q228.184 1475.44 229.99 1479.01 Q231.818 1482.55 235.429 1482.55 Q239.064 1482.55 240.869 1479.01 Q242.698 1475.44 242.698 1468.33 Q242.698 1461.2 240.869 1457.66 Q239.064 1454.1 235.429 1454.1 M235.429 1450.39 Q241.24 1450.39 244.295 1455 Q247.374 1459.58 247.374 1468.33 Q247.374 1477.06 244.295 1481.67 Q241.24 1486.25 235.429 1486.25 Q229.619 1486.25 226.541 1481.67 Q223.485 1477.06 223.485 1468.33 Q223.485 1459.58 226.541 1455 Q229.619 1450.39 235.429 1450.39 Z" fill="#000000" fill-rule="nonzero" fill-opacity="1" /><path clip-path="url(#clip500)" d="M474.909 1481.64 L482.548 1481.64 L482.548 1455.28 L474.237 1456.95 L474.237 1452.69 L482.501 1451.02 L487.177 1451.02 L487.177 1481.64 L494.816 1481.64 L494.816 1485.58 L474.909 1485.58 L474.909 1481.64 Z" fill="#000000" fill-rule="nonzero" fill-opacity="1" /><path clip-path="url(#clip500)" d="M728.277 1481.64 L744.596 1481.64 L744.596 1485.58 L722.652 1485.58 L722.652 1481.64 Q725.314 1478.89 729.897 1474.26 Q734.504 1469.61 735.684 1468.27 Q737.929 1465.74 738.809 1464.01 Q739.712 1462.25 739.712 1460.56 Q739.712 1457.8 737.767 1456.07 Q735.846 1454.33 732.744 1454.33 Q730.545 1454.33 728.092 1455.09 Q725.661 1455.86 722.883 1457.41 L722.883 1452.69 Q725.707 1451.55 728.161 1450.97 Q730.615 1450.39 732.652 1450.39 Q738.022 1450.39 741.216 1453.08 Q744.411 1455.77 744.411 1460.26 Q744.411 1462.39 743.601 1464.31 Q742.814 1466.2 740.707 1468.8 Q740.129 1469.47 737.027 1472.69 Q733.925 1475.88 728.277 1481.64 Z" fill="#000000" fill-rule="nonzero" fill-opacity="1" /><path clip-path="url(#clip500)" d="M986.969 1466.95 Q990.325 1467.66 992.2 1469.93 Q994.098 1472.2 994.098 1475.53 Q994.098 1480.65 990.58 1483.45 Q987.061 1486.25 980.58 1486.25 Q978.404 1486.25 976.089 1485.81 Q973.798 1485.39 971.344 1484.54 L971.344 1480.02 Q973.288 1481.16 975.603 1481.74 Q977.918 1482.32 980.441 1482.32 Q984.839 1482.32 987.131 1480.58 Q989.446 1478.84 989.446 1475.53 Q989.446 1472.48 987.293 1470.77 Q985.163 1469.03 981.344 1469.03 L977.316 1469.03 L977.316 1465.19 L981.529 1465.19 Q984.978 1465.19 986.807 1463.82 Q988.635 1462.43 988.635 1459.84 Q988.635 1457.18 986.737 1455.77 Q984.862 1454.33 981.344 1454.33 Q979.423 1454.33 977.224 1454.75 Q975.024 1455.16 972.386 1456.04 L972.386 1451.88 Q975.048 1451.14 977.362 1450.77 Q979.7 1450.39 981.761 1450.39 Q987.085 1450.39 990.186 1452.83 Q993.288 1455.23 993.288 1459.35 Q993.288 1462.22 991.645 1464.21 Q990.001 1466.18 986.969 1466.95 Z" fill="#000000" fill-rule="nonzero" fill-opacity="1" /><path clip-path="url(#clip500)" d="M1234.83 1455.09 L1223.02 1473.54 L1234.83 1473.54 L1234.83 1455.09 M1233.6 1451.02 L1239.48 1451.02 L1239.48 1473.54 L1244.41 1473.54 L1244.41 1477.43 L1239.48 1477.43 L1239.48 1485.58 L1234.83 1485.58 L1234.83 1477.43 L1219.23 1477.43 L1219.23 1472.92 L1233.6 1451.02 Z" fill="#000000" fill-rule="nonzero" fill-opacity="1" /><path clip-path="url(#clip500)" d="M1471.19 1451.02 L1489.55 1451.02 L1489.55 1454.96 L1475.48 1454.96 L1475.48 1463.43 Q1476.49 1463.08 1477.51 1462.92 Q1478.53 1462.73 1479.55 1462.73 Q1485.34 1462.73 1488.72 1465.9 Q1492.1 1469.08 1492.1 1474.49 Q1492.1 1480.07 1488.62 1483.17 Q1485.15 1486.25 1478.83 1486.25 Q1476.66 1486.25 1474.39 1485.88 Q1472.14 1485.51 1469.74 1484.77 L1469.74 1480.07 Q1471.82 1481.2 1474.04 1481.76 Q1476.26 1482.32 1478.74 1482.32 Q1482.74 1482.32 1485.08 1480.21 Q1487.42 1478.1 1487.42 1474.49 Q1487.42 1470.88 1485.08 1468.77 Q1482.74 1466.67 1478.74 1466.67 Q1476.86 1466.67 1474.99 1467.08 Q1473.14 1467.5 1471.19 1468.38 L1471.19 1451.02 Z" fill="#000000" fill-rule="nonzero" fill-opacity="1" /><path clip-path="url(#clip500)" d="M1730.42 1466.44 Q1727.27 1466.44 1725.42 1468.59 Q1723.59 1470.74 1723.59 1474.49 Q1723.59 1478.22 1725.42 1480.39 Q1727.27 1482.55 1730.42 1482.55 Q1733.57 1482.55 1735.39 1480.39 Q1737.25 1478.22 1737.25 1474.49 Q1737.25 1470.74 1735.39 1468.59 Q1733.57 1466.44 1730.42 1466.44 M1739.7 1451.78 L1739.7 1456.04 Q1737.94 1455.21 1736.14 1454.77 Q1734.35 1454.33 1732.59 1454.33 Q1727.96 1454.33 1725.51 1457.45 Q1723.08 1460.58 1722.73 1466.9 Q1724.1 1464.89 1726.16 1463.82 Q1728.22 1462.73 1730.7 1462.73 Q1735.9 1462.73 1738.91 1465.9 Q1741.95 1469.05 1741.95 1474.49 Q1741.95 1479.82 1738.8 1483.03 Q1735.65 1486.25 1730.42 1486.25 Q1724.42 1486.25 1721.25 1481.67 Q1718.08 1477.06 1718.08 1468.33 Q1718.08 1460.14 1721.97 1455.28 Q1725.86 1450.39 1732.41 1450.39 Q1734.17 1450.39 1735.95 1450.74 Q1737.76 1451.09 1739.7 1451.78 Z" fill="#000000" fill-rule="nonzero" fill-opacity="1" /><path clip-path="url(#clip500)" d="M1968 1451.02 L1990.22 1451.02 L1990.22 1453.01 L1977.67 1485.58 L1972.79 1485.58 L1984.6 1454.96 L1968 1454.96 L1968 1451.02 Z" fill="#000000" fill-rule="nonzero" fill-opacity="1" /><path clip-path="url(#clip500)" d="M2228.21 1469.17 Q2224.87 1469.17 2222.95 1470.95 Q2221.05 1472.73 2221.05 1475.86 Q2221.05 1478.98 2222.95 1480.77 Q2224.87 1482.55 2228.21 1482.55 Q2231.54 1482.55 2233.46 1480.77 Q2235.38 1478.96 2235.38 1475.86 Q2235.38 1472.73 2233.46 1470.95 Q2231.56 1469.17 2228.21 1469.17 M2223.53 1467.18 Q2220.52 1466.44 2218.83 1464.38 Q2217.17 1462.32 2217.17 1459.35 Q2217.17 1455.21 2220.11 1452.8 Q2223.07 1450.39 2228.21 1450.39 Q2233.37 1450.39 2236.31 1452.8 Q2239.25 1455.21 2239.25 1459.35 Q2239.25 1462.32 2237.56 1464.38 Q2235.89 1466.44 2232.91 1467.18 Q2236.29 1467.96 2238.16 1470.26 Q2240.06 1472.55 2240.06 1475.86 Q2240.06 1480.88 2236.98 1483.57 Q2233.92 1486.25 2228.21 1486.25 Q2222.49 1486.25 2219.41 1483.57 Q2216.36 1480.88 2216.36 1475.86 Q2216.36 1472.55 2218.25 1470.26 Q2220.15 1467.96 2223.53 1467.18 M2221.82 1459.79 Q2221.82 1462.48 2223.49 1463.98 Q2225.17 1465.49 2228.21 1465.49 Q2231.22 1465.49 2232.91 1463.98 Q2234.62 1462.48 2234.62 1459.79 Q2234.62 1457.11 2232.91 1455.6 Q2231.22 1454.1 2228.21 1454.1 Q2225.17 1454.1 2223.49 1455.6 Q2221.82 1457.11 2221.82 1459.79 Z" fill="#000000" fill-rule="nonzero" fill-opacity="1" /><path clip-path="url(#clip500)" d="M1240.29 1531.91 Q1240.29 1532.81 1239.87 1533.04 Q1239.45 1533.23 1238.29 1533.23 L1232.11 1533.23 L1227.21 1552.69 Q1226.83 1554.39 1226.83 1555.84 Q1226.83 1557.45 1227.31 1558.16 Q1227.83 1558.87 1228.89 1558.87 Q1230.98 1558.87 1233.24 1556.97 Q1235.52 1555.07 1237.46 1550.43 Q1237.71 1549.82 1237.84 1549.69 Q1238 1549.53 1238.42 1549.53 Q1239.23 1549.53 1239.23 1550.17 Q1239.23 1550.4 1238.78 1551.43 Q1238.36 1552.46 1237.42 1553.97 Q1236.52 1555.49 1235.33 1556.9 Q1234.17 1558.32 1232.4 1559.35 Q1230.63 1560.35 1228.73 1560.35 Q1226.05 1560.35 1224.35 1558.64 Q1222.67 1556.94 1222.67 1554.26 Q1222.67 1553.39 1223.35 1550.62 Q1224.03 1547.82 1227.7 1533.23 L1221.87 1533.23 Q1221.06 1533.23 1220.74 1533.2 Q1220.45 1533.17 1220.23 1533.01 Q1220.03 1532.81 1220.03 1532.43 Q1220.03 1531.82 1220.29 1531.56 Q1220.55 1531.27 1220.87 1531.24 Q1221.22 1531.17 1222.03 1531.17 L1228.21 1531.17 L1230.79 1520.71 Q1231.05 1519.67 1231.69 1519.09 Q1232.37 1518.48 1232.75 1518.42 Q1233.14 1518.32 1233.43 1518.32 Q1234.3 1518.32 1234.81 1518.81 Q1235.33 1519.26 1235.33 1520.09 Q1235.33 1520.54 1232.62 1531.17 L1238.42 1531.17 Q1239.16 1531.17 1239.45 1531.2 Q1239.77 1531.24 1240.03 1531.4 Q1240.29 1531.56 1240.29 1531.91 Z" fill="#000000" fill-rule="nonzero" fill-opacity="1" /><polyline clip-path="url(#clip503)" style="stroke:#000000; stroke-linecap:round; stroke-linejoin:round; stroke-width:2; stroke-opacity:0.1; fill:none" points="110.881,1423.18 2352.76,1423.18 "/>
<polyline clip-path="url(#clip503)" style="stroke:#000000; stroke-linecap:round; stroke-linejoin:round; stroke-width:2; stroke-opacity:0.1; fill:none" points="110.881,1090.04 2352.76,1090.04 "/>
<polyline clip-path="url(#clip500)" style="stroke:#000000; stroke-linecap:round; stroke-linejoin:round; stroke-width:4; stroke-opacity:1; fill:none" points="110.881,1423.18 110.881,923.472 "/>
<polyline clip-path="url(#clip500)" style="stroke:#000000; stroke-linecap:round; stroke-linejoin:round; stroke-width:4; stroke-opacity:1; fill:none" points="110.881,1423.18 129.779,1423.18 "/>
<polyline clip-path="url(#clip500)" style="stroke:#000000; stroke-linecap:round; stroke-linejoin:round; stroke-width:4; stroke-opacity:1; fill:none" points="110.881,1090.04 129.779,1090.04 "/>
<path clip-path="url(#clip500)" d="M62.9365 1408.98 Q59.3254 1408.98 57.4967 1412.54 Q55.6912 1416.08 55.6912 1423.21 Q55.6912 1430.32 57.4967 1433.89 Q59.3254 1437.43 62.9365 1437.43 Q66.5707 1437.43 68.3763 1433.89 Q70.205 1430.32 70.205 1423.21 Q70.205 1416.08 68.3763 1412.54 Q66.5707 1408.98 62.9365 1408.98 M62.9365 1405.27 Q68.7467 1405.27 71.8022 1409.88 Q74.8809 1414.46 74.8809 1423.21 Q74.8809 1431.94 71.8022 1436.55 Q68.7467 1441.13 62.9365 1441.13 Q57.1264 1441.13 54.0477 1436.55 Q50.9921 1431.94 50.9921 1423.21 Q50.9921 1414.46 54.0477 1409.88 Q57.1264 1405.27 62.9365 1405.27 Z" fill="#000000" fill-rule="nonzero" fill-opacity="1" /><path clip-path="url(#clip500)" d="M54.9736 1103.39 L62.6124 1103.39 L62.6124 1077.02 L54.3023 1078.69 L54.3023 1074.43 L62.5661 1072.76 L67.242 1072.76 L67.242 1103.39 L74.8809 1103.39 L74.8809 1107.32 L54.9736 1107.32 L54.9736 1103.39 Z" fill="#000000" fill-rule="nonzero" fill-opacity="1" /><path clip-path="url(#clip500)" d="M1213.86 839.832 Q1213.86 840.078 1213.62 841.062 L1166.68 893.528 L1181.03 893.528 Q1185.25 893.528 1188.45 892.79 Q1191.65 892.011 1193.86 890.7 Q1196.07 889.388 1197.79 887.134 Q1199.56 884.838 1200.7 882.338 Q1201.85 879.797 1203.04 876.067 Q1203.49 874.632 1203.7 874.304 Q1203.9 873.976 1204.43 873.976 Q1204.97 873.976 1205.25 874.304 Q1205.54 874.591 1205.54 874.919 Q1205.54 875.083 1205.46 875.329 Q1205.42 875.534 1205.34 875.78 Q1205.25 876.026 1205.21 876.149 L1199.23 894.717 Q1198.86 895.905 1198.49 896.151 Q1198.12 896.397 1196.65 896.397 L1160.12 896.397 Q1158.85 896.397 1158.44 896.315 Q1158.03 896.192 1158.03 895.66 L1158.36 894.143 L1205.29 841.677 L1191.6 841.677 Q1187.75 841.677 1184.72 842.373 Q1181.73 843.029 1179.59 844.259 Q1177.46 845.448 1175.82 847.456 Q1174.18 849.424 1173.08 851.719 Q1171.97 853.973 1170.95 857.13 L1170.82 857.335 Q1170.7 857.539 1170.62 857.662 Q1170.54 857.744 1170.33 857.867 Q1170.13 857.949 1169.88 857.949 Q1169.43 857.949 1169.14 857.703 Q1168.9 857.457 1168.9 857.212 L1168.86 857.007 Q1168.94 856.269 1169.1 855.859 L1173.73 840.734 Q1174.1 839.545 1174.47 839.299 Q1174.84 839.053 1176.32 839.053 L1211.77 839.053 Q1213.08 839.053 1213.45 839.176 Q1213.86 839.299 1213.86 839.832 Z" fill="#000000" fill-rule="nonzero" fill-opacity="1" /><path clip-path="url(#clip500)" d="M1261.07 835.707 Q1261.41 836.051 1261.41 836.539 Q1261.41 837.026 1261.07 837.371 Q1260.72 837.715 1260.24 837.715 L1223.45 837.715 Q1222.96 837.715 1222.62 837.371 Q1222.28 837.026 1222.28 836.539 Q1222.28 836.051 1222.62 835.707 Q1222.96 835.362 1223.45 835.362 L1260.24 835.362 Q1260.72 835.362 1261.07 835.707 Z" fill="#000000" fill-rule="nonzero" fill-opacity="1" /><path clip-path="url(#clip500)" d="M1267.54 817.688 L1267.54 815.851 Q1274.6 815.851 1278.25 812.093 Q1279.25 812.093 1279.42 812.322 Q1279.59 812.552 1279.59 813.613 L1279.59 846.581 Q1279.59 848.331 1280.46 848.876 Q1281.32 849.422 1285.07 849.422 L1286.94 849.422 L1286.94 851.229 Q1284.87 851.057 1277.41 851.057 Q1269.95 851.057 1267.92 851.229 L1267.92 849.422 L1269.78 849.422 Q1273.48 849.422 1274.37 848.905 Q1275.26 848.36 1275.26 846.581 L1275.26 816.138 Q1272.19 817.688 1267.54 817.688 Z" fill="#000000" fill-rule="nonzero" fill-opacity="1" /><polyline clip-path="url(#clip503)" style="stroke:#009af9; stroke-linecap:round; stroke-linejoin:round; stroke-width:8; stroke-opacity:1; fill:none" points="484.527,1090.04 733.624,1090.04 733.624,1423.18 982.721,1423.18 982.721,1090.04 1231.82,1090.04 1480.92,1090.04 1730.01,1090.04 1730.01,1423.18 1979.11,1423.18 2228.21,1423.18 2477.3,1423.18 "/>
</svg>
