<?xml version="1.0" encoding="utf-8"?>
<svg xmlns="http://www.w3.org/2000/svg" xmlns:xlink="http://www.w3.org/1999/xlink" width="600" height="400" viewBox="0 0 2400 1600">
<defs>
  <clipPath id="clip140">
    <rect x="0" y="0" width="2400" height="1600"/>
  </clipPath>
</defs>
<path clip-path="url(#clip140)" d="M0 1600 L2400 1600 L2400 0 L0 0  Z" fill="#ffffff" fill-rule="evenodd" fill-opacity="1"/>
<defs>
  <clipPath id="clip141">
    <rect x="480" y="0" width="1681" height="1600"/>
  </clipPath>
</defs>
<path clip-path="url(#clip140)" d="M110.881 223.18 L2352.76 223.18 L2352.76 123.472 L110.881 123.472  Z" fill="#ffffff" fill-rule="evenodd" fill-opacity="1"/>
<defs>
  <clipPath id="clip142">
    <rect x="110" y="123" width="2243" height="101"/>
  </clipPath>
</defs>
<polyline clip-path="url(#clip142)" style="stroke:#000000; stroke-linecap:round; stroke-linejoin:round; stroke-width:2; stroke-opacity:0.1; fill:none" points="235.429,223.18 235.429,123.472 "/>
<polyline clip-path="url(#clip142)" style="stroke:#000000; stroke-linecap:round; stroke-linejoin:round; stroke-width:2; stroke-opacity:0.1; fill:none" points="484.527,223.18 484.527,123.472 "/>
<polyline clip-path="url(#clip142)" style="stroke:#000000; stroke-linecap:round; stroke-linejoin:round; stroke-width:2; stroke-opacity:0.1; fill:none" points="733.624,223.18 733.624,123.472 "/>
<polyline clip-path="url(#clip142)" style="stroke:#000000; stroke-linecap:round; stroke-linejoin:round; stroke-width:2; stroke-opacity:0.1; fill:none" points="982.721,223.18 982.721,123.472 "/>
<polyline clip-path="url(#clip142)" style="stroke:#000000; stroke-linecap:round; stroke-linejoin:round; stroke-width:2; stroke-opacity:0.1; fill:none" points="1231.82,223.18 1231.82,123.472 "/>
<polyline clip-path="url(#clip142)" style="stroke:#000000; stroke-linecap:round; stroke-linejoin:round; stroke-width:2; stroke-opacity:0.1; fill:none" points="1480.92,223.18 1480.92,123.472 "/>
<polyline clip-path="url(#clip142)" style="stroke:#000000; stroke-linecap:round; stroke-linejoin:round; stroke-width:2; stroke-opacity:0.1; fill:none" points="1730.01,223.18 1730.01,123.472 "/>
<polyline clip-path="url(#clip142)" style="stroke:#000000; stroke-linecap:round; stroke-linejoin:round; stroke-width:2; stroke-opacity:0.1; fill:none" points="1979.11,223.18 1979.11,123.472 "/>
<polyline clip-path="url(#clip142)" style="stroke:#000000; stroke-linecap:round; stroke-linejoin:round; stroke-width:2; stroke-opacity:0.1; fill:none" points="2228.21,223.18 2228.21,123.472 "/>
<polyline clip-path="url(#clip140)" style="stroke:#000000; stroke-linecap:round; stroke-linejoin:round; stroke-width:4; stroke-opacity:1; fill:none" points="110.881,223.18 2352.76,223.18 "/>
<polyline clip-path="url(#clip140)" style="stroke:#000000; stroke-linecap:round; stroke-linejoin:round; stroke-width:4; stroke-opacity:1; fill:none" points="235.429,223.18 235.429,204.282 "/>
<polyline clip-path="url(#clip140)" style="stroke:#000000; stroke-linecap:round; stroke-linejoin:round; stroke-width:4; stroke-opacity:1; fill:none" points="484.527,223.18 484.527,204.282 "/>
<polyline clip-path="url(#clip140)" style="stroke:#000000; stroke-linecap:round; stroke-linejoin:round; stroke-width:4; stroke-opacity:1; fill:none" points="733.624,223.18 733.624,204.282 "/>
<polyline clip-path="url(#clip140)" style="stroke:#000000; stroke-linecap:round; stroke-linejoin:round; stroke-width:4; stroke-opacity:1; fill:none" points="982.721,223.18 982.721,204.282 "/>
<polyline clip-path="url(#clip140)" style="stroke:#000000; stroke-linecap:round; stroke-linejoin:round; stroke-width:4; stroke-opacity:1; fill:none" points="1231.82,223.18 1231.82,204.282 "/>
<polyline clip-path="url(#clip140)" style="stroke:#000000; stroke-linecap:round; stroke-linejoin:round; stroke-width:4; stroke-opacity:1; fill:none" points="1480.92,223.18 1480.92,204.282 "/>
<polyline clip-path="url(#clip140)" style="stroke:#000000; stroke-linecap:round; stroke-linejoin:round; stroke-width:4; stroke-opacity:1; fill:none" points="1730.01,223.18 1730.01,204.282 "/>
<polyline clip-path="url(#clip140)" style="stroke:#000000; stroke-linecap:round; stroke-linejoin:round; stroke-width:4; stroke-opacity:1; fill:none" points="1979.11,223.18 1979.11,204.282 "/>
<polyline clip-path="url(#clip140)" style="stroke:#000000; stroke-linecap:round; stroke-linejoin:round; stroke-width:4; stroke-opacity:1; fill:none" points="2228.21,223.18 2228.21,204.282 "/>
<path clip-path="url(#clip140)" d="M235.429 254.099 Q231.818 254.099 229.99 257.663 Q228.184 261.205 228.184 268.335 Q228.184 275.441 229.99 279.006 Q231.818 282.547 235.429 282.547 Q239.064 282.547 240.869 279.006 Q242.698 275.441 242.698 268.335 Q242.698 261.205 240.869 257.663 Q239.064 254.099 235.429 254.099 M235.429 250.395 Q241.24 250.395 244.295 255.001 Q247.374 259.585 247.374 268.335 Q247.374 277.061 244.295 281.668 Q241.24 286.251 235.429 286.251 Q229.619 286.251 226.541 281.668 Q223.485 277.061 223.485 268.335 Q223.485 259.585 226.541 255.001 Q229.619 250.395 235.429 250.395 Z" fill="#000000" fill-rule="nonzero" fill-opacity="1" /><path clip-path="url(#clip140)" d="M474.909 281.645 L482.548 281.645 L482.548 255.279 L474.237 256.946 L474.237 252.687 L482.501 251.02 L487.177 251.02 L487.177 281.645 L494.816 281.645 L494.816 285.58 L474.909 285.58 L474.909 281.645 Z" fill="#000000" fill-rule="nonzero" fill-opacity="1" /><path clip-path="url(#clip140)" d="M728.277 281.645 L744.596 281.645 L744.596 285.58 L722.652 285.58 L722.652 281.645 Q725.314 278.89 729.897 274.26 Q734.504 269.608 735.684 268.265 Q737.929 265.742 738.809 264.006 Q739.712 262.247 739.712 260.557 Q739.712 257.802 737.767 256.066 Q735.846 254.33 732.744 254.33 Q730.545 254.33 728.092 255.094 Q725.661 255.858 722.883 257.409 L722.883 252.687 Q725.707 251.552 728.161 250.974 Q730.615 250.395 732.652 250.395 Q738.022 250.395 741.216 253.08 Q744.411 255.765 744.411 260.256 Q744.411 262.386 743.601 264.307 Q742.814 266.205 740.707 268.798 Q740.129 269.469 737.027 272.686 Q733.925 275.881 728.277 281.645 Z" fill="#000000" fill-rule="nonzero" fill-opacity="1" /><path clip-path="url(#clip140)" d="M986.969 266.946 Q990.325 267.663 992.2 269.932 Q994.098 272.2 994.098 275.534 Q994.098 280.649 990.58 283.45 Q987.061 286.251 980.58 286.251 Q978.404 286.251 976.089 285.811 Q973.798 285.395 971.344 284.538 L971.344 280.024 Q973.288 281.159 975.603 281.737 Q977.918 282.316 980.441 282.316 Q984.839 282.316 987.131 280.58 Q989.446 278.844 989.446 275.534 Q989.446 272.478 987.293 270.765 Q985.163 269.029 981.344 269.029 L977.316 269.029 L977.316 265.186 L981.529 265.186 Q984.978 265.186 986.807 263.821 Q988.635 262.432 988.635 259.839 Q988.635 257.177 986.737 255.765 Q984.862 254.33 981.344 254.33 Q979.423 254.33 977.224 254.747 Q975.024 255.163 972.386 256.043 L972.386 251.876 Q975.048 251.136 977.362 250.765 Q979.7 250.395 981.761 250.395 Q987.085 250.395 990.186 252.825 Q993.288 255.233 993.288 259.353 Q993.288 262.223 991.645 264.214 Q990.001 266.182 986.969 266.946 Z" fill="#000000" fill-rule="nonzero" fill-opacity="1" /><path clip-path="url(#clip140)" d="M1234.83 255.094 L1223.02 273.543 L1234.83 273.543 L1234.83 255.094 M1233.6 251.02 L1239.48 251.02 L1239.48 273.543 L1244.41 273.543 L1244.41 277.432 L1239.48 277.432 L1239.48 285.58 L1234.83 285.58 L1234.83 277.432 L1219.23 277.432 L1219.23 272.918 L1233.6 251.02 Z" fill="#000000" fill-rule="nonzero" fill-opacity="1" /><path clip-path="url(#clip140)" d="M1471.19 251.02 L1489.55 251.02 L1489.55 254.955 L1475.48 254.955 L1475.48 263.427 Q1476.49 263.08 1477.51 262.918 Q1478.53 262.733 1479.55 262.733 Q1485.34 262.733 1488.72 265.904 Q1492.1 269.075 1492.1 274.492 Q1492.1 280.071 1488.62 283.172 Q1485.15 286.251 1478.83 286.251 Q1476.66 286.251 1474.39 285.881 Q1472.14 285.51 1469.74 284.77 L1469.74 280.071 Q1471.82 281.205 1474.04 281.76 Q1476.26 282.316 1478.74 282.316 Q1482.74 282.316 1485.08 280.21 Q1487.42 278.103 1487.42 274.492 Q1487.42 270.881 1485.08 268.774 Q1482.74 266.668 1478.74 266.668 Q1476.86 266.668 1474.99 267.085 Q1473.14 267.501 1471.19 268.381 L1471.19 251.02 Z" fill="#000000" fill-rule="nonzero" fill-opacity="1" /><path clip-path="url(#clip140)" d="M1730.42 266.436 Q1727.27 266.436 1725.42 268.589 Q1723.59 270.742 1723.59 274.492 Q1723.59 278.219 1725.42 280.395 Q1727.27 282.547 1730.42 282.547 Q1733.57 282.547 1735.39 280.395 Q1737.25 278.219 1737.25 274.492 Q1737.25 270.742 1735.39 268.589 Q1733.57 266.436 1730.42 266.436 M1739.7 251.784 L1739.7 256.043 Q1737.94 255.21 1736.14 254.77 Q1734.35 254.33 1732.59 254.33 Q1727.96 254.33 1725.51 257.455 Q1723.08 260.58 1722.73 266.899 Q1724.1 264.886 1726.16 263.821 Q1728.22 262.733 1730.7 262.733 Q1735.9 262.733 1738.91 265.904 Q1741.95 269.052 1741.95 274.492 Q1741.95 279.816 1738.8 283.034 Q1735.65 286.251 1730.42 286.251 Q1724.42 286.251 1721.25 281.668 Q1718.08 277.061 1718.08 268.335 Q1718.08 260.14 1721.97 255.279 Q1725.86 250.395 1732.41 250.395 Q1734.17 250.395 1735.95 250.742 Q1737.76 251.089 1739.7 251.784 Z" fill="#000000" fill-rule="nonzero" fill-opacity="1" /><path clip-path="url(#clip140)" d="M1968 251.02 L1990.22 251.02 L1990.22 253.011 L1977.67 285.58 L1972.79 285.58 L1984.6 254.955 L1968 254.955 L1968 251.02 Z" fill="#000000" fill-rule="nonzero" fill-opacity="1" /><path clip-path="url(#clip140)" d="M2228.21 269.168 Q2224.87 269.168 2222.95 270.95 Q2221.05 272.733 2221.05 275.858 Q2221.05 278.983 2222.95 280.765 Q2224.87 282.547 2228.21 282.547 Q2231.54 282.547 2233.46 280.765 Q2235.38 278.96 2235.38 275.858 Q2235.38 272.733 2233.46 270.95 Q2231.56 269.168 2228.21 269.168 M2223.53 267.177 Q2220.52 266.436 2218.83 264.376 Q2217.17 262.316 2217.17 259.353 Q2217.17 255.21 2220.11 252.802 Q2223.07 250.395 2228.21 250.395 Q2233.37 250.395 2236.31 252.802 Q2239.25 255.21 2239.25 259.353 Q2239.25 262.316 2237.56 264.376 Q2235.89 266.436 2232.91 267.177 Q2236.29 267.964 2238.16 270.256 Q2240.06 272.548 2240.06 275.858 Q2240.06 280.881 2236.98 283.566 Q2233.92 286.251 2228.21 286.251 Q2222.49 286.251 2219.41 283.566 Q2216.36 280.881 2216.36 275.858 Q2216.36 272.548 2218.25 270.256 Q2220.15 267.964 2223.53 267.177 M2221.82 259.793 Q2221.82 262.478 2223.49 263.983 Q2225.17 265.487 2228.21 265.487 Q2231.22 265.487 2232.91 263.983 Q2234.62 262.478 2234.62 259.793 Q2234.62 257.108 2232.91 255.603 Q2231.22 254.099 2228.21 254.099 Q2225.17 254.099 2223.49 255.603 Q2221.82 257.108 2221.82 259.793 Z" fill="#000000" fill-rule="nonzero" fill-opacity="1" /><path clip-path="url(#clip140)" d="M1240.29 331.913 Q1240.29 332.815 1239.87 333.04 Q1239.45 333.233 1238.29 333.233 L1232.11 333.233 L1227.21 352.686 Q1226.83 354.393 1226.83 355.842 Q1226.83 357.452 1227.31 358.161 Q1227.83 358.869 1228.89 358.869 Q1230.98 358.869 1233.24 356.969 Q1235.52 355.069 1237.46 350.431 Q1237.71 349.819 1237.84 349.691 Q1238 349.53 1238.42 349.53 Q1239.23 349.53 1239.23 350.174 Q1239.23 350.399 1238.78 351.43 Q1238.36 352.46 1237.42 353.974 Q1236.52 355.488 1235.33 356.905 Q1234.17 358.322 1232.4 359.352 Q1230.63 360.351 1228.73 360.351 Q1226.05 360.351 1224.35 358.644 Q1222.67 356.937 1222.67 354.264 Q1222.67 353.394 1223.35 350.625 Q1224.03 347.823 1227.7 333.233 L1221.87 333.233 Q1221.06 333.233 1220.74 333.201 Q1220.45 333.169 1220.23 333.008 Q1220.03 332.815 1220.03 332.428 Q1220.03 331.816 1220.29 331.559 Q1220.55 331.269 1220.87 331.237 Q1221.22 331.172 1222.03 331.172 L1228.21 331.172 L1230.79 320.705 Q1231.05 319.675 1231.69 319.095 Q1232.37 318.483 1232.75 318.419 Q1233.14 318.322 1233.43 318.322 Q1234.3 318.322 1234.81 318.805 Q1235.33 319.256 1235.33 320.093 Q1235.33 320.544 1232.62 331.172 L1238.42 331.172 Q1239.16 331.172 1239.45 331.204 Q1239.77 331.237 1240.03 331.398 Q1240.29 331.559 1240.29 331.913 Z" fill="#000000" fill-rule="nonzero" fill-opacity="1" /><polyline clip-path="url(#clip142)" style="stroke:#000000; stroke-linecap:round; stroke-linejoin:round; stroke-width:2; stroke-opacity:0.1; fill:none" points="110.881,223.18 2352.76,223.18 "/>
<polyline clip-path="url(#clip142)" style="stroke:#000000; stroke-linecap:round; stroke-linejoin:round; stroke-width:2; stroke-opacity:0.1; fill:none" points="110.881,156.708 2352.76,156.708 "/>
<polyline clip-path="url(#clip140)" style="stroke:#000000; stroke-linecap:round; stroke-linejoin:round; stroke-width:4; stroke-opacity:1; fill:none" points="110.881,223.18 110.881,123.472 "/>
<polyline clip-path="url(#clip140)" style="stroke:#000000; stroke-linecap:round; stroke-linejoin:round; stroke-width:4; stroke-opacity:1; fill:none" points="110.881,223.18 129.779,223.18 "/>
<polyline clip-path="url(#clip140)" style="stroke:#000000; stroke-linecap:round; stroke-linejoin:round; stroke-width:4; stroke-opacity:1; fill:none" points="110.881,156.708 129.779,156.708 "/>
<path clip-path="url(#clip140)" d="M62.9365 208.979 Q59.3254 208.979 57.4967 212.543 Q55.6912 216.085 55.6912 223.215 Q55.6912 230.321 57.4967 233.886 Q59.3254 237.427 62.9365 237.427 Q66.5707 237.427 68.3763 233.886 Q70.205 230.321 70.205 223.215 Q70.205 216.085 68.3763 212.543 Q66.5707 208.979 62.9365 208.979 M62.9365 205.275 Q68.7467 205.275 71.8022 209.881 Q74.8809 214.465 74.8809 223.215 Q74.8809 231.941 71.8022 236.548 Q68.7467 241.131 62.9365 241.131 Q57.1264 241.131 54.0477 236.548 Q50.9921 231.941 50.9921 223.215 Q50.9921 214.465 54.0477 209.881 Q57.1264 205.275 62.9365 205.275 Z" fill="#000000" fill-rule="nonzero" fill-opacity="1" /><path clip-path="url(#clip140)" d="M54.9736 170.053 L62.6124 170.053 L62.6124 143.687 L54.3023 145.354 L54.3023 141.095 L62.5661 139.428 L67.242 139.428 L67.242 170.053 L74.8809 170.053 L74.8809 173.988 L54.9736 173.988 L54.9736 170.053 Z" fill="#000000" fill-rule="nonzero" fill-opacity="1" /><path clip-path="url(#clip140)" d="M1133.17 27.1957 L1133.17 24.5724 Q1137.88 24.8183 1143.5 24.8183 Q1149.65 24.8183 1155.67 24.5724 L1155.67 27.1957 L1155.35 27.1957 Q1149.89 27.1957 1149.89 29.2861 Q1149.89 30.0239 1151.12 31.9504 L1170.18 63.8811 L1181.09 33.2211 Q1181.41 32.0324 1181.46 31.3766 Q1181.46 29.86 1179.98 28.6303 Q1178.5 27.3596 1175.23 27.1957 L1175.23 24.5724 Q1180.18 24.8183 1184.98 24.8183 Q1188.18 24.8183 1192.69 24.5724 L1192.69 27.1957 Q1190.19 27.2777 1188.51 27.8515 Q1186.83 28.4254 1185.84 29.737 Q1184.9 31.0487 1184.49 31.8685 Q1184.12 32.6473 1183.46 34.4918 L1173.22 63.4302 Q1171.95 66.8733 1171.25 68.6768 Q1170.59 70.4804 1168.79 73.8415 Q1166.99 77.2026 1165.14 79.0061 Q1163.3 80.8097 1160.31 82.2853 Q1157.35 83.7609 1153.75 83.7609 Q1148.79 83.7609 1145.67 80.3178 Q1142.56 76.8747 1142.56 72.6118 Q1142.56 70.0295 1144.07 68.8818 Q1145.59 67.7341 1147.27 67.7341 Q1149.2 67.7341 1150.59 69.0457 Q1151.98 70.3164 1151.98 72.3659 Q1151.98 74.3743 1150.67 75.727 Q1149.36 77.0387 1147.27 77.0387 Q1146.78 77.0387 1145.92 76.8747 Q1148.79 81.4245 1153.75 81.4245 Q1158.79 81.4245 1162.76 77.7765 Q1166.74 74.1284 1166.74 72.1609 Q1166.74 71.6691 1164.98 68.8408 L1142.84 31.7865 Q1141.74 29.942 1141.37 29.4501 Q1141 28.9582 1139.97 28.2204 Q1138.95 27.4416 1137.51 27.3187 Q1136.12 27.1957 1133.5 27.1957 L1133.17 27.1957 Z" fill="#000000" fill-rule="nonzero" fill-opacity="1" /><path clip-path="url(#clip140)" d="M1195.53 81.9164 L1195.53 79.3341 L1197.53 79.3341 Q1202.08 79.3341 1203.11 78.5962 Q1204.17 77.8174 1204.17 75.3581 L1204.17 31.1307 Q1204.17 28.7123 1203.11 27.9745 Q1202.04 27.1957 1197.53 27.1957 L1195.53 27.1957 L1195.53 24.5724 L1226.23 24.5724 Q1234.22 24.5724 1239.55 28.8762 Q1244.88 33.1391 1244.88 38.7547 Q1244.88 43.3865 1240.94 47.0755 Q1237.05 50.7645 1230.94 51.9532 Q1237.91 52.691 1242.5 56.9129 Q1247.13 61.0938 1247.13 66.5454 Q1247.13 72.6938 1241.84 77.3256 Q1236.56 81.9164 1228.44 81.9164 L1195.53 81.9164 M1211.14 75.9729 Q1211.14 78.1454 1211.76 78.7602 Q1212.37 79.3341 1215.24 79.3341 L1225.73 79.3341 Q1231.76 79.3341 1235.24 75.3991 Q1238.73 71.4231 1238.73 66.4634 Q1238.73 61.5037 1235.65 57.2818 Q1232.62 53.0189 1226.92 53.0189 L1211.14 53.0189 L1211.14 75.9729 M1211.14 51.1744 L1223.32 51.1744 Q1229.79 51.1744 1233.24 47.2804 Q1236.72 43.3865 1236.72 38.7547 Q1236.72 34.6557 1233.93 30.9257 Q1231.19 27.1957 1225.65 27.1957 L1215.24 27.1957 Q1212.37 27.1957 1211.76 27.7695 Q1211.14 28.3434 1211.14 30.5568 L1211.14 51.1744 Z" fill="#000000" fill-rule="nonzero" fill-opacity="1" /><path clip-path="url(#clip140)" d="M1254.35 81.9164 L1254.35 79.3341 Q1257.38 79.3341 1259.31 78.7602 Q1261.24 78.1454 1261.93 77.0387 Q1262.67 75.891 1262.83 75.1531 Q1263 74.3743 1263 73.1037 L1263 31.1307 Q1263 28.7123 1261.93 27.9745 Q1260.91 27.1957 1256.36 27.1957 L1254.35 27.1957 L1254.35 24.5724 L1268.53 24.5724 Q1270.05 24.5724 1270.46 24.8593 Q1270.87 25.1052 1271.48 26.4169 L1289.68 73.4316 L1308.05 26.171 Q1308.46 24.9823 1308.82 24.7773 Q1309.23 24.5724 1310.83 24.5724 L1325.01 24.5724 L1325.01 27.1957 L1323.01 27.1957 Q1318.46 27.1957 1317.39 27.9745 Q1316.37 28.7123 1316.37 31.1307 L1316.37 75.3581 Q1316.37 77.7765 1317.39 78.5553 Q1318.46 79.3341 1323.01 79.3341 L1325.01 79.3341 L1325.01 81.9164 Q1321.9 81.6704 1313 81.6704 Q1304.03 81.6704 1300.91 81.9164 L1300.91 79.3341 L1302.96 79.3341 Q1307.51 79.3341 1308.54 78.5962 Q1309.56 77.8174 1309.56 75.3581 L1309.56 27.1957 L1309.48 27.1957 L1288.86 80.3178 Q1288.29 81.9164 1287.35 81.9164 Q1286.32 81.9164 1285.66 80.0719 L1265.42 27.8515 L1265.33 27.8515 L1265.33 73.1037 Q1265.33 74.3743 1265.5 75.1531 Q1265.66 75.891 1266.36 77.0387 Q1267.1 78.1454 1269.02 78.7602 Q1270.95 79.3341 1273.98 79.3341 L1273.98 81.9164 Q1265.17 81.6704 1264.15 81.6704 Q1263.16 81.6704 1254.35 81.9164 Z" fill="#000000" fill-rule="nonzero" fill-opacity="1" /><polyline clip-path="url(#clip142)" style="stroke:#009af9; stroke-linecap:round; stroke-linejoin:round; stroke-width:8; stroke-opacity:1; fill:none" points="235.429,156.708 484.527,156.708 484.527,223.18 733.624,223.18 733.624,156.708 982.721,156.708 1231.82,156.708 1480.92,156.708 1480.92,223.18 1730.01,223.18 1979.11,223.18 2228.21,223.18 2477.3,223.18 "/>
<path clip-path="url(#clip140)" d="M110.881 623.18 L2352.76 623.18 L2352.76 523.472 L110.881 523.472  Z" fill="#ffffff" fill-rule="evenodd" fill-opacity="1"/>
<defs>
  <clipPath id="clip143">
    <rect x="110" y="523" width="2243" height="101"/>
  </clipPath>
</defs>
<polyline clip-path="url(#clip143)" style="stroke:#000000; stroke-linecap:round; stroke-linejoin:round; stroke-width:2; stroke-opacity:0.1; fill:none" points="235.429,623.18 235.429,523.472 "/>
<polyline clip-path="url(#clip143)" style="stroke:#000000; stroke-linecap:round; stroke-linejoin:round; stroke-width:2; stroke-opacity:0.1; fill:none" points="484.527,623.18 484.527,523.472 "/>
<polyline clip-path="url(#clip143)" style="stroke:#000000; stroke-linecap:round; stroke-linejoin:round; stroke-width:2; stroke-opacity:0.1; fill:none" points="733.624,623.18 733.624,523.472 "/>
<polyline clip-path="url(#clip143)" style="stroke:#000000; stroke-linecap:round; stroke-linejoin:round; stroke-width:2; stroke-opacity:0.1; fill:none" points="982.721,623.18 982.721,523.472 "/>
<polyline clip-path="url(#clip143)" style="stroke:#000000; stroke-linecap:round; stroke-linejoin:round; stroke-width:2; stroke-opacity:0.1; fill:none" points="1231.82,623.18 1231.82,523.472 "/>
<polyline clip-path="url(#clip143)" style="stroke:#000000; stroke-linecap:round; stroke-linejoin:round; stroke-width:2; stroke-opacity:0.1; fill:none" points="1480.92,623.18 1480.92,523.472 "/>
<polyline clip-path="url(#clip143)" style="stroke:#000000; stroke-linecap:round; stroke-linejoin:round; stroke-width:2; stroke-opacity:0.1; fill:none" points="1730.01,623.18 1730.01,523.472 "/>
<polyline clip-path="url(#clip143)" style="stroke:#000000; stroke-linecap:round; stroke-linejoin:round; stroke-width:2; stroke-opacity:0.1; fill:none" points="1979.11,623.18 1979.11,523.472 "/>
<polyline clip-path="url(#clip143)" style="stroke:#000000; stroke-linecap:round; stroke-linejoin:round; stroke-width:2; stroke-opacity:0.1; fill:none" points="2228.21,623.18 2228.21,523.472 "/>
<polyline clip-path="url(#clip140)" style="stroke:#000000; stroke-linecap:round; stroke-linejoin:round; stroke-width:4; stroke-opacity:1; fill:none" points="110.881,623.18 2352.76,623.18 "/>
<polyline clip-path="url(#clip140)" style="stroke:#000000; stroke-linecap:round; stroke-linejoin:round; stroke-width:4; stroke-opacity:1; fill:none" points="235.429,623.18 235.429,604.282 "/>
<polyline clip-path="url(#clip140)" style="stroke:#000000; stroke-linecap:round; stroke-linejoin:round; stroke-width:4; stroke-opacity:1; fill:none" points="484.527,623.18 484.527,604.282 "/>
<polyline clip-path="url(#clip140)" style="stroke:#000000; stroke-linecap:round; stroke-linejoin:round; stroke-width:4; stroke-opacity:1; fill:none" points="733.624,623.18 733.624,604.282 "/>
<polyline clip-path="url(#clip140)" style="stroke:#000000; stroke-linecap:round; stroke-linejoin:round; stroke-width:4; stroke-opacity:1; fill:none" points="982.721,623.18 982.721,604.282 "/>
<polyline clip-path="url(#clip140)" style="stroke:#000000; stroke-linecap:round; stroke-linejoin:round; stroke-width:4; stroke-opacity:1; fill:none" points="1231.82,623.18 1231.82,604.282 "/>
<polyline clip-path="url(#clip140)" style="stroke:#000000; stroke-linecap:round; stroke-linejoin:round; stroke-width:4; stroke-opacity:1; fill:none" points="1480.92,623.18 1480.92,604.282 "/>
<polyline clip-path="url(#clip140)" style="stroke:#000000; stroke-linecap:round; stroke-linejoin:round; stroke-width:4; stroke-opacity:1; fill:none" points="1730.01,623.18 1730.01,604.282 "/>
<polyline clip-path="url(#clip140)" style="stroke:#000000; stroke-linecap:round; stroke-linejoin:round; stroke-width:4; stroke-opacity:1; fill:none" points="1979.11,623.18 1979.11,604.282 "/>
<polyline clip-path="url(#clip140)" style="stroke:#000000; stroke-linecap:round; stroke-linejoin:round; stroke-width:4; stroke-opacity:1; fill:none" points="2228.21,623.18 2228.21,604.282 "/>
<path clip-path="url(#clip140)" d="M235.429 654.099 Q231.818 654.099 229.99 657.663 Q228.184 661.205 228.184 668.335 Q228.184 675.441 229.99 679.006 Q231.818 682.547 235.429 682.547 Q239.064 682.547 240.869 679.006 Q242.698 675.441 242.698 668.335 Q242.698 661.205 240.869 657.663 Q239.064 654.099 235.429 654.099 M235.429 650.395 Q241.24 650.395 244.295 655.001 Q247.374 659.585 247.374 668.335 Q247.374 677.061 244.295 681.668 Q241.24 686.251 235.429 686.251 Q229.619 686.251 226.541 681.668 Q223.485 677.061 223.485 668.335 Q223.485 659.585 226.541 655.001 Q229.619 650.395 235.429 650.395 Z" fill="#000000" fill-rule="nonzero" fill-opacity="1" /><path clip-path="url(#clip140)" d="M474.909 681.645 L482.548 681.645 L482.548 655.279 L474.237 656.946 L474.237 652.687 L482.501 651.02 L487.177 651.02 L487.177 681.645 L494.816 681.645 L494.816 685.58 L474.909 685.58 L474.909 681.645 Z" fill="#000000" fill-rule="nonzero" fill-opacity="1" /><path clip-path="url(#clip140)" d="M728.277 681.645 L744.596 681.645 L744.596 685.58 L722.652 685.58 L722.652 681.645 Q725.314 678.89 729.897 674.26 Q734.504 669.608 735.684 668.265 Q737.929 665.742 738.809 664.006 Q739.712 662.247 739.712 660.557 Q739.712 657.802 737.767 656.066 Q735.846 654.33 732.744 654.33 Q730.545 654.33 728.092 655.094 Q725.661 655.858 722.883 657.409 L722.883 652.687 Q725.707 651.552 728.161 650.974 Q730.615 650.395 732.652 650.395 Q738.022 650.395 741.216 653.08 Q744.411 655.765 744.411 660.256 Q744.411 662.386 743.601 664.307 Q742.814 666.205 740.707 668.798 Q740.129 669.469 737.027 672.686 Q733.925 675.881 728.277 681.645 Z" fill="#000000" fill-rule="nonzero" fill-opacity="1" /><path clip-path="url(#clip140)" d="M986.969 666.946 Q990.325 667.663 992.2 669.932 Q994.098 672.2 994.098 675.534 Q994.098 680.649 990.58 683.45 Q987.061 686.251 980.58 686.251 Q978.404 686.251 976.089 685.811 Q973.798 685.395 971.344 684.538 L971.344 680.024 Q973.288 681.159 975.603 681.737 Q977.918 682.316 980.441 682.316 Q984.839 682.316 987.131 680.58 Q989.446 678.844 989.446 675.534 Q989.446 672.478 987.293 670.765 Q985.163 669.029 981.344 669.029 L977.316 669.029 L977.316 665.186 L981.529 665.186 Q984.978 665.186 986.807 663.821 Q988.635 662.432 988.635 659.839 Q988.635 657.177 986.737 655.765 Q984.862 654.33 981.344 654.33 Q979.423 654.33 977.224 654.747 Q975.024 655.163 972.386 656.043 L972.386 651.876 Q975.048 651.136 977.362 650.765 Q979.7 650.395 981.761 650.395 Q987.085 650.395 990.186 652.825 Q993.288 655.233 993.288 659.353 Q993.288 662.223 991.645 664.214 Q990.001 666.182 986.969 666.946 Z" fill="#000000" fill-rule="nonzero" fill-opacity="1" /><path clip-path="url(#clip140)" d="M1234.83 655.094 L1223.02 673.543 L1234.83 673.543 L1234.83 655.094 M1233.6 651.02 L1239.48 651.02 L1239.48 673.543 L1244.41 673.543 L1244.41 677.432 L1239.48 677.432 L1239.48 685.58 L1234.83 685.58 L1234.83 677.432 L1219.23 677.432 L1219.23 672.918 L1233.6 651.02 Z" fill="#000000" fill-rule="nonzero" fill-opacity="1" /><path clip-path="url(#clip140)" d="M1471.19 651.02 L1489.55 651.02 L1489.55 654.955 L1475.48 654.955 L1475.48 663.427 Q1476.49 663.08 1477.51 662.918 Q1478.53 662.733 1479.55 662.733 Q1485.34 662.733 1488.72 665.904 Q1492.1 669.075 1492.1 674.492 Q1492.1 680.071 1488.62 683.172 Q1485.15 686.251 1478.83 686.251 Q1476.66 686.251 1474.39 685.881 Q1472.14 685.51 1469.74 684.77 L1469.74 680.071 Q1471.82 681.205 1474.04 681.76 Q1476.26 682.316 1478.74 682.316 Q1482.74 682.316 1485.08 680.21 Q1487.42 678.103 1487.42 674.492 Q1487.42 670.881 1485.08 668.774 Q1482.74 666.668 1478.74 666.668 Q1476.86 666.668 1474.99 667.085 Q1473.14 667.501 1471.19 668.381 L1471.19 651.02 Z" fill="#000000" fill-rule="nonzero" fill-opacity="1" /><path clip-path="url(#clip140)" d="M1730.42 666.436 Q1727.27 666.436 1725.42 668.589 Q1723.59 670.742 1723.59 674.492 Q1723.59 678.219 1725.42 680.395 Q1727.27 682.547 1730.42 682.547 Q1733.57 682.547 1735.39 680.395 Q1737.25 678.219 1737.25 674.492 Q1737.25 670.742 1735.39 668.589 Q1733.57 666.436 1730.42 666.436 M1739.7 651.784 L1739.7 656.043 Q1737.94 655.21 1736.14 654.77 Q1734.35 654.33 1732.59 654.33 Q1727.96 654.33 1725.51 657.455 Q1723.08 660.58 1722.73 666.899 Q1724.1 664.886 1726.16 663.821 Q1728.22 662.733 1730.7 662.733 Q1735.9 662.733 1738.91 665.904 Q1741.95 669.052 1741.95 674.492 Q1741.95 679.816 1738.8 683.034 Q1735.65 686.251 1730.42 686.251 Q1724.42 686.251 1721.25 681.668 Q1718.08 677.061 1718.08 668.335 Q1718.08 660.14 1721.97 655.279 Q1725.86 650.395 1732.41 650.395 Q1734.17 650.395 1735.95 650.742 Q1737.76 651.089 1739.7 651.784 Z" fill="#000000" fill-rule="nonzero" fill-opacity="1" /><path clip-path="url(#clip140)" d="M1968 651.02 L1990.22 651.02 L1990.22 653.011 L1977.67 685.58 L1972.79 685.58 L1984.6 654.955 L1968 654.955 L1968 651.02 Z" fill="#000000" fill-rule="nonzero" fill-opacity="1" /><path clip-path="url(#clip140)" d="M2228.21 669.168 Q2224.87 669.168 2222.95 670.95 Q2221.05 672.733 2221.05 675.858 Q2221.05 678.983 2222.95 680.765 Q2224.87 682.547 2228.21 682.547 Q2231.54 682.547 2233.46 680.765 Q2235.38 678.96 2235.38 675.858 Q2235.38 672.733 2233.46 670.95 Q2231.56 669.168 2228.21 669.168 M2223.53 667.177 Q2220.52 666.436 2218.83 664.376 Q2217.17 662.316 2217.17 659.353 Q2217.17 655.21 2220.11 652.802 Q2223.07 650.395 2228.21 650.395 Q2233.37 650.395 2236.31 652.802 Q2239.25 655.21 2239.25 659.353 Q2239.25 662.316 2237.56 664.376 Q2235.89 666.436 2232.91 667.177 Q2236.29 667.964 2238.16 670.256 Q2240.06 672.548 2240.06 675.858 Q2240.06 680.881 2236.98 683.566 Q2233.92 686.251 2228.21 686.251 Q2222.49 686.251 2219.41 683.566 Q2216.36 680.881 2216.36 675.858 Q2216.36 672.548 2218.25 670.256 Q2220.15 667.964 2223.53 667.177 M2221.82 659.793 Q2221.82 662.478 2223.49 663.983 Q2225.17 665.487 2228.21 665.487 Q2231.22 665.487 2232.91 663.983 Q2234.62 662.478 2234.62 659.793 Q2234.62 657.108 2232.91 655.603 Q2231.22 654.099 2228.21 654.099 Q2225.17 654.099 2223.49 655.603 Q2221.82 657.108 2221.82 659.793 Z" fill="#000000" fill-rule="nonzero" fill-opacity="1" /><path clip-path="url(#clip140)" d="M1240.29 731.913 Q1240.29 732.815 1239.87 733.04 Q1239.45 733.233 1238.29 733.233 L1232.11 733.233 L1227.21 752.686 Q1226.83 754.393 1226.83 755.842 Q1226.83 757.452 1227.31 758.161 Q1227.83 758.869 1228.89 758.869 Q1230.98 758.869 1233.24 756.969 Q1235.52 755.069 1237.46 750.431 Q1237.71 749.819 1237.84 749.691 Q1238 749.53 1238.42 749.53 Q1239.23 749.53 1239.23 750.174 Q1239.23 750.399 1238.78 751.43 Q1238.36 752.46 1237.42 753.974 Q1236.52 755.488 1235.33 756.905 Q1234.17 758.322 1232.4 759.352 Q1230.63 760.351 1228.73 760.351 Q1226.05 760.351 1224.35 758.644 Q1222.67 756.937 1222.67 754.264 Q1222.67 753.394 1223.35 750.625 Q1224.03 747.823 1227.7 733.233 L1221.87 733.233 Q1221.06 733.233 1220.74 733.201 Q1220.45 733.169 1220.23 733.008 Q1220.03 732.815 1220.03 732.428 Q1220.03 731.816 1220.29 731.559 Q1220.55 731.269 1220.87 731.237 Q1221.22 731.172 1222.03 731.172 L1228.21 731.172 L1230.79 720.705 Q1231.05 719.675 1231.69 719.095 Q1232.37 718.483 1232.75 718.419 Q1233.14 718.322 1233.43 718.322 Q1234.3 718.322 1234.81 718.805 Q1235.33 719.256 1235.33 720.093 Q1235.33 720.544 1232.62 731.172 L1238.42 731.172 Q1239.16 731.172 1239.45 731.204 Q1239.77 731.237 1240.03 731.398 Q1240.29 731.559 1240.29 731.913 Z" fill="#000000" fill-rule="nonzero" fill-opacity="1" /><polyline clip-path="url(#clip143)" style="stroke:#000000; stroke-linecap:round; stroke-linejoin:round; stroke-width:2; stroke-opacity:0.1; fill:none" points="110.881,623.18 2352.76,623.18 "/>
<polyline clip-path="url(#clip143)" style="stroke:#000000; stroke-linecap:round; stroke-linejoin:round; stroke-width:2; stroke-opacity:0.1; fill:none" points="110.881,556.708 2352.76,556.708 "/>
<polyline clip-path="url(#clip140)" style="stroke:#000000; stroke-linecap:round; stroke-linejoin:round; stroke-width:4; stroke-opacity:1; fill:none" points="110.881,623.18 110.881,523.472 "/>
<polyline clip-path="url(#clip140)" style="stroke:#000000; stroke-linecap:round; stroke-linejoin:round; stroke-width:4; stroke-opacity:1; fill:none" points="110.881,623.18 129.779,623.18 "/>
<polyline clip-path="url(#clip140)" style="stroke:#000000; stroke-linecap:round; stroke-linejoin:round; stroke-width:4; stroke-opacity:1; fill:none" points="110.881,556.708 129.779,556.708 "/>
<path clip-path="url(#clip140)" d="M62.9365 608.979 Q59.3254 608.979 57.4967 612.543 Q55.6912 616.085 55.6912 623.215 Q55.6912 630.321 57.4967 633.886 Q59.3254 637.427 62.9365 637.427 Q66.5707 637.427 68.3763 633.886 Q70.205 630.321 70.205 623.215 Q70.205 616.085 68.3763 612.543 Q66.5707 608.979 62.9365 608.979 M62.9365 605.275 Q68.7467 605.275 71.8022 609.881 Q74.8809 614.465 74.8809 623.215 Q74.8809 631.941 71.8022 636.548 Q68.7467 641.131 62.9365 641.131 Q57.1264 641.131 54.0477 636.548 Q50.9921 631.941 50.9921 623.215 Q50.9921 614.465 54.0477 609.881 Q57.1264 605.275 62.9365 605.275 Z" fill="#000000" fill-rule="nonzero" fill-opacity="1" /><path clip-path="url(#clip140)" d="M54.9736 570.053 L62.6124 570.053 L62.6124 543.687 L54.3023 545.354 L54.3023 541.095 L62.5661 539.428 L67.242 539.428 L67.242 570.053 L74.8809 570.053 L74.8809 573.988 L54.9736 573.988 L54.9736 570.053 Z" fill="#000000" fill-rule="nonzero" fill-opacity="1" /><path clip-path="url(#clip140)" d="M1213.86 439.832 Q1213.86 440.078 1213.62 441.062 L1166.68 493.528 L1181.03 493.528 Q1185.25 493.528 1188.45 492.79 Q1191.65 492.011 1193.86 490.7 Q1196.07 489.388 1197.79 487.134 Q1199.56 484.838 1200.7 482.338 Q1201.85 479.797 1203.04 476.067 Q1203.49 474.632 1203.7 474.304 Q1203.9 473.976 1204.43 473.976 Q1204.97 473.976 1205.25 474.304 Q1205.54 474.591 1205.54 474.919 Q1205.54 475.083 1205.46 475.329 Q1205.42 475.534 1205.34 475.78 Q1205.25 476.026 1205.21 476.149 L1199.23 494.717 Q1198.86 495.905 1198.49 496.151 Q1198.12 496.397 1196.65 496.397 L1160.12 496.397 Q1158.85 496.397 1158.44 496.315 Q1158.03 496.192 1158.03 495.66 L1158.36 494.143 L1205.29 441.677 L1191.6 441.677 Q1187.75 441.677 1184.72 442.373 Q1181.73 443.029 1179.59 444.259 Q1177.46 445.448 1175.82 447.456 Q1174.18 449.424 1173.08 451.719 Q1171.97 453.973 1170.95 457.13 L1170.82 457.335 Q1170.7 457.539 1170.62 457.662 Q1170.54 457.744 1170.33 457.867 Q1170.13 457.949 1169.88 457.949 Q1169.43 457.949 1169.14 457.703 Q1168.9 457.457 1168.9 457.212 L1168.86 457.007 Q1168.94 456.269 1169.1 455.859 L1173.73 440.734 Q1174.1 439.545 1174.47 439.299 Q1174.84 439.053 1176.32 439.053 L1211.77 439.053 Q1213.08 439.053 1213.45 439.176 Q1213.86 439.299 1213.86 439.832 Z" fill="#000000" fill-rule="nonzero" fill-opacity="1" /><path clip-path="url(#clip140)" d="M1261.07 435.707 Q1261.41 436.051 1261.41 436.539 Q1261.41 437.026 1261.07 437.371 Q1260.72 437.715 1260.24 437.715 L1223.45 437.715 Q1222.96 437.715 1222.62 437.371 Q1222.28 437.026 1222.28 436.539 Q1222.28 436.051 1222.62 435.707 Q1222.96 435.362 1223.45 435.362 L1260.24 435.362 Q1260.72 435.362 1261.07 435.707 Z" fill="#000000" fill-rule="nonzero" fill-opacity="1" /><path clip-path="url(#clip140)" d="M1267.54 417.688 L1267.54 415.851 Q1274.6 415.851 1278.25 412.093 Q1279.25 412.093 1279.42 412.322 Q1279.59 412.552 1279.59 413.613 L1279.59 446.581 Q1279.59 448.331 1280.46 448.876 Q1281.32 449.422 1285.07 449.422 L1286.94 449.422 L1286.94 451.229 Q1284.87 451.057 1277.41 451.057 Q1269.95 451.057 1267.92 451.229 L1267.92 449.422 L1269.78 449.422 Q1273.48 449.422 1274.37 448.905 Q1275.26 448.36 1275.26 446.581 L1275.26 416.138 Q1272.19 417.688 1267.54 417.688 Z" fill="#000000" fill-rule="nonzero" fill-opacity="1" /><polyline clip-path="url(#clip143)" style="stroke:#009af9; stroke-linecap:round; stroke-linejoin:round; stroke-width:8; stroke-opacity:1; fill:none" points="484.527,556.708 733.624,556.708 733.624,623.18 982.721,623.18 982.721,556.708 1231.82,556.708 1480.92,556.708 1730.01,556.708 1730.01,623.18 1979.11,623.18 2228.21,623.18 2477.3,623.18 "/>
<path clip-path="url(#clip140)" d="M110.881 1023.18 L2352.76 1023.18 L2352.76 923.472 L110.881 923.472  Z" fill="#ffffff" fill-rule="evenodd" fill-opacity="1"/>
<defs>
  <clipPath id="clip144">
    <rect x="110" y="923" width="2243" height="101"/>
  </clipPath>
</defs>
<polyline clip-path="url(#clip144)" style="stroke:#000000; stroke-linecap:round; stroke-linejoin:round; stroke-width:2; stroke-opacity:0.1; fill:none" points="235.429,1023.18 235.429,923.472 "/>
<polyline clip-path="url(#clip144)" style="stroke:#000000; stroke-linecap:round; stroke-linejoin:round; stroke-width:2; stroke-opacity:0.1; fill:none" points="484.527,1023.18 484.527,923.472 "/>
<polyline clip-path="url(#clip144)" style="stroke:#000000; stroke-linecap:round; stroke-linejoin:round; stroke-width:2; stroke-opacity:0.1; fill:none" points="733.624,1023.18 733.624,923.472 "/>
<polyline clip-path="url(#clip144)" style="stroke:#000000; stroke-linecap:round; stroke-linejoin:round; stroke-width:2; stroke-opacity:0.1; fill:none" points="982.721,1023.18 982.721,923.472 "/>
<polyline clip-path="url(#clip144)" style="stroke:#000000; stroke-linecap:round; stroke-linejoin:round; stroke-width:2; stroke-opacity:0.1; fill:none" points="1231.82,1023.18 1231.82,923.472 "/>
<polyline clip-path="url(#clip144)" style="stroke:#000000; stroke-linecap:round; stroke-linejoin:round; stroke-width:2; stroke-opacity:0.1; fill:none" points="1480.92,1023.18 1480.92,923.472 "/>
<polyline clip-path="url(#clip144)" style="stroke:#000000; stroke-linecap:round; stroke-linejoin:round; stroke-width:2; stroke-opacity:0.1; fill:none" points="1730.01,1023.18 1730.01,923.472 "/>
<polyline clip-path="url(#clip144)" style="stroke:#000000; stroke-linecap:round; stroke-linejoin:round; stroke-width:2; stroke-opacity:0.1; fill:none" points="1979.11,1023.18 1979.11,923.472 "/>
<polyline clip-path="url(#clip144)" style="stroke:#000000; stroke-linecap:round; stroke-linejoin:round; stroke-width:2; stroke-opacity:0.1; fill:none" points="2228.21,1023.18 2228.21,923.472 "/>
<polyline clip-path="url(#clip140)" style="stroke:#000000; stroke-linecap:round; stroke-linejoin:round; stroke-width:4; stroke-opacity:1; fill:none" points="110.881,1023.18 2352.76,1023.18 "/>
<polyline clip-path="url(#clip140)" style="stroke:#000000; stroke-linecap:round; stroke-linejoin:round; stroke-width:4; stroke-opacity:1; fill:none" points="235.429,1023.18 235.429,1004.28 "/>
<polyline clip-path="url(#clip140)" style="stroke:#000000; stroke-linecap:round; stroke-linejoin:round; stroke-width:4; stroke-opacity:1; fill:none" points="484.527,1023.18 484.527,1004.28 "/>
<polyline clip-path="url(#clip140)" style="stroke:#000000; stroke-linecap:round; stroke-linejoin:round; stroke-width:4; stroke-opacity:1; fill:none" points="733.624,1023.18 733.624,1004.28 "/>
<polyline clip-path="url(#clip140)" style="stroke:#000000; stroke-linecap:round; stroke-linejoin:round; stroke-width:4; stroke-opacity:1; fill:none" points="982.721,1023.18 982.721,1004.28 "/>
<polyline clip-path="url(#clip140)" style="stroke:#000000; stroke-linecap:round; stroke-linejoin:round; stroke-width:4; stroke-opacity:1; fill:none" points="1231.82,1023.18 1231.82,1004.28 "/>
<polyline clip-path="url(#clip140)" style="stroke:#000000; stroke-linecap:round; stroke-linejoin:round; stroke-width:4; stroke-opacity:1; fill:none" points="1480.92,1023.18 1480.92,1004.28 "/>
<polyline clip-path="url(#clip140)" style="stroke:#000000; stroke-linecap:round; stroke-linejoin:round; stroke-width:4; stroke-opacity:1; fill:none" points="1730.01,1023.18 1730.01,1004.28 "/>
<polyline clip-path="url(#clip140)" style="stroke:#000000; stroke-linecap:round; stroke-linejoin:round; stroke-width:4; stroke-opacity:1; fill:none" points="1979.11,1023.18 1979.11,1004.28 "/>
<polyline clip-path="url(#clip140)" style="stroke:#000000; stroke-linecap:round; stroke-linejoin:round; stroke-width:4; stroke-opacity:1; fill:none" points="2228.21,1023.18 2228.21,1004.28 "/>
<path clip-path="url(#clip140)" d="M235.429 1054.1 Q231.818 1054.1 229.99 1057.66 Q228.184 1061.2 228.184 1068.33 Q228.184 1075.44 229.99 1079.01 Q231.818 1082.55 235.429 1082.55 Q239.064 1082.55 240.869 1079.01 Q242.698 1075.44 242.698 1068.33 Q242.698 1061.2 240.869 1057.66 Q239.064 1054.1 235.429 1054.1 M235.429 1050.39 Q241.24 1050.39 244.295 1055 Q247.374 1059.58 247.374 1068.33 Q247.374 1077.06 244.295 1081.67 Q241.24 1086.25 235.429 1086.25 Q229.619 1086.25 226.541 1081.67 Q223.485 1077.06 223.485 1068.33 Q223.485 1059.58 226.541 1055 Q229.619 1050.39 235.429 1050.39 Z" fill="#000000" fill-rule="nonzero" fill-opacity="1" /><path clip-path="url(#clip140)" d="M474.909 1081.64 L482.548 1081.64 L482.548 1055.28 L474.237 1056.95 L474.237 1052.69 L482.501 1051.02 L487.177 1051.02 L487.177 1081.64 L494.816 1081.64 L494.816 1085.58 L474.909 1085.58 L474.909 1081.64 Z" fill="#000000" fill-rule="nonzero" fill-opacity="1" /><path clip-path="url(#clip140)" d="M728.277 1081.64 L744.596 1081.64 L744.596 1085.58 L722.652 1085.58 L722.652 1081.64 Q725.314 1078.89 729.897 1074.26 Q734.504 1069.61 735.684 1068.27 Q737.929 1065.74 738.809 1064.01 Q739.712 1062.25 739.712 1060.56 Q739.712 1057.8 737.767 1056.07 Q735.846 1054.33 732.744 1054.33 Q730.545 1054.33 728.092 1055.09 Q725.661 1055.86 722.883 1057.41 L722.883 1052.69 Q725.707 1051.55 728.161 1050.97 Q730.615 1050.39 732.652 1050.39 Q738.022 1050.39 741.216 1053.08 Q744.411 1055.77 744.411 1060.26 Q744.411 1062.39 743.601 1064.31 Q742.814 1066.2 740.707 1068.8 Q740.129 1069.47 737.027 1072.69 Q733.925 1075.88 728.277 1081.64 Z" fill="#000000" fill-rule="nonzero" fill-opacity="1" /><path clip-path="url(#clip140)" d="M986.969 1066.95 Q990.325 1067.66 992.2 1069.93 Q994.098 1072.2 994.098 1075.53 Q994.098 1080.65 990.58 1083.45 Q987.061 1086.25 980.58 1086.25 Q978.404 1086.25 976.089 1085.81 Q973.798 1085.39 971.344 1084.54 L971.344 1080.02 Q973.288 1081.16 975.603 1081.74 Q977.918 1082.32 980.441 1082.32 Q984.839 1082.32 987.131 1080.58 Q989.446 1078.84 989.446 1075.53 Q989.446 1072.48 987.293 1070.77 Q985.163 1069.03 981.344 1069.03 L977.316 1069.03 L977.316 1065.19 L981.529 1065.19 Q984.978 1065.19 986.807 1063.82 Q988.635 1062.43 988.635 1059.84 Q988.635 1057.18 986.737 1055.77 Q984.862 1054.33 981.344 1054.33 Q979.423 1054.33 977.224 1054.75 Q975.024 1055.16 972.386 1056.04 L972.386 1051.88 Q975.048 1051.14 977.362 1050.77 Q979.7 1050.39 981.761 1050.39 Q987.085 1050.39 990.186 1052.83 Q993.288 1055.23 993.288 1059.35 Q993.288 1062.22 991.645 1064.21 Q990.001 1066.18 986.969 1066.95 Z" fill="#000000" fill-rule="nonzero" fill-opacity="1" /><path clip-path="url(#clip140)" d="M1234.83 1055.09 L1223.02 1073.54 L1234.83 1073.54 L1234.83 1055.09 M1233.6 1051.02 L1239.48 1051.02 L1239.48 1073.54 L1244.41 1073.54 L1244.41 1077.43 L1239.48 1077.43 L1239.48 1085.58 L1234.83 1085.58 L1234.83 1077.43 L1219.23 1077.43 L1219.23 1072.92 L1233.6 1051.02 Z" fill="#000000" fill-rule="nonzero" fill-opacity="1" /><path clip-path="url(#clip140)" d="M1471.19 1051.02 L1489.55 1051.02 L1489.55 1054.96 L1475.48 1054.96 L1475.48 1063.43 Q1476.49 1063.08 1477.51 1062.92 Q1478.53 1062.73 1479.55 1062.73 Q1485.34 1062.73 1488.72 1065.9 Q1492.1 1069.08 1492.1 1074.49 Q1492.1 1080.07 1488.62 1083.17 Q1485.15 1086.25 1478.83 1086.25 Q1476.66 1086.25 1474.39 1085.88 Q1472.14 1085.51 1469.74 1084.77 L1469.74 1080.07 Q1471.82 1081.2 1474.04 1081.76 Q1476.26 1082.32 1478.74 1082.32 Q1482.74 1082.32 1485.08 1080.21 Q1487.42 1078.1 1487.42 1074.49 Q1487.42 1070.88 1485.08 1068.77 Q1482.74 1066.67 1478.74 1066.67 Q1476.86 1066.67 1474.99 1067.08 Q1473.14 1067.5 1471.19 1068.38 L1471.19 1051.02 Z" fill="#000000" fill-rule="nonzero" fill-opacity="1" /><path clip-path="url(#clip140)" d="M1730.42 1066.44 Q1727.27 1066.44 1725.42 1068.59 Q1723.59 1070.74 1723.59 1074.49 Q1723.59 1078.22 1725.42 1080.39 Q1727.27 1082.55 1730.42 1082.55 Q1733.57 1082.55 1735.39 1080.39 Q1737.25 1078.22 1737.25 1074.49 Q1737.25 1070.74 1735.39 1068.59 Q1733.57 1066.44 1730.42 1066.44 M1739.7 1051.78 L1739.7 1056.04 Q1737.94 1055.21 1736.14 1054.77 Q1734.35 1054.33 1732.59 1054.33 Q1727.96 1054.33 1725.51 1057.45 Q1723.08 1060.58 1722.73 1066.9 Q1724.1 1064.89 1726.16 1063.82 Q1728.22 1062.73 1730.7 1062.73 Q1735.9 1062.73 1738.91 1065.9 Q1741.95 1069.05 1741.95 1074.49 Q1741.95 1079.82 1738.8 1083.03 Q1735.65 1086.25 1730.42 1086.25 Q1724.42 1086.25 1721.25 1081.67 Q1718.08 1077.06 1718.08 1068.33 Q1718.08 1060.14 1721.97 1055.28 Q1725.86 1050.39 1732.41 1050.39 Q1734.17 1050.39 1735.95 1050.74 Q1737.76 1051.09 1739.7 1051.78 Z" fill="#000000" fill-rule="nonzero" fill-opacity="1" /><path clip-path="url(#clip140)" d="M1968 1051.02 L1990.22 1051.02 L1990.22 1053.01 L1977.67 1085.58 L1972.79 1085.58 L1984.6 1054.96 L1968 1054.96 L1968 1051.02 Z" fill="#000000" fill-rule="nonzero" fill-opacity="1" /><path clip-path="url(#clip140)" d="M2228.21 1069.17 Q2224.87 1069.17 2222.95 1070.95 Q2221.05 1072.73 2221.05 1075.86 Q2221.05 1078.98 2222.95 1080.77 Q2224.87 1082.55 2228.21 1082.55 Q2231.54 1082.55 2233.46 1080.77 Q2235.38 1078.96 2235.38 1075.86 Q2235.38 1072.73 2233.46 1070.95 Q2231.56 1069.17 2228.21 1069.17 M2223.53 1067.18 Q2220.52 1066.44 2218.83 1064.38 Q2217.17 1062.32 2217.17 1059.35 Q2217.17 1055.21 2220.11 1052.8 Q2223.07 1050.39 2228.21 1050.39 Q2233.37 1050.39 2236.31 1052.8 Q2239.25 1055.21 2239.25 1059.35 Q2239.25 1062.32 2237.56 1064.38 Q2235.89 1066.44 2232.91 1067.18 Q2236.29 1067.96 2238.16 1070.26 Q2240.06 1072.55 2240.06 1075.86 Q2240.06 1080.88 2236.98 1083.57 Q2233.92 1086.25 2228.21 1086.25 Q2222.49 1086.25 2219.41 1083.57 Q2216.36 1080.88 2216.36 1075.86 Q2216.36 1072.55 2218.25 1070.26 Q2220.15 1067.96 2223.53 1067.18 M2221.82 1059.79 Q2221.82 1062.48 2223.49 1063.98 Q2225.17 1065.49 2228.21 1065.49 Q2231.22 1065.49 2232.91 1063.98 Q2234.62 1062.48 2234.62 1059.79 Q2234.62 1057.11 2232.91 1055.6 Q2231.22 1054.1 2228.21 1054.1 Q2225.17 1054.1 2223.49 1055.6 Q2221.82 1057.11 2221.82 1059.79 Z" fill="#000000" fill-rule="nonzero" fill-opacity="1" /><path clip-path="url(#clip140)" d="M1240.29 1131.91 Q1240.29 1132.81 1239.87 1133.04 Q1239.45 1133.23 1238.29 1133.23 L1232.11 1133.23 L1227.21 1152.69 Q1226.83 1154.39 1226.83 1155.84 Q1226.83 1157.45 1227.31 1158.16 Q1227.83 1158.87 1228.89 1158.87 Q1230.98 1158.87 1233.24 1156.97 Q1235.52 1155.07 1237.46 1150.43 Q1237.71 1149.82 1237.84 1149.69 Q1238 1149.53 1238.42 1149.53 Q1239.23 1149.53 1239.23 1150.17 Q1239.23 1150.4 1238.78 1151.43 Q1238.36 1152.46 1237.42 1153.97 Q1236.52 1155.49 1235.33 1156.9 Q1234.17 1158.32 1232.4 1159.35 Q1230.63 1160.35 1228.73 1160.35 Q1226.05 1160.35 1224.35 1158.64 Q1222.67 1156.94 1222.67 1154.26 Q1222.67 1153.39 1223.35 1150.62 Q1224.03 1147.82 1227.7 1133.23 L1221.87 1133.23 Q1221.06 1133.23 1220.74 1133.2 Q1220.45 1133.17 1220.23 1133.01 Q1220.03 1132.81 1220.03 1132.43 Q1220.03 1131.82 1220.29 1131.56 Q1220.55 1131.27 1220.87 1131.24 Q1221.22 1131.17 1222.03 1131.17 L1228.21 1131.17 L1230.79 1120.71 Q1231.05 1119.67 1231.69 1119.09 Q1232.37 1118.48 1232.75 1118.42 Q1233.14 1118.32 1233.43 1118.32 Q1234.3 1118.32 1234.81 1118.81 Q1235.33 1119.26 1235.33 1120.09 Q1235.33 1120.54 1232.62 1131.17 L1238.42 1131.17 Q1239.16 1131.17 1239.45 1131.2 Q1239.77 1131.24 1240.03 1131.4 Q1240.29 1131.56 1240.29 1131.91 Z" fill="#000000" fill-rule="nonzero" fill-opacity="1" /><polyline clip-path="url(#clip144)" style="stroke:#000000; stroke-linecap:round; stroke-linejoin:round; stroke-width:2; stroke-opacity:0.1; fill:none" points="110.881,1023.18 2352.76,1023.18 "/>
<polyline clip-path="url(#clip144)" style="stroke:#000000; stroke-linecap:round; stroke-linejoin:round; stroke-width:2; stroke-opacity:0.1; fill:none" points="110.881,956.708 2352.76,956.708 "/>
<polyline clip-path="url(#clip140)" style="stroke:#000000; stroke-linecap:round; stroke-linejoin:round; stroke-width:4; stroke-opacity:1; fill:none" points="110.881,1023.18 110.881,923.472 "/>
<polyline clip-path="url(#clip140)" style="stroke:#000000; stroke-linecap:round; stroke-linejoin:round; stroke-width:4; stroke-opacity:1; fill:none" points="110.881,1023.18 129.779,1023.18 "/>
<polyline clip-path="url(#clip140)" style="stroke:#000000; stroke-linecap:round; stroke-linejoin:round; stroke-width:4; stroke-opacity:1; fill:none" points="110.881,956.708 129.779,956.708 "/>
<path clip-path="url(#clip140)" d="M62.9365 1008.98 Q59.3254 1008.98 57.4967 1012.54 Q55.6912 1016.08 55.6912 1023.21 Q55.6912 1030.32 57.4967 1033.89 Q59.3254 1037.43 62.9365 1037.43 Q66.5707 1037.43 68.3763 1033.89 Q70.205 1030.32 70.205 1023.21 Q70.205 1016.08 68.3763 1012.54 Q66.5707 1008.98 62.9365 1008.98 M62.9365 1005.27 Q68.7467 1005.27 71.8022 1009.88 Q74.8809 1014.46 74.8809 1023.21 Q74.8809 1031.94 71.8022 1036.55 Q68.7467 1041.13 62.9365 1041.13 Q57.1264 1041.13 54.0477 1036.55 Q50.9921 1031.94 50.9921 1023.21 Q50.9921 1014.46 54.0477 1009.88 Q57.1264 1005.27 62.9365 1005.27 Z" fill="#000000" fill-rule="nonzero" fill-opacity="1" /><path clip-path="url(#clip140)" d="M54.9736 970.053 L62.6124 970.053 L62.6124 943.687 L54.3023 945.354 L54.3023 941.095 L62.5661 939.428 L67.242 939.428 L67.242 970.053 L74.8809 970.053 L74.8809 973.988 L54.9736 973.988 L54.9736 970.053 Z" fill="#000000" fill-rule="nonzero" fill-opacity="1" /><path clip-path="url(#clip140)" d="M1199.37 826.429 Q1199.37 827.167 1199.09 827.577 Q1198.84 827.946 1198.55 828.028 Q1198.27 828.069 1197.53 828.11 Q1191.67 828.397 1186.87 832.373 Q1185.68 833.397 1182.69 836.595 Q1179.74 839.792 1175.8 844.055 Q1171.91 848.317 1169.66 850.613 L1180.48 876.518 Q1180.93 877.543 1181.09 877.994 Q1181.3 878.404 1181.71 878.936 Q1182.16 879.469 1182.49 879.633 Q1182.85 879.797 1183.63 880.002 Q1184.45 880.166 1185.27 880.207 Q1186.13 880.207 1187.69 880.248 Q1188.18 880.248 1188.39 880.289 Q1188.63 880.289 1188.92 880.535 Q1189.21 880.74 1189.21 881.232 Q1189.21 881.97 1188.88 882.38 Q1188.59 882.748 1188.31 882.789 Q1188.06 882.83 1187.61 882.83 Q1186.54 882.83 1182.94 882.707 Q1179.33 882.585 1178.3 882.585 L1167.73 882.83 Q1166.46 882.83 1166.46 881.806 Q1166.46 881.273 1166.54 880.986 Q1166.66 880.658 1166.95 880.535 Q1167.24 880.371 1167.44 880.33 Q1167.65 880.289 1168.14 880.248 Q1169.66 880.084 1170.8 879.633 Q1171.99 879.141 1172.48 878.65 Q1173.02 878.158 1173.02 877.789 L1172.61 876.6 L1164.12 856.556 L1156.54 864.795 L1147.97 873.854 Q1145.72 876.272 1145.72 877.625 Q1145.72 879.879 1149.08 880.248 Q1150.1 880.33 1150.1 881.15 Q1150.1 881.929 1149.78 882.339 Q1149.49 882.707 1149.2 882.789 Q1148.96 882.83 1148.59 882.83 Q1147.07 882.83 1143.87 882.707 Q1140.72 882.585 1139.16 882.585 Q1137.85 882.585 1135.18 882.707 Q1132.52 882.83 1131.29 882.83 Q1130.8 882.83 1130.51 882.585 Q1130.22 882.339 1130.22 882.093 L1130.18 881.888 Q1130.18 881.314 1130.27 880.986 Q1130.39 880.658 1130.72 880.494 Q1131.08 880.33 1131.25 880.33 Q1131.41 880.289 1132.03 880.248 Q1135.51 880.043 1138.46 878.691 Q1141.46 877.338 1144.37 874.182 Q1144.61 873.977 1144.9 873.731 Q1145.23 873.485 1145.47 873.28 L1163.18 854.22 L1153.26 830.774 Q1152.81 829.708 1152.4 829.257 Q1151.99 828.766 1150.72 828.438 Q1149.45 828.11 1146.99 828.11 Q1146.29 828.11 1145.96 828.069 Q1145.64 828.028 1145.35 827.823 Q1145.06 827.618 1145.06 827.167 Q1145.06 826.388 1145.35 826.019 Q1145.68 825.609 1145.92 825.568 Q1146.21 825.486 1146.58 825.486 Q1147.6 825.486 1151.25 825.609 Q1154.9 825.732 1155.97 825.732 Q1157.73 825.732 1161.25 825.609 Q1164.82 825.486 1166.54 825.486 Q1167.81 825.486 1167.81 826.511 Q1167.81 827.167 1167.52 827.536 Q1167.24 827.905 1166.95 827.987 Q1166.66 828.069 1166.13 828.11 Q1164.53 828.274 1163.3 828.807 Q1162.11 829.298 1161.62 829.79 Q1161.17 830.241 1161.17 830.528 L1161.58 831.635 L1168.63 848.317 L1182.24 833.725 Q1183.84 831.922 1183.84 830.692 Q1183.84 828.479 1180.48 828.11 Q1179.45 827.946 1179.45 827.167 Q1179.45 826.388 1179.78 826.019 Q1180.11 825.609 1180.35 825.568 Q1180.64 825.486 1181.05 825.486 Q1182.57 825.486 1185.68 825.609 Q1188.84 825.732 1190.4 825.732 Q1191.71 825.732 1194.37 825.609 Q1197.04 825.486 1198.27 825.486 Q1198.76 825.486 1199.05 825.732 Q1199.33 825.937 1199.33 826.183 L1199.37 826.429 Z" fill="#000000" fill-rule="nonzero" fill-opacity="1" /><path clip-path="url(#clip140)" d="M1262.65 846.227 Q1262.65 852.088 1260.55 857.909 Q1258.51 863.688 1254.9 868.443 Q1251.29 873.198 1246.7 876.887 Q1242.11 880.576 1236.74 882.625 Q1231.37 884.675 1226.12 884.675 Q1216.82 884.675 1210.71 878.568 Q1204.6 872.46 1204.6 862.254 Q1204.6 855.122 1207.8 848.031 Q1211 840.898 1216.08 835.611 Q1221.16 830.282 1227.85 826.962 Q1234.57 823.642 1241.21 823.642 Q1250.64 823.642 1256.62 829.913 Q1262.65 836.144 1262.65 846.227 M1255.14 842.948 Q1255.14 838.439 1253.87 835.037 Q1252.6 831.594 1250.47 829.626 Q1248.38 827.659 1245.88 826.716 Q1243.42 825.732 1240.72 825.732 Q1235.47 825.732 1229.85 829.134 Q1224.24 832.537 1220.06 838.849 Q1217.8 842.292 1216.16 846.432 Q1214.52 850.531 1213.79 854.179 Q1213.05 857.786 1212.72 860.327 Q1212.43 862.869 1212.43 864.631 Q1212.43 872.829 1216.37 877.666 Q1220.3 882.503 1226.62 882.503 Q1231.58 882.503 1236.41 879.592 Q1241.25 876.641 1244.57 872.419 Q1247.52 868.771 1249.69 864.385 Q1251.91 859.999 1253.01 855.982 Q1254.12 851.966 1254.61 848.727 Q1255.14 845.489 1255.14 842.948 Z" fill="#000000" fill-rule="nonzero" fill-opacity="1" /><path clip-path="url(#clip140)" d="M1321.15 836.39 Q1321.15 835.037 1320.78 833.93 Q1320.46 832.783 1319.92 832.004 Q1319.43 831.184 1318.49 830.569 Q1317.55 829.913 1316.77 829.503 Q1315.99 829.093 1314.68 828.848 Q1313.37 828.561 1312.5 828.438 Q1311.64 828.274 1310.17 828.192 Q1308.69 828.11 1307.95 828.11 Q1307.26 828.11 1305.86 828.11 Q1301.48 828.11 1300.74 828.192 Q1299.63 828.356 1299.22 829.012 Q1298.81 829.626 1298.4 831.307 L1292.95 853.195 L1302.34 853.195 Q1307.46 853.195 1310.99 851.761 Q1314.51 850.326 1316.52 848.317 Q1318.73 846.104 1319.92 842.538 Q1321.15 838.972 1321.15 836.39 M1330.29 875.042 Q1330.29 875.493 1329.92 876.518 Q1329.6 877.543 1328.78 878.977 Q1327.96 880.371 1326.85 881.642 Q1325.74 882.912 1323.98 883.773 Q1322.22 884.675 1320.21 884.675 Q1319.72 884.675 1319.23 884.634 Q1318.73 884.634 1317.51 884.429 Q1316.32 884.265 1315.33 883.937 Q1314.35 883.65 1313.12 882.953 Q1311.89 882.298 1311.03 881.396 Q1310.21 880.453 1309.64 878.977 Q1309.06 877.461 1309.06 875.616 Q1309.06 873.977 1310.41 868.484 Q1311.6 863.811 1311.6 862.664 Q1311.6 861.393 1311.19 860.204 Q1310.82 859.016 1309.88 857.786 Q1308.98 856.556 1307.05 855.819 Q1305.13 855.04 1302.42 855.04 L1292.46 855.04 L1286.89 877.297 Q1286.89 877.338 1286.76 877.912 Q1286.64 878.445 1286.64 878.732 Q1286.64 879.264 1286.97 879.592 Q1287.34 879.92 1288.24 880.084 Q1289.14 880.207 1289.84 880.248 Q1290.58 880.248 1292.09 880.248 Q1293.98 880.248 1294.31 880.576 Q1294.47 880.781 1294.47 881.15 Q1294.47 881.724 1294.31 882.134 Q1294.18 882.503 1293.85 882.625 Q1293.57 882.748 1293.36 882.789 Q1293.16 882.83 1292.79 882.83 L1282.13 882.585 L1271.56 882.83 Q1270.37 882.83 1270.37 881.888 Q1270.37 881.068 1270.65 880.74 Q1270.94 880.371 1271.31 880.33 Q1271.68 880.248 1272.62 880.248 Q1274.67 880.248 1275.9 880.125 Q1277.13 880.002 1277.91 879.838 Q1278.73 879.633 1279.14 879.059 Q1279.59 878.486 1279.79 877.994 Q1280 877.461 1280.29 876.272 L1291.52 831.184 Q1291.85 829.831 1291.85 829.626 Q1291.85 828.848 1291.35 828.643 Q1290.9 828.397 1289.59 828.274 L1286.39 828.11 Q1285.41 828.11 1285 828.069 Q1284.63 828.028 1284.34 827.823 Q1284.06 827.618 1284.06 827.167 Q1284.06 826.019 1284.55 825.773 Q1285.04 825.486 1286.48 825.486 L1310.41 825.486 Q1318.57 825.486 1323.74 829.053 Q1328.94 832.619 1328.94 838.07 Q1328.94 840.53 1327.83 842.825 Q1326.73 845.12 1324.88 846.924 Q1323.08 848.727 1320.66 850.244 Q1318.24 851.72 1315.66 852.744 Q1313.12 853.728 1310.5 854.302 Q1311.64 854.712 1312.71 855.327 Q1313.82 855.941 1315.21 857.089 Q1316.64 858.237 1317.51 860.081 Q1318.37 861.926 1318.37 864.18 Q1318.37 865.779 1318.04 868.156 Q1317.22 874.92 1317.22 877.707 Q1317.22 880.371 1317.91 881.601 Q1318.61 882.83 1320.58 882.83 Q1322.51 882.83 1324.64 881.109 Q1326.81 879.346 1328.2 875.206 Q1328.53 874.018 1329.31 874.018 Q1329.35 874.018 1329.39 874.018 Q1329.47 874.018 1329.64 874.1 Q1329.8 874.141 1329.92 874.264 Q1330.09 874.346 1330.17 874.551 Q1330.29 874.756 1330.29 875.042 Z" fill="#000000" fill-rule="nonzero" fill-opacity="1" /><polyline clip-path="url(#clip144)" style="stroke:#009af9; stroke-linecap:round; stroke-linejoin:round; stroke-width:8; stroke-opacity:1; fill:none" points="484.527,956.708 733.624,956.708 982.721,956.708 982.721,1023.18 1231.82,1023.18 1480.92,1023.18 1480.92,956.708 1730.01,956.708 1730.01,1023.18 1979.11,1023.18 2228.21,1023.18 2477.3,1023.18 "/>
<path clip-path="url(#clip140)" d="M110.881 1423.18 L2352.76 1423.18 L2352.76 1323.47 L110.881 1323.47  Z" fill="#ffffff" fill-rule="evenodd" fill-opacity="1"/>
<defs>
  <clipPath id="clip145">
    <rect x="110" y="1323" width="2243" height="101"/>
  </clipPath>
</defs>
<polyline clip-path="url(#clip145)" style="stroke:#000000; stroke-linecap:round; stroke-linejoin:round; stroke-width:2; stroke-opacity:0.1; fill:none" points="235.429,1423.18 235.429,1323.47 "/>
<polyline clip-path="url(#clip145)" style="stroke:#000000; stroke-linecap:round; stroke-linejoin:round; stroke-width:2; stroke-opacity:0.1; fill:none" points="484.527,1423.18 484.527,1323.47 "/>
<polyline clip-path="url(#clip145)" style="stroke:#000000; stroke-linecap:round; stroke-linejoin:round; stroke-width:2; stroke-opacity:0.1; fill:none" points="733.624,1423.18 733.624,1323.47 "/>
<polyline clip-path="url(#clip145)" style="stroke:#000000; stroke-linecap:round; stroke-linejoin:round; stroke-width:2; stroke-opacity:0.1; fill:none" points="982.721,1423.18 982.721,1323.47 "/>
<polyline clip-path="url(#clip145)" style="stroke:#000000; stroke-linecap:round; stroke-linejoin:round; stroke-width:2; stroke-opacity:0.1; fill:none" points="1231.82,1423.18 1231.82,1323.47 "/>
<polyline clip-path="url(#clip145)" style="stroke:#000000; stroke-linecap:round; stroke-linejoin:round; stroke-width:2; stroke-opacity:0.1; fill:none" points="1480.92,1423.18 1480.92,1323.47 "/>
<polyline clip-path="url(#clip145)" style="stroke:#000000; stroke-linecap:round; stroke-linejoin:round; stroke-width:2; stroke-opacity:0.1; fill:none" points="1730.01,1423.18 1730.01,1323.47 "/>
<polyline clip-path="url(#clip145)" style="stroke:#000000; stroke-linecap:round; stroke-linejoin:round; stroke-width:2; stroke-opacity:0.1; fill:none" points="1979.11,1423.18 1979.11,1323.47 "/>
<polyline clip-path="url(#clip145)" style="stroke:#000000; stroke-linecap:round; stroke-linejoin:round; stroke-width:2; stroke-opacity:0.1; fill:none" points="2228.21,1423.18 2228.21,1323.47 "/>
<polyline clip-path="url(#clip140)" style="stroke:#000000; stroke-linecap:round; stroke-linejoin:round; stroke-width:4; stroke-opacity:1; fill:none" points="110.881,1423.18 2352.76,1423.18 "/>
<polyline clip-path="url(#clip140)" style="stroke:#000000; stroke-linecap:round; stroke-linejoin:round; stroke-width:4; stroke-opacity:1; fill:none" points="235.429,1423.18 235.429,1404.28 "/>
<polyline clip-path="url(#clip140)" style="stroke:#000000; stroke-linecap:round; stroke-linejoin:round; stroke-width:4; stroke-opacity:1; fill:none" points="484.527,1423.18 484.527,1404.28 "/>
<polyline clip-path="url(#clip140)" style="stroke:#000000; stroke-linecap:round; stroke-linejoin:round; stroke-width:4; stroke-opacity:1; fill:none" points="733.624,1423.18 733.624,1404.28 "/>
<polyline clip-path="url(#clip140)" style="stroke:#000000; stroke-linecap:round; stroke-linejoin:round; stroke-width:4; stroke-opacity:1; fill:none" points="982.721,1423.18 982.721,1404.28 "/>
<polyline clip-path="url(#clip140)" style="stroke:#000000; stroke-linecap:round; stroke-linejoin:round; stroke-width:4; stroke-opacity:1; fill:none" points="1231.82,1423.18 1231.82,1404.28 "/>
<polyline clip-path="url(#clip140)" style="stroke:#000000; stroke-linecap:round; stroke-linejoin:round; stroke-width:4; stroke-opacity:1; fill:none" points="1480.92,1423.18 1480.92,1404.28 "/>
<polyline clip-path="url(#clip140)" style="stroke:#000000; stroke-linecap:round; stroke-linejoin:round; stroke-width:4; stroke-opacity:1; fill:none" points="1730.01,1423.18 1730.01,1404.28 "/>
<polyline clip-path="url(#clip140)" style="stroke:#000000; stroke-linecap:round; stroke-linejoin:round; stroke-width:4; stroke-opacity:1; fill:none" points="1979.11,1423.18 1979.11,1404.28 "/>
<polyline clip-path="url(#clip140)" style="stroke:#000000; stroke-linecap:round; stroke-linejoin:round; stroke-width:4; stroke-opacity:1; fill:none" points="2228.21,1423.18 2228.21,1404.28 "/>
<path clip-path="url(#clip140)" d="M235.429 1454.1 Q231.818 1454.1 229.99 1457.66 Q228.184 1461.2 228.184 1468.33 Q228.184 1475.44 229.99 1479.01 Q231.818 1482.55 235.429 1482.55 Q239.064 1482.55 240.869 1479.01 Q242.698 1475.44 242.698 1468.33 Q242.698 1461.2 240.869 1457.66 Q239.064 1454.1 235.429 1454.1 M235.429 1450.39 Q241.24 1450.39 244.295 1455 Q247.374 1459.58 247.374 1468.33 Q247.374 1477.06 244.295 1481.67 Q241.24 1486.25 235.429 1486.25 Q229.619 1486.25 226.541 1481.67 Q223.485 1477.06 223.485 1468.33 Q223.485 1459.58 226.541 1455 Q229.619 1450.39 235.429 1450.39 Z" fill="#000000" fill-rule="nonzero" fill-opacity="1" /><path clip-path="url(#clip140)" d="M474.909 1481.64 L482.548 1481.64 L482.548 1455.28 L474.237 1456.95 L474.237 1452.69 L482.501 1451.02 L487.177 1451.02 L487.177 1481.64 L494.816 1481.64 L494.816 1485.58 L474.909 1485.58 L474.909 1481.64 Z" fill="#000000" fill-rule="nonzero" fill-opacity="1" /><path clip-path="url(#clip140)" d="M728.277 1481.64 L744.596 1481.64 L744.596 1485.58 L722.652 1485.58 L722.652 1481.64 Q725.314 1478.89 729.897 1474.26 Q734.504 1469.61 735.684 1468.27 Q737.929 1465.74 738.809 1464.01 Q739.712 1462.25 739.712 1460.56 Q739.712 1457.8 737.767 1456.07 Q735.846 1454.33 732.744 1454.33 Q730.545 1454.33 728.092 1455.09 Q725.661 1455.86 722.883 1457.41 L722.883 1452.69 Q725.707 1451.55 728.161 1450.97 Q730.615 1450.39 732.652 1450.39 Q738.022 1450.39 741.216 1453.08 Q744.411 1455.77 744.411 1460.26 Q744.411 1462.39 743.601 1464.31 Q742.814 1466.2 740.707 1468.8 Q740.129 1469.47 737.027 1472.69 Q733.925 1475.88 728.277 1481.64 Z" fill="#000000" fill-rule="nonzero" fill-opacity="1" /><path clip-path="url(#clip140)" d="M986.969 1466.95 Q990.325 1467.66 992.2 1469.93 Q994.098 1472.2 994.098 1475.53 Q994.098 1480.65 990.58 1483.45 Q987.061 1486.25 980.58 1486.25 Q978.404 1486.25 976.089 1485.81 Q973.798 1485.39 971.344 1484.54 L971.344 1480.02 Q973.288 1481.16 975.603 1481.74 Q977.918 1482.32 980.441 1482.32 Q984.839 1482.32 987.131 1480.58 Q989.446 1478.84 989.446 1475.53 Q989.446 1472.48 987.293 1470.77 Q985.163 1469.03 981.344 1469.03 L977.316 1469.03 L977.316 1465.19 L981.529 1465.19 Q984.978 1465.19 986.807 1463.82 Q988.635 1462.43 988.635 1459.84 Q988.635 1457.18 986.737 1455.77 Q984.862 1454.33 981.344 1454.33 Q979.423 1454.33 977.224 1454.75 Q975.024 1455.16 972.386 1456.04 L972.386 1451.88 Q975.048 1451.14 977.362 1450.77 Q979.7 1450.39 981.761 1450.39 Q987.085 1450.39 990.186 1452.83 Q993.288 1455.23 993.288 1459.35 Q993.288 1462.22 991.645 1464.21 Q990.001 1466.18 986.969 1466.95 Z" fill="#000000" fill-rule="nonzero" fill-opacity="1" /><path clip-path="url(#clip140)" d="M1234.83 1455.09 L1223.02 1473.54 L1234.83 1473.54 L1234.83 1455.09 M1233.6 1451.02 L1239.48 1451.02 L1239.48 1473.54 L1244.41 1473.54 L1244.41 1477.43 L1239.48 1477.43 L1239.48 1485.58 L1234.83 1485.58 L1234.83 1477.43 L1219.23 1477.43 L1219.23 1472.92 L1233.6 1451.02 Z" fill="#000000" fill-rule="nonzero" fill-opacity="1" /><path clip-path="url(#clip140)" d="M1471.19 1451.02 L1489.55 1451.02 L1489.55 1454.96 L1475.48 1454.96 L1475.48 1463.43 Q1476.49 1463.08 1477.51 1462.92 Q1478.53 1462.73 1479.55 1462.73 Q1485.34 1462.73 1488.72 1465.9 Q1492.1 1469.08 1492.1 1474.49 Q1492.1 1480.07 1488.62 1483.17 Q1485.15 1486.25 1478.83 1486.25 Q1476.66 1486.25 1474.39 1485.88 Q1472.14 1485.51 1469.74 1484.77 L1469.74 1480.07 Q1471.82 1481.2 1474.04 1481.76 Q1476.26 1482.32 1478.74 1482.32 Q1482.74 1482.32 1485.08 1480.21 Q1487.42 1478.1 1487.42 1474.49 Q1487.42 1470.88 1485.08 1468.77 Q1482.74 1466.67 1478.74 1466.67 Q1476.86 1466.67 1474.99 1467.08 Q1473.14 1467.5 1471.19 1468.38 L1471.19 1451.02 Z" fill="#000000" fill-rule="nonzero" fill-opacity="1" /><path clip-path="url(#clip140)" d="M1730.42 1466.44 Q1727.27 1466.44 1725.42 1468.59 Q1723.59 1470.74 1723.59 1474.49 Q1723.59 1478.22 1725.42 1480.39 Q1727.27 1482.55 1730.42 1482.55 Q1733.57 1482.55 1735.39 1480.39 Q1737.25 1478.22 1737.25 1474.49 Q1737.25 1470.74 1735.39 1468.59 Q1733.57 1466.44 1730.42 1466.44 M1739.7 1451.78 L1739.7 1456.04 Q1737.94 1455.21 1736.14 1454.77 Q1734.35 1454.33 1732.59 1454.33 Q1727.96 1454.33 1725.51 1457.45 Q1723.08 1460.58 1722.73 1466.9 Q1724.1 1464.89 1726.16 1463.82 Q1728.22 1462.73 1730.7 1462.73 Q1735.9 1462.73 1738.91 1465.9 Q1741.95 1469.05 1741.95 1474.49 Q1741.95 1479.82 1738.8 1483.03 Q1735.65 1486.25 1730.42 1486.25 Q1724.42 1486.25 1721.25 1481.67 Q1718.08 1477.06 1718.08 1468.33 Q1718.08 1460.14 1721.97 1455.28 Q1725.86 1450.39 1732.41 1450.39 Q1734.17 1450.39 1735.95 1450.74 Q1737.76 1451.09 1739.7 1451.78 Z" fill="#000000" fill-rule="nonzero" fill-opacity="1" /><path clip-path="url(#clip140)" d="M1968 1451.02 L1990.22 1451.02 L1990.22 1453.01 L1977.67 1485.58 L1972.79 1485.58 L1984.6 1454.96 L1968 1454.96 L1968 1451.02 Z" fill="#000000" fill-rule="nonzero" fill-opacity="1" /><path clip-path="url(#clip140)" d="M2228.21 1469.17 Q2224.87 1469.17 2222.95 1470.95 Q2221.05 1472.73 2221.05 1475.86 Q2221.05 1478.98 2222.95 1480.77 Q2224.87 1482.55 2228.21 1482.55 Q2231.54 1482.55 2233.46 1480.77 Q2235.38 1478.96 2235.38 1475.86 Q2235.38 1472.73 2233.46 1470.95 Q2231.56 1469.17 2228.21 1469.17 M2223.53 1467.18 Q2220.52 1466.44 2218.83 1464.38 Q2217.17 1462.32 2217.17 1459.35 Q2217.17 1455.21 2220.11 1452.8 Q2223.07 1450.39 2228.21 1450.39 Q2233.37 1450.39 2236.31 1452.8 Q2239.25 1455.21 2239.25 1459.35 Q2239.25 1462.32 2237.56 1464.38 Q2235.89 1466.44 2232.91 1467.18 Q2236.29 1467.96 2238.16 1470.26 Q2240.06 1472.55 2240.06 1475.86 Q2240.06 1480.88 2236.98 1483.57 Q2233.92 1486.25 2228.21 1486.25 Q2222.49 1486.25 2219.41 1483.57 Q2216.36 1480.88 2216.36 1475.86 Q2216.36 1472.55 2218.25 1470.26 Q2220.15 1467.96 2223.53 1467.18 M2221.82 1459.79 Q2221.82 1462.48 2223.49 1463.98 Q2225.17 1465.49 2228.21 1465.49 Q2231.22 1465.49 2232.91 1463.98 Q2234.62 1462.48 2234.62 1459.79 Q2234.62 1457.11 2232.91 1455.6 Q2231.22 1454.1 2228.21 1454.1 Q2225.17 1454.1 2223.49 1455.6 Q2221.82 1457.11 2221.82 1459.79 Z" fill="#000000" fill-rule="nonzero" fill-opacity="1" /><path clip-path="url(#clip140)" d="M1240.29 1531.91 Q1240.29 1532.81 1239.87 1533.04 Q1239.45 1533.23 1238.29 1533.23 L1232.11 1533.23 L1227.21 1552.69 Q1226.83 1554.39 1226.83 1555.84 Q1226.83 1557.45 1227.31 1558.16 Q1227.83 1558.87 1228.89 1558.87 Q1230.98 1558.87 1233.24 1556.97 Q1235.52 1555.07 1237.46 1550.43 Q1237.71 1549.82 1237.84 1549.69 Q1238 1549.53 1238.42 1549.53 Q1239.23 1549.53 1239.23 1550.17 Q1239.23 1550.4 1238.78 1551.43 Q1238.36 1552.46 1237.42 1553.97 Q1236.52 1555.49 1235.33 1556.9 Q1234.17 1558.32 1232.4 1559.35 Q1230.63 1560.35 1228.73 1560.35 Q1226.05 1560.35 1224.35 1558.64 Q1222.67 1556.94 1222.67 1554.26 Q1222.67 1553.39 1223.35 1550.62 Q1224.03 1547.82 1227.7 1533.23 L1221.87 1533.23 Q1221.06 1533.23 1220.74 1533.2 Q1220.45 1533.17 1220.23 1533.01 Q1220.03 1532.81 1220.03 1532.43 Q1220.03 1531.82 1220.29 1531.56 Q1220.55 1531.27 1220.87 1531.24 Q1221.22 1531.17 1222.03 1531.17 L1228.21 1531.17 L1230.79 1520.71 Q1231.05 1519.67 1231.69 1519.09 Q1232.37 1518.48 1232.75 1518.42 Q1233.14 1518.32 1233.43 1518.32 Q1234.3 1518.32 1234.81 1518.81 Q1235.33 1519.26 1235.33 1520.09 Q1235.33 1520.54 1232.62 1531.17 L1238.42 1531.17 Q1239.16 1531.17 1239.45 1531.2 Q1239.77 1531.24 1240.03 1531.4 Q1240.29 1531.56 1240.29 1531.91 Z" fill="#000000" fill-rule="nonzero" fill-opacity="1" /><polyline clip-path="url(#clip145)" style="stroke:#000000; stroke-linecap:round; stroke-linejoin:round; stroke-width:2; stroke-opacity:0.1; fill:none" points="110.881,1423.18 2352.76,1423.18 "/>
<polyline clip-path="url(#clip145)" style="stroke:#000000; stroke-linecap:round; stroke-linejoin:round; stroke-width:2; stroke-opacity:0.1; fill:none" points="110.881,1356.71 2352.76,1356.71 "/>
<polyline clip-path="url(#clip140)" style="stroke:#000000; stroke-linecap:round; stroke-linejoin:round; stroke-width:4; stroke-opacity:1; fill:none" points="110.881,1423.18 110.881,1323.47 "/>
<polyline clip-path="url(#clip140)" style="stroke:#000000; stroke-linecap:round; stroke-linejoin:round; stroke-width:4; stroke-opacity:1; fill:none" points="110.881,1423.18 129.779,1423.18 "/>
<polyline clip-path="url(#clip140)" style="stroke:#000000; stroke-linecap:round; stroke-linejoin:round; stroke-width:4; stroke-opacity:1; fill:none" points="110.881,1356.71 129.779,1356.71 "/>
<path clip-path="url(#clip140)" d="M62.9365 1408.98 Q59.3254 1408.98 57.4967 1412.54 Q55.6912 1416.08 55.6912 1423.21 Q55.6912 1430.32 57.4967 1433.89 Q59.3254 1437.43 62.9365 1437.43 Q66.5707 1437.43 68.3763 1433.89 Q70.205 1430.32 70.205 1423.21 Q70.205 1416.08 68.3763 1412.54 Q66.5707 1408.98 62.9365 1408.98 M62.9365 1405.27 Q68.7467 1405.27 71.8022 1409.88 Q74.8809 1414.46 74.8809 1423.21 Q74.8809 1431.94 71.8022 1436.55 Q68.7467 1441.13 62.9365 1441.13 Q57.1264 1441.13 54.0477 1436.55 Q50.9921 1431.94 50.9921 1423.21 Q50.9921 1414.46 54.0477 1409.88 Q57.1264 1405.27 62.9365 1405.27 Z" fill="#000000" fill-rule="nonzero" fill-opacity="1" /><path clip-path="url(#clip140)" d="M54.9736 1370.05 L62.6124 1370.05 L62.6124 1343.69 L54.3023 1345.35 L54.3023 1341.09 L62.5661 1339.43 L67.242 1339.43 L67.242 1370.05 L74.8809 1370.05 L74.8809 1373.99 L54.9736 1373.99 L54.9736 1370.05 Z" fill="#000000" fill-rule="nonzero" fill-opacity="1" /><path clip-path="url(#clip140)" d="M1229.1 1247.88 Q1227.99 1253.17 1226.56 1256.2 Q1224.26 1260.83 1220.37 1260.83 Q1217.42 1260.83 1215.33 1259.03 Q1213.24 1257.22 1212.74 1254.52 Q1207.37 1260.83 1201.8 1260.83 Q1196.88 1260.83 1193.77 1257.1 Q1190.65 1253.33 1190.65 1247.39 Q1190.65 1241.4 1193.6 1235.66 Q1196.59 1229.92 1201.31 1226.36 Q1206.02 1222.79 1210.86 1222.79 Q1215.98 1222.79 1218.61 1228.16 Q1218.81 1226.69 1219.75 1225.58 Q1220.7 1224.47 1222.13 1224.47 Q1223.24 1224.47 1223.89 1225.09 Q1224.55 1225.66 1224.55 1226.73 Q1224.55 1227.26 1223.97 1229.6 L1220.94 1241.32 L1219.1 1248.9 Q1218.4 1251.69 1218.2 1252.71 Q1218.03 1253.74 1218.03 1255.09 Q1218.03 1258.95 1220.53 1258.95 Q1221.76 1258.95 1222.75 1258.17 Q1223.73 1257.39 1224.51 1255.75 Q1225.29 1254.11 1225.78 1252.59 Q1226.27 1251.03 1226.93 1248.57 Q1227.13 1247.59 1227.29 1247.35 Q1227.5 1247.06 1228.07 1247.06 Q1229.1 1247.06 1229.1 1247.88 M1217.58 1232.02 Q1217.58 1231.65 1217.29 1230.62 Q1217.01 1229.6 1216.35 1228.16 Q1215.7 1226.73 1214.26 1225.7 Q1212.87 1224.64 1210.98 1224.64 Q1208.44 1224.64 1205.78 1226.81 Q1203.15 1228.98 1201.23 1232.67 Q1199.75 1235.62 1198.15 1241.81 Q1196.59 1248 1196.59 1251.08 Q1196.59 1252.96 1197 1254.64 Q1197.45 1256.28 1198.73 1257.63 Q1200 1258.95 1201.96 1258.95 Q1206.76 1258.95 1211.47 1253 Q1212.37 1251.98 1212.58 1251.57 Q1212.83 1251.12 1213.15 1249.89 L1217.33 1233.45 Q1217.58 1232.22 1217.58 1232.02 Z" fill="#000000" fill-rule="nonzero" fill-opacity="1" /><path clip-path="url(#clip140)" d="M1264.29 1262.79 Q1264.29 1264.42 1263.28 1265.4 Q1262.31 1266.38 1261.07 1266.38 Q1259.98 1266.38 1259.41 1265.74 Q1258.84 1265.11 1258.84 1264.31 Q1258.84 1263.97 1258.98 1263.53 Q1259.12 1263.08 1259.44 1262.53 Q1259.78 1261.99 1260.5 1261.58 Q1261.22 1261.18 1262.19 1261.12 Q1261.99 1260.92 1261.93 1260.9 Q1261.5 1260.55 1260.7 1260.44 Q1260.59 1260.38 1260.18 1260.38 Q1258.2 1260.38 1256.2 1261.84 Q1254.22 1263.28 1251.78 1266 Q1248.71 1269.19 1246.73 1270.36 Q1255.42 1271.51 1255.42 1276.53 Q1255.42 1277.36 1255.19 1278.37 Q1254.73 1280.26 1254.73 1281.64 Q1254.73 1284.39 1256.6 1284.39 Q1258.4 1284.39 1259.55 1282.56 Q1260.73 1280.72 1261.7 1277.14 Q1261.85 1276.48 1261.99 1276.27 Q1262.13 1276.07 1262.54 1276.07 Q1263.25 1276.07 1263.25 1276.65 Q1262.59 1280 1261.13 1282.59 Q1259.27 1285.71 1256.48 1285.71 Q1254.16 1285.71 1252.61 1284.11 Q1251.09 1282.47 1251.09 1279.89 Q1251.09 1279.26 1251.32 1277.82 Q1251.49 1277.25 1251.49 1276.59 Q1251.49 1275.24 1250.74 1274.24 Q1250 1273.2 1248.79 1272.69 Q1247.59 1272.17 1246.58 1271.94 Q1245.61 1271.68 1244.66 1271.6 Q1241.79 1283.73 1241.39 1284.48 Q1241.13 1285 1240.56 1285.34 Q1239.98 1285.71 1239.38 1285.71 Q1238.81 1285.71 1238.23 1285.31 Q1237.69 1284.94 1237.69 1284.05 Q1237.69 1283.59 1237.92 1282.76 L1246.44 1248.9 L1246.61 1247.75 Q1246.61 1247.41 1246.47 1247.24 Q1246.35 1247.04 1245.67 1246.89 Q1245.01 1246.75 1243.69 1246.75 Q1243.14 1246.75 1242.88 1246.72 Q1242.65 1246.69 1242.45 1246.55 Q1242.25 1246.38 1242.25 1246.03 Q1242.25 1245.54 1242.45 1245.29 Q1242.68 1245 1242.85 1244.94 Q1243.03 1244.88 1243.37 1244.86 Q1243.86 1244.83 1245.49 1244.68 Q1247.13 1244.51 1248.53 1244.4 Q1249.94 1244.28 1250.54 1244.28 Q1250.89 1244.28 1251.06 1244.45 Q1251.26 1244.6 1251.29 1244.77 L1251.32 1244.91 L1245.21 1269.7 Q1247.73 1268.7 1251.72 1264.25 Q1256.34 1259.09 1260.3 1259.09 Q1262.16 1259.09 1263.23 1260.24 Q1264.29 1261.35 1264.29 1262.79 Z" fill="#000000" fill-rule="nonzero" fill-opacity="1" /><polyline clip-path="url(#clip145)" style="stroke:#009af9; stroke-linecap:round; stroke-linejoin:round; stroke-width:8; stroke-opacity:1; fill:none" points="484.527,1423.18 733.624,1423.18 982.721,1423.18 982.721,1356.71 1231.82,1356.71 1480.92,1356.71 1480.92,1423.18 1730.01,1423.18 1730.01,1356.71 1979.11,1356.71 2228.21,1356.71 2477.3,1356.71 "/>
</svg>
