<?xml version="1.0" encoding="utf-8"?>
<svg xmlns="http://www.w3.org/2000/svg" xmlns:xlink="http://www.w3.org/1999/xlink" width="600" height="400" viewBox="0 0 2400 1600">
<defs>
  <clipPath id="clip530">
    <rect x="0" y="0" width="2400" height="1600"/>
  </clipPath>
</defs>
<path clip-path="url(#clip530)" d="M0 1600 L2400 1600 L2400 0 L0 0  Z" fill="#ffffff" fill-rule="evenodd" fill-opacity="1"/>
<defs>
  <clipPath id="clip531">
    <rect x="480" y="0" width="1681" height="1600"/>
  </clipPath>
</defs>
<path clip-path="url(#clip530)" d="M110.881 223.18 L2352.76 223.18 L2352.76 123.472 L110.881 123.472  Z" fill="#ffffff" fill-rule="evenodd" fill-opacity="1"/>
<defs>
  <clipPath id="clip532">
    <rect x="110" y="123" width="2243" height="101"/>
  </clipPath>
</defs>
<polyline clip-path="url(#clip532)" style="stroke:#000000; stroke-linecap:round; stroke-linejoin:round; stroke-width:2; stroke-opacity:0.1; fill:none" points="190.948,223.18 190.948,123.472 "/>
<polyline clip-path="url(#clip532)" style="stroke:#000000; stroke-linecap:round; stroke-linejoin:round; stroke-width:2; stroke-opacity:0.1; fill:none" points="351.082,223.18 351.082,123.472 "/>
<polyline clip-path="url(#clip532)" style="stroke:#000000; stroke-linecap:round; stroke-linejoin:round; stroke-width:2; stroke-opacity:0.1; fill:none" points="511.216,223.18 511.216,123.472 "/>
<polyline clip-path="url(#clip532)" style="stroke:#000000; stroke-linecap:round; stroke-linejoin:round; stroke-width:2; stroke-opacity:0.1; fill:none" points="671.35,223.18 671.35,123.472 "/>
<polyline clip-path="url(#clip532)" style="stroke:#000000; stroke-linecap:round; stroke-linejoin:round; stroke-width:2; stroke-opacity:0.1; fill:none" points="831.484,223.18 831.484,123.472 "/>
<polyline clip-path="url(#clip532)" style="stroke:#000000; stroke-linecap:round; stroke-linejoin:round; stroke-width:2; stroke-opacity:0.1; fill:none" points="991.618,223.18 991.618,123.472 "/>
<polyline clip-path="url(#clip532)" style="stroke:#000000; stroke-linecap:round; stroke-linejoin:round; stroke-width:2; stroke-opacity:0.1; fill:none" points="1151.75,223.18 1151.75,123.472 "/>
<polyline clip-path="url(#clip532)" style="stroke:#000000; stroke-linecap:round; stroke-linejoin:round; stroke-width:2; stroke-opacity:0.1; fill:none" points="1311.89,223.18 1311.89,123.472 "/>
<polyline clip-path="url(#clip532)" style="stroke:#000000; stroke-linecap:round; stroke-linejoin:round; stroke-width:2; stroke-opacity:0.1; fill:none" points="1472.02,223.18 1472.02,123.472 "/>
<polyline clip-path="url(#clip532)" style="stroke:#000000; stroke-linecap:round; stroke-linejoin:round; stroke-width:2; stroke-opacity:0.1; fill:none" points="1632.15,223.18 1632.15,123.472 "/>
<polyline clip-path="url(#clip532)" style="stroke:#000000; stroke-linecap:round; stroke-linejoin:round; stroke-width:2; stroke-opacity:0.1; fill:none" points="1792.29,223.18 1792.29,123.472 "/>
<polyline clip-path="url(#clip532)" style="stroke:#000000; stroke-linecap:round; stroke-linejoin:round; stroke-width:2; stroke-opacity:0.1; fill:none" points="1952.42,223.18 1952.42,123.472 "/>
<polyline clip-path="url(#clip532)" style="stroke:#000000; stroke-linecap:round; stroke-linejoin:round; stroke-width:2; stroke-opacity:0.1; fill:none" points="2112.56,223.18 2112.56,123.472 "/>
<polyline clip-path="url(#clip532)" style="stroke:#000000; stroke-linecap:round; stroke-linejoin:round; stroke-width:2; stroke-opacity:0.1; fill:none" points="2272.69,223.18 2272.69,123.472 "/>
<polyline clip-path="url(#clip530)" style="stroke:#000000; stroke-linecap:round; stroke-linejoin:round; stroke-width:4; stroke-opacity:1; fill:none" points="110.881,223.18 2352.76,223.18 "/>
<polyline clip-path="url(#clip530)" style="stroke:#000000; stroke-linecap:round; stroke-linejoin:round; stroke-width:4; stroke-opacity:1; fill:none" points="190.948,223.18 190.948,204.282 "/>
<polyline clip-path="url(#clip530)" style="stroke:#000000; stroke-linecap:round; stroke-linejoin:round; stroke-width:4; stroke-opacity:1; fill:none" points="351.082,223.18 351.082,204.282 "/>
<polyline clip-path="url(#clip530)" style="stroke:#000000; stroke-linecap:round; stroke-linejoin:round; stroke-width:4; stroke-opacity:1; fill:none" points="511.216,223.18 511.216,204.282 "/>
<polyline clip-path="url(#clip530)" style="stroke:#000000; stroke-linecap:round; stroke-linejoin:round; stroke-width:4; stroke-opacity:1; fill:none" points="671.35,223.18 671.35,204.282 "/>
<polyline clip-path="url(#clip530)" style="stroke:#000000; stroke-linecap:round; stroke-linejoin:round; stroke-width:4; stroke-opacity:1; fill:none" points="831.484,223.18 831.484,204.282 "/>
<polyline clip-path="url(#clip530)" style="stroke:#000000; stroke-linecap:round; stroke-linejoin:round; stroke-width:4; stroke-opacity:1; fill:none" points="991.618,223.18 991.618,204.282 "/>
<polyline clip-path="url(#clip530)" style="stroke:#000000; stroke-linecap:round; stroke-linejoin:round; stroke-width:4; stroke-opacity:1; fill:none" points="1151.75,223.18 1151.75,204.282 "/>
<polyline clip-path="url(#clip530)" style="stroke:#000000; stroke-linecap:round; stroke-linejoin:round; stroke-width:4; stroke-opacity:1; fill:none" points="1311.89,223.18 1311.89,204.282 "/>
<polyline clip-path="url(#clip530)" style="stroke:#000000; stroke-linecap:round; stroke-linejoin:round; stroke-width:4; stroke-opacity:1; fill:none" points="1472.02,223.18 1472.02,204.282 "/>
<polyline clip-path="url(#clip530)" style="stroke:#000000; stroke-linecap:round; stroke-linejoin:round; stroke-width:4; stroke-opacity:1; fill:none" points="1632.15,223.18 1632.15,204.282 "/>
<polyline clip-path="url(#clip530)" style="stroke:#000000; stroke-linecap:round; stroke-linejoin:round; stroke-width:4; stroke-opacity:1; fill:none" points="1792.29,223.18 1792.29,204.282 "/>
<polyline clip-path="url(#clip530)" style="stroke:#000000; stroke-linecap:round; stroke-linejoin:round; stroke-width:4; stroke-opacity:1; fill:none" points="1952.42,223.18 1952.42,204.282 "/>
<polyline clip-path="url(#clip530)" style="stroke:#000000; stroke-linecap:round; stroke-linejoin:round; stroke-width:4; stroke-opacity:1; fill:none" points="2112.56,223.18 2112.56,204.282 "/>
<polyline clip-path="url(#clip530)" style="stroke:#000000; stroke-linecap:round; stroke-linejoin:round; stroke-width:4; stroke-opacity:1; fill:none" points="2272.69,223.18 2272.69,204.282 "/>
<path clip-path="url(#clip530)" d="M190.948 254.099 Q187.337 254.099 185.508 257.663 Q183.703 261.205 183.703 268.335 Q183.703 275.441 185.508 279.006 Q187.337 282.547 190.948 282.547 Q194.582 282.547 196.388 279.006 Q198.216 275.441 198.216 268.335 Q198.216 261.205 196.388 257.663 Q194.582 254.099 190.948 254.099 M190.948 250.395 Q196.758 250.395 199.814 255.001 Q202.892 259.585 202.892 268.335 Q202.892 277.061 199.814 281.668 Q196.758 286.251 190.948 286.251 Q185.138 286.251 182.059 281.668 Q179.003 277.061 179.003 268.335 Q179.003 259.585 182.059 255.001 Q185.138 250.395 190.948 250.395 Z" fill="#000000" fill-rule="nonzero" fill-opacity="1" /><path clip-path="url(#clip530)" d="M341.464 281.645 L349.103 281.645 L349.103 255.279 L340.792 256.946 L340.792 252.687 L349.056 251.02 L353.732 251.02 L353.732 281.645 L361.371 281.645 L361.371 285.58 L341.464 285.58 L341.464 281.645 Z" fill="#000000" fill-rule="nonzero" fill-opacity="1" /><path clip-path="url(#clip530)" d="M505.869 281.645 L522.188 281.645 L522.188 285.58 L500.244 285.58 L500.244 281.645 Q502.906 278.89 507.489 274.26 Q512.095 269.608 513.276 268.265 Q515.521 265.742 516.401 264.006 Q517.304 262.247 517.304 260.557 Q517.304 257.802 515.359 256.066 Q513.438 254.33 510.336 254.33 Q508.137 254.33 505.683 255.094 Q503.253 255.858 500.475 257.409 L500.475 252.687 Q503.299 251.552 505.753 250.974 Q508.206 250.395 510.243 250.395 Q515.614 250.395 518.808 253.08 Q522.003 255.765 522.003 260.256 Q522.003 262.386 521.193 264.307 Q520.405 266.205 518.299 268.798 Q517.72 269.469 514.618 272.686 Q511.517 275.881 505.869 281.645 Z" fill="#000000" fill-rule="nonzero" fill-opacity="1" /><path clip-path="url(#clip530)" d="M675.597 266.946 Q678.954 267.663 680.829 269.932 Q682.727 272.2 682.727 275.534 Q682.727 280.649 679.208 283.45 Q675.69 286.251 669.208 286.251 Q667.033 286.251 664.718 285.811 Q662.426 285.395 659.972 284.538 L659.972 280.024 Q661.917 281.159 664.232 281.737 Q666.546 282.316 669.07 282.316 Q673.468 282.316 675.759 280.58 Q678.074 278.844 678.074 275.534 Q678.074 272.478 675.921 270.765 Q673.792 269.029 669.972 269.029 L665.945 269.029 L665.945 265.186 L670.158 265.186 Q673.607 265.186 675.435 263.821 Q677.264 262.432 677.264 259.839 Q677.264 257.177 675.366 255.765 Q673.491 254.33 669.972 254.33 Q668.051 254.33 665.852 254.747 Q663.653 255.163 661.014 256.043 L661.014 251.876 Q663.676 251.136 665.991 250.765 Q668.329 250.395 670.389 250.395 Q675.713 250.395 678.815 252.825 Q681.917 255.233 681.917 259.353 Q681.917 262.223 680.273 264.214 Q678.63 266.182 675.597 266.946 Z" fill="#000000" fill-rule="nonzero" fill-opacity="1" /><path clip-path="url(#clip530)" d="M834.493 255.094 L822.687 273.543 L834.493 273.543 L834.493 255.094 M833.266 251.02 L839.146 251.02 L839.146 273.543 L844.076 273.543 L844.076 277.432 L839.146 277.432 L839.146 285.58 L834.493 285.58 L834.493 277.432 L818.891 277.432 L818.891 272.918 L833.266 251.02 Z" fill="#000000" fill-rule="nonzero" fill-opacity="1" /><path clip-path="url(#clip530)" d="M981.895 251.02 L1000.25 251.02 L1000.25 254.955 L986.178 254.955 L986.178 263.427 Q987.196 263.08 988.215 262.918 Q989.233 262.733 990.252 262.733 Q996.039 262.733 999.418 265.904 Q1002.8 269.075 1002.8 274.492 Q1002.8 280.071 999.326 283.172 Q995.854 286.251 989.534 286.251 Q987.358 286.251 985.09 285.881 Q982.844 285.51 980.437 284.77 L980.437 280.071 Q982.52 281.205 984.743 281.76 Q986.965 282.316 989.442 282.316 Q993.446 282.316 995.784 280.21 Q998.122 278.103 998.122 274.492 Q998.122 270.881 995.784 268.774 Q993.446 266.668 989.442 266.668 Q987.567 266.668 985.692 267.085 Q983.84 267.501 981.895 268.381 L981.895 251.02 Z" fill="#000000" fill-rule="nonzero" fill-opacity="1" /><path clip-path="url(#clip530)" d="M1152.16 266.436 Q1149.01 266.436 1147.16 268.589 Q1145.33 270.742 1145.33 274.492 Q1145.33 278.219 1147.16 280.395 Q1149.01 282.547 1152.16 282.547 Q1155.3 282.547 1157.13 280.395 Q1158.99 278.219 1158.99 274.492 Q1158.99 270.742 1157.13 268.589 Q1155.3 266.436 1152.16 266.436 M1161.44 251.784 L1161.44 256.043 Q1159.68 255.21 1157.87 254.77 Q1156.09 254.33 1154.33 254.33 Q1149.7 254.33 1147.25 257.455 Q1144.82 260.58 1144.47 266.899 Q1145.84 264.886 1147.9 263.821 Q1149.96 262.733 1152.43 262.733 Q1157.64 262.733 1160.65 265.904 Q1163.68 269.052 1163.68 274.492 Q1163.68 279.816 1160.54 283.034 Q1157.39 286.251 1152.16 286.251 Q1146.16 286.251 1142.99 281.668 Q1139.82 277.061 1139.82 268.335 Q1139.82 260.14 1143.71 255.279 Q1147.6 250.395 1154.15 250.395 Q1155.91 250.395 1157.69 250.742 Q1159.49 251.089 1161.44 251.784 Z" fill="#000000" fill-rule="nonzero" fill-opacity="1" /><path clip-path="url(#clip530)" d="M1300.77 251.02 L1323 251.02 L1323 253.011 L1310.45 285.58 L1305.57 285.58 L1317.37 254.955 L1300.77 254.955 L1300.77 251.02 Z" fill="#000000" fill-rule="nonzero" fill-opacity="1" /><path clip-path="url(#clip530)" d="M1472.02 269.168 Q1468.69 269.168 1466.76 270.95 Q1464.87 272.733 1464.87 275.858 Q1464.87 278.983 1466.76 280.765 Q1468.69 282.547 1472.02 282.547 Q1475.35 282.547 1477.27 280.765 Q1479.2 278.96 1479.2 275.858 Q1479.2 272.733 1477.27 270.95 Q1475.38 269.168 1472.02 269.168 M1467.34 267.177 Q1464.33 266.436 1462.64 264.376 Q1460.98 262.316 1460.98 259.353 Q1460.98 255.21 1463.92 252.802 Q1466.88 250.395 1472.02 250.395 Q1477.18 250.395 1480.12 252.802 Q1483.06 255.21 1483.06 259.353 Q1483.06 262.316 1481.37 264.376 Q1479.7 266.436 1476.72 267.177 Q1480.1 267.964 1481.97 270.256 Q1483.87 272.548 1483.87 275.858 Q1483.87 280.881 1480.79 283.566 Q1477.74 286.251 1472.02 286.251 Q1466.3 286.251 1463.22 283.566 Q1460.17 280.881 1460.17 275.858 Q1460.17 272.548 1462.07 270.256 Q1463.96 267.964 1467.34 267.177 M1465.63 259.793 Q1465.63 262.478 1467.3 263.983 Q1468.99 265.487 1472.02 265.487 Q1475.03 265.487 1476.72 263.983 Q1478.43 262.478 1478.43 259.793 Q1478.43 257.108 1476.72 255.603 Q1475.03 254.099 1472.02 254.099 Q1468.99 254.099 1467.3 255.603 Q1465.63 257.108 1465.63 259.793 Z" fill="#000000" fill-rule="nonzero" fill-opacity="1" /><path clip-path="url(#clip530)" d="M1622.45 284.862 L1622.45 280.603 Q1624.21 281.436 1626.02 281.876 Q1627.82 282.316 1629.56 282.316 Q1634.19 282.316 1636.62 279.214 Q1639.07 276.089 1639.42 269.747 Q1638.08 271.737 1636.02 272.802 Q1633.96 273.867 1631.46 273.867 Q1626.27 273.867 1623.24 270.742 Q1620.23 267.594 1620.23 262.154 Q1620.23 256.83 1623.38 253.612 Q1626.53 250.395 1631.76 250.395 Q1637.76 250.395 1640.9 255.001 Q1644.07 259.585 1644.07 268.335 Q1644.07 276.506 1640.19 281.39 Q1636.32 286.251 1629.77 286.251 Q1628.01 286.251 1626.2 285.904 Q1624.4 285.557 1622.45 284.862 M1631.76 270.21 Q1634.91 270.21 1636.74 268.057 Q1638.59 265.904 1638.59 262.154 Q1638.59 258.427 1636.74 256.274 Q1634.91 254.099 1631.76 254.099 Q1628.61 254.099 1626.76 256.274 Q1624.93 258.427 1624.93 262.154 Q1624.93 265.904 1626.76 268.057 Q1628.61 270.21 1631.76 270.21 Z" fill="#000000" fill-rule="nonzero" fill-opacity="1" /><path clip-path="url(#clip530)" d="M1766.97 281.645 L1774.61 281.645 L1774.61 255.279 L1766.3 256.946 L1766.3 252.687 L1774.57 251.02 L1779.24 251.02 L1779.24 281.645 L1786.88 281.645 L1786.88 285.58 L1766.97 285.58 L1766.97 281.645 Z" fill="#000000" fill-rule="nonzero" fill-opacity="1" /><path clip-path="url(#clip530)" d="M1806.33 254.099 Q1802.72 254.099 1800.89 257.663 Q1799.08 261.205 1799.08 268.335 Q1799.08 275.441 1800.89 279.006 Q1802.72 282.547 1806.33 282.547 Q1809.96 282.547 1811.77 279.006 Q1813.59 275.441 1813.59 268.335 Q1813.59 261.205 1811.77 257.663 Q1809.96 254.099 1806.33 254.099 M1806.33 250.395 Q1812.14 250.395 1815.19 255.001 Q1818.27 259.585 1818.27 268.335 Q1818.27 277.061 1815.19 281.668 Q1812.14 286.251 1806.33 286.251 Q1800.52 286.251 1797.44 281.668 Q1794.38 277.061 1794.38 268.335 Q1794.38 259.585 1797.44 255.001 Q1800.52 250.395 1806.33 250.395 Z" fill="#000000" fill-rule="nonzero" fill-opacity="1" /><path clip-path="url(#clip530)" d="M1927.72 281.645 L1935.36 281.645 L1935.36 255.279 L1927.05 256.946 L1927.05 252.687 L1935.31 251.02 L1939.99 251.02 L1939.99 281.645 L1947.63 281.645 L1947.63 285.58 L1927.72 285.58 L1927.72 281.645 Z" fill="#000000" fill-rule="nonzero" fill-opacity="1" /><path clip-path="url(#clip530)" d="M1957.88 281.645 L1965.52 281.645 L1965.52 255.279 L1957.21 256.946 L1957.21 252.687 L1965.48 251.02 L1970.15 251.02 L1970.15 281.645 L1977.79 281.645 L1977.79 285.58 L1957.88 285.58 L1957.88 281.645 Z" fill="#000000" fill-rule="nonzero" fill-opacity="1" /><path clip-path="url(#clip530)" d="M2088.04 281.645 L2095.68 281.645 L2095.68 255.279 L2087.37 256.946 L2087.37 252.687 L2095.63 251.02 L2100.31 251.02 L2100.31 281.645 L2107.95 281.645 L2107.95 285.58 L2088.04 285.58 L2088.04 281.645 Z" fill="#000000" fill-rule="nonzero" fill-opacity="1" /><path clip-path="url(#clip530)" d="M2121.42 281.645 L2137.74 281.645 L2137.74 285.58 L2115.8 285.58 L2115.8 281.645 Q2118.46 278.89 2123.04 274.26 Q2127.65 269.608 2128.83 268.265 Q2131.07 265.742 2131.95 264.006 Q2132.86 262.247 2132.86 260.557 Q2132.86 257.802 2130.91 256.066 Q2128.99 254.33 2125.89 254.33 Q2123.69 254.33 2121.24 255.094 Q2118.8 255.858 2116.03 257.409 L2116.03 252.687 Q2118.85 251.552 2121.3 250.974 Q2123.76 250.395 2125.8 250.395 Q2131.17 250.395 2134.36 253.08 Q2137.55 255.765 2137.55 260.256 Q2137.55 262.386 2136.74 264.307 Q2135.96 266.205 2133.85 268.798 Q2133.27 269.469 2130.17 272.686 Q2127.07 275.881 2121.42 281.645 Z" fill="#000000" fill-rule="nonzero" fill-opacity="1" /><path clip-path="url(#clip530)" d="M2247.7 281.645 L2255.34 281.645 L2255.34 255.279 L2247.03 256.946 L2247.03 252.687 L2255.29 251.02 L2259.97 251.02 L2259.97 281.645 L2267.61 281.645 L2267.61 285.58 L2247.7 285.58 L2247.7 281.645 Z" fill="#000000" fill-rule="nonzero" fill-opacity="1" /><path clip-path="url(#clip530)" d="M2291.22 266.946 Q2294.58 267.663 2296.45 269.932 Q2298.35 272.2 2298.35 275.534 Q2298.35 280.649 2294.83 283.45 Q2291.31 286.251 2284.83 286.251 Q2282.65 286.251 2280.34 285.811 Q2278.05 285.395 2275.59 284.538 L2275.59 280.024 Q2277.54 281.159 2279.85 281.737 Q2282.17 282.316 2284.69 282.316 Q2289.09 282.316 2291.38 280.58 Q2293.7 278.844 2293.7 275.534 Q2293.7 272.478 2291.54 270.765 Q2289.41 269.029 2285.59 269.029 L2281.57 269.029 L2281.57 265.186 L2285.78 265.186 Q2289.23 265.186 2291.06 263.821 Q2292.89 262.432 2292.89 259.839 Q2292.89 257.177 2290.99 255.765 Q2289.11 254.33 2285.59 254.33 Q2283.67 254.33 2281.47 254.747 Q2279.27 255.163 2276.64 256.043 L2276.64 251.876 Q2279.3 251.136 2281.61 250.765 Q2283.95 250.395 2286.01 250.395 Q2291.33 250.395 2294.44 252.825 Q2297.54 255.233 2297.54 259.353 Q2297.54 262.223 2295.89 264.214 Q2294.25 266.182 2291.22 266.946 Z" fill="#000000" fill-rule="nonzero" fill-opacity="1" /><path clip-path="url(#clip530)" d="M1240.29 331.913 Q1240.29 332.815 1239.87 333.04 Q1239.45 333.233 1238.29 333.233 L1232.11 333.233 L1227.21 352.686 Q1226.83 354.393 1226.83 355.842 Q1226.83 357.452 1227.31 358.161 Q1227.83 358.869 1228.89 358.869 Q1230.98 358.869 1233.24 356.969 Q1235.52 355.069 1237.46 350.431 Q1237.71 349.819 1237.84 349.691 Q1238 349.53 1238.42 349.53 Q1239.23 349.53 1239.23 350.174 Q1239.23 350.399 1238.78 351.43 Q1238.36 352.46 1237.42 353.974 Q1236.52 355.488 1235.33 356.905 Q1234.17 358.322 1232.4 359.352 Q1230.63 360.351 1228.73 360.351 Q1226.05 360.351 1224.35 358.644 Q1222.67 356.937 1222.67 354.264 Q1222.67 353.394 1223.35 350.625 Q1224.03 347.823 1227.7 333.233 L1221.87 333.233 Q1221.06 333.233 1220.74 333.201 Q1220.45 333.169 1220.23 333.008 Q1220.03 332.815 1220.03 332.428 Q1220.03 331.816 1220.29 331.559 Q1220.55 331.269 1220.87 331.237 Q1221.22 331.172 1222.03 331.172 L1228.21 331.172 L1230.79 320.705 Q1231.05 319.675 1231.69 319.095 Q1232.37 318.483 1232.75 318.419 Q1233.14 318.322 1233.43 318.322 Q1234.3 318.322 1234.81 318.805 Q1235.33 319.256 1235.33 320.093 Q1235.33 320.544 1232.62 331.172 L1238.42 331.172 Q1239.16 331.172 1239.45 331.204 Q1239.77 331.237 1240.03 331.398 Q1240.29 331.559 1240.29 331.913 Z" fill="#000000" fill-rule="nonzero" fill-opacity="1" /><polyline clip-path="url(#clip532)" style="stroke:#000000; stroke-linecap:round; stroke-linejoin:round; stroke-width:2; stroke-opacity:0.1; fill:none" points="110.881,198.253 2352.76,198.253 "/>
<polyline clip-path="url(#clip532)" style="stroke:#000000; stroke-linecap:round; stroke-linejoin:round; stroke-width:2; stroke-opacity:0.1; fill:none" points="110.881,148.399 2352.76,148.399 "/>
<polyline clip-path="url(#clip530)" style="stroke:#000000; stroke-linecap:round; stroke-linejoin:round; stroke-width:4; stroke-opacity:1; fill:none" points="110.881,223.18 110.881,123.472 "/>
<polyline clip-path="url(#clip530)" style="stroke:#000000; stroke-linecap:round; stroke-linejoin:round; stroke-width:4; stroke-opacity:1; fill:none" points="110.881,198.253 129.779,198.253 "/>
<polyline clip-path="url(#clip530)" style="stroke:#000000; stroke-linecap:round; stroke-linejoin:round; stroke-width:4; stroke-opacity:1; fill:none" points="110.881,148.399 129.779,148.399 "/>
<path clip-path="url(#clip530)" d="M62.9365 184.052 Q59.3254 184.052 57.4967 187.616 Q55.6912 191.158 55.6912 198.288 Q55.6912 205.394 57.4967 208.959 Q59.3254 212.501 62.9365 212.501 Q66.5707 212.501 68.3763 208.959 Q70.205 205.394 70.205 198.288 Q70.205 191.158 68.3763 187.616 Q66.5707 184.052 62.9365 184.052 M62.9365 180.348 Q68.7467 180.348 71.8022 184.954 Q74.8809 189.538 74.8809 198.288 Q74.8809 207.014 71.8022 211.621 Q68.7467 216.204 62.9365 216.204 Q57.1264 216.204 54.0477 211.621 Q50.9921 207.014 50.9921 198.288 Q50.9921 189.538 54.0477 184.954 Q57.1264 180.348 62.9365 180.348 Z" fill="#000000" fill-rule="nonzero" fill-opacity="1" /><path clip-path="url(#clip530)" d="M54.9736 161.744 L62.6124 161.744 L62.6124 135.378 L54.3023 137.045 L54.3023 132.786 L62.5661 131.119 L67.242 131.119 L67.242 161.744 L74.8809 161.744 L74.8809 165.679 L54.9736 165.679 L54.9736 161.744 Z" fill="#000000" fill-rule="nonzero" fill-opacity="1" /><path clip-path="url(#clip530)" d="M1133.17 27.1957 L1133.17 24.5724 Q1137.88 24.8183 1143.5 24.8183 Q1149.65 24.8183 1155.67 24.5724 L1155.67 27.1957 L1155.35 27.1957 Q1149.89 27.1957 1149.89 29.2861 Q1149.89 30.0239 1151.12 31.9504 L1170.18 63.8811 L1181.09 33.2211 Q1181.41 32.0324 1181.46 31.3766 Q1181.46 29.86 1179.98 28.6303 Q1178.5 27.3596 1175.23 27.1957 L1175.23 24.5724 Q1180.18 24.8183 1184.98 24.8183 Q1188.18 24.8183 1192.69 24.5724 L1192.69 27.1957 Q1190.19 27.2777 1188.51 27.8515 Q1186.83 28.4254 1185.84 29.737 Q1184.9 31.0487 1184.49 31.8685 Q1184.12 32.6473 1183.46 34.4918 L1173.22 63.4302 Q1171.95 66.8733 1171.25 68.6768 Q1170.59 70.4804 1168.79 73.8415 Q1166.99 77.2026 1165.14 79.0061 Q1163.3 80.8097 1160.31 82.2853 Q1157.35 83.7609 1153.75 83.7609 Q1148.79 83.7609 1145.67 80.3178 Q1142.56 76.8747 1142.56 72.6118 Q1142.56 70.0295 1144.07 68.8818 Q1145.59 67.7341 1147.27 67.7341 Q1149.2 67.7341 1150.59 69.0457 Q1151.98 70.3164 1151.98 72.3659 Q1151.98 74.3743 1150.67 75.727 Q1149.36 77.0387 1147.27 77.0387 Q1146.78 77.0387 1145.92 76.8747 Q1148.79 81.4245 1153.75 81.4245 Q1158.79 81.4245 1162.76 77.7765 Q1166.74 74.1284 1166.74 72.1609 Q1166.74 71.6691 1164.98 68.8408 L1142.84 31.7865 Q1141.74 29.942 1141.37 29.4501 Q1141 28.9582 1139.97 28.2204 Q1138.95 27.4416 1137.51 27.3187 Q1136.12 27.1957 1133.5 27.1957 L1133.17 27.1957 Z" fill="#000000" fill-rule="nonzero" fill-opacity="1" /><path clip-path="url(#clip530)" d="M1195.53 81.9164 L1195.53 79.3341 L1197.53 79.3341 Q1202.08 79.3341 1203.11 78.5962 Q1204.17 77.8174 1204.17 75.3581 L1204.17 31.1307 Q1204.17 28.7123 1203.11 27.9745 Q1202.04 27.1957 1197.53 27.1957 L1195.53 27.1957 L1195.53 24.5724 L1226.23 24.5724 Q1234.22 24.5724 1239.55 28.8762 Q1244.88 33.1391 1244.88 38.7547 Q1244.88 43.3865 1240.94 47.0755 Q1237.05 50.7645 1230.94 51.9532 Q1237.91 52.691 1242.5 56.9129 Q1247.13 61.0938 1247.13 66.5454 Q1247.13 72.6938 1241.84 77.3256 Q1236.56 81.9164 1228.44 81.9164 L1195.53 81.9164 M1211.14 75.9729 Q1211.14 78.1454 1211.76 78.7602 Q1212.37 79.3341 1215.24 79.3341 L1225.73 79.3341 Q1231.76 79.3341 1235.24 75.3991 Q1238.73 71.4231 1238.73 66.4634 Q1238.73 61.5037 1235.65 57.2818 Q1232.62 53.0189 1226.92 53.0189 L1211.14 53.0189 L1211.14 75.9729 M1211.14 51.1744 L1223.32 51.1744 Q1229.79 51.1744 1233.24 47.2804 Q1236.72 43.3865 1236.72 38.7547 Q1236.72 34.6557 1233.93 30.9257 Q1231.19 27.1957 1225.65 27.1957 L1215.24 27.1957 Q1212.37 27.1957 1211.76 27.7695 Q1211.14 28.3434 1211.14 30.5568 L1211.14 51.1744 Z" fill="#000000" fill-rule="nonzero" fill-opacity="1" /><path clip-path="url(#clip530)" d="M1254.35 81.9164 L1254.35 79.3341 Q1257.38 79.3341 1259.31 78.7602 Q1261.24 78.1454 1261.93 77.0387 Q1262.67 75.891 1262.83 75.1531 Q1263 74.3743 1263 73.1037 L1263 31.1307 Q1263 28.7123 1261.93 27.9745 Q1260.91 27.1957 1256.36 27.1957 L1254.35 27.1957 L1254.35 24.5724 L1268.53 24.5724 Q1270.05 24.5724 1270.46 24.8593 Q1270.87 25.1052 1271.48 26.4169 L1289.68 73.4316 L1308.05 26.171 Q1308.46 24.9823 1308.82 24.7773 Q1309.23 24.5724 1310.83 24.5724 L1325.01 24.5724 L1325.01 27.1957 L1323.01 27.1957 Q1318.46 27.1957 1317.39 27.9745 Q1316.37 28.7123 1316.37 31.1307 L1316.37 75.3581 Q1316.37 77.7765 1317.39 78.5553 Q1318.46 79.3341 1323.01 79.3341 L1325.01 79.3341 L1325.01 81.9164 Q1321.9 81.6704 1313 81.6704 Q1304.03 81.6704 1300.91 81.9164 L1300.91 79.3341 L1302.96 79.3341 Q1307.51 79.3341 1308.54 78.5962 Q1309.56 77.8174 1309.56 75.3581 L1309.56 27.1957 L1309.48 27.1957 L1288.86 80.3178 Q1288.29 81.9164 1287.35 81.9164 Q1286.32 81.9164 1285.66 80.0719 L1265.42 27.8515 L1265.33 27.8515 L1265.33 73.1037 Q1265.33 74.3743 1265.5 75.1531 Q1265.66 75.891 1266.36 77.0387 Q1267.1 78.1454 1269.02 78.7602 Q1270.95 79.3341 1273.98 79.3341 L1273.98 81.9164 Q1265.17 81.6704 1264.15 81.6704 Q1263.16 81.6704 1254.35 81.9164 Z" fill="#000000" fill-rule="nonzero" fill-opacity="1" /><polyline clip-path="url(#clip532)" style="stroke:#009af9; stroke-linecap:round; stroke-linejoin:round; stroke-width:8; stroke-opacity:1; fill:none" points="190.948,198.253 351.082,198.253 351.082,148.399 511.216,148.399 671.35,148.399 831.484,148.399 831.484,198.253 991.618,198.253 991.618,148.399 1151.75,148.399 1311.89,148.399 1472.02,148.399 1632.15,148.399 1632.15,198.253 1792.29,198.253 1792.29,148.399 1952.42,148.399 1952.42,198.253 2112.56,198.253 "/>
<path clip-path="url(#clip530)" d="M110.881 623.18 L2352.76 623.18 L2352.76 523.472 L110.881 523.472  Z" fill="#ffffff" fill-rule="evenodd" fill-opacity="1"/>
<defs>
  <clipPath id="clip533">
    <rect x="110" y="523" width="2243" height="101"/>
  </clipPath>
</defs>
<polyline clip-path="url(#clip533)" style="stroke:#000000; stroke-linecap:round; stroke-linejoin:round; stroke-width:2; stroke-opacity:0.1; fill:none" points="190.948,623.18 190.948,523.472 "/>
<polyline clip-path="url(#clip533)" style="stroke:#000000; stroke-linecap:round; stroke-linejoin:round; stroke-width:2; stroke-opacity:0.1; fill:none" points="351.082,623.18 351.082,523.472 "/>
<polyline clip-path="url(#clip533)" style="stroke:#000000; stroke-linecap:round; stroke-linejoin:round; stroke-width:2; stroke-opacity:0.1; fill:none" points="511.216,623.18 511.216,523.472 "/>
<polyline clip-path="url(#clip533)" style="stroke:#000000; stroke-linecap:round; stroke-linejoin:round; stroke-width:2; stroke-opacity:0.1; fill:none" points="671.35,623.18 671.35,523.472 "/>
<polyline clip-path="url(#clip533)" style="stroke:#000000; stroke-linecap:round; stroke-linejoin:round; stroke-width:2; stroke-opacity:0.1; fill:none" points="831.484,623.18 831.484,523.472 "/>
<polyline clip-path="url(#clip533)" style="stroke:#000000; stroke-linecap:round; stroke-linejoin:round; stroke-width:2; stroke-opacity:0.1; fill:none" points="991.618,623.18 991.618,523.472 "/>
<polyline clip-path="url(#clip533)" style="stroke:#000000; stroke-linecap:round; stroke-linejoin:round; stroke-width:2; stroke-opacity:0.1; fill:none" points="1151.75,623.18 1151.75,523.472 "/>
<polyline clip-path="url(#clip533)" style="stroke:#000000; stroke-linecap:round; stroke-linejoin:round; stroke-width:2; stroke-opacity:0.1; fill:none" points="1311.89,623.18 1311.89,523.472 "/>
<polyline clip-path="url(#clip533)" style="stroke:#000000; stroke-linecap:round; stroke-linejoin:round; stroke-width:2; stroke-opacity:0.1; fill:none" points="1472.02,623.18 1472.02,523.472 "/>
<polyline clip-path="url(#clip533)" style="stroke:#000000; stroke-linecap:round; stroke-linejoin:round; stroke-width:2; stroke-opacity:0.1; fill:none" points="1632.15,623.18 1632.15,523.472 "/>
<polyline clip-path="url(#clip533)" style="stroke:#000000; stroke-linecap:round; stroke-linejoin:round; stroke-width:2; stroke-opacity:0.1; fill:none" points="1792.29,623.18 1792.29,523.472 "/>
<polyline clip-path="url(#clip533)" style="stroke:#000000; stroke-linecap:round; stroke-linejoin:round; stroke-width:2; stroke-opacity:0.1; fill:none" points="1952.42,623.18 1952.42,523.472 "/>
<polyline clip-path="url(#clip533)" style="stroke:#000000; stroke-linecap:round; stroke-linejoin:round; stroke-width:2; stroke-opacity:0.1; fill:none" points="2112.56,623.18 2112.56,523.472 "/>
<polyline clip-path="url(#clip533)" style="stroke:#000000; stroke-linecap:round; stroke-linejoin:round; stroke-width:2; stroke-opacity:0.1; fill:none" points="2272.69,623.18 2272.69,523.472 "/>
<polyline clip-path="url(#clip530)" style="stroke:#000000; stroke-linecap:round; stroke-linejoin:round; stroke-width:4; stroke-opacity:1; fill:none" points="110.881,623.18 2352.76,623.18 "/>
<polyline clip-path="url(#clip530)" style="stroke:#000000; stroke-linecap:round; stroke-linejoin:round; stroke-width:4; stroke-opacity:1; fill:none" points="190.948,623.18 190.948,604.282 "/>
<polyline clip-path="url(#clip530)" style="stroke:#000000; stroke-linecap:round; stroke-linejoin:round; stroke-width:4; stroke-opacity:1; fill:none" points="351.082,623.18 351.082,604.282 "/>
<polyline clip-path="url(#clip530)" style="stroke:#000000; stroke-linecap:round; stroke-linejoin:round; stroke-width:4; stroke-opacity:1; fill:none" points="511.216,623.18 511.216,604.282 "/>
<polyline clip-path="url(#clip530)" style="stroke:#000000; stroke-linecap:round; stroke-linejoin:round; stroke-width:4; stroke-opacity:1; fill:none" points="671.35,623.18 671.35,604.282 "/>
<polyline clip-path="url(#clip530)" style="stroke:#000000; stroke-linecap:round; stroke-linejoin:round; stroke-width:4; stroke-opacity:1; fill:none" points="831.484,623.18 831.484,604.282 "/>
<polyline clip-path="url(#clip530)" style="stroke:#000000; stroke-linecap:round; stroke-linejoin:round; stroke-width:4; stroke-opacity:1; fill:none" points="991.618,623.18 991.618,604.282 "/>
<polyline clip-path="url(#clip530)" style="stroke:#000000; stroke-linecap:round; stroke-linejoin:round; stroke-width:4; stroke-opacity:1; fill:none" points="1151.75,623.18 1151.75,604.282 "/>
<polyline clip-path="url(#clip530)" style="stroke:#000000; stroke-linecap:round; stroke-linejoin:round; stroke-width:4; stroke-opacity:1; fill:none" points="1311.89,623.18 1311.89,604.282 "/>
<polyline clip-path="url(#clip530)" style="stroke:#000000; stroke-linecap:round; stroke-linejoin:round; stroke-width:4; stroke-opacity:1; fill:none" points="1472.02,623.18 1472.02,604.282 "/>
<polyline clip-path="url(#clip530)" style="stroke:#000000; stroke-linecap:round; stroke-linejoin:round; stroke-width:4; stroke-opacity:1; fill:none" points="1632.15,623.18 1632.15,604.282 "/>
<polyline clip-path="url(#clip530)" style="stroke:#000000; stroke-linecap:round; stroke-linejoin:round; stroke-width:4; stroke-opacity:1; fill:none" points="1792.29,623.18 1792.29,604.282 "/>
<polyline clip-path="url(#clip530)" style="stroke:#000000; stroke-linecap:round; stroke-linejoin:round; stroke-width:4; stroke-opacity:1; fill:none" points="1952.42,623.18 1952.42,604.282 "/>
<polyline clip-path="url(#clip530)" style="stroke:#000000; stroke-linecap:round; stroke-linejoin:round; stroke-width:4; stroke-opacity:1; fill:none" points="2112.56,623.18 2112.56,604.282 "/>
<polyline clip-path="url(#clip530)" style="stroke:#000000; stroke-linecap:round; stroke-linejoin:round; stroke-width:4; stroke-opacity:1; fill:none" points="2272.69,623.18 2272.69,604.282 "/>
<path clip-path="url(#clip530)" d="M190.948 654.099 Q187.337 654.099 185.508 657.663 Q183.703 661.205 183.703 668.335 Q183.703 675.441 185.508 679.006 Q187.337 682.547 190.948 682.547 Q194.582 682.547 196.388 679.006 Q198.216 675.441 198.216 668.335 Q198.216 661.205 196.388 657.663 Q194.582 654.099 190.948 654.099 M190.948 650.395 Q196.758 650.395 199.814 655.001 Q202.892 659.585 202.892 668.335 Q202.892 677.061 199.814 681.668 Q196.758 686.251 190.948 686.251 Q185.138 686.251 182.059 681.668 Q179.003 677.061 179.003 668.335 Q179.003 659.585 182.059 655.001 Q185.138 650.395 190.948 650.395 Z" fill="#000000" fill-rule="nonzero" fill-opacity="1" /><path clip-path="url(#clip530)" d="M341.464 681.645 L349.103 681.645 L349.103 655.279 L340.792 656.946 L340.792 652.687 L349.056 651.02 L353.732 651.02 L353.732 681.645 L361.371 681.645 L361.371 685.58 L341.464 685.58 L341.464 681.645 Z" fill="#000000" fill-rule="nonzero" fill-opacity="1" /><path clip-path="url(#clip530)" d="M505.869 681.645 L522.188 681.645 L522.188 685.58 L500.244 685.58 L500.244 681.645 Q502.906 678.89 507.489 674.26 Q512.095 669.608 513.276 668.265 Q515.521 665.742 516.401 664.006 Q517.304 662.247 517.304 660.557 Q517.304 657.802 515.359 656.066 Q513.438 654.33 510.336 654.33 Q508.137 654.33 505.683 655.094 Q503.253 655.858 500.475 657.409 L500.475 652.687 Q503.299 651.552 505.753 650.974 Q508.206 650.395 510.243 650.395 Q515.614 650.395 518.808 653.08 Q522.003 655.765 522.003 660.256 Q522.003 662.386 521.193 664.307 Q520.405 666.205 518.299 668.798 Q517.72 669.469 514.618 672.686 Q511.517 675.881 505.869 681.645 Z" fill="#000000" fill-rule="nonzero" fill-opacity="1" /><path clip-path="url(#clip530)" d="M675.597 666.946 Q678.954 667.663 680.829 669.932 Q682.727 672.2 682.727 675.534 Q682.727 680.649 679.208 683.45 Q675.69 686.251 669.208 686.251 Q667.033 686.251 664.718 685.811 Q662.426 685.395 659.972 684.538 L659.972 680.024 Q661.917 681.159 664.232 681.737 Q666.546 682.316 669.07 682.316 Q673.468 682.316 675.759 680.58 Q678.074 678.844 678.074 675.534 Q678.074 672.478 675.921 670.765 Q673.792 669.029 669.972 669.029 L665.945 669.029 L665.945 665.186 L670.158 665.186 Q673.607 665.186 675.435 663.821 Q677.264 662.432 677.264 659.839 Q677.264 657.177 675.366 655.765 Q673.491 654.33 669.972 654.33 Q668.051 654.33 665.852 654.747 Q663.653 655.163 661.014 656.043 L661.014 651.876 Q663.676 651.136 665.991 650.765 Q668.329 650.395 670.389 650.395 Q675.713 650.395 678.815 652.825 Q681.917 655.233 681.917 659.353 Q681.917 662.223 680.273 664.214 Q678.63 666.182 675.597 666.946 Z" fill="#000000" fill-rule="nonzero" fill-opacity="1" /><path clip-path="url(#clip530)" d="M834.493 655.094 L822.687 673.543 L834.493 673.543 L834.493 655.094 M833.266 651.02 L839.146 651.02 L839.146 673.543 L844.076 673.543 L844.076 677.432 L839.146 677.432 L839.146 685.58 L834.493 685.58 L834.493 677.432 L818.891 677.432 L818.891 672.918 L833.266 651.02 Z" fill="#000000" fill-rule="nonzero" fill-opacity="1" /><path clip-path="url(#clip530)" d="M981.895 651.02 L1000.25 651.02 L1000.25 654.955 L986.178 654.955 L986.178 663.427 Q987.196 663.08 988.215 662.918 Q989.233 662.733 990.252 662.733 Q996.039 662.733 999.418 665.904 Q1002.8 669.075 1002.8 674.492 Q1002.8 680.071 999.326 683.172 Q995.854 686.251 989.534 686.251 Q987.358 686.251 985.09 685.881 Q982.844 685.51 980.437 684.77 L980.437 680.071 Q982.52 681.205 984.743 681.76 Q986.965 682.316 989.442 682.316 Q993.446 682.316 995.784 680.21 Q998.122 678.103 998.122 674.492 Q998.122 670.881 995.784 668.774 Q993.446 666.668 989.442 666.668 Q987.567 666.668 985.692 667.085 Q983.84 667.501 981.895 668.381 L981.895 651.02 Z" fill="#000000" fill-rule="nonzero" fill-opacity="1" /><path clip-path="url(#clip530)" d="M1152.16 666.436 Q1149.01 666.436 1147.16 668.589 Q1145.33 670.742 1145.33 674.492 Q1145.33 678.219 1147.16 680.395 Q1149.01 682.547 1152.16 682.547 Q1155.3 682.547 1157.13 680.395 Q1158.99 678.219 1158.99 674.492 Q1158.99 670.742 1157.13 668.589 Q1155.3 666.436 1152.16 666.436 M1161.44 651.784 L1161.44 656.043 Q1159.68 655.21 1157.87 654.77 Q1156.09 654.33 1154.33 654.33 Q1149.7 654.33 1147.25 657.455 Q1144.82 660.58 1144.47 666.899 Q1145.84 664.886 1147.9 663.821 Q1149.96 662.733 1152.43 662.733 Q1157.64 662.733 1160.65 665.904 Q1163.68 669.052 1163.68 674.492 Q1163.68 679.816 1160.54 683.034 Q1157.39 686.251 1152.16 686.251 Q1146.16 686.251 1142.99 681.668 Q1139.82 677.061 1139.82 668.335 Q1139.82 660.14 1143.71 655.279 Q1147.6 650.395 1154.15 650.395 Q1155.91 650.395 1157.69 650.742 Q1159.49 651.089 1161.44 651.784 Z" fill="#000000" fill-rule="nonzero" fill-opacity="1" /><path clip-path="url(#clip530)" d="M1300.77 651.02 L1323 651.02 L1323 653.011 L1310.45 685.58 L1305.57 685.58 L1317.37 654.955 L1300.77 654.955 L1300.77 651.02 Z" fill="#000000" fill-rule="nonzero" fill-opacity="1" /><path clip-path="url(#clip530)" d="M1472.02 669.168 Q1468.69 669.168 1466.76 670.95 Q1464.87 672.733 1464.87 675.858 Q1464.87 678.983 1466.76 680.765 Q1468.69 682.547 1472.02 682.547 Q1475.35 682.547 1477.27 680.765 Q1479.2 678.96 1479.2 675.858 Q1479.2 672.733 1477.27 670.95 Q1475.38 669.168 1472.02 669.168 M1467.34 667.177 Q1464.33 666.436 1462.64 664.376 Q1460.98 662.316 1460.98 659.353 Q1460.98 655.21 1463.92 652.802 Q1466.88 650.395 1472.02 650.395 Q1477.18 650.395 1480.12 652.802 Q1483.06 655.21 1483.06 659.353 Q1483.06 662.316 1481.37 664.376 Q1479.7 666.436 1476.72 667.177 Q1480.1 667.964 1481.97 670.256 Q1483.87 672.548 1483.87 675.858 Q1483.87 680.881 1480.79 683.566 Q1477.74 686.251 1472.02 686.251 Q1466.3 686.251 1463.22 683.566 Q1460.17 680.881 1460.17 675.858 Q1460.17 672.548 1462.07 670.256 Q1463.96 667.964 1467.34 667.177 M1465.63 659.793 Q1465.63 662.478 1467.3 663.983 Q1468.99 665.487 1472.02 665.487 Q1475.03 665.487 1476.72 663.983 Q1478.43 662.478 1478.43 659.793 Q1478.43 657.108 1476.72 655.603 Q1475.03 654.099 1472.02 654.099 Q1468.99 654.099 1467.3 655.603 Q1465.63 657.108 1465.63 659.793 Z" fill="#000000" fill-rule="nonzero" fill-opacity="1" /><path clip-path="url(#clip530)" d="M1622.45 684.862 L1622.45 680.603 Q1624.21 681.436 1626.02 681.876 Q1627.82 682.316 1629.56 682.316 Q1634.19 682.316 1636.62 679.214 Q1639.07 676.089 1639.42 669.747 Q1638.08 671.737 1636.02 672.802 Q1633.96 673.867 1631.46 673.867 Q1626.27 673.867 1623.24 670.742 Q1620.23 667.594 1620.23 662.154 Q1620.23 656.83 1623.38 653.612 Q1626.53 650.395 1631.76 650.395 Q1637.76 650.395 1640.9 655.001 Q1644.07 659.585 1644.07 668.335 Q1644.07 676.506 1640.19 681.39 Q1636.32 686.251 1629.77 686.251 Q1628.01 686.251 1626.2 685.904 Q1624.4 685.557 1622.45 684.862 M1631.76 670.21 Q1634.91 670.21 1636.74 668.057 Q1638.59 665.904 1638.59 662.154 Q1638.59 658.427 1636.74 656.274 Q1634.91 654.099 1631.76 654.099 Q1628.61 654.099 1626.76 656.274 Q1624.93 658.427 1624.93 662.154 Q1624.93 665.904 1626.76 668.057 Q1628.61 670.21 1631.76 670.21 Z" fill="#000000" fill-rule="nonzero" fill-opacity="1" /><path clip-path="url(#clip530)" d="M1766.97 681.645 L1774.61 681.645 L1774.61 655.279 L1766.3 656.946 L1766.3 652.687 L1774.57 651.02 L1779.24 651.02 L1779.24 681.645 L1786.88 681.645 L1786.88 685.58 L1766.97 685.58 L1766.97 681.645 Z" fill="#000000" fill-rule="nonzero" fill-opacity="1" /><path clip-path="url(#clip530)" d="M1806.33 654.099 Q1802.72 654.099 1800.89 657.663 Q1799.08 661.205 1799.08 668.335 Q1799.08 675.441 1800.89 679.006 Q1802.72 682.547 1806.33 682.547 Q1809.96 682.547 1811.77 679.006 Q1813.59 675.441 1813.59 668.335 Q1813.59 661.205 1811.77 657.663 Q1809.96 654.099 1806.33 654.099 M1806.33 650.395 Q1812.14 650.395 1815.19 655.001 Q1818.27 659.585 1818.27 668.335 Q1818.27 677.061 1815.19 681.668 Q1812.14 686.251 1806.33 686.251 Q1800.52 686.251 1797.44 681.668 Q1794.38 677.061 1794.38 668.335 Q1794.38 659.585 1797.44 655.001 Q1800.52 650.395 1806.33 650.395 Z" fill="#000000" fill-rule="nonzero" fill-opacity="1" /><path clip-path="url(#clip530)" d="M1927.72 681.645 L1935.36 681.645 L1935.36 655.279 L1927.05 656.946 L1927.05 652.687 L1935.31 651.02 L1939.99 651.02 L1939.99 681.645 L1947.63 681.645 L1947.63 685.58 L1927.72 685.58 L1927.72 681.645 Z" fill="#000000" fill-rule="nonzero" fill-opacity="1" /><path clip-path="url(#clip530)" d="M1957.88 681.645 L1965.52 681.645 L1965.52 655.279 L1957.21 656.946 L1957.21 652.687 L1965.48 651.02 L1970.15 651.02 L1970.15 681.645 L1977.79 681.645 L1977.79 685.58 L1957.88 685.58 L1957.88 681.645 Z" fill="#000000" fill-rule="nonzero" fill-opacity="1" /><path clip-path="url(#clip530)" d="M2088.04 681.645 L2095.68 681.645 L2095.68 655.279 L2087.37 656.946 L2087.37 652.687 L2095.63 651.02 L2100.31 651.02 L2100.31 681.645 L2107.95 681.645 L2107.95 685.58 L2088.04 685.58 L2088.04 681.645 Z" fill="#000000" fill-rule="nonzero" fill-opacity="1" /><path clip-path="url(#clip530)" d="M2121.42 681.645 L2137.74 681.645 L2137.74 685.58 L2115.8 685.58 L2115.8 681.645 Q2118.46 678.89 2123.04 674.26 Q2127.65 669.608 2128.83 668.265 Q2131.07 665.742 2131.95 664.006 Q2132.86 662.247 2132.86 660.557 Q2132.86 657.802 2130.91 656.066 Q2128.99 654.33 2125.89 654.33 Q2123.69 654.33 2121.24 655.094 Q2118.8 655.858 2116.03 657.409 L2116.03 652.687 Q2118.85 651.552 2121.3 650.974 Q2123.76 650.395 2125.8 650.395 Q2131.17 650.395 2134.36 653.08 Q2137.55 655.765 2137.55 660.256 Q2137.55 662.386 2136.74 664.307 Q2135.96 666.205 2133.85 668.798 Q2133.27 669.469 2130.17 672.686 Q2127.07 675.881 2121.42 681.645 Z" fill="#000000" fill-rule="nonzero" fill-opacity="1" /><path clip-path="url(#clip530)" d="M2247.7 681.645 L2255.34 681.645 L2255.34 655.279 L2247.03 656.946 L2247.03 652.687 L2255.29 651.02 L2259.97 651.02 L2259.97 681.645 L2267.61 681.645 L2267.61 685.58 L2247.7 685.58 L2247.7 681.645 Z" fill="#000000" fill-rule="nonzero" fill-opacity="1" /><path clip-path="url(#clip530)" d="M2291.22 666.946 Q2294.58 667.663 2296.45 669.932 Q2298.35 672.2 2298.35 675.534 Q2298.35 680.649 2294.83 683.45 Q2291.31 686.251 2284.83 686.251 Q2282.65 686.251 2280.34 685.811 Q2278.05 685.395 2275.59 684.538 L2275.59 680.024 Q2277.54 681.159 2279.85 681.737 Q2282.17 682.316 2284.69 682.316 Q2289.09 682.316 2291.38 680.58 Q2293.7 678.844 2293.7 675.534 Q2293.7 672.478 2291.54 670.765 Q2289.41 669.029 2285.59 669.029 L2281.57 669.029 L2281.57 665.186 L2285.78 665.186 Q2289.23 665.186 2291.06 663.821 Q2292.89 662.432 2292.89 659.839 Q2292.89 657.177 2290.99 655.765 Q2289.11 654.33 2285.59 654.33 Q2283.67 654.33 2281.47 654.747 Q2279.27 655.163 2276.64 656.043 L2276.64 651.876 Q2279.3 651.136 2281.61 650.765 Q2283.95 650.395 2286.01 650.395 Q2291.33 650.395 2294.44 652.825 Q2297.54 655.233 2297.54 659.353 Q2297.54 662.223 2295.89 664.214 Q2294.25 666.182 2291.22 666.946 Z" fill="#000000" fill-rule="nonzero" fill-opacity="1" /><path clip-path="url(#clip530)" d="M1240.29 731.913 Q1240.29 732.815 1239.87 733.04 Q1239.45 733.233 1238.29 733.233 L1232.11 733.233 L1227.21 752.686 Q1226.83 754.393 1226.83 755.842 Q1226.83 757.452 1227.31 758.161 Q1227.83 758.869 1228.89 758.869 Q1230.98 758.869 1233.24 756.969 Q1235.52 755.069 1237.46 750.431 Q1237.71 749.819 1237.84 749.691 Q1238 749.53 1238.42 749.53 Q1239.23 749.53 1239.23 750.174 Q1239.23 750.399 1238.78 751.43 Q1238.36 752.46 1237.42 753.974 Q1236.52 755.488 1235.33 756.905 Q1234.17 758.322 1232.4 759.352 Q1230.63 760.351 1228.73 760.351 Q1226.05 760.351 1224.35 758.644 Q1222.67 756.937 1222.67 754.264 Q1222.67 753.394 1223.35 750.625 Q1224.03 747.823 1227.7 733.233 L1221.87 733.233 Q1221.06 733.233 1220.74 733.201 Q1220.45 733.169 1220.23 733.008 Q1220.03 732.815 1220.03 732.428 Q1220.03 731.816 1220.29 731.559 Q1220.55 731.269 1220.87 731.237 Q1221.22 731.172 1222.03 731.172 L1228.21 731.172 L1230.79 720.705 Q1231.05 719.675 1231.69 719.095 Q1232.37 718.483 1232.75 718.419 Q1233.14 718.322 1233.43 718.322 Q1234.3 718.322 1234.81 718.805 Q1235.33 719.256 1235.33 720.093 Q1235.33 720.544 1232.62 731.172 L1238.42 731.172 Q1239.16 731.172 1239.45 731.204 Q1239.77 731.237 1240.03 731.398 Q1240.29 731.559 1240.29 731.913 Z" fill="#000000" fill-rule="nonzero" fill-opacity="1" /><polyline clip-path="url(#clip533)" style="stroke:#000000; stroke-linecap:round; stroke-linejoin:round; stroke-width:2; stroke-opacity:0.1; fill:none" points="110.881,598.253 2352.76,598.253 "/>
<polyline clip-path="url(#clip533)" style="stroke:#000000; stroke-linecap:round; stroke-linejoin:round; stroke-width:2; stroke-opacity:0.1; fill:none" points="110.881,548.399 2352.76,548.399 "/>
<polyline clip-path="url(#clip530)" style="stroke:#000000; stroke-linecap:round; stroke-linejoin:round; stroke-width:4; stroke-opacity:1; fill:none" points="110.881,623.18 110.881,523.472 "/>
<polyline clip-path="url(#clip530)" style="stroke:#000000; stroke-linecap:round; stroke-linejoin:round; stroke-width:4; stroke-opacity:1; fill:none" points="110.881,598.253 129.779,598.253 "/>
<polyline clip-path="url(#clip530)" style="stroke:#000000; stroke-linecap:round; stroke-linejoin:round; stroke-width:4; stroke-opacity:1; fill:none" points="110.881,548.399 129.779,548.399 "/>
<path clip-path="url(#clip530)" d="M62.9365 584.052 Q59.3254 584.052 57.4967 587.616 Q55.6912 591.158 55.6912 598.288 Q55.6912 605.394 57.4967 608.959 Q59.3254 612.501 62.9365 612.501 Q66.5707 612.501 68.3763 608.959 Q70.205 605.394 70.205 598.288 Q70.205 591.158 68.3763 587.616 Q66.5707 584.052 62.9365 584.052 M62.9365 580.348 Q68.7467 580.348 71.8022 584.954 Q74.8809 589.538 74.8809 598.288 Q74.8809 607.014 71.8022 611.621 Q68.7467 616.204 62.9365 616.204 Q57.1264 616.204 54.0477 611.621 Q50.9921 607.014 50.9921 598.288 Q50.9921 589.538 54.0477 584.954 Q57.1264 580.348 62.9365 580.348 Z" fill="#000000" fill-rule="nonzero" fill-opacity="1" /><path clip-path="url(#clip530)" d="M54.9736 561.744 L62.6124 561.744 L62.6124 535.378 L54.3023 537.045 L54.3023 532.786 L62.5661 531.119 L67.242 531.119 L67.242 561.744 L74.8809 561.744 L74.8809 565.679 L54.9736 565.679 L54.9736 561.744 Z" fill="#000000" fill-rule="nonzero" fill-opacity="1" /><path clip-path="url(#clip530)" d="M1213.86 439.832 Q1213.86 440.078 1213.62 441.062 L1166.68 493.528 L1181.03 493.528 Q1185.25 493.528 1188.45 492.79 Q1191.65 492.011 1193.86 490.7 Q1196.07 489.388 1197.79 487.134 Q1199.56 484.838 1200.7 482.338 Q1201.85 479.797 1203.04 476.067 Q1203.49 474.632 1203.7 474.304 Q1203.9 473.976 1204.43 473.976 Q1204.97 473.976 1205.25 474.304 Q1205.54 474.591 1205.54 474.919 Q1205.54 475.083 1205.46 475.329 Q1205.42 475.534 1205.34 475.78 Q1205.25 476.026 1205.21 476.149 L1199.23 494.717 Q1198.86 495.905 1198.49 496.151 Q1198.12 496.397 1196.65 496.397 L1160.12 496.397 Q1158.85 496.397 1158.44 496.315 Q1158.03 496.192 1158.03 495.66 L1158.36 494.143 L1205.29 441.677 L1191.6 441.677 Q1187.75 441.677 1184.72 442.373 Q1181.73 443.029 1179.59 444.259 Q1177.46 445.448 1175.82 447.456 Q1174.18 449.424 1173.08 451.719 Q1171.97 453.973 1170.95 457.13 L1170.82 457.335 Q1170.7 457.539 1170.62 457.662 Q1170.54 457.744 1170.33 457.867 Q1170.13 457.949 1169.88 457.949 Q1169.43 457.949 1169.14 457.703 Q1168.9 457.457 1168.9 457.212 L1168.86 457.007 Q1168.94 456.269 1169.1 455.859 L1173.73 440.734 Q1174.1 439.545 1174.47 439.299 Q1174.84 439.053 1176.32 439.053 L1211.77 439.053 Q1213.08 439.053 1213.45 439.176 Q1213.86 439.299 1213.86 439.832 Z" fill="#000000" fill-rule="nonzero" fill-opacity="1" /><path clip-path="url(#clip530)" d="M1261.07 435.707 Q1261.41 436.051 1261.41 436.539 Q1261.41 437.026 1261.07 437.371 Q1260.72 437.715 1260.24 437.715 L1223.45 437.715 Q1222.96 437.715 1222.62 437.371 Q1222.28 437.026 1222.28 436.539 Q1222.28 436.051 1222.62 435.707 Q1222.96 435.362 1223.45 435.362 L1260.24 435.362 Q1260.72 435.362 1261.07 435.707 Z" fill="#000000" fill-rule="nonzero" fill-opacity="1" /><path clip-path="url(#clip530)" d="M1267.54 417.688 L1267.54 415.851 Q1274.6 415.851 1278.25 412.093 Q1279.25 412.093 1279.42 412.322 Q1279.59 412.552 1279.59 413.613 L1279.59 446.581 Q1279.59 448.331 1280.46 448.876 Q1281.32 449.422 1285.07 449.422 L1286.94 449.422 L1286.94 451.229 Q1284.87 451.057 1277.41 451.057 Q1269.95 451.057 1267.92 451.229 L1267.92 449.422 L1269.78 449.422 Q1273.48 449.422 1274.37 448.905 Q1275.26 448.36 1275.26 446.581 L1275.26 416.138 Q1272.19 417.688 1267.54 417.688 Z" fill="#000000" fill-rule="nonzero" fill-opacity="1" /><polyline clip-path="url(#clip533)" style="stroke:#009af9; stroke-linecap:round; stroke-linejoin:round; stroke-width:8; stroke-opacity:1; fill:none" points="351.082,598.253 511.216,598.253 511.216,548.399 671.35,548.399 831.484,548.399 991.618,548.399 991.618,598.253 1151.75,598.253 1151.75,548.399 1311.89,548.399 1472.02,548.399 1632.15,548.399 1792.29,548.399 1792.29,598.253 1952.42,598.253 1952.42,548.399 2112.56,548.399 2112.56,598.253 2272.69,598.253 "/>
<polyline clip-path="url(#clip533)" style="stroke:#e26f46; stroke-linecap:round; stroke-linejoin:round; stroke-width:8; stroke-opacity:1; fill:none" points="190.948,548.399 351.082,548.399 351.082,598.253 "/>
<path clip-path="url(#clip530)" d="M110.881 1023.18 L2352.76 1023.18 L2352.76 923.472 L110.881 923.472  Z" fill="#ffffff" fill-rule="evenodd" fill-opacity="1"/>
<defs>
  <clipPath id="clip534">
    <rect x="110" y="923" width="2243" height="101"/>
  </clipPath>
</defs>
<polyline clip-path="url(#clip534)" style="stroke:#000000; stroke-linecap:round; stroke-linejoin:round; stroke-width:2; stroke-opacity:0.1; fill:none" points="190.948,1023.18 190.948,923.472 "/>
<polyline clip-path="url(#clip534)" style="stroke:#000000; stroke-linecap:round; stroke-linejoin:round; stroke-width:2; stroke-opacity:0.1; fill:none" points="351.082,1023.18 351.082,923.472 "/>
<polyline clip-path="url(#clip534)" style="stroke:#000000; stroke-linecap:round; stroke-linejoin:round; stroke-width:2; stroke-opacity:0.1; fill:none" points="511.216,1023.18 511.216,923.472 "/>
<polyline clip-path="url(#clip534)" style="stroke:#000000; stroke-linecap:round; stroke-linejoin:round; stroke-width:2; stroke-opacity:0.1; fill:none" points="671.35,1023.18 671.35,923.472 "/>
<polyline clip-path="url(#clip534)" style="stroke:#000000; stroke-linecap:round; stroke-linejoin:round; stroke-width:2; stroke-opacity:0.1; fill:none" points="831.484,1023.18 831.484,923.472 "/>
<polyline clip-path="url(#clip534)" style="stroke:#000000; stroke-linecap:round; stroke-linejoin:round; stroke-width:2; stroke-opacity:0.1; fill:none" points="991.618,1023.18 991.618,923.472 "/>
<polyline clip-path="url(#clip534)" style="stroke:#000000; stroke-linecap:round; stroke-linejoin:round; stroke-width:2; stroke-opacity:0.1; fill:none" points="1151.75,1023.18 1151.75,923.472 "/>
<polyline clip-path="url(#clip534)" style="stroke:#000000; stroke-linecap:round; stroke-linejoin:round; stroke-width:2; stroke-opacity:0.1; fill:none" points="1311.89,1023.18 1311.89,923.472 "/>
<polyline clip-path="url(#clip534)" style="stroke:#000000; stroke-linecap:round; stroke-linejoin:round; stroke-width:2; stroke-opacity:0.1; fill:none" points="1472.02,1023.18 1472.02,923.472 "/>
<polyline clip-path="url(#clip534)" style="stroke:#000000; stroke-linecap:round; stroke-linejoin:round; stroke-width:2; stroke-opacity:0.1; fill:none" points="1632.15,1023.18 1632.15,923.472 "/>
<polyline clip-path="url(#clip534)" style="stroke:#000000; stroke-linecap:round; stroke-linejoin:round; stroke-width:2; stroke-opacity:0.1; fill:none" points="1792.29,1023.18 1792.29,923.472 "/>
<polyline clip-path="url(#clip534)" style="stroke:#000000; stroke-linecap:round; stroke-linejoin:round; stroke-width:2; stroke-opacity:0.1; fill:none" points="1952.42,1023.18 1952.42,923.472 "/>
<polyline clip-path="url(#clip534)" style="stroke:#000000; stroke-linecap:round; stroke-linejoin:round; stroke-width:2; stroke-opacity:0.1; fill:none" points="2112.56,1023.18 2112.56,923.472 "/>
<polyline clip-path="url(#clip534)" style="stroke:#000000; stroke-linecap:round; stroke-linejoin:round; stroke-width:2; stroke-opacity:0.1; fill:none" points="2272.69,1023.18 2272.69,923.472 "/>
<polyline clip-path="url(#clip530)" style="stroke:#000000; stroke-linecap:round; stroke-linejoin:round; stroke-width:4; stroke-opacity:1; fill:none" points="110.881,1023.18 2352.76,1023.18 "/>
<polyline clip-path="url(#clip530)" style="stroke:#000000; stroke-linecap:round; stroke-linejoin:round; stroke-width:4; stroke-opacity:1; fill:none" points="190.948,1023.18 190.948,1004.28 "/>
<polyline clip-path="url(#clip530)" style="stroke:#000000; stroke-linecap:round; stroke-linejoin:round; stroke-width:4; stroke-opacity:1; fill:none" points="351.082,1023.18 351.082,1004.28 "/>
<polyline clip-path="url(#clip530)" style="stroke:#000000; stroke-linecap:round; stroke-linejoin:round; stroke-width:4; stroke-opacity:1; fill:none" points="511.216,1023.18 511.216,1004.28 "/>
<polyline clip-path="url(#clip530)" style="stroke:#000000; stroke-linecap:round; stroke-linejoin:round; stroke-width:4; stroke-opacity:1; fill:none" points="671.35,1023.18 671.35,1004.28 "/>
<polyline clip-path="url(#clip530)" style="stroke:#000000; stroke-linecap:round; stroke-linejoin:round; stroke-width:4; stroke-opacity:1; fill:none" points="831.484,1023.18 831.484,1004.28 "/>
<polyline clip-path="url(#clip530)" style="stroke:#000000; stroke-linecap:round; stroke-linejoin:round; stroke-width:4; stroke-opacity:1; fill:none" points="991.618,1023.18 991.618,1004.28 "/>
<polyline clip-path="url(#clip530)" style="stroke:#000000; stroke-linecap:round; stroke-linejoin:round; stroke-width:4; stroke-opacity:1; fill:none" points="1151.75,1023.18 1151.75,1004.28 "/>
<polyline clip-path="url(#clip530)" style="stroke:#000000; stroke-linecap:round; stroke-linejoin:round; stroke-width:4; stroke-opacity:1; fill:none" points="1311.89,1023.18 1311.89,1004.28 "/>
<polyline clip-path="url(#clip530)" style="stroke:#000000; stroke-linecap:round; stroke-linejoin:round; stroke-width:4; stroke-opacity:1; fill:none" points="1472.02,1023.18 1472.02,1004.28 "/>
<polyline clip-path="url(#clip530)" style="stroke:#000000; stroke-linecap:round; stroke-linejoin:round; stroke-width:4; stroke-opacity:1; fill:none" points="1632.15,1023.18 1632.15,1004.28 "/>
<polyline clip-path="url(#clip530)" style="stroke:#000000; stroke-linecap:round; stroke-linejoin:round; stroke-width:4; stroke-opacity:1; fill:none" points="1792.29,1023.18 1792.29,1004.28 "/>
<polyline clip-path="url(#clip530)" style="stroke:#000000; stroke-linecap:round; stroke-linejoin:round; stroke-width:4; stroke-opacity:1; fill:none" points="1952.42,1023.18 1952.42,1004.28 "/>
<polyline clip-path="url(#clip530)" style="stroke:#000000; stroke-linecap:round; stroke-linejoin:round; stroke-width:4; stroke-opacity:1; fill:none" points="2112.56,1023.18 2112.56,1004.28 "/>
<polyline clip-path="url(#clip530)" style="stroke:#000000; stroke-linecap:round; stroke-linejoin:round; stroke-width:4; stroke-opacity:1; fill:none" points="2272.69,1023.18 2272.69,1004.28 "/>
<path clip-path="url(#clip530)" d="M190.948 1054.1 Q187.337 1054.1 185.508 1057.66 Q183.703 1061.2 183.703 1068.33 Q183.703 1075.44 185.508 1079.01 Q187.337 1082.55 190.948 1082.55 Q194.582 1082.55 196.388 1079.01 Q198.216 1075.44 198.216 1068.33 Q198.216 1061.2 196.388 1057.66 Q194.582 1054.1 190.948 1054.1 M190.948 1050.39 Q196.758 1050.39 199.814 1055 Q202.892 1059.58 202.892 1068.33 Q202.892 1077.06 199.814 1081.67 Q196.758 1086.25 190.948 1086.25 Q185.138 1086.25 182.059 1081.67 Q179.003 1077.06 179.003 1068.33 Q179.003 1059.58 182.059 1055 Q185.138 1050.39 190.948 1050.39 Z" fill="#000000" fill-rule="nonzero" fill-opacity="1" /><path clip-path="url(#clip530)" d="M341.464 1081.64 L349.103 1081.64 L349.103 1055.28 L340.792 1056.95 L340.792 1052.69 L349.056 1051.02 L353.732 1051.02 L353.732 1081.64 L361.371 1081.64 L361.371 1085.58 L341.464 1085.58 L341.464 1081.64 Z" fill="#000000" fill-rule="nonzero" fill-opacity="1" /><path clip-path="url(#clip530)" d="M505.869 1081.64 L522.188 1081.64 L522.188 1085.58 L500.244 1085.58 L500.244 1081.64 Q502.906 1078.89 507.489 1074.26 Q512.095 1069.61 513.276 1068.27 Q515.521 1065.74 516.401 1064.01 Q517.304 1062.25 517.304 1060.56 Q517.304 1057.8 515.359 1056.07 Q513.438 1054.33 510.336 1054.33 Q508.137 1054.33 505.683 1055.09 Q503.253 1055.86 500.475 1057.41 L500.475 1052.69 Q503.299 1051.55 505.753 1050.97 Q508.206 1050.39 510.243 1050.39 Q515.614 1050.39 518.808 1053.08 Q522.003 1055.77 522.003 1060.26 Q522.003 1062.39 521.193 1064.31 Q520.405 1066.2 518.299 1068.8 Q517.72 1069.47 514.618 1072.69 Q511.517 1075.88 505.869 1081.64 Z" fill="#000000" fill-rule="nonzero" fill-opacity="1" /><path clip-path="url(#clip530)" d="M675.597 1066.95 Q678.954 1067.66 680.829 1069.93 Q682.727 1072.2 682.727 1075.53 Q682.727 1080.65 679.208 1083.45 Q675.69 1086.25 669.208 1086.25 Q667.033 1086.25 664.718 1085.81 Q662.426 1085.39 659.972 1084.54 L659.972 1080.02 Q661.917 1081.16 664.232 1081.74 Q666.546 1082.32 669.07 1082.32 Q673.468 1082.32 675.759 1080.58 Q678.074 1078.84 678.074 1075.53 Q678.074 1072.48 675.921 1070.77 Q673.792 1069.03 669.972 1069.03 L665.945 1069.03 L665.945 1065.19 L670.158 1065.19 Q673.607 1065.19 675.435 1063.82 Q677.264 1062.43 677.264 1059.84 Q677.264 1057.18 675.366 1055.77 Q673.491 1054.33 669.972 1054.33 Q668.051 1054.33 665.852 1054.75 Q663.653 1055.16 661.014 1056.04 L661.014 1051.88 Q663.676 1051.14 665.991 1050.77 Q668.329 1050.39 670.389 1050.39 Q675.713 1050.39 678.815 1052.83 Q681.917 1055.23 681.917 1059.35 Q681.917 1062.22 680.273 1064.21 Q678.63 1066.18 675.597 1066.95 Z" fill="#000000" fill-rule="nonzero" fill-opacity="1" /><path clip-path="url(#clip530)" d="M834.493 1055.09 L822.687 1073.54 L834.493 1073.54 L834.493 1055.09 M833.266 1051.02 L839.146 1051.02 L839.146 1073.54 L844.076 1073.54 L844.076 1077.43 L839.146 1077.43 L839.146 1085.58 L834.493 1085.58 L834.493 1077.43 L818.891 1077.43 L818.891 1072.92 L833.266 1051.02 Z" fill="#000000" fill-rule="nonzero" fill-opacity="1" /><path clip-path="url(#clip530)" d="M981.895 1051.02 L1000.25 1051.02 L1000.25 1054.96 L986.178 1054.96 L986.178 1063.43 Q987.196 1063.08 988.215 1062.92 Q989.233 1062.73 990.252 1062.73 Q996.039 1062.73 999.418 1065.9 Q1002.8 1069.08 1002.8 1074.49 Q1002.8 1080.07 999.326 1083.17 Q995.854 1086.25 989.534 1086.25 Q987.358 1086.25 985.09 1085.88 Q982.844 1085.51 980.437 1084.77 L980.437 1080.07 Q982.52 1081.2 984.743 1081.76 Q986.965 1082.32 989.442 1082.32 Q993.446 1082.32 995.784 1080.21 Q998.122 1078.1 998.122 1074.49 Q998.122 1070.88 995.784 1068.77 Q993.446 1066.67 989.442 1066.67 Q987.567 1066.67 985.692 1067.08 Q983.84 1067.5 981.895 1068.38 L981.895 1051.02 Z" fill="#000000" fill-rule="nonzero" fill-opacity="1" /><path clip-path="url(#clip530)" d="M1152.16 1066.44 Q1149.01 1066.44 1147.16 1068.59 Q1145.33 1070.74 1145.33 1074.49 Q1145.33 1078.22 1147.16 1080.39 Q1149.01 1082.55 1152.16 1082.55 Q1155.3 1082.55 1157.13 1080.39 Q1158.99 1078.22 1158.99 1074.49 Q1158.99 1070.74 1157.13 1068.59 Q1155.3 1066.44 1152.16 1066.44 M1161.44 1051.78 L1161.44 1056.04 Q1159.68 1055.21 1157.87 1054.77 Q1156.09 1054.33 1154.33 1054.33 Q1149.7 1054.33 1147.25 1057.45 Q1144.82 1060.58 1144.47 1066.9 Q1145.84 1064.89 1147.9 1063.82 Q1149.96 1062.73 1152.43 1062.73 Q1157.64 1062.73 1160.65 1065.9 Q1163.68 1069.05 1163.68 1074.49 Q1163.68 1079.82 1160.54 1083.03 Q1157.39 1086.25 1152.16 1086.25 Q1146.16 1086.25 1142.99 1081.67 Q1139.82 1077.06 1139.82 1068.33 Q1139.82 1060.14 1143.71 1055.28 Q1147.6 1050.39 1154.15 1050.39 Q1155.91 1050.39 1157.69 1050.74 Q1159.49 1051.09 1161.44 1051.78 Z" fill="#000000" fill-rule="nonzero" fill-opacity="1" /><path clip-path="url(#clip530)" d="M1300.77 1051.02 L1323 1051.02 L1323 1053.01 L1310.45 1085.58 L1305.57 1085.58 L1317.37 1054.96 L1300.77 1054.96 L1300.77 1051.02 Z" fill="#000000" fill-rule="nonzero" fill-opacity="1" /><path clip-path="url(#clip530)" d="M1472.02 1069.17 Q1468.69 1069.17 1466.76 1070.95 Q1464.87 1072.73 1464.87 1075.86 Q1464.87 1078.98 1466.76 1080.77 Q1468.69 1082.55 1472.02 1082.55 Q1475.35 1082.55 1477.27 1080.77 Q1479.2 1078.96 1479.2 1075.86 Q1479.2 1072.73 1477.27 1070.95 Q1475.38 1069.17 1472.02 1069.17 M1467.34 1067.18 Q1464.33 1066.44 1462.64 1064.38 Q1460.98 1062.32 1460.98 1059.35 Q1460.98 1055.21 1463.92 1052.8 Q1466.88 1050.39 1472.02 1050.39 Q1477.18 1050.39 1480.12 1052.8 Q1483.06 1055.21 1483.06 1059.35 Q1483.06 1062.32 1481.37 1064.38 Q1479.7 1066.44 1476.72 1067.18 Q1480.1 1067.96 1481.97 1070.26 Q1483.87 1072.55 1483.87 1075.86 Q1483.87 1080.88 1480.79 1083.57 Q1477.74 1086.25 1472.02 1086.25 Q1466.3 1086.25 1463.22 1083.57 Q1460.17 1080.88 1460.17 1075.86 Q1460.17 1072.55 1462.07 1070.26 Q1463.96 1067.96 1467.34 1067.18 M1465.63 1059.79 Q1465.63 1062.48 1467.3 1063.98 Q1468.99 1065.49 1472.02 1065.49 Q1475.03 1065.49 1476.72 1063.98 Q1478.43 1062.48 1478.43 1059.79 Q1478.43 1057.11 1476.72 1055.6 Q1475.03 1054.1 1472.02 1054.1 Q1468.99 1054.1 1467.3 1055.6 Q1465.63 1057.11 1465.63 1059.79 Z" fill="#000000" fill-rule="nonzero" fill-opacity="1" /><path clip-path="url(#clip530)" d="M1622.45 1084.86 L1622.45 1080.6 Q1624.21 1081.44 1626.02 1081.88 Q1627.82 1082.32 1629.56 1082.32 Q1634.19 1082.32 1636.62 1079.21 Q1639.07 1076.09 1639.42 1069.75 Q1638.08 1071.74 1636.02 1072.8 Q1633.96 1073.87 1631.46 1073.87 Q1626.27 1073.87 1623.24 1070.74 Q1620.23 1067.59 1620.23 1062.15 Q1620.23 1056.83 1623.38 1053.61 Q1626.53 1050.39 1631.76 1050.39 Q1637.76 1050.39 1640.9 1055 Q1644.07 1059.58 1644.07 1068.33 Q1644.07 1076.51 1640.19 1081.39 Q1636.32 1086.25 1629.77 1086.25 Q1628.01 1086.25 1626.2 1085.9 Q1624.4 1085.56 1622.45 1084.86 M1631.76 1070.21 Q1634.91 1070.21 1636.74 1068.06 Q1638.59 1065.9 1638.59 1062.15 Q1638.59 1058.43 1636.74 1056.27 Q1634.91 1054.1 1631.76 1054.1 Q1628.61 1054.1 1626.76 1056.27 Q1624.93 1058.43 1624.93 1062.15 Q1624.93 1065.9 1626.76 1068.06 Q1628.61 1070.21 1631.76 1070.21 Z" fill="#000000" fill-rule="nonzero" fill-opacity="1" /><path clip-path="url(#clip530)" d="M1766.97 1081.64 L1774.61 1081.64 L1774.61 1055.28 L1766.3 1056.95 L1766.3 1052.69 L1774.57 1051.02 L1779.24 1051.02 L1779.24 1081.64 L1786.88 1081.64 L1786.88 1085.58 L1766.97 1085.58 L1766.97 1081.64 Z" fill="#000000" fill-rule="nonzero" fill-opacity="1" /><path clip-path="url(#clip530)" d="M1806.33 1054.1 Q1802.72 1054.1 1800.89 1057.66 Q1799.08 1061.2 1799.08 1068.33 Q1799.08 1075.44 1800.89 1079.01 Q1802.72 1082.55 1806.33 1082.55 Q1809.96 1082.55 1811.77 1079.01 Q1813.59 1075.44 1813.59 1068.33 Q1813.59 1061.2 1811.77 1057.66 Q1809.96 1054.1 1806.33 1054.1 M1806.33 1050.39 Q1812.14 1050.39 1815.19 1055 Q1818.27 1059.58 1818.27 1068.33 Q1818.27 1077.06 1815.19 1081.67 Q1812.14 1086.25 1806.33 1086.25 Q1800.52 1086.25 1797.44 1081.67 Q1794.38 1077.06 1794.38 1068.33 Q1794.38 1059.58 1797.44 1055 Q1800.52 1050.39 1806.33 1050.39 Z" fill="#000000" fill-rule="nonzero" fill-opacity="1" /><path clip-path="url(#clip530)" d="M1927.72 1081.64 L1935.36 1081.64 L1935.36 1055.28 L1927.05 1056.95 L1927.05 1052.69 L1935.31 1051.02 L1939.99 1051.02 L1939.99 1081.64 L1947.63 1081.64 L1947.63 1085.58 L1927.72 1085.58 L1927.72 1081.64 Z" fill="#000000" fill-rule="nonzero" fill-opacity="1" /><path clip-path="url(#clip530)" d="M1957.88 1081.64 L1965.52 1081.64 L1965.52 1055.28 L1957.21 1056.95 L1957.21 1052.69 L1965.48 1051.02 L1970.15 1051.02 L1970.15 1081.64 L1977.79 1081.64 L1977.79 1085.58 L1957.88 1085.58 L1957.88 1081.64 Z" fill="#000000" fill-rule="nonzero" fill-opacity="1" /><path clip-path="url(#clip530)" d="M2088.04 1081.64 L2095.68 1081.64 L2095.68 1055.28 L2087.37 1056.95 L2087.37 1052.69 L2095.63 1051.02 L2100.31 1051.02 L2100.31 1081.64 L2107.95 1081.64 L2107.95 1085.58 L2088.04 1085.58 L2088.04 1081.64 Z" fill="#000000" fill-rule="nonzero" fill-opacity="1" /><path clip-path="url(#clip530)" d="M2121.42 1081.64 L2137.74 1081.64 L2137.74 1085.58 L2115.8 1085.58 L2115.8 1081.64 Q2118.46 1078.89 2123.04 1074.26 Q2127.65 1069.61 2128.83 1068.27 Q2131.07 1065.74 2131.95 1064.01 Q2132.86 1062.25 2132.86 1060.56 Q2132.86 1057.8 2130.91 1056.07 Q2128.99 1054.33 2125.89 1054.33 Q2123.69 1054.33 2121.24 1055.09 Q2118.8 1055.86 2116.03 1057.41 L2116.03 1052.69 Q2118.85 1051.55 2121.3 1050.97 Q2123.76 1050.39 2125.8 1050.39 Q2131.17 1050.39 2134.36 1053.08 Q2137.55 1055.77 2137.55 1060.26 Q2137.55 1062.39 2136.74 1064.31 Q2135.96 1066.2 2133.85 1068.8 Q2133.27 1069.47 2130.17 1072.69 Q2127.07 1075.88 2121.42 1081.64 Z" fill="#000000" fill-rule="nonzero" fill-opacity="1" /><path clip-path="url(#clip530)" d="M2247.7 1081.64 L2255.34 1081.64 L2255.34 1055.28 L2247.03 1056.95 L2247.03 1052.69 L2255.29 1051.02 L2259.97 1051.02 L2259.97 1081.64 L2267.61 1081.64 L2267.61 1085.58 L2247.7 1085.58 L2247.7 1081.64 Z" fill="#000000" fill-rule="nonzero" fill-opacity="1" /><path clip-path="url(#clip530)" d="M2291.22 1066.95 Q2294.58 1067.66 2296.45 1069.93 Q2298.35 1072.2 2298.35 1075.53 Q2298.35 1080.65 2294.83 1083.45 Q2291.31 1086.25 2284.83 1086.25 Q2282.65 1086.25 2280.34 1085.81 Q2278.05 1085.39 2275.59 1084.54 L2275.59 1080.02 Q2277.54 1081.16 2279.85 1081.74 Q2282.17 1082.32 2284.69 1082.32 Q2289.09 1082.32 2291.38 1080.58 Q2293.7 1078.84 2293.7 1075.53 Q2293.7 1072.48 2291.54 1070.77 Q2289.41 1069.03 2285.59 1069.03 L2281.57 1069.03 L2281.57 1065.19 L2285.78 1065.19 Q2289.23 1065.19 2291.06 1063.82 Q2292.89 1062.43 2292.89 1059.84 Q2292.89 1057.18 2290.99 1055.77 Q2289.11 1054.33 2285.59 1054.33 Q2283.67 1054.33 2281.47 1054.75 Q2279.27 1055.16 2276.64 1056.04 L2276.64 1051.88 Q2279.3 1051.14 2281.61 1050.77 Q2283.95 1050.39 2286.01 1050.39 Q2291.33 1050.39 2294.44 1052.83 Q2297.54 1055.23 2297.54 1059.35 Q2297.54 1062.22 2295.89 1064.21 Q2294.25 1066.18 2291.22 1066.95 Z" fill="#000000" fill-rule="nonzero" fill-opacity="1" /><path clip-path="url(#clip530)" d="M1240.29 1131.91 Q1240.29 1132.81 1239.87 1133.04 Q1239.45 1133.23 1238.29 1133.23 L1232.11 1133.23 L1227.21 1152.69 Q1226.83 1154.39 1226.83 1155.84 Q1226.83 1157.45 1227.31 1158.16 Q1227.83 1158.87 1228.89 1158.87 Q1230.98 1158.87 1233.24 1156.97 Q1235.52 1155.07 1237.46 1150.43 Q1237.71 1149.82 1237.84 1149.69 Q1238 1149.53 1238.42 1149.53 Q1239.23 1149.53 1239.23 1150.17 Q1239.23 1150.4 1238.78 1151.43 Q1238.36 1152.46 1237.42 1153.97 Q1236.52 1155.49 1235.33 1156.9 Q1234.17 1158.32 1232.4 1159.35 Q1230.63 1160.35 1228.73 1160.35 Q1226.05 1160.35 1224.35 1158.64 Q1222.67 1156.94 1222.67 1154.26 Q1222.67 1153.39 1223.35 1150.62 Q1224.03 1147.82 1227.7 1133.23 L1221.87 1133.23 Q1221.06 1133.23 1220.74 1133.2 Q1220.45 1133.17 1220.23 1133.01 Q1220.03 1132.81 1220.03 1132.43 Q1220.03 1131.82 1220.29 1131.56 Q1220.55 1131.27 1220.87 1131.24 Q1221.22 1131.17 1222.03 1131.17 L1228.21 1131.17 L1230.79 1120.71 Q1231.05 1119.67 1231.69 1119.09 Q1232.37 1118.48 1232.75 1118.42 Q1233.14 1118.32 1233.43 1118.32 Q1234.3 1118.32 1234.81 1118.81 Q1235.33 1119.26 1235.33 1120.09 Q1235.33 1120.54 1232.62 1131.17 L1238.42 1131.17 Q1239.16 1131.17 1239.45 1131.2 Q1239.77 1131.24 1240.03 1131.4 Q1240.29 1131.56 1240.29 1131.91 Z" fill="#000000" fill-rule="nonzero" fill-opacity="1" /><polyline clip-path="url(#clip534)" style="stroke:#000000; stroke-linecap:round; stroke-linejoin:round; stroke-width:2; stroke-opacity:0.1; fill:none" points="110.881,998.253 2352.76,998.253 "/>
<polyline clip-path="url(#clip534)" style="stroke:#000000; stroke-linecap:round; stroke-linejoin:round; stroke-width:2; stroke-opacity:0.1; fill:none" points="110.881,948.399 2352.76,948.399 "/>
<polyline clip-path="url(#clip530)" style="stroke:#000000; stroke-linecap:round; stroke-linejoin:round; stroke-width:4; stroke-opacity:1; fill:none" points="110.881,1023.18 110.881,923.472 "/>
<polyline clip-path="url(#clip530)" style="stroke:#000000; stroke-linecap:round; stroke-linejoin:round; stroke-width:4; stroke-opacity:1; fill:none" points="110.881,998.253 129.779,998.253 "/>
<polyline clip-path="url(#clip530)" style="stroke:#000000; stroke-linecap:round; stroke-linejoin:round; stroke-width:4; stroke-opacity:1; fill:none" points="110.881,948.399 129.779,948.399 "/>
<path clip-path="url(#clip530)" d="M62.9365 984.052 Q59.3254 984.052 57.4967 987.616 Q55.6912 991.158 55.6912 998.288 Q55.6912 1005.39 57.4967 1008.96 Q59.3254 1012.5 62.9365 1012.5 Q66.5707 1012.5 68.3763 1008.96 Q70.205 1005.39 70.205 998.288 Q70.205 991.158 68.3763 987.616 Q66.5707 984.052 62.9365 984.052 M62.9365 980.348 Q68.7467 980.348 71.8022 984.954 Q74.8809 989.538 74.8809 998.288 Q74.8809 1007.01 71.8022 1011.62 Q68.7467 1016.2 62.9365 1016.2 Q57.1264 1016.2 54.0477 1011.62 Q50.9921 1007.01 50.9921 998.288 Q50.9921 989.538 54.0477 984.954 Q57.1264 980.348 62.9365 980.348 Z" fill="#000000" fill-rule="nonzero" fill-opacity="1" /><path clip-path="url(#clip530)" d="M54.9736 961.744 L62.6124 961.744 L62.6124 935.378 L54.3023 937.045 L54.3023 932.786 L62.5661 931.119 L67.242 931.119 L67.242 961.744 L74.8809 961.744 L74.8809 965.679 L54.9736 965.679 L54.9736 961.744 Z" fill="#000000" fill-rule="nonzero" fill-opacity="1" /><path clip-path="url(#clip530)" d="M1199.37 826.429 Q1199.37 827.167 1199.09 827.577 Q1198.84 827.946 1198.55 828.028 Q1198.27 828.069 1197.53 828.11 Q1191.67 828.397 1186.87 832.373 Q1185.68 833.397 1182.69 836.595 Q1179.74 839.792 1175.8 844.055 Q1171.91 848.317 1169.66 850.613 L1180.48 876.518 Q1180.93 877.543 1181.09 877.994 Q1181.3 878.404 1181.71 878.936 Q1182.16 879.469 1182.49 879.633 Q1182.85 879.797 1183.63 880.002 Q1184.45 880.166 1185.27 880.207 Q1186.13 880.207 1187.69 880.248 Q1188.18 880.248 1188.39 880.289 Q1188.63 880.289 1188.92 880.535 Q1189.21 880.74 1189.21 881.232 Q1189.21 881.97 1188.88 882.38 Q1188.59 882.748 1188.31 882.789 Q1188.06 882.83 1187.61 882.83 Q1186.54 882.83 1182.94 882.707 Q1179.33 882.585 1178.3 882.585 L1167.73 882.83 Q1166.46 882.83 1166.46 881.806 Q1166.46 881.273 1166.54 880.986 Q1166.66 880.658 1166.95 880.535 Q1167.24 880.371 1167.44 880.33 Q1167.65 880.289 1168.14 880.248 Q1169.66 880.084 1170.8 879.633 Q1171.99 879.141 1172.48 878.65 Q1173.02 878.158 1173.02 877.789 L1172.61 876.6 L1164.12 856.556 L1156.54 864.795 L1147.97 873.854 Q1145.72 876.272 1145.72 877.625 Q1145.72 879.879 1149.08 880.248 Q1150.1 880.33 1150.1 881.15 Q1150.1 881.929 1149.78 882.339 Q1149.49 882.707 1149.2 882.789 Q1148.96 882.83 1148.59 882.83 Q1147.07 882.83 1143.87 882.707 Q1140.72 882.585 1139.16 882.585 Q1137.85 882.585 1135.18 882.707 Q1132.52 882.83 1131.29 882.83 Q1130.8 882.83 1130.51 882.585 Q1130.22 882.339 1130.22 882.093 L1130.18 881.888 Q1130.18 881.314 1130.27 880.986 Q1130.39 880.658 1130.72 880.494 Q1131.08 880.33 1131.25 880.33 Q1131.41 880.289 1132.03 880.248 Q1135.51 880.043 1138.46 878.691 Q1141.46 877.338 1144.37 874.182 Q1144.61 873.977 1144.9 873.731 Q1145.23 873.485 1145.47 873.28 L1163.18 854.22 L1153.26 830.774 Q1152.81 829.708 1152.4 829.257 Q1151.99 828.766 1150.72 828.438 Q1149.45 828.11 1146.99 828.11 Q1146.29 828.11 1145.96 828.069 Q1145.64 828.028 1145.35 827.823 Q1145.06 827.618 1145.06 827.167 Q1145.06 826.388 1145.35 826.019 Q1145.68 825.609 1145.92 825.568 Q1146.21 825.486 1146.58 825.486 Q1147.6 825.486 1151.25 825.609 Q1154.9 825.732 1155.97 825.732 Q1157.73 825.732 1161.25 825.609 Q1164.82 825.486 1166.54 825.486 Q1167.81 825.486 1167.81 826.511 Q1167.81 827.167 1167.52 827.536 Q1167.24 827.905 1166.95 827.987 Q1166.66 828.069 1166.13 828.11 Q1164.53 828.274 1163.3 828.807 Q1162.11 829.298 1161.62 829.79 Q1161.17 830.241 1161.17 830.528 L1161.58 831.635 L1168.63 848.317 L1182.24 833.725 Q1183.84 831.922 1183.84 830.692 Q1183.84 828.479 1180.48 828.11 Q1179.45 827.946 1179.45 827.167 Q1179.45 826.388 1179.78 826.019 Q1180.11 825.609 1180.35 825.568 Q1180.64 825.486 1181.05 825.486 Q1182.57 825.486 1185.68 825.609 Q1188.84 825.732 1190.4 825.732 Q1191.71 825.732 1194.37 825.609 Q1197.04 825.486 1198.27 825.486 Q1198.76 825.486 1199.05 825.732 Q1199.33 825.937 1199.33 826.183 L1199.37 826.429 Z" fill="#000000" fill-rule="nonzero" fill-opacity="1" /><path clip-path="url(#clip530)" d="M1262.65 846.227 Q1262.65 852.088 1260.55 857.909 Q1258.51 863.688 1254.9 868.443 Q1251.29 873.198 1246.7 876.887 Q1242.11 880.576 1236.74 882.625 Q1231.37 884.675 1226.12 884.675 Q1216.82 884.675 1210.71 878.568 Q1204.6 872.46 1204.6 862.254 Q1204.6 855.122 1207.8 848.031 Q1211 840.898 1216.08 835.611 Q1221.16 830.282 1227.85 826.962 Q1234.57 823.642 1241.21 823.642 Q1250.64 823.642 1256.62 829.913 Q1262.65 836.144 1262.65 846.227 M1255.14 842.948 Q1255.14 838.439 1253.87 835.037 Q1252.6 831.594 1250.47 829.626 Q1248.38 827.659 1245.88 826.716 Q1243.42 825.732 1240.72 825.732 Q1235.47 825.732 1229.85 829.134 Q1224.24 832.537 1220.06 838.849 Q1217.8 842.292 1216.16 846.432 Q1214.52 850.531 1213.79 854.179 Q1213.05 857.786 1212.72 860.327 Q1212.43 862.869 1212.43 864.631 Q1212.43 872.829 1216.37 877.666 Q1220.3 882.503 1226.62 882.503 Q1231.58 882.503 1236.41 879.592 Q1241.25 876.641 1244.57 872.419 Q1247.52 868.771 1249.69 864.385 Q1251.91 859.999 1253.01 855.982 Q1254.12 851.966 1254.61 848.727 Q1255.14 845.489 1255.14 842.948 Z" fill="#000000" fill-rule="nonzero" fill-opacity="1" /><path clip-path="url(#clip530)" d="M1321.15 836.39 Q1321.15 835.037 1320.78 833.93 Q1320.46 832.783 1319.92 832.004 Q1319.43 831.184 1318.49 830.569 Q1317.55 829.913 1316.77 829.503 Q1315.99 829.093 1314.68 828.848 Q1313.37 828.561 1312.5 828.438 Q1311.64 828.274 1310.17 828.192 Q1308.69 828.11 1307.95 828.11 Q1307.26 828.11 1305.86 828.11 Q1301.48 828.11 1300.74 828.192 Q1299.63 828.356 1299.22 829.012 Q1298.81 829.626 1298.4 831.307 L1292.95 853.195 L1302.34 853.195 Q1307.46 853.195 1310.99 851.761 Q1314.51 850.326 1316.52 848.317 Q1318.73 846.104 1319.92 842.538 Q1321.15 838.972 1321.15 836.39 M1330.29 875.042 Q1330.29 875.493 1329.92 876.518 Q1329.6 877.543 1328.78 878.977 Q1327.96 880.371 1326.85 881.642 Q1325.74 882.912 1323.98 883.773 Q1322.22 884.675 1320.21 884.675 Q1319.72 884.675 1319.23 884.634 Q1318.73 884.634 1317.51 884.429 Q1316.32 884.265 1315.33 883.937 Q1314.35 883.65 1313.12 882.953 Q1311.89 882.298 1311.03 881.396 Q1310.21 880.453 1309.64 878.977 Q1309.06 877.461 1309.06 875.616 Q1309.06 873.977 1310.41 868.484 Q1311.6 863.811 1311.6 862.664 Q1311.6 861.393 1311.19 860.204 Q1310.82 859.016 1309.88 857.786 Q1308.98 856.556 1307.05 855.819 Q1305.13 855.04 1302.42 855.04 L1292.46 855.04 L1286.89 877.297 Q1286.89 877.338 1286.76 877.912 Q1286.64 878.445 1286.64 878.732 Q1286.64 879.264 1286.97 879.592 Q1287.34 879.92 1288.24 880.084 Q1289.14 880.207 1289.84 880.248 Q1290.58 880.248 1292.09 880.248 Q1293.98 880.248 1294.31 880.576 Q1294.47 880.781 1294.47 881.15 Q1294.47 881.724 1294.31 882.134 Q1294.18 882.503 1293.85 882.625 Q1293.57 882.748 1293.36 882.789 Q1293.16 882.83 1292.79 882.83 L1282.13 882.585 L1271.56 882.83 Q1270.37 882.83 1270.37 881.888 Q1270.37 881.068 1270.65 880.74 Q1270.94 880.371 1271.31 880.33 Q1271.68 880.248 1272.62 880.248 Q1274.67 880.248 1275.9 880.125 Q1277.13 880.002 1277.91 879.838 Q1278.73 879.633 1279.14 879.059 Q1279.59 878.486 1279.79 877.994 Q1280 877.461 1280.29 876.272 L1291.52 831.184 Q1291.85 829.831 1291.85 829.626 Q1291.85 828.848 1291.35 828.643 Q1290.9 828.397 1289.59 828.274 L1286.39 828.11 Q1285.41 828.11 1285 828.069 Q1284.63 828.028 1284.34 827.823 Q1284.06 827.618 1284.06 827.167 Q1284.06 826.019 1284.55 825.773 Q1285.04 825.486 1286.48 825.486 L1310.41 825.486 Q1318.57 825.486 1323.74 829.053 Q1328.94 832.619 1328.94 838.07 Q1328.94 840.53 1327.83 842.825 Q1326.73 845.12 1324.88 846.924 Q1323.08 848.727 1320.66 850.244 Q1318.24 851.72 1315.66 852.744 Q1313.12 853.728 1310.5 854.302 Q1311.64 854.712 1312.71 855.327 Q1313.82 855.941 1315.21 857.089 Q1316.64 858.237 1317.51 860.081 Q1318.37 861.926 1318.37 864.18 Q1318.37 865.779 1318.04 868.156 Q1317.22 874.92 1317.22 877.707 Q1317.22 880.371 1317.91 881.601 Q1318.61 882.83 1320.58 882.83 Q1322.51 882.83 1324.64 881.109 Q1326.81 879.346 1328.2 875.206 Q1328.53 874.018 1329.31 874.018 Q1329.35 874.018 1329.39 874.018 Q1329.47 874.018 1329.64 874.1 Q1329.8 874.141 1329.92 874.264 Q1330.09 874.346 1330.17 874.551 Q1330.29 874.756 1330.29 875.042 Z" fill="#000000" fill-rule="nonzero" fill-opacity="1" /><polyline clip-path="url(#clip534)" style="stroke:#009af9; stroke-linecap:round; stroke-linejoin:round; stroke-width:8; stroke-opacity:1; fill:none" points="190.948,998.253 351.082,998.253 351.082,948.399 511.216,948.399 511.216,998.253 671.35,998.253 831.484,998.253 831.484,948.399 991.618,948.399 1151.75,948.399 1151.75,998.253 1311.89,998.253 1472.02,998.253 1632.15,998.253 1632.15,948.399 1792.29,948.399 1952.42,948.399 2112.56,948.399 "/>
<path clip-path="url(#clip530)" d="M110.881 1423.18 L2352.76 1423.18 L2352.76 1323.47 L110.881 1323.47  Z" fill="#ffffff" fill-rule="evenodd" fill-opacity="1"/>
<defs>
  <clipPath id="clip535">
    <rect x="110" y="1323" width="2243" height="101"/>
  </clipPath>
</defs>
<polyline clip-path="url(#clip535)" style="stroke:#000000; stroke-linecap:round; stroke-linejoin:round; stroke-width:2; stroke-opacity:0.1; fill:none" points="190.948,1423.18 190.948,1323.47 "/>
<polyline clip-path="url(#clip535)" style="stroke:#000000; stroke-linecap:round; stroke-linejoin:round; stroke-width:2; stroke-opacity:0.1; fill:none" points="351.082,1423.18 351.082,1323.47 "/>
<polyline clip-path="url(#clip535)" style="stroke:#000000; stroke-linecap:round; stroke-linejoin:round; stroke-width:2; stroke-opacity:0.1; fill:none" points="511.216,1423.18 511.216,1323.47 "/>
<polyline clip-path="url(#clip535)" style="stroke:#000000; stroke-linecap:round; stroke-linejoin:round; stroke-width:2; stroke-opacity:0.1; fill:none" points="671.35,1423.18 671.35,1323.47 "/>
<polyline clip-path="url(#clip535)" style="stroke:#000000; stroke-linecap:round; stroke-linejoin:round; stroke-width:2; stroke-opacity:0.1; fill:none" points="831.484,1423.18 831.484,1323.47 "/>
<polyline clip-path="url(#clip535)" style="stroke:#000000; stroke-linecap:round; stroke-linejoin:round; stroke-width:2; stroke-opacity:0.1; fill:none" points="991.618,1423.18 991.618,1323.47 "/>
<polyline clip-path="url(#clip535)" style="stroke:#000000; stroke-linecap:round; stroke-linejoin:round; stroke-width:2; stroke-opacity:0.1; fill:none" points="1151.75,1423.18 1151.75,1323.47 "/>
<polyline clip-path="url(#clip535)" style="stroke:#000000; stroke-linecap:round; stroke-linejoin:round; stroke-width:2; stroke-opacity:0.1; fill:none" points="1311.89,1423.18 1311.89,1323.47 "/>
<polyline clip-path="url(#clip535)" style="stroke:#000000; stroke-linecap:round; stroke-linejoin:round; stroke-width:2; stroke-opacity:0.1; fill:none" points="1472.02,1423.18 1472.02,1323.47 "/>
<polyline clip-path="url(#clip535)" style="stroke:#000000; stroke-linecap:round; stroke-linejoin:round; stroke-width:2; stroke-opacity:0.1; fill:none" points="1632.15,1423.18 1632.15,1323.47 "/>
<polyline clip-path="url(#clip535)" style="stroke:#000000; stroke-linecap:round; stroke-linejoin:round; stroke-width:2; stroke-opacity:0.1; fill:none" points="1792.29,1423.18 1792.29,1323.47 "/>
<polyline clip-path="url(#clip535)" style="stroke:#000000; stroke-linecap:round; stroke-linejoin:round; stroke-width:2; stroke-opacity:0.1; fill:none" points="1952.42,1423.18 1952.42,1323.47 "/>
<polyline clip-path="url(#clip535)" style="stroke:#000000; stroke-linecap:round; stroke-linejoin:round; stroke-width:2; stroke-opacity:0.1; fill:none" points="2112.56,1423.18 2112.56,1323.47 "/>
<polyline clip-path="url(#clip535)" style="stroke:#000000; stroke-linecap:round; stroke-linejoin:round; stroke-width:2; stroke-opacity:0.1; fill:none" points="2272.69,1423.18 2272.69,1323.47 "/>
<polyline clip-path="url(#clip530)" style="stroke:#000000; stroke-linecap:round; stroke-linejoin:round; stroke-width:4; stroke-opacity:1; fill:none" points="110.881,1423.18 2352.76,1423.18 "/>
<polyline clip-path="url(#clip530)" style="stroke:#000000; stroke-linecap:round; stroke-linejoin:round; stroke-width:4; stroke-opacity:1; fill:none" points="190.948,1423.18 190.948,1404.28 "/>
<polyline clip-path="url(#clip530)" style="stroke:#000000; stroke-linecap:round; stroke-linejoin:round; stroke-width:4; stroke-opacity:1; fill:none" points="351.082,1423.18 351.082,1404.28 "/>
<polyline clip-path="url(#clip530)" style="stroke:#000000; stroke-linecap:round; stroke-linejoin:round; stroke-width:4; stroke-opacity:1; fill:none" points="511.216,1423.18 511.216,1404.28 "/>
<polyline clip-path="url(#clip530)" style="stroke:#000000; stroke-linecap:round; stroke-linejoin:round; stroke-width:4; stroke-opacity:1; fill:none" points="671.35,1423.18 671.35,1404.28 "/>
<polyline clip-path="url(#clip530)" style="stroke:#000000; stroke-linecap:round; stroke-linejoin:round; stroke-width:4; stroke-opacity:1; fill:none" points="831.484,1423.18 831.484,1404.28 "/>
<polyline clip-path="url(#clip530)" style="stroke:#000000; stroke-linecap:round; stroke-linejoin:round; stroke-width:4; stroke-opacity:1; fill:none" points="991.618,1423.18 991.618,1404.28 "/>
<polyline clip-path="url(#clip530)" style="stroke:#000000; stroke-linecap:round; stroke-linejoin:round; stroke-width:4; stroke-opacity:1; fill:none" points="1151.75,1423.18 1151.75,1404.28 "/>
<polyline clip-path="url(#clip530)" style="stroke:#000000; stroke-linecap:round; stroke-linejoin:round; stroke-width:4; stroke-opacity:1; fill:none" points="1311.89,1423.18 1311.89,1404.28 "/>
<polyline clip-path="url(#clip530)" style="stroke:#000000; stroke-linecap:round; stroke-linejoin:round; stroke-width:4; stroke-opacity:1; fill:none" points="1472.02,1423.18 1472.02,1404.28 "/>
<polyline clip-path="url(#clip530)" style="stroke:#000000; stroke-linecap:round; stroke-linejoin:round; stroke-width:4; stroke-opacity:1; fill:none" points="1632.15,1423.18 1632.15,1404.28 "/>
<polyline clip-path="url(#clip530)" style="stroke:#000000; stroke-linecap:round; stroke-linejoin:round; stroke-width:4; stroke-opacity:1; fill:none" points="1792.29,1423.18 1792.29,1404.28 "/>
<polyline clip-path="url(#clip530)" style="stroke:#000000; stroke-linecap:round; stroke-linejoin:round; stroke-width:4; stroke-opacity:1; fill:none" points="1952.42,1423.18 1952.42,1404.28 "/>
<polyline clip-path="url(#clip530)" style="stroke:#000000; stroke-linecap:round; stroke-linejoin:round; stroke-width:4; stroke-opacity:1; fill:none" points="2112.56,1423.18 2112.56,1404.28 "/>
<polyline clip-path="url(#clip530)" style="stroke:#000000; stroke-linecap:round; stroke-linejoin:round; stroke-width:4; stroke-opacity:1; fill:none" points="2272.69,1423.18 2272.69,1404.28 "/>
<path clip-path="url(#clip530)" d="M190.948 1454.1 Q187.337 1454.1 185.508 1457.66 Q183.703 1461.2 183.703 1468.33 Q183.703 1475.44 185.508 1479.01 Q187.337 1482.55 190.948 1482.55 Q194.582 1482.55 196.388 1479.01 Q198.216 1475.44 198.216 1468.33 Q198.216 1461.2 196.388 1457.66 Q194.582 1454.1 190.948 1454.1 M190.948 1450.39 Q196.758 1450.39 199.814 1455 Q202.892 1459.58 202.892 1468.33 Q202.892 1477.06 199.814 1481.67 Q196.758 1486.25 190.948 1486.25 Q185.138 1486.25 182.059 1481.67 Q179.003 1477.06 179.003 1468.33 Q179.003 1459.58 182.059 1455 Q185.138 1450.39 190.948 1450.39 Z" fill="#000000" fill-rule="nonzero" fill-opacity="1" /><path clip-path="url(#clip530)" d="M341.464 1481.64 L349.103 1481.64 L349.103 1455.28 L340.792 1456.95 L340.792 1452.69 L349.056 1451.02 L353.732 1451.02 L353.732 1481.64 L361.371 1481.64 L361.371 1485.58 L341.464 1485.58 L341.464 1481.64 Z" fill="#000000" fill-rule="nonzero" fill-opacity="1" /><path clip-path="url(#clip530)" d="M505.869 1481.64 L522.188 1481.64 L522.188 1485.58 L500.244 1485.58 L500.244 1481.64 Q502.906 1478.89 507.489 1474.26 Q512.095 1469.61 513.276 1468.27 Q515.521 1465.74 516.401 1464.01 Q517.304 1462.25 517.304 1460.56 Q517.304 1457.8 515.359 1456.07 Q513.438 1454.33 510.336 1454.33 Q508.137 1454.33 505.683 1455.09 Q503.253 1455.86 500.475 1457.41 L500.475 1452.69 Q503.299 1451.55 505.753 1450.97 Q508.206 1450.39 510.243 1450.39 Q515.614 1450.39 518.808 1453.08 Q522.003 1455.77 522.003 1460.26 Q522.003 1462.39 521.193 1464.31 Q520.405 1466.2 518.299 1468.8 Q517.72 1469.47 514.618 1472.69 Q511.517 1475.88 505.869 1481.64 Z" fill="#000000" fill-rule="nonzero" fill-opacity="1" /><path clip-path="url(#clip530)" d="M675.597 1466.95 Q678.954 1467.66 680.829 1469.93 Q682.727 1472.2 682.727 1475.53 Q682.727 1480.65 679.208 1483.45 Q675.69 1486.25 669.208 1486.25 Q667.033 1486.25 664.718 1485.81 Q662.426 1485.39 659.972 1484.54 L659.972 1480.02 Q661.917 1481.16 664.232 1481.74 Q666.546 1482.32 669.07 1482.32 Q673.468 1482.32 675.759 1480.58 Q678.074 1478.84 678.074 1475.53 Q678.074 1472.48 675.921 1470.77 Q673.792 1469.03 669.972 1469.03 L665.945 1469.03 L665.945 1465.19 L670.158 1465.19 Q673.607 1465.19 675.435 1463.82 Q677.264 1462.43 677.264 1459.84 Q677.264 1457.18 675.366 1455.77 Q673.491 1454.33 669.972 1454.33 Q668.051 1454.33 665.852 1454.75 Q663.653 1455.16 661.014 1456.04 L661.014 1451.88 Q663.676 1451.14 665.991 1450.77 Q668.329 1450.39 670.389 1450.39 Q675.713 1450.39 678.815 1452.83 Q681.917 1455.23 681.917 1459.35 Q681.917 1462.22 680.273 1464.21 Q678.63 1466.18 675.597 1466.95 Z" fill="#000000" fill-rule="nonzero" fill-opacity="1" /><path clip-path="url(#clip530)" d="M834.493 1455.09 L822.687 1473.54 L834.493 1473.54 L834.493 1455.09 M833.266 1451.02 L839.146 1451.02 L839.146 1473.54 L844.076 1473.54 L844.076 1477.43 L839.146 1477.43 L839.146 1485.58 L834.493 1485.58 L834.493 1477.43 L818.891 1477.43 L818.891 1472.92 L833.266 1451.02 Z" fill="#000000" fill-rule="nonzero" fill-opacity="1" /><path clip-path="url(#clip530)" d="M981.895 1451.02 L1000.25 1451.02 L1000.25 1454.96 L986.178 1454.96 L986.178 1463.43 Q987.196 1463.08 988.215 1462.92 Q989.233 1462.73 990.252 1462.73 Q996.039 1462.73 999.418 1465.9 Q1002.8 1469.08 1002.8 1474.49 Q1002.8 1480.07 999.326 1483.17 Q995.854 1486.25 989.534 1486.25 Q987.358 1486.25 985.09 1485.88 Q982.844 1485.51 980.437 1484.77 L980.437 1480.07 Q982.52 1481.2 984.743 1481.76 Q986.965 1482.32 989.442 1482.32 Q993.446 1482.32 995.784 1480.21 Q998.122 1478.1 998.122 1474.49 Q998.122 1470.88 995.784 1468.77 Q993.446 1466.67 989.442 1466.67 Q987.567 1466.67 985.692 1467.08 Q983.84 1467.5 981.895 1468.38 L981.895 1451.02 Z" fill="#000000" fill-rule="nonzero" fill-opacity="1" /><path clip-path="url(#clip530)" d="M1152.16 1466.44 Q1149.01 1466.44 1147.16 1468.59 Q1145.33 1470.74 1145.33 1474.49 Q1145.33 1478.22 1147.16 1480.39 Q1149.01 1482.55 1152.16 1482.55 Q1155.3 1482.55 1157.13 1480.39 Q1158.99 1478.22 1158.99 1474.49 Q1158.99 1470.74 1157.13 1468.59 Q1155.3 1466.44 1152.16 1466.44 M1161.44 1451.78 L1161.44 1456.04 Q1159.68 1455.21 1157.87 1454.77 Q1156.09 1454.33 1154.33 1454.33 Q1149.7 1454.33 1147.25 1457.45 Q1144.82 1460.58 1144.47 1466.9 Q1145.84 1464.89 1147.9 1463.82 Q1149.96 1462.73 1152.43 1462.73 Q1157.64 1462.73 1160.65 1465.9 Q1163.68 1469.05 1163.68 1474.49 Q1163.68 1479.82 1160.54 1483.03 Q1157.39 1486.25 1152.16 1486.25 Q1146.16 1486.25 1142.99 1481.67 Q1139.82 1477.06 1139.82 1468.33 Q1139.82 1460.14 1143.71 1455.28 Q1147.6 1450.39 1154.15 1450.39 Q1155.91 1450.39 1157.69 1450.74 Q1159.49 1451.09 1161.44 1451.78 Z" fill="#000000" fill-rule="nonzero" fill-opacity="1" /><path clip-path="url(#clip530)" d="M1300.77 1451.02 L1323 1451.02 L1323 1453.01 L1310.45 1485.58 L1305.57 1485.58 L1317.37 1454.96 L1300.77 1454.96 L1300.77 1451.02 Z" fill="#000000" fill-rule="nonzero" fill-opacity="1" /><path clip-path="url(#clip530)" d="M1472.02 1469.17 Q1468.69 1469.17 1466.76 1470.95 Q1464.87 1472.73 1464.87 1475.86 Q1464.87 1478.98 1466.76 1480.77 Q1468.69 1482.55 1472.02 1482.55 Q1475.35 1482.55 1477.27 1480.77 Q1479.2 1478.96 1479.2 1475.86 Q1479.2 1472.73 1477.27 1470.95 Q1475.38 1469.17 1472.02 1469.17 M1467.34 1467.18 Q1464.33 1466.44 1462.64 1464.38 Q1460.98 1462.32 1460.98 1459.35 Q1460.98 1455.21 1463.92 1452.8 Q1466.88 1450.39 1472.02 1450.39 Q1477.18 1450.39 1480.12 1452.8 Q1483.06 1455.21 1483.06 1459.35 Q1483.06 1462.32 1481.37 1464.38 Q1479.7 1466.44 1476.72 1467.18 Q1480.1 1467.96 1481.97 1470.26 Q1483.87 1472.55 1483.87 1475.86 Q1483.87 1480.88 1480.79 1483.57 Q1477.74 1486.25 1472.02 1486.25 Q1466.3 1486.25 1463.22 1483.57 Q1460.17 1480.88 1460.17 1475.86 Q1460.17 1472.55 1462.07 1470.26 Q1463.96 1467.96 1467.34 1467.18 M1465.63 1459.79 Q1465.63 1462.48 1467.3 1463.98 Q1468.99 1465.49 1472.02 1465.49 Q1475.03 1465.49 1476.72 1463.98 Q1478.43 1462.48 1478.43 1459.79 Q1478.43 1457.11 1476.72 1455.6 Q1475.03 1454.1 1472.02 1454.1 Q1468.99 1454.1 1467.3 1455.6 Q1465.63 1457.11 1465.63 1459.79 Z" fill="#000000" fill-rule="nonzero" fill-opacity="1" /><path clip-path="url(#clip530)" d="M1622.45 1484.86 L1622.45 1480.6 Q1624.21 1481.44 1626.02 1481.88 Q1627.82 1482.32 1629.56 1482.32 Q1634.19 1482.32 1636.62 1479.21 Q1639.07 1476.09 1639.42 1469.75 Q1638.08 1471.74 1636.02 1472.8 Q1633.96 1473.87 1631.46 1473.87 Q1626.27 1473.87 1623.24 1470.74 Q1620.23 1467.59 1620.23 1462.15 Q1620.23 1456.83 1623.38 1453.61 Q1626.53 1450.39 1631.76 1450.39 Q1637.76 1450.39 1640.9 1455 Q1644.07 1459.58 1644.07 1468.33 Q1644.07 1476.51 1640.19 1481.39 Q1636.32 1486.25 1629.77 1486.25 Q1628.01 1486.25 1626.2 1485.9 Q1624.4 1485.56 1622.45 1484.86 M1631.76 1470.21 Q1634.91 1470.21 1636.74 1468.06 Q1638.59 1465.9 1638.59 1462.15 Q1638.59 1458.43 1636.74 1456.27 Q1634.91 1454.1 1631.76 1454.1 Q1628.61 1454.1 1626.76 1456.27 Q1624.93 1458.43 1624.93 1462.15 Q1624.93 1465.9 1626.76 1468.06 Q1628.61 1470.21 1631.76 1470.21 Z" fill="#000000" fill-rule="nonzero" fill-opacity="1" /><path clip-path="url(#clip530)" d="M1766.97 1481.64 L1774.61 1481.64 L1774.61 1455.28 L1766.3 1456.95 L1766.3 1452.69 L1774.57 1451.02 L1779.24 1451.02 L1779.24 1481.64 L1786.88 1481.64 L1786.88 1485.58 L1766.97 1485.58 L1766.97 1481.64 Z" fill="#000000" fill-rule="nonzero" fill-opacity="1" /><path clip-path="url(#clip530)" d="M1806.33 1454.1 Q1802.72 1454.1 1800.89 1457.66 Q1799.08 1461.2 1799.08 1468.33 Q1799.08 1475.44 1800.89 1479.01 Q1802.72 1482.55 1806.33 1482.55 Q1809.96 1482.55 1811.77 1479.01 Q1813.59 1475.44 1813.59 1468.33 Q1813.59 1461.2 1811.77 1457.66 Q1809.96 1454.1 1806.33 1454.1 M1806.33 1450.39 Q1812.14 1450.39 1815.19 1455 Q1818.27 1459.58 1818.27 1468.33 Q1818.27 1477.06 1815.19 1481.67 Q1812.14 1486.25 1806.33 1486.25 Q1800.52 1486.25 1797.44 1481.67 Q1794.38 1477.06 1794.38 1468.33 Q1794.38 1459.58 1797.44 1455 Q1800.52 1450.39 1806.33 1450.39 Z" fill="#000000" fill-rule="nonzero" fill-opacity="1" /><path clip-path="url(#clip530)" d="M1927.72 1481.64 L1935.36 1481.64 L1935.36 1455.28 L1927.05 1456.95 L1927.05 1452.69 L1935.31 1451.02 L1939.99 1451.02 L1939.99 1481.64 L1947.63 1481.64 L1947.63 1485.58 L1927.72 1485.58 L1927.72 1481.64 Z" fill="#000000" fill-rule="nonzero" fill-opacity="1" /><path clip-path="url(#clip530)" d="M1957.88 1481.64 L1965.52 1481.64 L1965.52 1455.28 L1957.21 1456.95 L1957.21 1452.69 L1965.48 1451.02 L1970.15 1451.02 L1970.15 1481.64 L1977.79 1481.64 L1977.79 1485.58 L1957.88 1485.58 L1957.88 1481.64 Z" fill="#000000" fill-rule="nonzero" fill-opacity="1" /><path clip-path="url(#clip530)" d="M2088.04 1481.64 L2095.68 1481.64 L2095.68 1455.28 L2087.37 1456.95 L2087.37 1452.69 L2095.63 1451.02 L2100.31 1451.02 L2100.31 1481.64 L2107.95 1481.64 L2107.95 1485.58 L2088.04 1485.58 L2088.04 1481.64 Z" fill="#000000" fill-rule="nonzero" fill-opacity="1" /><path clip-path="url(#clip530)" d="M2121.42 1481.64 L2137.74 1481.64 L2137.74 1485.58 L2115.8 1485.58 L2115.8 1481.64 Q2118.46 1478.89 2123.04 1474.26 Q2127.65 1469.61 2128.83 1468.27 Q2131.07 1465.74 2131.95 1464.01 Q2132.86 1462.25 2132.86 1460.56 Q2132.86 1457.8 2130.91 1456.07 Q2128.99 1454.33 2125.89 1454.33 Q2123.69 1454.33 2121.24 1455.09 Q2118.8 1455.86 2116.03 1457.41 L2116.03 1452.69 Q2118.85 1451.55 2121.3 1450.97 Q2123.76 1450.39 2125.8 1450.39 Q2131.17 1450.39 2134.36 1453.08 Q2137.55 1455.77 2137.55 1460.26 Q2137.55 1462.39 2136.74 1464.31 Q2135.96 1466.2 2133.85 1468.8 Q2133.27 1469.47 2130.17 1472.69 Q2127.07 1475.88 2121.42 1481.64 Z" fill="#000000" fill-rule="nonzero" fill-opacity="1" /><path clip-path="url(#clip530)" d="M2247.7 1481.64 L2255.34 1481.64 L2255.34 1455.28 L2247.03 1456.95 L2247.03 1452.69 L2255.29 1451.02 L2259.97 1451.02 L2259.97 1481.64 L2267.61 1481.64 L2267.61 1485.58 L2247.7 1485.58 L2247.7 1481.64 Z" fill="#000000" fill-rule="nonzero" fill-opacity="1" /><path clip-path="url(#clip530)" d="M2291.22 1466.95 Q2294.58 1467.66 2296.45 1469.93 Q2298.35 1472.2 2298.35 1475.53 Q2298.35 1480.65 2294.83 1483.45 Q2291.31 1486.25 2284.83 1486.25 Q2282.65 1486.25 2280.34 1485.81 Q2278.05 1485.39 2275.59 1484.54 L2275.59 1480.02 Q2277.54 1481.16 2279.85 1481.74 Q2282.17 1482.32 2284.69 1482.32 Q2289.09 1482.32 2291.38 1480.58 Q2293.7 1478.84 2293.7 1475.53 Q2293.7 1472.48 2291.54 1470.77 Q2289.41 1469.03 2285.59 1469.03 L2281.57 1469.03 L2281.57 1465.19 L2285.78 1465.19 Q2289.23 1465.19 2291.06 1463.82 Q2292.89 1462.43 2292.89 1459.84 Q2292.89 1457.18 2290.99 1455.77 Q2289.11 1454.33 2285.59 1454.33 Q2283.67 1454.33 2281.47 1454.75 Q2279.27 1455.16 2276.64 1456.04 L2276.64 1451.88 Q2279.3 1451.14 2281.61 1450.77 Q2283.95 1450.39 2286.01 1450.39 Q2291.33 1450.39 2294.44 1452.83 Q2297.54 1455.23 2297.54 1459.35 Q2297.54 1462.22 2295.89 1464.21 Q2294.25 1466.18 2291.22 1466.95 Z" fill="#000000" fill-rule="nonzero" fill-opacity="1" /><path clip-path="url(#clip530)" d="M1240.29 1531.91 Q1240.29 1532.81 1239.87 1533.04 Q1239.45 1533.23 1238.29 1533.23 L1232.11 1533.23 L1227.21 1552.69 Q1226.83 1554.39 1226.83 1555.84 Q1226.83 1557.45 1227.31 1558.16 Q1227.83 1558.87 1228.89 1558.87 Q1230.98 1558.87 1233.24 1556.97 Q1235.52 1555.07 1237.46 1550.43 Q1237.71 1549.82 1237.84 1549.69 Q1238 1549.53 1238.42 1549.53 Q1239.23 1549.53 1239.23 1550.17 Q1239.23 1550.4 1238.78 1551.43 Q1238.36 1552.46 1237.42 1553.97 Q1236.52 1555.49 1235.33 1556.9 Q1234.17 1558.32 1232.4 1559.35 Q1230.63 1560.35 1228.73 1560.35 Q1226.05 1560.35 1224.35 1558.64 Q1222.67 1556.94 1222.67 1554.26 Q1222.67 1553.39 1223.35 1550.62 Q1224.03 1547.82 1227.7 1533.23 L1221.87 1533.23 Q1221.06 1533.23 1220.74 1533.2 Q1220.45 1533.17 1220.23 1533.01 Q1220.03 1532.81 1220.03 1532.43 Q1220.03 1531.82 1220.29 1531.56 Q1220.55 1531.27 1220.87 1531.24 Q1221.22 1531.17 1222.03 1531.17 L1228.21 1531.17 L1230.79 1520.71 Q1231.05 1519.67 1231.69 1519.09 Q1232.37 1518.48 1232.75 1518.42 Q1233.14 1518.32 1233.43 1518.32 Q1234.3 1518.32 1234.81 1518.81 Q1235.33 1519.26 1235.33 1520.09 Q1235.33 1520.54 1232.62 1531.17 L1238.42 1531.17 Q1239.16 1531.17 1239.45 1531.2 Q1239.77 1531.24 1240.03 1531.4 Q1240.29 1531.56 1240.29 1531.91 Z" fill="#000000" fill-rule="nonzero" fill-opacity="1" /><polyline clip-path="url(#clip535)" style="stroke:#000000; stroke-linecap:round; stroke-linejoin:round; stroke-width:2; stroke-opacity:0.1; fill:none" points="110.881,1398.25 2352.76,1398.25 "/>
<polyline clip-path="url(#clip535)" style="stroke:#000000; stroke-linecap:round; stroke-linejoin:round; stroke-width:2; stroke-opacity:0.1; fill:none" points="110.881,1348.4 2352.76,1348.4 "/>
<polyline clip-path="url(#clip530)" style="stroke:#000000; stroke-linecap:round; stroke-linejoin:round; stroke-width:4; stroke-opacity:1; fill:none" points="110.881,1423.18 110.881,1323.47 "/>
<polyline clip-path="url(#clip530)" style="stroke:#000000; stroke-linecap:round; stroke-linejoin:round; stroke-width:4; stroke-opacity:1; fill:none" points="110.881,1398.25 129.779,1398.25 "/>
<polyline clip-path="url(#clip530)" style="stroke:#000000; stroke-linecap:round; stroke-linejoin:round; stroke-width:4; stroke-opacity:1; fill:none" points="110.881,1348.4 129.779,1348.4 "/>
<path clip-path="url(#clip530)" d="M62.9365 1384.05 Q59.3254 1384.05 57.4967 1387.62 Q55.6912 1391.16 55.6912 1398.29 Q55.6912 1405.39 57.4967 1408.96 Q59.3254 1412.5 62.9365 1412.5 Q66.5707 1412.5 68.3763 1408.96 Q70.205 1405.39 70.205 1398.29 Q70.205 1391.16 68.3763 1387.62 Q66.5707 1384.05 62.9365 1384.05 M62.9365 1380.35 Q68.7467 1380.35 71.8022 1384.95 Q74.8809 1389.54 74.8809 1398.29 Q74.8809 1407.01 71.8022 1411.62 Q68.7467 1416.2 62.9365 1416.2 Q57.1264 1416.2 54.0477 1411.62 Q50.9921 1407.01 50.9921 1398.29 Q50.9921 1389.54 54.0477 1384.95 Q57.1264 1380.35 62.9365 1380.35 Z" fill="#000000" fill-rule="nonzero" fill-opacity="1" /><path clip-path="url(#clip530)" d="M54.9736 1361.74 L62.6124 1361.74 L62.6124 1335.38 L54.3023 1337.04 L54.3023 1332.79 L62.5661 1331.12 L67.242 1331.12 L67.242 1361.74 L74.8809 1361.74 L74.8809 1365.68 L54.9736 1365.68 L54.9736 1361.74 Z" fill="#000000" fill-rule="nonzero" fill-opacity="1" /><path clip-path="url(#clip530)" d="M1229.1 1247.88 Q1227.99 1253.17 1226.56 1256.2 Q1224.26 1260.83 1220.37 1260.83 Q1217.42 1260.83 1215.33 1259.03 Q1213.24 1257.22 1212.74 1254.52 Q1207.37 1260.83 1201.8 1260.83 Q1196.88 1260.83 1193.77 1257.1 Q1190.65 1253.33 1190.65 1247.39 Q1190.65 1241.4 1193.6 1235.66 Q1196.59 1229.92 1201.31 1226.36 Q1206.02 1222.79 1210.86 1222.79 Q1215.98 1222.79 1218.61 1228.16 Q1218.81 1226.69 1219.75 1225.58 Q1220.7 1224.47 1222.13 1224.47 Q1223.24 1224.47 1223.89 1225.09 Q1224.55 1225.66 1224.55 1226.73 Q1224.55 1227.26 1223.97 1229.6 L1220.94 1241.32 L1219.1 1248.9 Q1218.4 1251.69 1218.2 1252.71 Q1218.03 1253.74 1218.03 1255.09 Q1218.03 1258.95 1220.53 1258.95 Q1221.76 1258.95 1222.75 1258.17 Q1223.73 1257.39 1224.51 1255.75 Q1225.29 1254.11 1225.78 1252.59 Q1226.27 1251.03 1226.93 1248.57 Q1227.13 1247.59 1227.29 1247.35 Q1227.5 1247.06 1228.07 1247.06 Q1229.1 1247.06 1229.1 1247.88 M1217.58 1232.02 Q1217.58 1231.65 1217.29 1230.62 Q1217.01 1229.6 1216.35 1228.16 Q1215.7 1226.73 1214.26 1225.7 Q1212.87 1224.64 1210.98 1224.64 Q1208.44 1224.64 1205.78 1226.81 Q1203.15 1228.98 1201.23 1232.67 Q1199.75 1235.62 1198.15 1241.81 Q1196.59 1248 1196.59 1251.08 Q1196.59 1252.96 1197 1254.64 Q1197.45 1256.28 1198.73 1257.63 Q1200 1258.95 1201.96 1258.95 Q1206.76 1258.95 1211.47 1253 Q1212.37 1251.98 1212.58 1251.57 Q1212.83 1251.12 1213.15 1249.89 L1217.33 1233.45 Q1217.58 1232.22 1217.58 1232.02 Z" fill="#000000" fill-rule="nonzero" fill-opacity="1" /><path clip-path="url(#clip530)" d="M1264.29 1262.79 Q1264.29 1264.42 1263.28 1265.4 Q1262.31 1266.38 1261.07 1266.38 Q1259.98 1266.38 1259.41 1265.74 Q1258.84 1265.11 1258.84 1264.31 Q1258.84 1263.97 1258.98 1263.53 Q1259.12 1263.08 1259.44 1262.53 Q1259.78 1261.99 1260.5 1261.58 Q1261.22 1261.18 1262.19 1261.12 Q1261.99 1260.92 1261.93 1260.9 Q1261.5 1260.55 1260.7 1260.44 Q1260.59 1260.38 1260.18 1260.38 Q1258.2 1260.38 1256.2 1261.84 Q1254.22 1263.28 1251.78 1266 Q1248.71 1269.19 1246.73 1270.36 Q1255.42 1271.51 1255.42 1276.53 Q1255.42 1277.36 1255.19 1278.37 Q1254.73 1280.26 1254.73 1281.64 Q1254.73 1284.39 1256.6 1284.39 Q1258.4 1284.39 1259.55 1282.56 Q1260.73 1280.72 1261.7 1277.14 Q1261.85 1276.48 1261.99 1276.27 Q1262.13 1276.07 1262.54 1276.07 Q1263.25 1276.07 1263.25 1276.65 Q1262.59 1280 1261.13 1282.59 Q1259.27 1285.71 1256.48 1285.71 Q1254.16 1285.71 1252.61 1284.11 Q1251.09 1282.47 1251.09 1279.89 Q1251.09 1279.26 1251.32 1277.82 Q1251.49 1277.25 1251.49 1276.59 Q1251.49 1275.24 1250.74 1274.24 Q1250 1273.2 1248.79 1272.69 Q1247.59 1272.17 1246.58 1271.94 Q1245.61 1271.68 1244.66 1271.6 Q1241.79 1283.73 1241.39 1284.48 Q1241.13 1285 1240.56 1285.34 Q1239.98 1285.71 1239.38 1285.71 Q1238.81 1285.71 1238.23 1285.31 Q1237.69 1284.94 1237.69 1284.05 Q1237.69 1283.59 1237.92 1282.76 L1246.44 1248.9 L1246.61 1247.75 Q1246.61 1247.41 1246.47 1247.24 Q1246.35 1247.04 1245.67 1246.89 Q1245.01 1246.75 1243.69 1246.75 Q1243.14 1246.75 1242.88 1246.72 Q1242.65 1246.69 1242.45 1246.55 Q1242.25 1246.38 1242.25 1246.03 Q1242.25 1245.54 1242.45 1245.29 Q1242.68 1245 1242.85 1244.94 Q1243.03 1244.88 1243.37 1244.86 Q1243.86 1244.83 1245.49 1244.68 Q1247.13 1244.51 1248.53 1244.4 Q1249.94 1244.28 1250.54 1244.28 Q1250.89 1244.28 1251.06 1244.45 Q1251.26 1244.6 1251.29 1244.77 L1251.32 1244.91 L1245.21 1269.7 Q1247.73 1268.7 1251.72 1264.25 Q1256.34 1259.09 1260.3 1259.09 Q1262.16 1259.09 1263.23 1260.24 Q1264.29 1261.35 1264.29 1262.79 Z" fill="#000000" fill-rule="nonzero" fill-opacity="1" /><polyline clip-path="url(#clip535)" style="stroke:#009af9; stroke-linecap:round; stroke-linejoin:round; stroke-width:8; stroke-opacity:1; fill:none" points="190.948,1348.4 351.082,1348.4 351.082,1398.25 511.216,1398.25 511.216,1348.4 671.35,1348.4 831.484,1348.4 831.484,1398.25 991.618,1398.25 1151.75,1398.25 1151.75,1348.4 1311.89,1348.4 1472.02,1348.4 1632.15,1348.4 1632.15,1398.25 1792.29,1398.25 1952.42,1398.25 2112.56,1398.25 "/>
</svg>
