<?xml version="1.0" encoding="utf-8"?>
<svg xmlns="http://www.w3.org/2000/svg" xmlns:xlink="http://www.w3.org/1999/xlink" width="600" height="400" viewBox="0 0 2400 1600">
<defs>
  <clipPath id="clip540">
    <rect x="0" y="0" width="2400" height="1600"/>
  </clipPath>
</defs>
<path clip-path="url(#clip540)" d="M0 1600 L2400 1600 L2400 0 L0 0  Z" fill="#ffffff" fill-rule="evenodd" fill-opacity="1"/>
<defs>
  <clipPath id="clip541">
    <rect x="480" y="0" width="1681" height="1600"/>
  </clipPath>
</defs>
<path clip-path="url(#clip540)" d="M110.881 623.18 L2352.76 623.18 L2352.76 123.472 L110.881 123.472  Z" fill="#ffffff" fill-rule="evenodd" fill-opacity="1"/>
<defs>
  <clipPath id="clip542">
    <rect x="110" y="123" width="2243" height="501"/>
  </clipPath>
</defs>
<polyline clip-path="url(#clip542)" style="stroke:#000000; stroke-linecap:round; stroke-linejoin:round; stroke-width:2; stroke-opacity:0.1; fill:none" points="235.429,623.18 235.429,123.472 "/>
<polyline clip-path="url(#clip542)" style="stroke:#000000; stroke-linecap:round; stroke-linejoin:round; stroke-width:2; stroke-opacity:0.1; fill:none" points="484.527,623.18 484.527,123.472 "/>
<polyline clip-path="url(#clip542)" style="stroke:#000000; stroke-linecap:round; stroke-linejoin:round; stroke-width:2; stroke-opacity:0.1; fill:none" points="733.624,623.18 733.624,123.472 "/>
<polyline clip-path="url(#clip542)" style="stroke:#000000; stroke-linecap:round; stroke-linejoin:round; stroke-width:2; stroke-opacity:0.1; fill:none" points="982.721,623.18 982.721,123.472 "/>
<polyline clip-path="url(#clip542)" style="stroke:#000000; stroke-linecap:round; stroke-linejoin:round; stroke-width:2; stroke-opacity:0.1; fill:none" points="1231.82,623.18 1231.82,123.472 "/>
<polyline clip-path="url(#clip542)" style="stroke:#000000; stroke-linecap:round; stroke-linejoin:round; stroke-width:2; stroke-opacity:0.1; fill:none" points="1480.92,623.18 1480.92,123.472 "/>
<polyline clip-path="url(#clip542)" style="stroke:#000000; stroke-linecap:round; stroke-linejoin:round; stroke-width:2; stroke-opacity:0.1; fill:none" points="1730.01,623.18 1730.01,123.472 "/>
<polyline clip-path="url(#clip542)" style="stroke:#000000; stroke-linecap:round; stroke-linejoin:round; stroke-width:2; stroke-opacity:0.1; fill:none" points="1979.11,623.18 1979.11,123.472 "/>
<polyline clip-path="url(#clip542)" style="stroke:#000000; stroke-linecap:round; stroke-linejoin:round; stroke-width:2; stroke-opacity:0.1; fill:none" points="2228.21,623.18 2228.21,123.472 "/>
<polyline clip-path="url(#clip540)" style="stroke:#000000; stroke-linecap:round; stroke-linejoin:round; stroke-width:4; stroke-opacity:1; fill:none" points="110.881,623.18 2352.76,623.18 "/>
<polyline clip-path="url(#clip540)" style="stroke:#000000; stroke-linecap:round; stroke-linejoin:round; stroke-width:4; stroke-opacity:1; fill:none" points="235.429,623.18 235.429,604.282 "/>
<polyline clip-path="url(#clip540)" style="stroke:#000000; stroke-linecap:round; stroke-linejoin:round; stroke-width:4; stroke-opacity:1; fill:none" points="484.527,623.18 484.527,604.282 "/>
<polyline clip-path="url(#clip540)" style="stroke:#000000; stroke-linecap:round; stroke-linejoin:round; stroke-width:4; stroke-opacity:1; fill:none" points="733.624,623.18 733.624,604.282 "/>
<polyline clip-path="url(#clip540)" style="stroke:#000000; stroke-linecap:round; stroke-linejoin:round; stroke-width:4; stroke-opacity:1; fill:none" points="982.721,623.18 982.721,604.282 "/>
<polyline clip-path="url(#clip540)" style="stroke:#000000; stroke-linecap:round; stroke-linejoin:round; stroke-width:4; stroke-opacity:1; fill:none" points="1231.82,623.18 1231.82,604.282 "/>
<polyline clip-path="url(#clip540)" style="stroke:#000000; stroke-linecap:round; stroke-linejoin:round; stroke-width:4; stroke-opacity:1; fill:none" points="1480.92,623.18 1480.92,604.282 "/>
<polyline clip-path="url(#clip540)" style="stroke:#000000; stroke-linecap:round; stroke-linejoin:round; stroke-width:4; stroke-opacity:1; fill:none" points="1730.01,623.18 1730.01,604.282 "/>
<polyline clip-path="url(#clip540)" style="stroke:#000000; stroke-linecap:round; stroke-linejoin:round; stroke-width:4; stroke-opacity:1; fill:none" points="1979.11,623.18 1979.11,604.282 "/>
<polyline clip-path="url(#clip540)" style="stroke:#000000; stroke-linecap:round; stroke-linejoin:round; stroke-width:4; stroke-opacity:1; fill:none" points="2228.21,623.18 2228.21,604.282 "/>
<path clip-path="url(#clip540)" d="M235.429 654.099 Q231.818 654.099 229.99 657.663 Q228.184 661.205 228.184 668.335 Q228.184 675.441 229.99 679.006 Q231.818 682.547 235.429 682.547 Q239.064 682.547 240.869 679.006 Q242.698 675.441 242.698 668.335 Q242.698 661.205 240.869 657.663 Q239.064 654.099 235.429 654.099 M235.429 650.395 Q241.24 650.395 244.295 655.001 Q247.374 659.585 247.374 668.335 Q247.374 677.061 244.295 681.668 Q241.24 686.251 235.429 686.251 Q229.619 686.251 226.541 681.668 Q223.485 677.061 223.485 668.335 Q223.485 659.585 226.541 655.001 Q229.619 650.395 235.429 650.395 Z" fill="#000000" fill-rule="nonzero" fill-opacity="1" /><path clip-path="url(#clip540)" d="M474.909 681.645 L482.548 681.645 L482.548 655.279 L474.237 656.946 L474.237 652.687 L482.501 651.02 L487.177 651.02 L487.177 681.645 L494.816 681.645 L494.816 685.58 L474.909 685.58 L474.909 681.645 Z" fill="#000000" fill-rule="nonzero" fill-opacity="1" /><path clip-path="url(#clip540)" d="M728.277 681.645 L744.596 681.645 L744.596 685.58 L722.652 685.58 L722.652 681.645 Q725.314 678.89 729.897 674.26 Q734.504 669.608 735.684 668.265 Q737.929 665.742 738.809 664.006 Q739.712 662.247 739.712 660.557 Q739.712 657.802 737.767 656.066 Q735.846 654.33 732.744 654.33 Q730.545 654.33 728.092 655.094 Q725.661 655.858 722.883 657.409 L722.883 652.687 Q725.707 651.552 728.161 650.974 Q730.615 650.395 732.652 650.395 Q738.022 650.395 741.216 653.08 Q744.411 655.765 744.411 660.256 Q744.411 662.386 743.601 664.307 Q742.814 666.205 740.707 668.798 Q740.129 669.469 737.027 672.686 Q733.925 675.881 728.277 681.645 Z" fill="#000000" fill-rule="nonzero" fill-opacity="1" /><path clip-path="url(#clip540)" d="M986.969 666.946 Q990.325 667.663 992.2 669.932 Q994.098 672.2 994.098 675.534 Q994.098 680.649 990.58 683.45 Q987.061 686.251 980.58 686.251 Q978.404 686.251 976.089 685.811 Q973.798 685.395 971.344 684.538 L971.344 680.024 Q973.288 681.159 975.603 681.737 Q977.918 682.316 980.441 682.316 Q984.839 682.316 987.131 680.58 Q989.446 678.844 989.446 675.534 Q989.446 672.478 987.293 670.765 Q985.163 669.029 981.344 669.029 L977.316 669.029 L977.316 665.186 L981.529 665.186 Q984.978 665.186 986.807 663.821 Q988.635 662.432 988.635 659.839 Q988.635 657.177 986.737 655.765 Q984.862 654.33 981.344 654.33 Q979.423 654.33 977.224 654.747 Q975.024 655.163 972.386 656.043 L972.386 651.876 Q975.048 651.136 977.362 650.765 Q979.7 650.395 981.761 650.395 Q987.085 650.395 990.186 652.825 Q993.288 655.233 993.288 659.353 Q993.288 662.223 991.645 664.214 Q990.001 666.182 986.969 666.946 Z" fill="#000000" fill-rule="nonzero" fill-opacity="1" /><path clip-path="url(#clip540)" d="M1234.83 655.094 L1223.02 673.543 L1234.83 673.543 L1234.83 655.094 M1233.6 651.02 L1239.48 651.02 L1239.48 673.543 L1244.41 673.543 L1244.41 677.432 L1239.48 677.432 L1239.48 685.58 L1234.83 685.58 L1234.83 677.432 L1219.23 677.432 L1219.23 672.918 L1233.6 651.02 Z" fill="#000000" fill-rule="nonzero" fill-opacity="1" /><path clip-path="url(#clip540)" d="M1471.19 651.02 L1489.55 651.02 L1489.55 654.955 L1475.48 654.955 L1475.48 663.427 Q1476.49 663.08 1477.51 662.918 Q1478.53 662.733 1479.55 662.733 Q1485.34 662.733 1488.72 665.904 Q1492.1 669.075 1492.1 674.492 Q1492.1 680.071 1488.62 683.172 Q1485.15 686.251 1478.83 686.251 Q1476.66 686.251 1474.39 685.881 Q1472.14 685.51 1469.74 684.77 L1469.74 680.071 Q1471.82 681.205 1474.04 681.76 Q1476.26 682.316 1478.74 682.316 Q1482.74 682.316 1485.08 680.21 Q1487.42 678.103 1487.42 674.492 Q1487.42 670.881 1485.08 668.774 Q1482.74 666.668 1478.74 666.668 Q1476.86 666.668 1474.99 667.085 Q1473.14 667.501 1471.19 668.381 L1471.19 651.02 Z" fill="#000000" fill-rule="nonzero" fill-opacity="1" /><path clip-path="url(#clip540)" d="M1730.42 666.436 Q1727.27 666.436 1725.42 668.589 Q1723.59 670.742 1723.59 674.492 Q1723.59 678.219 1725.42 680.395 Q1727.27 682.547 1730.42 682.547 Q1733.57 682.547 1735.39 680.395 Q1737.25 678.219 1737.25 674.492 Q1737.25 670.742 1735.39 668.589 Q1733.57 666.436 1730.42 666.436 M1739.7 651.784 L1739.7 656.043 Q1737.94 655.21 1736.14 654.77 Q1734.35 654.33 1732.59 654.33 Q1727.96 654.33 1725.51 657.455 Q1723.08 660.58 1722.73 666.899 Q1724.1 664.886 1726.16 663.821 Q1728.22 662.733 1730.7 662.733 Q1735.9 662.733 1738.91 665.904 Q1741.95 669.052 1741.95 674.492 Q1741.95 679.816 1738.8 683.034 Q1735.65 686.251 1730.42 686.251 Q1724.42 686.251 1721.25 681.668 Q1718.08 677.061 1718.08 668.335 Q1718.08 660.14 1721.97 655.279 Q1725.86 650.395 1732.41 650.395 Q1734.17 650.395 1735.95 650.742 Q1737.76 651.089 1739.7 651.784 Z" fill="#000000" fill-rule="nonzero" fill-opacity="1" /><path clip-path="url(#clip540)" d="M1968 651.02 L1990.22 651.02 L1990.22 653.011 L1977.67 685.58 L1972.79 685.58 L1984.6 654.955 L1968 654.955 L1968 651.02 Z" fill="#000000" fill-rule="nonzero" fill-opacity="1" /><path clip-path="url(#clip540)" d="M2228.21 669.168 Q2224.87 669.168 2222.95 670.95 Q2221.05 672.733 2221.05 675.858 Q2221.05 678.983 2222.95 680.765 Q2224.87 682.547 2228.21 682.547 Q2231.54 682.547 2233.46 680.765 Q2235.38 678.96 2235.38 675.858 Q2235.38 672.733 2233.46 670.95 Q2231.56 669.168 2228.21 669.168 M2223.53 667.177 Q2220.52 666.436 2218.83 664.376 Q2217.17 662.316 2217.17 659.353 Q2217.17 655.21 2220.11 652.802 Q2223.07 650.395 2228.21 650.395 Q2233.37 650.395 2236.31 652.802 Q2239.25 655.21 2239.25 659.353 Q2239.25 662.316 2237.56 664.376 Q2235.89 666.436 2232.91 667.177 Q2236.29 667.964 2238.16 670.256 Q2240.06 672.548 2240.06 675.858 Q2240.06 680.881 2236.98 683.566 Q2233.92 686.251 2228.21 686.251 Q2222.49 686.251 2219.41 683.566 Q2216.36 680.881 2216.36 675.858 Q2216.36 672.548 2218.25 670.256 Q2220.15 667.964 2223.53 667.177 M2221.82 659.793 Q2221.82 662.478 2223.49 663.983 Q2225.17 665.487 2228.21 665.487 Q2231.22 665.487 2232.91 663.983 Q2234.62 662.478 2234.62 659.793 Q2234.62 657.108 2232.91 655.603 Q2231.22 654.099 2228.21 654.099 Q2225.17 654.099 2223.49 655.603 Q2221.82 657.108 2221.82 659.793 Z" fill="#000000" fill-rule="nonzero" fill-opacity="1" /><path clip-path="url(#clip540)" d="M1240.29 731.913 Q1240.29 732.815 1239.87 733.04 Q1239.45 733.233 1238.29 733.233 L1232.11 733.233 L1227.21 752.686 Q1226.83 754.393 1226.83 755.842 Q1226.83 757.452 1227.31 758.161 Q1227.83 758.869 1228.89 758.869 Q1230.98 758.869 1233.24 756.969 Q1235.52 755.069 1237.46 750.431 Q1237.71 749.819 1237.84 749.691 Q1238 749.53 1238.42 749.53 Q1239.23 749.53 1239.23 750.174 Q1239.23 750.399 1238.78 751.43 Q1238.36 752.46 1237.42 753.974 Q1236.52 755.488 1235.33 756.905 Q1234.17 758.322 1232.4 759.352 Q1230.63 760.351 1228.73 760.351 Q1226.05 760.351 1224.35 758.644 Q1222.67 756.937 1222.67 754.264 Q1222.67 753.394 1223.35 750.625 Q1224.03 747.823 1227.7 733.233 L1221.87 733.233 Q1221.06 733.233 1220.74 733.201 Q1220.45 733.169 1220.23 733.008 Q1220.03 732.815 1220.03 732.428 Q1220.03 731.816 1220.29 731.559 Q1220.55 731.269 1220.87 731.237 Q1221.22 731.172 1222.03 731.172 L1228.21 731.172 L1230.79 720.705 Q1231.05 719.675 1231.69 719.095 Q1232.37 718.483 1232.75 718.419 Q1233.14 718.322 1233.43 718.322 Q1234.3 718.322 1234.81 718.805 Q1235.33 719.256 1235.33 720.093 Q1235.33 720.544 1232.62 731.172 L1238.42 731.172 Q1239.16 731.172 1239.45 731.204 Q1239.77 731.237 1240.03 731.398 Q1240.29 731.559 1240.29 731.913 Z" fill="#000000" fill-rule="nonzero" fill-opacity="1" /><polyline clip-path="url(#clip542)" style="stroke:#000000; stroke-linecap:round; stroke-linejoin:round; stroke-width:2; stroke-opacity:0.1; fill:none" points="110.881,623.18 2352.76,623.18 "/>
<polyline clip-path="url(#clip542)" style="stroke:#000000; stroke-linecap:round; stroke-linejoin:round; stroke-width:2; stroke-opacity:0.1; fill:none" points="110.881,290.041 2352.76,290.041 "/>
<polyline clip-path="url(#clip540)" style="stroke:#000000; stroke-linecap:round; stroke-linejoin:round; stroke-width:4; stroke-opacity:1; fill:none" points="110.881,623.18 110.881,123.472 "/>
<polyline clip-path="url(#clip540)" style="stroke:#000000; stroke-linecap:round; stroke-linejoin:round; stroke-width:4; stroke-opacity:1; fill:none" points="110.881,623.18 129.779,623.18 "/>
<polyline clip-path="url(#clip540)" style="stroke:#000000; stroke-linecap:round; stroke-linejoin:round; stroke-width:4; stroke-opacity:1; fill:none" points="110.881,290.041 129.779,290.041 "/>
<path clip-path="url(#clip540)" d="M62.9365 608.979 Q59.3254 608.979 57.4967 612.543 Q55.6912 616.085 55.6912 623.215 Q55.6912 630.321 57.4967 633.886 Q59.3254 637.427 62.9365 637.427 Q66.5707 637.427 68.3763 633.886 Q70.205 630.321 70.205 623.215 Q70.205 616.085 68.3763 612.543 Q66.5707 608.979 62.9365 608.979 M62.9365 605.275 Q68.7467 605.275 71.8022 609.881 Q74.8809 614.465 74.8809 623.215 Q74.8809 631.941 71.8022 636.548 Q68.7467 641.131 62.9365 641.131 Q57.1264 641.131 54.0477 636.548 Q50.9921 631.941 50.9921 623.215 Q50.9921 614.465 54.0477 609.881 Q57.1264 605.275 62.9365 605.275 Z" fill="#000000" fill-rule="nonzero" fill-opacity="1" /><path clip-path="url(#clip540)" d="M54.9736 303.386 L62.6124 303.386 L62.6124 277.021 L54.3023 278.687 L54.3023 274.428 L62.5661 272.761 L67.242 272.761 L67.242 303.386 L74.8809 303.386 L74.8809 307.321 L54.9736 307.321 L54.9736 303.386 Z" fill="#000000" fill-rule="nonzero" fill-opacity="1" /><path clip-path="url(#clip540)" d="M1199.37 26.4292 Q1199.37 27.167 1199.09 27.5769 Q1198.84 27.9458 1198.55 28.0278 Q1198.27 28.0688 1197.53 28.1098 Q1191.67 28.3967 1186.87 32.3726 Q1185.68 33.3974 1182.69 36.5945 Q1179.74 39.7917 1175.8 44.0546 Q1171.91 48.3175 1169.66 50.6129 L1180.48 76.5181 Q1180.93 77.5428 1181.09 77.9937 Q1181.3 78.4036 1181.71 78.9365 Q1182.16 79.4693 1182.49 79.6333 Q1182.85 79.7972 1183.63 80.0022 Q1184.45 80.1661 1185.27 80.2071 Q1186.13 80.2071 1187.69 80.2481 Q1188.18 80.2481 1188.39 80.2891 Q1188.63 80.2891 1188.92 80.535 Q1189.21 80.74 1189.21 81.2319 Q1189.21 81.9697 1188.88 82.3796 Q1188.59 82.7485 1188.31 82.7894 Q1188.06 82.8304 1187.61 82.8304 Q1186.54 82.8304 1182.94 82.7075 Q1179.33 82.5845 1178.3 82.5845 L1167.73 82.8304 Q1166.46 82.8304 1166.46 81.8057 Q1166.46 81.2728 1166.54 80.9859 Q1166.66 80.658 1166.95 80.535 Q1167.24 80.3711 1167.44 80.3301 Q1167.65 80.2891 1168.14 80.2481 Q1169.66 80.0842 1170.8 79.6333 Q1171.99 79.1414 1172.48 78.6495 Q1173.02 78.1577 1173.02 77.7888 L1172.61 76.6001 L1164.12 56.5563 L1156.54 64.7952 L1147.97 73.8538 Q1145.72 76.2722 1145.72 77.6248 Q1145.72 79.8792 1149.08 80.2481 Q1150.1 80.3301 1150.1 81.1499 Q1150.1 81.9287 1149.78 82.3386 Q1149.49 82.7075 1149.2 82.7894 Q1148.96 82.8304 1148.59 82.8304 Q1147.07 82.8304 1143.87 82.7075 Q1140.72 82.5845 1139.16 82.5845 Q1137.85 82.5845 1135.18 82.7075 Q1132.52 82.8304 1131.29 82.8304 Q1130.8 82.8304 1130.51 82.5845 Q1130.22 82.3386 1130.22 82.0926 L1130.18 81.8877 Q1130.18 81.3138 1130.27 80.9859 Q1130.39 80.658 1130.72 80.494 Q1131.08 80.3301 1131.25 80.3301 Q1131.41 80.2891 1132.03 80.2481 Q1135.51 80.0432 1138.46 78.6905 Q1141.46 77.3379 1144.37 74.1817 Q1144.61 73.9768 1144.9 73.7308 Q1145.23 73.4849 1145.47 73.2799 L1163.18 54.2199 L1153.26 30.7741 Q1152.81 29.7083 1152.4 29.2575 Q1151.99 28.7656 1150.72 28.4377 Q1149.45 28.1098 1146.99 28.1098 Q1146.29 28.1098 1145.96 28.0688 Q1145.64 28.0278 1145.35 27.8228 Q1145.06 27.6179 1145.06 27.167 Q1145.06 26.3882 1145.35 26.0193 Q1145.68 25.6094 1145.92 25.5684 Q1146.21 25.4864 1146.58 25.4864 Q1147.6 25.4864 1151.25 25.6094 Q1154.9 25.7324 1155.97 25.7324 Q1157.73 25.7324 1161.25 25.6094 Q1164.82 25.4864 1166.54 25.4864 Q1167.81 25.4864 1167.81 26.5112 Q1167.81 27.167 1167.52 27.5359 Q1167.24 27.9048 1166.95 27.9868 Q1166.66 28.0688 1166.13 28.1098 Q1164.53 28.2737 1163.3 28.8066 Q1162.11 29.2984 1161.62 29.7903 Q1161.17 30.2412 1161.17 30.5281 L1161.58 31.6348 L1168.63 48.3175 L1182.24 33.7253 Q1183.84 31.9218 1183.84 30.6921 Q1183.84 28.4787 1180.48 28.1098 Q1179.45 27.9458 1179.45 27.167 Q1179.45 26.3882 1179.78 26.0193 Q1180.11 25.6094 1180.35 25.5684 Q1180.64 25.4864 1181.05 25.4864 Q1182.57 25.4864 1185.68 25.6094 Q1188.84 25.7324 1190.4 25.7324 Q1191.71 25.7324 1194.37 25.6094 Q1197.04 25.4864 1198.27 25.4864 Q1198.76 25.4864 1199.05 25.7324 Q1199.33 25.9373 1199.33 26.1833 L1199.37 26.4292 Z" fill="#000000" fill-rule="nonzero" fill-opacity="1" /><path clip-path="url(#clip540)" d="M1262.65 46.227 Q1262.65 52.0885 1260.55 57.909 Q1258.51 63.6884 1254.9 68.4432 Q1251.29 73.198 1246.7 76.887 Q1242.11 80.576 1236.74 82.6255 Q1231.37 84.675 1226.12 84.675 Q1216.82 84.675 1210.71 78.5676 Q1204.6 72.4602 1204.6 62.2538 Q1204.6 55.1217 1207.8 48.0305 Q1211 40.8984 1216.08 35.6108 Q1221.16 30.2822 1227.85 26.9621 Q1234.57 23.6419 1241.21 23.6419 Q1250.64 23.6419 1256.62 29.9133 Q1262.65 36.1436 1262.65 46.227 M1255.14 42.9479 Q1255.14 38.439 1253.87 35.0369 Q1252.6 31.5938 1250.47 29.6264 Q1248.38 27.6589 1245.88 26.7161 Q1243.42 25.7324 1240.72 25.7324 Q1235.47 25.7324 1229.85 29.1345 Q1224.24 32.5366 1220.06 38.8489 Q1217.8 42.292 1216.16 46.432 Q1214.52 50.5309 1213.79 54.1789 Q1213.05 57.786 1212.72 60.3273 Q1212.43 62.8687 1212.43 64.6312 Q1212.43 72.8291 1216.37 77.6658 Q1220.3 82.5025 1226.62 82.5025 Q1231.58 82.5025 1236.41 79.5923 Q1241.25 76.6411 1244.57 72.4192 Q1247.52 68.7711 1249.69 64.3853 Q1251.91 59.9994 1253.01 55.9825 Q1254.12 51.9655 1254.61 48.7274 Q1255.14 45.4892 1255.14 42.9479 Z" fill="#000000" fill-rule="nonzero" fill-opacity="1" /><path clip-path="url(#clip540)" d="M1321.15 36.3896 Q1321.15 35.0369 1320.78 33.9302 Q1320.46 32.7825 1319.92 32.0037 Q1319.43 31.1839 1318.49 30.5691 Q1317.55 29.9133 1316.77 29.5034 Q1315.99 29.0935 1314.68 28.8476 Q1313.37 28.5606 1312.5 28.4377 Q1311.64 28.2737 1310.17 28.1917 Q1308.69 28.1098 1307.95 28.1098 Q1307.26 28.1098 1305.86 28.1098 Q1301.48 28.1098 1300.74 28.1917 Q1299.63 28.3557 1299.22 29.0115 Q1298.81 29.6264 1298.4 31.3069 L1292.95 53.1952 L1302.34 53.1952 Q1307.46 53.1952 1310.99 51.7606 Q1314.51 50.3259 1316.52 48.3175 Q1318.73 46.104 1319.92 42.538 Q1321.15 38.9719 1321.15 36.3896 M1330.29 75.0425 Q1330.29 75.4934 1329.92 76.5181 Q1329.6 77.5428 1328.78 78.9774 Q1327.96 80.3711 1326.85 81.6417 Q1325.74 82.9124 1323.98 83.7732 Q1322.22 84.675 1320.21 84.675 Q1319.72 84.675 1319.23 84.634 Q1318.73 84.634 1317.51 84.429 Q1316.32 84.2651 1315.33 83.9371 Q1314.35 83.6502 1313.12 82.9534 Q1311.89 82.2976 1311.03 81.3958 Q1310.21 80.4531 1309.64 78.9774 Q1309.06 77.4608 1309.06 75.6163 Q1309.06 73.9768 1310.41 68.4842 Q1311.6 63.8114 1311.6 62.6637 Q1311.6 61.393 1311.19 60.2044 Q1310.82 59.0157 1309.88 57.786 Q1308.98 56.5563 1307.05 55.8185 Q1305.13 55.0397 1302.42 55.0397 L1292.46 55.0397 L1286.89 77.2969 Q1286.89 77.3379 1286.76 77.9117 Q1286.64 78.4446 1286.64 78.7315 Q1286.64 79.2644 1286.97 79.5923 Q1287.34 79.9202 1288.24 80.0842 Q1289.14 80.2071 1289.84 80.2481 Q1290.58 80.2481 1292.09 80.2481 Q1293.98 80.2481 1294.31 80.576 Q1294.47 80.781 1294.47 81.1499 Q1294.47 81.7237 1294.31 82.1336 Q1294.18 82.5025 1293.85 82.6255 Q1293.57 82.7485 1293.36 82.7894 Q1293.16 82.8304 1292.79 82.8304 L1282.13 82.5845 L1271.56 82.8304 Q1270.37 82.8304 1270.37 81.8877 Q1270.37 81.0679 1270.65 80.74 Q1270.94 80.3711 1271.31 80.3301 Q1271.68 80.2481 1272.62 80.2481 Q1274.67 80.2481 1275.9 80.1251 Q1277.13 80.0022 1277.91 79.8382 Q1278.73 79.6333 1279.14 79.0594 Q1279.59 78.4856 1279.79 77.9937 Q1280 77.4608 1280.29 76.2722 L1291.52 31.1839 Q1291.85 29.8313 1291.85 29.6264 Q1291.85 28.8476 1291.35 28.6426 Q1290.9 28.3967 1289.59 28.2737 L1286.39 28.1098 Q1285.41 28.1098 1285 28.0688 Q1284.63 28.0278 1284.34 27.8228 Q1284.06 27.6179 1284.06 27.167 Q1284.06 26.0193 1284.55 25.7734 Q1285.04 25.4864 1286.48 25.4864 L1310.41 25.4864 Q1318.57 25.4864 1323.74 29.0525 Q1328.94 32.6186 1328.94 38.0701 Q1328.94 40.5295 1327.83 42.8249 Q1326.73 45.1203 1324.88 46.9238 Q1323.08 48.7274 1320.66 50.244 Q1318.24 51.7196 1315.66 52.7443 Q1313.12 53.7281 1310.5 54.3019 Q1311.64 54.7118 1312.71 55.3266 Q1313.82 55.9415 1315.21 57.0892 Q1316.64 58.2369 1317.51 60.0814 Q1318.37 61.9259 1318.37 64.1803 Q1318.37 65.7789 1318.04 68.1563 Q1317.22 74.9195 1317.22 77.7068 Q1317.22 80.3711 1317.91 81.6008 Q1318.61 82.8304 1320.58 82.8304 Q1322.51 82.8304 1324.64 81.1089 Q1326.81 79.3463 1328.2 75.2064 Q1328.53 74.0177 1329.31 74.0177 Q1329.35 74.0177 1329.39 74.0177 Q1329.47 74.0177 1329.64 74.0997 Q1329.8 74.1407 1329.92 74.2637 Q1330.09 74.3457 1330.17 74.5506 Q1330.29 74.7555 1330.29 75.0425 Z" fill="#000000" fill-rule="nonzero" fill-opacity="1" /><polyline clip-path="url(#clip542)" style="stroke:#009af9; stroke-linecap:round; stroke-linejoin:round; stroke-width:8; stroke-opacity:1; fill:none" points="484.527,290.041 733.624,290.041 982.721,290.041 982.721,623.18 1231.82,623.18 1480.92,623.18 1480.92,290.041 1730.01,290.041 1730.01,623.18 1979.11,623.18 2228.21,623.18 2477.3,623.18 "/>
<path clip-path="url(#clip540)" d="M110.881 1423.18 L2352.76 1423.18 L2352.76 923.472 L110.881 923.472  Z" fill="#ffffff" fill-rule="evenodd" fill-opacity="1"/>
<defs>
  <clipPath id="clip543">
    <rect x="110" y="923" width="2243" height="501"/>
  </clipPath>
</defs>
<polyline clip-path="url(#clip543)" style="stroke:#000000; stroke-linecap:round; stroke-linejoin:round; stroke-width:2; stroke-opacity:0.1; fill:none" points="235.429,1423.18 235.429,923.472 "/>
<polyline clip-path="url(#clip543)" style="stroke:#000000; stroke-linecap:round; stroke-linejoin:round; stroke-width:2; stroke-opacity:0.1; fill:none" points="484.527,1423.18 484.527,923.472 "/>
<polyline clip-path="url(#clip543)" style="stroke:#000000; stroke-linecap:round; stroke-linejoin:round; stroke-width:2; stroke-opacity:0.1; fill:none" points="733.624,1423.18 733.624,923.472 "/>
<polyline clip-path="url(#clip543)" style="stroke:#000000; stroke-linecap:round; stroke-linejoin:round; stroke-width:2; stroke-opacity:0.1; fill:none" points="982.721,1423.18 982.721,923.472 "/>
<polyline clip-path="url(#clip543)" style="stroke:#000000; stroke-linecap:round; stroke-linejoin:round; stroke-width:2; stroke-opacity:0.1; fill:none" points="1231.82,1423.18 1231.82,923.472 "/>
<polyline clip-path="url(#clip543)" style="stroke:#000000; stroke-linecap:round; stroke-linejoin:round; stroke-width:2; stroke-opacity:0.1; fill:none" points="1480.92,1423.18 1480.92,923.472 "/>
<polyline clip-path="url(#clip543)" style="stroke:#000000; stroke-linecap:round; stroke-linejoin:round; stroke-width:2; stroke-opacity:0.1; fill:none" points="1730.01,1423.18 1730.01,923.472 "/>
<polyline clip-path="url(#clip543)" style="stroke:#000000; stroke-linecap:round; stroke-linejoin:round; stroke-width:2; stroke-opacity:0.1; fill:none" points="1979.11,1423.18 1979.11,923.472 "/>
<polyline clip-path="url(#clip543)" style="stroke:#000000; stroke-linecap:round; stroke-linejoin:round; stroke-width:2; stroke-opacity:0.1; fill:none" points="2228.21,1423.18 2228.21,923.472 "/>
<polyline clip-path="url(#clip540)" style="stroke:#000000; stroke-linecap:round; stroke-linejoin:round; stroke-width:4; stroke-opacity:1; fill:none" points="110.881,1423.18 2352.76,1423.18 "/>
<polyline clip-path="url(#clip540)" style="stroke:#000000; stroke-linecap:round; stroke-linejoin:round; stroke-width:4; stroke-opacity:1; fill:none" points="235.429,1423.18 235.429,1404.28 "/>
<polyline clip-path="url(#clip540)" style="stroke:#000000; stroke-linecap:round; stroke-linejoin:round; stroke-width:4; stroke-opacity:1; fill:none" points="484.527,1423.18 484.527,1404.28 "/>
<polyline clip-path="url(#clip540)" style="stroke:#000000; stroke-linecap:round; stroke-linejoin:round; stroke-width:4; stroke-opacity:1; fill:none" points="733.624,1423.18 733.624,1404.28 "/>
<polyline clip-path="url(#clip540)" style="stroke:#000000; stroke-linecap:round; stroke-linejoin:round; stroke-width:4; stroke-opacity:1; fill:none" points="982.721,1423.18 982.721,1404.28 "/>
<polyline clip-path="url(#clip540)" style="stroke:#000000; stroke-linecap:round; stroke-linejoin:round; stroke-width:4; stroke-opacity:1; fill:none" points="1231.82,1423.18 1231.82,1404.28 "/>
<polyline clip-path="url(#clip540)" style="stroke:#000000; stroke-linecap:round; stroke-linejoin:round; stroke-width:4; stroke-opacity:1; fill:none" points="1480.92,1423.18 1480.92,1404.28 "/>
<polyline clip-path="url(#clip540)" style="stroke:#000000; stroke-linecap:round; stroke-linejoin:round; stroke-width:4; stroke-opacity:1; fill:none" points="1730.01,1423.18 1730.01,1404.28 "/>
<polyline clip-path="url(#clip540)" style="stroke:#000000; stroke-linecap:round; stroke-linejoin:round; stroke-width:4; stroke-opacity:1; fill:none" points="1979.11,1423.18 1979.11,1404.28 "/>
<polyline clip-path="url(#clip540)" style="stroke:#000000; stroke-linecap:round; stroke-linejoin:round; stroke-width:4; stroke-opacity:1; fill:none" points="2228.21,1423.18 2228.21,1404.28 "/>
<path clip-path="url(#clip540)" d="M235.429 1454.1 Q231.818 1454.1 229.99 1457.66 Q228.184 1461.2 228.184 1468.33 Q228.184 1475.44 229.99 1479.01 Q231.818 1482.55 235.429 1482.55 Q239.064 1482.55 240.869 1479.01 Q242.698 1475.44 242.698 1468.33 Q242.698 1461.2 240.869 1457.66 Q239.064 1454.1 235.429 1454.1 M235.429 1450.39 Q241.24 1450.39 244.295 1455 Q247.374 1459.58 247.374 1468.33 Q247.374 1477.06 244.295 1481.67 Q241.24 1486.25 235.429 1486.25 Q229.619 1486.25 226.541 1481.67 Q223.485 1477.06 223.485 1468.33 Q223.485 1459.58 226.541 1455 Q229.619 1450.39 235.429 1450.39 Z" fill="#000000" fill-rule="nonzero" fill-opacity="1" /><path clip-path="url(#clip540)" d="M474.909 1481.64 L482.548 1481.64 L482.548 1455.28 L474.237 1456.95 L474.237 1452.69 L482.501 1451.02 L487.177 1451.02 L487.177 1481.64 L494.816 1481.64 L494.816 1485.58 L474.909 1485.58 L474.909 1481.64 Z" fill="#000000" fill-rule="nonzero" fill-opacity="1" /><path clip-path="url(#clip540)" d="M728.277 1481.64 L744.596 1481.64 L744.596 1485.58 L722.652 1485.58 L722.652 1481.64 Q725.314 1478.89 729.897 1474.26 Q734.504 1469.61 735.684 1468.27 Q737.929 1465.74 738.809 1464.01 Q739.712 1462.25 739.712 1460.56 Q739.712 1457.8 737.767 1456.07 Q735.846 1454.33 732.744 1454.33 Q730.545 1454.33 728.092 1455.09 Q725.661 1455.86 722.883 1457.41 L722.883 1452.69 Q725.707 1451.55 728.161 1450.97 Q730.615 1450.39 732.652 1450.39 Q738.022 1450.39 741.216 1453.08 Q744.411 1455.77 744.411 1460.26 Q744.411 1462.39 743.601 1464.31 Q742.814 1466.2 740.707 1468.8 Q740.129 1469.47 737.027 1472.69 Q733.925 1475.88 728.277 1481.64 Z" fill="#000000" fill-rule="nonzero" fill-opacity="1" /><path clip-path="url(#clip540)" d="M986.969 1466.95 Q990.325 1467.66 992.2 1469.93 Q994.098 1472.2 994.098 1475.53 Q994.098 1480.65 990.58 1483.45 Q987.061 1486.25 980.58 1486.25 Q978.404 1486.25 976.089 1485.81 Q973.798 1485.39 971.344 1484.54 L971.344 1480.02 Q973.288 1481.16 975.603 1481.74 Q977.918 1482.32 980.441 1482.32 Q984.839 1482.32 987.131 1480.58 Q989.446 1478.84 989.446 1475.53 Q989.446 1472.48 987.293 1470.77 Q985.163 1469.03 981.344 1469.03 L977.316 1469.03 L977.316 1465.19 L981.529 1465.19 Q984.978 1465.19 986.807 1463.82 Q988.635 1462.43 988.635 1459.84 Q988.635 1457.18 986.737 1455.77 Q984.862 1454.33 981.344 1454.33 Q979.423 1454.33 977.224 1454.75 Q975.024 1455.16 972.386 1456.04 L972.386 1451.88 Q975.048 1451.14 977.362 1450.77 Q979.7 1450.39 981.761 1450.39 Q987.085 1450.39 990.186 1452.83 Q993.288 1455.23 993.288 1459.35 Q993.288 1462.22 991.645 1464.21 Q990.001 1466.18 986.969 1466.95 Z" fill="#000000" fill-rule="nonzero" fill-opacity="1" /><path clip-path="url(#clip540)" d="M1234.83 1455.09 L1223.02 1473.54 L1234.83 1473.54 L1234.83 1455.09 M1233.6 1451.02 L1239.48 1451.02 L1239.48 1473.54 L1244.41 1473.54 L1244.41 1477.43 L1239.48 1477.43 L1239.48 1485.58 L1234.83 1485.58 L1234.83 1477.43 L1219.23 1477.43 L1219.23 1472.92 L1233.6 1451.02 Z" fill="#000000" fill-rule="nonzero" fill-opacity="1" /><path clip-path="url(#clip540)" d="M1471.19 1451.02 L1489.55 1451.02 L1489.55 1454.96 L1475.48 1454.96 L1475.48 1463.43 Q1476.49 1463.08 1477.51 1462.92 Q1478.53 1462.73 1479.55 1462.73 Q1485.34 1462.73 1488.72 1465.9 Q1492.1 1469.08 1492.1 1474.49 Q1492.1 1480.07 1488.62 1483.17 Q1485.15 1486.25 1478.83 1486.25 Q1476.66 1486.25 1474.39 1485.88 Q1472.14 1485.51 1469.74 1484.77 L1469.74 1480.07 Q1471.82 1481.2 1474.04 1481.76 Q1476.26 1482.32 1478.74 1482.32 Q1482.74 1482.32 1485.08 1480.21 Q1487.42 1478.1 1487.42 1474.49 Q1487.42 1470.88 1485.08 1468.77 Q1482.74 1466.67 1478.74 1466.67 Q1476.86 1466.67 1474.99 1467.08 Q1473.14 1467.5 1471.19 1468.38 L1471.19 1451.02 Z" fill="#000000" fill-rule="nonzero" fill-opacity="1" /><path clip-path="url(#clip540)" d="M1730.42 1466.44 Q1727.27 1466.44 1725.42 1468.59 Q1723.59 1470.74 1723.59 1474.49 Q1723.59 1478.22 1725.42 1480.39 Q1727.27 1482.55 1730.42 1482.55 Q1733.57 1482.55 1735.39 1480.39 Q1737.25 1478.22 1737.25 1474.49 Q1737.25 1470.74 1735.39 1468.59 Q1733.57 1466.44 1730.42 1466.44 M1739.7 1451.78 L1739.7 1456.04 Q1737.94 1455.21 1736.14 1454.77 Q1734.35 1454.33 1732.59 1454.33 Q1727.96 1454.33 1725.51 1457.45 Q1723.08 1460.58 1722.73 1466.9 Q1724.1 1464.89 1726.16 1463.82 Q1728.22 1462.73 1730.7 1462.73 Q1735.9 1462.73 1738.91 1465.9 Q1741.95 1469.05 1741.95 1474.49 Q1741.95 1479.82 1738.8 1483.03 Q1735.65 1486.25 1730.42 1486.25 Q1724.42 1486.25 1721.25 1481.67 Q1718.08 1477.06 1718.08 1468.33 Q1718.08 1460.14 1721.97 1455.28 Q1725.86 1450.39 1732.41 1450.39 Q1734.17 1450.39 1735.95 1450.74 Q1737.76 1451.09 1739.7 1451.78 Z" fill="#000000" fill-rule="nonzero" fill-opacity="1" /><path clip-path="url(#clip540)" d="M1968 1451.02 L1990.22 1451.02 L1990.22 1453.01 L1977.67 1485.58 L1972.79 1485.58 L1984.6 1454.96 L1968 1454.96 L1968 1451.02 Z" fill="#000000" fill-rule="nonzero" fill-opacity="1" /><path clip-path="url(#clip540)" d="M2228.21 1469.17 Q2224.87 1469.17 2222.95 1470.95 Q2221.05 1472.73 2221.05 1475.86 Q2221.05 1478.98 2222.95 1480.77 Q2224.87 1482.55 2228.21 1482.55 Q2231.54 1482.55 2233.46 1480.77 Q2235.38 1478.96 2235.38 1475.86 Q2235.38 1472.73 2233.46 1470.95 Q2231.56 1469.17 2228.21 1469.17 M2223.53 1467.18 Q2220.52 1466.44 2218.83 1464.38 Q2217.17 1462.32 2217.17 1459.35 Q2217.17 1455.21 2220.11 1452.8 Q2223.07 1450.39 2228.21 1450.39 Q2233.37 1450.39 2236.31 1452.8 Q2239.25 1455.21 2239.25 1459.35 Q2239.25 1462.32 2237.56 1464.38 Q2235.89 1466.44 2232.91 1467.18 Q2236.29 1467.96 2238.16 1470.26 Q2240.06 1472.55 2240.06 1475.86 Q2240.06 1480.88 2236.98 1483.57 Q2233.92 1486.25 2228.21 1486.25 Q2222.49 1486.25 2219.41 1483.57 Q2216.36 1480.88 2216.36 1475.86 Q2216.36 1472.55 2218.25 1470.26 Q2220.15 1467.96 2223.53 1467.18 M2221.82 1459.79 Q2221.82 1462.48 2223.49 1463.98 Q2225.17 1465.49 2228.21 1465.49 Q2231.22 1465.49 2232.91 1463.98 Q2234.62 1462.48 2234.62 1459.79 Q2234.62 1457.11 2232.91 1455.6 Q2231.22 1454.1 2228.21 1454.1 Q2225.17 1454.1 2223.49 1455.6 Q2221.82 1457.11 2221.82 1459.79 Z" fill="#000000" fill-rule="nonzero" fill-opacity="1" /><path clip-path="url(#clip540)" d="M1240.29 1531.91 Q1240.29 1532.81 1239.87 1533.04 Q1239.45 1533.23 1238.29 1533.23 L1232.11 1533.23 L1227.21 1552.69 Q1226.83 1554.39 1226.83 1555.84 Q1226.83 1557.45 1227.31 1558.16 Q1227.83 1558.87 1228.89 1558.87 Q1230.98 1558.87 1233.24 1556.97 Q1235.52 1555.07 1237.46 1550.43 Q1237.71 1549.82 1237.84 1549.69 Q1238 1549.53 1238.42 1549.53 Q1239.23 1549.53 1239.23 1550.17 Q1239.23 1550.4 1238.78 1551.43 Q1238.36 1552.46 1237.42 1553.97 Q1236.52 1555.49 1235.33 1556.9 Q1234.17 1558.32 1232.4 1559.35 Q1230.63 1560.35 1228.73 1560.35 Q1226.05 1560.35 1224.35 1558.64 Q1222.67 1556.94 1222.67 1554.26 Q1222.67 1553.39 1223.35 1550.62 Q1224.03 1547.82 1227.7 1533.23 L1221.87 1533.23 Q1221.06 1533.23 1220.74 1533.2 Q1220.45 1533.17 1220.23 1533.01 Q1220.03 1532.81 1220.03 1532.43 Q1220.03 1531.82 1220.29 1531.56 Q1220.55 1531.27 1220.87 1531.24 Q1221.22 1531.17 1222.03 1531.17 L1228.21 1531.17 L1230.79 1520.71 Q1231.05 1519.67 1231.69 1519.09 Q1232.37 1518.48 1232.75 1518.42 Q1233.14 1518.32 1233.43 1518.32 Q1234.3 1518.32 1234.81 1518.81 Q1235.33 1519.26 1235.33 1520.09 Q1235.33 1520.54 1232.62 1531.17 L1238.42 1531.17 Q1239.16 1531.17 1239.45 1531.2 Q1239.77 1531.24 1240.03 1531.4 Q1240.29 1531.56 1240.29 1531.91 Z" fill="#000000" fill-rule="nonzero" fill-opacity="1" /><polyline clip-path="url(#clip543)" style="stroke:#000000; stroke-linecap:round; stroke-linejoin:round; stroke-width:2; stroke-opacity:0.1; fill:none" points="110.881,1423.18 2352.76,1423.18 "/>
<polyline clip-path="url(#clip543)" style="stroke:#000000; stroke-linecap:round; stroke-linejoin:round; stroke-width:2; stroke-opacity:0.1; fill:none" points="110.881,1090.04 2352.76,1090.04 "/>
<polyline clip-path="url(#clip540)" style="stroke:#000000; stroke-linecap:round; stroke-linejoin:round; stroke-width:4; stroke-opacity:1; fill:none" points="110.881,1423.18 110.881,923.472 "/>
<polyline clip-path="url(#clip540)" style="stroke:#000000; stroke-linecap:round; stroke-linejoin:round; stroke-width:4; stroke-opacity:1; fill:none" points="110.881,1423.18 129.779,1423.18 "/>
<polyline clip-path="url(#clip540)" style="stroke:#000000; stroke-linecap:round; stroke-linejoin:round; stroke-width:4; stroke-opacity:1; fill:none" points="110.881,1090.04 129.779,1090.04 "/>
<path clip-path="url(#clip540)" d="M62.9365 1408.98 Q59.3254 1408.98 57.4967 1412.54 Q55.6912 1416.08 55.6912 1423.21 Q55.6912 1430.32 57.4967 1433.89 Q59.3254 1437.43 62.9365 1437.43 Q66.5707 1437.43 68.3763 1433.89 Q70.205 1430.32 70.205 1423.21 Q70.205 1416.08 68.3763 1412.54 Q66.5707 1408.98 62.9365 1408.98 M62.9365 1405.27 Q68.7467 1405.27 71.8022 1409.88 Q74.8809 1414.46 74.8809 1423.21 Q74.8809 1431.94 71.8022 1436.55 Q68.7467 1441.13 62.9365 1441.13 Q57.1264 1441.13 54.0477 1436.55 Q50.9921 1431.94 50.9921 1423.21 Q50.9921 1414.46 54.0477 1409.88 Q57.1264 1405.27 62.9365 1405.27 Z" fill="#000000" fill-rule="nonzero" fill-opacity="1" /><path clip-path="url(#clip540)" d="M54.9736 1103.39 L62.6124 1103.39 L62.6124 1077.02 L54.3023 1078.69 L54.3023 1074.43 L62.5661 1072.76 L67.242 1072.76 L67.242 1103.39 L74.8809 1103.39 L74.8809 1107.32 L54.9736 1107.32 L54.9736 1103.39 Z" fill="#000000" fill-rule="nonzero" fill-opacity="1" /><path clip-path="url(#clip540)" d="M1229.1 847.878 Q1227.99 853.166 1226.56 856.199 Q1224.26 860.831 1220.37 860.831 Q1217.42 860.831 1215.33 859.027 Q1213.24 857.224 1212.74 854.518 Q1207.37 860.831 1201.8 860.831 Q1196.88 860.831 1193.77 857.101 Q1190.65 853.33 1190.65 847.386 Q1190.65 841.402 1193.6 835.663 Q1196.59 829.925 1201.31 826.359 Q1206.02 822.793 1210.86 822.793 Q1215.98 822.793 1218.61 828.162 Q1218.81 826.687 1219.75 825.58 Q1220.7 824.473 1222.13 824.473 Q1223.24 824.473 1223.89 825.088 Q1224.55 825.662 1224.55 826.728 Q1224.55 827.26 1223.97 829.597 L1220.94 841.32 L1219.1 848.903 Q1218.4 851.69 1218.2 852.715 Q1218.03 853.74 1218.03 855.092 Q1218.03 858.945 1220.53 858.945 Q1221.76 858.945 1222.75 858.166 Q1223.73 857.388 1224.51 855.748 Q1225.29 854.108 1225.78 852.592 Q1226.27 851.034 1226.93 848.575 Q1227.13 847.591 1227.29 847.345 Q1227.5 847.058 1228.07 847.058 Q1229.1 847.058 1229.1 847.878 M1217.58 832.015 Q1217.58 831.646 1217.29 830.622 Q1217.01 829.597 1216.35 828.162 Q1215.7 826.728 1214.26 825.703 Q1212.87 824.637 1210.98 824.637 Q1208.44 824.637 1205.78 826.81 Q1203.15 828.982 1201.23 832.671 Q1199.75 835.622 1198.15 841.812 Q1196.59 848.001 1196.59 851.075 Q1196.59 852.961 1197 854.641 Q1197.45 856.281 1198.73 857.634 Q1200 858.945 1201.96 858.945 Q1206.76 858.945 1211.47 853.002 Q1212.37 851.977 1212.58 851.567 Q1212.83 851.116 1213.15 849.887 L1217.33 833.45 Q1217.58 832.22 1217.58 832.015 Z" fill="#000000" fill-rule="nonzero" fill-opacity="1" /><path clip-path="url(#clip540)" d="M1264.29 862.789 Q1264.29 864.424 1263.28 865.4 Q1262.31 866.375 1261.07 866.375 Q1259.98 866.375 1259.41 865.744 Q1258.84 865.113 1258.84 864.31 Q1258.84 863.965 1258.98 863.535 Q1259.12 863.076 1259.44 862.531 Q1259.78 861.985 1260.5 861.584 Q1261.22 861.182 1262.19 861.125 Q1261.99 860.924 1261.93 860.895 Q1261.5 860.551 1260.7 860.436 Q1260.59 860.379 1260.18 860.379 Q1258.2 860.379 1256.2 861.842 Q1254.22 863.277 1251.78 866.002 Q1248.71 869.187 1246.73 870.364 Q1255.42 871.511 1255.42 876.533 Q1255.42 877.365 1255.19 878.369 Q1254.73 880.263 1254.73 881.64 Q1254.73 884.394 1256.6 884.394 Q1258.4 884.394 1259.55 882.558 Q1260.73 880.722 1261.7 877.135 Q1261.85 876.475 1261.99 876.274 Q1262.13 876.073 1262.54 876.073 Q1263.25 876.073 1263.25 876.647 Q1262.59 880.004 1261.13 882.587 Q1259.27 885.714 1256.48 885.714 Q1254.16 885.714 1252.61 884.107 Q1251.09 882.472 1251.09 879.89 Q1251.09 879.258 1251.32 877.824 Q1251.49 877.25 1251.49 876.59 Q1251.49 875.241 1250.74 874.237 Q1250 873.204 1248.79 872.688 Q1247.59 872.171 1246.58 871.942 Q1245.61 871.683 1244.66 871.597 Q1241.79 883.734 1241.39 884.48 Q1241.13 884.997 1240.56 885.341 Q1239.98 885.714 1239.38 885.714 Q1238.81 885.714 1238.23 885.312 Q1237.69 884.939 1237.69 884.05 Q1237.69 883.591 1237.92 882.759 L1246.44 848.902 L1246.61 847.754 Q1246.61 847.41 1246.47 847.237 Q1246.35 847.037 1245.67 846.893 Q1245.01 846.75 1243.69 846.75 Q1243.14 846.75 1242.88 846.721 Q1242.65 846.692 1242.45 846.549 Q1242.25 846.377 1242.25 846.032 Q1242.25 845.545 1242.45 845.286 Q1242.68 844.999 1242.85 844.942 Q1243.03 844.885 1243.37 844.856 Q1243.86 844.827 1245.49 844.684 Q1247.13 844.512 1248.53 844.397 Q1249.94 844.282 1250.54 844.282 Q1250.89 844.282 1251.06 844.454 Q1251.26 844.598 1251.29 844.77 L1251.32 844.913 L1245.21 869.704 Q1247.73 868.699 1251.72 864.252 Q1256.34 859.087 1260.3 859.087 Q1262.16 859.087 1263.23 860.235 Q1264.29 861.354 1264.29 862.789 Z" fill="#000000" fill-rule="nonzero" fill-opacity="1" /><polyline clip-path="url(#clip543)" style="stroke:#009af9; stroke-linecap:round; stroke-linejoin:round; stroke-width:8; stroke-opacity:1; fill:none" points="484.527,1423.18 733.624,1423.18 982.721,1423.18 982.721,1090.04 1231.82,1090.04 1480.92,1090.04 1480.92,1423.18 1730.01,1423.18 1730.01,1090.04 1979.11,1090.04 2228.21,1090.04 2477.3,1090.04 "/>
</svg>
